%TF.GenerationSoftware,KiCad,Pcbnew,8.0.1*%
%TF.CreationDate,2024-04-05T01:50:24-04:00*%
%TF.ProjectId,Headlight Controller,48656164-6c69-4676-9874-20436f6e7472,rev?*%
%TF.SameCoordinates,Original*%
%TF.FileFunction,Drillmap*%
%TF.FilePolarity,Positive*%
%FSLAX45Y45*%
G04 Gerber Fmt 4.5, Leading zero omitted, Abs format (unit mm)*
G04 Created by KiCad (PCBNEW 8.0.1) date 2024-04-05 01:50:24*
%MOMM*%
%LPD*%
G01*
G04 APERTURE LIST*
%ADD10C,0.050000*%
%ADD11C,0.200000*%
%ADD12C,0.100000*%
%ADD13C,0.100080*%
%ADD14C,0.101600*%
%ADD15C,0.110240*%
%ADD16C,0.119880*%
%ADD17C,0.120000*%
%ADD18C,0.139700*%
%ADD19C,0.140200*%
%ADD20C,0.180000*%
G04 APERTURE END LIST*
D10*
X19200000Y-15000000D02*
G75*
G02*
X18800000Y-15000000I-200000J0D01*
G01*
X18800000Y-15000000D02*
G75*
G02*
X19200000Y-15000000I200000J0D01*
G01*
X3200000Y-6000000D02*
G75*
G02*
X2800000Y-6000000I-200000J0D01*
G01*
X2800000Y-6000000D02*
G75*
G02*
X3200000Y-6000000I200000J0D01*
G01*
X19200000Y-6000000D02*
G75*
G02*
X18800000Y-6000000I-200000J0D01*
G01*
X18800000Y-6000000D02*
G75*
G02*
X19200000Y-6000000I200000J0D01*
G01*
X3200000Y-15000000D02*
G75*
G02*
X2800000Y-15000000I-200000J0D01*
G01*
X2800000Y-15000000D02*
G75*
G02*
X3200000Y-15000000I200000J0D01*
G01*
X19500000Y-5000000D02*
X19500000Y-16000000D01*
X19500000Y-16000000D02*
X2500000Y-16000000D01*
X2500000Y-16000000D02*
X2500000Y-5000000D01*
X2500000Y-5000000D02*
X19500000Y-5000000D01*
D11*
D12*
X4810000Y-10610000D02*
X4840000Y-10640000D01*
X4840000Y-10610000D02*
X4810000Y-10640000D01*
X5685000Y-9735000D02*
X5715000Y-9765000D01*
X5715000Y-9735000D02*
X5685000Y-9765000D01*
X9455000Y-6615000D02*
X9485000Y-6645000D01*
X9485000Y-6615000D02*
X9455000Y-6645000D01*
X10455000Y-6615000D02*
X10485000Y-6645000D01*
X10485000Y-6615000D02*
X10455000Y-6645000D01*
X11435000Y-9365000D02*
X11465000Y-9395000D01*
X11465000Y-9365000D02*
X11435000Y-9395000D01*
X12745000Y-8025000D02*
X12775000Y-8055000D01*
X12775000Y-8025000D02*
X12745000Y-8055000D01*
X14775000Y-7175000D02*
X14805000Y-7205000D01*
X14805000Y-7175000D02*
X14775000Y-7205000D01*
X16535000Y-13955000D02*
X16565000Y-13985000D01*
X16565000Y-13955000D02*
X16535000Y-13985000D01*
X17445000Y-7855000D02*
X17475000Y-7885000D01*
X17475000Y-7855000D02*
X17445000Y-7885000D01*
X17445000Y-11885000D02*
X17475000Y-11915000D01*
X17475000Y-11885000D02*
X17445000Y-11915000D01*
X17685000Y-13953000D02*
X17715000Y-13983000D01*
X17715000Y-13953000D02*
X17685000Y-13983000D01*
X18920510Y-6960000D02*
G75*
G02*
X18860510Y-6960000I-30000J0D01*
G01*
X18860510Y-6960000D02*
G75*
G02*
X18920510Y-6960000I30000J0D01*
G01*
X18920510Y-7770000D02*
G75*
G02*
X18860510Y-7770000I-30000J0D01*
G01*
X18860510Y-7770000D02*
G75*
G02*
X18920510Y-7770000I30000J0D01*
G01*
X18920510Y-8550000D02*
G75*
G02*
X18860510Y-8550000I-30000J0D01*
G01*
X18860510Y-8550000D02*
G75*
G02*
X18920510Y-8550000I30000J0D01*
G01*
X18920510Y-9400000D02*
G75*
G02*
X18860510Y-9400000I-30000J0D01*
G01*
X18860510Y-9400000D02*
G75*
G02*
X18920510Y-9400000I30000J0D01*
G01*
X19174510Y-6960000D02*
G75*
G02*
X19114510Y-6960000I-30000J0D01*
G01*
X19114510Y-6960000D02*
G75*
G02*
X19174510Y-6960000I30000J0D01*
G01*
X19174510Y-7770000D02*
G75*
G02*
X19114510Y-7770000I-30000J0D01*
G01*
X19114510Y-7770000D02*
G75*
G02*
X19174510Y-7770000I30000J0D01*
G01*
X19174510Y-8550000D02*
G75*
G02*
X19114510Y-8550000I-30000J0D01*
G01*
X19114510Y-8550000D02*
G75*
G02*
X19174510Y-8550000I30000J0D01*
G01*
X19174510Y-9400000D02*
G75*
G02*
X19114510Y-9400000I-30000J0D01*
G01*
X19114510Y-9400000D02*
G75*
G02*
X19174510Y-9400000I30000J0D01*
G01*
X7000000Y-7410000D02*
X7000000Y-7490000D01*
X6960000Y-7450000D02*
X7040000Y-7450000D01*
X7000000Y-7610000D02*
X7000000Y-7690000D01*
X6960000Y-7650000D02*
X7040000Y-7650000D01*
X8650000Y-7360000D02*
X8650000Y-7440000D01*
X8610000Y-7400000D02*
X8690000Y-7400000D01*
X8650000Y-7560000D02*
X8650000Y-7640000D01*
X8610000Y-7600000D02*
X8690000Y-7600000D01*
X9066356Y-5461356D02*
X9066356Y-5390644D01*
X8995644Y-5390644D01*
X8995644Y-5461356D01*
X9066356Y-5461356D01*
X9066356Y-6985356D02*
X9066356Y-6914644D01*
X8995644Y-6914644D01*
X8995644Y-6985356D01*
X9066356Y-6985356D01*
X9320356Y-5461356D02*
X9320356Y-5390644D01*
X9249644Y-5390644D01*
X9249644Y-5461356D01*
X9320356Y-5461356D01*
X9320356Y-6985356D02*
X9320356Y-6914644D01*
X9249644Y-6914644D01*
X9249644Y-6985356D01*
X9320356Y-6985356D01*
X9574356Y-5461356D02*
X9574356Y-5390644D01*
X9503644Y-5390644D01*
X9503644Y-5461356D01*
X9574356Y-5461356D01*
X9574356Y-6985356D02*
X9574356Y-6914644D01*
X9503644Y-6914644D01*
X9503644Y-6985356D01*
X9574356Y-6985356D01*
X9828356Y-5461356D02*
X9828356Y-5390644D01*
X9757644Y-5390644D01*
X9757644Y-5461356D01*
X9828356Y-5461356D01*
X9828356Y-6985356D02*
X9828356Y-6914644D01*
X9757644Y-6914644D01*
X9757644Y-6985356D01*
X9828356Y-6985356D01*
X10082356Y-5461356D02*
X10082356Y-5390644D01*
X10011644Y-5390644D01*
X10011644Y-5461356D01*
X10082356Y-5461356D01*
X10082356Y-6985356D02*
X10082356Y-6914644D01*
X10011644Y-6914644D01*
X10011644Y-6985356D01*
X10082356Y-6985356D01*
X10336356Y-5461356D02*
X10336356Y-5390644D01*
X10265644Y-5390644D01*
X10265644Y-5461356D01*
X10336356Y-5461356D01*
X10336356Y-6985356D02*
X10336356Y-6914644D01*
X10265644Y-6914644D01*
X10265644Y-6985356D01*
X10336356Y-6985356D01*
X10590356Y-5461356D02*
X10590356Y-5390644D01*
X10519644Y-5390644D01*
X10519644Y-5461356D01*
X10590356Y-5461356D01*
X10590356Y-6985356D02*
X10590356Y-6914644D01*
X10519644Y-6914644D01*
X10519644Y-6985356D01*
X10590356Y-6985356D01*
X10844356Y-5461356D02*
X10844356Y-5390644D01*
X10773644Y-5390644D01*
X10773644Y-5461356D01*
X10844356Y-5461356D01*
X10844356Y-6985356D02*
X10844356Y-6914644D01*
X10773644Y-6914644D01*
X10773644Y-6985356D01*
X10844356Y-6985356D01*
X11098356Y-5461356D02*
X11098356Y-5390644D01*
X11027644Y-5390644D01*
X11027644Y-5461356D01*
X11098356Y-5461356D01*
X11098356Y-6985356D02*
X11098356Y-6914644D01*
X11027644Y-6914644D01*
X11027644Y-6985356D01*
X11098356Y-6985356D01*
X11352356Y-5461356D02*
X11352356Y-5390644D01*
X11281644Y-5390644D01*
X11281644Y-5461356D01*
X11352356Y-5461356D01*
X11352356Y-6985356D02*
X11352356Y-6914644D01*
X11281644Y-6914644D01*
X11281644Y-6985356D01*
X11352356Y-6985356D01*
X11606356Y-5461356D02*
X11606356Y-5390644D01*
X11535644Y-5390644D01*
X11535644Y-5461356D01*
X11606356Y-5461356D01*
X11606356Y-6985356D02*
X11606356Y-6914644D01*
X11535644Y-6914644D01*
X11535644Y-6985356D01*
X11606356Y-6985356D01*
X11860356Y-5461356D02*
X11860356Y-5390644D01*
X11789644Y-5390644D01*
X11789644Y-5461356D01*
X11860356Y-5461356D01*
X11860356Y-6985356D02*
X11860356Y-6914644D01*
X11789644Y-6914644D01*
X11789644Y-6985356D01*
X11860356Y-6985356D01*
X12114356Y-5461356D02*
X12114356Y-5390644D01*
X12043644Y-5390644D01*
X12043644Y-5461356D01*
X12114356Y-5461356D01*
X12114356Y-6985356D02*
X12114356Y-6914644D01*
X12043644Y-6914644D01*
X12043644Y-6985356D01*
X12114356Y-6985356D01*
X12368356Y-5461356D02*
X12368356Y-5390644D01*
X12297644Y-5390644D01*
X12297644Y-5461356D01*
X12368356Y-5461356D01*
X12368356Y-6985356D02*
X12368356Y-6914644D01*
X12297644Y-6914644D01*
X12297644Y-6985356D01*
X12368356Y-6985356D01*
X12622356Y-5461356D02*
X12622356Y-5390644D01*
X12551644Y-5390644D01*
X12551644Y-5461356D01*
X12622356Y-5461356D01*
X12622356Y-6985356D02*
X12622356Y-6914644D01*
X12551644Y-6914644D01*
X12551644Y-6985356D01*
X12622356Y-6985356D01*
D13*
X4992000Y-8100040D02*
X5042040Y-8050000D01*
X4992000Y-7999960D01*
X4941960Y-8050000D01*
X4992000Y-8100040D01*
X6008000Y-8100040D02*
X6058040Y-8050000D01*
X6008000Y-7999960D01*
X5957960Y-8050000D01*
X6008000Y-8100040D01*
X15440000Y-8662040D02*
X15490040Y-8612000D01*
X15440000Y-8561960D01*
X15389960Y-8612000D01*
X15440000Y-8662040D01*
X15440000Y-9678040D02*
X15490040Y-9628000D01*
X15440000Y-9577960D01*
X15389960Y-9628000D01*
X15440000Y-9678040D01*
X15520000Y-11282040D02*
X15570040Y-11232000D01*
X15520000Y-11181960D01*
X15469960Y-11232000D01*
X15520000Y-11282040D01*
X15520000Y-12298040D02*
X15570040Y-12248000D01*
X15520000Y-12197960D01*
X15469960Y-12248000D01*
X15520000Y-12298040D01*
X15650000Y-14022040D02*
X15700040Y-13972000D01*
X15650000Y-13921960D01*
X15599960Y-13972000D01*
X15650000Y-14022040D01*
X15650000Y-15038040D02*
X15700040Y-14988000D01*
X15650000Y-14937960D01*
X15599960Y-14988000D01*
X15650000Y-15038040D01*
X16390000Y-6582040D02*
X16440040Y-6532000D01*
X16390000Y-6481960D01*
X16339960Y-6532000D01*
X16390000Y-6582040D01*
X16390000Y-7598040D02*
X16440040Y-7548000D01*
X16390000Y-7497960D01*
X16339960Y-7548000D01*
X16390000Y-7598040D01*
D14*
X16937900Y-6343500D02*
X17039500Y-6445100D01*
X17039500Y-6343500D02*
X16937900Y-6445100D01*
X17039500Y-6394300D02*
G75*
G02*
X16937900Y-6394300I-50800J0D01*
G01*
X16937900Y-6394300D02*
G75*
G02*
X17039500Y-6394300I50800J0D01*
G01*
X16952500Y-14814900D02*
X17054100Y-14916500D01*
X17054100Y-14814900D02*
X16952500Y-14916500D01*
X17054100Y-14865700D02*
G75*
G02*
X16952500Y-14865700I-50800J0D01*
G01*
X16952500Y-14865700D02*
G75*
G02*
X17054100Y-14865700I50800J0D01*
G01*
X17191900Y-6343500D02*
X17293500Y-6445100D01*
X17293500Y-6343500D02*
X17191900Y-6445100D01*
X17293500Y-6394300D02*
G75*
G02*
X17191900Y-6394300I-50800J0D01*
G01*
X17191900Y-6394300D02*
G75*
G02*
X17293500Y-6394300I50800J0D01*
G01*
X17206500Y-14814900D02*
X17308100Y-14916500D01*
X17308100Y-14814900D02*
X17206500Y-14916500D01*
X17308100Y-14865700D02*
G75*
G02*
X17206500Y-14865700I-50800J0D01*
G01*
X17206500Y-14865700D02*
G75*
G02*
X17308100Y-14865700I50800J0D01*
G01*
X17445900Y-6343500D02*
X17547500Y-6445100D01*
X17547500Y-6343500D02*
X17445900Y-6445100D01*
X17547500Y-6394300D02*
G75*
G02*
X17445900Y-6394300I-50800J0D01*
G01*
X17445900Y-6394300D02*
G75*
G02*
X17547500Y-6394300I50800J0D01*
G01*
X17460500Y-14814900D02*
X17562100Y-14916500D01*
X17562100Y-14814900D02*
X17460500Y-14916500D01*
X17562100Y-14865700D02*
G75*
G02*
X17460500Y-14865700I-50800J0D01*
G01*
X17460500Y-14865700D02*
G75*
G02*
X17562100Y-14865700I50800J0D01*
G01*
D15*
X7522630Y-7212290D02*
X7632870Y-7322530D01*
X7632870Y-7212290D02*
X7522630Y-7322530D01*
X7577750Y-7212290D02*
X7577750Y-7322530D01*
X7522630Y-7267410D02*
X7632870Y-7267410D01*
X7751230Y-7212290D02*
X7861470Y-7322530D01*
X7861470Y-7212290D02*
X7751230Y-7322530D01*
X7806350Y-7212290D02*
X7806350Y-7322530D01*
X7751230Y-7267410D02*
X7861470Y-7267410D01*
X7979830Y-7212290D02*
X8090070Y-7322530D01*
X8090070Y-7212290D02*
X7979830Y-7322530D01*
X8034950Y-7212290D02*
X8034950Y-7322530D01*
X7979830Y-7267410D02*
X8090070Y-7267410D01*
D16*
X2900060Y-8208060D02*
X3019940Y-8327940D01*
X3019940Y-8208060D02*
X2900060Y-8327940D01*
X3002384Y-8310384D02*
X3002384Y-8225616D01*
X2917616Y-8225616D01*
X2917616Y-8310384D01*
X3002384Y-8310384D01*
X2900060Y-9732060D02*
X3019940Y-9851940D01*
X3019940Y-9732060D02*
X2900060Y-9851940D01*
X3002384Y-9834384D02*
X3002384Y-9749616D01*
X2917616Y-9749616D01*
X2917616Y-9834384D01*
X3002384Y-9834384D01*
X6428060Y-8400060D02*
X6547940Y-8519940D01*
X6547940Y-8400060D02*
X6428060Y-8519940D01*
X6530384Y-8502384D02*
X6530384Y-8417616D01*
X6445616Y-8417616D01*
X6445616Y-8502384D01*
X6530384Y-8502384D01*
X6428060Y-8900060D02*
X6547940Y-9019940D01*
X6547940Y-8900060D02*
X6428060Y-9019940D01*
X6530384Y-9002384D02*
X6530384Y-8917616D01*
X6445616Y-8917616D01*
X6445616Y-9002384D01*
X6530384Y-9002384D01*
X6441060Y-9665060D02*
X6560940Y-9784940D01*
X6560940Y-9665060D02*
X6441060Y-9784940D01*
X6543384Y-9767384D02*
X6543384Y-9682616D01*
X6458616Y-9682616D01*
X6458616Y-9767384D01*
X6543384Y-9767384D01*
X7040060Y-12478060D02*
X7159940Y-12597940D01*
X7159940Y-12478060D02*
X7040060Y-12597940D01*
X7142384Y-12580384D02*
X7142384Y-12495616D01*
X7057616Y-12495616D01*
X7057616Y-12580384D01*
X7142384Y-12580384D01*
X7040060Y-14002060D02*
X7159940Y-14121940D01*
X7159940Y-14002060D02*
X7040060Y-14121940D01*
X7142384Y-14104384D02*
X7142384Y-14019616D01*
X7057616Y-14019616D01*
X7057616Y-14104384D01*
X7142384Y-14104384D01*
X7920060Y-12476060D02*
X8039940Y-12595940D01*
X8039940Y-12476060D02*
X7920060Y-12595940D01*
X8022384Y-12578384D02*
X8022384Y-12493616D01*
X7937616Y-12493616D01*
X7937616Y-12578384D01*
X8022384Y-12578384D01*
X7920060Y-14000060D02*
X8039940Y-14119940D01*
X8039940Y-14000060D02*
X7920060Y-14119940D01*
X8022384Y-14102384D02*
X8022384Y-14017616D01*
X7937616Y-14017616D01*
X7937616Y-14102384D01*
X8022384Y-14102384D01*
X7952060Y-8400060D02*
X8071940Y-8519940D01*
X8071940Y-8400060D02*
X7952060Y-8519940D01*
X8054384Y-8502384D02*
X8054384Y-8417616D01*
X7969616Y-8417616D01*
X7969616Y-8502384D01*
X8054384Y-8502384D01*
X7952060Y-8900060D02*
X8071940Y-9019940D01*
X8071940Y-8900060D02*
X7952060Y-9019940D01*
X8054384Y-9002384D02*
X8054384Y-8917616D01*
X7969616Y-8917616D01*
X7969616Y-9002384D01*
X8054384Y-9002384D01*
X7965060Y-9665060D02*
X8084940Y-9784940D01*
X8084940Y-9665060D02*
X7965060Y-9784940D01*
X8067384Y-9767384D02*
X8067384Y-9682616D01*
X7982616Y-9682616D01*
X7982616Y-9767384D01*
X8067384Y-9767384D01*
X9501049Y-8034060D02*
X9620929Y-8153940D01*
X9620929Y-8034060D02*
X9501049Y-8153940D01*
X9603373Y-8136384D02*
X9603373Y-8051616D01*
X9518605Y-8051616D01*
X9518605Y-8136384D01*
X9603373Y-8136384D01*
X9501049Y-9558060D02*
X9620929Y-9677940D01*
X9620929Y-9558060D02*
X9501049Y-9677940D01*
X9603373Y-9660384D02*
X9603373Y-9575616D01*
X9518605Y-9575616D01*
X9518605Y-9660384D01*
X9603373Y-9660384D01*
X9800060Y-10816060D02*
X9919940Y-10935940D01*
X9919940Y-10816060D02*
X9800060Y-10935940D01*
X9902384Y-10918384D02*
X9902384Y-10833616D01*
X9817616Y-10833616D01*
X9817616Y-10918384D01*
X9902384Y-10918384D01*
X9800060Y-12340060D02*
X9919940Y-12459940D01*
X9919940Y-12340060D02*
X9800060Y-12459940D01*
X9902384Y-12442384D02*
X9902384Y-12357616D01*
X9817616Y-12357616D01*
X9817616Y-12442384D01*
X9902384Y-12442384D01*
X10500060Y-7396060D02*
X10619940Y-7515940D01*
X10619940Y-7396060D02*
X10500060Y-7515940D01*
X10602384Y-7498384D02*
X10602384Y-7413616D01*
X10517616Y-7413616D01*
X10517616Y-7498384D01*
X10602384Y-7498384D01*
X10500060Y-8920060D02*
X10619940Y-9039940D01*
X10619940Y-8920060D02*
X10500060Y-9039940D01*
X10602384Y-9022384D02*
X10602384Y-8937616D01*
X10517616Y-8937616D01*
X10517616Y-9022384D01*
X10602384Y-9022384D01*
X11116555Y-12626060D02*
X11236434Y-12745940D01*
X11236434Y-12626060D02*
X11116555Y-12745940D01*
X11218879Y-12728384D02*
X11218879Y-12643616D01*
X11134110Y-12643616D01*
X11134110Y-12728384D01*
X11218879Y-12728384D01*
X11116555Y-14150060D02*
X11236434Y-14269940D01*
X11236434Y-14150060D02*
X11116555Y-14269940D01*
X11218879Y-14252384D02*
X11218879Y-14167616D01*
X11134110Y-14167616D01*
X11134110Y-14252384D01*
X11218879Y-14252384D01*
X18200060Y-5598060D02*
X18319940Y-5717940D01*
X18319940Y-5598060D02*
X18200060Y-5717940D01*
X18302384Y-5700384D02*
X18302384Y-5615616D01*
X18217616Y-5615616D01*
X18217616Y-5700384D01*
X18302384Y-5700384D01*
X18200060Y-7122060D02*
X18319940Y-7241940D01*
X18319940Y-7122060D02*
X18200060Y-7241940D01*
X18302384Y-7224384D02*
X18302384Y-7139616D01*
X18217616Y-7139616D01*
X18217616Y-7224384D01*
X18302384Y-7224384D01*
X18210060Y-7528060D02*
X18329940Y-7647940D01*
X18329940Y-7528060D02*
X18210060Y-7647940D01*
X18312384Y-7630384D02*
X18312384Y-7545616D01*
X18227616Y-7545616D01*
X18227616Y-7630384D01*
X18312384Y-7630384D01*
X18210060Y-9052060D02*
X18329940Y-9171940D01*
X18329940Y-9052060D02*
X18210060Y-9171940D01*
X18312384Y-9154384D02*
X18312384Y-9069616D01*
X18227616Y-9069616D01*
X18227616Y-9154384D01*
X18312384Y-9154384D01*
X18320060Y-13908060D02*
X18439940Y-14027940D01*
X18439940Y-13908060D02*
X18320060Y-14027940D01*
X18422384Y-14010384D02*
X18422384Y-13925616D01*
X18337616Y-13925616D01*
X18337616Y-14010384D01*
X18422384Y-14010384D01*
X18320060Y-15432060D02*
X18439940Y-15551940D01*
X18439940Y-15432060D02*
X18320060Y-15551940D01*
X18422384Y-15534384D02*
X18422384Y-15449616D01*
X18337616Y-15449616D01*
X18337616Y-15534384D01*
X18422384Y-15534384D01*
X18330060Y-11848060D02*
X18449940Y-11967940D01*
X18449940Y-11848060D02*
X18330060Y-11967940D01*
X18432384Y-11950384D02*
X18432384Y-11865616D01*
X18347616Y-11865616D01*
X18347616Y-11950384D01*
X18432384Y-11950384D01*
X18330060Y-13372060D02*
X18449940Y-13491940D01*
X18449940Y-13372060D02*
X18330060Y-13491940D01*
X18432384Y-13474384D02*
X18432384Y-13389616D01*
X18347616Y-13389616D01*
X18347616Y-13474384D01*
X18432384Y-13474384D01*
D17*
X3740000Y-9236000D02*
X3860000Y-9356000D01*
X3860000Y-9236000D02*
X3740000Y-9356000D01*
X3800000Y-9356000D02*
X3860000Y-9296000D01*
X3800000Y-9236000D01*
X3740000Y-9296000D01*
X3800000Y-9356000D01*
X3740000Y-9490000D02*
X3860000Y-9610000D01*
X3860000Y-9490000D02*
X3740000Y-9610000D01*
X3800000Y-9610000D02*
X3860000Y-9550000D01*
X3800000Y-9490000D01*
X3740000Y-9550000D01*
X3800000Y-9610000D01*
X3740000Y-9744000D02*
X3860000Y-9864000D01*
X3860000Y-9744000D02*
X3740000Y-9864000D01*
X3800000Y-9864000D02*
X3860000Y-9804000D01*
X3800000Y-9744000D01*
X3740000Y-9804000D01*
X3800000Y-9864000D01*
X4490000Y-9236000D02*
X4610000Y-9356000D01*
X4610000Y-9236000D02*
X4490000Y-9356000D01*
X4550000Y-9356000D02*
X4610000Y-9296000D01*
X4550000Y-9236000D01*
X4490000Y-9296000D01*
X4550000Y-9356000D01*
X4490000Y-9490000D02*
X4610000Y-9610000D01*
X4610000Y-9490000D02*
X4490000Y-9610000D01*
X4550000Y-9610000D02*
X4610000Y-9550000D01*
X4550000Y-9490000D01*
X4490000Y-9550000D01*
X4550000Y-9610000D01*
X4490000Y-9744000D02*
X4610000Y-9864000D01*
X4610000Y-9744000D02*
X4490000Y-9864000D01*
X4550000Y-9864000D02*
X4610000Y-9804000D01*
X4550000Y-9744000D01*
X4490000Y-9804000D01*
X4550000Y-9864000D01*
X8490000Y-8132000D02*
X8610000Y-8252000D01*
X8610000Y-8132000D02*
X8490000Y-8252000D01*
X8550000Y-8252000D02*
X8610000Y-8192000D01*
X8550000Y-8132000D01*
X8490000Y-8192000D01*
X8550000Y-8252000D01*
X8490000Y-8386000D02*
X8610000Y-8506000D01*
X8610000Y-8386000D02*
X8490000Y-8506000D01*
X8550000Y-8506000D02*
X8610000Y-8446000D01*
X8550000Y-8386000D01*
X8490000Y-8446000D01*
X8550000Y-8506000D01*
X8490000Y-8640000D02*
X8610000Y-8760000D01*
X8610000Y-8640000D02*
X8490000Y-8760000D01*
X8550000Y-8760000D02*
X8610000Y-8700000D01*
X8550000Y-8640000D01*
X8490000Y-8700000D01*
X8550000Y-8760000D01*
X8840000Y-12986000D02*
X8960000Y-13106000D01*
X8960000Y-12986000D02*
X8840000Y-13106000D01*
X8900000Y-13106000D02*
X8960000Y-13046000D01*
X8900000Y-12986000D01*
X8840000Y-13046000D01*
X8900000Y-13106000D01*
X8840000Y-13240000D02*
X8960000Y-13360000D01*
X8960000Y-13240000D02*
X8840000Y-13360000D01*
X8900000Y-13360000D02*
X8960000Y-13300000D01*
X8900000Y-13240000D01*
X8840000Y-13300000D01*
X8900000Y-13360000D01*
X8840000Y-13494000D02*
X8960000Y-13614000D01*
X8960000Y-13494000D02*
X8840000Y-13614000D01*
X8900000Y-13614000D02*
X8960000Y-13554000D01*
X8900000Y-13494000D01*
X8840000Y-13554000D01*
X8900000Y-13614000D01*
X10480000Y-9322000D02*
X10600000Y-9442000D01*
X10600000Y-9322000D02*
X10480000Y-9442000D01*
X10540000Y-9442000D02*
X10600000Y-9382000D01*
X10540000Y-9322000D01*
X10480000Y-9382000D01*
X10540000Y-9442000D01*
X10480000Y-9576000D02*
X10600000Y-9696000D01*
X10600000Y-9576000D02*
X10480000Y-9696000D01*
X10540000Y-9696000D02*
X10600000Y-9636000D01*
X10540000Y-9576000D01*
X10480000Y-9636000D01*
X10540000Y-9696000D01*
X10480000Y-9830000D02*
X10600000Y-9950000D01*
X10600000Y-9830000D02*
X10480000Y-9950000D01*
X10540000Y-9950000D02*
X10600000Y-9890000D01*
X10540000Y-9830000D01*
X10480000Y-9890000D01*
X10540000Y-9950000D01*
X10589011Y-12076000D02*
X10709011Y-12196000D01*
X10709011Y-12076000D02*
X10589011Y-12196000D01*
X10649011Y-12196000D02*
X10709011Y-12136000D01*
X10649011Y-12076000D01*
X10589011Y-12136000D01*
X10649011Y-12196000D01*
X10589011Y-12330000D02*
X10709011Y-12450000D01*
X10709011Y-12330000D02*
X10589011Y-12450000D01*
X10649011Y-12450000D02*
X10709011Y-12390000D01*
X10649011Y-12330000D01*
X10589011Y-12390000D01*
X10649011Y-12450000D01*
X10589011Y-12584000D02*
X10709011Y-12704000D01*
X10709011Y-12584000D02*
X10589011Y-12704000D01*
X10649011Y-12704000D02*
X10709011Y-12644000D01*
X10649011Y-12584000D01*
X10589011Y-12644000D01*
X10649011Y-12704000D01*
X11490000Y-8374000D02*
X11610000Y-8494000D01*
X11610000Y-8374000D02*
X11490000Y-8494000D01*
X11550000Y-8494000D02*
X11610000Y-8434000D01*
X11550000Y-8374000D01*
X11490000Y-8434000D01*
X11550000Y-8494000D01*
X11490000Y-8628000D02*
X11610000Y-8748000D01*
X11610000Y-8628000D02*
X11490000Y-8748000D01*
X11550000Y-8748000D02*
X11610000Y-8688000D01*
X11550000Y-8628000D01*
X11490000Y-8688000D01*
X11550000Y-8748000D01*
X11490000Y-8882000D02*
X11610000Y-9002000D01*
X11610000Y-8882000D02*
X11490000Y-9002000D01*
X11550000Y-9002000D02*
X11610000Y-8942000D01*
X11550000Y-8882000D01*
X11490000Y-8942000D01*
X11550000Y-9002000D01*
X11805505Y-13894000D02*
X11925505Y-14014000D01*
X11925505Y-13894000D02*
X11805505Y-14014000D01*
X11865505Y-14014000D02*
X11925505Y-13954000D01*
X11865505Y-13894000D01*
X11805505Y-13954000D01*
X11865505Y-14014000D01*
X11805505Y-14148000D02*
X11925505Y-14268000D01*
X11925505Y-14148000D02*
X11805505Y-14268000D01*
X11865505Y-14268000D02*
X11925505Y-14208000D01*
X11865505Y-14148000D01*
X11805505Y-14208000D01*
X11865505Y-14268000D01*
X11805505Y-14402000D02*
X11925505Y-14522000D01*
X11925505Y-14402000D02*
X11805505Y-14522000D01*
X11865505Y-14522000D02*
X11925505Y-14462000D01*
X11865505Y-14402000D01*
X11805505Y-14462000D01*
X11865505Y-14522000D01*
D18*
X4950000Y-5620170D02*
X4950000Y-5759870D01*
X4880150Y-5690020D02*
X5019850Y-5690020D01*
X5019850Y-5690020D02*
G75*
G02*
X4880150Y-5690020I-69850J0D01*
G01*
X4880150Y-5690020D02*
G75*
G02*
X5019850Y-5690020I69850J0D01*
G01*
X4950000Y-6840160D02*
X4950000Y-6979860D01*
X4880150Y-6910010D02*
X5019850Y-6910010D01*
X5019850Y-6910010D02*
G75*
G02*
X4880150Y-6910010I-69850J0D01*
G01*
X4880150Y-6910010D02*
G75*
G02*
X5019850Y-6910010I69850J0D01*
G01*
X5550000Y-7040160D02*
X5550000Y-7179860D01*
X5480150Y-7110010D02*
X5619850Y-7110010D01*
X5619850Y-7110010D02*
G75*
G02*
X5480150Y-7110010I-69850J0D01*
G01*
X5480150Y-7110010D02*
G75*
G02*
X5619850Y-7110010I69850J0D01*
G01*
X6150000Y-5620170D02*
X6150000Y-5759870D01*
X6080150Y-5690020D02*
X6219850Y-5690020D01*
X6219850Y-5690020D02*
G75*
G02*
X6080150Y-5690020I-69850J0D01*
G01*
X6080150Y-5690020D02*
G75*
G02*
X6219850Y-5690020I69850J0D01*
G01*
X6150000Y-6840160D02*
X6150000Y-6979860D01*
X6080150Y-6910010D02*
X6219850Y-6910010D01*
X6219850Y-6910010D02*
G75*
G02*
X6080150Y-6910010I-69850J0D01*
G01*
X6080150Y-6910010D02*
G75*
G02*
X6219850Y-6910010I69850J0D01*
G01*
X13090020Y-8430150D02*
X13090020Y-8569850D01*
X13020170Y-8500000D02*
X13159870Y-8500000D01*
X13159870Y-8500000D02*
G75*
G02*
X13020170Y-8500000I-69850J0D01*
G01*
X13020170Y-8500000D02*
G75*
G02*
X13159870Y-8500000I69850J0D01*
G01*
X13090020Y-9630150D02*
X13090020Y-9769850D01*
X13020170Y-9700000D02*
X13159870Y-9700000D01*
X13159870Y-9700000D02*
G75*
G02*
X13020170Y-9700000I-69850J0D01*
G01*
X13020170Y-9700000D02*
G75*
G02*
X13159870Y-9700000I69850J0D01*
G01*
X13090020Y-11283650D02*
X13090020Y-11423350D01*
X13020170Y-11353500D02*
X13159870Y-11353500D01*
X13159870Y-11353500D02*
G75*
G02*
X13020170Y-11353500I-69850J0D01*
G01*
X13020170Y-11353500D02*
G75*
G02*
X13159870Y-11353500I69850J0D01*
G01*
X13090020Y-12483650D02*
X13090020Y-12623350D01*
X13020170Y-12553500D02*
X13159870Y-12553500D01*
X13159870Y-12553500D02*
G75*
G02*
X13020170Y-12553500I-69850J0D01*
G01*
X13020170Y-12553500D02*
G75*
G02*
X13159870Y-12553500I69850J0D01*
G01*
X13640020Y-13760150D02*
X13640020Y-13899850D01*
X13570170Y-13830000D02*
X13709870Y-13830000D01*
X13709870Y-13830000D02*
G75*
G02*
X13570170Y-13830000I-69850J0D01*
G01*
X13570170Y-13830000D02*
G75*
G02*
X13709870Y-13830000I69850J0D01*
G01*
X13640020Y-14960150D02*
X13640020Y-15099850D01*
X13570170Y-15030000D02*
X13709870Y-15030000D01*
X13709870Y-15030000D02*
G75*
G02*
X13570170Y-15030000I-69850J0D01*
G01*
X13570170Y-15030000D02*
G75*
G02*
X13709870Y-15030000I69850J0D01*
G01*
X14310010Y-8430150D02*
X14310010Y-8569850D01*
X14240160Y-8500000D02*
X14379860Y-8500000D01*
X14379860Y-8500000D02*
G75*
G02*
X14240160Y-8500000I-69850J0D01*
G01*
X14240160Y-8500000D02*
G75*
G02*
X14379860Y-8500000I69850J0D01*
G01*
X14310010Y-9630150D02*
X14310010Y-9769850D01*
X14240160Y-9700000D02*
X14379860Y-9700000D01*
X14379860Y-9700000D02*
G75*
G02*
X14240160Y-9700000I-69850J0D01*
G01*
X14240160Y-9700000D02*
G75*
G02*
X14379860Y-9700000I69850J0D01*
G01*
X14310010Y-11283650D02*
X14310010Y-11423350D01*
X14240160Y-11353500D02*
X14379860Y-11353500D01*
X14379860Y-11353500D02*
G75*
G02*
X14240160Y-11353500I-69850J0D01*
G01*
X14240160Y-11353500D02*
G75*
G02*
X14379860Y-11353500I69850J0D01*
G01*
X14310010Y-12483650D02*
X14310010Y-12623350D01*
X14240160Y-12553500D02*
X14379860Y-12553500D01*
X14379860Y-12553500D02*
G75*
G02*
X14240160Y-12553500I-69850J0D01*
G01*
X14240160Y-12553500D02*
G75*
G02*
X14379860Y-12553500I69850J0D01*
G01*
X14400000Y-6300150D02*
X14400000Y-6439850D01*
X14330150Y-6370000D02*
X14469850Y-6370000D01*
X14469850Y-6370000D02*
G75*
G02*
X14330150Y-6370000I-69850J0D01*
G01*
X14330150Y-6370000D02*
G75*
G02*
X14469850Y-6370000I69850J0D01*
G01*
X14400000Y-7500150D02*
X14400000Y-7639850D01*
X14330150Y-7570000D02*
X14469850Y-7570000D01*
X14469850Y-7570000D02*
G75*
G02*
X14330150Y-7570000I-69850J0D01*
G01*
X14330150Y-7570000D02*
G75*
G02*
X14469850Y-7570000I69850J0D01*
G01*
X14510010Y-9030150D02*
X14510010Y-9169850D01*
X14440160Y-9100000D02*
X14579860Y-9100000D01*
X14579860Y-9100000D02*
G75*
G02*
X14440160Y-9100000I-69850J0D01*
G01*
X14440160Y-9100000D02*
G75*
G02*
X14579860Y-9100000I69850J0D01*
G01*
X14510010Y-11883650D02*
X14510010Y-12023350D01*
X14440160Y-11953500D02*
X14579860Y-11953500D01*
X14579860Y-11953500D02*
G75*
G02*
X14440160Y-11953500I-69850J0D01*
G01*
X14440160Y-11953500D02*
G75*
G02*
X14579860Y-11953500I69850J0D01*
G01*
X14860010Y-13760150D02*
X14860010Y-13899850D01*
X14790160Y-13830000D02*
X14929860Y-13830000D01*
X14929860Y-13830000D02*
G75*
G02*
X14790160Y-13830000I-69850J0D01*
G01*
X14790160Y-13830000D02*
G75*
G02*
X14929860Y-13830000I69850J0D01*
G01*
X14860010Y-14960150D02*
X14860010Y-15099850D01*
X14790160Y-15030000D02*
X14929860Y-15030000D01*
X14929860Y-15030000D02*
G75*
G02*
X14790160Y-15030000I-69850J0D01*
G01*
X14790160Y-15030000D02*
G75*
G02*
X14929860Y-15030000I69850J0D01*
G01*
X15060010Y-14360150D02*
X15060010Y-14499850D01*
X14990160Y-14430000D02*
X15129860Y-14430000D01*
X15129860Y-14430000D02*
G75*
G02*
X14990160Y-14430000I-69850J0D01*
G01*
X14990160Y-14430000D02*
G75*
G02*
X15129860Y-14430000I69850J0D01*
G01*
X15619990Y-6300150D02*
X15619990Y-6439850D01*
X15550140Y-6370000D02*
X15689840Y-6370000D01*
X15689840Y-6370000D02*
G75*
G02*
X15550140Y-6370000I-69850J0D01*
G01*
X15550140Y-6370000D02*
G75*
G02*
X15689840Y-6370000I69850J0D01*
G01*
X15619990Y-7500150D02*
X15619990Y-7639850D01*
X15550140Y-7570000D02*
X15689840Y-7570000D01*
X15689840Y-7570000D02*
G75*
G02*
X15550140Y-7570000I-69850J0D01*
G01*
X15550140Y-7570000D02*
G75*
G02*
X15689840Y-7570000I69850J0D01*
G01*
X15819990Y-6900150D02*
X15819990Y-7039850D01*
X15750140Y-6970000D02*
X15889840Y-6970000D01*
X15889840Y-6970000D02*
G75*
G02*
X15750140Y-6970000I-69850J0D01*
G01*
X15750140Y-6970000D02*
G75*
G02*
X15889840Y-6970000I69850J0D01*
G01*
D19*
X17038269Y-8666369D02*
X17038269Y-8567231D01*
X16939131Y-8567231D01*
X16939131Y-8666369D01*
X17038269Y-8666369D01*
X17058800Y-8616800D02*
G75*
G02*
X16918600Y-8616800I-70100J0D01*
G01*
X16918600Y-8616800D02*
G75*
G02*
X17058800Y-8616800I70100J0D01*
G01*
X17063029Y-12692769D02*
X17063029Y-12593631D01*
X16963891Y-12593631D01*
X16963891Y-12692769D01*
X17063029Y-12692769D01*
X17083560Y-12643200D02*
G75*
G02*
X16943360Y-12643200I-70100J0D01*
G01*
X16943360Y-12643200D02*
G75*
G02*
X17083560Y-12643200I70100J0D01*
G01*
X17536109Y-8666369D02*
X17536109Y-8567231D01*
X17436971Y-8567231D01*
X17436971Y-8666369D01*
X17536109Y-8666369D01*
X17556640Y-8616800D02*
G75*
G02*
X17416440Y-8616800I-70100J0D01*
G01*
X17416440Y-8616800D02*
G75*
G02*
X17556640Y-8616800I70100J0D01*
G01*
X17560869Y-12692769D02*
X17560869Y-12593631D01*
X17461731Y-12593631D01*
X17461731Y-12692769D01*
X17560869Y-12692769D01*
X17581400Y-12643200D02*
G75*
G02*
X17441200Y-12643200I-70100J0D01*
G01*
X17441200Y-12643200D02*
G75*
G02*
X17581400Y-12643200I70100J0D01*
G01*
D20*
X5189750Y-10850000D02*
X5279750Y-10760000D01*
X5189750Y-10670000D01*
X5099750Y-10760000D01*
X5189750Y-10850000D01*
X5279750Y-10760000D02*
G75*
G02*
X5099750Y-10760000I-90000J0D01*
G01*
X5099750Y-10760000D02*
G75*
G02*
X5279750Y-10760000I90000J0D01*
G01*
X5189750Y-11270000D02*
X5279750Y-11180000D01*
X5189750Y-11090000D01*
X5099750Y-11180000D01*
X5189750Y-11270000D01*
X5279750Y-11180000D02*
G75*
G02*
X5099750Y-11180000I-90000J0D01*
G01*
X5099750Y-11180000D02*
G75*
G02*
X5279750Y-11180000I90000J0D01*
G01*
X5189750Y-11690000D02*
X5279750Y-11600000D01*
X5189750Y-11510000D01*
X5099750Y-11600000D01*
X5189750Y-11690000D01*
X5279750Y-11600000D02*
G75*
G02*
X5099750Y-11600000I-90000J0D01*
G01*
X5099750Y-11600000D02*
G75*
G02*
X5279750Y-11600000I90000J0D01*
G01*
X5739750Y-10850000D02*
X5829750Y-10760000D01*
X5739750Y-10670000D01*
X5649750Y-10760000D01*
X5739750Y-10850000D01*
X5829750Y-10760000D02*
G75*
G02*
X5649750Y-10760000I-90000J0D01*
G01*
X5649750Y-10760000D02*
G75*
G02*
X5829750Y-10760000I90000J0D01*
G01*
X5739750Y-11270000D02*
X5829750Y-11180000D01*
X5739750Y-11090000D01*
X5649750Y-11180000D01*
X5739750Y-11270000D01*
X5829750Y-11180000D02*
G75*
G02*
X5649750Y-11180000I-90000J0D01*
G01*
X5649750Y-11180000D02*
G75*
G02*
X5829750Y-11180000I90000J0D01*
G01*
X5739750Y-11690000D02*
X5829750Y-11600000D01*
X5739750Y-11510000D01*
X5649750Y-11600000D01*
X5739750Y-11690000D01*
X5829750Y-11600000D02*
G75*
G02*
X5649750Y-11600000I-90000J0D01*
G01*
X5649750Y-11600000D02*
G75*
G02*
X5829750Y-11600000I90000J0D01*
G01*
X16060250Y-10705400D02*
X16150250Y-10615400D01*
X16060250Y-10525400D01*
X15970250Y-10615400D01*
X16060250Y-10705400D01*
X16150250Y-10615400D02*
G75*
G02*
X15970250Y-10615400I-90000J0D01*
G01*
X15970250Y-10615400D02*
G75*
G02*
X16150250Y-10615400I90000J0D01*
G01*
X16060250Y-11125400D02*
X16150250Y-11035400D01*
X16060250Y-10945400D01*
X15970250Y-11035400D01*
X16060250Y-11125400D01*
X16150250Y-11035400D02*
G75*
G02*
X15970250Y-11035400I-90000J0D01*
G01*
X15970250Y-11035400D02*
G75*
G02*
X16150250Y-11035400I90000J0D01*
G01*
X16610250Y-10705400D02*
X16700250Y-10615400D01*
X16610250Y-10525400D01*
X16520250Y-10615400D01*
X16610250Y-10705400D01*
X16700250Y-10615400D02*
G75*
G02*
X16520250Y-10615400I-90000J0D01*
G01*
X16520250Y-10615400D02*
G75*
G02*
X16700250Y-10615400I90000J0D01*
G01*
X16610250Y-11125400D02*
X16700250Y-11035400D01*
X16610250Y-10945400D01*
X16520250Y-11035400D01*
X16610250Y-11125400D01*
X16700250Y-11035400D02*
G75*
G02*
X16520250Y-11035400I-90000J0D01*
G01*
X16520250Y-11035400D02*
G75*
G02*
X16700250Y-11035400I90000J0D01*
G01*
D11*
X2758277Y-16313984D02*
X2758277Y-16113984D01*
X2758277Y-16113984D02*
X2805896Y-16113984D01*
X2805896Y-16113984D02*
X2834467Y-16123508D01*
X2834467Y-16123508D02*
X2853515Y-16142555D01*
X2853515Y-16142555D02*
X2863039Y-16161603D01*
X2863039Y-16161603D02*
X2872562Y-16199698D01*
X2872562Y-16199698D02*
X2872562Y-16228269D01*
X2872562Y-16228269D02*
X2863039Y-16266365D01*
X2863039Y-16266365D02*
X2853515Y-16285412D01*
X2853515Y-16285412D02*
X2834467Y-16304460D01*
X2834467Y-16304460D02*
X2805896Y-16313984D01*
X2805896Y-16313984D02*
X2758277Y-16313984D01*
X2958277Y-16313984D02*
X2958277Y-16180650D01*
X2958277Y-16218746D02*
X2967801Y-16199698D01*
X2967801Y-16199698D02*
X2977324Y-16190174D01*
X2977324Y-16190174D02*
X2996372Y-16180650D01*
X2996372Y-16180650D02*
X3015420Y-16180650D01*
X3082086Y-16313984D02*
X3082086Y-16180650D01*
X3082086Y-16113984D02*
X3072562Y-16123508D01*
X3072562Y-16123508D02*
X3082086Y-16133031D01*
X3082086Y-16133031D02*
X3091610Y-16123508D01*
X3091610Y-16123508D02*
X3082086Y-16113984D01*
X3082086Y-16113984D02*
X3082086Y-16133031D01*
X3205896Y-16313984D02*
X3186848Y-16304460D01*
X3186848Y-16304460D02*
X3177324Y-16285412D01*
X3177324Y-16285412D02*
X3177324Y-16113984D01*
X3310658Y-16313984D02*
X3291610Y-16304460D01*
X3291610Y-16304460D02*
X3282086Y-16285412D01*
X3282086Y-16285412D02*
X3282086Y-16113984D01*
X3539229Y-16313984D02*
X3539229Y-16113984D01*
X3539229Y-16113984D02*
X3605896Y-16256841D01*
X3605896Y-16256841D02*
X3672562Y-16113984D01*
X3672562Y-16113984D02*
X3672562Y-16313984D01*
X3853515Y-16313984D02*
X3853515Y-16209222D01*
X3853515Y-16209222D02*
X3843991Y-16190174D01*
X3843991Y-16190174D02*
X3824943Y-16180650D01*
X3824943Y-16180650D02*
X3786848Y-16180650D01*
X3786848Y-16180650D02*
X3767801Y-16190174D01*
X3853515Y-16304460D02*
X3834467Y-16313984D01*
X3834467Y-16313984D02*
X3786848Y-16313984D01*
X3786848Y-16313984D02*
X3767801Y-16304460D01*
X3767801Y-16304460D02*
X3758277Y-16285412D01*
X3758277Y-16285412D02*
X3758277Y-16266365D01*
X3758277Y-16266365D02*
X3767801Y-16247317D01*
X3767801Y-16247317D02*
X3786848Y-16237793D01*
X3786848Y-16237793D02*
X3834467Y-16237793D01*
X3834467Y-16237793D02*
X3853515Y-16228269D01*
X3948753Y-16180650D02*
X3948753Y-16380650D01*
X3948753Y-16190174D02*
X3967801Y-16180650D01*
X3967801Y-16180650D02*
X4005896Y-16180650D01*
X4005896Y-16180650D02*
X4024943Y-16190174D01*
X4024943Y-16190174D02*
X4034467Y-16199698D01*
X4034467Y-16199698D02*
X4043991Y-16218746D01*
X4043991Y-16218746D02*
X4043991Y-16275888D01*
X4043991Y-16275888D02*
X4034467Y-16294936D01*
X4034467Y-16294936D02*
X4024943Y-16304460D01*
X4024943Y-16304460D02*
X4005896Y-16313984D01*
X4005896Y-16313984D02*
X3967801Y-16313984D01*
X3967801Y-16313984D02*
X3948753Y-16304460D01*
X4129705Y-16294936D02*
X4139229Y-16304460D01*
X4139229Y-16304460D02*
X4129705Y-16313984D01*
X4129705Y-16313984D02*
X4120182Y-16304460D01*
X4120182Y-16304460D02*
X4129705Y-16294936D01*
X4129705Y-16294936D02*
X4129705Y-16313984D01*
X4129705Y-16190174D02*
X4139229Y-16199698D01*
X4139229Y-16199698D02*
X4129705Y-16209222D01*
X4129705Y-16209222D02*
X4120182Y-16199698D01*
X4120182Y-16199698D02*
X4129705Y-16190174D01*
X4129705Y-16190174D02*
X4129705Y-16209222D01*
D12*
X2467500Y-16627500D02*
X2497500Y-16657500D01*
X2497500Y-16627500D02*
X2467500Y-16657500D01*
D11*
X2796372Y-16533984D02*
X2815420Y-16533984D01*
X2815420Y-16533984D02*
X2834467Y-16543508D01*
X2834467Y-16543508D02*
X2843991Y-16553031D01*
X2843991Y-16553031D02*
X2853515Y-16572079D01*
X2853515Y-16572079D02*
X2863039Y-16610174D01*
X2863039Y-16610174D02*
X2863039Y-16657793D01*
X2863039Y-16657793D02*
X2853515Y-16695888D01*
X2853515Y-16695888D02*
X2843991Y-16714936D01*
X2843991Y-16714936D02*
X2834467Y-16724460D01*
X2834467Y-16724460D02*
X2815420Y-16733984D01*
X2815420Y-16733984D02*
X2796372Y-16733984D01*
X2796372Y-16733984D02*
X2777324Y-16724460D01*
X2777324Y-16724460D02*
X2767801Y-16714936D01*
X2767801Y-16714936D02*
X2758277Y-16695888D01*
X2758277Y-16695888D02*
X2748753Y-16657793D01*
X2748753Y-16657793D02*
X2748753Y-16610174D01*
X2748753Y-16610174D02*
X2758277Y-16572079D01*
X2758277Y-16572079D02*
X2767801Y-16553031D01*
X2767801Y-16553031D02*
X2777324Y-16543508D01*
X2777324Y-16543508D02*
X2796372Y-16533984D01*
X2948753Y-16714936D02*
X2958277Y-16724460D01*
X2958277Y-16724460D02*
X2948753Y-16733984D01*
X2948753Y-16733984D02*
X2939229Y-16724460D01*
X2939229Y-16724460D02*
X2948753Y-16714936D01*
X2948753Y-16714936D02*
X2948753Y-16733984D01*
X3024943Y-16533984D02*
X3148753Y-16533984D01*
X3148753Y-16533984D02*
X3082086Y-16610174D01*
X3082086Y-16610174D02*
X3110658Y-16610174D01*
X3110658Y-16610174D02*
X3129705Y-16619698D01*
X3129705Y-16619698D02*
X3139229Y-16629222D01*
X3139229Y-16629222D02*
X3148753Y-16648269D01*
X3148753Y-16648269D02*
X3148753Y-16695888D01*
X3148753Y-16695888D02*
X3139229Y-16714936D01*
X3139229Y-16714936D02*
X3129705Y-16724460D01*
X3129705Y-16724460D02*
X3110658Y-16733984D01*
X3110658Y-16733984D02*
X3053515Y-16733984D01*
X3053515Y-16733984D02*
X3034467Y-16724460D01*
X3034467Y-16724460D02*
X3024943Y-16714936D01*
X3272562Y-16533984D02*
X3291610Y-16533984D01*
X3291610Y-16533984D02*
X3310658Y-16543508D01*
X3310658Y-16543508D02*
X3320182Y-16553031D01*
X3320182Y-16553031D02*
X3329705Y-16572079D01*
X3329705Y-16572079D02*
X3339229Y-16610174D01*
X3339229Y-16610174D02*
X3339229Y-16657793D01*
X3339229Y-16657793D02*
X3329705Y-16695888D01*
X3329705Y-16695888D02*
X3320182Y-16714936D01*
X3320182Y-16714936D02*
X3310658Y-16724460D01*
X3310658Y-16724460D02*
X3291610Y-16733984D01*
X3291610Y-16733984D02*
X3272562Y-16733984D01*
X3272562Y-16733984D02*
X3253515Y-16724460D01*
X3253515Y-16724460D02*
X3243991Y-16714936D01*
X3243991Y-16714936D02*
X3234467Y-16695888D01*
X3234467Y-16695888D02*
X3224943Y-16657793D01*
X3224943Y-16657793D02*
X3224943Y-16610174D01*
X3224943Y-16610174D02*
X3234467Y-16572079D01*
X3234467Y-16572079D02*
X3243991Y-16553031D01*
X3243991Y-16553031D02*
X3253515Y-16543508D01*
X3253515Y-16543508D02*
X3272562Y-16533984D01*
X3463039Y-16533984D02*
X3482086Y-16533984D01*
X3482086Y-16533984D02*
X3501134Y-16543508D01*
X3501134Y-16543508D02*
X3510658Y-16553031D01*
X3510658Y-16553031D02*
X3520182Y-16572079D01*
X3520182Y-16572079D02*
X3529705Y-16610174D01*
X3529705Y-16610174D02*
X3529705Y-16657793D01*
X3529705Y-16657793D02*
X3520182Y-16695888D01*
X3520182Y-16695888D02*
X3510658Y-16714936D01*
X3510658Y-16714936D02*
X3501134Y-16724460D01*
X3501134Y-16724460D02*
X3482086Y-16733984D01*
X3482086Y-16733984D02*
X3463039Y-16733984D01*
X3463039Y-16733984D02*
X3443991Y-16724460D01*
X3443991Y-16724460D02*
X3434467Y-16714936D01*
X3434467Y-16714936D02*
X3424943Y-16695888D01*
X3424943Y-16695888D02*
X3415420Y-16657793D01*
X3415420Y-16657793D02*
X3415420Y-16610174D01*
X3415420Y-16610174D02*
X3424943Y-16572079D01*
X3424943Y-16572079D02*
X3434467Y-16553031D01*
X3434467Y-16553031D02*
X3443991Y-16543508D01*
X3443991Y-16543508D02*
X3463039Y-16533984D01*
X3615420Y-16733984D02*
X3615420Y-16600650D01*
X3615420Y-16619698D02*
X3624943Y-16610174D01*
X3624943Y-16610174D02*
X3643991Y-16600650D01*
X3643991Y-16600650D02*
X3672563Y-16600650D01*
X3672563Y-16600650D02*
X3691610Y-16610174D01*
X3691610Y-16610174D02*
X3701134Y-16629222D01*
X3701134Y-16629222D02*
X3701134Y-16733984D01*
X3701134Y-16629222D02*
X3710658Y-16610174D01*
X3710658Y-16610174D02*
X3729705Y-16600650D01*
X3729705Y-16600650D02*
X3758277Y-16600650D01*
X3758277Y-16600650D02*
X3777324Y-16610174D01*
X3777324Y-16610174D02*
X3786848Y-16629222D01*
X3786848Y-16629222D02*
X3786848Y-16733984D01*
X3882086Y-16733984D02*
X3882086Y-16600650D01*
X3882086Y-16619698D02*
X3891610Y-16610174D01*
X3891610Y-16610174D02*
X3910658Y-16600650D01*
X3910658Y-16600650D02*
X3939229Y-16600650D01*
X3939229Y-16600650D02*
X3958277Y-16610174D01*
X3958277Y-16610174D02*
X3967801Y-16629222D01*
X3967801Y-16629222D02*
X3967801Y-16733984D01*
X3967801Y-16629222D02*
X3977324Y-16610174D01*
X3977324Y-16610174D02*
X3996372Y-16600650D01*
X3996372Y-16600650D02*
X4024943Y-16600650D01*
X4024943Y-16600650D02*
X4043991Y-16610174D01*
X4043991Y-16610174D02*
X4053515Y-16629222D01*
X4053515Y-16629222D02*
X4053515Y-16733984D01*
X4443991Y-16524460D02*
X4272563Y-16781603D01*
X4701134Y-16533984D02*
X4720182Y-16533984D01*
X4720182Y-16533984D02*
X4739229Y-16543508D01*
X4739229Y-16543508D02*
X4748753Y-16553031D01*
X4748753Y-16553031D02*
X4758277Y-16572079D01*
X4758277Y-16572079D02*
X4767801Y-16610174D01*
X4767801Y-16610174D02*
X4767801Y-16657793D01*
X4767801Y-16657793D02*
X4758277Y-16695888D01*
X4758277Y-16695888D02*
X4748753Y-16714936D01*
X4748753Y-16714936D02*
X4739229Y-16724460D01*
X4739229Y-16724460D02*
X4720182Y-16733984D01*
X4720182Y-16733984D02*
X4701134Y-16733984D01*
X4701134Y-16733984D02*
X4682087Y-16724460D01*
X4682087Y-16724460D02*
X4672563Y-16714936D01*
X4672563Y-16714936D02*
X4663039Y-16695888D01*
X4663039Y-16695888D02*
X4653515Y-16657793D01*
X4653515Y-16657793D02*
X4653515Y-16610174D01*
X4653515Y-16610174D02*
X4663039Y-16572079D01*
X4663039Y-16572079D02*
X4672563Y-16553031D01*
X4672563Y-16553031D02*
X4682087Y-16543508D01*
X4682087Y-16543508D02*
X4701134Y-16533984D01*
X4853515Y-16714936D02*
X4863039Y-16724460D01*
X4863039Y-16724460D02*
X4853515Y-16733984D01*
X4853515Y-16733984D02*
X4843991Y-16724460D01*
X4843991Y-16724460D02*
X4853515Y-16714936D01*
X4853515Y-16714936D02*
X4853515Y-16733984D01*
X4986848Y-16533984D02*
X5005896Y-16533984D01*
X5005896Y-16533984D02*
X5024944Y-16543508D01*
X5024944Y-16543508D02*
X5034468Y-16553031D01*
X5034468Y-16553031D02*
X5043991Y-16572079D01*
X5043991Y-16572079D02*
X5053515Y-16610174D01*
X5053515Y-16610174D02*
X5053515Y-16657793D01*
X5053515Y-16657793D02*
X5043991Y-16695888D01*
X5043991Y-16695888D02*
X5034468Y-16714936D01*
X5034468Y-16714936D02*
X5024944Y-16724460D01*
X5024944Y-16724460D02*
X5005896Y-16733984D01*
X5005896Y-16733984D02*
X4986848Y-16733984D01*
X4986848Y-16733984D02*
X4967801Y-16724460D01*
X4967801Y-16724460D02*
X4958277Y-16714936D01*
X4958277Y-16714936D02*
X4948753Y-16695888D01*
X4948753Y-16695888D02*
X4939229Y-16657793D01*
X4939229Y-16657793D02*
X4939229Y-16610174D01*
X4939229Y-16610174D02*
X4948753Y-16572079D01*
X4948753Y-16572079D02*
X4958277Y-16553031D01*
X4958277Y-16553031D02*
X4967801Y-16543508D01*
X4967801Y-16543508D02*
X4986848Y-16533984D01*
X5243991Y-16733984D02*
X5129706Y-16733984D01*
X5186848Y-16733984D02*
X5186848Y-16533984D01*
X5186848Y-16533984D02*
X5167801Y-16562555D01*
X5167801Y-16562555D02*
X5148753Y-16581603D01*
X5148753Y-16581603D02*
X5129706Y-16591127D01*
X5434468Y-16733984D02*
X5320182Y-16733984D01*
X5377325Y-16733984D02*
X5377325Y-16533984D01*
X5377325Y-16533984D02*
X5358277Y-16562555D01*
X5358277Y-16562555D02*
X5339229Y-16581603D01*
X5339229Y-16581603D02*
X5320182Y-16591127D01*
X5548753Y-16619698D02*
X5529706Y-16610174D01*
X5529706Y-16610174D02*
X5520182Y-16600650D01*
X5520182Y-16600650D02*
X5510658Y-16581603D01*
X5510658Y-16581603D02*
X5510658Y-16572079D01*
X5510658Y-16572079D02*
X5520182Y-16553031D01*
X5520182Y-16553031D02*
X5529706Y-16543508D01*
X5529706Y-16543508D02*
X5548753Y-16533984D01*
X5548753Y-16533984D02*
X5586849Y-16533984D01*
X5586849Y-16533984D02*
X5605896Y-16543508D01*
X5605896Y-16543508D02*
X5615420Y-16553031D01*
X5615420Y-16553031D02*
X5624944Y-16572079D01*
X5624944Y-16572079D02*
X5624944Y-16581603D01*
X5624944Y-16581603D02*
X5615420Y-16600650D01*
X5615420Y-16600650D02*
X5605896Y-16610174D01*
X5605896Y-16610174D02*
X5586849Y-16619698D01*
X5586849Y-16619698D02*
X5548753Y-16619698D01*
X5548753Y-16619698D02*
X5529706Y-16629222D01*
X5529706Y-16629222D02*
X5520182Y-16638746D01*
X5520182Y-16638746D02*
X5510658Y-16657793D01*
X5510658Y-16657793D02*
X5510658Y-16695888D01*
X5510658Y-16695888D02*
X5520182Y-16714936D01*
X5520182Y-16714936D02*
X5529706Y-16724460D01*
X5529706Y-16724460D02*
X5548753Y-16733984D01*
X5548753Y-16733984D02*
X5586849Y-16733984D01*
X5586849Y-16733984D02*
X5605896Y-16724460D01*
X5605896Y-16724460D02*
X5615420Y-16714936D01*
X5615420Y-16714936D02*
X5624944Y-16695888D01*
X5624944Y-16695888D02*
X5624944Y-16657793D01*
X5624944Y-16657793D02*
X5615420Y-16638746D01*
X5615420Y-16638746D02*
X5605896Y-16629222D01*
X5605896Y-16629222D02*
X5586849Y-16619698D01*
X5701134Y-16533984D02*
X5701134Y-16572079D01*
X5777325Y-16533984D02*
X5777325Y-16572079D01*
X6072563Y-16810174D02*
X6063039Y-16800650D01*
X6063039Y-16800650D02*
X6043991Y-16772079D01*
X6043991Y-16772079D02*
X6034468Y-16753031D01*
X6034468Y-16753031D02*
X6024944Y-16724460D01*
X6024944Y-16724460D02*
X6015420Y-16676841D01*
X6015420Y-16676841D02*
X6015420Y-16638746D01*
X6015420Y-16638746D02*
X6024944Y-16591127D01*
X6024944Y-16591127D02*
X6034468Y-16562555D01*
X6034468Y-16562555D02*
X6043991Y-16543508D01*
X6043991Y-16543508D02*
X6063039Y-16514936D01*
X6063039Y-16514936D02*
X6072563Y-16505412D01*
X6253515Y-16733984D02*
X6139229Y-16733984D01*
X6196372Y-16733984D02*
X6196372Y-16533984D01*
X6196372Y-16533984D02*
X6177325Y-16562555D01*
X6177325Y-16562555D02*
X6158277Y-16581603D01*
X6158277Y-16581603D02*
X6139229Y-16591127D01*
X6443991Y-16733984D02*
X6329706Y-16733984D01*
X6386848Y-16733984D02*
X6386848Y-16533984D01*
X6386848Y-16533984D02*
X6367801Y-16562555D01*
X6367801Y-16562555D02*
X6348753Y-16581603D01*
X6348753Y-16581603D02*
X6329706Y-16591127D01*
X6682087Y-16733984D02*
X6682087Y-16533984D01*
X6767801Y-16733984D02*
X6767801Y-16629222D01*
X6767801Y-16629222D02*
X6758277Y-16610174D01*
X6758277Y-16610174D02*
X6739230Y-16600650D01*
X6739230Y-16600650D02*
X6710658Y-16600650D01*
X6710658Y-16600650D02*
X6691610Y-16610174D01*
X6691610Y-16610174D02*
X6682087Y-16619698D01*
X6891610Y-16733984D02*
X6872563Y-16724460D01*
X6872563Y-16724460D02*
X6863039Y-16714936D01*
X6863039Y-16714936D02*
X6853515Y-16695888D01*
X6853515Y-16695888D02*
X6853515Y-16638746D01*
X6853515Y-16638746D02*
X6863039Y-16619698D01*
X6863039Y-16619698D02*
X6872563Y-16610174D01*
X6872563Y-16610174D02*
X6891610Y-16600650D01*
X6891610Y-16600650D02*
X6920182Y-16600650D01*
X6920182Y-16600650D02*
X6939230Y-16610174D01*
X6939230Y-16610174D02*
X6948753Y-16619698D01*
X6948753Y-16619698D02*
X6958277Y-16638746D01*
X6958277Y-16638746D02*
X6958277Y-16695888D01*
X6958277Y-16695888D02*
X6948753Y-16714936D01*
X6948753Y-16714936D02*
X6939230Y-16724460D01*
X6939230Y-16724460D02*
X6920182Y-16733984D01*
X6920182Y-16733984D02*
X6891610Y-16733984D01*
X7072563Y-16733984D02*
X7053515Y-16724460D01*
X7053515Y-16724460D02*
X7043991Y-16705412D01*
X7043991Y-16705412D02*
X7043991Y-16533984D01*
X7224944Y-16724460D02*
X7205896Y-16733984D01*
X7205896Y-16733984D02*
X7167801Y-16733984D01*
X7167801Y-16733984D02*
X7148753Y-16724460D01*
X7148753Y-16724460D02*
X7139230Y-16705412D01*
X7139230Y-16705412D02*
X7139230Y-16629222D01*
X7139230Y-16629222D02*
X7148753Y-16610174D01*
X7148753Y-16610174D02*
X7167801Y-16600650D01*
X7167801Y-16600650D02*
X7205896Y-16600650D01*
X7205896Y-16600650D02*
X7224944Y-16610174D01*
X7224944Y-16610174D02*
X7234468Y-16629222D01*
X7234468Y-16629222D02*
X7234468Y-16648269D01*
X7234468Y-16648269D02*
X7139230Y-16667317D01*
X7310658Y-16724460D02*
X7329706Y-16733984D01*
X7329706Y-16733984D02*
X7367801Y-16733984D01*
X7367801Y-16733984D02*
X7386849Y-16724460D01*
X7386849Y-16724460D02*
X7396372Y-16705412D01*
X7396372Y-16705412D02*
X7396372Y-16695888D01*
X7396372Y-16695888D02*
X7386849Y-16676841D01*
X7386849Y-16676841D02*
X7367801Y-16667317D01*
X7367801Y-16667317D02*
X7339230Y-16667317D01*
X7339230Y-16667317D02*
X7320182Y-16657793D01*
X7320182Y-16657793D02*
X7310658Y-16638746D01*
X7310658Y-16638746D02*
X7310658Y-16629222D01*
X7310658Y-16629222D02*
X7320182Y-16610174D01*
X7320182Y-16610174D02*
X7339230Y-16600650D01*
X7339230Y-16600650D02*
X7367801Y-16600650D01*
X7367801Y-16600650D02*
X7386849Y-16610174D01*
X7463039Y-16810174D02*
X7472563Y-16800650D01*
X7472563Y-16800650D02*
X7491611Y-16772079D01*
X7491611Y-16772079D02*
X7501134Y-16753031D01*
X7501134Y-16753031D02*
X7510658Y-16724460D01*
X7510658Y-16724460D02*
X7520182Y-16676841D01*
X7520182Y-16676841D02*
X7520182Y-16638746D01*
X7520182Y-16638746D02*
X7510658Y-16591127D01*
X7510658Y-16591127D02*
X7501134Y-16562555D01*
X7501134Y-16562555D02*
X7491611Y-16543508D01*
X7491611Y-16543508D02*
X7472563Y-16514936D01*
X7472563Y-16514936D02*
X7463039Y-16505412D01*
D12*
X2497500Y-16906500D02*
G75*
G02*
X2437500Y-16906500I-30000J0D01*
G01*
X2437500Y-16906500D02*
G75*
G02*
X2497500Y-16906500I30000J0D01*
G01*
D11*
X2796372Y-16797984D02*
X2815420Y-16797984D01*
X2815420Y-16797984D02*
X2834467Y-16807508D01*
X2834467Y-16807508D02*
X2843991Y-16817031D01*
X2843991Y-16817031D02*
X2853515Y-16836079D01*
X2853515Y-16836079D02*
X2863039Y-16874174D01*
X2863039Y-16874174D02*
X2863039Y-16921793D01*
X2863039Y-16921793D02*
X2853515Y-16959889D01*
X2853515Y-16959889D02*
X2843991Y-16978936D01*
X2843991Y-16978936D02*
X2834467Y-16988460D01*
X2834467Y-16988460D02*
X2815420Y-16997984D01*
X2815420Y-16997984D02*
X2796372Y-16997984D01*
X2796372Y-16997984D02*
X2777324Y-16988460D01*
X2777324Y-16988460D02*
X2767801Y-16978936D01*
X2767801Y-16978936D02*
X2758277Y-16959889D01*
X2758277Y-16959889D02*
X2748753Y-16921793D01*
X2748753Y-16921793D02*
X2748753Y-16874174D01*
X2748753Y-16874174D02*
X2758277Y-16836079D01*
X2758277Y-16836079D02*
X2767801Y-16817031D01*
X2767801Y-16817031D02*
X2777324Y-16807508D01*
X2777324Y-16807508D02*
X2796372Y-16797984D01*
X2948753Y-16978936D02*
X2958277Y-16988460D01*
X2958277Y-16988460D02*
X2948753Y-16997984D01*
X2948753Y-16997984D02*
X2939229Y-16988460D01*
X2939229Y-16988460D02*
X2948753Y-16978936D01*
X2948753Y-16978936D02*
X2948753Y-16997984D01*
X3129705Y-16797984D02*
X3091610Y-16797984D01*
X3091610Y-16797984D02*
X3072562Y-16807508D01*
X3072562Y-16807508D02*
X3063039Y-16817031D01*
X3063039Y-16817031D02*
X3043991Y-16845603D01*
X3043991Y-16845603D02*
X3034467Y-16883698D01*
X3034467Y-16883698D02*
X3034467Y-16959889D01*
X3034467Y-16959889D02*
X3043991Y-16978936D01*
X3043991Y-16978936D02*
X3053515Y-16988460D01*
X3053515Y-16988460D02*
X3072562Y-16997984D01*
X3072562Y-16997984D02*
X3110658Y-16997984D01*
X3110658Y-16997984D02*
X3129705Y-16988460D01*
X3129705Y-16988460D02*
X3139229Y-16978936D01*
X3139229Y-16978936D02*
X3148753Y-16959889D01*
X3148753Y-16959889D02*
X3148753Y-16912270D01*
X3148753Y-16912270D02*
X3139229Y-16893222D01*
X3139229Y-16893222D02*
X3129705Y-16883698D01*
X3129705Y-16883698D02*
X3110658Y-16874174D01*
X3110658Y-16874174D02*
X3072562Y-16874174D01*
X3072562Y-16874174D02*
X3053515Y-16883698D01*
X3053515Y-16883698D02*
X3043991Y-16893222D01*
X3043991Y-16893222D02*
X3034467Y-16912270D01*
X3272562Y-16797984D02*
X3291610Y-16797984D01*
X3291610Y-16797984D02*
X3310658Y-16807508D01*
X3310658Y-16807508D02*
X3320182Y-16817031D01*
X3320182Y-16817031D02*
X3329705Y-16836079D01*
X3329705Y-16836079D02*
X3339229Y-16874174D01*
X3339229Y-16874174D02*
X3339229Y-16921793D01*
X3339229Y-16921793D02*
X3329705Y-16959889D01*
X3329705Y-16959889D02*
X3320182Y-16978936D01*
X3320182Y-16978936D02*
X3310658Y-16988460D01*
X3310658Y-16988460D02*
X3291610Y-16997984D01*
X3291610Y-16997984D02*
X3272562Y-16997984D01*
X3272562Y-16997984D02*
X3253515Y-16988460D01*
X3253515Y-16988460D02*
X3243991Y-16978936D01*
X3243991Y-16978936D02*
X3234467Y-16959889D01*
X3234467Y-16959889D02*
X3224943Y-16921793D01*
X3224943Y-16921793D02*
X3224943Y-16874174D01*
X3224943Y-16874174D02*
X3234467Y-16836079D01*
X3234467Y-16836079D02*
X3243991Y-16817031D01*
X3243991Y-16817031D02*
X3253515Y-16807508D01*
X3253515Y-16807508D02*
X3272562Y-16797984D01*
X3463039Y-16797984D02*
X3482086Y-16797984D01*
X3482086Y-16797984D02*
X3501134Y-16807508D01*
X3501134Y-16807508D02*
X3510658Y-16817031D01*
X3510658Y-16817031D02*
X3520182Y-16836079D01*
X3520182Y-16836079D02*
X3529705Y-16874174D01*
X3529705Y-16874174D02*
X3529705Y-16921793D01*
X3529705Y-16921793D02*
X3520182Y-16959889D01*
X3520182Y-16959889D02*
X3510658Y-16978936D01*
X3510658Y-16978936D02*
X3501134Y-16988460D01*
X3501134Y-16988460D02*
X3482086Y-16997984D01*
X3482086Y-16997984D02*
X3463039Y-16997984D01*
X3463039Y-16997984D02*
X3443991Y-16988460D01*
X3443991Y-16988460D02*
X3434467Y-16978936D01*
X3434467Y-16978936D02*
X3424943Y-16959889D01*
X3424943Y-16959889D02*
X3415420Y-16921793D01*
X3415420Y-16921793D02*
X3415420Y-16874174D01*
X3415420Y-16874174D02*
X3424943Y-16836079D01*
X3424943Y-16836079D02*
X3434467Y-16817031D01*
X3434467Y-16817031D02*
X3443991Y-16807508D01*
X3443991Y-16807508D02*
X3463039Y-16797984D01*
X3615420Y-16997984D02*
X3615420Y-16864650D01*
X3615420Y-16883698D02*
X3624943Y-16874174D01*
X3624943Y-16874174D02*
X3643991Y-16864650D01*
X3643991Y-16864650D02*
X3672563Y-16864650D01*
X3672563Y-16864650D02*
X3691610Y-16874174D01*
X3691610Y-16874174D02*
X3701134Y-16893222D01*
X3701134Y-16893222D02*
X3701134Y-16997984D01*
X3701134Y-16893222D02*
X3710658Y-16874174D01*
X3710658Y-16874174D02*
X3729705Y-16864650D01*
X3729705Y-16864650D02*
X3758277Y-16864650D01*
X3758277Y-16864650D02*
X3777324Y-16874174D01*
X3777324Y-16874174D02*
X3786848Y-16893222D01*
X3786848Y-16893222D02*
X3786848Y-16997984D01*
X3882086Y-16997984D02*
X3882086Y-16864650D01*
X3882086Y-16883698D02*
X3891610Y-16874174D01*
X3891610Y-16874174D02*
X3910658Y-16864650D01*
X3910658Y-16864650D02*
X3939229Y-16864650D01*
X3939229Y-16864650D02*
X3958277Y-16874174D01*
X3958277Y-16874174D02*
X3967801Y-16893222D01*
X3967801Y-16893222D02*
X3967801Y-16997984D01*
X3967801Y-16893222D02*
X3977324Y-16874174D01*
X3977324Y-16874174D02*
X3996372Y-16864650D01*
X3996372Y-16864650D02*
X4024943Y-16864650D01*
X4024943Y-16864650D02*
X4043991Y-16874174D01*
X4043991Y-16874174D02*
X4053515Y-16893222D01*
X4053515Y-16893222D02*
X4053515Y-16997984D01*
X4443991Y-16788460D02*
X4272563Y-17045603D01*
X4701134Y-16797984D02*
X4720182Y-16797984D01*
X4720182Y-16797984D02*
X4739229Y-16807508D01*
X4739229Y-16807508D02*
X4748753Y-16817031D01*
X4748753Y-16817031D02*
X4758277Y-16836079D01*
X4758277Y-16836079D02*
X4767801Y-16874174D01*
X4767801Y-16874174D02*
X4767801Y-16921793D01*
X4767801Y-16921793D02*
X4758277Y-16959889D01*
X4758277Y-16959889D02*
X4748753Y-16978936D01*
X4748753Y-16978936D02*
X4739229Y-16988460D01*
X4739229Y-16988460D02*
X4720182Y-16997984D01*
X4720182Y-16997984D02*
X4701134Y-16997984D01*
X4701134Y-16997984D02*
X4682087Y-16988460D01*
X4682087Y-16988460D02*
X4672563Y-16978936D01*
X4672563Y-16978936D02*
X4663039Y-16959889D01*
X4663039Y-16959889D02*
X4653515Y-16921793D01*
X4653515Y-16921793D02*
X4653515Y-16874174D01*
X4653515Y-16874174D02*
X4663039Y-16836079D01*
X4663039Y-16836079D02*
X4672563Y-16817031D01*
X4672563Y-16817031D02*
X4682087Y-16807508D01*
X4682087Y-16807508D02*
X4701134Y-16797984D01*
X4853515Y-16978936D02*
X4863039Y-16988460D01*
X4863039Y-16988460D02*
X4853515Y-16997984D01*
X4853515Y-16997984D02*
X4843991Y-16988460D01*
X4843991Y-16988460D02*
X4853515Y-16978936D01*
X4853515Y-16978936D02*
X4853515Y-16997984D01*
X4986848Y-16797984D02*
X5005896Y-16797984D01*
X5005896Y-16797984D02*
X5024944Y-16807508D01*
X5024944Y-16807508D02*
X5034468Y-16817031D01*
X5034468Y-16817031D02*
X5043991Y-16836079D01*
X5043991Y-16836079D02*
X5053515Y-16874174D01*
X5053515Y-16874174D02*
X5053515Y-16921793D01*
X5053515Y-16921793D02*
X5043991Y-16959889D01*
X5043991Y-16959889D02*
X5034468Y-16978936D01*
X5034468Y-16978936D02*
X5024944Y-16988460D01*
X5024944Y-16988460D02*
X5005896Y-16997984D01*
X5005896Y-16997984D02*
X4986848Y-16997984D01*
X4986848Y-16997984D02*
X4967801Y-16988460D01*
X4967801Y-16988460D02*
X4958277Y-16978936D01*
X4958277Y-16978936D02*
X4948753Y-16959889D01*
X4948753Y-16959889D02*
X4939229Y-16921793D01*
X4939229Y-16921793D02*
X4939229Y-16874174D01*
X4939229Y-16874174D02*
X4948753Y-16836079D01*
X4948753Y-16836079D02*
X4958277Y-16817031D01*
X4958277Y-16817031D02*
X4967801Y-16807508D01*
X4967801Y-16807508D02*
X4986848Y-16797984D01*
X5129706Y-16817031D02*
X5139229Y-16807508D01*
X5139229Y-16807508D02*
X5158277Y-16797984D01*
X5158277Y-16797984D02*
X5205896Y-16797984D01*
X5205896Y-16797984D02*
X5224944Y-16807508D01*
X5224944Y-16807508D02*
X5234468Y-16817031D01*
X5234468Y-16817031D02*
X5243991Y-16836079D01*
X5243991Y-16836079D02*
X5243991Y-16855127D01*
X5243991Y-16855127D02*
X5234468Y-16883698D01*
X5234468Y-16883698D02*
X5120182Y-16997984D01*
X5120182Y-16997984D02*
X5243991Y-16997984D01*
X5310658Y-16797984D02*
X5434468Y-16797984D01*
X5434468Y-16797984D02*
X5367801Y-16874174D01*
X5367801Y-16874174D02*
X5396372Y-16874174D01*
X5396372Y-16874174D02*
X5415420Y-16883698D01*
X5415420Y-16883698D02*
X5424944Y-16893222D01*
X5424944Y-16893222D02*
X5434468Y-16912270D01*
X5434468Y-16912270D02*
X5434468Y-16959889D01*
X5434468Y-16959889D02*
X5424944Y-16978936D01*
X5424944Y-16978936D02*
X5415420Y-16988460D01*
X5415420Y-16988460D02*
X5396372Y-16997984D01*
X5396372Y-16997984D02*
X5339229Y-16997984D01*
X5339229Y-16997984D02*
X5320182Y-16988460D01*
X5320182Y-16988460D02*
X5310658Y-16978936D01*
X5605896Y-16797984D02*
X5567801Y-16797984D01*
X5567801Y-16797984D02*
X5548753Y-16807508D01*
X5548753Y-16807508D02*
X5539229Y-16817031D01*
X5539229Y-16817031D02*
X5520182Y-16845603D01*
X5520182Y-16845603D02*
X5510658Y-16883698D01*
X5510658Y-16883698D02*
X5510658Y-16959889D01*
X5510658Y-16959889D02*
X5520182Y-16978936D01*
X5520182Y-16978936D02*
X5529706Y-16988460D01*
X5529706Y-16988460D02*
X5548753Y-16997984D01*
X5548753Y-16997984D02*
X5586849Y-16997984D01*
X5586849Y-16997984D02*
X5605896Y-16988460D01*
X5605896Y-16988460D02*
X5615420Y-16978936D01*
X5615420Y-16978936D02*
X5624944Y-16959889D01*
X5624944Y-16959889D02*
X5624944Y-16912270D01*
X5624944Y-16912270D02*
X5615420Y-16893222D01*
X5615420Y-16893222D02*
X5605896Y-16883698D01*
X5605896Y-16883698D02*
X5586849Y-16874174D01*
X5586849Y-16874174D02*
X5548753Y-16874174D01*
X5548753Y-16874174D02*
X5529706Y-16883698D01*
X5529706Y-16883698D02*
X5520182Y-16893222D01*
X5520182Y-16893222D02*
X5510658Y-16912270D01*
X5701134Y-16797984D02*
X5701134Y-16836079D01*
X5777325Y-16797984D02*
X5777325Y-16836079D01*
X6072563Y-17074174D02*
X6063039Y-17064650D01*
X6063039Y-17064650D02*
X6043991Y-17036079D01*
X6043991Y-17036079D02*
X6034468Y-17017031D01*
X6034468Y-17017031D02*
X6024944Y-16988460D01*
X6024944Y-16988460D02*
X6015420Y-16940841D01*
X6015420Y-16940841D02*
X6015420Y-16902746D01*
X6015420Y-16902746D02*
X6024944Y-16855127D01*
X6024944Y-16855127D02*
X6034468Y-16826555D01*
X6034468Y-16826555D02*
X6043991Y-16807508D01*
X6043991Y-16807508D02*
X6063039Y-16778936D01*
X6063039Y-16778936D02*
X6072563Y-16769412D01*
X6177325Y-16883698D02*
X6158277Y-16874174D01*
X6158277Y-16874174D02*
X6148753Y-16864650D01*
X6148753Y-16864650D02*
X6139229Y-16845603D01*
X6139229Y-16845603D02*
X6139229Y-16836079D01*
X6139229Y-16836079D02*
X6148753Y-16817031D01*
X6148753Y-16817031D02*
X6158277Y-16807508D01*
X6158277Y-16807508D02*
X6177325Y-16797984D01*
X6177325Y-16797984D02*
X6215420Y-16797984D01*
X6215420Y-16797984D02*
X6234468Y-16807508D01*
X6234468Y-16807508D02*
X6243991Y-16817031D01*
X6243991Y-16817031D02*
X6253515Y-16836079D01*
X6253515Y-16836079D02*
X6253515Y-16845603D01*
X6253515Y-16845603D02*
X6243991Y-16864650D01*
X6243991Y-16864650D02*
X6234468Y-16874174D01*
X6234468Y-16874174D02*
X6215420Y-16883698D01*
X6215420Y-16883698D02*
X6177325Y-16883698D01*
X6177325Y-16883698D02*
X6158277Y-16893222D01*
X6158277Y-16893222D02*
X6148753Y-16902746D01*
X6148753Y-16902746D02*
X6139229Y-16921793D01*
X6139229Y-16921793D02*
X6139229Y-16959889D01*
X6139229Y-16959889D02*
X6148753Y-16978936D01*
X6148753Y-16978936D02*
X6158277Y-16988460D01*
X6158277Y-16988460D02*
X6177325Y-16997984D01*
X6177325Y-16997984D02*
X6215420Y-16997984D01*
X6215420Y-16997984D02*
X6234468Y-16988460D01*
X6234468Y-16988460D02*
X6243991Y-16978936D01*
X6243991Y-16978936D02*
X6253515Y-16959889D01*
X6253515Y-16959889D02*
X6253515Y-16921793D01*
X6253515Y-16921793D02*
X6243991Y-16902746D01*
X6243991Y-16902746D02*
X6234468Y-16893222D01*
X6234468Y-16893222D02*
X6215420Y-16883698D01*
X6491610Y-16997984D02*
X6491610Y-16797984D01*
X6577325Y-16997984D02*
X6577325Y-16893222D01*
X6577325Y-16893222D02*
X6567801Y-16874174D01*
X6567801Y-16874174D02*
X6548753Y-16864650D01*
X6548753Y-16864650D02*
X6520182Y-16864650D01*
X6520182Y-16864650D02*
X6501134Y-16874174D01*
X6501134Y-16874174D02*
X6491610Y-16883698D01*
X6701134Y-16997984D02*
X6682087Y-16988460D01*
X6682087Y-16988460D02*
X6672563Y-16978936D01*
X6672563Y-16978936D02*
X6663039Y-16959889D01*
X6663039Y-16959889D02*
X6663039Y-16902746D01*
X6663039Y-16902746D02*
X6672563Y-16883698D01*
X6672563Y-16883698D02*
X6682087Y-16874174D01*
X6682087Y-16874174D02*
X6701134Y-16864650D01*
X6701134Y-16864650D02*
X6729706Y-16864650D01*
X6729706Y-16864650D02*
X6748753Y-16874174D01*
X6748753Y-16874174D02*
X6758277Y-16883698D01*
X6758277Y-16883698D02*
X6767801Y-16902746D01*
X6767801Y-16902746D02*
X6767801Y-16959889D01*
X6767801Y-16959889D02*
X6758277Y-16978936D01*
X6758277Y-16978936D02*
X6748753Y-16988460D01*
X6748753Y-16988460D02*
X6729706Y-16997984D01*
X6729706Y-16997984D02*
X6701134Y-16997984D01*
X6882087Y-16997984D02*
X6863039Y-16988460D01*
X6863039Y-16988460D02*
X6853515Y-16969412D01*
X6853515Y-16969412D02*
X6853515Y-16797984D01*
X7034468Y-16988460D02*
X7015420Y-16997984D01*
X7015420Y-16997984D02*
X6977325Y-16997984D01*
X6977325Y-16997984D02*
X6958277Y-16988460D01*
X6958277Y-16988460D02*
X6948753Y-16969412D01*
X6948753Y-16969412D02*
X6948753Y-16893222D01*
X6948753Y-16893222D02*
X6958277Y-16874174D01*
X6958277Y-16874174D02*
X6977325Y-16864650D01*
X6977325Y-16864650D02*
X7015420Y-16864650D01*
X7015420Y-16864650D02*
X7034468Y-16874174D01*
X7034468Y-16874174D02*
X7043991Y-16893222D01*
X7043991Y-16893222D02*
X7043991Y-16912270D01*
X7043991Y-16912270D02*
X6948753Y-16931317D01*
X7120182Y-16988460D02*
X7139230Y-16997984D01*
X7139230Y-16997984D02*
X7177325Y-16997984D01*
X7177325Y-16997984D02*
X7196372Y-16988460D01*
X7196372Y-16988460D02*
X7205896Y-16969412D01*
X7205896Y-16969412D02*
X7205896Y-16959889D01*
X7205896Y-16959889D02*
X7196372Y-16940841D01*
X7196372Y-16940841D02*
X7177325Y-16931317D01*
X7177325Y-16931317D02*
X7148753Y-16931317D01*
X7148753Y-16931317D02*
X7129706Y-16921793D01*
X7129706Y-16921793D02*
X7120182Y-16902746D01*
X7120182Y-16902746D02*
X7120182Y-16893222D01*
X7120182Y-16893222D02*
X7129706Y-16874174D01*
X7129706Y-16874174D02*
X7148753Y-16864650D01*
X7148753Y-16864650D02*
X7177325Y-16864650D01*
X7177325Y-16864650D02*
X7196372Y-16874174D01*
X7272563Y-17074174D02*
X7282087Y-17064650D01*
X7282087Y-17064650D02*
X7301134Y-17036079D01*
X7301134Y-17036079D02*
X7310658Y-17017031D01*
X7310658Y-17017031D02*
X7320182Y-16988460D01*
X7320182Y-16988460D02*
X7329706Y-16940841D01*
X7329706Y-16940841D02*
X7329706Y-16902746D01*
X7329706Y-16902746D02*
X7320182Y-16855127D01*
X7320182Y-16855127D02*
X7310658Y-16826555D01*
X7310658Y-16826555D02*
X7301134Y-16807508D01*
X7301134Y-16807508D02*
X7282087Y-16778936D01*
X7282087Y-16778936D02*
X7272563Y-16769412D01*
D12*
X2457500Y-17130500D02*
X2457500Y-17210500D01*
X2417500Y-17170500D02*
X2497500Y-17170500D01*
D11*
X2796372Y-17061984D02*
X2815420Y-17061984D01*
X2815420Y-17061984D02*
X2834467Y-17071508D01*
X2834467Y-17071508D02*
X2843991Y-17081031D01*
X2843991Y-17081031D02*
X2853515Y-17100079D01*
X2853515Y-17100079D02*
X2863039Y-17138174D01*
X2863039Y-17138174D02*
X2863039Y-17185793D01*
X2863039Y-17185793D02*
X2853515Y-17223889D01*
X2853515Y-17223889D02*
X2843991Y-17242936D01*
X2843991Y-17242936D02*
X2834467Y-17252460D01*
X2834467Y-17252460D02*
X2815420Y-17261984D01*
X2815420Y-17261984D02*
X2796372Y-17261984D01*
X2796372Y-17261984D02*
X2777324Y-17252460D01*
X2777324Y-17252460D02*
X2767801Y-17242936D01*
X2767801Y-17242936D02*
X2758277Y-17223889D01*
X2758277Y-17223889D02*
X2748753Y-17185793D01*
X2748753Y-17185793D02*
X2748753Y-17138174D01*
X2748753Y-17138174D02*
X2758277Y-17100079D01*
X2758277Y-17100079D02*
X2767801Y-17081031D01*
X2767801Y-17081031D02*
X2777324Y-17071508D01*
X2777324Y-17071508D02*
X2796372Y-17061984D01*
X2948753Y-17242936D02*
X2958277Y-17252460D01*
X2958277Y-17252460D02*
X2948753Y-17261984D01*
X2948753Y-17261984D02*
X2939229Y-17252460D01*
X2939229Y-17252460D02*
X2948753Y-17242936D01*
X2948753Y-17242936D02*
X2948753Y-17261984D01*
X3072562Y-17147698D02*
X3053515Y-17138174D01*
X3053515Y-17138174D02*
X3043991Y-17128650D01*
X3043991Y-17128650D02*
X3034467Y-17109603D01*
X3034467Y-17109603D02*
X3034467Y-17100079D01*
X3034467Y-17100079D02*
X3043991Y-17081031D01*
X3043991Y-17081031D02*
X3053515Y-17071508D01*
X3053515Y-17071508D02*
X3072562Y-17061984D01*
X3072562Y-17061984D02*
X3110658Y-17061984D01*
X3110658Y-17061984D02*
X3129705Y-17071508D01*
X3129705Y-17071508D02*
X3139229Y-17081031D01*
X3139229Y-17081031D02*
X3148753Y-17100079D01*
X3148753Y-17100079D02*
X3148753Y-17109603D01*
X3148753Y-17109603D02*
X3139229Y-17128650D01*
X3139229Y-17128650D02*
X3129705Y-17138174D01*
X3129705Y-17138174D02*
X3110658Y-17147698D01*
X3110658Y-17147698D02*
X3072562Y-17147698D01*
X3072562Y-17147698D02*
X3053515Y-17157222D01*
X3053515Y-17157222D02*
X3043991Y-17166746D01*
X3043991Y-17166746D02*
X3034467Y-17185793D01*
X3034467Y-17185793D02*
X3034467Y-17223889D01*
X3034467Y-17223889D02*
X3043991Y-17242936D01*
X3043991Y-17242936D02*
X3053515Y-17252460D01*
X3053515Y-17252460D02*
X3072562Y-17261984D01*
X3072562Y-17261984D02*
X3110658Y-17261984D01*
X3110658Y-17261984D02*
X3129705Y-17252460D01*
X3129705Y-17252460D02*
X3139229Y-17242936D01*
X3139229Y-17242936D02*
X3148753Y-17223889D01*
X3148753Y-17223889D02*
X3148753Y-17185793D01*
X3148753Y-17185793D02*
X3139229Y-17166746D01*
X3139229Y-17166746D02*
X3129705Y-17157222D01*
X3129705Y-17157222D02*
X3110658Y-17147698D01*
X3272562Y-17061984D02*
X3291610Y-17061984D01*
X3291610Y-17061984D02*
X3310658Y-17071508D01*
X3310658Y-17071508D02*
X3320182Y-17081031D01*
X3320182Y-17081031D02*
X3329705Y-17100079D01*
X3329705Y-17100079D02*
X3339229Y-17138174D01*
X3339229Y-17138174D02*
X3339229Y-17185793D01*
X3339229Y-17185793D02*
X3329705Y-17223889D01*
X3329705Y-17223889D02*
X3320182Y-17242936D01*
X3320182Y-17242936D02*
X3310658Y-17252460D01*
X3310658Y-17252460D02*
X3291610Y-17261984D01*
X3291610Y-17261984D02*
X3272562Y-17261984D01*
X3272562Y-17261984D02*
X3253515Y-17252460D01*
X3253515Y-17252460D02*
X3243991Y-17242936D01*
X3243991Y-17242936D02*
X3234467Y-17223889D01*
X3234467Y-17223889D02*
X3224943Y-17185793D01*
X3224943Y-17185793D02*
X3224943Y-17138174D01*
X3224943Y-17138174D02*
X3234467Y-17100079D01*
X3234467Y-17100079D02*
X3243991Y-17081031D01*
X3243991Y-17081031D02*
X3253515Y-17071508D01*
X3253515Y-17071508D02*
X3272562Y-17061984D01*
X3463039Y-17061984D02*
X3482086Y-17061984D01*
X3482086Y-17061984D02*
X3501134Y-17071508D01*
X3501134Y-17071508D02*
X3510658Y-17081031D01*
X3510658Y-17081031D02*
X3520182Y-17100079D01*
X3520182Y-17100079D02*
X3529705Y-17138174D01*
X3529705Y-17138174D02*
X3529705Y-17185793D01*
X3529705Y-17185793D02*
X3520182Y-17223889D01*
X3520182Y-17223889D02*
X3510658Y-17242936D01*
X3510658Y-17242936D02*
X3501134Y-17252460D01*
X3501134Y-17252460D02*
X3482086Y-17261984D01*
X3482086Y-17261984D02*
X3463039Y-17261984D01*
X3463039Y-17261984D02*
X3443991Y-17252460D01*
X3443991Y-17252460D02*
X3434467Y-17242936D01*
X3434467Y-17242936D02*
X3424943Y-17223889D01*
X3424943Y-17223889D02*
X3415420Y-17185793D01*
X3415420Y-17185793D02*
X3415420Y-17138174D01*
X3415420Y-17138174D02*
X3424943Y-17100079D01*
X3424943Y-17100079D02*
X3434467Y-17081031D01*
X3434467Y-17081031D02*
X3443991Y-17071508D01*
X3443991Y-17071508D02*
X3463039Y-17061984D01*
X3615420Y-17261984D02*
X3615420Y-17128650D01*
X3615420Y-17147698D02*
X3624943Y-17138174D01*
X3624943Y-17138174D02*
X3643991Y-17128650D01*
X3643991Y-17128650D02*
X3672563Y-17128650D01*
X3672563Y-17128650D02*
X3691610Y-17138174D01*
X3691610Y-17138174D02*
X3701134Y-17157222D01*
X3701134Y-17157222D02*
X3701134Y-17261984D01*
X3701134Y-17157222D02*
X3710658Y-17138174D01*
X3710658Y-17138174D02*
X3729705Y-17128650D01*
X3729705Y-17128650D02*
X3758277Y-17128650D01*
X3758277Y-17128650D02*
X3777324Y-17138174D01*
X3777324Y-17138174D02*
X3786848Y-17157222D01*
X3786848Y-17157222D02*
X3786848Y-17261984D01*
X3882086Y-17261984D02*
X3882086Y-17128650D01*
X3882086Y-17147698D02*
X3891610Y-17138174D01*
X3891610Y-17138174D02*
X3910658Y-17128650D01*
X3910658Y-17128650D02*
X3939229Y-17128650D01*
X3939229Y-17128650D02*
X3958277Y-17138174D01*
X3958277Y-17138174D02*
X3967801Y-17157222D01*
X3967801Y-17157222D02*
X3967801Y-17261984D01*
X3967801Y-17157222D02*
X3977324Y-17138174D01*
X3977324Y-17138174D02*
X3996372Y-17128650D01*
X3996372Y-17128650D02*
X4024943Y-17128650D01*
X4024943Y-17128650D02*
X4043991Y-17138174D01*
X4043991Y-17138174D02*
X4053515Y-17157222D01*
X4053515Y-17157222D02*
X4053515Y-17261984D01*
X4443991Y-17052460D02*
X4272563Y-17309603D01*
X4701134Y-17061984D02*
X4720182Y-17061984D01*
X4720182Y-17061984D02*
X4739229Y-17071508D01*
X4739229Y-17071508D02*
X4748753Y-17081031D01*
X4748753Y-17081031D02*
X4758277Y-17100079D01*
X4758277Y-17100079D02*
X4767801Y-17138174D01*
X4767801Y-17138174D02*
X4767801Y-17185793D01*
X4767801Y-17185793D02*
X4758277Y-17223889D01*
X4758277Y-17223889D02*
X4748753Y-17242936D01*
X4748753Y-17242936D02*
X4739229Y-17252460D01*
X4739229Y-17252460D02*
X4720182Y-17261984D01*
X4720182Y-17261984D02*
X4701134Y-17261984D01*
X4701134Y-17261984D02*
X4682087Y-17252460D01*
X4682087Y-17252460D02*
X4672563Y-17242936D01*
X4672563Y-17242936D02*
X4663039Y-17223889D01*
X4663039Y-17223889D02*
X4653515Y-17185793D01*
X4653515Y-17185793D02*
X4653515Y-17138174D01*
X4653515Y-17138174D02*
X4663039Y-17100079D01*
X4663039Y-17100079D02*
X4672563Y-17081031D01*
X4672563Y-17081031D02*
X4682087Y-17071508D01*
X4682087Y-17071508D02*
X4701134Y-17061984D01*
X4853515Y-17242936D02*
X4863039Y-17252460D01*
X4863039Y-17252460D02*
X4853515Y-17261984D01*
X4853515Y-17261984D02*
X4843991Y-17252460D01*
X4843991Y-17252460D02*
X4853515Y-17242936D01*
X4853515Y-17242936D02*
X4853515Y-17261984D01*
X4986848Y-17061984D02*
X5005896Y-17061984D01*
X5005896Y-17061984D02*
X5024944Y-17071508D01*
X5024944Y-17071508D02*
X5034468Y-17081031D01*
X5034468Y-17081031D02*
X5043991Y-17100079D01*
X5043991Y-17100079D02*
X5053515Y-17138174D01*
X5053515Y-17138174D02*
X5053515Y-17185793D01*
X5053515Y-17185793D02*
X5043991Y-17223889D01*
X5043991Y-17223889D02*
X5034468Y-17242936D01*
X5034468Y-17242936D02*
X5024944Y-17252460D01*
X5024944Y-17252460D02*
X5005896Y-17261984D01*
X5005896Y-17261984D02*
X4986848Y-17261984D01*
X4986848Y-17261984D02*
X4967801Y-17252460D01*
X4967801Y-17252460D02*
X4958277Y-17242936D01*
X4958277Y-17242936D02*
X4948753Y-17223889D01*
X4948753Y-17223889D02*
X4939229Y-17185793D01*
X4939229Y-17185793D02*
X4939229Y-17138174D01*
X4939229Y-17138174D02*
X4948753Y-17100079D01*
X4948753Y-17100079D02*
X4958277Y-17081031D01*
X4958277Y-17081031D02*
X4967801Y-17071508D01*
X4967801Y-17071508D02*
X4986848Y-17061984D01*
X5120182Y-17061984D02*
X5243991Y-17061984D01*
X5243991Y-17061984D02*
X5177325Y-17138174D01*
X5177325Y-17138174D02*
X5205896Y-17138174D01*
X5205896Y-17138174D02*
X5224944Y-17147698D01*
X5224944Y-17147698D02*
X5234468Y-17157222D01*
X5234468Y-17157222D02*
X5243991Y-17176270D01*
X5243991Y-17176270D02*
X5243991Y-17223889D01*
X5243991Y-17223889D02*
X5234468Y-17242936D01*
X5234468Y-17242936D02*
X5224944Y-17252460D01*
X5224944Y-17252460D02*
X5205896Y-17261984D01*
X5205896Y-17261984D02*
X5148753Y-17261984D01*
X5148753Y-17261984D02*
X5129706Y-17252460D01*
X5129706Y-17252460D02*
X5120182Y-17242936D01*
X5434468Y-17261984D02*
X5320182Y-17261984D01*
X5377325Y-17261984D02*
X5377325Y-17061984D01*
X5377325Y-17061984D02*
X5358277Y-17090555D01*
X5358277Y-17090555D02*
X5339229Y-17109603D01*
X5339229Y-17109603D02*
X5320182Y-17119127D01*
X5615420Y-17061984D02*
X5520182Y-17061984D01*
X5520182Y-17061984D02*
X5510658Y-17157222D01*
X5510658Y-17157222D02*
X5520182Y-17147698D01*
X5520182Y-17147698D02*
X5539229Y-17138174D01*
X5539229Y-17138174D02*
X5586849Y-17138174D01*
X5586849Y-17138174D02*
X5605896Y-17147698D01*
X5605896Y-17147698D02*
X5615420Y-17157222D01*
X5615420Y-17157222D02*
X5624944Y-17176270D01*
X5624944Y-17176270D02*
X5624944Y-17223889D01*
X5624944Y-17223889D02*
X5615420Y-17242936D01*
X5615420Y-17242936D02*
X5605896Y-17252460D01*
X5605896Y-17252460D02*
X5586849Y-17261984D01*
X5586849Y-17261984D02*
X5539229Y-17261984D01*
X5539229Y-17261984D02*
X5520182Y-17252460D01*
X5520182Y-17252460D02*
X5510658Y-17242936D01*
X5701134Y-17061984D02*
X5701134Y-17100079D01*
X5777325Y-17061984D02*
X5777325Y-17100079D01*
X6072563Y-17338174D02*
X6063039Y-17328650D01*
X6063039Y-17328650D02*
X6043991Y-17300079D01*
X6043991Y-17300079D02*
X6034468Y-17281031D01*
X6034468Y-17281031D02*
X6024944Y-17252460D01*
X6024944Y-17252460D02*
X6015420Y-17204841D01*
X6015420Y-17204841D02*
X6015420Y-17166746D01*
X6015420Y-17166746D02*
X6024944Y-17119127D01*
X6024944Y-17119127D02*
X6034468Y-17090555D01*
X6034468Y-17090555D02*
X6043991Y-17071508D01*
X6043991Y-17071508D02*
X6063039Y-17042936D01*
X6063039Y-17042936D02*
X6072563Y-17033412D01*
X6234468Y-17128650D02*
X6234468Y-17261984D01*
X6186848Y-17052460D02*
X6139229Y-17195317D01*
X6139229Y-17195317D02*
X6263039Y-17195317D01*
X6491610Y-17261984D02*
X6491610Y-17061984D01*
X6577325Y-17261984D02*
X6577325Y-17157222D01*
X6577325Y-17157222D02*
X6567801Y-17138174D01*
X6567801Y-17138174D02*
X6548753Y-17128650D01*
X6548753Y-17128650D02*
X6520182Y-17128650D01*
X6520182Y-17128650D02*
X6501134Y-17138174D01*
X6501134Y-17138174D02*
X6491610Y-17147698D01*
X6701134Y-17261984D02*
X6682087Y-17252460D01*
X6682087Y-17252460D02*
X6672563Y-17242936D01*
X6672563Y-17242936D02*
X6663039Y-17223889D01*
X6663039Y-17223889D02*
X6663039Y-17166746D01*
X6663039Y-17166746D02*
X6672563Y-17147698D01*
X6672563Y-17147698D02*
X6682087Y-17138174D01*
X6682087Y-17138174D02*
X6701134Y-17128650D01*
X6701134Y-17128650D02*
X6729706Y-17128650D01*
X6729706Y-17128650D02*
X6748753Y-17138174D01*
X6748753Y-17138174D02*
X6758277Y-17147698D01*
X6758277Y-17147698D02*
X6767801Y-17166746D01*
X6767801Y-17166746D02*
X6767801Y-17223889D01*
X6767801Y-17223889D02*
X6758277Y-17242936D01*
X6758277Y-17242936D02*
X6748753Y-17252460D01*
X6748753Y-17252460D02*
X6729706Y-17261984D01*
X6729706Y-17261984D02*
X6701134Y-17261984D01*
X6882087Y-17261984D02*
X6863039Y-17252460D01*
X6863039Y-17252460D02*
X6853515Y-17233412D01*
X6853515Y-17233412D02*
X6853515Y-17061984D01*
X7034468Y-17252460D02*
X7015420Y-17261984D01*
X7015420Y-17261984D02*
X6977325Y-17261984D01*
X6977325Y-17261984D02*
X6958277Y-17252460D01*
X6958277Y-17252460D02*
X6948753Y-17233412D01*
X6948753Y-17233412D02*
X6948753Y-17157222D01*
X6948753Y-17157222D02*
X6958277Y-17138174D01*
X6958277Y-17138174D02*
X6977325Y-17128650D01*
X6977325Y-17128650D02*
X7015420Y-17128650D01*
X7015420Y-17128650D02*
X7034468Y-17138174D01*
X7034468Y-17138174D02*
X7043991Y-17157222D01*
X7043991Y-17157222D02*
X7043991Y-17176270D01*
X7043991Y-17176270D02*
X6948753Y-17195317D01*
X7120182Y-17252460D02*
X7139230Y-17261984D01*
X7139230Y-17261984D02*
X7177325Y-17261984D01*
X7177325Y-17261984D02*
X7196372Y-17252460D01*
X7196372Y-17252460D02*
X7205896Y-17233412D01*
X7205896Y-17233412D02*
X7205896Y-17223889D01*
X7205896Y-17223889D02*
X7196372Y-17204841D01*
X7196372Y-17204841D02*
X7177325Y-17195317D01*
X7177325Y-17195317D02*
X7148753Y-17195317D01*
X7148753Y-17195317D02*
X7129706Y-17185793D01*
X7129706Y-17185793D02*
X7120182Y-17166746D01*
X7120182Y-17166746D02*
X7120182Y-17157222D01*
X7120182Y-17157222D02*
X7129706Y-17138174D01*
X7129706Y-17138174D02*
X7148753Y-17128650D01*
X7148753Y-17128650D02*
X7177325Y-17128650D01*
X7177325Y-17128650D02*
X7196372Y-17138174D01*
X7272563Y-17338174D02*
X7282087Y-17328650D01*
X7282087Y-17328650D02*
X7301134Y-17300079D01*
X7301134Y-17300079D02*
X7310658Y-17281031D01*
X7310658Y-17281031D02*
X7320182Y-17252460D01*
X7320182Y-17252460D02*
X7329706Y-17204841D01*
X7329706Y-17204841D02*
X7329706Y-17166746D01*
X7329706Y-17166746D02*
X7320182Y-17119127D01*
X7320182Y-17119127D02*
X7310658Y-17090555D01*
X7310658Y-17090555D02*
X7301134Y-17071508D01*
X7301134Y-17071508D02*
X7282087Y-17042936D01*
X7282087Y-17042936D02*
X7272563Y-17033412D01*
D12*
X2482856Y-17469856D02*
X2482856Y-17399144D01*
X2412144Y-17399144D01*
X2412144Y-17469856D01*
X2482856Y-17469856D01*
D11*
X2863039Y-17525984D02*
X2748753Y-17525984D01*
X2805896Y-17525984D02*
X2805896Y-17325984D01*
X2805896Y-17325984D02*
X2786848Y-17354555D01*
X2786848Y-17354555D02*
X2767801Y-17373603D01*
X2767801Y-17373603D02*
X2748753Y-17383127D01*
X2948753Y-17506936D02*
X2958277Y-17516460D01*
X2958277Y-17516460D02*
X2948753Y-17525984D01*
X2948753Y-17525984D02*
X2939229Y-17516460D01*
X2939229Y-17516460D02*
X2948753Y-17506936D01*
X2948753Y-17506936D02*
X2948753Y-17525984D01*
X3082086Y-17325984D02*
X3101134Y-17325984D01*
X3101134Y-17325984D02*
X3120182Y-17335508D01*
X3120182Y-17335508D02*
X3129705Y-17345031D01*
X3129705Y-17345031D02*
X3139229Y-17364079D01*
X3139229Y-17364079D02*
X3148753Y-17402174D01*
X3148753Y-17402174D02*
X3148753Y-17449793D01*
X3148753Y-17449793D02*
X3139229Y-17487889D01*
X3139229Y-17487889D02*
X3129705Y-17506936D01*
X3129705Y-17506936D02*
X3120182Y-17516460D01*
X3120182Y-17516460D02*
X3101134Y-17525984D01*
X3101134Y-17525984D02*
X3082086Y-17525984D01*
X3082086Y-17525984D02*
X3063039Y-17516460D01*
X3063039Y-17516460D02*
X3053515Y-17506936D01*
X3053515Y-17506936D02*
X3043991Y-17487889D01*
X3043991Y-17487889D02*
X3034467Y-17449793D01*
X3034467Y-17449793D02*
X3034467Y-17402174D01*
X3034467Y-17402174D02*
X3043991Y-17364079D01*
X3043991Y-17364079D02*
X3053515Y-17345031D01*
X3053515Y-17345031D02*
X3063039Y-17335508D01*
X3063039Y-17335508D02*
X3082086Y-17325984D01*
X3272562Y-17325984D02*
X3291610Y-17325984D01*
X3291610Y-17325984D02*
X3310658Y-17335508D01*
X3310658Y-17335508D02*
X3320182Y-17345031D01*
X3320182Y-17345031D02*
X3329705Y-17364079D01*
X3329705Y-17364079D02*
X3339229Y-17402174D01*
X3339229Y-17402174D02*
X3339229Y-17449793D01*
X3339229Y-17449793D02*
X3329705Y-17487889D01*
X3329705Y-17487889D02*
X3320182Y-17506936D01*
X3320182Y-17506936D02*
X3310658Y-17516460D01*
X3310658Y-17516460D02*
X3291610Y-17525984D01*
X3291610Y-17525984D02*
X3272562Y-17525984D01*
X3272562Y-17525984D02*
X3253515Y-17516460D01*
X3253515Y-17516460D02*
X3243991Y-17506936D01*
X3243991Y-17506936D02*
X3234467Y-17487889D01*
X3234467Y-17487889D02*
X3224943Y-17449793D01*
X3224943Y-17449793D02*
X3224943Y-17402174D01*
X3224943Y-17402174D02*
X3234467Y-17364079D01*
X3234467Y-17364079D02*
X3243991Y-17345031D01*
X3243991Y-17345031D02*
X3253515Y-17335508D01*
X3253515Y-17335508D02*
X3272562Y-17325984D01*
X3463039Y-17325984D02*
X3482086Y-17325984D01*
X3482086Y-17325984D02*
X3501134Y-17335508D01*
X3501134Y-17335508D02*
X3510658Y-17345031D01*
X3510658Y-17345031D02*
X3520182Y-17364079D01*
X3520182Y-17364079D02*
X3529705Y-17402174D01*
X3529705Y-17402174D02*
X3529705Y-17449793D01*
X3529705Y-17449793D02*
X3520182Y-17487889D01*
X3520182Y-17487889D02*
X3510658Y-17506936D01*
X3510658Y-17506936D02*
X3501134Y-17516460D01*
X3501134Y-17516460D02*
X3482086Y-17525984D01*
X3482086Y-17525984D02*
X3463039Y-17525984D01*
X3463039Y-17525984D02*
X3443991Y-17516460D01*
X3443991Y-17516460D02*
X3434467Y-17506936D01*
X3434467Y-17506936D02*
X3424943Y-17487889D01*
X3424943Y-17487889D02*
X3415420Y-17449793D01*
X3415420Y-17449793D02*
X3415420Y-17402174D01*
X3415420Y-17402174D02*
X3424943Y-17364079D01*
X3424943Y-17364079D02*
X3434467Y-17345031D01*
X3434467Y-17345031D02*
X3443991Y-17335508D01*
X3443991Y-17335508D02*
X3463039Y-17325984D01*
X3615420Y-17525984D02*
X3615420Y-17392650D01*
X3615420Y-17411698D02*
X3624943Y-17402174D01*
X3624943Y-17402174D02*
X3643991Y-17392650D01*
X3643991Y-17392650D02*
X3672563Y-17392650D01*
X3672563Y-17392650D02*
X3691610Y-17402174D01*
X3691610Y-17402174D02*
X3701134Y-17421222D01*
X3701134Y-17421222D02*
X3701134Y-17525984D01*
X3701134Y-17421222D02*
X3710658Y-17402174D01*
X3710658Y-17402174D02*
X3729705Y-17392650D01*
X3729705Y-17392650D02*
X3758277Y-17392650D01*
X3758277Y-17392650D02*
X3777324Y-17402174D01*
X3777324Y-17402174D02*
X3786848Y-17421222D01*
X3786848Y-17421222D02*
X3786848Y-17525984D01*
X3882086Y-17525984D02*
X3882086Y-17392650D01*
X3882086Y-17411698D02*
X3891610Y-17402174D01*
X3891610Y-17402174D02*
X3910658Y-17392650D01*
X3910658Y-17392650D02*
X3939229Y-17392650D01*
X3939229Y-17392650D02*
X3958277Y-17402174D01*
X3958277Y-17402174D02*
X3967801Y-17421222D01*
X3967801Y-17421222D02*
X3967801Y-17525984D01*
X3967801Y-17421222D02*
X3977324Y-17402174D01*
X3977324Y-17402174D02*
X3996372Y-17392650D01*
X3996372Y-17392650D02*
X4024943Y-17392650D01*
X4024943Y-17392650D02*
X4043991Y-17402174D01*
X4043991Y-17402174D02*
X4053515Y-17421222D01*
X4053515Y-17421222D02*
X4053515Y-17525984D01*
X4443991Y-17316460D02*
X4272563Y-17573603D01*
X4701134Y-17325984D02*
X4720182Y-17325984D01*
X4720182Y-17325984D02*
X4739229Y-17335508D01*
X4739229Y-17335508D02*
X4748753Y-17345031D01*
X4748753Y-17345031D02*
X4758277Y-17364079D01*
X4758277Y-17364079D02*
X4767801Y-17402174D01*
X4767801Y-17402174D02*
X4767801Y-17449793D01*
X4767801Y-17449793D02*
X4758277Y-17487889D01*
X4758277Y-17487889D02*
X4748753Y-17506936D01*
X4748753Y-17506936D02*
X4739229Y-17516460D01*
X4739229Y-17516460D02*
X4720182Y-17525984D01*
X4720182Y-17525984D02*
X4701134Y-17525984D01*
X4701134Y-17525984D02*
X4682087Y-17516460D01*
X4682087Y-17516460D02*
X4672563Y-17506936D01*
X4672563Y-17506936D02*
X4663039Y-17487889D01*
X4663039Y-17487889D02*
X4653515Y-17449793D01*
X4653515Y-17449793D02*
X4653515Y-17402174D01*
X4653515Y-17402174D02*
X4663039Y-17364079D01*
X4663039Y-17364079D02*
X4672563Y-17345031D01*
X4672563Y-17345031D02*
X4682087Y-17335508D01*
X4682087Y-17335508D02*
X4701134Y-17325984D01*
X4853515Y-17506936D02*
X4863039Y-17516460D01*
X4863039Y-17516460D02*
X4853515Y-17525984D01*
X4853515Y-17525984D02*
X4843991Y-17516460D01*
X4843991Y-17516460D02*
X4853515Y-17506936D01*
X4853515Y-17506936D02*
X4853515Y-17525984D01*
X4986848Y-17325984D02*
X5005896Y-17325984D01*
X5005896Y-17325984D02*
X5024944Y-17335508D01*
X5024944Y-17335508D02*
X5034468Y-17345031D01*
X5034468Y-17345031D02*
X5043991Y-17364079D01*
X5043991Y-17364079D02*
X5053515Y-17402174D01*
X5053515Y-17402174D02*
X5053515Y-17449793D01*
X5053515Y-17449793D02*
X5043991Y-17487889D01*
X5043991Y-17487889D02*
X5034468Y-17506936D01*
X5034468Y-17506936D02*
X5024944Y-17516460D01*
X5024944Y-17516460D02*
X5005896Y-17525984D01*
X5005896Y-17525984D02*
X4986848Y-17525984D01*
X4986848Y-17525984D02*
X4967801Y-17516460D01*
X4967801Y-17516460D02*
X4958277Y-17506936D01*
X4958277Y-17506936D02*
X4948753Y-17487889D01*
X4948753Y-17487889D02*
X4939229Y-17449793D01*
X4939229Y-17449793D02*
X4939229Y-17402174D01*
X4939229Y-17402174D02*
X4948753Y-17364079D01*
X4948753Y-17364079D02*
X4958277Y-17345031D01*
X4958277Y-17345031D02*
X4967801Y-17335508D01*
X4967801Y-17335508D02*
X4986848Y-17325984D01*
X5120182Y-17325984D02*
X5243991Y-17325984D01*
X5243991Y-17325984D02*
X5177325Y-17402174D01*
X5177325Y-17402174D02*
X5205896Y-17402174D01*
X5205896Y-17402174D02*
X5224944Y-17411698D01*
X5224944Y-17411698D02*
X5234468Y-17421222D01*
X5234468Y-17421222D02*
X5243991Y-17440270D01*
X5243991Y-17440270D02*
X5243991Y-17487889D01*
X5243991Y-17487889D02*
X5234468Y-17506936D01*
X5234468Y-17506936D02*
X5224944Y-17516460D01*
X5224944Y-17516460D02*
X5205896Y-17525984D01*
X5205896Y-17525984D02*
X5148753Y-17525984D01*
X5148753Y-17525984D02*
X5129706Y-17516460D01*
X5129706Y-17516460D02*
X5120182Y-17506936D01*
X5339229Y-17525984D02*
X5377325Y-17525984D01*
X5377325Y-17525984D02*
X5396372Y-17516460D01*
X5396372Y-17516460D02*
X5405896Y-17506936D01*
X5405896Y-17506936D02*
X5424944Y-17478365D01*
X5424944Y-17478365D02*
X5434468Y-17440270D01*
X5434468Y-17440270D02*
X5434468Y-17364079D01*
X5434468Y-17364079D02*
X5424944Y-17345031D01*
X5424944Y-17345031D02*
X5415420Y-17335508D01*
X5415420Y-17335508D02*
X5396372Y-17325984D01*
X5396372Y-17325984D02*
X5358277Y-17325984D01*
X5358277Y-17325984D02*
X5339229Y-17335508D01*
X5339229Y-17335508D02*
X5329706Y-17345031D01*
X5329706Y-17345031D02*
X5320182Y-17364079D01*
X5320182Y-17364079D02*
X5320182Y-17411698D01*
X5320182Y-17411698D02*
X5329706Y-17430746D01*
X5329706Y-17430746D02*
X5339229Y-17440270D01*
X5339229Y-17440270D02*
X5358277Y-17449793D01*
X5358277Y-17449793D02*
X5396372Y-17449793D01*
X5396372Y-17449793D02*
X5415420Y-17440270D01*
X5415420Y-17440270D02*
X5424944Y-17430746D01*
X5424944Y-17430746D02*
X5434468Y-17411698D01*
X5605896Y-17392650D02*
X5605896Y-17525984D01*
X5558277Y-17316460D02*
X5510658Y-17459317D01*
X5510658Y-17459317D02*
X5634467Y-17459317D01*
X5701134Y-17325984D02*
X5701134Y-17364079D01*
X5777325Y-17325984D02*
X5777325Y-17364079D01*
X6072563Y-17602174D02*
X6063039Y-17592650D01*
X6063039Y-17592650D02*
X6043991Y-17564079D01*
X6043991Y-17564079D02*
X6034468Y-17545031D01*
X6034468Y-17545031D02*
X6024944Y-17516460D01*
X6024944Y-17516460D02*
X6015420Y-17468841D01*
X6015420Y-17468841D02*
X6015420Y-17430746D01*
X6015420Y-17430746D02*
X6024944Y-17383127D01*
X6024944Y-17383127D02*
X6034468Y-17354555D01*
X6034468Y-17354555D02*
X6043991Y-17335508D01*
X6043991Y-17335508D02*
X6063039Y-17306936D01*
X6063039Y-17306936D02*
X6072563Y-17297412D01*
X6129706Y-17325984D02*
X6253515Y-17325984D01*
X6253515Y-17325984D02*
X6186848Y-17402174D01*
X6186848Y-17402174D02*
X6215420Y-17402174D01*
X6215420Y-17402174D02*
X6234468Y-17411698D01*
X6234468Y-17411698D02*
X6243991Y-17421222D01*
X6243991Y-17421222D02*
X6253515Y-17440270D01*
X6253515Y-17440270D02*
X6253515Y-17487889D01*
X6253515Y-17487889D02*
X6243991Y-17506936D01*
X6243991Y-17506936D02*
X6234468Y-17516460D01*
X6234468Y-17516460D02*
X6215420Y-17525984D01*
X6215420Y-17525984D02*
X6158277Y-17525984D01*
X6158277Y-17525984D02*
X6139229Y-17516460D01*
X6139229Y-17516460D02*
X6129706Y-17506936D01*
X6377325Y-17325984D02*
X6396372Y-17325984D01*
X6396372Y-17325984D02*
X6415420Y-17335508D01*
X6415420Y-17335508D02*
X6424944Y-17345031D01*
X6424944Y-17345031D02*
X6434468Y-17364079D01*
X6434468Y-17364079D02*
X6443991Y-17402174D01*
X6443991Y-17402174D02*
X6443991Y-17449793D01*
X6443991Y-17449793D02*
X6434468Y-17487889D01*
X6434468Y-17487889D02*
X6424944Y-17506936D01*
X6424944Y-17506936D02*
X6415420Y-17516460D01*
X6415420Y-17516460D02*
X6396372Y-17525984D01*
X6396372Y-17525984D02*
X6377325Y-17525984D01*
X6377325Y-17525984D02*
X6358277Y-17516460D01*
X6358277Y-17516460D02*
X6348753Y-17506936D01*
X6348753Y-17506936D02*
X6339229Y-17487889D01*
X6339229Y-17487889D02*
X6329706Y-17449793D01*
X6329706Y-17449793D02*
X6329706Y-17402174D01*
X6329706Y-17402174D02*
X6339229Y-17364079D01*
X6339229Y-17364079D02*
X6348753Y-17345031D01*
X6348753Y-17345031D02*
X6358277Y-17335508D01*
X6358277Y-17335508D02*
X6377325Y-17325984D01*
X6682087Y-17525984D02*
X6682087Y-17325984D01*
X6767801Y-17525984D02*
X6767801Y-17421222D01*
X6767801Y-17421222D02*
X6758277Y-17402174D01*
X6758277Y-17402174D02*
X6739230Y-17392650D01*
X6739230Y-17392650D02*
X6710658Y-17392650D01*
X6710658Y-17392650D02*
X6691610Y-17402174D01*
X6691610Y-17402174D02*
X6682087Y-17411698D01*
X6891610Y-17525984D02*
X6872563Y-17516460D01*
X6872563Y-17516460D02*
X6863039Y-17506936D01*
X6863039Y-17506936D02*
X6853515Y-17487889D01*
X6853515Y-17487889D02*
X6853515Y-17430746D01*
X6853515Y-17430746D02*
X6863039Y-17411698D01*
X6863039Y-17411698D02*
X6872563Y-17402174D01*
X6872563Y-17402174D02*
X6891610Y-17392650D01*
X6891610Y-17392650D02*
X6920182Y-17392650D01*
X6920182Y-17392650D02*
X6939230Y-17402174D01*
X6939230Y-17402174D02*
X6948753Y-17411698D01*
X6948753Y-17411698D02*
X6958277Y-17430746D01*
X6958277Y-17430746D02*
X6958277Y-17487889D01*
X6958277Y-17487889D02*
X6948753Y-17506936D01*
X6948753Y-17506936D02*
X6939230Y-17516460D01*
X6939230Y-17516460D02*
X6920182Y-17525984D01*
X6920182Y-17525984D02*
X6891610Y-17525984D01*
X7072563Y-17525984D02*
X7053515Y-17516460D01*
X7053515Y-17516460D02*
X7043991Y-17497412D01*
X7043991Y-17497412D02*
X7043991Y-17325984D01*
X7224944Y-17516460D02*
X7205896Y-17525984D01*
X7205896Y-17525984D02*
X7167801Y-17525984D01*
X7167801Y-17525984D02*
X7148753Y-17516460D01*
X7148753Y-17516460D02*
X7139230Y-17497412D01*
X7139230Y-17497412D02*
X7139230Y-17421222D01*
X7139230Y-17421222D02*
X7148753Y-17402174D01*
X7148753Y-17402174D02*
X7167801Y-17392650D01*
X7167801Y-17392650D02*
X7205896Y-17392650D01*
X7205896Y-17392650D02*
X7224944Y-17402174D01*
X7224944Y-17402174D02*
X7234468Y-17421222D01*
X7234468Y-17421222D02*
X7234468Y-17440270D01*
X7234468Y-17440270D02*
X7139230Y-17459317D01*
X7310658Y-17516460D02*
X7329706Y-17525984D01*
X7329706Y-17525984D02*
X7367801Y-17525984D01*
X7367801Y-17525984D02*
X7386849Y-17516460D01*
X7386849Y-17516460D02*
X7396372Y-17497412D01*
X7396372Y-17497412D02*
X7396372Y-17487889D01*
X7396372Y-17487889D02*
X7386849Y-17468841D01*
X7386849Y-17468841D02*
X7367801Y-17459317D01*
X7367801Y-17459317D02*
X7339230Y-17459317D01*
X7339230Y-17459317D02*
X7320182Y-17449793D01*
X7320182Y-17449793D02*
X7310658Y-17430746D01*
X7310658Y-17430746D02*
X7310658Y-17421222D01*
X7310658Y-17421222D02*
X7320182Y-17402174D01*
X7320182Y-17402174D02*
X7339230Y-17392650D01*
X7339230Y-17392650D02*
X7367801Y-17392650D01*
X7367801Y-17392650D02*
X7386849Y-17402174D01*
X7463039Y-17602174D02*
X7472563Y-17592650D01*
X7472563Y-17592650D02*
X7491611Y-17564079D01*
X7491611Y-17564079D02*
X7501134Y-17545031D01*
X7501134Y-17545031D02*
X7510658Y-17516460D01*
X7510658Y-17516460D02*
X7520182Y-17468841D01*
X7520182Y-17468841D02*
X7520182Y-17430746D01*
X7520182Y-17430746D02*
X7510658Y-17383127D01*
X7510658Y-17383127D02*
X7501134Y-17354555D01*
X7501134Y-17354555D02*
X7491611Y-17335508D01*
X7491611Y-17335508D02*
X7472563Y-17306936D01*
X7472563Y-17306936D02*
X7463039Y-17297412D01*
D13*
X2447460Y-17748540D02*
X2497500Y-17698500D01*
X2447460Y-17648460D01*
X2397420Y-17698500D01*
X2447460Y-17748540D01*
D11*
X2863039Y-17789984D02*
X2748753Y-17789984D01*
X2805896Y-17789984D02*
X2805896Y-17589984D01*
X2805896Y-17589984D02*
X2786848Y-17618555D01*
X2786848Y-17618555D02*
X2767801Y-17637603D01*
X2767801Y-17637603D02*
X2748753Y-17647127D01*
X2948753Y-17770936D02*
X2958277Y-17780460D01*
X2958277Y-17780460D02*
X2948753Y-17789984D01*
X2948753Y-17789984D02*
X2939229Y-17780460D01*
X2939229Y-17780460D02*
X2948753Y-17770936D01*
X2948753Y-17770936D02*
X2948753Y-17789984D01*
X3082086Y-17589984D02*
X3101134Y-17589984D01*
X3101134Y-17589984D02*
X3120182Y-17599508D01*
X3120182Y-17599508D02*
X3129705Y-17609031D01*
X3129705Y-17609031D02*
X3139229Y-17628079D01*
X3139229Y-17628079D02*
X3148753Y-17666174D01*
X3148753Y-17666174D02*
X3148753Y-17713793D01*
X3148753Y-17713793D02*
X3139229Y-17751889D01*
X3139229Y-17751889D02*
X3129705Y-17770936D01*
X3129705Y-17770936D02*
X3120182Y-17780460D01*
X3120182Y-17780460D02*
X3101134Y-17789984D01*
X3101134Y-17789984D02*
X3082086Y-17789984D01*
X3082086Y-17789984D02*
X3063039Y-17780460D01*
X3063039Y-17780460D02*
X3053515Y-17770936D01*
X3053515Y-17770936D02*
X3043991Y-17751889D01*
X3043991Y-17751889D02*
X3034467Y-17713793D01*
X3034467Y-17713793D02*
X3034467Y-17666174D01*
X3034467Y-17666174D02*
X3043991Y-17628079D01*
X3043991Y-17628079D02*
X3053515Y-17609031D01*
X3053515Y-17609031D02*
X3063039Y-17599508D01*
X3063039Y-17599508D02*
X3082086Y-17589984D01*
X3272562Y-17589984D02*
X3291610Y-17589984D01*
X3291610Y-17589984D02*
X3310658Y-17599508D01*
X3310658Y-17599508D02*
X3320182Y-17609031D01*
X3320182Y-17609031D02*
X3329705Y-17628079D01*
X3329705Y-17628079D02*
X3339229Y-17666174D01*
X3339229Y-17666174D02*
X3339229Y-17713793D01*
X3339229Y-17713793D02*
X3329705Y-17751889D01*
X3329705Y-17751889D02*
X3320182Y-17770936D01*
X3320182Y-17770936D02*
X3310658Y-17780460D01*
X3310658Y-17780460D02*
X3291610Y-17789984D01*
X3291610Y-17789984D02*
X3272562Y-17789984D01*
X3272562Y-17789984D02*
X3253515Y-17780460D01*
X3253515Y-17780460D02*
X3243991Y-17770936D01*
X3243991Y-17770936D02*
X3234467Y-17751889D01*
X3234467Y-17751889D02*
X3224943Y-17713793D01*
X3224943Y-17713793D02*
X3224943Y-17666174D01*
X3224943Y-17666174D02*
X3234467Y-17628079D01*
X3234467Y-17628079D02*
X3243991Y-17609031D01*
X3243991Y-17609031D02*
X3253515Y-17599508D01*
X3253515Y-17599508D02*
X3272562Y-17589984D01*
X3529705Y-17789984D02*
X3415420Y-17789984D01*
X3472562Y-17789984D02*
X3472562Y-17589984D01*
X3472562Y-17589984D02*
X3453515Y-17618555D01*
X3453515Y-17618555D02*
X3434467Y-17637603D01*
X3434467Y-17637603D02*
X3415420Y-17647127D01*
X3615420Y-17789984D02*
X3615420Y-17656650D01*
X3615420Y-17675698D02*
X3624943Y-17666174D01*
X3624943Y-17666174D02*
X3643991Y-17656650D01*
X3643991Y-17656650D02*
X3672563Y-17656650D01*
X3672563Y-17656650D02*
X3691610Y-17666174D01*
X3691610Y-17666174D02*
X3701134Y-17685222D01*
X3701134Y-17685222D02*
X3701134Y-17789984D01*
X3701134Y-17685222D02*
X3710658Y-17666174D01*
X3710658Y-17666174D02*
X3729705Y-17656650D01*
X3729705Y-17656650D02*
X3758277Y-17656650D01*
X3758277Y-17656650D02*
X3777324Y-17666174D01*
X3777324Y-17666174D02*
X3786848Y-17685222D01*
X3786848Y-17685222D02*
X3786848Y-17789984D01*
X3882086Y-17789984D02*
X3882086Y-17656650D01*
X3882086Y-17675698D02*
X3891610Y-17666174D01*
X3891610Y-17666174D02*
X3910658Y-17656650D01*
X3910658Y-17656650D02*
X3939229Y-17656650D01*
X3939229Y-17656650D02*
X3958277Y-17666174D01*
X3958277Y-17666174D02*
X3967801Y-17685222D01*
X3967801Y-17685222D02*
X3967801Y-17789984D01*
X3967801Y-17685222D02*
X3977324Y-17666174D01*
X3977324Y-17666174D02*
X3996372Y-17656650D01*
X3996372Y-17656650D02*
X4024943Y-17656650D01*
X4024943Y-17656650D02*
X4043991Y-17666174D01*
X4043991Y-17666174D02*
X4053515Y-17685222D01*
X4053515Y-17685222D02*
X4053515Y-17789984D01*
X4443991Y-17580460D02*
X4272563Y-17837603D01*
X4701134Y-17589984D02*
X4720182Y-17589984D01*
X4720182Y-17589984D02*
X4739229Y-17599508D01*
X4739229Y-17599508D02*
X4748753Y-17609031D01*
X4748753Y-17609031D02*
X4758277Y-17628079D01*
X4758277Y-17628079D02*
X4767801Y-17666174D01*
X4767801Y-17666174D02*
X4767801Y-17713793D01*
X4767801Y-17713793D02*
X4758277Y-17751889D01*
X4758277Y-17751889D02*
X4748753Y-17770936D01*
X4748753Y-17770936D02*
X4739229Y-17780460D01*
X4739229Y-17780460D02*
X4720182Y-17789984D01*
X4720182Y-17789984D02*
X4701134Y-17789984D01*
X4701134Y-17789984D02*
X4682087Y-17780460D01*
X4682087Y-17780460D02*
X4672563Y-17770936D01*
X4672563Y-17770936D02*
X4663039Y-17751889D01*
X4663039Y-17751889D02*
X4653515Y-17713793D01*
X4653515Y-17713793D02*
X4653515Y-17666174D01*
X4653515Y-17666174D02*
X4663039Y-17628079D01*
X4663039Y-17628079D02*
X4672563Y-17609031D01*
X4672563Y-17609031D02*
X4682087Y-17599508D01*
X4682087Y-17599508D02*
X4701134Y-17589984D01*
X4853515Y-17770936D02*
X4863039Y-17780460D01*
X4863039Y-17780460D02*
X4853515Y-17789984D01*
X4853515Y-17789984D02*
X4843991Y-17780460D01*
X4843991Y-17780460D02*
X4853515Y-17770936D01*
X4853515Y-17770936D02*
X4853515Y-17789984D01*
X4986848Y-17589984D02*
X5005896Y-17589984D01*
X5005896Y-17589984D02*
X5024944Y-17599508D01*
X5024944Y-17599508D02*
X5034468Y-17609031D01*
X5034468Y-17609031D02*
X5043991Y-17628079D01*
X5043991Y-17628079D02*
X5053515Y-17666174D01*
X5053515Y-17666174D02*
X5053515Y-17713793D01*
X5053515Y-17713793D02*
X5043991Y-17751889D01*
X5043991Y-17751889D02*
X5034468Y-17770936D01*
X5034468Y-17770936D02*
X5024944Y-17780460D01*
X5024944Y-17780460D02*
X5005896Y-17789984D01*
X5005896Y-17789984D02*
X4986848Y-17789984D01*
X4986848Y-17789984D02*
X4967801Y-17780460D01*
X4967801Y-17780460D02*
X4958277Y-17770936D01*
X4958277Y-17770936D02*
X4948753Y-17751889D01*
X4948753Y-17751889D02*
X4939229Y-17713793D01*
X4939229Y-17713793D02*
X4939229Y-17666174D01*
X4939229Y-17666174D02*
X4948753Y-17628079D01*
X4948753Y-17628079D02*
X4958277Y-17609031D01*
X4958277Y-17609031D02*
X4967801Y-17599508D01*
X4967801Y-17599508D02*
X4986848Y-17589984D01*
X5120182Y-17589984D02*
X5243991Y-17589984D01*
X5243991Y-17589984D02*
X5177325Y-17666174D01*
X5177325Y-17666174D02*
X5205896Y-17666174D01*
X5205896Y-17666174D02*
X5224944Y-17675698D01*
X5224944Y-17675698D02*
X5234468Y-17685222D01*
X5234468Y-17685222D02*
X5243991Y-17704270D01*
X5243991Y-17704270D02*
X5243991Y-17751889D01*
X5243991Y-17751889D02*
X5234468Y-17770936D01*
X5234468Y-17770936D02*
X5224944Y-17780460D01*
X5224944Y-17780460D02*
X5205896Y-17789984D01*
X5205896Y-17789984D02*
X5148753Y-17789984D01*
X5148753Y-17789984D02*
X5129706Y-17780460D01*
X5129706Y-17780460D02*
X5120182Y-17770936D01*
X5339229Y-17789984D02*
X5377325Y-17789984D01*
X5377325Y-17789984D02*
X5396372Y-17780460D01*
X5396372Y-17780460D02*
X5405896Y-17770936D01*
X5405896Y-17770936D02*
X5424944Y-17742365D01*
X5424944Y-17742365D02*
X5434468Y-17704270D01*
X5434468Y-17704270D02*
X5434468Y-17628079D01*
X5434468Y-17628079D02*
X5424944Y-17609031D01*
X5424944Y-17609031D02*
X5415420Y-17599508D01*
X5415420Y-17599508D02*
X5396372Y-17589984D01*
X5396372Y-17589984D02*
X5358277Y-17589984D01*
X5358277Y-17589984D02*
X5339229Y-17599508D01*
X5339229Y-17599508D02*
X5329706Y-17609031D01*
X5329706Y-17609031D02*
X5320182Y-17628079D01*
X5320182Y-17628079D02*
X5320182Y-17675698D01*
X5320182Y-17675698D02*
X5329706Y-17694746D01*
X5329706Y-17694746D02*
X5339229Y-17704270D01*
X5339229Y-17704270D02*
X5358277Y-17713793D01*
X5358277Y-17713793D02*
X5396372Y-17713793D01*
X5396372Y-17713793D02*
X5415420Y-17704270D01*
X5415420Y-17704270D02*
X5424944Y-17694746D01*
X5424944Y-17694746D02*
X5434468Y-17675698D01*
X5605896Y-17656650D02*
X5605896Y-17789984D01*
X5558277Y-17580460D02*
X5510658Y-17723317D01*
X5510658Y-17723317D02*
X5634467Y-17723317D01*
X5701134Y-17589984D02*
X5701134Y-17628079D01*
X5777325Y-17589984D02*
X5777325Y-17628079D01*
X6072563Y-17866174D02*
X6063039Y-17856650D01*
X6063039Y-17856650D02*
X6043991Y-17828079D01*
X6043991Y-17828079D02*
X6034468Y-17809031D01*
X6034468Y-17809031D02*
X6024944Y-17780460D01*
X6024944Y-17780460D02*
X6015420Y-17732841D01*
X6015420Y-17732841D02*
X6015420Y-17694746D01*
X6015420Y-17694746D02*
X6024944Y-17647127D01*
X6024944Y-17647127D02*
X6034468Y-17618555D01*
X6034468Y-17618555D02*
X6043991Y-17599508D01*
X6043991Y-17599508D02*
X6063039Y-17570936D01*
X6063039Y-17570936D02*
X6072563Y-17561412D01*
X6253515Y-17789984D02*
X6139229Y-17789984D01*
X6196372Y-17789984D02*
X6196372Y-17589984D01*
X6196372Y-17589984D02*
X6177325Y-17618555D01*
X6177325Y-17618555D02*
X6158277Y-17637603D01*
X6158277Y-17637603D02*
X6139229Y-17647127D01*
X6377325Y-17589984D02*
X6396372Y-17589984D01*
X6396372Y-17589984D02*
X6415420Y-17599508D01*
X6415420Y-17599508D02*
X6424944Y-17609031D01*
X6424944Y-17609031D02*
X6434468Y-17628079D01*
X6434468Y-17628079D02*
X6443991Y-17666174D01*
X6443991Y-17666174D02*
X6443991Y-17713793D01*
X6443991Y-17713793D02*
X6434468Y-17751889D01*
X6434468Y-17751889D02*
X6424944Y-17770936D01*
X6424944Y-17770936D02*
X6415420Y-17780460D01*
X6415420Y-17780460D02*
X6396372Y-17789984D01*
X6396372Y-17789984D02*
X6377325Y-17789984D01*
X6377325Y-17789984D02*
X6358277Y-17780460D01*
X6358277Y-17780460D02*
X6348753Y-17770936D01*
X6348753Y-17770936D02*
X6339229Y-17751889D01*
X6339229Y-17751889D02*
X6329706Y-17713793D01*
X6329706Y-17713793D02*
X6329706Y-17666174D01*
X6329706Y-17666174D02*
X6339229Y-17628079D01*
X6339229Y-17628079D02*
X6348753Y-17609031D01*
X6348753Y-17609031D02*
X6358277Y-17599508D01*
X6358277Y-17599508D02*
X6377325Y-17589984D01*
X6682087Y-17789984D02*
X6682087Y-17589984D01*
X6767801Y-17789984D02*
X6767801Y-17685222D01*
X6767801Y-17685222D02*
X6758277Y-17666174D01*
X6758277Y-17666174D02*
X6739230Y-17656650D01*
X6739230Y-17656650D02*
X6710658Y-17656650D01*
X6710658Y-17656650D02*
X6691610Y-17666174D01*
X6691610Y-17666174D02*
X6682087Y-17675698D01*
X6891610Y-17789984D02*
X6872563Y-17780460D01*
X6872563Y-17780460D02*
X6863039Y-17770936D01*
X6863039Y-17770936D02*
X6853515Y-17751889D01*
X6853515Y-17751889D02*
X6853515Y-17694746D01*
X6853515Y-17694746D02*
X6863039Y-17675698D01*
X6863039Y-17675698D02*
X6872563Y-17666174D01*
X6872563Y-17666174D02*
X6891610Y-17656650D01*
X6891610Y-17656650D02*
X6920182Y-17656650D01*
X6920182Y-17656650D02*
X6939230Y-17666174D01*
X6939230Y-17666174D02*
X6948753Y-17675698D01*
X6948753Y-17675698D02*
X6958277Y-17694746D01*
X6958277Y-17694746D02*
X6958277Y-17751889D01*
X6958277Y-17751889D02*
X6948753Y-17770936D01*
X6948753Y-17770936D02*
X6939230Y-17780460D01*
X6939230Y-17780460D02*
X6920182Y-17789984D01*
X6920182Y-17789984D02*
X6891610Y-17789984D01*
X7072563Y-17789984D02*
X7053515Y-17780460D01*
X7053515Y-17780460D02*
X7043991Y-17761412D01*
X7043991Y-17761412D02*
X7043991Y-17589984D01*
X7224944Y-17780460D02*
X7205896Y-17789984D01*
X7205896Y-17789984D02*
X7167801Y-17789984D01*
X7167801Y-17789984D02*
X7148753Y-17780460D01*
X7148753Y-17780460D02*
X7139230Y-17761412D01*
X7139230Y-17761412D02*
X7139230Y-17685222D01*
X7139230Y-17685222D02*
X7148753Y-17666174D01*
X7148753Y-17666174D02*
X7167801Y-17656650D01*
X7167801Y-17656650D02*
X7205896Y-17656650D01*
X7205896Y-17656650D02*
X7224944Y-17666174D01*
X7224944Y-17666174D02*
X7234468Y-17685222D01*
X7234468Y-17685222D02*
X7234468Y-17704270D01*
X7234468Y-17704270D02*
X7139230Y-17723317D01*
X7310658Y-17780460D02*
X7329706Y-17789984D01*
X7329706Y-17789984D02*
X7367801Y-17789984D01*
X7367801Y-17789984D02*
X7386849Y-17780460D01*
X7386849Y-17780460D02*
X7396372Y-17761412D01*
X7396372Y-17761412D02*
X7396372Y-17751889D01*
X7396372Y-17751889D02*
X7386849Y-17732841D01*
X7386849Y-17732841D02*
X7367801Y-17723317D01*
X7367801Y-17723317D02*
X7339230Y-17723317D01*
X7339230Y-17723317D02*
X7320182Y-17713793D01*
X7320182Y-17713793D02*
X7310658Y-17694746D01*
X7310658Y-17694746D02*
X7310658Y-17685222D01*
X7310658Y-17685222D02*
X7320182Y-17666174D01*
X7320182Y-17666174D02*
X7339230Y-17656650D01*
X7339230Y-17656650D02*
X7367801Y-17656650D01*
X7367801Y-17656650D02*
X7386849Y-17666174D01*
X7463039Y-17866174D02*
X7472563Y-17856650D01*
X7472563Y-17856650D02*
X7491611Y-17828079D01*
X7491611Y-17828079D02*
X7501134Y-17809031D01*
X7501134Y-17809031D02*
X7510658Y-17780460D01*
X7510658Y-17780460D02*
X7520182Y-17732841D01*
X7520182Y-17732841D02*
X7520182Y-17694746D01*
X7520182Y-17694746D02*
X7510658Y-17647127D01*
X7510658Y-17647127D02*
X7501134Y-17618555D01*
X7501134Y-17618555D02*
X7491611Y-17599508D01*
X7491611Y-17599508D02*
X7472563Y-17570936D01*
X7472563Y-17570936D02*
X7463039Y-17561412D01*
D14*
X2395900Y-17911700D02*
X2497500Y-18013300D01*
X2497500Y-17911700D02*
X2395900Y-18013300D01*
X2497500Y-17962500D02*
G75*
G02*
X2395900Y-17962500I-50800J0D01*
G01*
X2395900Y-17962500D02*
G75*
G02*
X2497500Y-17962500I50800J0D01*
G01*
D11*
X2863039Y-18053984D02*
X2748753Y-18053984D01*
X2805896Y-18053984D02*
X2805896Y-17853984D01*
X2805896Y-17853984D02*
X2786848Y-17882555D01*
X2786848Y-17882555D02*
X2767801Y-17901603D01*
X2767801Y-17901603D02*
X2748753Y-17911127D01*
X2948753Y-18034936D02*
X2958277Y-18044460D01*
X2958277Y-18044460D02*
X2948753Y-18053984D01*
X2948753Y-18053984D02*
X2939229Y-18044460D01*
X2939229Y-18044460D02*
X2948753Y-18034936D01*
X2948753Y-18034936D02*
X2948753Y-18053984D01*
X3082086Y-17853984D02*
X3101134Y-17853984D01*
X3101134Y-17853984D02*
X3120182Y-17863508D01*
X3120182Y-17863508D02*
X3129705Y-17873031D01*
X3129705Y-17873031D02*
X3139229Y-17892079D01*
X3139229Y-17892079D02*
X3148753Y-17930174D01*
X3148753Y-17930174D02*
X3148753Y-17977793D01*
X3148753Y-17977793D02*
X3139229Y-18015889D01*
X3139229Y-18015889D02*
X3129705Y-18034936D01*
X3129705Y-18034936D02*
X3120182Y-18044460D01*
X3120182Y-18044460D02*
X3101134Y-18053984D01*
X3101134Y-18053984D02*
X3082086Y-18053984D01*
X3082086Y-18053984D02*
X3063039Y-18044460D01*
X3063039Y-18044460D02*
X3053515Y-18034936D01*
X3053515Y-18034936D02*
X3043991Y-18015889D01*
X3043991Y-18015889D02*
X3034467Y-17977793D01*
X3034467Y-17977793D02*
X3034467Y-17930174D01*
X3034467Y-17930174D02*
X3043991Y-17892079D01*
X3043991Y-17892079D02*
X3053515Y-17873031D01*
X3053515Y-17873031D02*
X3063039Y-17863508D01*
X3063039Y-17863508D02*
X3082086Y-17853984D01*
X3339229Y-18053984D02*
X3224943Y-18053984D01*
X3282086Y-18053984D02*
X3282086Y-17853984D01*
X3282086Y-17853984D02*
X3263039Y-17882555D01*
X3263039Y-17882555D02*
X3243991Y-17901603D01*
X3243991Y-17901603D02*
X3224943Y-17911127D01*
X3510658Y-17853984D02*
X3472562Y-17853984D01*
X3472562Y-17853984D02*
X3453515Y-17863508D01*
X3453515Y-17863508D02*
X3443991Y-17873031D01*
X3443991Y-17873031D02*
X3424943Y-17901603D01*
X3424943Y-17901603D02*
X3415420Y-17939698D01*
X3415420Y-17939698D02*
X3415420Y-18015889D01*
X3415420Y-18015889D02*
X3424943Y-18034936D01*
X3424943Y-18034936D02*
X3434467Y-18044460D01*
X3434467Y-18044460D02*
X3453515Y-18053984D01*
X3453515Y-18053984D02*
X3491610Y-18053984D01*
X3491610Y-18053984D02*
X3510658Y-18044460D01*
X3510658Y-18044460D02*
X3520182Y-18034936D01*
X3520182Y-18034936D02*
X3529705Y-18015889D01*
X3529705Y-18015889D02*
X3529705Y-17968270D01*
X3529705Y-17968270D02*
X3520182Y-17949222D01*
X3520182Y-17949222D02*
X3510658Y-17939698D01*
X3510658Y-17939698D02*
X3491610Y-17930174D01*
X3491610Y-17930174D02*
X3453515Y-17930174D01*
X3453515Y-17930174D02*
X3434467Y-17939698D01*
X3434467Y-17939698D02*
X3424943Y-17949222D01*
X3424943Y-17949222D02*
X3415420Y-17968270D01*
X3615420Y-18053984D02*
X3615420Y-17920650D01*
X3615420Y-17939698D02*
X3624943Y-17930174D01*
X3624943Y-17930174D02*
X3643991Y-17920650D01*
X3643991Y-17920650D02*
X3672563Y-17920650D01*
X3672563Y-17920650D02*
X3691610Y-17930174D01*
X3691610Y-17930174D02*
X3701134Y-17949222D01*
X3701134Y-17949222D02*
X3701134Y-18053984D01*
X3701134Y-17949222D02*
X3710658Y-17930174D01*
X3710658Y-17930174D02*
X3729705Y-17920650D01*
X3729705Y-17920650D02*
X3758277Y-17920650D01*
X3758277Y-17920650D02*
X3777324Y-17930174D01*
X3777324Y-17930174D02*
X3786848Y-17949222D01*
X3786848Y-17949222D02*
X3786848Y-18053984D01*
X3882086Y-18053984D02*
X3882086Y-17920650D01*
X3882086Y-17939698D02*
X3891610Y-17930174D01*
X3891610Y-17930174D02*
X3910658Y-17920650D01*
X3910658Y-17920650D02*
X3939229Y-17920650D01*
X3939229Y-17920650D02*
X3958277Y-17930174D01*
X3958277Y-17930174D02*
X3967801Y-17949222D01*
X3967801Y-17949222D02*
X3967801Y-18053984D01*
X3967801Y-17949222D02*
X3977324Y-17930174D01*
X3977324Y-17930174D02*
X3996372Y-17920650D01*
X3996372Y-17920650D02*
X4024943Y-17920650D01*
X4024943Y-17920650D02*
X4043991Y-17930174D01*
X4043991Y-17930174D02*
X4053515Y-17949222D01*
X4053515Y-17949222D02*
X4053515Y-18053984D01*
X4443991Y-17844460D02*
X4272563Y-18101603D01*
X4701134Y-17853984D02*
X4720182Y-17853984D01*
X4720182Y-17853984D02*
X4739229Y-17863508D01*
X4739229Y-17863508D02*
X4748753Y-17873031D01*
X4748753Y-17873031D02*
X4758277Y-17892079D01*
X4758277Y-17892079D02*
X4767801Y-17930174D01*
X4767801Y-17930174D02*
X4767801Y-17977793D01*
X4767801Y-17977793D02*
X4758277Y-18015889D01*
X4758277Y-18015889D02*
X4748753Y-18034936D01*
X4748753Y-18034936D02*
X4739229Y-18044460D01*
X4739229Y-18044460D02*
X4720182Y-18053984D01*
X4720182Y-18053984D02*
X4701134Y-18053984D01*
X4701134Y-18053984D02*
X4682087Y-18044460D01*
X4682087Y-18044460D02*
X4672563Y-18034936D01*
X4672563Y-18034936D02*
X4663039Y-18015889D01*
X4663039Y-18015889D02*
X4653515Y-17977793D01*
X4653515Y-17977793D02*
X4653515Y-17930174D01*
X4653515Y-17930174D02*
X4663039Y-17892079D01*
X4663039Y-17892079D02*
X4672563Y-17873031D01*
X4672563Y-17873031D02*
X4682087Y-17863508D01*
X4682087Y-17863508D02*
X4701134Y-17853984D01*
X4853515Y-18034936D02*
X4863039Y-18044460D01*
X4863039Y-18044460D02*
X4853515Y-18053984D01*
X4853515Y-18053984D02*
X4843991Y-18044460D01*
X4843991Y-18044460D02*
X4853515Y-18034936D01*
X4853515Y-18034936D02*
X4853515Y-18053984D01*
X4986848Y-17853984D02*
X5005896Y-17853984D01*
X5005896Y-17853984D02*
X5024944Y-17863508D01*
X5024944Y-17863508D02*
X5034468Y-17873031D01*
X5034468Y-17873031D02*
X5043991Y-17892079D01*
X5043991Y-17892079D02*
X5053515Y-17930174D01*
X5053515Y-17930174D02*
X5053515Y-17977793D01*
X5053515Y-17977793D02*
X5043991Y-18015889D01*
X5043991Y-18015889D02*
X5034468Y-18034936D01*
X5034468Y-18034936D02*
X5024944Y-18044460D01*
X5024944Y-18044460D02*
X5005896Y-18053984D01*
X5005896Y-18053984D02*
X4986848Y-18053984D01*
X4986848Y-18053984D02*
X4967801Y-18044460D01*
X4967801Y-18044460D02*
X4958277Y-18034936D01*
X4958277Y-18034936D02*
X4948753Y-18015889D01*
X4948753Y-18015889D02*
X4939229Y-17977793D01*
X4939229Y-17977793D02*
X4939229Y-17930174D01*
X4939229Y-17930174D02*
X4948753Y-17892079D01*
X4948753Y-17892079D02*
X4958277Y-17873031D01*
X4958277Y-17873031D02*
X4967801Y-17863508D01*
X4967801Y-17863508D02*
X4986848Y-17853984D01*
X5224944Y-17920650D02*
X5224944Y-18053984D01*
X5177325Y-17844460D02*
X5129706Y-17987317D01*
X5129706Y-17987317D02*
X5253515Y-17987317D01*
X5367801Y-17853984D02*
X5386849Y-17853984D01*
X5386849Y-17853984D02*
X5405896Y-17863508D01*
X5405896Y-17863508D02*
X5415420Y-17873031D01*
X5415420Y-17873031D02*
X5424944Y-17892079D01*
X5424944Y-17892079D02*
X5434468Y-17930174D01*
X5434468Y-17930174D02*
X5434468Y-17977793D01*
X5434468Y-17977793D02*
X5424944Y-18015889D01*
X5424944Y-18015889D02*
X5415420Y-18034936D01*
X5415420Y-18034936D02*
X5405896Y-18044460D01*
X5405896Y-18044460D02*
X5386849Y-18053984D01*
X5386849Y-18053984D02*
X5367801Y-18053984D01*
X5367801Y-18053984D02*
X5348753Y-18044460D01*
X5348753Y-18044460D02*
X5339229Y-18034936D01*
X5339229Y-18034936D02*
X5329706Y-18015889D01*
X5329706Y-18015889D02*
X5320182Y-17977793D01*
X5320182Y-17977793D02*
X5320182Y-17930174D01*
X5320182Y-17930174D02*
X5329706Y-17892079D01*
X5329706Y-17892079D02*
X5339229Y-17873031D01*
X5339229Y-17873031D02*
X5348753Y-17863508D01*
X5348753Y-17863508D02*
X5367801Y-17853984D01*
X5558277Y-17853984D02*
X5577325Y-17853984D01*
X5577325Y-17853984D02*
X5596372Y-17863508D01*
X5596372Y-17863508D02*
X5605896Y-17873031D01*
X5605896Y-17873031D02*
X5615420Y-17892079D01*
X5615420Y-17892079D02*
X5624944Y-17930174D01*
X5624944Y-17930174D02*
X5624944Y-17977793D01*
X5624944Y-17977793D02*
X5615420Y-18015889D01*
X5615420Y-18015889D02*
X5605896Y-18034936D01*
X5605896Y-18034936D02*
X5596372Y-18044460D01*
X5596372Y-18044460D02*
X5577325Y-18053984D01*
X5577325Y-18053984D02*
X5558277Y-18053984D01*
X5558277Y-18053984D02*
X5539229Y-18044460D01*
X5539229Y-18044460D02*
X5529706Y-18034936D01*
X5529706Y-18034936D02*
X5520182Y-18015889D01*
X5520182Y-18015889D02*
X5510658Y-17977793D01*
X5510658Y-17977793D02*
X5510658Y-17930174D01*
X5510658Y-17930174D02*
X5520182Y-17892079D01*
X5520182Y-17892079D02*
X5529706Y-17873031D01*
X5529706Y-17873031D02*
X5539229Y-17863508D01*
X5539229Y-17863508D02*
X5558277Y-17853984D01*
X5701134Y-17853984D02*
X5701134Y-17892079D01*
X5777325Y-17853984D02*
X5777325Y-17892079D01*
X6072563Y-18130174D02*
X6063039Y-18120650D01*
X6063039Y-18120650D02*
X6043991Y-18092079D01*
X6043991Y-18092079D02*
X6034468Y-18073031D01*
X6034468Y-18073031D02*
X6024944Y-18044460D01*
X6024944Y-18044460D02*
X6015420Y-17996841D01*
X6015420Y-17996841D02*
X6015420Y-17958746D01*
X6015420Y-17958746D02*
X6024944Y-17911127D01*
X6024944Y-17911127D02*
X6034468Y-17882555D01*
X6034468Y-17882555D02*
X6043991Y-17863508D01*
X6043991Y-17863508D02*
X6063039Y-17834936D01*
X6063039Y-17834936D02*
X6072563Y-17825412D01*
X6234468Y-17853984D02*
X6196372Y-17853984D01*
X6196372Y-17853984D02*
X6177325Y-17863508D01*
X6177325Y-17863508D02*
X6167801Y-17873031D01*
X6167801Y-17873031D02*
X6148753Y-17901603D01*
X6148753Y-17901603D02*
X6139229Y-17939698D01*
X6139229Y-17939698D02*
X6139229Y-18015889D01*
X6139229Y-18015889D02*
X6148753Y-18034936D01*
X6148753Y-18034936D02*
X6158277Y-18044460D01*
X6158277Y-18044460D02*
X6177325Y-18053984D01*
X6177325Y-18053984D02*
X6215420Y-18053984D01*
X6215420Y-18053984D02*
X6234468Y-18044460D01*
X6234468Y-18044460D02*
X6243991Y-18034936D01*
X6243991Y-18034936D02*
X6253515Y-18015889D01*
X6253515Y-18015889D02*
X6253515Y-17968270D01*
X6253515Y-17968270D02*
X6243991Y-17949222D01*
X6243991Y-17949222D02*
X6234468Y-17939698D01*
X6234468Y-17939698D02*
X6215420Y-17930174D01*
X6215420Y-17930174D02*
X6177325Y-17930174D01*
X6177325Y-17930174D02*
X6158277Y-17939698D01*
X6158277Y-17939698D02*
X6148753Y-17949222D01*
X6148753Y-17949222D02*
X6139229Y-17968270D01*
X6491610Y-18053984D02*
X6491610Y-17853984D01*
X6577325Y-18053984D02*
X6577325Y-17949222D01*
X6577325Y-17949222D02*
X6567801Y-17930174D01*
X6567801Y-17930174D02*
X6548753Y-17920650D01*
X6548753Y-17920650D02*
X6520182Y-17920650D01*
X6520182Y-17920650D02*
X6501134Y-17930174D01*
X6501134Y-17930174D02*
X6491610Y-17939698D01*
X6701134Y-18053984D02*
X6682087Y-18044460D01*
X6682087Y-18044460D02*
X6672563Y-18034936D01*
X6672563Y-18034936D02*
X6663039Y-18015889D01*
X6663039Y-18015889D02*
X6663039Y-17958746D01*
X6663039Y-17958746D02*
X6672563Y-17939698D01*
X6672563Y-17939698D02*
X6682087Y-17930174D01*
X6682087Y-17930174D02*
X6701134Y-17920650D01*
X6701134Y-17920650D02*
X6729706Y-17920650D01*
X6729706Y-17920650D02*
X6748753Y-17930174D01*
X6748753Y-17930174D02*
X6758277Y-17939698D01*
X6758277Y-17939698D02*
X6767801Y-17958746D01*
X6767801Y-17958746D02*
X6767801Y-18015889D01*
X6767801Y-18015889D02*
X6758277Y-18034936D01*
X6758277Y-18034936D02*
X6748753Y-18044460D01*
X6748753Y-18044460D02*
X6729706Y-18053984D01*
X6729706Y-18053984D02*
X6701134Y-18053984D01*
X6882087Y-18053984D02*
X6863039Y-18044460D01*
X6863039Y-18044460D02*
X6853515Y-18025412D01*
X6853515Y-18025412D02*
X6853515Y-17853984D01*
X7034468Y-18044460D02*
X7015420Y-18053984D01*
X7015420Y-18053984D02*
X6977325Y-18053984D01*
X6977325Y-18053984D02*
X6958277Y-18044460D01*
X6958277Y-18044460D02*
X6948753Y-18025412D01*
X6948753Y-18025412D02*
X6948753Y-17949222D01*
X6948753Y-17949222D02*
X6958277Y-17930174D01*
X6958277Y-17930174D02*
X6977325Y-17920650D01*
X6977325Y-17920650D02*
X7015420Y-17920650D01*
X7015420Y-17920650D02*
X7034468Y-17930174D01*
X7034468Y-17930174D02*
X7043991Y-17949222D01*
X7043991Y-17949222D02*
X7043991Y-17968270D01*
X7043991Y-17968270D02*
X6948753Y-17987317D01*
X7120182Y-18044460D02*
X7139230Y-18053984D01*
X7139230Y-18053984D02*
X7177325Y-18053984D01*
X7177325Y-18053984D02*
X7196372Y-18044460D01*
X7196372Y-18044460D02*
X7205896Y-18025412D01*
X7205896Y-18025412D02*
X7205896Y-18015889D01*
X7205896Y-18015889D02*
X7196372Y-17996841D01*
X7196372Y-17996841D02*
X7177325Y-17987317D01*
X7177325Y-17987317D02*
X7148753Y-17987317D01*
X7148753Y-17987317D02*
X7129706Y-17977793D01*
X7129706Y-17977793D02*
X7120182Y-17958746D01*
X7120182Y-17958746D02*
X7120182Y-17949222D01*
X7120182Y-17949222D02*
X7129706Y-17930174D01*
X7129706Y-17930174D02*
X7148753Y-17920650D01*
X7148753Y-17920650D02*
X7177325Y-17920650D01*
X7177325Y-17920650D02*
X7196372Y-17930174D01*
X7272563Y-18130174D02*
X7282087Y-18120650D01*
X7282087Y-18120650D02*
X7301134Y-18092079D01*
X7301134Y-18092079D02*
X7310658Y-18073031D01*
X7310658Y-18073031D02*
X7320182Y-18044460D01*
X7320182Y-18044460D02*
X7329706Y-17996841D01*
X7329706Y-17996841D02*
X7329706Y-17958746D01*
X7329706Y-17958746D02*
X7320182Y-17911127D01*
X7320182Y-17911127D02*
X7310658Y-17882555D01*
X7310658Y-17882555D02*
X7301134Y-17863508D01*
X7301134Y-17863508D02*
X7282087Y-17834936D01*
X7282087Y-17834936D02*
X7272563Y-17825412D01*
D15*
X2387260Y-18171380D02*
X2497500Y-18281620D01*
X2497500Y-18171380D02*
X2387260Y-18281620D01*
X2442380Y-18171380D02*
X2442380Y-18281620D01*
X2387260Y-18226500D02*
X2497500Y-18226500D01*
D11*
X2863039Y-18317984D02*
X2748753Y-18317984D01*
X2805896Y-18317984D02*
X2805896Y-18117984D01*
X2805896Y-18117984D02*
X2786848Y-18146555D01*
X2786848Y-18146555D02*
X2767801Y-18165603D01*
X2767801Y-18165603D02*
X2748753Y-18175127D01*
X2948753Y-18298936D02*
X2958277Y-18308460D01*
X2958277Y-18308460D02*
X2948753Y-18317984D01*
X2948753Y-18317984D02*
X2939229Y-18308460D01*
X2939229Y-18308460D02*
X2948753Y-18298936D01*
X2948753Y-18298936D02*
X2948753Y-18317984D01*
X3148753Y-18317984D02*
X3034467Y-18317984D01*
X3091610Y-18317984D02*
X3091610Y-18117984D01*
X3091610Y-18117984D02*
X3072562Y-18146555D01*
X3072562Y-18146555D02*
X3053515Y-18165603D01*
X3053515Y-18165603D02*
X3034467Y-18175127D01*
X3272562Y-18117984D02*
X3291610Y-18117984D01*
X3291610Y-18117984D02*
X3310658Y-18127508D01*
X3310658Y-18127508D02*
X3320182Y-18137031D01*
X3320182Y-18137031D02*
X3329705Y-18156079D01*
X3329705Y-18156079D02*
X3339229Y-18194174D01*
X3339229Y-18194174D02*
X3339229Y-18241793D01*
X3339229Y-18241793D02*
X3329705Y-18279889D01*
X3329705Y-18279889D02*
X3320182Y-18298936D01*
X3320182Y-18298936D02*
X3310658Y-18308460D01*
X3310658Y-18308460D02*
X3291610Y-18317984D01*
X3291610Y-18317984D02*
X3272562Y-18317984D01*
X3272562Y-18317984D02*
X3253515Y-18308460D01*
X3253515Y-18308460D02*
X3243991Y-18298936D01*
X3243991Y-18298936D02*
X3234467Y-18279889D01*
X3234467Y-18279889D02*
X3224943Y-18241793D01*
X3224943Y-18241793D02*
X3224943Y-18194174D01*
X3224943Y-18194174D02*
X3234467Y-18156079D01*
X3234467Y-18156079D02*
X3243991Y-18137031D01*
X3243991Y-18137031D02*
X3253515Y-18127508D01*
X3253515Y-18127508D02*
X3272562Y-18117984D01*
X3415420Y-18137031D02*
X3424943Y-18127508D01*
X3424943Y-18127508D02*
X3443991Y-18117984D01*
X3443991Y-18117984D02*
X3491610Y-18117984D01*
X3491610Y-18117984D02*
X3510658Y-18127508D01*
X3510658Y-18127508D02*
X3520182Y-18137031D01*
X3520182Y-18137031D02*
X3529705Y-18156079D01*
X3529705Y-18156079D02*
X3529705Y-18175127D01*
X3529705Y-18175127D02*
X3520182Y-18203698D01*
X3520182Y-18203698D02*
X3405896Y-18317984D01*
X3405896Y-18317984D02*
X3529705Y-18317984D01*
X3615420Y-18317984D02*
X3615420Y-18184650D01*
X3615420Y-18203698D02*
X3624943Y-18194174D01*
X3624943Y-18194174D02*
X3643991Y-18184650D01*
X3643991Y-18184650D02*
X3672563Y-18184650D01*
X3672563Y-18184650D02*
X3691610Y-18194174D01*
X3691610Y-18194174D02*
X3701134Y-18213222D01*
X3701134Y-18213222D02*
X3701134Y-18317984D01*
X3701134Y-18213222D02*
X3710658Y-18194174D01*
X3710658Y-18194174D02*
X3729705Y-18184650D01*
X3729705Y-18184650D02*
X3758277Y-18184650D01*
X3758277Y-18184650D02*
X3777324Y-18194174D01*
X3777324Y-18194174D02*
X3786848Y-18213222D01*
X3786848Y-18213222D02*
X3786848Y-18317984D01*
X3882086Y-18317984D02*
X3882086Y-18184650D01*
X3882086Y-18203698D02*
X3891610Y-18194174D01*
X3891610Y-18194174D02*
X3910658Y-18184650D01*
X3910658Y-18184650D02*
X3939229Y-18184650D01*
X3939229Y-18184650D02*
X3958277Y-18194174D01*
X3958277Y-18194174D02*
X3967801Y-18213222D01*
X3967801Y-18213222D02*
X3967801Y-18317984D01*
X3967801Y-18213222D02*
X3977324Y-18194174D01*
X3977324Y-18194174D02*
X3996372Y-18184650D01*
X3996372Y-18184650D02*
X4024943Y-18184650D01*
X4024943Y-18184650D02*
X4043991Y-18194174D01*
X4043991Y-18194174D02*
X4053515Y-18213222D01*
X4053515Y-18213222D02*
X4053515Y-18317984D01*
X4443991Y-18108460D02*
X4272563Y-18365603D01*
X4701134Y-18117984D02*
X4720182Y-18117984D01*
X4720182Y-18117984D02*
X4739229Y-18127508D01*
X4739229Y-18127508D02*
X4748753Y-18137031D01*
X4748753Y-18137031D02*
X4758277Y-18156079D01*
X4758277Y-18156079D02*
X4767801Y-18194174D01*
X4767801Y-18194174D02*
X4767801Y-18241793D01*
X4767801Y-18241793D02*
X4758277Y-18279889D01*
X4758277Y-18279889D02*
X4748753Y-18298936D01*
X4748753Y-18298936D02*
X4739229Y-18308460D01*
X4739229Y-18308460D02*
X4720182Y-18317984D01*
X4720182Y-18317984D02*
X4701134Y-18317984D01*
X4701134Y-18317984D02*
X4682087Y-18308460D01*
X4682087Y-18308460D02*
X4672563Y-18298936D01*
X4672563Y-18298936D02*
X4663039Y-18279889D01*
X4663039Y-18279889D02*
X4653515Y-18241793D01*
X4653515Y-18241793D02*
X4653515Y-18194174D01*
X4653515Y-18194174D02*
X4663039Y-18156079D01*
X4663039Y-18156079D02*
X4672563Y-18137031D01*
X4672563Y-18137031D02*
X4682087Y-18127508D01*
X4682087Y-18127508D02*
X4701134Y-18117984D01*
X4853515Y-18298936D02*
X4863039Y-18308460D01*
X4863039Y-18308460D02*
X4853515Y-18317984D01*
X4853515Y-18317984D02*
X4843991Y-18308460D01*
X4843991Y-18308460D02*
X4853515Y-18298936D01*
X4853515Y-18298936D02*
X4853515Y-18317984D01*
X4986848Y-18117984D02*
X5005896Y-18117984D01*
X5005896Y-18117984D02*
X5024944Y-18127508D01*
X5024944Y-18127508D02*
X5034468Y-18137031D01*
X5034468Y-18137031D02*
X5043991Y-18156079D01*
X5043991Y-18156079D02*
X5053515Y-18194174D01*
X5053515Y-18194174D02*
X5053515Y-18241793D01*
X5053515Y-18241793D02*
X5043991Y-18279889D01*
X5043991Y-18279889D02*
X5034468Y-18298936D01*
X5034468Y-18298936D02*
X5024944Y-18308460D01*
X5024944Y-18308460D02*
X5005896Y-18317984D01*
X5005896Y-18317984D02*
X4986848Y-18317984D01*
X4986848Y-18317984D02*
X4967801Y-18308460D01*
X4967801Y-18308460D02*
X4958277Y-18298936D01*
X4958277Y-18298936D02*
X4948753Y-18279889D01*
X4948753Y-18279889D02*
X4939229Y-18241793D01*
X4939229Y-18241793D02*
X4939229Y-18194174D01*
X4939229Y-18194174D02*
X4948753Y-18156079D01*
X4948753Y-18156079D02*
X4958277Y-18137031D01*
X4958277Y-18137031D02*
X4967801Y-18127508D01*
X4967801Y-18127508D02*
X4986848Y-18117984D01*
X5224944Y-18184650D02*
X5224944Y-18317984D01*
X5177325Y-18108460D02*
X5129706Y-18251317D01*
X5129706Y-18251317D02*
X5253515Y-18251317D01*
X5310658Y-18117984D02*
X5434468Y-18117984D01*
X5434468Y-18117984D02*
X5367801Y-18194174D01*
X5367801Y-18194174D02*
X5396372Y-18194174D01*
X5396372Y-18194174D02*
X5415420Y-18203698D01*
X5415420Y-18203698D02*
X5424944Y-18213222D01*
X5424944Y-18213222D02*
X5434468Y-18232270D01*
X5434468Y-18232270D02*
X5434468Y-18279889D01*
X5434468Y-18279889D02*
X5424944Y-18298936D01*
X5424944Y-18298936D02*
X5415420Y-18308460D01*
X5415420Y-18308460D02*
X5396372Y-18317984D01*
X5396372Y-18317984D02*
X5339229Y-18317984D01*
X5339229Y-18317984D02*
X5320182Y-18308460D01*
X5320182Y-18308460D02*
X5310658Y-18298936D01*
X5605896Y-18184650D02*
X5605896Y-18317984D01*
X5558277Y-18108460D02*
X5510658Y-18251317D01*
X5510658Y-18251317D02*
X5634467Y-18251317D01*
X5701134Y-18117984D02*
X5701134Y-18156079D01*
X5777325Y-18117984D02*
X5777325Y-18156079D01*
X6072563Y-18394174D02*
X6063039Y-18384650D01*
X6063039Y-18384650D02*
X6043991Y-18356079D01*
X6043991Y-18356079D02*
X6034468Y-18337031D01*
X6034468Y-18337031D02*
X6024944Y-18308460D01*
X6024944Y-18308460D02*
X6015420Y-18260841D01*
X6015420Y-18260841D02*
X6015420Y-18222746D01*
X6015420Y-18222746D02*
X6024944Y-18175127D01*
X6024944Y-18175127D02*
X6034468Y-18146555D01*
X6034468Y-18146555D02*
X6043991Y-18127508D01*
X6043991Y-18127508D02*
X6063039Y-18098936D01*
X6063039Y-18098936D02*
X6072563Y-18089412D01*
X6129706Y-18117984D02*
X6253515Y-18117984D01*
X6253515Y-18117984D02*
X6186848Y-18194174D01*
X6186848Y-18194174D02*
X6215420Y-18194174D01*
X6215420Y-18194174D02*
X6234468Y-18203698D01*
X6234468Y-18203698D02*
X6243991Y-18213222D01*
X6243991Y-18213222D02*
X6253515Y-18232270D01*
X6253515Y-18232270D02*
X6253515Y-18279889D01*
X6253515Y-18279889D02*
X6243991Y-18298936D01*
X6243991Y-18298936D02*
X6234468Y-18308460D01*
X6234468Y-18308460D02*
X6215420Y-18317984D01*
X6215420Y-18317984D02*
X6158277Y-18317984D01*
X6158277Y-18317984D02*
X6139229Y-18308460D01*
X6139229Y-18308460D02*
X6129706Y-18298936D01*
X6491610Y-18317984D02*
X6491610Y-18117984D01*
X6577325Y-18317984D02*
X6577325Y-18213222D01*
X6577325Y-18213222D02*
X6567801Y-18194174D01*
X6567801Y-18194174D02*
X6548753Y-18184650D01*
X6548753Y-18184650D02*
X6520182Y-18184650D01*
X6520182Y-18184650D02*
X6501134Y-18194174D01*
X6501134Y-18194174D02*
X6491610Y-18203698D01*
X6701134Y-18317984D02*
X6682087Y-18308460D01*
X6682087Y-18308460D02*
X6672563Y-18298936D01*
X6672563Y-18298936D02*
X6663039Y-18279889D01*
X6663039Y-18279889D02*
X6663039Y-18222746D01*
X6663039Y-18222746D02*
X6672563Y-18203698D01*
X6672563Y-18203698D02*
X6682087Y-18194174D01*
X6682087Y-18194174D02*
X6701134Y-18184650D01*
X6701134Y-18184650D02*
X6729706Y-18184650D01*
X6729706Y-18184650D02*
X6748753Y-18194174D01*
X6748753Y-18194174D02*
X6758277Y-18203698D01*
X6758277Y-18203698D02*
X6767801Y-18222746D01*
X6767801Y-18222746D02*
X6767801Y-18279889D01*
X6767801Y-18279889D02*
X6758277Y-18298936D01*
X6758277Y-18298936D02*
X6748753Y-18308460D01*
X6748753Y-18308460D02*
X6729706Y-18317984D01*
X6729706Y-18317984D02*
X6701134Y-18317984D01*
X6882087Y-18317984D02*
X6863039Y-18308460D01*
X6863039Y-18308460D02*
X6853515Y-18289412D01*
X6853515Y-18289412D02*
X6853515Y-18117984D01*
X7034468Y-18308460D02*
X7015420Y-18317984D01*
X7015420Y-18317984D02*
X6977325Y-18317984D01*
X6977325Y-18317984D02*
X6958277Y-18308460D01*
X6958277Y-18308460D02*
X6948753Y-18289412D01*
X6948753Y-18289412D02*
X6948753Y-18213222D01*
X6948753Y-18213222D02*
X6958277Y-18194174D01*
X6958277Y-18194174D02*
X6977325Y-18184650D01*
X6977325Y-18184650D02*
X7015420Y-18184650D01*
X7015420Y-18184650D02*
X7034468Y-18194174D01*
X7034468Y-18194174D02*
X7043991Y-18213222D01*
X7043991Y-18213222D02*
X7043991Y-18232270D01*
X7043991Y-18232270D02*
X6948753Y-18251317D01*
X7120182Y-18308460D02*
X7139230Y-18317984D01*
X7139230Y-18317984D02*
X7177325Y-18317984D01*
X7177325Y-18317984D02*
X7196372Y-18308460D01*
X7196372Y-18308460D02*
X7205896Y-18289412D01*
X7205896Y-18289412D02*
X7205896Y-18279889D01*
X7205896Y-18279889D02*
X7196372Y-18260841D01*
X7196372Y-18260841D02*
X7177325Y-18251317D01*
X7177325Y-18251317D02*
X7148753Y-18251317D01*
X7148753Y-18251317D02*
X7129706Y-18241793D01*
X7129706Y-18241793D02*
X7120182Y-18222746D01*
X7120182Y-18222746D02*
X7120182Y-18213222D01*
X7120182Y-18213222D02*
X7129706Y-18194174D01*
X7129706Y-18194174D02*
X7148753Y-18184650D01*
X7148753Y-18184650D02*
X7177325Y-18184650D01*
X7177325Y-18184650D02*
X7196372Y-18194174D01*
X7272563Y-18394174D02*
X7282087Y-18384650D01*
X7282087Y-18384650D02*
X7301134Y-18356079D01*
X7301134Y-18356079D02*
X7310658Y-18337031D01*
X7310658Y-18337031D02*
X7320182Y-18308460D01*
X7320182Y-18308460D02*
X7329706Y-18260841D01*
X7329706Y-18260841D02*
X7329706Y-18222746D01*
X7329706Y-18222746D02*
X7320182Y-18175127D01*
X7320182Y-18175127D02*
X7310658Y-18146555D01*
X7310658Y-18146555D02*
X7301134Y-18127508D01*
X7301134Y-18127508D02*
X7282087Y-18098936D01*
X7282087Y-18098936D02*
X7272563Y-18089412D01*
D16*
X2377620Y-18430560D02*
X2497500Y-18550440D01*
X2497500Y-18430560D02*
X2377620Y-18550440D01*
X2479944Y-18532884D02*
X2479944Y-18448116D01*
X2395176Y-18448116D01*
X2395176Y-18532884D01*
X2479944Y-18532884D01*
D11*
X2863039Y-18581984D02*
X2748753Y-18581984D01*
X2805896Y-18581984D02*
X2805896Y-18381984D01*
X2805896Y-18381984D02*
X2786848Y-18410555D01*
X2786848Y-18410555D02*
X2767801Y-18429603D01*
X2767801Y-18429603D02*
X2748753Y-18439127D01*
X2948753Y-18562936D02*
X2958277Y-18572460D01*
X2958277Y-18572460D02*
X2948753Y-18581984D01*
X2948753Y-18581984D02*
X2939229Y-18572460D01*
X2939229Y-18572460D02*
X2948753Y-18562936D01*
X2948753Y-18562936D02*
X2948753Y-18581984D01*
X3148753Y-18581984D02*
X3034467Y-18581984D01*
X3091610Y-18581984D02*
X3091610Y-18381984D01*
X3091610Y-18381984D02*
X3072562Y-18410555D01*
X3072562Y-18410555D02*
X3053515Y-18429603D01*
X3053515Y-18429603D02*
X3034467Y-18439127D01*
X3243991Y-18581984D02*
X3282086Y-18581984D01*
X3282086Y-18581984D02*
X3301134Y-18572460D01*
X3301134Y-18572460D02*
X3310658Y-18562936D01*
X3310658Y-18562936D02*
X3329705Y-18534365D01*
X3329705Y-18534365D02*
X3339229Y-18496270D01*
X3339229Y-18496270D02*
X3339229Y-18420079D01*
X3339229Y-18420079D02*
X3329705Y-18401031D01*
X3329705Y-18401031D02*
X3320182Y-18391508D01*
X3320182Y-18391508D02*
X3301134Y-18381984D01*
X3301134Y-18381984D02*
X3263039Y-18381984D01*
X3263039Y-18381984D02*
X3243991Y-18391508D01*
X3243991Y-18391508D02*
X3234467Y-18401031D01*
X3234467Y-18401031D02*
X3224943Y-18420079D01*
X3224943Y-18420079D02*
X3224943Y-18467698D01*
X3224943Y-18467698D02*
X3234467Y-18486746D01*
X3234467Y-18486746D02*
X3243991Y-18496270D01*
X3243991Y-18496270D02*
X3263039Y-18505793D01*
X3263039Y-18505793D02*
X3301134Y-18505793D01*
X3301134Y-18505793D02*
X3320182Y-18496270D01*
X3320182Y-18496270D02*
X3329705Y-18486746D01*
X3329705Y-18486746D02*
X3339229Y-18467698D01*
X3434467Y-18581984D02*
X3472562Y-18581984D01*
X3472562Y-18581984D02*
X3491610Y-18572460D01*
X3491610Y-18572460D02*
X3501134Y-18562936D01*
X3501134Y-18562936D02*
X3520182Y-18534365D01*
X3520182Y-18534365D02*
X3529705Y-18496270D01*
X3529705Y-18496270D02*
X3529705Y-18420079D01*
X3529705Y-18420079D02*
X3520182Y-18401031D01*
X3520182Y-18401031D02*
X3510658Y-18391508D01*
X3510658Y-18391508D02*
X3491610Y-18381984D01*
X3491610Y-18381984D02*
X3453515Y-18381984D01*
X3453515Y-18381984D02*
X3434467Y-18391508D01*
X3434467Y-18391508D02*
X3424943Y-18401031D01*
X3424943Y-18401031D02*
X3415420Y-18420079D01*
X3415420Y-18420079D02*
X3415420Y-18467698D01*
X3415420Y-18467698D02*
X3424943Y-18486746D01*
X3424943Y-18486746D02*
X3434467Y-18496270D01*
X3434467Y-18496270D02*
X3453515Y-18505793D01*
X3453515Y-18505793D02*
X3491610Y-18505793D01*
X3491610Y-18505793D02*
X3510658Y-18496270D01*
X3510658Y-18496270D02*
X3520182Y-18486746D01*
X3520182Y-18486746D02*
X3529705Y-18467698D01*
X3615420Y-18581984D02*
X3615420Y-18448650D01*
X3615420Y-18467698D02*
X3624943Y-18458174D01*
X3624943Y-18458174D02*
X3643991Y-18448650D01*
X3643991Y-18448650D02*
X3672563Y-18448650D01*
X3672563Y-18448650D02*
X3691610Y-18458174D01*
X3691610Y-18458174D02*
X3701134Y-18477222D01*
X3701134Y-18477222D02*
X3701134Y-18581984D01*
X3701134Y-18477222D02*
X3710658Y-18458174D01*
X3710658Y-18458174D02*
X3729705Y-18448650D01*
X3729705Y-18448650D02*
X3758277Y-18448650D01*
X3758277Y-18448650D02*
X3777324Y-18458174D01*
X3777324Y-18458174D02*
X3786848Y-18477222D01*
X3786848Y-18477222D02*
X3786848Y-18581984D01*
X3882086Y-18581984D02*
X3882086Y-18448650D01*
X3882086Y-18467698D02*
X3891610Y-18458174D01*
X3891610Y-18458174D02*
X3910658Y-18448650D01*
X3910658Y-18448650D02*
X3939229Y-18448650D01*
X3939229Y-18448650D02*
X3958277Y-18458174D01*
X3958277Y-18458174D02*
X3967801Y-18477222D01*
X3967801Y-18477222D02*
X3967801Y-18581984D01*
X3967801Y-18477222D02*
X3977324Y-18458174D01*
X3977324Y-18458174D02*
X3996372Y-18448650D01*
X3996372Y-18448650D02*
X4024943Y-18448650D01*
X4024943Y-18448650D02*
X4043991Y-18458174D01*
X4043991Y-18458174D02*
X4053515Y-18477222D01*
X4053515Y-18477222D02*
X4053515Y-18581984D01*
X4443991Y-18372460D02*
X4272563Y-18629603D01*
X4701134Y-18381984D02*
X4720182Y-18381984D01*
X4720182Y-18381984D02*
X4739229Y-18391508D01*
X4739229Y-18391508D02*
X4748753Y-18401031D01*
X4748753Y-18401031D02*
X4758277Y-18420079D01*
X4758277Y-18420079D02*
X4767801Y-18458174D01*
X4767801Y-18458174D02*
X4767801Y-18505793D01*
X4767801Y-18505793D02*
X4758277Y-18543889D01*
X4758277Y-18543889D02*
X4748753Y-18562936D01*
X4748753Y-18562936D02*
X4739229Y-18572460D01*
X4739229Y-18572460D02*
X4720182Y-18581984D01*
X4720182Y-18581984D02*
X4701134Y-18581984D01*
X4701134Y-18581984D02*
X4682087Y-18572460D01*
X4682087Y-18572460D02*
X4672563Y-18562936D01*
X4672563Y-18562936D02*
X4663039Y-18543889D01*
X4663039Y-18543889D02*
X4653515Y-18505793D01*
X4653515Y-18505793D02*
X4653515Y-18458174D01*
X4653515Y-18458174D02*
X4663039Y-18420079D01*
X4663039Y-18420079D02*
X4672563Y-18401031D01*
X4672563Y-18401031D02*
X4682087Y-18391508D01*
X4682087Y-18391508D02*
X4701134Y-18381984D01*
X4853515Y-18562936D02*
X4863039Y-18572460D01*
X4863039Y-18572460D02*
X4853515Y-18581984D01*
X4853515Y-18581984D02*
X4843991Y-18572460D01*
X4843991Y-18572460D02*
X4853515Y-18562936D01*
X4853515Y-18562936D02*
X4853515Y-18581984D01*
X4986848Y-18381984D02*
X5005896Y-18381984D01*
X5005896Y-18381984D02*
X5024944Y-18391508D01*
X5024944Y-18391508D02*
X5034468Y-18401031D01*
X5034468Y-18401031D02*
X5043991Y-18420079D01*
X5043991Y-18420079D02*
X5053515Y-18458174D01*
X5053515Y-18458174D02*
X5053515Y-18505793D01*
X5053515Y-18505793D02*
X5043991Y-18543889D01*
X5043991Y-18543889D02*
X5034468Y-18562936D01*
X5034468Y-18562936D02*
X5024944Y-18572460D01*
X5024944Y-18572460D02*
X5005896Y-18581984D01*
X5005896Y-18581984D02*
X4986848Y-18581984D01*
X4986848Y-18581984D02*
X4967801Y-18572460D01*
X4967801Y-18572460D02*
X4958277Y-18562936D01*
X4958277Y-18562936D02*
X4948753Y-18543889D01*
X4948753Y-18543889D02*
X4939229Y-18505793D01*
X4939229Y-18505793D02*
X4939229Y-18458174D01*
X4939229Y-18458174D02*
X4948753Y-18420079D01*
X4948753Y-18420079D02*
X4958277Y-18401031D01*
X4958277Y-18401031D02*
X4967801Y-18391508D01*
X4967801Y-18391508D02*
X4986848Y-18381984D01*
X5224944Y-18448650D02*
X5224944Y-18581984D01*
X5177325Y-18372460D02*
X5129706Y-18515317D01*
X5129706Y-18515317D02*
X5253515Y-18515317D01*
X5310658Y-18381984D02*
X5443991Y-18381984D01*
X5443991Y-18381984D02*
X5358277Y-18581984D01*
X5510658Y-18401031D02*
X5520182Y-18391508D01*
X5520182Y-18391508D02*
X5539229Y-18381984D01*
X5539229Y-18381984D02*
X5586849Y-18381984D01*
X5586849Y-18381984D02*
X5605896Y-18391508D01*
X5605896Y-18391508D02*
X5615420Y-18401031D01*
X5615420Y-18401031D02*
X5624944Y-18420079D01*
X5624944Y-18420079D02*
X5624944Y-18439127D01*
X5624944Y-18439127D02*
X5615420Y-18467698D01*
X5615420Y-18467698D02*
X5501134Y-18581984D01*
X5501134Y-18581984D02*
X5624944Y-18581984D01*
X5701134Y-18381984D02*
X5701134Y-18420079D01*
X5777325Y-18381984D02*
X5777325Y-18420079D01*
X6072563Y-18658174D02*
X6063039Y-18648650D01*
X6063039Y-18648650D02*
X6043991Y-18620079D01*
X6043991Y-18620079D02*
X6034468Y-18601031D01*
X6034468Y-18601031D02*
X6024944Y-18572460D01*
X6024944Y-18572460D02*
X6015420Y-18524841D01*
X6015420Y-18524841D02*
X6015420Y-18486746D01*
X6015420Y-18486746D02*
X6024944Y-18439127D01*
X6024944Y-18439127D02*
X6034468Y-18410555D01*
X6034468Y-18410555D02*
X6043991Y-18391508D01*
X6043991Y-18391508D02*
X6063039Y-18362936D01*
X6063039Y-18362936D02*
X6072563Y-18353412D01*
X6139229Y-18401031D02*
X6148753Y-18391508D01*
X6148753Y-18391508D02*
X6167801Y-18381984D01*
X6167801Y-18381984D02*
X6215420Y-18381984D01*
X6215420Y-18381984D02*
X6234468Y-18391508D01*
X6234468Y-18391508D02*
X6243991Y-18401031D01*
X6243991Y-18401031D02*
X6253515Y-18420079D01*
X6253515Y-18420079D02*
X6253515Y-18439127D01*
X6253515Y-18439127D02*
X6243991Y-18467698D01*
X6243991Y-18467698D02*
X6129706Y-18581984D01*
X6129706Y-18581984D02*
X6253515Y-18581984D01*
X6367801Y-18467698D02*
X6348753Y-18458174D01*
X6348753Y-18458174D02*
X6339229Y-18448650D01*
X6339229Y-18448650D02*
X6329706Y-18429603D01*
X6329706Y-18429603D02*
X6329706Y-18420079D01*
X6329706Y-18420079D02*
X6339229Y-18401031D01*
X6339229Y-18401031D02*
X6348753Y-18391508D01*
X6348753Y-18391508D02*
X6367801Y-18381984D01*
X6367801Y-18381984D02*
X6405896Y-18381984D01*
X6405896Y-18381984D02*
X6424944Y-18391508D01*
X6424944Y-18391508D02*
X6434468Y-18401031D01*
X6434468Y-18401031D02*
X6443991Y-18420079D01*
X6443991Y-18420079D02*
X6443991Y-18429603D01*
X6443991Y-18429603D02*
X6434468Y-18448650D01*
X6434468Y-18448650D02*
X6424944Y-18458174D01*
X6424944Y-18458174D02*
X6405896Y-18467698D01*
X6405896Y-18467698D02*
X6367801Y-18467698D01*
X6367801Y-18467698D02*
X6348753Y-18477222D01*
X6348753Y-18477222D02*
X6339229Y-18486746D01*
X6339229Y-18486746D02*
X6329706Y-18505793D01*
X6329706Y-18505793D02*
X6329706Y-18543889D01*
X6329706Y-18543889D02*
X6339229Y-18562936D01*
X6339229Y-18562936D02*
X6348753Y-18572460D01*
X6348753Y-18572460D02*
X6367801Y-18581984D01*
X6367801Y-18581984D02*
X6405896Y-18581984D01*
X6405896Y-18581984D02*
X6424944Y-18572460D01*
X6424944Y-18572460D02*
X6434468Y-18562936D01*
X6434468Y-18562936D02*
X6443991Y-18543889D01*
X6443991Y-18543889D02*
X6443991Y-18505793D01*
X6443991Y-18505793D02*
X6434468Y-18486746D01*
X6434468Y-18486746D02*
X6424944Y-18477222D01*
X6424944Y-18477222D02*
X6405896Y-18467698D01*
X6682087Y-18581984D02*
X6682087Y-18381984D01*
X6767801Y-18581984D02*
X6767801Y-18477222D01*
X6767801Y-18477222D02*
X6758277Y-18458174D01*
X6758277Y-18458174D02*
X6739230Y-18448650D01*
X6739230Y-18448650D02*
X6710658Y-18448650D01*
X6710658Y-18448650D02*
X6691610Y-18458174D01*
X6691610Y-18458174D02*
X6682087Y-18467698D01*
X6891610Y-18581984D02*
X6872563Y-18572460D01*
X6872563Y-18572460D02*
X6863039Y-18562936D01*
X6863039Y-18562936D02*
X6853515Y-18543889D01*
X6853515Y-18543889D02*
X6853515Y-18486746D01*
X6853515Y-18486746D02*
X6863039Y-18467698D01*
X6863039Y-18467698D02*
X6872563Y-18458174D01*
X6872563Y-18458174D02*
X6891610Y-18448650D01*
X6891610Y-18448650D02*
X6920182Y-18448650D01*
X6920182Y-18448650D02*
X6939230Y-18458174D01*
X6939230Y-18458174D02*
X6948753Y-18467698D01*
X6948753Y-18467698D02*
X6958277Y-18486746D01*
X6958277Y-18486746D02*
X6958277Y-18543889D01*
X6958277Y-18543889D02*
X6948753Y-18562936D01*
X6948753Y-18562936D02*
X6939230Y-18572460D01*
X6939230Y-18572460D02*
X6920182Y-18581984D01*
X6920182Y-18581984D02*
X6891610Y-18581984D01*
X7072563Y-18581984D02*
X7053515Y-18572460D01*
X7053515Y-18572460D02*
X7043991Y-18553412D01*
X7043991Y-18553412D02*
X7043991Y-18381984D01*
X7224944Y-18572460D02*
X7205896Y-18581984D01*
X7205896Y-18581984D02*
X7167801Y-18581984D01*
X7167801Y-18581984D02*
X7148753Y-18572460D01*
X7148753Y-18572460D02*
X7139230Y-18553412D01*
X7139230Y-18553412D02*
X7139230Y-18477222D01*
X7139230Y-18477222D02*
X7148753Y-18458174D01*
X7148753Y-18458174D02*
X7167801Y-18448650D01*
X7167801Y-18448650D02*
X7205896Y-18448650D01*
X7205896Y-18448650D02*
X7224944Y-18458174D01*
X7224944Y-18458174D02*
X7234468Y-18477222D01*
X7234468Y-18477222D02*
X7234468Y-18496270D01*
X7234468Y-18496270D02*
X7139230Y-18515317D01*
X7310658Y-18572460D02*
X7329706Y-18581984D01*
X7329706Y-18581984D02*
X7367801Y-18581984D01*
X7367801Y-18581984D02*
X7386849Y-18572460D01*
X7386849Y-18572460D02*
X7396372Y-18553412D01*
X7396372Y-18553412D02*
X7396372Y-18543889D01*
X7396372Y-18543889D02*
X7386849Y-18524841D01*
X7386849Y-18524841D02*
X7367801Y-18515317D01*
X7367801Y-18515317D02*
X7339230Y-18515317D01*
X7339230Y-18515317D02*
X7320182Y-18505793D01*
X7320182Y-18505793D02*
X7310658Y-18486746D01*
X7310658Y-18486746D02*
X7310658Y-18477222D01*
X7310658Y-18477222D02*
X7320182Y-18458174D01*
X7320182Y-18458174D02*
X7339230Y-18448650D01*
X7339230Y-18448650D02*
X7367801Y-18448650D01*
X7367801Y-18448650D02*
X7386849Y-18458174D01*
X7463039Y-18658174D02*
X7472563Y-18648650D01*
X7472563Y-18648650D02*
X7491611Y-18620079D01*
X7491611Y-18620079D02*
X7501134Y-18601031D01*
X7501134Y-18601031D02*
X7510658Y-18572460D01*
X7510658Y-18572460D02*
X7520182Y-18524841D01*
X7520182Y-18524841D02*
X7520182Y-18486746D01*
X7520182Y-18486746D02*
X7510658Y-18439127D01*
X7510658Y-18439127D02*
X7501134Y-18410555D01*
X7501134Y-18410555D02*
X7491611Y-18391508D01*
X7491611Y-18391508D02*
X7472563Y-18362936D01*
X7472563Y-18362936D02*
X7463039Y-18353412D01*
D17*
X2377500Y-18694500D02*
X2497500Y-18814500D01*
X2497500Y-18694500D02*
X2377500Y-18814500D01*
X2437500Y-18814500D02*
X2497500Y-18754500D01*
X2437500Y-18694500D01*
X2377500Y-18754500D01*
X2437500Y-18814500D01*
D11*
X2863039Y-18845984D02*
X2748753Y-18845984D01*
X2805896Y-18845984D02*
X2805896Y-18645984D01*
X2805896Y-18645984D02*
X2786848Y-18674555D01*
X2786848Y-18674555D02*
X2767801Y-18693603D01*
X2767801Y-18693603D02*
X2748753Y-18703127D01*
X2948753Y-18826936D02*
X2958277Y-18836460D01*
X2958277Y-18836460D02*
X2948753Y-18845984D01*
X2948753Y-18845984D02*
X2939229Y-18836460D01*
X2939229Y-18836460D02*
X2948753Y-18826936D01*
X2948753Y-18826936D02*
X2948753Y-18845984D01*
X3034467Y-18665031D02*
X3043991Y-18655508D01*
X3043991Y-18655508D02*
X3063039Y-18645984D01*
X3063039Y-18645984D02*
X3110658Y-18645984D01*
X3110658Y-18645984D02*
X3129705Y-18655508D01*
X3129705Y-18655508D02*
X3139229Y-18665031D01*
X3139229Y-18665031D02*
X3148753Y-18684079D01*
X3148753Y-18684079D02*
X3148753Y-18703127D01*
X3148753Y-18703127D02*
X3139229Y-18731698D01*
X3139229Y-18731698D02*
X3024943Y-18845984D01*
X3024943Y-18845984D02*
X3148753Y-18845984D01*
X3272562Y-18645984D02*
X3291610Y-18645984D01*
X3291610Y-18645984D02*
X3310658Y-18655508D01*
X3310658Y-18655508D02*
X3320182Y-18665031D01*
X3320182Y-18665031D02*
X3329705Y-18684079D01*
X3329705Y-18684079D02*
X3339229Y-18722174D01*
X3339229Y-18722174D02*
X3339229Y-18769793D01*
X3339229Y-18769793D02*
X3329705Y-18807889D01*
X3329705Y-18807889D02*
X3320182Y-18826936D01*
X3320182Y-18826936D02*
X3310658Y-18836460D01*
X3310658Y-18836460D02*
X3291610Y-18845984D01*
X3291610Y-18845984D02*
X3272562Y-18845984D01*
X3272562Y-18845984D02*
X3253515Y-18836460D01*
X3253515Y-18836460D02*
X3243991Y-18826936D01*
X3243991Y-18826936D02*
X3234467Y-18807889D01*
X3234467Y-18807889D02*
X3224943Y-18769793D01*
X3224943Y-18769793D02*
X3224943Y-18722174D01*
X3224943Y-18722174D02*
X3234467Y-18684079D01*
X3234467Y-18684079D02*
X3243991Y-18665031D01*
X3243991Y-18665031D02*
X3253515Y-18655508D01*
X3253515Y-18655508D02*
X3272562Y-18645984D01*
X3463039Y-18645984D02*
X3482086Y-18645984D01*
X3482086Y-18645984D02*
X3501134Y-18655508D01*
X3501134Y-18655508D02*
X3510658Y-18665031D01*
X3510658Y-18665031D02*
X3520182Y-18684079D01*
X3520182Y-18684079D02*
X3529705Y-18722174D01*
X3529705Y-18722174D02*
X3529705Y-18769793D01*
X3529705Y-18769793D02*
X3520182Y-18807889D01*
X3520182Y-18807889D02*
X3510658Y-18826936D01*
X3510658Y-18826936D02*
X3501134Y-18836460D01*
X3501134Y-18836460D02*
X3482086Y-18845984D01*
X3482086Y-18845984D02*
X3463039Y-18845984D01*
X3463039Y-18845984D02*
X3443991Y-18836460D01*
X3443991Y-18836460D02*
X3434467Y-18826936D01*
X3434467Y-18826936D02*
X3424943Y-18807889D01*
X3424943Y-18807889D02*
X3415420Y-18769793D01*
X3415420Y-18769793D02*
X3415420Y-18722174D01*
X3415420Y-18722174D02*
X3424943Y-18684079D01*
X3424943Y-18684079D02*
X3434467Y-18665031D01*
X3434467Y-18665031D02*
X3443991Y-18655508D01*
X3443991Y-18655508D02*
X3463039Y-18645984D01*
X3615420Y-18845984D02*
X3615420Y-18712650D01*
X3615420Y-18731698D02*
X3624943Y-18722174D01*
X3624943Y-18722174D02*
X3643991Y-18712650D01*
X3643991Y-18712650D02*
X3672563Y-18712650D01*
X3672563Y-18712650D02*
X3691610Y-18722174D01*
X3691610Y-18722174D02*
X3701134Y-18741222D01*
X3701134Y-18741222D02*
X3701134Y-18845984D01*
X3701134Y-18741222D02*
X3710658Y-18722174D01*
X3710658Y-18722174D02*
X3729705Y-18712650D01*
X3729705Y-18712650D02*
X3758277Y-18712650D01*
X3758277Y-18712650D02*
X3777324Y-18722174D01*
X3777324Y-18722174D02*
X3786848Y-18741222D01*
X3786848Y-18741222D02*
X3786848Y-18845984D01*
X3882086Y-18845984D02*
X3882086Y-18712650D01*
X3882086Y-18731698D02*
X3891610Y-18722174D01*
X3891610Y-18722174D02*
X3910658Y-18712650D01*
X3910658Y-18712650D02*
X3939229Y-18712650D01*
X3939229Y-18712650D02*
X3958277Y-18722174D01*
X3958277Y-18722174D02*
X3967801Y-18741222D01*
X3967801Y-18741222D02*
X3967801Y-18845984D01*
X3967801Y-18741222D02*
X3977324Y-18722174D01*
X3977324Y-18722174D02*
X3996372Y-18712650D01*
X3996372Y-18712650D02*
X4024943Y-18712650D01*
X4024943Y-18712650D02*
X4043991Y-18722174D01*
X4043991Y-18722174D02*
X4053515Y-18741222D01*
X4053515Y-18741222D02*
X4053515Y-18845984D01*
X4443991Y-18636460D02*
X4272563Y-18893603D01*
X4701134Y-18645984D02*
X4720182Y-18645984D01*
X4720182Y-18645984D02*
X4739229Y-18655508D01*
X4739229Y-18655508D02*
X4748753Y-18665031D01*
X4748753Y-18665031D02*
X4758277Y-18684079D01*
X4758277Y-18684079D02*
X4767801Y-18722174D01*
X4767801Y-18722174D02*
X4767801Y-18769793D01*
X4767801Y-18769793D02*
X4758277Y-18807889D01*
X4758277Y-18807889D02*
X4748753Y-18826936D01*
X4748753Y-18826936D02*
X4739229Y-18836460D01*
X4739229Y-18836460D02*
X4720182Y-18845984D01*
X4720182Y-18845984D02*
X4701134Y-18845984D01*
X4701134Y-18845984D02*
X4682087Y-18836460D01*
X4682087Y-18836460D02*
X4672563Y-18826936D01*
X4672563Y-18826936D02*
X4663039Y-18807889D01*
X4663039Y-18807889D02*
X4653515Y-18769793D01*
X4653515Y-18769793D02*
X4653515Y-18722174D01*
X4653515Y-18722174D02*
X4663039Y-18684079D01*
X4663039Y-18684079D02*
X4672563Y-18665031D01*
X4672563Y-18665031D02*
X4682087Y-18655508D01*
X4682087Y-18655508D02*
X4701134Y-18645984D01*
X4853515Y-18826936D02*
X4863039Y-18836460D01*
X4863039Y-18836460D02*
X4853515Y-18845984D01*
X4853515Y-18845984D02*
X4843991Y-18836460D01*
X4843991Y-18836460D02*
X4853515Y-18826936D01*
X4853515Y-18826936D02*
X4853515Y-18845984D01*
X4986848Y-18645984D02*
X5005896Y-18645984D01*
X5005896Y-18645984D02*
X5024944Y-18655508D01*
X5024944Y-18655508D02*
X5034468Y-18665031D01*
X5034468Y-18665031D02*
X5043991Y-18684079D01*
X5043991Y-18684079D02*
X5053515Y-18722174D01*
X5053515Y-18722174D02*
X5053515Y-18769793D01*
X5053515Y-18769793D02*
X5043991Y-18807889D01*
X5043991Y-18807889D02*
X5034468Y-18826936D01*
X5034468Y-18826936D02*
X5024944Y-18836460D01*
X5024944Y-18836460D02*
X5005896Y-18845984D01*
X5005896Y-18845984D02*
X4986848Y-18845984D01*
X4986848Y-18845984D02*
X4967801Y-18836460D01*
X4967801Y-18836460D02*
X4958277Y-18826936D01*
X4958277Y-18826936D02*
X4948753Y-18807889D01*
X4948753Y-18807889D02*
X4939229Y-18769793D01*
X4939229Y-18769793D02*
X4939229Y-18722174D01*
X4939229Y-18722174D02*
X4948753Y-18684079D01*
X4948753Y-18684079D02*
X4958277Y-18665031D01*
X4958277Y-18665031D02*
X4967801Y-18655508D01*
X4967801Y-18655508D02*
X4986848Y-18645984D01*
X5224944Y-18712650D02*
X5224944Y-18845984D01*
X5177325Y-18636460D02*
X5129706Y-18779317D01*
X5129706Y-18779317D02*
X5253515Y-18779317D01*
X5310658Y-18645984D02*
X5443991Y-18645984D01*
X5443991Y-18645984D02*
X5358277Y-18845984D01*
X5510658Y-18665031D02*
X5520182Y-18655508D01*
X5520182Y-18655508D02*
X5539229Y-18645984D01*
X5539229Y-18645984D02*
X5586849Y-18645984D01*
X5586849Y-18645984D02*
X5605896Y-18655508D01*
X5605896Y-18655508D02*
X5615420Y-18665031D01*
X5615420Y-18665031D02*
X5624944Y-18684079D01*
X5624944Y-18684079D02*
X5624944Y-18703127D01*
X5624944Y-18703127D02*
X5615420Y-18731698D01*
X5615420Y-18731698D02*
X5501134Y-18845984D01*
X5501134Y-18845984D02*
X5624944Y-18845984D01*
X5701134Y-18645984D02*
X5701134Y-18684079D01*
X5777325Y-18645984D02*
X5777325Y-18684079D01*
X6072563Y-18922174D02*
X6063039Y-18912650D01*
X6063039Y-18912650D02*
X6043991Y-18884079D01*
X6043991Y-18884079D02*
X6034468Y-18865031D01*
X6034468Y-18865031D02*
X6024944Y-18836460D01*
X6024944Y-18836460D02*
X6015420Y-18788841D01*
X6015420Y-18788841D02*
X6015420Y-18750746D01*
X6015420Y-18750746D02*
X6024944Y-18703127D01*
X6024944Y-18703127D02*
X6034468Y-18674555D01*
X6034468Y-18674555D02*
X6043991Y-18655508D01*
X6043991Y-18655508D02*
X6063039Y-18626936D01*
X6063039Y-18626936D02*
X6072563Y-18617412D01*
X6139229Y-18665031D02*
X6148753Y-18655508D01*
X6148753Y-18655508D02*
X6167801Y-18645984D01*
X6167801Y-18645984D02*
X6215420Y-18645984D01*
X6215420Y-18645984D02*
X6234468Y-18655508D01*
X6234468Y-18655508D02*
X6243991Y-18665031D01*
X6243991Y-18665031D02*
X6253515Y-18684079D01*
X6253515Y-18684079D02*
X6253515Y-18703127D01*
X6253515Y-18703127D02*
X6243991Y-18731698D01*
X6243991Y-18731698D02*
X6129706Y-18845984D01*
X6129706Y-18845984D02*
X6253515Y-18845984D01*
X6424944Y-18712650D02*
X6424944Y-18845984D01*
X6377325Y-18636460D02*
X6329706Y-18779317D01*
X6329706Y-18779317D02*
X6453515Y-18779317D01*
X6682087Y-18845984D02*
X6682087Y-18645984D01*
X6767801Y-18845984D02*
X6767801Y-18741222D01*
X6767801Y-18741222D02*
X6758277Y-18722174D01*
X6758277Y-18722174D02*
X6739230Y-18712650D01*
X6739230Y-18712650D02*
X6710658Y-18712650D01*
X6710658Y-18712650D02*
X6691610Y-18722174D01*
X6691610Y-18722174D02*
X6682087Y-18731698D01*
X6891610Y-18845984D02*
X6872563Y-18836460D01*
X6872563Y-18836460D02*
X6863039Y-18826936D01*
X6863039Y-18826936D02*
X6853515Y-18807889D01*
X6853515Y-18807889D02*
X6853515Y-18750746D01*
X6853515Y-18750746D02*
X6863039Y-18731698D01*
X6863039Y-18731698D02*
X6872563Y-18722174D01*
X6872563Y-18722174D02*
X6891610Y-18712650D01*
X6891610Y-18712650D02*
X6920182Y-18712650D01*
X6920182Y-18712650D02*
X6939230Y-18722174D01*
X6939230Y-18722174D02*
X6948753Y-18731698D01*
X6948753Y-18731698D02*
X6958277Y-18750746D01*
X6958277Y-18750746D02*
X6958277Y-18807889D01*
X6958277Y-18807889D02*
X6948753Y-18826936D01*
X6948753Y-18826936D02*
X6939230Y-18836460D01*
X6939230Y-18836460D02*
X6920182Y-18845984D01*
X6920182Y-18845984D02*
X6891610Y-18845984D01*
X7072563Y-18845984D02*
X7053515Y-18836460D01*
X7053515Y-18836460D02*
X7043991Y-18817412D01*
X7043991Y-18817412D02*
X7043991Y-18645984D01*
X7224944Y-18836460D02*
X7205896Y-18845984D01*
X7205896Y-18845984D02*
X7167801Y-18845984D01*
X7167801Y-18845984D02*
X7148753Y-18836460D01*
X7148753Y-18836460D02*
X7139230Y-18817412D01*
X7139230Y-18817412D02*
X7139230Y-18741222D01*
X7139230Y-18741222D02*
X7148753Y-18722174D01*
X7148753Y-18722174D02*
X7167801Y-18712650D01*
X7167801Y-18712650D02*
X7205896Y-18712650D01*
X7205896Y-18712650D02*
X7224944Y-18722174D01*
X7224944Y-18722174D02*
X7234468Y-18741222D01*
X7234468Y-18741222D02*
X7234468Y-18760270D01*
X7234468Y-18760270D02*
X7139230Y-18779317D01*
X7310658Y-18836460D02*
X7329706Y-18845984D01*
X7329706Y-18845984D02*
X7367801Y-18845984D01*
X7367801Y-18845984D02*
X7386849Y-18836460D01*
X7386849Y-18836460D02*
X7396372Y-18817412D01*
X7396372Y-18817412D02*
X7396372Y-18807889D01*
X7396372Y-18807889D02*
X7386849Y-18788841D01*
X7386849Y-18788841D02*
X7367801Y-18779317D01*
X7367801Y-18779317D02*
X7339230Y-18779317D01*
X7339230Y-18779317D02*
X7320182Y-18769793D01*
X7320182Y-18769793D02*
X7310658Y-18750746D01*
X7310658Y-18750746D02*
X7310658Y-18741222D01*
X7310658Y-18741222D02*
X7320182Y-18722174D01*
X7320182Y-18722174D02*
X7339230Y-18712650D01*
X7339230Y-18712650D02*
X7367801Y-18712650D01*
X7367801Y-18712650D02*
X7386849Y-18722174D01*
X7463039Y-18922174D02*
X7472563Y-18912650D01*
X7472563Y-18912650D02*
X7491611Y-18884079D01*
X7491611Y-18884079D02*
X7501134Y-18865031D01*
X7501134Y-18865031D02*
X7510658Y-18836460D01*
X7510658Y-18836460D02*
X7520182Y-18788841D01*
X7520182Y-18788841D02*
X7520182Y-18750746D01*
X7520182Y-18750746D02*
X7510658Y-18703127D01*
X7510658Y-18703127D02*
X7501134Y-18674555D01*
X7501134Y-18674555D02*
X7491611Y-18655508D01*
X7491611Y-18655508D02*
X7472563Y-18626936D01*
X7472563Y-18626936D02*
X7463039Y-18617412D01*
D18*
X2427650Y-18948650D02*
X2427650Y-19088350D01*
X2357800Y-19018500D02*
X2497500Y-19018500D01*
X2497500Y-19018500D02*
G75*
G02*
X2357800Y-19018500I-69850J0D01*
G01*
X2357800Y-19018500D02*
G75*
G02*
X2497500Y-19018500I69850J0D01*
G01*
D11*
X2863039Y-19109984D02*
X2748753Y-19109984D01*
X2805896Y-19109984D02*
X2805896Y-18909984D01*
X2805896Y-18909984D02*
X2786848Y-18938555D01*
X2786848Y-18938555D02*
X2767801Y-18957603D01*
X2767801Y-18957603D02*
X2748753Y-18967127D01*
X2948753Y-19090936D02*
X2958277Y-19100460D01*
X2958277Y-19100460D02*
X2948753Y-19109984D01*
X2948753Y-19109984D02*
X2939229Y-19100460D01*
X2939229Y-19100460D02*
X2948753Y-19090936D01*
X2948753Y-19090936D02*
X2948753Y-19109984D01*
X3024943Y-18909984D02*
X3148753Y-18909984D01*
X3148753Y-18909984D02*
X3082086Y-18986174D01*
X3082086Y-18986174D02*
X3110658Y-18986174D01*
X3110658Y-18986174D02*
X3129705Y-18995698D01*
X3129705Y-18995698D02*
X3139229Y-19005222D01*
X3139229Y-19005222D02*
X3148753Y-19024270D01*
X3148753Y-19024270D02*
X3148753Y-19071889D01*
X3148753Y-19071889D02*
X3139229Y-19090936D01*
X3139229Y-19090936D02*
X3129705Y-19100460D01*
X3129705Y-19100460D02*
X3110658Y-19109984D01*
X3110658Y-19109984D02*
X3053515Y-19109984D01*
X3053515Y-19109984D02*
X3034467Y-19100460D01*
X3034467Y-19100460D02*
X3024943Y-19090936D01*
X3243991Y-19109984D02*
X3282086Y-19109984D01*
X3282086Y-19109984D02*
X3301134Y-19100460D01*
X3301134Y-19100460D02*
X3310658Y-19090936D01*
X3310658Y-19090936D02*
X3329705Y-19062365D01*
X3329705Y-19062365D02*
X3339229Y-19024270D01*
X3339229Y-19024270D02*
X3339229Y-18948079D01*
X3339229Y-18948079D02*
X3329705Y-18929031D01*
X3329705Y-18929031D02*
X3320182Y-18919508D01*
X3320182Y-18919508D02*
X3301134Y-18909984D01*
X3301134Y-18909984D02*
X3263039Y-18909984D01*
X3263039Y-18909984D02*
X3243991Y-18919508D01*
X3243991Y-18919508D02*
X3234467Y-18929031D01*
X3234467Y-18929031D02*
X3224943Y-18948079D01*
X3224943Y-18948079D02*
X3224943Y-18995698D01*
X3224943Y-18995698D02*
X3234467Y-19014746D01*
X3234467Y-19014746D02*
X3243991Y-19024270D01*
X3243991Y-19024270D02*
X3263039Y-19033793D01*
X3263039Y-19033793D02*
X3301134Y-19033793D01*
X3301134Y-19033793D02*
X3320182Y-19024270D01*
X3320182Y-19024270D02*
X3329705Y-19014746D01*
X3329705Y-19014746D02*
X3339229Y-18995698D01*
X3405896Y-18909984D02*
X3539229Y-18909984D01*
X3539229Y-18909984D02*
X3453515Y-19109984D01*
X3615420Y-19109984D02*
X3615420Y-18976650D01*
X3615420Y-18995698D02*
X3624943Y-18986174D01*
X3624943Y-18986174D02*
X3643991Y-18976650D01*
X3643991Y-18976650D02*
X3672563Y-18976650D01*
X3672563Y-18976650D02*
X3691610Y-18986174D01*
X3691610Y-18986174D02*
X3701134Y-19005222D01*
X3701134Y-19005222D02*
X3701134Y-19109984D01*
X3701134Y-19005222D02*
X3710658Y-18986174D01*
X3710658Y-18986174D02*
X3729705Y-18976650D01*
X3729705Y-18976650D02*
X3758277Y-18976650D01*
X3758277Y-18976650D02*
X3777324Y-18986174D01*
X3777324Y-18986174D02*
X3786848Y-19005222D01*
X3786848Y-19005222D02*
X3786848Y-19109984D01*
X3882086Y-19109984D02*
X3882086Y-18976650D01*
X3882086Y-18995698D02*
X3891610Y-18986174D01*
X3891610Y-18986174D02*
X3910658Y-18976650D01*
X3910658Y-18976650D02*
X3939229Y-18976650D01*
X3939229Y-18976650D02*
X3958277Y-18986174D01*
X3958277Y-18986174D02*
X3967801Y-19005222D01*
X3967801Y-19005222D02*
X3967801Y-19109984D01*
X3967801Y-19005222D02*
X3977324Y-18986174D01*
X3977324Y-18986174D02*
X3996372Y-18976650D01*
X3996372Y-18976650D02*
X4024943Y-18976650D01*
X4024943Y-18976650D02*
X4043991Y-18986174D01*
X4043991Y-18986174D02*
X4053515Y-19005222D01*
X4053515Y-19005222D02*
X4053515Y-19109984D01*
X4443991Y-18900460D02*
X4272563Y-19157603D01*
X4701134Y-18909984D02*
X4720182Y-18909984D01*
X4720182Y-18909984D02*
X4739229Y-18919508D01*
X4739229Y-18919508D02*
X4748753Y-18929031D01*
X4748753Y-18929031D02*
X4758277Y-18948079D01*
X4758277Y-18948079D02*
X4767801Y-18986174D01*
X4767801Y-18986174D02*
X4767801Y-19033793D01*
X4767801Y-19033793D02*
X4758277Y-19071889D01*
X4758277Y-19071889D02*
X4748753Y-19090936D01*
X4748753Y-19090936D02*
X4739229Y-19100460D01*
X4739229Y-19100460D02*
X4720182Y-19109984D01*
X4720182Y-19109984D02*
X4701134Y-19109984D01*
X4701134Y-19109984D02*
X4682087Y-19100460D01*
X4682087Y-19100460D02*
X4672563Y-19090936D01*
X4672563Y-19090936D02*
X4663039Y-19071889D01*
X4663039Y-19071889D02*
X4653515Y-19033793D01*
X4653515Y-19033793D02*
X4653515Y-18986174D01*
X4653515Y-18986174D02*
X4663039Y-18948079D01*
X4663039Y-18948079D02*
X4672563Y-18929031D01*
X4672563Y-18929031D02*
X4682087Y-18919508D01*
X4682087Y-18919508D02*
X4701134Y-18909984D01*
X4853515Y-19090936D02*
X4863039Y-19100460D01*
X4863039Y-19100460D02*
X4853515Y-19109984D01*
X4853515Y-19109984D02*
X4843991Y-19100460D01*
X4843991Y-19100460D02*
X4853515Y-19090936D01*
X4853515Y-19090936D02*
X4853515Y-19109984D01*
X4986848Y-18909984D02*
X5005896Y-18909984D01*
X5005896Y-18909984D02*
X5024944Y-18919508D01*
X5024944Y-18919508D02*
X5034468Y-18929031D01*
X5034468Y-18929031D02*
X5043991Y-18948079D01*
X5043991Y-18948079D02*
X5053515Y-18986174D01*
X5053515Y-18986174D02*
X5053515Y-19033793D01*
X5053515Y-19033793D02*
X5043991Y-19071889D01*
X5043991Y-19071889D02*
X5034468Y-19090936D01*
X5034468Y-19090936D02*
X5024944Y-19100460D01*
X5024944Y-19100460D02*
X5005896Y-19109984D01*
X5005896Y-19109984D02*
X4986848Y-19109984D01*
X4986848Y-19109984D02*
X4967801Y-19100460D01*
X4967801Y-19100460D02*
X4958277Y-19090936D01*
X4958277Y-19090936D02*
X4948753Y-19071889D01*
X4948753Y-19071889D02*
X4939229Y-19033793D01*
X4939229Y-19033793D02*
X4939229Y-18986174D01*
X4939229Y-18986174D02*
X4948753Y-18948079D01*
X4948753Y-18948079D02*
X4958277Y-18929031D01*
X4958277Y-18929031D02*
X4967801Y-18919508D01*
X4967801Y-18919508D02*
X4986848Y-18909984D01*
X5234468Y-18909984D02*
X5139229Y-18909984D01*
X5139229Y-18909984D02*
X5129706Y-19005222D01*
X5129706Y-19005222D02*
X5139229Y-18995698D01*
X5139229Y-18995698D02*
X5158277Y-18986174D01*
X5158277Y-18986174D02*
X5205896Y-18986174D01*
X5205896Y-18986174D02*
X5224944Y-18995698D01*
X5224944Y-18995698D02*
X5234468Y-19005222D01*
X5234468Y-19005222D02*
X5243991Y-19024270D01*
X5243991Y-19024270D02*
X5243991Y-19071889D01*
X5243991Y-19071889D02*
X5234468Y-19090936D01*
X5234468Y-19090936D02*
X5224944Y-19100460D01*
X5224944Y-19100460D02*
X5205896Y-19109984D01*
X5205896Y-19109984D02*
X5158277Y-19109984D01*
X5158277Y-19109984D02*
X5139229Y-19100460D01*
X5139229Y-19100460D02*
X5129706Y-19090936D01*
X5424944Y-18909984D02*
X5329706Y-18909984D01*
X5329706Y-18909984D02*
X5320182Y-19005222D01*
X5320182Y-19005222D02*
X5329706Y-18995698D01*
X5329706Y-18995698D02*
X5348753Y-18986174D01*
X5348753Y-18986174D02*
X5396372Y-18986174D01*
X5396372Y-18986174D02*
X5415420Y-18995698D01*
X5415420Y-18995698D02*
X5424944Y-19005222D01*
X5424944Y-19005222D02*
X5434468Y-19024270D01*
X5434468Y-19024270D02*
X5434468Y-19071889D01*
X5434468Y-19071889D02*
X5424944Y-19090936D01*
X5424944Y-19090936D02*
X5415420Y-19100460D01*
X5415420Y-19100460D02*
X5396372Y-19109984D01*
X5396372Y-19109984D02*
X5348753Y-19109984D01*
X5348753Y-19109984D02*
X5329706Y-19100460D01*
X5329706Y-19100460D02*
X5320182Y-19090936D01*
X5558277Y-18909984D02*
X5577325Y-18909984D01*
X5577325Y-18909984D02*
X5596372Y-18919508D01*
X5596372Y-18919508D02*
X5605896Y-18929031D01*
X5605896Y-18929031D02*
X5615420Y-18948079D01*
X5615420Y-18948079D02*
X5624944Y-18986174D01*
X5624944Y-18986174D02*
X5624944Y-19033793D01*
X5624944Y-19033793D02*
X5615420Y-19071889D01*
X5615420Y-19071889D02*
X5605896Y-19090936D01*
X5605896Y-19090936D02*
X5596372Y-19100460D01*
X5596372Y-19100460D02*
X5577325Y-19109984D01*
X5577325Y-19109984D02*
X5558277Y-19109984D01*
X5558277Y-19109984D02*
X5539229Y-19100460D01*
X5539229Y-19100460D02*
X5529706Y-19090936D01*
X5529706Y-19090936D02*
X5520182Y-19071889D01*
X5520182Y-19071889D02*
X5510658Y-19033793D01*
X5510658Y-19033793D02*
X5510658Y-18986174D01*
X5510658Y-18986174D02*
X5520182Y-18948079D01*
X5520182Y-18948079D02*
X5529706Y-18929031D01*
X5529706Y-18929031D02*
X5539229Y-18919508D01*
X5539229Y-18919508D02*
X5558277Y-18909984D01*
X5701134Y-18909984D02*
X5701134Y-18948079D01*
X5777325Y-18909984D02*
X5777325Y-18948079D01*
X6072563Y-19186174D02*
X6063039Y-19176650D01*
X6063039Y-19176650D02*
X6043991Y-19148079D01*
X6043991Y-19148079D02*
X6034468Y-19129031D01*
X6034468Y-19129031D02*
X6024944Y-19100460D01*
X6024944Y-19100460D02*
X6015420Y-19052841D01*
X6015420Y-19052841D02*
X6015420Y-19014746D01*
X6015420Y-19014746D02*
X6024944Y-18967127D01*
X6024944Y-18967127D02*
X6034468Y-18938555D01*
X6034468Y-18938555D02*
X6043991Y-18919508D01*
X6043991Y-18919508D02*
X6063039Y-18890936D01*
X6063039Y-18890936D02*
X6072563Y-18881412D01*
X6139229Y-18929031D02*
X6148753Y-18919508D01*
X6148753Y-18919508D02*
X6167801Y-18909984D01*
X6167801Y-18909984D02*
X6215420Y-18909984D01*
X6215420Y-18909984D02*
X6234468Y-18919508D01*
X6234468Y-18919508D02*
X6243991Y-18929031D01*
X6243991Y-18929031D02*
X6253515Y-18948079D01*
X6253515Y-18948079D02*
X6253515Y-18967127D01*
X6253515Y-18967127D02*
X6243991Y-18995698D01*
X6243991Y-18995698D02*
X6129706Y-19109984D01*
X6129706Y-19109984D02*
X6253515Y-19109984D01*
X6434468Y-18909984D02*
X6339229Y-18909984D01*
X6339229Y-18909984D02*
X6329706Y-19005222D01*
X6329706Y-19005222D02*
X6339229Y-18995698D01*
X6339229Y-18995698D02*
X6358277Y-18986174D01*
X6358277Y-18986174D02*
X6405896Y-18986174D01*
X6405896Y-18986174D02*
X6424944Y-18995698D01*
X6424944Y-18995698D02*
X6434468Y-19005222D01*
X6434468Y-19005222D02*
X6443991Y-19024270D01*
X6443991Y-19024270D02*
X6443991Y-19071889D01*
X6443991Y-19071889D02*
X6434468Y-19090936D01*
X6434468Y-19090936D02*
X6424944Y-19100460D01*
X6424944Y-19100460D02*
X6405896Y-19109984D01*
X6405896Y-19109984D02*
X6358277Y-19109984D01*
X6358277Y-19109984D02*
X6339229Y-19100460D01*
X6339229Y-19100460D02*
X6329706Y-19090936D01*
X6682087Y-19109984D02*
X6682087Y-18909984D01*
X6767801Y-19109984D02*
X6767801Y-19005222D01*
X6767801Y-19005222D02*
X6758277Y-18986174D01*
X6758277Y-18986174D02*
X6739230Y-18976650D01*
X6739230Y-18976650D02*
X6710658Y-18976650D01*
X6710658Y-18976650D02*
X6691610Y-18986174D01*
X6691610Y-18986174D02*
X6682087Y-18995698D01*
X6891610Y-19109984D02*
X6872563Y-19100460D01*
X6872563Y-19100460D02*
X6863039Y-19090936D01*
X6863039Y-19090936D02*
X6853515Y-19071889D01*
X6853515Y-19071889D02*
X6853515Y-19014746D01*
X6853515Y-19014746D02*
X6863039Y-18995698D01*
X6863039Y-18995698D02*
X6872563Y-18986174D01*
X6872563Y-18986174D02*
X6891610Y-18976650D01*
X6891610Y-18976650D02*
X6920182Y-18976650D01*
X6920182Y-18976650D02*
X6939230Y-18986174D01*
X6939230Y-18986174D02*
X6948753Y-18995698D01*
X6948753Y-18995698D02*
X6958277Y-19014746D01*
X6958277Y-19014746D02*
X6958277Y-19071889D01*
X6958277Y-19071889D02*
X6948753Y-19090936D01*
X6948753Y-19090936D02*
X6939230Y-19100460D01*
X6939230Y-19100460D02*
X6920182Y-19109984D01*
X6920182Y-19109984D02*
X6891610Y-19109984D01*
X7072563Y-19109984D02*
X7053515Y-19100460D01*
X7053515Y-19100460D02*
X7043991Y-19081412D01*
X7043991Y-19081412D02*
X7043991Y-18909984D01*
X7224944Y-19100460D02*
X7205896Y-19109984D01*
X7205896Y-19109984D02*
X7167801Y-19109984D01*
X7167801Y-19109984D02*
X7148753Y-19100460D01*
X7148753Y-19100460D02*
X7139230Y-19081412D01*
X7139230Y-19081412D02*
X7139230Y-19005222D01*
X7139230Y-19005222D02*
X7148753Y-18986174D01*
X7148753Y-18986174D02*
X7167801Y-18976650D01*
X7167801Y-18976650D02*
X7205896Y-18976650D01*
X7205896Y-18976650D02*
X7224944Y-18986174D01*
X7224944Y-18986174D02*
X7234468Y-19005222D01*
X7234468Y-19005222D02*
X7234468Y-19024270D01*
X7234468Y-19024270D02*
X7139230Y-19043317D01*
X7310658Y-19100460D02*
X7329706Y-19109984D01*
X7329706Y-19109984D02*
X7367801Y-19109984D01*
X7367801Y-19109984D02*
X7386849Y-19100460D01*
X7386849Y-19100460D02*
X7396372Y-19081412D01*
X7396372Y-19081412D02*
X7396372Y-19071889D01*
X7396372Y-19071889D02*
X7386849Y-19052841D01*
X7386849Y-19052841D02*
X7367801Y-19043317D01*
X7367801Y-19043317D02*
X7339230Y-19043317D01*
X7339230Y-19043317D02*
X7320182Y-19033793D01*
X7320182Y-19033793D02*
X7310658Y-19014746D01*
X7310658Y-19014746D02*
X7310658Y-19005222D01*
X7310658Y-19005222D02*
X7320182Y-18986174D01*
X7320182Y-18986174D02*
X7339230Y-18976650D01*
X7339230Y-18976650D02*
X7367801Y-18976650D01*
X7367801Y-18976650D02*
X7386849Y-18986174D01*
X7463039Y-19186174D02*
X7472563Y-19176650D01*
X7472563Y-19176650D02*
X7491611Y-19148079D01*
X7491611Y-19148079D02*
X7501134Y-19129031D01*
X7501134Y-19129031D02*
X7510658Y-19100460D01*
X7510658Y-19100460D02*
X7520182Y-19052841D01*
X7520182Y-19052841D02*
X7520182Y-19014746D01*
X7520182Y-19014746D02*
X7510658Y-18967127D01*
X7510658Y-18967127D02*
X7501134Y-18938555D01*
X7501134Y-18938555D02*
X7491611Y-18919508D01*
X7491611Y-18919508D02*
X7472563Y-18890936D01*
X7472563Y-18890936D02*
X7463039Y-18881412D01*
D19*
X2476969Y-19332069D02*
X2476969Y-19232931D01*
X2377831Y-19232931D01*
X2377831Y-19332069D01*
X2476969Y-19332069D01*
X2497500Y-19282500D02*
G75*
G02*
X2357300Y-19282500I-70100J0D01*
G01*
X2357300Y-19282500D02*
G75*
G02*
X2497500Y-19282500I70100J0D01*
G01*
D11*
X2863039Y-19373984D02*
X2748753Y-19373984D01*
X2805896Y-19373984D02*
X2805896Y-19173984D01*
X2805896Y-19173984D02*
X2786848Y-19202555D01*
X2786848Y-19202555D02*
X2767801Y-19221603D01*
X2767801Y-19221603D02*
X2748753Y-19231127D01*
X2948753Y-19354936D02*
X2958277Y-19364460D01*
X2958277Y-19364460D02*
X2948753Y-19373984D01*
X2948753Y-19373984D02*
X2939229Y-19364460D01*
X2939229Y-19364460D02*
X2948753Y-19354936D01*
X2948753Y-19354936D02*
X2948753Y-19373984D01*
X3129705Y-19240650D02*
X3129705Y-19373984D01*
X3082086Y-19164460D02*
X3034467Y-19307317D01*
X3034467Y-19307317D02*
X3158277Y-19307317D01*
X3272562Y-19173984D02*
X3291610Y-19173984D01*
X3291610Y-19173984D02*
X3310658Y-19183508D01*
X3310658Y-19183508D02*
X3320182Y-19193031D01*
X3320182Y-19193031D02*
X3329705Y-19212079D01*
X3329705Y-19212079D02*
X3339229Y-19250174D01*
X3339229Y-19250174D02*
X3339229Y-19297793D01*
X3339229Y-19297793D02*
X3329705Y-19335889D01*
X3329705Y-19335889D02*
X3320182Y-19354936D01*
X3320182Y-19354936D02*
X3310658Y-19364460D01*
X3310658Y-19364460D02*
X3291610Y-19373984D01*
X3291610Y-19373984D02*
X3272562Y-19373984D01*
X3272562Y-19373984D02*
X3253515Y-19364460D01*
X3253515Y-19364460D02*
X3243991Y-19354936D01*
X3243991Y-19354936D02*
X3234467Y-19335889D01*
X3234467Y-19335889D02*
X3224943Y-19297793D01*
X3224943Y-19297793D02*
X3224943Y-19250174D01*
X3224943Y-19250174D02*
X3234467Y-19212079D01*
X3234467Y-19212079D02*
X3243991Y-19193031D01*
X3243991Y-19193031D02*
X3253515Y-19183508D01*
X3253515Y-19183508D02*
X3272562Y-19173984D01*
X3415420Y-19193031D02*
X3424943Y-19183508D01*
X3424943Y-19183508D02*
X3443991Y-19173984D01*
X3443991Y-19173984D02*
X3491610Y-19173984D01*
X3491610Y-19173984D02*
X3510658Y-19183508D01*
X3510658Y-19183508D02*
X3520182Y-19193031D01*
X3520182Y-19193031D02*
X3529705Y-19212079D01*
X3529705Y-19212079D02*
X3529705Y-19231127D01*
X3529705Y-19231127D02*
X3520182Y-19259698D01*
X3520182Y-19259698D02*
X3405896Y-19373984D01*
X3405896Y-19373984D02*
X3529705Y-19373984D01*
X3615420Y-19373984D02*
X3615420Y-19240650D01*
X3615420Y-19259698D02*
X3624943Y-19250174D01*
X3624943Y-19250174D02*
X3643991Y-19240650D01*
X3643991Y-19240650D02*
X3672563Y-19240650D01*
X3672563Y-19240650D02*
X3691610Y-19250174D01*
X3691610Y-19250174D02*
X3701134Y-19269222D01*
X3701134Y-19269222D02*
X3701134Y-19373984D01*
X3701134Y-19269222D02*
X3710658Y-19250174D01*
X3710658Y-19250174D02*
X3729705Y-19240650D01*
X3729705Y-19240650D02*
X3758277Y-19240650D01*
X3758277Y-19240650D02*
X3777324Y-19250174D01*
X3777324Y-19250174D02*
X3786848Y-19269222D01*
X3786848Y-19269222D02*
X3786848Y-19373984D01*
X3882086Y-19373984D02*
X3882086Y-19240650D01*
X3882086Y-19259698D02*
X3891610Y-19250174D01*
X3891610Y-19250174D02*
X3910658Y-19240650D01*
X3910658Y-19240650D02*
X3939229Y-19240650D01*
X3939229Y-19240650D02*
X3958277Y-19250174D01*
X3958277Y-19250174D02*
X3967801Y-19269222D01*
X3967801Y-19269222D02*
X3967801Y-19373984D01*
X3967801Y-19269222D02*
X3977324Y-19250174D01*
X3977324Y-19250174D02*
X3996372Y-19240650D01*
X3996372Y-19240650D02*
X4024943Y-19240650D01*
X4024943Y-19240650D02*
X4043991Y-19250174D01*
X4043991Y-19250174D02*
X4053515Y-19269222D01*
X4053515Y-19269222D02*
X4053515Y-19373984D01*
X4443991Y-19164460D02*
X4272563Y-19421603D01*
X4701134Y-19173984D02*
X4720182Y-19173984D01*
X4720182Y-19173984D02*
X4739229Y-19183508D01*
X4739229Y-19183508D02*
X4748753Y-19193031D01*
X4748753Y-19193031D02*
X4758277Y-19212079D01*
X4758277Y-19212079D02*
X4767801Y-19250174D01*
X4767801Y-19250174D02*
X4767801Y-19297793D01*
X4767801Y-19297793D02*
X4758277Y-19335889D01*
X4758277Y-19335889D02*
X4748753Y-19354936D01*
X4748753Y-19354936D02*
X4739229Y-19364460D01*
X4739229Y-19364460D02*
X4720182Y-19373984D01*
X4720182Y-19373984D02*
X4701134Y-19373984D01*
X4701134Y-19373984D02*
X4682087Y-19364460D01*
X4682087Y-19364460D02*
X4672563Y-19354936D01*
X4672563Y-19354936D02*
X4663039Y-19335889D01*
X4663039Y-19335889D02*
X4653515Y-19297793D01*
X4653515Y-19297793D02*
X4653515Y-19250174D01*
X4653515Y-19250174D02*
X4663039Y-19212079D01*
X4663039Y-19212079D02*
X4672563Y-19193031D01*
X4672563Y-19193031D02*
X4682087Y-19183508D01*
X4682087Y-19183508D02*
X4701134Y-19173984D01*
X4853515Y-19354936D02*
X4863039Y-19364460D01*
X4863039Y-19364460D02*
X4853515Y-19373984D01*
X4853515Y-19373984D02*
X4843991Y-19364460D01*
X4843991Y-19364460D02*
X4853515Y-19354936D01*
X4853515Y-19354936D02*
X4853515Y-19373984D01*
X4986848Y-19173984D02*
X5005896Y-19173984D01*
X5005896Y-19173984D02*
X5024944Y-19183508D01*
X5024944Y-19183508D02*
X5034468Y-19193031D01*
X5034468Y-19193031D02*
X5043991Y-19212079D01*
X5043991Y-19212079D02*
X5053515Y-19250174D01*
X5053515Y-19250174D02*
X5053515Y-19297793D01*
X5053515Y-19297793D02*
X5043991Y-19335889D01*
X5043991Y-19335889D02*
X5034468Y-19354936D01*
X5034468Y-19354936D02*
X5024944Y-19364460D01*
X5024944Y-19364460D02*
X5005896Y-19373984D01*
X5005896Y-19373984D02*
X4986848Y-19373984D01*
X4986848Y-19373984D02*
X4967801Y-19364460D01*
X4967801Y-19364460D02*
X4958277Y-19354936D01*
X4958277Y-19354936D02*
X4948753Y-19335889D01*
X4948753Y-19335889D02*
X4939229Y-19297793D01*
X4939229Y-19297793D02*
X4939229Y-19250174D01*
X4939229Y-19250174D02*
X4948753Y-19212079D01*
X4948753Y-19212079D02*
X4958277Y-19193031D01*
X4958277Y-19193031D02*
X4967801Y-19183508D01*
X4967801Y-19183508D02*
X4986848Y-19173984D01*
X5234468Y-19173984D02*
X5139229Y-19173984D01*
X5139229Y-19173984D02*
X5129706Y-19269222D01*
X5129706Y-19269222D02*
X5139229Y-19259698D01*
X5139229Y-19259698D02*
X5158277Y-19250174D01*
X5158277Y-19250174D02*
X5205896Y-19250174D01*
X5205896Y-19250174D02*
X5224944Y-19259698D01*
X5224944Y-19259698D02*
X5234468Y-19269222D01*
X5234468Y-19269222D02*
X5243991Y-19288270D01*
X5243991Y-19288270D02*
X5243991Y-19335889D01*
X5243991Y-19335889D02*
X5234468Y-19354936D01*
X5234468Y-19354936D02*
X5224944Y-19364460D01*
X5224944Y-19364460D02*
X5205896Y-19373984D01*
X5205896Y-19373984D02*
X5158277Y-19373984D01*
X5158277Y-19373984D02*
X5139229Y-19364460D01*
X5139229Y-19364460D02*
X5129706Y-19354936D01*
X5424944Y-19173984D02*
X5329706Y-19173984D01*
X5329706Y-19173984D02*
X5320182Y-19269222D01*
X5320182Y-19269222D02*
X5329706Y-19259698D01*
X5329706Y-19259698D02*
X5348753Y-19250174D01*
X5348753Y-19250174D02*
X5396372Y-19250174D01*
X5396372Y-19250174D02*
X5415420Y-19259698D01*
X5415420Y-19259698D02*
X5424944Y-19269222D01*
X5424944Y-19269222D02*
X5434468Y-19288270D01*
X5434468Y-19288270D02*
X5434468Y-19335889D01*
X5434468Y-19335889D02*
X5424944Y-19354936D01*
X5424944Y-19354936D02*
X5415420Y-19364460D01*
X5415420Y-19364460D02*
X5396372Y-19373984D01*
X5396372Y-19373984D02*
X5348753Y-19373984D01*
X5348753Y-19373984D02*
X5329706Y-19364460D01*
X5329706Y-19364460D02*
X5320182Y-19354936D01*
X5510658Y-19193031D02*
X5520182Y-19183508D01*
X5520182Y-19183508D02*
X5539229Y-19173984D01*
X5539229Y-19173984D02*
X5586849Y-19173984D01*
X5586849Y-19173984D02*
X5605896Y-19183508D01*
X5605896Y-19183508D02*
X5615420Y-19193031D01*
X5615420Y-19193031D02*
X5624944Y-19212079D01*
X5624944Y-19212079D02*
X5624944Y-19231127D01*
X5624944Y-19231127D02*
X5615420Y-19259698D01*
X5615420Y-19259698D02*
X5501134Y-19373984D01*
X5501134Y-19373984D02*
X5624944Y-19373984D01*
X5701134Y-19173984D02*
X5701134Y-19212079D01*
X5777325Y-19173984D02*
X5777325Y-19212079D01*
X6072563Y-19450174D02*
X6063039Y-19440650D01*
X6063039Y-19440650D02*
X6043991Y-19412079D01*
X6043991Y-19412079D02*
X6034468Y-19393031D01*
X6034468Y-19393031D02*
X6024944Y-19364460D01*
X6024944Y-19364460D02*
X6015420Y-19316841D01*
X6015420Y-19316841D02*
X6015420Y-19278746D01*
X6015420Y-19278746D02*
X6024944Y-19231127D01*
X6024944Y-19231127D02*
X6034468Y-19202555D01*
X6034468Y-19202555D02*
X6043991Y-19183508D01*
X6043991Y-19183508D02*
X6063039Y-19154936D01*
X6063039Y-19154936D02*
X6072563Y-19145412D01*
X6234468Y-19240650D02*
X6234468Y-19373984D01*
X6186848Y-19164460D02*
X6139229Y-19307317D01*
X6139229Y-19307317D02*
X6263039Y-19307317D01*
X6491610Y-19373984D02*
X6491610Y-19173984D01*
X6577325Y-19373984D02*
X6577325Y-19269222D01*
X6577325Y-19269222D02*
X6567801Y-19250174D01*
X6567801Y-19250174D02*
X6548753Y-19240650D01*
X6548753Y-19240650D02*
X6520182Y-19240650D01*
X6520182Y-19240650D02*
X6501134Y-19250174D01*
X6501134Y-19250174D02*
X6491610Y-19259698D01*
X6701134Y-19373984D02*
X6682087Y-19364460D01*
X6682087Y-19364460D02*
X6672563Y-19354936D01*
X6672563Y-19354936D02*
X6663039Y-19335889D01*
X6663039Y-19335889D02*
X6663039Y-19278746D01*
X6663039Y-19278746D02*
X6672563Y-19259698D01*
X6672563Y-19259698D02*
X6682087Y-19250174D01*
X6682087Y-19250174D02*
X6701134Y-19240650D01*
X6701134Y-19240650D02*
X6729706Y-19240650D01*
X6729706Y-19240650D02*
X6748753Y-19250174D01*
X6748753Y-19250174D02*
X6758277Y-19259698D01*
X6758277Y-19259698D02*
X6767801Y-19278746D01*
X6767801Y-19278746D02*
X6767801Y-19335889D01*
X6767801Y-19335889D02*
X6758277Y-19354936D01*
X6758277Y-19354936D02*
X6748753Y-19364460D01*
X6748753Y-19364460D02*
X6729706Y-19373984D01*
X6729706Y-19373984D02*
X6701134Y-19373984D01*
X6882087Y-19373984D02*
X6863039Y-19364460D01*
X6863039Y-19364460D02*
X6853515Y-19345412D01*
X6853515Y-19345412D02*
X6853515Y-19173984D01*
X7034468Y-19364460D02*
X7015420Y-19373984D01*
X7015420Y-19373984D02*
X6977325Y-19373984D01*
X6977325Y-19373984D02*
X6958277Y-19364460D01*
X6958277Y-19364460D02*
X6948753Y-19345412D01*
X6948753Y-19345412D02*
X6948753Y-19269222D01*
X6948753Y-19269222D02*
X6958277Y-19250174D01*
X6958277Y-19250174D02*
X6977325Y-19240650D01*
X6977325Y-19240650D02*
X7015420Y-19240650D01*
X7015420Y-19240650D02*
X7034468Y-19250174D01*
X7034468Y-19250174D02*
X7043991Y-19269222D01*
X7043991Y-19269222D02*
X7043991Y-19288270D01*
X7043991Y-19288270D02*
X6948753Y-19307317D01*
X7120182Y-19364460D02*
X7139230Y-19373984D01*
X7139230Y-19373984D02*
X7177325Y-19373984D01*
X7177325Y-19373984D02*
X7196372Y-19364460D01*
X7196372Y-19364460D02*
X7205896Y-19345412D01*
X7205896Y-19345412D02*
X7205896Y-19335889D01*
X7205896Y-19335889D02*
X7196372Y-19316841D01*
X7196372Y-19316841D02*
X7177325Y-19307317D01*
X7177325Y-19307317D02*
X7148753Y-19307317D01*
X7148753Y-19307317D02*
X7129706Y-19297793D01*
X7129706Y-19297793D02*
X7120182Y-19278746D01*
X7120182Y-19278746D02*
X7120182Y-19269222D01*
X7120182Y-19269222D02*
X7129706Y-19250174D01*
X7129706Y-19250174D02*
X7148753Y-19240650D01*
X7148753Y-19240650D02*
X7177325Y-19240650D01*
X7177325Y-19240650D02*
X7196372Y-19250174D01*
X7272563Y-19450174D02*
X7282087Y-19440650D01*
X7282087Y-19440650D02*
X7301134Y-19412079D01*
X7301134Y-19412079D02*
X7310658Y-19393031D01*
X7310658Y-19393031D02*
X7320182Y-19364460D01*
X7320182Y-19364460D02*
X7329706Y-19316841D01*
X7329706Y-19316841D02*
X7329706Y-19278746D01*
X7329706Y-19278746D02*
X7320182Y-19231127D01*
X7320182Y-19231127D02*
X7310658Y-19202555D01*
X7310658Y-19202555D02*
X7301134Y-19183508D01*
X7301134Y-19183508D02*
X7282087Y-19154936D01*
X7282087Y-19154936D02*
X7272563Y-19145412D01*
D20*
X2407500Y-19636500D02*
X2497500Y-19546500D01*
X2407500Y-19456500D01*
X2317500Y-19546500D01*
X2407500Y-19636500D01*
X2497500Y-19546500D02*
G75*
G02*
X2317500Y-19546500I-90000J0D01*
G01*
X2317500Y-19546500D02*
G75*
G02*
X2497500Y-19546500I90000J0D01*
G01*
D11*
X2863039Y-19637984D02*
X2748753Y-19637984D01*
X2805896Y-19637984D02*
X2805896Y-19437984D01*
X2805896Y-19437984D02*
X2786848Y-19466555D01*
X2786848Y-19466555D02*
X2767801Y-19485603D01*
X2767801Y-19485603D02*
X2748753Y-19495127D01*
X2948753Y-19618936D02*
X2958277Y-19628460D01*
X2958277Y-19628460D02*
X2948753Y-19637984D01*
X2948753Y-19637984D02*
X2939229Y-19628460D01*
X2939229Y-19628460D02*
X2948753Y-19618936D01*
X2948753Y-19618936D02*
X2948753Y-19637984D01*
X3072562Y-19523698D02*
X3053515Y-19514174D01*
X3053515Y-19514174D02*
X3043991Y-19504650D01*
X3043991Y-19504650D02*
X3034467Y-19485603D01*
X3034467Y-19485603D02*
X3034467Y-19476079D01*
X3034467Y-19476079D02*
X3043991Y-19457031D01*
X3043991Y-19457031D02*
X3053515Y-19447508D01*
X3053515Y-19447508D02*
X3072562Y-19437984D01*
X3072562Y-19437984D02*
X3110658Y-19437984D01*
X3110658Y-19437984D02*
X3129705Y-19447508D01*
X3129705Y-19447508D02*
X3139229Y-19457031D01*
X3139229Y-19457031D02*
X3148753Y-19476079D01*
X3148753Y-19476079D02*
X3148753Y-19485603D01*
X3148753Y-19485603D02*
X3139229Y-19504650D01*
X3139229Y-19504650D02*
X3129705Y-19514174D01*
X3129705Y-19514174D02*
X3110658Y-19523698D01*
X3110658Y-19523698D02*
X3072562Y-19523698D01*
X3072562Y-19523698D02*
X3053515Y-19533222D01*
X3053515Y-19533222D02*
X3043991Y-19542746D01*
X3043991Y-19542746D02*
X3034467Y-19561793D01*
X3034467Y-19561793D02*
X3034467Y-19599889D01*
X3034467Y-19599889D02*
X3043991Y-19618936D01*
X3043991Y-19618936D02*
X3053515Y-19628460D01*
X3053515Y-19628460D02*
X3072562Y-19637984D01*
X3072562Y-19637984D02*
X3110658Y-19637984D01*
X3110658Y-19637984D02*
X3129705Y-19628460D01*
X3129705Y-19628460D02*
X3139229Y-19618936D01*
X3139229Y-19618936D02*
X3148753Y-19599889D01*
X3148753Y-19599889D02*
X3148753Y-19561793D01*
X3148753Y-19561793D02*
X3139229Y-19542746D01*
X3139229Y-19542746D02*
X3129705Y-19533222D01*
X3129705Y-19533222D02*
X3110658Y-19523698D01*
X3272562Y-19437984D02*
X3291610Y-19437984D01*
X3291610Y-19437984D02*
X3310658Y-19447508D01*
X3310658Y-19447508D02*
X3320182Y-19457031D01*
X3320182Y-19457031D02*
X3329705Y-19476079D01*
X3329705Y-19476079D02*
X3339229Y-19514174D01*
X3339229Y-19514174D02*
X3339229Y-19561793D01*
X3339229Y-19561793D02*
X3329705Y-19599889D01*
X3329705Y-19599889D02*
X3320182Y-19618936D01*
X3320182Y-19618936D02*
X3310658Y-19628460D01*
X3310658Y-19628460D02*
X3291610Y-19637984D01*
X3291610Y-19637984D02*
X3272562Y-19637984D01*
X3272562Y-19637984D02*
X3253515Y-19628460D01*
X3253515Y-19628460D02*
X3243991Y-19618936D01*
X3243991Y-19618936D02*
X3234467Y-19599889D01*
X3234467Y-19599889D02*
X3224943Y-19561793D01*
X3224943Y-19561793D02*
X3224943Y-19514174D01*
X3224943Y-19514174D02*
X3234467Y-19476079D01*
X3234467Y-19476079D02*
X3243991Y-19457031D01*
X3243991Y-19457031D02*
X3253515Y-19447508D01*
X3253515Y-19447508D02*
X3272562Y-19437984D01*
X3463039Y-19437984D02*
X3482086Y-19437984D01*
X3482086Y-19437984D02*
X3501134Y-19447508D01*
X3501134Y-19447508D02*
X3510658Y-19457031D01*
X3510658Y-19457031D02*
X3520182Y-19476079D01*
X3520182Y-19476079D02*
X3529705Y-19514174D01*
X3529705Y-19514174D02*
X3529705Y-19561793D01*
X3529705Y-19561793D02*
X3520182Y-19599889D01*
X3520182Y-19599889D02*
X3510658Y-19618936D01*
X3510658Y-19618936D02*
X3501134Y-19628460D01*
X3501134Y-19628460D02*
X3482086Y-19637984D01*
X3482086Y-19637984D02*
X3463039Y-19637984D01*
X3463039Y-19637984D02*
X3443991Y-19628460D01*
X3443991Y-19628460D02*
X3434467Y-19618936D01*
X3434467Y-19618936D02*
X3424943Y-19599889D01*
X3424943Y-19599889D02*
X3415420Y-19561793D01*
X3415420Y-19561793D02*
X3415420Y-19514174D01*
X3415420Y-19514174D02*
X3424943Y-19476079D01*
X3424943Y-19476079D02*
X3434467Y-19457031D01*
X3434467Y-19457031D02*
X3443991Y-19447508D01*
X3443991Y-19447508D02*
X3463039Y-19437984D01*
X3615420Y-19637984D02*
X3615420Y-19504650D01*
X3615420Y-19523698D02*
X3624943Y-19514174D01*
X3624943Y-19514174D02*
X3643991Y-19504650D01*
X3643991Y-19504650D02*
X3672563Y-19504650D01*
X3672563Y-19504650D02*
X3691610Y-19514174D01*
X3691610Y-19514174D02*
X3701134Y-19533222D01*
X3701134Y-19533222D02*
X3701134Y-19637984D01*
X3701134Y-19533222D02*
X3710658Y-19514174D01*
X3710658Y-19514174D02*
X3729705Y-19504650D01*
X3729705Y-19504650D02*
X3758277Y-19504650D01*
X3758277Y-19504650D02*
X3777324Y-19514174D01*
X3777324Y-19514174D02*
X3786848Y-19533222D01*
X3786848Y-19533222D02*
X3786848Y-19637984D01*
X3882086Y-19637984D02*
X3882086Y-19504650D01*
X3882086Y-19523698D02*
X3891610Y-19514174D01*
X3891610Y-19514174D02*
X3910658Y-19504650D01*
X3910658Y-19504650D02*
X3939229Y-19504650D01*
X3939229Y-19504650D02*
X3958277Y-19514174D01*
X3958277Y-19514174D02*
X3967801Y-19533222D01*
X3967801Y-19533222D02*
X3967801Y-19637984D01*
X3967801Y-19533222D02*
X3977324Y-19514174D01*
X3977324Y-19514174D02*
X3996372Y-19504650D01*
X3996372Y-19504650D02*
X4024943Y-19504650D01*
X4024943Y-19504650D02*
X4043991Y-19514174D01*
X4043991Y-19514174D02*
X4053515Y-19533222D01*
X4053515Y-19533222D02*
X4053515Y-19637984D01*
X4443991Y-19428460D02*
X4272563Y-19685603D01*
X4701134Y-19437984D02*
X4720182Y-19437984D01*
X4720182Y-19437984D02*
X4739229Y-19447508D01*
X4739229Y-19447508D02*
X4748753Y-19457031D01*
X4748753Y-19457031D02*
X4758277Y-19476079D01*
X4758277Y-19476079D02*
X4767801Y-19514174D01*
X4767801Y-19514174D02*
X4767801Y-19561793D01*
X4767801Y-19561793D02*
X4758277Y-19599889D01*
X4758277Y-19599889D02*
X4748753Y-19618936D01*
X4748753Y-19618936D02*
X4739229Y-19628460D01*
X4739229Y-19628460D02*
X4720182Y-19637984D01*
X4720182Y-19637984D02*
X4701134Y-19637984D01*
X4701134Y-19637984D02*
X4682087Y-19628460D01*
X4682087Y-19628460D02*
X4672563Y-19618936D01*
X4672563Y-19618936D02*
X4663039Y-19599889D01*
X4663039Y-19599889D02*
X4653515Y-19561793D01*
X4653515Y-19561793D02*
X4653515Y-19514174D01*
X4653515Y-19514174D02*
X4663039Y-19476079D01*
X4663039Y-19476079D02*
X4672563Y-19457031D01*
X4672563Y-19457031D02*
X4682087Y-19447508D01*
X4682087Y-19447508D02*
X4701134Y-19437984D01*
X4853515Y-19618936D02*
X4863039Y-19628460D01*
X4863039Y-19628460D02*
X4853515Y-19637984D01*
X4853515Y-19637984D02*
X4843991Y-19628460D01*
X4843991Y-19628460D02*
X4853515Y-19618936D01*
X4853515Y-19618936D02*
X4853515Y-19637984D01*
X4986848Y-19437984D02*
X5005896Y-19437984D01*
X5005896Y-19437984D02*
X5024944Y-19447508D01*
X5024944Y-19447508D02*
X5034468Y-19457031D01*
X5034468Y-19457031D02*
X5043991Y-19476079D01*
X5043991Y-19476079D02*
X5053515Y-19514174D01*
X5053515Y-19514174D02*
X5053515Y-19561793D01*
X5053515Y-19561793D02*
X5043991Y-19599889D01*
X5043991Y-19599889D02*
X5034468Y-19618936D01*
X5034468Y-19618936D02*
X5024944Y-19628460D01*
X5024944Y-19628460D02*
X5005896Y-19637984D01*
X5005896Y-19637984D02*
X4986848Y-19637984D01*
X4986848Y-19637984D02*
X4967801Y-19628460D01*
X4967801Y-19628460D02*
X4958277Y-19618936D01*
X4958277Y-19618936D02*
X4948753Y-19599889D01*
X4948753Y-19599889D02*
X4939229Y-19561793D01*
X4939229Y-19561793D02*
X4939229Y-19514174D01*
X4939229Y-19514174D02*
X4948753Y-19476079D01*
X4948753Y-19476079D02*
X4958277Y-19457031D01*
X4958277Y-19457031D02*
X4967801Y-19447508D01*
X4967801Y-19447508D02*
X4986848Y-19437984D01*
X5120182Y-19437984D02*
X5253515Y-19437984D01*
X5253515Y-19437984D02*
X5167801Y-19637984D01*
X5367801Y-19437984D02*
X5386849Y-19437984D01*
X5386849Y-19437984D02*
X5405896Y-19447508D01*
X5405896Y-19447508D02*
X5415420Y-19457031D01*
X5415420Y-19457031D02*
X5424944Y-19476079D01*
X5424944Y-19476079D02*
X5434468Y-19514174D01*
X5434468Y-19514174D02*
X5434468Y-19561793D01*
X5434468Y-19561793D02*
X5424944Y-19599889D01*
X5424944Y-19599889D02*
X5415420Y-19618936D01*
X5415420Y-19618936D02*
X5405896Y-19628460D01*
X5405896Y-19628460D02*
X5386849Y-19637984D01*
X5386849Y-19637984D02*
X5367801Y-19637984D01*
X5367801Y-19637984D02*
X5348753Y-19628460D01*
X5348753Y-19628460D02*
X5339229Y-19618936D01*
X5339229Y-19618936D02*
X5329706Y-19599889D01*
X5329706Y-19599889D02*
X5320182Y-19561793D01*
X5320182Y-19561793D02*
X5320182Y-19514174D01*
X5320182Y-19514174D02*
X5329706Y-19476079D01*
X5329706Y-19476079D02*
X5339229Y-19457031D01*
X5339229Y-19457031D02*
X5348753Y-19447508D01*
X5348753Y-19447508D02*
X5367801Y-19437984D01*
X5529706Y-19637984D02*
X5567801Y-19637984D01*
X5567801Y-19637984D02*
X5586849Y-19628460D01*
X5586849Y-19628460D02*
X5596372Y-19618936D01*
X5596372Y-19618936D02*
X5615420Y-19590365D01*
X5615420Y-19590365D02*
X5624944Y-19552270D01*
X5624944Y-19552270D02*
X5624944Y-19476079D01*
X5624944Y-19476079D02*
X5615420Y-19457031D01*
X5615420Y-19457031D02*
X5605896Y-19447508D01*
X5605896Y-19447508D02*
X5586849Y-19437984D01*
X5586849Y-19437984D02*
X5548753Y-19437984D01*
X5548753Y-19437984D02*
X5529706Y-19447508D01*
X5529706Y-19447508D02*
X5520182Y-19457031D01*
X5520182Y-19457031D02*
X5510658Y-19476079D01*
X5510658Y-19476079D02*
X5510658Y-19523698D01*
X5510658Y-19523698D02*
X5520182Y-19542746D01*
X5520182Y-19542746D02*
X5529706Y-19552270D01*
X5529706Y-19552270D02*
X5548753Y-19561793D01*
X5548753Y-19561793D02*
X5586849Y-19561793D01*
X5586849Y-19561793D02*
X5605896Y-19552270D01*
X5605896Y-19552270D02*
X5615420Y-19542746D01*
X5615420Y-19542746D02*
X5624944Y-19523698D01*
X5701134Y-19437984D02*
X5701134Y-19476079D01*
X5777325Y-19437984D02*
X5777325Y-19476079D01*
X6072563Y-19714174D02*
X6063039Y-19704650D01*
X6063039Y-19704650D02*
X6043991Y-19676079D01*
X6043991Y-19676079D02*
X6034468Y-19657031D01*
X6034468Y-19657031D02*
X6024944Y-19628460D01*
X6024944Y-19628460D02*
X6015420Y-19580841D01*
X6015420Y-19580841D02*
X6015420Y-19542746D01*
X6015420Y-19542746D02*
X6024944Y-19495127D01*
X6024944Y-19495127D02*
X6034468Y-19466555D01*
X6034468Y-19466555D02*
X6043991Y-19447508D01*
X6043991Y-19447508D02*
X6063039Y-19418936D01*
X6063039Y-19418936D02*
X6072563Y-19409412D01*
X6253515Y-19637984D02*
X6139229Y-19637984D01*
X6196372Y-19637984D02*
X6196372Y-19437984D01*
X6196372Y-19437984D02*
X6177325Y-19466555D01*
X6177325Y-19466555D02*
X6158277Y-19485603D01*
X6158277Y-19485603D02*
X6139229Y-19495127D01*
X6377325Y-19437984D02*
X6396372Y-19437984D01*
X6396372Y-19437984D02*
X6415420Y-19447508D01*
X6415420Y-19447508D02*
X6424944Y-19457031D01*
X6424944Y-19457031D02*
X6434468Y-19476079D01*
X6434468Y-19476079D02*
X6443991Y-19514174D01*
X6443991Y-19514174D02*
X6443991Y-19561793D01*
X6443991Y-19561793D02*
X6434468Y-19599889D01*
X6434468Y-19599889D02*
X6424944Y-19618936D01*
X6424944Y-19618936D02*
X6415420Y-19628460D01*
X6415420Y-19628460D02*
X6396372Y-19637984D01*
X6396372Y-19637984D02*
X6377325Y-19637984D01*
X6377325Y-19637984D02*
X6358277Y-19628460D01*
X6358277Y-19628460D02*
X6348753Y-19618936D01*
X6348753Y-19618936D02*
X6339229Y-19599889D01*
X6339229Y-19599889D02*
X6329706Y-19561793D01*
X6329706Y-19561793D02*
X6329706Y-19514174D01*
X6329706Y-19514174D02*
X6339229Y-19476079D01*
X6339229Y-19476079D02*
X6348753Y-19457031D01*
X6348753Y-19457031D02*
X6358277Y-19447508D01*
X6358277Y-19447508D02*
X6377325Y-19437984D01*
X6682087Y-19637984D02*
X6682087Y-19437984D01*
X6767801Y-19637984D02*
X6767801Y-19533222D01*
X6767801Y-19533222D02*
X6758277Y-19514174D01*
X6758277Y-19514174D02*
X6739230Y-19504650D01*
X6739230Y-19504650D02*
X6710658Y-19504650D01*
X6710658Y-19504650D02*
X6691610Y-19514174D01*
X6691610Y-19514174D02*
X6682087Y-19523698D01*
X6891610Y-19637984D02*
X6872563Y-19628460D01*
X6872563Y-19628460D02*
X6863039Y-19618936D01*
X6863039Y-19618936D02*
X6853515Y-19599889D01*
X6853515Y-19599889D02*
X6853515Y-19542746D01*
X6853515Y-19542746D02*
X6863039Y-19523698D01*
X6863039Y-19523698D02*
X6872563Y-19514174D01*
X6872563Y-19514174D02*
X6891610Y-19504650D01*
X6891610Y-19504650D02*
X6920182Y-19504650D01*
X6920182Y-19504650D02*
X6939230Y-19514174D01*
X6939230Y-19514174D02*
X6948753Y-19523698D01*
X6948753Y-19523698D02*
X6958277Y-19542746D01*
X6958277Y-19542746D02*
X6958277Y-19599889D01*
X6958277Y-19599889D02*
X6948753Y-19618936D01*
X6948753Y-19618936D02*
X6939230Y-19628460D01*
X6939230Y-19628460D02*
X6920182Y-19637984D01*
X6920182Y-19637984D02*
X6891610Y-19637984D01*
X7072563Y-19637984D02*
X7053515Y-19628460D01*
X7053515Y-19628460D02*
X7043991Y-19609412D01*
X7043991Y-19609412D02*
X7043991Y-19437984D01*
X7224944Y-19628460D02*
X7205896Y-19637984D01*
X7205896Y-19637984D02*
X7167801Y-19637984D01*
X7167801Y-19637984D02*
X7148753Y-19628460D01*
X7148753Y-19628460D02*
X7139230Y-19609412D01*
X7139230Y-19609412D02*
X7139230Y-19533222D01*
X7139230Y-19533222D02*
X7148753Y-19514174D01*
X7148753Y-19514174D02*
X7167801Y-19504650D01*
X7167801Y-19504650D02*
X7205896Y-19504650D01*
X7205896Y-19504650D02*
X7224944Y-19514174D01*
X7224944Y-19514174D02*
X7234468Y-19533222D01*
X7234468Y-19533222D02*
X7234468Y-19552270D01*
X7234468Y-19552270D02*
X7139230Y-19571317D01*
X7310658Y-19628460D02*
X7329706Y-19637984D01*
X7329706Y-19637984D02*
X7367801Y-19637984D01*
X7367801Y-19637984D02*
X7386849Y-19628460D01*
X7386849Y-19628460D02*
X7396372Y-19609412D01*
X7396372Y-19609412D02*
X7396372Y-19599889D01*
X7396372Y-19599889D02*
X7386849Y-19580841D01*
X7386849Y-19580841D02*
X7367801Y-19571317D01*
X7367801Y-19571317D02*
X7339230Y-19571317D01*
X7339230Y-19571317D02*
X7320182Y-19561793D01*
X7320182Y-19561793D02*
X7310658Y-19542746D01*
X7310658Y-19542746D02*
X7310658Y-19533222D01*
X7310658Y-19533222D02*
X7320182Y-19514174D01*
X7320182Y-19514174D02*
X7339230Y-19504650D01*
X7339230Y-19504650D02*
X7367801Y-19504650D01*
X7367801Y-19504650D02*
X7386849Y-19514174D01*
X7463039Y-19714174D02*
X7472563Y-19704650D01*
X7472563Y-19704650D02*
X7491611Y-19676079D01*
X7491611Y-19676079D02*
X7501134Y-19657031D01*
X7501134Y-19657031D02*
X7510658Y-19628460D01*
X7510658Y-19628460D02*
X7520182Y-19580841D01*
X7520182Y-19580841D02*
X7520182Y-19542746D01*
X7520182Y-19542746D02*
X7510658Y-19495127D01*
X7510658Y-19495127D02*
X7501134Y-19466555D01*
X7501134Y-19466555D02*
X7491611Y-19447508D01*
X7491611Y-19447508D02*
X7472563Y-19418936D01*
X7472563Y-19418936D02*
X7463039Y-19409412D01*
M02*
