%TF.GenerationSoftware,KiCad,Pcbnew,8.0.1*%
%TF.CreationDate,2024-04-11T22:24:42-04:00*%
%TF.ProjectId,Headlight Controller,48656164-6c69-4676-9874-20436f6e7472,2.1*%
%TF.SameCoordinates,Original*%
%TF.FileFunction,Drillmap*%
%TF.FilePolarity,Positive*%
%FSLAX45Y45*%
G04 Gerber Fmt 4.5, Leading zero omitted, Abs format (unit mm)*
G04 Created by KiCad (PCBNEW 8.0.1) date 2024-04-11 22:24:42*
%MOMM*%
%LPD*%
G01*
G04 APERTURE LIST*
%ADD10C,0.050000*%
%ADD11C,0.200000*%
%ADD12C,0.299999*%
G04 APERTURE END LIST*
D10*
X19200000Y-15000000D02*
G75*
G02*
X18800000Y-15000000I-200000J0D01*
G01*
X18800000Y-15000000D02*
G75*
G02*
X19200000Y-15000000I200000J0D01*
G01*
X3200000Y-6000000D02*
G75*
G02*
X2800000Y-6000000I-200000J0D01*
G01*
X2800000Y-6000000D02*
G75*
G02*
X3200000Y-6000000I200000J0D01*
G01*
X19200000Y-6000000D02*
G75*
G02*
X18800000Y-6000000I-200000J0D01*
G01*
X18800000Y-6000000D02*
G75*
G02*
X19200000Y-6000000I200000J0D01*
G01*
X3200000Y-15000000D02*
G75*
G02*
X2800000Y-15000000I-200000J0D01*
G01*
X2800000Y-15000000D02*
G75*
G02*
X3200000Y-15000000I200000J0D01*
G01*
X19500000Y-5000000D02*
X19500000Y-16000000D01*
X19500000Y-16000000D02*
X2500000Y-16000000D01*
X2500000Y-16000000D02*
X2500000Y-5000000D01*
X2500000Y-5000000D02*
X19500000Y-5000000D01*
D11*
D12*
X4309750Y-10610002D02*
X4609750Y-10910002D01*
X4609750Y-10610002D02*
X4309750Y-10910002D01*
X4309750Y-11450000D02*
X4609750Y-11750000D01*
X4609750Y-11450000D02*
X4309750Y-11750000D01*
X17190250Y-10675400D02*
X17490250Y-10975400D01*
X17490250Y-10675400D02*
X17190250Y-10975400D01*
D11*
X2758277Y-16313984D02*
X2758277Y-16113984D01*
X2758277Y-16113984D02*
X2805896Y-16113984D01*
X2805896Y-16113984D02*
X2834467Y-16123508D01*
X2834467Y-16123508D02*
X2853515Y-16142555D01*
X2853515Y-16142555D02*
X2863039Y-16161603D01*
X2863039Y-16161603D02*
X2872562Y-16199698D01*
X2872562Y-16199698D02*
X2872562Y-16228269D01*
X2872562Y-16228269D02*
X2863039Y-16266365D01*
X2863039Y-16266365D02*
X2853515Y-16285412D01*
X2853515Y-16285412D02*
X2834467Y-16304460D01*
X2834467Y-16304460D02*
X2805896Y-16313984D01*
X2805896Y-16313984D02*
X2758277Y-16313984D01*
X2958277Y-16313984D02*
X2958277Y-16180650D01*
X2958277Y-16218746D02*
X2967801Y-16199698D01*
X2967801Y-16199698D02*
X2977324Y-16190174D01*
X2977324Y-16190174D02*
X2996372Y-16180650D01*
X2996372Y-16180650D02*
X3015420Y-16180650D01*
X3082086Y-16313984D02*
X3082086Y-16180650D01*
X3082086Y-16113984D02*
X3072562Y-16123508D01*
X3072562Y-16123508D02*
X3082086Y-16133031D01*
X3082086Y-16133031D02*
X3091610Y-16123508D01*
X3091610Y-16123508D02*
X3082086Y-16113984D01*
X3082086Y-16113984D02*
X3082086Y-16133031D01*
X3205896Y-16313984D02*
X3186848Y-16304460D01*
X3186848Y-16304460D02*
X3177324Y-16285412D01*
X3177324Y-16285412D02*
X3177324Y-16113984D01*
X3310658Y-16313984D02*
X3291610Y-16304460D01*
X3291610Y-16304460D02*
X3282086Y-16285412D01*
X3282086Y-16285412D02*
X3282086Y-16113984D01*
X3539229Y-16313984D02*
X3539229Y-16113984D01*
X3539229Y-16113984D02*
X3605896Y-16256841D01*
X3605896Y-16256841D02*
X3672562Y-16113984D01*
X3672562Y-16113984D02*
X3672562Y-16313984D01*
X3853515Y-16313984D02*
X3853515Y-16209222D01*
X3853515Y-16209222D02*
X3843991Y-16190174D01*
X3843991Y-16190174D02*
X3824943Y-16180650D01*
X3824943Y-16180650D02*
X3786848Y-16180650D01*
X3786848Y-16180650D02*
X3767801Y-16190174D01*
X3853515Y-16304460D02*
X3834467Y-16313984D01*
X3834467Y-16313984D02*
X3786848Y-16313984D01*
X3786848Y-16313984D02*
X3767801Y-16304460D01*
X3767801Y-16304460D02*
X3758277Y-16285412D01*
X3758277Y-16285412D02*
X3758277Y-16266365D01*
X3758277Y-16266365D02*
X3767801Y-16247317D01*
X3767801Y-16247317D02*
X3786848Y-16237793D01*
X3786848Y-16237793D02*
X3834467Y-16237793D01*
X3834467Y-16237793D02*
X3853515Y-16228269D01*
X3948753Y-16180650D02*
X3948753Y-16380650D01*
X3948753Y-16190174D02*
X3967801Y-16180650D01*
X3967801Y-16180650D02*
X4005896Y-16180650D01*
X4005896Y-16180650D02*
X4024943Y-16190174D01*
X4024943Y-16190174D02*
X4034467Y-16199698D01*
X4034467Y-16199698D02*
X4043991Y-16218746D01*
X4043991Y-16218746D02*
X4043991Y-16275888D01*
X4043991Y-16275888D02*
X4034467Y-16294936D01*
X4034467Y-16294936D02*
X4024943Y-16304460D01*
X4024943Y-16304460D02*
X4005896Y-16313984D01*
X4005896Y-16313984D02*
X3967801Y-16313984D01*
X3967801Y-16313984D02*
X3948753Y-16304460D01*
X4129705Y-16294936D02*
X4139229Y-16304460D01*
X4139229Y-16304460D02*
X4129705Y-16313984D01*
X4129705Y-16313984D02*
X4120182Y-16304460D01*
X4120182Y-16304460D02*
X4129705Y-16294936D01*
X4129705Y-16294936D02*
X4129705Y-16313984D01*
X4129705Y-16190174D02*
X4139229Y-16199698D01*
X4139229Y-16199698D02*
X4129705Y-16209222D01*
X4129705Y-16209222D02*
X4120182Y-16199698D01*
X4120182Y-16199698D02*
X4129705Y-16190174D01*
X4129705Y-16190174D02*
X4129705Y-16209222D01*
X2297500Y-16542500D02*
X2497500Y-16742500D01*
X2497500Y-16542500D02*
X2297500Y-16742500D01*
X2739229Y-16533984D02*
X2863039Y-16533984D01*
X2863039Y-16533984D02*
X2796372Y-16610174D01*
X2796372Y-16610174D02*
X2824943Y-16610174D01*
X2824943Y-16610174D02*
X2843991Y-16619698D01*
X2843991Y-16619698D02*
X2853515Y-16629222D01*
X2853515Y-16629222D02*
X2863039Y-16648269D01*
X2863039Y-16648269D02*
X2863039Y-16695888D01*
X2863039Y-16695888D02*
X2853515Y-16714936D01*
X2853515Y-16714936D02*
X2843991Y-16724460D01*
X2843991Y-16724460D02*
X2824943Y-16733984D01*
X2824943Y-16733984D02*
X2767801Y-16733984D01*
X2767801Y-16733984D02*
X2748753Y-16724460D01*
X2748753Y-16724460D02*
X2739229Y-16714936D01*
X2948753Y-16714936D02*
X2958277Y-16724460D01*
X2958277Y-16724460D02*
X2948753Y-16733984D01*
X2948753Y-16733984D02*
X2939229Y-16724460D01*
X2939229Y-16724460D02*
X2948753Y-16714936D01*
X2948753Y-16714936D02*
X2948753Y-16733984D01*
X3082086Y-16533984D02*
X3101134Y-16533984D01*
X3101134Y-16533984D02*
X3120182Y-16543508D01*
X3120182Y-16543508D02*
X3129705Y-16553031D01*
X3129705Y-16553031D02*
X3139229Y-16572079D01*
X3139229Y-16572079D02*
X3148753Y-16610174D01*
X3148753Y-16610174D02*
X3148753Y-16657793D01*
X3148753Y-16657793D02*
X3139229Y-16695888D01*
X3139229Y-16695888D02*
X3129705Y-16714936D01*
X3129705Y-16714936D02*
X3120182Y-16724460D01*
X3120182Y-16724460D02*
X3101134Y-16733984D01*
X3101134Y-16733984D02*
X3082086Y-16733984D01*
X3082086Y-16733984D02*
X3063039Y-16724460D01*
X3063039Y-16724460D02*
X3053515Y-16714936D01*
X3053515Y-16714936D02*
X3043991Y-16695888D01*
X3043991Y-16695888D02*
X3034467Y-16657793D01*
X3034467Y-16657793D02*
X3034467Y-16610174D01*
X3034467Y-16610174D02*
X3043991Y-16572079D01*
X3043991Y-16572079D02*
X3053515Y-16553031D01*
X3053515Y-16553031D02*
X3063039Y-16543508D01*
X3063039Y-16543508D02*
X3082086Y-16533984D01*
X3272562Y-16533984D02*
X3291610Y-16533984D01*
X3291610Y-16533984D02*
X3310658Y-16543508D01*
X3310658Y-16543508D02*
X3320182Y-16553031D01*
X3320182Y-16553031D02*
X3329705Y-16572079D01*
X3329705Y-16572079D02*
X3339229Y-16610174D01*
X3339229Y-16610174D02*
X3339229Y-16657793D01*
X3339229Y-16657793D02*
X3329705Y-16695888D01*
X3329705Y-16695888D02*
X3320182Y-16714936D01*
X3320182Y-16714936D02*
X3310658Y-16724460D01*
X3310658Y-16724460D02*
X3291610Y-16733984D01*
X3291610Y-16733984D02*
X3272562Y-16733984D01*
X3272562Y-16733984D02*
X3253515Y-16724460D01*
X3253515Y-16724460D02*
X3243991Y-16714936D01*
X3243991Y-16714936D02*
X3234467Y-16695888D01*
X3234467Y-16695888D02*
X3224943Y-16657793D01*
X3224943Y-16657793D02*
X3224943Y-16610174D01*
X3224943Y-16610174D02*
X3234467Y-16572079D01*
X3234467Y-16572079D02*
X3243991Y-16553031D01*
X3243991Y-16553031D02*
X3253515Y-16543508D01*
X3253515Y-16543508D02*
X3272562Y-16533984D01*
X3463039Y-16533984D02*
X3482086Y-16533984D01*
X3482086Y-16533984D02*
X3501134Y-16543508D01*
X3501134Y-16543508D02*
X3510658Y-16553031D01*
X3510658Y-16553031D02*
X3520182Y-16572079D01*
X3520182Y-16572079D02*
X3529705Y-16610174D01*
X3529705Y-16610174D02*
X3529705Y-16657793D01*
X3529705Y-16657793D02*
X3520182Y-16695888D01*
X3520182Y-16695888D02*
X3510658Y-16714936D01*
X3510658Y-16714936D02*
X3501134Y-16724460D01*
X3501134Y-16724460D02*
X3482086Y-16733984D01*
X3482086Y-16733984D02*
X3463039Y-16733984D01*
X3463039Y-16733984D02*
X3443991Y-16724460D01*
X3443991Y-16724460D02*
X3434467Y-16714936D01*
X3434467Y-16714936D02*
X3424943Y-16695888D01*
X3424943Y-16695888D02*
X3415420Y-16657793D01*
X3415420Y-16657793D02*
X3415420Y-16610174D01*
X3415420Y-16610174D02*
X3424943Y-16572079D01*
X3424943Y-16572079D02*
X3434467Y-16553031D01*
X3434467Y-16553031D02*
X3443991Y-16543508D01*
X3443991Y-16543508D02*
X3463039Y-16533984D01*
X3615420Y-16733984D02*
X3615420Y-16600650D01*
X3615420Y-16619698D02*
X3624943Y-16610174D01*
X3624943Y-16610174D02*
X3643991Y-16600650D01*
X3643991Y-16600650D02*
X3672563Y-16600650D01*
X3672563Y-16600650D02*
X3691610Y-16610174D01*
X3691610Y-16610174D02*
X3701134Y-16629222D01*
X3701134Y-16629222D02*
X3701134Y-16733984D01*
X3701134Y-16629222D02*
X3710658Y-16610174D01*
X3710658Y-16610174D02*
X3729705Y-16600650D01*
X3729705Y-16600650D02*
X3758277Y-16600650D01*
X3758277Y-16600650D02*
X3777324Y-16610174D01*
X3777324Y-16610174D02*
X3786848Y-16629222D01*
X3786848Y-16629222D02*
X3786848Y-16733984D01*
X3882086Y-16733984D02*
X3882086Y-16600650D01*
X3882086Y-16619698D02*
X3891610Y-16610174D01*
X3891610Y-16610174D02*
X3910658Y-16600650D01*
X3910658Y-16600650D02*
X3939229Y-16600650D01*
X3939229Y-16600650D02*
X3958277Y-16610174D01*
X3958277Y-16610174D02*
X3967801Y-16629222D01*
X3967801Y-16629222D02*
X3967801Y-16733984D01*
X3967801Y-16629222D02*
X3977324Y-16610174D01*
X3977324Y-16610174D02*
X3996372Y-16600650D01*
X3996372Y-16600650D02*
X4024943Y-16600650D01*
X4024943Y-16600650D02*
X4043991Y-16610174D01*
X4043991Y-16610174D02*
X4053515Y-16629222D01*
X4053515Y-16629222D02*
X4053515Y-16733984D01*
X4443991Y-16524460D02*
X4272563Y-16781603D01*
X4701134Y-16533984D02*
X4720182Y-16533984D01*
X4720182Y-16533984D02*
X4739229Y-16543508D01*
X4739229Y-16543508D02*
X4748753Y-16553031D01*
X4748753Y-16553031D02*
X4758277Y-16572079D01*
X4758277Y-16572079D02*
X4767801Y-16610174D01*
X4767801Y-16610174D02*
X4767801Y-16657793D01*
X4767801Y-16657793D02*
X4758277Y-16695888D01*
X4758277Y-16695888D02*
X4748753Y-16714936D01*
X4748753Y-16714936D02*
X4739229Y-16724460D01*
X4739229Y-16724460D02*
X4720182Y-16733984D01*
X4720182Y-16733984D02*
X4701134Y-16733984D01*
X4701134Y-16733984D02*
X4682087Y-16724460D01*
X4682087Y-16724460D02*
X4672563Y-16714936D01*
X4672563Y-16714936D02*
X4663039Y-16695888D01*
X4663039Y-16695888D02*
X4653515Y-16657793D01*
X4653515Y-16657793D02*
X4653515Y-16610174D01*
X4653515Y-16610174D02*
X4663039Y-16572079D01*
X4663039Y-16572079D02*
X4672563Y-16553031D01*
X4672563Y-16553031D02*
X4682087Y-16543508D01*
X4682087Y-16543508D02*
X4701134Y-16533984D01*
X4853515Y-16714936D02*
X4863039Y-16724460D01*
X4863039Y-16724460D02*
X4853515Y-16733984D01*
X4853515Y-16733984D02*
X4843991Y-16724460D01*
X4843991Y-16724460D02*
X4853515Y-16714936D01*
X4853515Y-16714936D02*
X4853515Y-16733984D01*
X5053515Y-16733984D02*
X4939229Y-16733984D01*
X4996372Y-16733984D02*
X4996372Y-16533984D01*
X4996372Y-16533984D02*
X4977325Y-16562555D01*
X4977325Y-16562555D02*
X4958277Y-16581603D01*
X4958277Y-16581603D02*
X4939229Y-16591127D01*
X5243991Y-16733984D02*
X5129706Y-16733984D01*
X5186848Y-16733984D02*
X5186848Y-16533984D01*
X5186848Y-16533984D02*
X5167801Y-16562555D01*
X5167801Y-16562555D02*
X5148753Y-16581603D01*
X5148753Y-16581603D02*
X5129706Y-16591127D01*
X5358277Y-16619698D02*
X5339229Y-16610174D01*
X5339229Y-16610174D02*
X5329706Y-16600650D01*
X5329706Y-16600650D02*
X5320182Y-16581603D01*
X5320182Y-16581603D02*
X5320182Y-16572079D01*
X5320182Y-16572079D02*
X5329706Y-16553031D01*
X5329706Y-16553031D02*
X5339229Y-16543508D01*
X5339229Y-16543508D02*
X5358277Y-16533984D01*
X5358277Y-16533984D02*
X5396372Y-16533984D01*
X5396372Y-16533984D02*
X5415420Y-16543508D01*
X5415420Y-16543508D02*
X5424944Y-16553031D01*
X5424944Y-16553031D02*
X5434468Y-16572079D01*
X5434468Y-16572079D02*
X5434468Y-16581603D01*
X5434468Y-16581603D02*
X5424944Y-16600650D01*
X5424944Y-16600650D02*
X5415420Y-16610174D01*
X5415420Y-16610174D02*
X5396372Y-16619698D01*
X5396372Y-16619698D02*
X5358277Y-16619698D01*
X5358277Y-16619698D02*
X5339229Y-16629222D01*
X5339229Y-16629222D02*
X5329706Y-16638746D01*
X5329706Y-16638746D02*
X5320182Y-16657793D01*
X5320182Y-16657793D02*
X5320182Y-16695888D01*
X5320182Y-16695888D02*
X5329706Y-16714936D01*
X5329706Y-16714936D02*
X5339229Y-16724460D01*
X5339229Y-16724460D02*
X5358277Y-16733984D01*
X5358277Y-16733984D02*
X5396372Y-16733984D01*
X5396372Y-16733984D02*
X5415420Y-16724460D01*
X5415420Y-16724460D02*
X5424944Y-16714936D01*
X5424944Y-16714936D02*
X5434468Y-16695888D01*
X5434468Y-16695888D02*
X5434468Y-16657793D01*
X5434468Y-16657793D02*
X5424944Y-16638746D01*
X5424944Y-16638746D02*
X5415420Y-16629222D01*
X5415420Y-16629222D02*
X5396372Y-16619698D01*
X5624944Y-16733984D02*
X5510658Y-16733984D01*
X5567801Y-16733984D02*
X5567801Y-16533984D01*
X5567801Y-16533984D02*
X5548753Y-16562555D01*
X5548753Y-16562555D02*
X5529706Y-16581603D01*
X5529706Y-16581603D02*
X5510658Y-16591127D01*
X5701134Y-16533984D02*
X5701134Y-16572079D01*
X5777325Y-16533984D02*
X5777325Y-16572079D01*
X6072563Y-16810174D02*
X6063039Y-16800650D01*
X6063039Y-16800650D02*
X6043991Y-16772079D01*
X6043991Y-16772079D02*
X6034468Y-16753031D01*
X6034468Y-16753031D02*
X6024944Y-16724460D01*
X6024944Y-16724460D02*
X6015420Y-16676841D01*
X6015420Y-16676841D02*
X6015420Y-16638746D01*
X6015420Y-16638746D02*
X6024944Y-16591127D01*
X6024944Y-16591127D02*
X6034468Y-16562555D01*
X6034468Y-16562555D02*
X6043991Y-16543508D01*
X6043991Y-16543508D02*
X6063039Y-16514936D01*
X6063039Y-16514936D02*
X6072563Y-16505412D01*
X6129706Y-16533984D02*
X6253515Y-16533984D01*
X6253515Y-16533984D02*
X6186848Y-16610174D01*
X6186848Y-16610174D02*
X6215420Y-16610174D01*
X6215420Y-16610174D02*
X6234468Y-16619698D01*
X6234468Y-16619698D02*
X6243991Y-16629222D01*
X6243991Y-16629222D02*
X6253515Y-16648269D01*
X6253515Y-16648269D02*
X6253515Y-16695888D01*
X6253515Y-16695888D02*
X6243991Y-16714936D01*
X6243991Y-16714936D02*
X6234468Y-16724460D01*
X6234468Y-16724460D02*
X6215420Y-16733984D01*
X6215420Y-16733984D02*
X6158277Y-16733984D01*
X6158277Y-16733984D02*
X6139229Y-16724460D01*
X6139229Y-16724460D02*
X6129706Y-16714936D01*
X6491610Y-16733984D02*
X6491610Y-16533984D01*
X6577325Y-16733984D02*
X6577325Y-16629222D01*
X6577325Y-16629222D02*
X6567801Y-16610174D01*
X6567801Y-16610174D02*
X6548753Y-16600650D01*
X6548753Y-16600650D02*
X6520182Y-16600650D01*
X6520182Y-16600650D02*
X6501134Y-16610174D01*
X6501134Y-16610174D02*
X6491610Y-16619698D01*
X6701134Y-16733984D02*
X6682087Y-16724460D01*
X6682087Y-16724460D02*
X6672563Y-16714936D01*
X6672563Y-16714936D02*
X6663039Y-16695888D01*
X6663039Y-16695888D02*
X6663039Y-16638746D01*
X6663039Y-16638746D02*
X6672563Y-16619698D01*
X6672563Y-16619698D02*
X6682087Y-16610174D01*
X6682087Y-16610174D02*
X6701134Y-16600650D01*
X6701134Y-16600650D02*
X6729706Y-16600650D01*
X6729706Y-16600650D02*
X6748753Y-16610174D01*
X6748753Y-16610174D02*
X6758277Y-16619698D01*
X6758277Y-16619698D02*
X6767801Y-16638746D01*
X6767801Y-16638746D02*
X6767801Y-16695888D01*
X6767801Y-16695888D02*
X6758277Y-16714936D01*
X6758277Y-16714936D02*
X6748753Y-16724460D01*
X6748753Y-16724460D02*
X6729706Y-16733984D01*
X6729706Y-16733984D02*
X6701134Y-16733984D01*
X6882087Y-16733984D02*
X6863039Y-16724460D01*
X6863039Y-16724460D02*
X6853515Y-16705412D01*
X6853515Y-16705412D02*
X6853515Y-16533984D01*
X7034468Y-16724460D02*
X7015420Y-16733984D01*
X7015420Y-16733984D02*
X6977325Y-16733984D01*
X6977325Y-16733984D02*
X6958277Y-16724460D01*
X6958277Y-16724460D02*
X6948753Y-16705412D01*
X6948753Y-16705412D02*
X6948753Y-16629222D01*
X6948753Y-16629222D02*
X6958277Y-16610174D01*
X6958277Y-16610174D02*
X6977325Y-16600650D01*
X6977325Y-16600650D02*
X7015420Y-16600650D01*
X7015420Y-16600650D02*
X7034468Y-16610174D01*
X7034468Y-16610174D02*
X7043991Y-16629222D01*
X7043991Y-16629222D02*
X7043991Y-16648269D01*
X7043991Y-16648269D02*
X6948753Y-16667317D01*
X7120182Y-16724460D02*
X7139230Y-16733984D01*
X7139230Y-16733984D02*
X7177325Y-16733984D01*
X7177325Y-16733984D02*
X7196372Y-16724460D01*
X7196372Y-16724460D02*
X7205896Y-16705412D01*
X7205896Y-16705412D02*
X7205896Y-16695888D01*
X7205896Y-16695888D02*
X7196372Y-16676841D01*
X7196372Y-16676841D02*
X7177325Y-16667317D01*
X7177325Y-16667317D02*
X7148753Y-16667317D01*
X7148753Y-16667317D02*
X7129706Y-16657793D01*
X7129706Y-16657793D02*
X7120182Y-16638746D01*
X7120182Y-16638746D02*
X7120182Y-16629222D01*
X7120182Y-16629222D02*
X7129706Y-16610174D01*
X7129706Y-16610174D02*
X7148753Y-16600650D01*
X7148753Y-16600650D02*
X7177325Y-16600650D01*
X7177325Y-16600650D02*
X7196372Y-16610174D01*
X7272563Y-16810174D02*
X7282087Y-16800650D01*
X7282087Y-16800650D02*
X7301134Y-16772079D01*
X7301134Y-16772079D02*
X7310658Y-16753031D01*
X7310658Y-16753031D02*
X7320182Y-16724460D01*
X7320182Y-16724460D02*
X7329706Y-16676841D01*
X7329706Y-16676841D02*
X7329706Y-16638746D01*
X7329706Y-16638746D02*
X7320182Y-16591127D01*
X7320182Y-16591127D02*
X7310658Y-16562555D01*
X7310658Y-16562555D02*
X7301134Y-16543508D01*
X7301134Y-16543508D02*
X7282087Y-16514936D01*
X7282087Y-16514936D02*
X7272563Y-16505412D01*
X7634468Y-16810174D02*
X7624944Y-16800650D01*
X7624944Y-16800650D02*
X7605896Y-16772079D01*
X7605896Y-16772079D02*
X7596372Y-16753031D01*
X7596372Y-16753031D02*
X7586849Y-16724460D01*
X7586849Y-16724460D02*
X7577325Y-16676841D01*
X7577325Y-16676841D02*
X7577325Y-16638746D01*
X7577325Y-16638746D02*
X7586849Y-16591127D01*
X7586849Y-16591127D02*
X7596372Y-16562555D01*
X7596372Y-16562555D02*
X7605896Y-16543508D01*
X7605896Y-16543508D02*
X7624944Y-16514936D01*
X7624944Y-16514936D02*
X7634468Y-16505412D01*
X7710658Y-16600650D02*
X7710658Y-16733984D01*
X7710658Y-16619698D02*
X7720182Y-16610174D01*
X7720182Y-16610174D02*
X7739230Y-16600650D01*
X7739230Y-16600650D02*
X7767801Y-16600650D01*
X7767801Y-16600650D02*
X7786849Y-16610174D01*
X7786849Y-16610174D02*
X7796372Y-16629222D01*
X7796372Y-16629222D02*
X7796372Y-16733984D01*
X7920182Y-16733984D02*
X7901134Y-16724460D01*
X7901134Y-16724460D02*
X7891611Y-16714936D01*
X7891611Y-16714936D02*
X7882087Y-16695888D01*
X7882087Y-16695888D02*
X7882087Y-16638746D01*
X7882087Y-16638746D02*
X7891611Y-16619698D01*
X7891611Y-16619698D02*
X7901134Y-16610174D01*
X7901134Y-16610174D02*
X7920182Y-16600650D01*
X7920182Y-16600650D02*
X7948753Y-16600650D01*
X7948753Y-16600650D02*
X7967801Y-16610174D01*
X7967801Y-16610174D02*
X7977325Y-16619698D01*
X7977325Y-16619698D02*
X7986849Y-16638746D01*
X7986849Y-16638746D02*
X7986849Y-16695888D01*
X7986849Y-16695888D02*
X7977325Y-16714936D01*
X7977325Y-16714936D02*
X7967801Y-16724460D01*
X7967801Y-16724460D02*
X7948753Y-16733984D01*
X7948753Y-16733984D02*
X7920182Y-16733984D01*
X8043992Y-16600650D02*
X8120182Y-16600650D01*
X8072563Y-16533984D02*
X8072563Y-16705412D01*
X8072563Y-16705412D02*
X8082087Y-16724460D01*
X8082087Y-16724460D02*
X8101134Y-16733984D01*
X8101134Y-16733984D02*
X8120182Y-16733984D01*
X8339230Y-16600650D02*
X8339230Y-16800650D01*
X8339230Y-16610174D02*
X8358277Y-16600650D01*
X8358277Y-16600650D02*
X8396373Y-16600650D01*
X8396373Y-16600650D02*
X8415420Y-16610174D01*
X8415420Y-16610174D02*
X8424944Y-16619698D01*
X8424944Y-16619698D02*
X8434468Y-16638746D01*
X8434468Y-16638746D02*
X8434468Y-16695888D01*
X8434468Y-16695888D02*
X8424944Y-16714936D01*
X8424944Y-16714936D02*
X8415420Y-16724460D01*
X8415420Y-16724460D02*
X8396373Y-16733984D01*
X8396373Y-16733984D02*
X8358277Y-16733984D01*
X8358277Y-16733984D02*
X8339230Y-16724460D01*
X8548754Y-16733984D02*
X8529706Y-16724460D01*
X8529706Y-16724460D02*
X8520182Y-16705412D01*
X8520182Y-16705412D02*
X8520182Y-16533984D01*
X8710658Y-16733984D02*
X8710658Y-16629222D01*
X8710658Y-16629222D02*
X8701135Y-16610174D01*
X8701135Y-16610174D02*
X8682087Y-16600650D01*
X8682087Y-16600650D02*
X8643992Y-16600650D01*
X8643992Y-16600650D02*
X8624944Y-16610174D01*
X8710658Y-16724460D02*
X8691611Y-16733984D01*
X8691611Y-16733984D02*
X8643992Y-16733984D01*
X8643992Y-16733984D02*
X8624944Y-16724460D01*
X8624944Y-16724460D02*
X8615420Y-16705412D01*
X8615420Y-16705412D02*
X8615420Y-16686365D01*
X8615420Y-16686365D02*
X8624944Y-16667317D01*
X8624944Y-16667317D02*
X8643992Y-16657793D01*
X8643992Y-16657793D02*
X8691611Y-16657793D01*
X8691611Y-16657793D02*
X8710658Y-16648269D01*
X8777325Y-16600650D02*
X8853515Y-16600650D01*
X8805896Y-16533984D02*
X8805896Y-16705412D01*
X8805896Y-16705412D02*
X8815420Y-16724460D01*
X8815420Y-16724460D02*
X8834468Y-16733984D01*
X8834468Y-16733984D02*
X8853515Y-16733984D01*
X8996373Y-16724460D02*
X8977325Y-16733984D01*
X8977325Y-16733984D02*
X8939230Y-16733984D01*
X8939230Y-16733984D02*
X8920182Y-16724460D01*
X8920182Y-16724460D02*
X8910658Y-16705412D01*
X8910658Y-16705412D02*
X8910658Y-16629222D01*
X8910658Y-16629222D02*
X8920182Y-16610174D01*
X8920182Y-16610174D02*
X8939230Y-16600650D01*
X8939230Y-16600650D02*
X8977325Y-16600650D01*
X8977325Y-16600650D02*
X8996373Y-16610174D01*
X8996373Y-16610174D02*
X9005896Y-16629222D01*
X9005896Y-16629222D02*
X9005896Y-16648269D01*
X9005896Y-16648269D02*
X8910658Y-16667317D01*
X9177325Y-16733984D02*
X9177325Y-16533984D01*
X9177325Y-16724460D02*
X9158277Y-16733984D01*
X9158277Y-16733984D02*
X9120182Y-16733984D01*
X9120182Y-16733984D02*
X9101135Y-16724460D01*
X9101135Y-16724460D02*
X9091611Y-16714936D01*
X9091611Y-16714936D02*
X9082087Y-16695888D01*
X9082087Y-16695888D02*
X9082087Y-16638746D01*
X9082087Y-16638746D02*
X9091611Y-16619698D01*
X9091611Y-16619698D02*
X9101135Y-16610174D01*
X9101135Y-16610174D02*
X9120182Y-16600650D01*
X9120182Y-16600650D02*
X9158277Y-16600650D01*
X9158277Y-16600650D02*
X9177325Y-16610174D01*
X9253516Y-16810174D02*
X9263039Y-16800650D01*
X9263039Y-16800650D02*
X9282087Y-16772079D01*
X9282087Y-16772079D02*
X9291611Y-16753031D01*
X9291611Y-16753031D02*
X9301135Y-16724460D01*
X9301135Y-16724460D02*
X9310658Y-16676841D01*
X9310658Y-16676841D02*
X9310658Y-16638746D01*
X9310658Y-16638746D02*
X9301135Y-16591127D01*
X9301135Y-16591127D02*
X9291611Y-16562555D01*
X9291611Y-16562555D02*
X9282087Y-16543508D01*
X9282087Y-16543508D02*
X9263039Y-16514936D01*
X9263039Y-16514936D02*
X9253516Y-16505412D01*
M02*
