M48
; DRILL file {KiCad 8.0.1} date 2024-04-11T22:24:40-0400
; FORMAT={-:-/ absolute / inch / decimal}
; #@! TF.CreationDate,2024-04-11T22:24:40-04:00
; #@! TF.GenerationSoftware,Kicad,Pcbnew,8.0.1
; #@! TF.FileFunction,Plated,1,2,PTH
FMAT,2
INCH
; #@! TA.AperFunction,Plated,PTH,ViaDrill
T1C0.0118
; #@! TA.AperFunction,Plated,PTH,ComponentDrill
T2C0.0315
; #@! TA.AperFunction,Plated,PTH,ComponentDrill
T3C0.0394
; #@! TA.AperFunction,Plated,PTH,ComponentDrill
T4C0.0394
; #@! TA.AperFunction,Plated,PTH,ComponentDrill
T5C0.0400
; #@! TA.AperFunction,Plated,PTH,ComponentDrill
T6C0.0434
; #@! TA.AperFunction,Plated,PTH,ComponentDrill
T7C0.0472
; #@! TA.AperFunction,Plated,PTH,ComponentDrill
T8C0.0472
; #@! TA.AperFunction,Plated,PTH,ComponentDrill
T9C0.0550
; #@! TA.AperFunction,Plated,PTH,ComponentDrill
T10C0.0552
; #@! TA.AperFunction,Plated,PTH,ComponentDrill
T11C0.0709
%
G90
G05
T1
X1.8996Y-4.1831
X2.2441Y-3.8386
X3.7283Y-2.6102
X4.122Y-2.6102
X4.5079Y-3.6929
X5.0236Y-3.1654
X5.8228Y-2.8307
X6.5157Y-5.5
X6.874Y-3.0984
X6.874Y-4.685
X6.9685Y-5.4992
T2
X2.7559Y-2.9331
X2.7559Y-3.0118
X3.4055Y-2.9134
X3.4055Y-2.9921
X7.4372Y-2.7402
X7.4372Y-3.0591
X7.4372Y-3.3661
X7.4372Y-3.7008
X7.5372Y-2.7402
X7.5372Y-3.0591
X7.5372Y-3.3661
X7.5372Y-3.7008
T3
X3.5555Y-2.1362
X3.5555Y-2.7362
X3.6555Y-2.1362
X3.6555Y-2.7362
X3.7555Y-2.1362
X3.7555Y-2.7362
X3.8555Y-2.1362
X3.8555Y-2.7362
X3.9555Y-2.1362
X3.9555Y-2.7362
X4.0555Y-2.1362
X4.0555Y-2.7362
X4.1555Y-2.1362
X4.1555Y-2.7362
X4.2555Y-2.1362
X4.2555Y-2.7362
X4.3555Y-2.1362
X4.3555Y-2.7362
X4.4555Y-2.1362
X4.4555Y-2.7362
X4.5555Y-2.1362
X4.5555Y-2.7362
X4.6555Y-2.1362
X4.6555Y-2.7362
X4.7555Y-2.1362
X4.7555Y-2.7362
X4.8555Y-2.1362
X4.8555Y-2.7362
X4.9555Y-2.1362
X4.9555Y-2.7362
T4
X1.9654Y-3.1693
X2.3654Y-3.1693
X6.0787Y-3.3906
X6.0787Y-3.7906
X6.1102Y-4.422
X6.1102Y-4.822
X6.1614Y-5.5008
X6.1614Y-5.9008
X6.4528Y-2.5717
X6.4528Y-2.9717
T5
X6.6885Y-2.5174
X6.6942Y-5.8526
X6.7885Y-2.5174
X6.7942Y-5.8526
X6.8885Y-2.5174
X6.8942Y-5.8526
T6
X2.9834Y-2.8612
X3.0734Y-2.8612
X3.1634Y-2.8612
T7
X1.1654Y-3.2551
X1.1654Y-3.8551
X2.5543Y-3.3307
X2.5543Y-3.5276
X2.5594Y-3.8287
X2.7953Y-4.9362
X2.7953Y-5.5362
X3.1417Y-4.9354
X3.1417Y-5.5354
X3.1543Y-3.3307
X3.1543Y-3.5276
X3.1594Y-3.8287
X3.7642Y-3.1866
X3.7642Y-3.7866
X3.8819Y-4.2819
X3.8819Y-4.8819
X4.1575Y-2.9354
X4.1575Y-3.5354
X4.4002Y-4.9945
X4.4002Y-5.5945
X7.189Y-2.2276
X7.189Y-2.8276
X7.1929Y-2.9874
X7.1929Y-3.5874
X7.2362Y-5.4992
X7.2362Y-6.0992
X7.2402Y-4.6882
X7.2402Y-5.2882
T8
X1.4961Y-3.6598
X1.4961Y-3.7598
X1.4961Y-3.8598
X1.7913Y-3.6598
X1.7913Y-3.7598
X1.7913Y-3.8598
X3.3661Y-3.2252
X3.3661Y-3.3252
X3.3661Y-3.4252
X3.5039Y-5.1362
X3.5039Y-5.2362
X3.5039Y-5.3362
X4.1496Y-3.6937
X4.1496Y-3.7937
X4.1496Y-3.8937
X4.1925Y-4.778
X4.1925Y-4.878
X4.1925Y-4.978
X4.5472Y-3.3205
X4.5472Y-3.4205
X4.5472Y-3.5205
X4.6715Y-5.4937
X4.6715Y-5.5937
X4.6715Y-5.6937
T9
X1.9488Y-2.2402
X1.9488Y-2.7205
X2.185Y-2.7992
X2.4213Y-2.2402
X2.4213Y-2.7205
X5.1536Y-3.3465
X5.1536Y-3.8189
X5.1536Y-4.4699
X5.1536Y-4.9423
X5.3701Y-5.4449
X5.3701Y-5.9173
X5.6339Y-3.3465
X5.6339Y-3.8189
X5.6339Y-4.4699
X5.6339Y-4.9423
X5.6693Y-2.5079
X5.6693Y-2.9803
X5.7126Y-3.5827
X5.7126Y-4.7061
X5.8504Y-5.4449
X5.8504Y-5.9173
X5.9291Y-5.6811
X6.1496Y-2.5079
X6.1496Y-2.9803
X6.2283Y-2.7441
T10
X6.6885Y-3.3924
X6.6982Y-4.9776
X6.8845Y-3.3924
X6.8942Y-4.9776
T11
X2.0432Y-4.2362
X2.0432Y-4.4016
X2.0432Y-4.5669
X2.2597Y-4.2362
X2.2597Y-4.4016
X2.2597Y-4.5669
X6.3229Y-4.1793
X6.3229Y-4.3446
X6.5395Y-4.1793
X6.5395Y-4.3446
M30
