%TF.GenerationSoftware,KiCad,Pcbnew,8.0.1*%
%TF.CreationDate,2024-04-11T22:24:39-04:00*%
%TF.ProjectId,Headlight Controller,48656164-6c69-4676-9874-20436f6e7472,2.1*%
%TF.SameCoordinates,Original*%
%TF.FileFunction,Legend,Top*%
%TF.FilePolarity,Positive*%
%FSLAX46Y46*%
G04 Gerber Fmt 4.6, Leading zero omitted, Abs format (unit mm)*
G04 Created by KiCad (PCBNEW 8.0.1) date 2024-04-11 22:24:39*
%MOMM*%
%LPD*%
G01*
G04 APERTURE LIST*
%ADD10C,0.100000*%
%ADD11C,0.200000*%
%ADD12C,0.150000*%
%ADD13C,0.300000*%
%ADD14C,0.203200*%
%ADD15C,0.152400*%
%ADD16C,0.254000*%
%ADD17C,0.127000*%
%ADD18C,0.304800*%
%ADD19C,0.609600*%
%ADD20C,0.120000*%
G04 APERTURE END LIST*
D10*
X70700000Y-77900000D02*
X69200000Y-77900000D01*
X68349000Y-77294000D01*
X71651000Y-77294000D01*
X70700000Y-77900000D01*
G36*
X70700000Y-77900000D02*
G01*
X69200000Y-77900000D01*
X68349000Y-77294000D01*
X71651000Y-77294000D01*
X70700000Y-77900000D01*
G37*
X86988249Y-77454594D02*
X85744642Y-77374261D01*
X84849000Y-76794000D01*
X88151000Y-76794000D01*
X86988249Y-77454594D01*
G36*
X86988249Y-77454594D02*
G01*
X85744642Y-77374261D01*
X84849000Y-76794000D01*
X88151000Y-76794000D01*
X86988249Y-77454594D01*
G37*
D11*
X35600000Y-150800000D02*
X66250000Y-150800000D01*
X66250000Y-158000000D01*
X35600000Y-158000000D01*
X35600000Y-150800000D01*
X146803006Y-78406028D02*
X146088720Y-78406028D01*
X146088720Y-78406028D02*
X146017292Y-79120314D01*
X146017292Y-79120314D02*
X146088720Y-79048885D01*
X146088720Y-79048885D02*
X146231578Y-78977457D01*
X146231578Y-78977457D02*
X146588720Y-78977457D01*
X146588720Y-78977457D02*
X146731578Y-79048885D01*
X146731578Y-79048885D02*
X146803006Y-79120314D01*
X146803006Y-79120314D02*
X146874435Y-79263171D01*
X146874435Y-79263171D02*
X146874435Y-79620314D01*
X146874435Y-79620314D02*
X146803006Y-79763171D01*
X146803006Y-79763171D02*
X146731578Y-79834600D01*
X146731578Y-79834600D02*
X146588720Y-79906028D01*
X146588720Y-79906028D02*
X146231578Y-79906028D01*
X146231578Y-79906028D02*
X146088720Y-79834600D01*
X146088720Y-79834600D02*
X146017292Y-79763171D01*
X147303006Y-78406028D02*
X147803006Y-79906028D01*
X147803006Y-79906028D02*
X148303006Y-78406028D01*
X150803005Y-79906028D02*
X150303005Y-79191742D01*
X149945862Y-79906028D02*
X149945862Y-78406028D01*
X149945862Y-78406028D02*
X150517291Y-78406028D01*
X150517291Y-78406028D02*
X150660148Y-78477457D01*
X150660148Y-78477457D02*
X150731577Y-78548885D01*
X150731577Y-78548885D02*
X150803005Y-78691742D01*
X150803005Y-78691742D02*
X150803005Y-78906028D01*
X150803005Y-78906028D02*
X150731577Y-79048885D01*
X150731577Y-79048885D02*
X150660148Y-79120314D01*
X150660148Y-79120314D02*
X150517291Y-79191742D01*
X150517291Y-79191742D02*
X149945862Y-79191742D01*
X152017291Y-79834600D02*
X151874434Y-79906028D01*
X151874434Y-79906028D02*
X151588720Y-79906028D01*
X151588720Y-79906028D02*
X151445862Y-79834600D01*
X151445862Y-79834600D02*
X151374434Y-79691742D01*
X151374434Y-79691742D02*
X151374434Y-79120314D01*
X151374434Y-79120314D02*
X151445862Y-78977457D01*
X151445862Y-78977457D02*
X151588720Y-78906028D01*
X151588720Y-78906028D02*
X151874434Y-78906028D01*
X151874434Y-78906028D02*
X152017291Y-78977457D01*
X152017291Y-78977457D02*
X152088720Y-79120314D01*
X152088720Y-79120314D02*
X152088720Y-79263171D01*
X152088720Y-79263171D02*
X151374434Y-79406028D01*
X152945862Y-79906028D02*
X152803005Y-79834600D01*
X152803005Y-79834600D02*
X152731576Y-79691742D01*
X152731576Y-79691742D02*
X152731576Y-78406028D01*
X154160148Y-79906028D02*
X154160148Y-79120314D01*
X154160148Y-79120314D02*
X154088719Y-78977457D01*
X154088719Y-78977457D02*
X153945862Y-78906028D01*
X153945862Y-78906028D02*
X153660148Y-78906028D01*
X153660148Y-78906028D02*
X153517290Y-78977457D01*
X154160148Y-79834600D02*
X154017290Y-79906028D01*
X154017290Y-79906028D02*
X153660148Y-79906028D01*
X153660148Y-79906028D02*
X153517290Y-79834600D01*
X153517290Y-79834600D02*
X153445862Y-79691742D01*
X153445862Y-79691742D02*
X153445862Y-79548885D01*
X153445862Y-79548885D02*
X153517290Y-79406028D01*
X153517290Y-79406028D02*
X153660148Y-79334600D01*
X153660148Y-79334600D02*
X154017290Y-79334600D01*
X154017290Y-79334600D02*
X154160148Y-79263171D01*
X154731576Y-78906028D02*
X155088719Y-79906028D01*
X155445862Y-78906028D02*
X155088719Y-79906028D01*
X155088719Y-79906028D02*
X154945862Y-80263171D01*
X154945862Y-80263171D02*
X154874433Y-80334600D01*
X154874433Y-80334600D02*
X154731576Y-80406028D01*
D12*
X170259225Y-76229888D02*
X170259225Y-75796554D01*
X170940177Y-75610840D02*
X170940177Y-76229888D01*
X170940177Y-76229888D02*
X169640177Y-76229888D01*
X169640177Y-76229888D02*
X169640177Y-75610840D01*
X170073511Y-75053698D02*
X170940177Y-75053698D01*
X170197320Y-75053698D02*
X170135415Y-74991793D01*
X170135415Y-74991793D02*
X170073511Y-74867983D01*
X170073511Y-74867983D02*
X170073511Y-74682269D01*
X170073511Y-74682269D02*
X170135415Y-74558460D01*
X170135415Y-74558460D02*
X170259225Y-74496555D01*
X170259225Y-74496555D02*
X170940177Y-74496555D01*
X170878273Y-73939412D02*
X170940177Y-73815603D01*
X170940177Y-73815603D02*
X170940177Y-73567984D01*
X170940177Y-73567984D02*
X170878273Y-73444174D01*
X170878273Y-73444174D02*
X170754463Y-73382270D01*
X170754463Y-73382270D02*
X170692558Y-73382270D01*
X170692558Y-73382270D02*
X170568749Y-73444174D01*
X170568749Y-73444174D02*
X170506844Y-73567984D01*
X170506844Y-73567984D02*
X170506844Y-73753698D01*
X170506844Y-73753698D02*
X170444939Y-73877508D01*
X170444939Y-73877508D02*
X170321130Y-73939412D01*
X170321130Y-73939412D02*
X170259225Y-73939412D01*
X170259225Y-73939412D02*
X170135415Y-73877508D01*
X170135415Y-73877508D02*
X170073511Y-73753698D01*
X170073511Y-73753698D02*
X170073511Y-73567984D01*
X170073511Y-73567984D02*
X170135415Y-73444174D01*
X170073511Y-72267984D02*
X170940177Y-72267984D01*
X170073511Y-72825127D02*
X170754463Y-72825127D01*
X170754463Y-72825127D02*
X170878273Y-72763222D01*
X170878273Y-72763222D02*
X170940177Y-72639412D01*
X170940177Y-72639412D02*
X170940177Y-72453698D01*
X170940177Y-72453698D02*
X170878273Y-72329889D01*
X170878273Y-72329889D02*
X170816368Y-72267984D01*
X170940177Y-71648937D02*
X170073511Y-71648937D01*
X170321130Y-71648937D02*
X170197320Y-71587032D01*
X170197320Y-71587032D02*
X170135415Y-71525127D01*
X170135415Y-71525127D02*
X170073511Y-71401318D01*
X170073511Y-71401318D02*
X170073511Y-71277508D01*
X170878273Y-70348937D02*
X170940177Y-70472746D01*
X170940177Y-70472746D02*
X170940177Y-70720365D01*
X170940177Y-70720365D02*
X170878273Y-70844175D01*
X170878273Y-70844175D02*
X170754463Y-70906079D01*
X170754463Y-70906079D02*
X170259225Y-70906079D01*
X170259225Y-70906079D02*
X170135415Y-70844175D01*
X170135415Y-70844175D02*
X170073511Y-70720365D01*
X170073511Y-70720365D02*
X170073511Y-70472746D01*
X170073511Y-70472746D02*
X170135415Y-70348937D01*
X170135415Y-70348937D02*
X170259225Y-70287032D01*
X170259225Y-70287032D02*
X170383034Y-70287032D01*
X170383034Y-70287032D02*
X170506844Y-70906079D01*
X172909295Y-79448935D02*
X172971200Y-79510839D01*
X172971200Y-79510839D02*
X173033104Y-79696554D01*
X173033104Y-79696554D02*
X173033104Y-79820363D01*
X173033104Y-79820363D02*
X172971200Y-80006077D01*
X172971200Y-80006077D02*
X172847390Y-80129887D01*
X172847390Y-80129887D02*
X172723580Y-80191792D01*
X172723580Y-80191792D02*
X172475961Y-80253696D01*
X172475961Y-80253696D02*
X172290247Y-80253696D01*
X172290247Y-80253696D02*
X172042628Y-80191792D01*
X172042628Y-80191792D02*
X171918819Y-80129887D01*
X171918819Y-80129887D02*
X171795009Y-80006077D01*
X171795009Y-80006077D02*
X171733104Y-79820363D01*
X171733104Y-79820363D02*
X171733104Y-79696554D01*
X171733104Y-79696554D02*
X171795009Y-79510839D01*
X171795009Y-79510839D02*
X171856914Y-79448935D01*
X173033104Y-78706077D02*
X172971200Y-78829887D01*
X172971200Y-78829887D02*
X172909295Y-78891792D01*
X172909295Y-78891792D02*
X172785485Y-78953696D01*
X172785485Y-78953696D02*
X172414057Y-78953696D01*
X172414057Y-78953696D02*
X172290247Y-78891792D01*
X172290247Y-78891792D02*
X172228342Y-78829887D01*
X172228342Y-78829887D02*
X172166438Y-78706077D01*
X172166438Y-78706077D02*
X172166438Y-78520363D01*
X172166438Y-78520363D02*
X172228342Y-78396554D01*
X172228342Y-78396554D02*
X172290247Y-78334649D01*
X172290247Y-78334649D02*
X172414057Y-78272744D01*
X172414057Y-78272744D02*
X172785485Y-78272744D01*
X172785485Y-78272744D02*
X172909295Y-78334649D01*
X172909295Y-78334649D02*
X172971200Y-78396554D01*
X172971200Y-78396554D02*
X173033104Y-78520363D01*
X173033104Y-78520363D02*
X173033104Y-78706077D01*
X173033104Y-77715602D02*
X172166438Y-77715602D01*
X172414057Y-77715602D02*
X172290247Y-77653697D01*
X172290247Y-77653697D02*
X172228342Y-77591792D01*
X172228342Y-77591792D02*
X172166438Y-77467983D01*
X172166438Y-77467983D02*
X172166438Y-77344173D01*
X173033104Y-76910840D02*
X172166438Y-76910840D01*
X172414057Y-76910840D02*
X172290247Y-76848935D01*
X172290247Y-76848935D02*
X172228342Y-76787030D01*
X172228342Y-76787030D02*
X172166438Y-76663221D01*
X172166438Y-76663221D02*
X172166438Y-76539411D01*
X172971200Y-75610840D02*
X173033104Y-75734649D01*
X173033104Y-75734649D02*
X173033104Y-75982268D01*
X173033104Y-75982268D02*
X172971200Y-76106078D01*
X172971200Y-76106078D02*
X172847390Y-76167982D01*
X172847390Y-76167982D02*
X172352152Y-76167982D01*
X172352152Y-76167982D02*
X172228342Y-76106078D01*
X172228342Y-76106078D02*
X172166438Y-75982268D01*
X172166438Y-75982268D02*
X172166438Y-75734649D01*
X172166438Y-75734649D02*
X172228342Y-75610840D01*
X172228342Y-75610840D02*
X172352152Y-75548935D01*
X172352152Y-75548935D02*
X172475961Y-75548935D01*
X172475961Y-75548935D02*
X172599771Y-76167982D01*
X172971200Y-74434649D02*
X173033104Y-74558458D01*
X173033104Y-74558458D02*
X173033104Y-74806077D01*
X173033104Y-74806077D02*
X172971200Y-74929887D01*
X172971200Y-74929887D02*
X172909295Y-74991792D01*
X172909295Y-74991792D02*
X172785485Y-75053696D01*
X172785485Y-75053696D02*
X172414057Y-75053696D01*
X172414057Y-75053696D02*
X172290247Y-74991792D01*
X172290247Y-74991792D02*
X172228342Y-74929887D01*
X172228342Y-74929887D02*
X172166438Y-74806077D01*
X172166438Y-74806077D02*
X172166438Y-74558458D01*
X172166438Y-74558458D02*
X172228342Y-74434649D01*
X172166438Y-74063220D02*
X172166438Y-73567982D01*
X171733104Y-73877506D02*
X172847390Y-73877506D01*
X172847390Y-73877506D02*
X172971200Y-73815601D01*
X172971200Y-73815601D02*
X173033104Y-73691791D01*
X173033104Y-73691791D02*
X173033104Y-73567982D01*
X173033104Y-72144173D02*
X171733104Y-72144173D01*
X171733104Y-72144173D02*
X171733104Y-71648935D01*
X171733104Y-71648935D02*
X171795009Y-71525125D01*
X171795009Y-71525125D02*
X171856914Y-71463220D01*
X171856914Y-71463220D02*
X171980723Y-71401316D01*
X171980723Y-71401316D02*
X172166438Y-71401316D01*
X172166438Y-71401316D02*
X172290247Y-71463220D01*
X172290247Y-71463220D02*
X172352152Y-71525125D01*
X172352152Y-71525125D02*
X172414057Y-71648935D01*
X172414057Y-71648935D02*
X172414057Y-72144173D01*
X173033104Y-70844173D02*
X172166438Y-70844173D01*
X171733104Y-70844173D02*
X171795009Y-70906077D01*
X171795009Y-70906077D02*
X171856914Y-70844173D01*
X171856914Y-70844173D02*
X171795009Y-70782268D01*
X171795009Y-70782268D02*
X171733104Y-70844173D01*
X171733104Y-70844173D02*
X171856914Y-70844173D01*
X172166438Y-70225125D02*
X173033104Y-70225125D01*
X172290247Y-70225125D02*
X172228342Y-70163220D01*
X172228342Y-70163220D02*
X172166438Y-70039410D01*
X172166438Y-70039410D02*
X172166438Y-69853696D01*
X172166438Y-69853696D02*
X172228342Y-69729887D01*
X172228342Y-69729887D02*
X172352152Y-69667982D01*
X172352152Y-69667982D02*
X173033104Y-69667982D01*
X173033104Y-68863220D02*
X172971200Y-68987030D01*
X172971200Y-68987030D02*
X172909295Y-69048935D01*
X172909295Y-69048935D02*
X172785485Y-69110839D01*
X172785485Y-69110839D02*
X172414057Y-69110839D01*
X172414057Y-69110839D02*
X172290247Y-69048935D01*
X172290247Y-69048935D02*
X172228342Y-68987030D01*
X172228342Y-68987030D02*
X172166438Y-68863220D01*
X172166438Y-68863220D02*
X172166438Y-68677506D01*
X172166438Y-68677506D02*
X172228342Y-68553697D01*
X172228342Y-68553697D02*
X172290247Y-68491792D01*
X172290247Y-68491792D02*
X172414057Y-68429887D01*
X172414057Y-68429887D02*
X172785485Y-68429887D01*
X172785485Y-68429887D02*
X172909295Y-68491792D01*
X172909295Y-68491792D02*
X172971200Y-68553697D01*
X172971200Y-68553697D02*
X173033104Y-68677506D01*
X173033104Y-68677506D02*
X173033104Y-68863220D01*
X172166438Y-67315602D02*
X173033104Y-67315602D01*
X172166438Y-67872745D02*
X172847390Y-67872745D01*
X172847390Y-67872745D02*
X172971200Y-67810840D01*
X172971200Y-67810840D02*
X173033104Y-67687030D01*
X173033104Y-67687030D02*
X173033104Y-67501316D01*
X173033104Y-67501316D02*
X172971200Y-67377507D01*
X172971200Y-67377507D02*
X172909295Y-67315602D01*
X172166438Y-66882269D02*
X172166438Y-66387031D01*
X171733104Y-66696555D02*
X172847390Y-66696555D01*
X172847390Y-66696555D02*
X172971200Y-66634650D01*
X172971200Y-66634650D02*
X173033104Y-66510840D01*
X173033104Y-66510840D02*
X173033104Y-66387031D01*
X172909295Y-65953698D02*
X172971200Y-65891793D01*
X172971200Y-65891793D02*
X173033104Y-65953698D01*
X173033104Y-65953698D02*
X172971200Y-66015602D01*
X172971200Y-66015602D02*
X172909295Y-65953698D01*
X172909295Y-65953698D02*
X173033104Y-65953698D01*
X172537866Y-65953698D02*
X171795009Y-66015602D01*
X171795009Y-66015602D02*
X171733104Y-65953698D01*
X171733104Y-65953698D02*
X171795009Y-65891793D01*
X171795009Y-65891793D02*
X172537866Y-65953698D01*
X172537866Y-65953698D02*
X171733104Y-65953698D01*
D13*
X104949171Y-81590225D02*
X104949171Y-80733082D01*
X104949171Y-81161653D02*
X106449171Y-81161653D01*
X106449171Y-81161653D02*
X106234885Y-81018796D01*
X106234885Y-81018796D02*
X106092028Y-80875939D01*
X106092028Y-80875939D02*
X106020600Y-80733082D01*
X104949171Y-82233081D02*
X106449171Y-82233081D01*
X104949171Y-83090224D02*
X105806314Y-82447367D01*
X106449171Y-83090224D02*
X105592028Y-82233081D01*
D12*
X170459225Y-141829888D02*
X170459225Y-141396554D01*
X171140177Y-141210840D02*
X171140177Y-141829888D01*
X171140177Y-141829888D02*
X169840177Y-141829888D01*
X169840177Y-141829888D02*
X169840177Y-141210840D01*
X170273511Y-140653698D02*
X171140177Y-140653698D01*
X170397320Y-140653698D02*
X170335415Y-140591793D01*
X170335415Y-140591793D02*
X170273511Y-140467983D01*
X170273511Y-140467983D02*
X170273511Y-140282269D01*
X170273511Y-140282269D02*
X170335415Y-140158460D01*
X170335415Y-140158460D02*
X170459225Y-140096555D01*
X170459225Y-140096555D02*
X171140177Y-140096555D01*
X171078273Y-139539412D02*
X171140177Y-139415603D01*
X171140177Y-139415603D02*
X171140177Y-139167984D01*
X171140177Y-139167984D02*
X171078273Y-139044174D01*
X171078273Y-139044174D02*
X170954463Y-138982270D01*
X170954463Y-138982270D02*
X170892558Y-138982270D01*
X170892558Y-138982270D02*
X170768749Y-139044174D01*
X170768749Y-139044174D02*
X170706844Y-139167984D01*
X170706844Y-139167984D02*
X170706844Y-139353698D01*
X170706844Y-139353698D02*
X170644939Y-139477508D01*
X170644939Y-139477508D02*
X170521130Y-139539412D01*
X170521130Y-139539412D02*
X170459225Y-139539412D01*
X170459225Y-139539412D02*
X170335415Y-139477508D01*
X170335415Y-139477508D02*
X170273511Y-139353698D01*
X170273511Y-139353698D02*
X170273511Y-139167984D01*
X170273511Y-139167984D02*
X170335415Y-139044174D01*
X170273511Y-137867984D02*
X171140177Y-137867984D01*
X170273511Y-138425127D02*
X170954463Y-138425127D01*
X170954463Y-138425127D02*
X171078273Y-138363222D01*
X171078273Y-138363222D02*
X171140177Y-138239412D01*
X171140177Y-138239412D02*
X171140177Y-138053698D01*
X171140177Y-138053698D02*
X171078273Y-137929889D01*
X171078273Y-137929889D02*
X171016368Y-137867984D01*
X171140177Y-137248937D02*
X170273511Y-137248937D01*
X170521130Y-137248937D02*
X170397320Y-137187032D01*
X170397320Y-137187032D02*
X170335415Y-137125127D01*
X170335415Y-137125127D02*
X170273511Y-137001318D01*
X170273511Y-137001318D02*
X170273511Y-136877508D01*
X171078273Y-135948937D02*
X171140177Y-136072746D01*
X171140177Y-136072746D02*
X171140177Y-136320365D01*
X171140177Y-136320365D02*
X171078273Y-136444175D01*
X171078273Y-136444175D02*
X170954463Y-136506079D01*
X170954463Y-136506079D02*
X170459225Y-136506079D01*
X170459225Y-136506079D02*
X170335415Y-136444175D01*
X170335415Y-136444175D02*
X170273511Y-136320365D01*
X170273511Y-136320365D02*
X170273511Y-136072746D01*
X170273511Y-136072746D02*
X170335415Y-135948937D01*
X170335415Y-135948937D02*
X170459225Y-135887032D01*
X170459225Y-135887032D02*
X170583034Y-135887032D01*
X170583034Y-135887032D02*
X170706844Y-136506079D01*
X173109295Y-145048935D02*
X173171200Y-145110839D01*
X173171200Y-145110839D02*
X173233104Y-145296554D01*
X173233104Y-145296554D02*
X173233104Y-145420363D01*
X173233104Y-145420363D02*
X173171200Y-145606077D01*
X173171200Y-145606077D02*
X173047390Y-145729887D01*
X173047390Y-145729887D02*
X172923580Y-145791792D01*
X172923580Y-145791792D02*
X172675961Y-145853696D01*
X172675961Y-145853696D02*
X172490247Y-145853696D01*
X172490247Y-145853696D02*
X172242628Y-145791792D01*
X172242628Y-145791792D02*
X172118819Y-145729887D01*
X172118819Y-145729887D02*
X171995009Y-145606077D01*
X171995009Y-145606077D02*
X171933104Y-145420363D01*
X171933104Y-145420363D02*
X171933104Y-145296554D01*
X171933104Y-145296554D02*
X171995009Y-145110839D01*
X171995009Y-145110839D02*
X172056914Y-145048935D01*
X173233104Y-144306077D02*
X173171200Y-144429887D01*
X173171200Y-144429887D02*
X173109295Y-144491792D01*
X173109295Y-144491792D02*
X172985485Y-144553696D01*
X172985485Y-144553696D02*
X172614057Y-144553696D01*
X172614057Y-144553696D02*
X172490247Y-144491792D01*
X172490247Y-144491792D02*
X172428342Y-144429887D01*
X172428342Y-144429887D02*
X172366438Y-144306077D01*
X172366438Y-144306077D02*
X172366438Y-144120363D01*
X172366438Y-144120363D02*
X172428342Y-143996554D01*
X172428342Y-143996554D02*
X172490247Y-143934649D01*
X172490247Y-143934649D02*
X172614057Y-143872744D01*
X172614057Y-143872744D02*
X172985485Y-143872744D01*
X172985485Y-143872744D02*
X173109295Y-143934649D01*
X173109295Y-143934649D02*
X173171200Y-143996554D01*
X173171200Y-143996554D02*
X173233104Y-144120363D01*
X173233104Y-144120363D02*
X173233104Y-144306077D01*
X173233104Y-143315602D02*
X172366438Y-143315602D01*
X172614057Y-143315602D02*
X172490247Y-143253697D01*
X172490247Y-143253697D02*
X172428342Y-143191792D01*
X172428342Y-143191792D02*
X172366438Y-143067983D01*
X172366438Y-143067983D02*
X172366438Y-142944173D01*
X173233104Y-142510840D02*
X172366438Y-142510840D01*
X172614057Y-142510840D02*
X172490247Y-142448935D01*
X172490247Y-142448935D02*
X172428342Y-142387030D01*
X172428342Y-142387030D02*
X172366438Y-142263221D01*
X172366438Y-142263221D02*
X172366438Y-142139411D01*
X173171200Y-141210840D02*
X173233104Y-141334649D01*
X173233104Y-141334649D02*
X173233104Y-141582268D01*
X173233104Y-141582268D02*
X173171200Y-141706078D01*
X173171200Y-141706078D02*
X173047390Y-141767982D01*
X173047390Y-141767982D02*
X172552152Y-141767982D01*
X172552152Y-141767982D02*
X172428342Y-141706078D01*
X172428342Y-141706078D02*
X172366438Y-141582268D01*
X172366438Y-141582268D02*
X172366438Y-141334649D01*
X172366438Y-141334649D02*
X172428342Y-141210840D01*
X172428342Y-141210840D02*
X172552152Y-141148935D01*
X172552152Y-141148935D02*
X172675961Y-141148935D01*
X172675961Y-141148935D02*
X172799771Y-141767982D01*
X173171200Y-140034649D02*
X173233104Y-140158458D01*
X173233104Y-140158458D02*
X173233104Y-140406077D01*
X173233104Y-140406077D02*
X173171200Y-140529887D01*
X173171200Y-140529887D02*
X173109295Y-140591792D01*
X173109295Y-140591792D02*
X172985485Y-140653696D01*
X172985485Y-140653696D02*
X172614057Y-140653696D01*
X172614057Y-140653696D02*
X172490247Y-140591792D01*
X172490247Y-140591792D02*
X172428342Y-140529887D01*
X172428342Y-140529887D02*
X172366438Y-140406077D01*
X172366438Y-140406077D02*
X172366438Y-140158458D01*
X172366438Y-140158458D02*
X172428342Y-140034649D01*
X172366438Y-139663220D02*
X172366438Y-139167982D01*
X171933104Y-139477506D02*
X173047390Y-139477506D01*
X173047390Y-139477506D02*
X173171200Y-139415601D01*
X173171200Y-139415601D02*
X173233104Y-139291791D01*
X173233104Y-139291791D02*
X173233104Y-139167982D01*
X173233104Y-137744173D02*
X171933104Y-137744173D01*
X171933104Y-137744173D02*
X171933104Y-137248935D01*
X171933104Y-137248935D02*
X171995009Y-137125125D01*
X171995009Y-137125125D02*
X172056914Y-137063220D01*
X172056914Y-137063220D02*
X172180723Y-137001316D01*
X172180723Y-137001316D02*
X172366438Y-137001316D01*
X172366438Y-137001316D02*
X172490247Y-137063220D01*
X172490247Y-137063220D02*
X172552152Y-137125125D01*
X172552152Y-137125125D02*
X172614057Y-137248935D01*
X172614057Y-137248935D02*
X172614057Y-137744173D01*
X173233104Y-136444173D02*
X172366438Y-136444173D01*
X171933104Y-136444173D02*
X171995009Y-136506077D01*
X171995009Y-136506077D02*
X172056914Y-136444173D01*
X172056914Y-136444173D02*
X171995009Y-136382268D01*
X171995009Y-136382268D02*
X171933104Y-136444173D01*
X171933104Y-136444173D02*
X172056914Y-136444173D01*
X172366438Y-135825125D02*
X173233104Y-135825125D01*
X172490247Y-135825125D02*
X172428342Y-135763220D01*
X172428342Y-135763220D02*
X172366438Y-135639410D01*
X172366438Y-135639410D02*
X172366438Y-135453696D01*
X172366438Y-135453696D02*
X172428342Y-135329887D01*
X172428342Y-135329887D02*
X172552152Y-135267982D01*
X172552152Y-135267982D02*
X173233104Y-135267982D01*
X173233104Y-134463220D02*
X173171200Y-134587030D01*
X173171200Y-134587030D02*
X173109295Y-134648935D01*
X173109295Y-134648935D02*
X172985485Y-134710839D01*
X172985485Y-134710839D02*
X172614057Y-134710839D01*
X172614057Y-134710839D02*
X172490247Y-134648935D01*
X172490247Y-134648935D02*
X172428342Y-134587030D01*
X172428342Y-134587030D02*
X172366438Y-134463220D01*
X172366438Y-134463220D02*
X172366438Y-134277506D01*
X172366438Y-134277506D02*
X172428342Y-134153697D01*
X172428342Y-134153697D02*
X172490247Y-134091792D01*
X172490247Y-134091792D02*
X172614057Y-134029887D01*
X172614057Y-134029887D02*
X172985485Y-134029887D01*
X172985485Y-134029887D02*
X173109295Y-134091792D01*
X173109295Y-134091792D02*
X173171200Y-134153697D01*
X173171200Y-134153697D02*
X173233104Y-134277506D01*
X173233104Y-134277506D02*
X173233104Y-134463220D01*
X172366438Y-132915602D02*
X173233104Y-132915602D01*
X172366438Y-133472745D02*
X173047390Y-133472745D01*
X173047390Y-133472745D02*
X173171200Y-133410840D01*
X173171200Y-133410840D02*
X173233104Y-133287030D01*
X173233104Y-133287030D02*
X173233104Y-133101316D01*
X173233104Y-133101316D02*
X173171200Y-132977507D01*
X173171200Y-132977507D02*
X173109295Y-132915602D01*
X172366438Y-132482269D02*
X172366438Y-131987031D01*
X171933104Y-132296555D02*
X173047390Y-132296555D01*
X173047390Y-132296555D02*
X173171200Y-132234650D01*
X173171200Y-132234650D02*
X173233104Y-132110840D01*
X173233104Y-132110840D02*
X173233104Y-131987031D01*
X173109295Y-131553698D02*
X173171200Y-131491793D01*
X173171200Y-131491793D02*
X173233104Y-131553698D01*
X173233104Y-131553698D02*
X173171200Y-131615602D01*
X173171200Y-131615602D02*
X173109295Y-131553698D01*
X173109295Y-131553698D02*
X173233104Y-131553698D01*
X172737866Y-131553698D02*
X171995009Y-131615602D01*
X171995009Y-131615602D02*
X171933104Y-131553698D01*
X171933104Y-131553698D02*
X171995009Y-131491793D01*
X171995009Y-131491793D02*
X172737866Y-131553698D01*
X172737866Y-131553698D02*
X171933104Y-131553698D01*
D11*
X61345863Y-112363171D02*
X61274435Y-112434600D01*
X61274435Y-112434600D02*
X61060149Y-112506028D01*
X61060149Y-112506028D02*
X60917292Y-112506028D01*
X60917292Y-112506028D02*
X60703006Y-112434600D01*
X60703006Y-112434600D02*
X60560149Y-112291742D01*
X60560149Y-112291742D02*
X60488720Y-112148885D01*
X60488720Y-112148885D02*
X60417292Y-111863171D01*
X60417292Y-111863171D02*
X60417292Y-111648885D01*
X60417292Y-111648885D02*
X60488720Y-111363171D01*
X60488720Y-111363171D02*
X60560149Y-111220314D01*
X60560149Y-111220314D02*
X60703006Y-111077457D01*
X60703006Y-111077457D02*
X60917292Y-111006028D01*
X60917292Y-111006028D02*
X61060149Y-111006028D01*
X61060149Y-111006028D02*
X61274435Y-111077457D01*
X61274435Y-111077457D02*
X61345863Y-111148885D01*
X62774435Y-112506028D02*
X61917292Y-112506028D01*
X62345863Y-112506028D02*
X62345863Y-111006028D01*
X62345863Y-111006028D02*
X62203006Y-111220314D01*
X62203006Y-111220314D02*
X62060149Y-111363171D01*
X62060149Y-111363171D02*
X61917292Y-111434600D01*
X63417291Y-111934600D02*
X64560149Y-111934600D01*
X65988720Y-111006028D02*
X65274434Y-111006028D01*
X65274434Y-111006028D02*
X65203006Y-111720314D01*
X65203006Y-111720314D02*
X65274434Y-111648885D01*
X65274434Y-111648885D02*
X65417292Y-111577457D01*
X65417292Y-111577457D02*
X65774434Y-111577457D01*
X65774434Y-111577457D02*
X65917292Y-111648885D01*
X65917292Y-111648885D02*
X65988720Y-111720314D01*
X65988720Y-111720314D02*
X66060149Y-111863171D01*
X66060149Y-111863171D02*
X66060149Y-112220314D01*
X66060149Y-112220314D02*
X65988720Y-112363171D01*
X65988720Y-112363171D02*
X65917292Y-112434600D01*
X65917292Y-112434600D02*
X65774434Y-112506028D01*
X65774434Y-112506028D02*
X65417292Y-112506028D01*
X65417292Y-112506028D02*
X65274434Y-112434600D01*
X65274434Y-112434600D02*
X65203006Y-112363171D01*
X72417290Y-112506028D02*
X72417290Y-111006028D01*
X72417290Y-111006028D02*
X73274433Y-112506028D01*
X73274433Y-112506028D02*
X73274433Y-111006028D01*
X74845862Y-112363171D02*
X74774434Y-112434600D01*
X74774434Y-112434600D02*
X74560148Y-112506028D01*
X74560148Y-112506028D02*
X74417291Y-112506028D01*
X74417291Y-112506028D02*
X74203005Y-112434600D01*
X74203005Y-112434600D02*
X74060148Y-112291742D01*
X74060148Y-112291742D02*
X73988719Y-112148885D01*
X73988719Y-112148885D02*
X73917291Y-111863171D01*
X73917291Y-111863171D02*
X73917291Y-111648885D01*
X73917291Y-111648885D02*
X73988719Y-111363171D01*
X73988719Y-111363171D02*
X74060148Y-111220314D01*
X74060148Y-111220314D02*
X74203005Y-111077457D01*
X74203005Y-111077457D02*
X74417291Y-111006028D01*
X74417291Y-111006028D02*
X74560148Y-111006028D01*
X74560148Y-111006028D02*
X74774434Y-111077457D01*
X74774434Y-111077457D02*
X74845862Y-111148885D01*
X169785600Y-61682706D02*
X169785600Y-60768421D01*
X170242742Y-61225563D02*
X169328457Y-61225563D01*
X169042742Y-59625564D02*
X169042742Y-60196992D01*
X169042742Y-60196992D02*
X169614171Y-60254135D01*
X169614171Y-60254135D02*
X169557028Y-60196992D01*
X169557028Y-60196992D02*
X169499885Y-60082707D01*
X169499885Y-60082707D02*
X169499885Y-59796992D01*
X169499885Y-59796992D02*
X169557028Y-59682707D01*
X169557028Y-59682707D02*
X169614171Y-59625564D01*
X169614171Y-59625564D02*
X169728457Y-59568421D01*
X169728457Y-59568421D02*
X170014171Y-59568421D01*
X170014171Y-59568421D02*
X170128457Y-59625564D01*
X170128457Y-59625564D02*
X170185600Y-59682707D01*
X170185600Y-59682707D02*
X170242742Y-59796992D01*
X170242742Y-59796992D02*
X170242742Y-60082707D01*
X170242742Y-60082707D02*
X170185600Y-60196992D01*
X170185600Y-60196992D02*
X170128457Y-60254135D01*
X169042742Y-59225564D02*
X170242742Y-58825564D01*
X170242742Y-58825564D02*
X169042742Y-58425564D01*
D13*
X72840225Y-98050828D02*
X71983082Y-98050828D01*
X72411653Y-98050828D02*
X72411653Y-96550828D01*
X72411653Y-96550828D02*
X72268796Y-96765114D01*
X72268796Y-96765114D02*
X72125939Y-96907971D01*
X72125939Y-96907971D02*
X71983082Y-96979400D01*
X73483081Y-98050828D02*
X73483081Y-96550828D01*
X74340224Y-98050828D02*
X73697367Y-97193685D01*
X74340224Y-96550828D02*
X73483081Y-97407971D01*
D11*
X64445863Y-78310809D02*
X63760149Y-78310809D01*
X64103006Y-78310809D02*
X64103006Y-77110809D01*
X64103006Y-77110809D02*
X63988720Y-77282238D01*
X63988720Y-77282238D02*
X63874435Y-77396524D01*
X63874435Y-77396524D02*
X63760149Y-77453667D01*
X65188720Y-77110809D02*
X65303006Y-77110809D01*
X65303006Y-77110809D02*
X65417292Y-77167952D01*
X65417292Y-77167952D02*
X65474435Y-77225095D01*
X65474435Y-77225095D02*
X65531577Y-77339381D01*
X65531577Y-77339381D02*
X65588720Y-77567952D01*
X65588720Y-77567952D02*
X65588720Y-77853667D01*
X65588720Y-77853667D02*
X65531577Y-78082238D01*
X65531577Y-78082238D02*
X65474435Y-78196524D01*
X65474435Y-78196524D02*
X65417292Y-78253667D01*
X65417292Y-78253667D02*
X65303006Y-78310809D01*
X65303006Y-78310809D02*
X65188720Y-78310809D01*
X65188720Y-78310809D02*
X65074435Y-78253667D01*
X65074435Y-78253667D02*
X65017292Y-78196524D01*
X65017292Y-78196524D02*
X64960149Y-78082238D01*
X64960149Y-78082238D02*
X64903006Y-77853667D01*
X64903006Y-77853667D02*
X64903006Y-77567952D01*
X64903006Y-77567952D02*
X64960149Y-77339381D01*
X64960149Y-77339381D02*
X65017292Y-77225095D01*
X65017292Y-77225095D02*
X65074435Y-77167952D01*
X65074435Y-77167952D02*
X65188720Y-77110809D01*
X66617292Y-77510809D02*
X66617292Y-78310809D01*
X66103006Y-77510809D02*
X66103006Y-78139381D01*
X66103006Y-78139381D02*
X66160149Y-78253667D01*
X66160149Y-78253667D02*
X66274434Y-78310809D01*
X66274434Y-78310809D02*
X66445863Y-78310809D01*
X66445863Y-78310809D02*
X66560149Y-78253667D01*
X66560149Y-78253667D02*
X66617292Y-78196524D01*
X67588720Y-77682238D02*
X67188720Y-77682238D01*
X67188720Y-78310809D02*
X67188720Y-77110809D01*
X67188720Y-77110809D02*
X67760148Y-77110809D01*
X63760149Y-79157028D02*
X63817292Y-79099885D01*
X63817292Y-79099885D02*
X63931578Y-79042742D01*
X63931578Y-79042742D02*
X64217292Y-79042742D01*
X64217292Y-79042742D02*
X64331578Y-79099885D01*
X64331578Y-79099885D02*
X64388720Y-79157028D01*
X64388720Y-79157028D02*
X64445863Y-79271314D01*
X64445863Y-79271314D02*
X64445863Y-79385600D01*
X64445863Y-79385600D02*
X64388720Y-79557028D01*
X64388720Y-79557028D02*
X63703006Y-80242742D01*
X63703006Y-80242742D02*
X64445863Y-80242742D01*
X65531577Y-79042742D02*
X64960149Y-79042742D01*
X64960149Y-79042742D02*
X64903006Y-79614171D01*
X64903006Y-79614171D02*
X64960149Y-79557028D01*
X64960149Y-79557028D02*
X65074435Y-79499885D01*
X65074435Y-79499885D02*
X65360149Y-79499885D01*
X65360149Y-79499885D02*
X65474435Y-79557028D01*
X65474435Y-79557028D02*
X65531577Y-79614171D01*
X65531577Y-79614171D02*
X65588720Y-79728457D01*
X65588720Y-79728457D02*
X65588720Y-80014171D01*
X65588720Y-80014171D02*
X65531577Y-80128457D01*
X65531577Y-80128457D02*
X65474435Y-80185600D01*
X65474435Y-80185600D02*
X65360149Y-80242742D01*
X65360149Y-80242742D02*
X65074435Y-80242742D01*
X65074435Y-80242742D02*
X64960149Y-80185600D01*
X64960149Y-80185600D02*
X64903006Y-80128457D01*
X65931577Y-79042742D02*
X66331577Y-80242742D01*
X66331577Y-80242742D02*
X66731577Y-79042742D01*
D13*
X28699171Y-89590225D02*
X28699171Y-88733082D01*
X28699171Y-89161653D02*
X30199171Y-89161653D01*
X30199171Y-89161653D02*
X29984885Y-89018796D01*
X29984885Y-89018796D02*
X29842028Y-88875939D01*
X29842028Y-88875939D02*
X29770600Y-88733082D01*
X30199171Y-90518796D02*
X30199171Y-90661653D01*
X30199171Y-90661653D02*
X30127742Y-90804510D01*
X30127742Y-90804510D02*
X30056314Y-90875939D01*
X30056314Y-90875939D02*
X29913457Y-90947367D01*
X29913457Y-90947367D02*
X29627742Y-91018796D01*
X29627742Y-91018796D02*
X29270600Y-91018796D01*
X29270600Y-91018796D02*
X28984885Y-90947367D01*
X28984885Y-90947367D02*
X28842028Y-90875939D01*
X28842028Y-90875939D02*
X28770600Y-90804510D01*
X28770600Y-90804510D02*
X28699171Y-90661653D01*
X28699171Y-90661653D02*
X28699171Y-90518796D01*
X28699171Y-90518796D02*
X28770600Y-90375939D01*
X28770600Y-90375939D02*
X28842028Y-90304510D01*
X28842028Y-90304510D02*
X28984885Y-90233081D01*
X28984885Y-90233081D02*
X29270600Y-90161653D01*
X29270600Y-90161653D02*
X29627742Y-90161653D01*
X29627742Y-90161653D02*
X29913457Y-90233081D01*
X29913457Y-90233081D02*
X30056314Y-90304510D01*
X30056314Y-90304510D02*
X30127742Y-90375939D01*
X30127742Y-90375939D02*
X30199171Y-90518796D01*
X28699171Y-91661652D02*
X30199171Y-91661652D01*
X28699171Y-92518795D02*
X29556314Y-91875938D01*
X30199171Y-92518795D02*
X29342028Y-91661652D01*
D11*
X144845863Y-110363171D02*
X144774435Y-110434600D01*
X144774435Y-110434600D02*
X144560149Y-110506028D01*
X144560149Y-110506028D02*
X144417292Y-110506028D01*
X144417292Y-110506028D02*
X144203006Y-110434600D01*
X144203006Y-110434600D02*
X144060149Y-110291742D01*
X144060149Y-110291742D02*
X143988720Y-110148885D01*
X143988720Y-110148885D02*
X143917292Y-109863171D01*
X143917292Y-109863171D02*
X143917292Y-109648885D01*
X143917292Y-109648885D02*
X143988720Y-109363171D01*
X143988720Y-109363171D02*
X144060149Y-109220314D01*
X144060149Y-109220314D02*
X144203006Y-109077457D01*
X144203006Y-109077457D02*
X144417292Y-109006028D01*
X144417292Y-109006028D02*
X144560149Y-109006028D01*
X144560149Y-109006028D02*
X144774435Y-109077457D01*
X144774435Y-109077457D02*
X144845863Y-109148885D01*
X145417292Y-109148885D02*
X145488720Y-109077457D01*
X145488720Y-109077457D02*
X145631578Y-109006028D01*
X145631578Y-109006028D02*
X145988720Y-109006028D01*
X145988720Y-109006028D02*
X146131578Y-109077457D01*
X146131578Y-109077457D02*
X146203006Y-109148885D01*
X146203006Y-109148885D02*
X146274435Y-109291742D01*
X146274435Y-109291742D02*
X146274435Y-109434600D01*
X146274435Y-109434600D02*
X146203006Y-109648885D01*
X146203006Y-109648885D02*
X145345863Y-110506028D01*
X145345863Y-110506028D02*
X146274435Y-110506028D01*
X146917291Y-109934600D02*
X148060149Y-109934600D01*
X149417292Y-109506028D02*
X149417292Y-110506028D01*
X149060149Y-108934600D02*
X148703006Y-110006028D01*
X148703006Y-110006028D02*
X149631577Y-110006028D01*
X153345862Y-110363171D02*
X153274434Y-110434600D01*
X153274434Y-110434600D02*
X153060148Y-110506028D01*
X153060148Y-110506028D02*
X152917291Y-110506028D01*
X152917291Y-110506028D02*
X152703005Y-110434600D01*
X152703005Y-110434600D02*
X152560148Y-110291742D01*
X152560148Y-110291742D02*
X152488719Y-110148885D01*
X152488719Y-110148885D02*
X152417291Y-109863171D01*
X152417291Y-109863171D02*
X152417291Y-109648885D01*
X152417291Y-109648885D02*
X152488719Y-109363171D01*
X152488719Y-109363171D02*
X152560148Y-109220314D01*
X152560148Y-109220314D02*
X152703005Y-109077457D01*
X152703005Y-109077457D02*
X152917291Y-109006028D01*
X152917291Y-109006028D02*
X153060148Y-109006028D01*
X153060148Y-109006028D02*
X153274434Y-109077457D01*
X153274434Y-109077457D02*
X153345862Y-109148885D01*
X153917291Y-109148885D02*
X153988719Y-109077457D01*
X153988719Y-109077457D02*
X154131577Y-109006028D01*
X154131577Y-109006028D02*
X154488719Y-109006028D01*
X154488719Y-109006028D02*
X154631577Y-109077457D01*
X154631577Y-109077457D02*
X154703005Y-109148885D01*
X154703005Y-109148885D02*
X154774434Y-109291742D01*
X154774434Y-109291742D02*
X154774434Y-109434600D01*
X154774434Y-109434600D02*
X154703005Y-109648885D01*
X154703005Y-109648885D02*
X153845862Y-110506028D01*
X153845862Y-110506028D02*
X154774434Y-110506028D01*
X155417290Y-109934600D02*
X156560148Y-109934600D01*
X157131576Y-109006028D02*
X158060148Y-109006028D01*
X158060148Y-109006028D02*
X157560148Y-109577457D01*
X157560148Y-109577457D02*
X157774433Y-109577457D01*
X157774433Y-109577457D02*
X157917291Y-109648885D01*
X157917291Y-109648885D02*
X157988719Y-109720314D01*
X157988719Y-109720314D02*
X158060148Y-109863171D01*
X158060148Y-109863171D02*
X158060148Y-110220314D01*
X158060148Y-110220314D02*
X157988719Y-110363171D01*
X157988719Y-110363171D02*
X157917291Y-110434600D01*
X157917291Y-110434600D02*
X157774433Y-110506028D01*
X157774433Y-110506028D02*
X157345862Y-110506028D01*
X157345862Y-110506028D02*
X157203005Y-110434600D01*
X157203005Y-110434600D02*
X157131576Y-110363171D01*
D13*
X94949171Y-88340225D02*
X94949171Y-87483082D01*
X94949171Y-87911653D02*
X96449171Y-87911653D01*
X96449171Y-87911653D02*
X96234885Y-87768796D01*
X96234885Y-87768796D02*
X96092028Y-87625939D01*
X96092028Y-87625939D02*
X96020600Y-87483082D01*
X94949171Y-88983081D02*
X96449171Y-88983081D01*
X94949171Y-89840224D02*
X95806314Y-89197367D01*
X96449171Y-89840224D02*
X95592028Y-88983081D01*
X111199171Y-134540225D02*
X111199171Y-133683082D01*
X111199171Y-134111653D02*
X112699171Y-134111653D01*
X112699171Y-134111653D02*
X112484885Y-133968796D01*
X112484885Y-133968796D02*
X112342028Y-133825939D01*
X112342028Y-133825939D02*
X112270600Y-133683082D01*
X111199171Y-135183081D02*
X112699171Y-135183081D01*
X111199171Y-136040224D02*
X112056314Y-135397367D01*
X112699171Y-136040224D02*
X111842028Y-135183081D01*
D11*
X144845863Y-106463171D02*
X144774435Y-106534600D01*
X144774435Y-106534600D02*
X144560149Y-106606028D01*
X144560149Y-106606028D02*
X144417292Y-106606028D01*
X144417292Y-106606028D02*
X144203006Y-106534600D01*
X144203006Y-106534600D02*
X144060149Y-106391742D01*
X144060149Y-106391742D02*
X143988720Y-106248885D01*
X143988720Y-106248885D02*
X143917292Y-105963171D01*
X143917292Y-105963171D02*
X143917292Y-105748885D01*
X143917292Y-105748885D02*
X143988720Y-105463171D01*
X143988720Y-105463171D02*
X144060149Y-105320314D01*
X144060149Y-105320314D02*
X144203006Y-105177457D01*
X144203006Y-105177457D02*
X144417292Y-105106028D01*
X144417292Y-105106028D02*
X144560149Y-105106028D01*
X144560149Y-105106028D02*
X144774435Y-105177457D01*
X144774435Y-105177457D02*
X144845863Y-105248885D01*
X145417292Y-105248885D02*
X145488720Y-105177457D01*
X145488720Y-105177457D02*
X145631578Y-105106028D01*
X145631578Y-105106028D02*
X145988720Y-105106028D01*
X145988720Y-105106028D02*
X146131578Y-105177457D01*
X146131578Y-105177457D02*
X146203006Y-105248885D01*
X146203006Y-105248885D02*
X146274435Y-105391742D01*
X146274435Y-105391742D02*
X146274435Y-105534600D01*
X146274435Y-105534600D02*
X146203006Y-105748885D01*
X146203006Y-105748885D02*
X145345863Y-106606028D01*
X145345863Y-106606028D02*
X146274435Y-106606028D01*
X146917291Y-106034600D02*
X148060149Y-106034600D01*
X148703006Y-105248885D02*
X148774434Y-105177457D01*
X148774434Y-105177457D02*
X148917292Y-105106028D01*
X148917292Y-105106028D02*
X149274434Y-105106028D01*
X149274434Y-105106028D02*
X149417292Y-105177457D01*
X149417292Y-105177457D02*
X149488720Y-105248885D01*
X149488720Y-105248885D02*
X149560149Y-105391742D01*
X149560149Y-105391742D02*
X149560149Y-105534600D01*
X149560149Y-105534600D02*
X149488720Y-105748885D01*
X149488720Y-105748885D02*
X148631577Y-106606028D01*
X148631577Y-106606028D02*
X149560149Y-106606028D01*
X153345862Y-106463171D02*
X153274434Y-106534600D01*
X153274434Y-106534600D02*
X153060148Y-106606028D01*
X153060148Y-106606028D02*
X152917291Y-106606028D01*
X152917291Y-106606028D02*
X152703005Y-106534600D01*
X152703005Y-106534600D02*
X152560148Y-106391742D01*
X152560148Y-106391742D02*
X152488719Y-106248885D01*
X152488719Y-106248885D02*
X152417291Y-105963171D01*
X152417291Y-105963171D02*
X152417291Y-105748885D01*
X152417291Y-105748885D02*
X152488719Y-105463171D01*
X152488719Y-105463171D02*
X152560148Y-105320314D01*
X152560148Y-105320314D02*
X152703005Y-105177457D01*
X152703005Y-105177457D02*
X152917291Y-105106028D01*
X152917291Y-105106028D02*
X153060148Y-105106028D01*
X153060148Y-105106028D02*
X153274434Y-105177457D01*
X153274434Y-105177457D02*
X153345862Y-105248885D01*
X153917291Y-105248885D02*
X153988719Y-105177457D01*
X153988719Y-105177457D02*
X154131577Y-105106028D01*
X154131577Y-105106028D02*
X154488719Y-105106028D01*
X154488719Y-105106028D02*
X154631577Y-105177457D01*
X154631577Y-105177457D02*
X154703005Y-105248885D01*
X154703005Y-105248885D02*
X154774434Y-105391742D01*
X154774434Y-105391742D02*
X154774434Y-105534600D01*
X154774434Y-105534600D02*
X154703005Y-105748885D01*
X154703005Y-105748885D02*
X153845862Y-106606028D01*
X153845862Y-106606028D02*
X154774434Y-106606028D01*
X155417290Y-106034600D02*
X156560148Y-106034600D01*
X158060148Y-106606028D02*
X157203005Y-106606028D01*
X157631576Y-106606028D02*
X157631576Y-105106028D01*
X157631576Y-105106028D02*
X157488719Y-105320314D01*
X157488719Y-105320314D02*
X157345862Y-105463171D01*
X157345862Y-105463171D02*
X157203005Y-105534600D01*
D13*
X183156314Y-62683082D02*
X183227742Y-62754510D01*
X183227742Y-62754510D02*
X183299171Y-62897368D01*
X183299171Y-62897368D02*
X183299171Y-63254510D01*
X183299171Y-63254510D02*
X183227742Y-63397368D01*
X183227742Y-63397368D02*
X183156314Y-63468796D01*
X183156314Y-63468796D02*
X183013457Y-63540225D01*
X183013457Y-63540225D02*
X182870600Y-63540225D01*
X182870600Y-63540225D02*
X182656314Y-63468796D01*
X182656314Y-63468796D02*
X181799171Y-62611653D01*
X181799171Y-62611653D02*
X181799171Y-63540225D01*
X183299171Y-64468796D02*
X183299171Y-64611653D01*
X183299171Y-64611653D02*
X183227742Y-64754510D01*
X183227742Y-64754510D02*
X183156314Y-64825939D01*
X183156314Y-64825939D02*
X183013457Y-64897367D01*
X183013457Y-64897367D02*
X182727742Y-64968796D01*
X182727742Y-64968796D02*
X182370600Y-64968796D01*
X182370600Y-64968796D02*
X182084885Y-64897367D01*
X182084885Y-64897367D02*
X181942028Y-64825939D01*
X181942028Y-64825939D02*
X181870600Y-64754510D01*
X181870600Y-64754510D02*
X181799171Y-64611653D01*
X181799171Y-64611653D02*
X181799171Y-64468796D01*
X181799171Y-64468796D02*
X181870600Y-64325939D01*
X181870600Y-64325939D02*
X181942028Y-64254510D01*
X181942028Y-64254510D02*
X182084885Y-64183081D01*
X182084885Y-64183081D02*
X182370600Y-64111653D01*
X182370600Y-64111653D02*
X182727742Y-64111653D01*
X182727742Y-64111653D02*
X183013457Y-64183081D01*
X183013457Y-64183081D02*
X183156314Y-64254510D01*
X183156314Y-64254510D02*
X183227742Y-64325939D01*
X183227742Y-64325939D02*
X183299171Y-64468796D01*
X183299171Y-65897367D02*
X183299171Y-66040224D01*
X183299171Y-66040224D02*
X183227742Y-66183081D01*
X183227742Y-66183081D02*
X183156314Y-66254510D01*
X183156314Y-66254510D02*
X183013457Y-66325938D01*
X183013457Y-66325938D02*
X182727742Y-66397367D01*
X182727742Y-66397367D02*
X182370600Y-66397367D01*
X182370600Y-66397367D02*
X182084885Y-66325938D01*
X182084885Y-66325938D02*
X181942028Y-66254510D01*
X181942028Y-66254510D02*
X181870600Y-66183081D01*
X181870600Y-66183081D02*
X181799171Y-66040224D01*
X181799171Y-66040224D02*
X181799171Y-65897367D01*
X181799171Y-65897367D02*
X181870600Y-65754510D01*
X181870600Y-65754510D02*
X181942028Y-65683081D01*
X181942028Y-65683081D02*
X182084885Y-65611652D01*
X182084885Y-65611652D02*
X182370600Y-65540224D01*
X182370600Y-65540224D02*
X182727742Y-65540224D01*
X182727742Y-65540224D02*
X183013457Y-65611652D01*
X183013457Y-65611652D02*
X183156314Y-65683081D01*
X183156314Y-65683081D02*
X183227742Y-65754510D01*
X183227742Y-65754510D02*
X183299171Y-65897367D01*
X78949171Y-132840225D02*
X78949171Y-131983082D01*
X78949171Y-132411653D02*
X80449171Y-132411653D01*
X80449171Y-132411653D02*
X80234885Y-132268796D01*
X80234885Y-132268796D02*
X80092028Y-132125939D01*
X80092028Y-132125939D02*
X80020600Y-131983082D01*
X78949171Y-133483081D02*
X80449171Y-133483081D01*
X78949171Y-134340224D02*
X79806314Y-133697367D01*
X80449171Y-134340224D02*
X79592028Y-133483081D01*
D11*
X173407257Y-151698245D02*
X173407257Y-151926817D01*
X173407257Y-151926817D02*
X173350114Y-152041102D01*
X173350114Y-152041102D02*
X173235828Y-152155388D01*
X173235828Y-152155388D02*
X173007257Y-152212531D01*
X173007257Y-152212531D02*
X172607257Y-152212531D01*
X172607257Y-152212531D02*
X172378685Y-152155388D01*
X172378685Y-152155388D02*
X172264400Y-152041102D01*
X172264400Y-152041102D02*
X172207257Y-151926817D01*
X172207257Y-151926817D02*
X172207257Y-151698245D01*
X172207257Y-151698245D02*
X172264400Y-151583960D01*
X172264400Y-151583960D02*
X172378685Y-151469674D01*
X172378685Y-151469674D02*
X172607257Y-151412531D01*
X172607257Y-151412531D02*
X173007257Y-151412531D01*
X173007257Y-151412531D02*
X173235828Y-151469674D01*
X173235828Y-151469674D02*
X173350114Y-151583960D01*
X173350114Y-151583960D02*
X173407257Y-151698245D01*
X173007257Y-153241103D02*
X172207257Y-153241103D01*
X173007257Y-152726817D02*
X172378685Y-152726817D01*
X172378685Y-152726817D02*
X172264400Y-152783960D01*
X172264400Y-152783960D02*
X172207257Y-152898245D01*
X172207257Y-152898245D02*
X172207257Y-153069674D01*
X172207257Y-153069674D02*
X172264400Y-153183960D01*
X172264400Y-153183960D02*
X172321542Y-153241103D01*
X173007257Y-153641102D02*
X173007257Y-154098245D01*
X173407257Y-153812531D02*
X172378685Y-153812531D01*
X172378685Y-153812531D02*
X172264400Y-153869674D01*
X172264400Y-153869674D02*
X172207257Y-153983959D01*
X172207257Y-153983959D02*
X172207257Y-154098245D01*
X170700114Y-151783959D02*
X170757257Y-151669674D01*
X170757257Y-151669674D02*
X170757257Y-151498245D01*
X170757257Y-151498245D02*
X170700114Y-151326816D01*
X170700114Y-151326816D02*
X170585828Y-151212531D01*
X170585828Y-151212531D02*
X170471542Y-151155388D01*
X170471542Y-151155388D02*
X170242971Y-151098245D01*
X170242971Y-151098245D02*
X170071542Y-151098245D01*
X170071542Y-151098245D02*
X169842971Y-151155388D01*
X169842971Y-151155388D02*
X169728685Y-151212531D01*
X169728685Y-151212531D02*
X169614400Y-151326816D01*
X169614400Y-151326816D02*
X169557257Y-151498245D01*
X169557257Y-151498245D02*
X169557257Y-151612531D01*
X169557257Y-151612531D02*
X169614400Y-151783959D01*
X169614400Y-151783959D02*
X169671542Y-151841102D01*
X169671542Y-151841102D02*
X170071542Y-151841102D01*
X170071542Y-151841102D02*
X170071542Y-151612531D01*
X169557257Y-152355388D02*
X170757257Y-152355388D01*
X170757257Y-152355388D02*
X169557257Y-153041102D01*
X169557257Y-153041102D02*
X170757257Y-153041102D01*
X169557257Y-153612531D02*
X170757257Y-153612531D01*
X170757257Y-153612531D02*
X170757257Y-153898245D01*
X170757257Y-153898245D02*
X170700114Y-154069674D01*
X170700114Y-154069674D02*
X170585828Y-154183959D01*
X170585828Y-154183959D02*
X170471542Y-154241102D01*
X170471542Y-154241102D02*
X170242971Y-154298245D01*
X170242971Y-154298245D02*
X170071542Y-154298245D01*
X170071542Y-154298245D02*
X169842971Y-154241102D01*
X169842971Y-154241102D02*
X169728685Y-154183959D01*
X169728685Y-154183959D02*
X169614400Y-154069674D01*
X169614400Y-154069674D02*
X169557257Y-153898245D01*
X169557257Y-153898245D02*
X169557257Y-153612531D01*
X37338720Y-152372095D02*
X37224435Y-152314952D01*
X37224435Y-152314952D02*
X37167292Y-152257809D01*
X37167292Y-152257809D02*
X37110149Y-152143524D01*
X37110149Y-152143524D02*
X37110149Y-152086381D01*
X37110149Y-152086381D02*
X37167292Y-151972095D01*
X37167292Y-151972095D02*
X37224435Y-151914952D01*
X37224435Y-151914952D02*
X37338720Y-151857809D01*
X37338720Y-151857809D02*
X37567292Y-151857809D01*
X37567292Y-151857809D02*
X37681578Y-151914952D01*
X37681578Y-151914952D02*
X37738720Y-151972095D01*
X37738720Y-151972095D02*
X37795863Y-152086381D01*
X37795863Y-152086381D02*
X37795863Y-152143524D01*
X37795863Y-152143524D02*
X37738720Y-152257809D01*
X37738720Y-152257809D02*
X37681578Y-152314952D01*
X37681578Y-152314952D02*
X37567292Y-152372095D01*
X37567292Y-152372095D02*
X37338720Y-152372095D01*
X37338720Y-152372095D02*
X37224435Y-152429238D01*
X37224435Y-152429238D02*
X37167292Y-152486381D01*
X37167292Y-152486381D02*
X37110149Y-152600667D01*
X37110149Y-152600667D02*
X37110149Y-152829238D01*
X37110149Y-152829238D02*
X37167292Y-152943524D01*
X37167292Y-152943524D02*
X37224435Y-153000667D01*
X37224435Y-153000667D02*
X37338720Y-153057809D01*
X37338720Y-153057809D02*
X37567292Y-153057809D01*
X37567292Y-153057809D02*
X37681578Y-153000667D01*
X37681578Y-153000667D02*
X37738720Y-152943524D01*
X37738720Y-152943524D02*
X37795863Y-152829238D01*
X37795863Y-152829238D02*
X37795863Y-152600667D01*
X37795863Y-152600667D02*
X37738720Y-152486381D01*
X37738720Y-152486381D02*
X37681578Y-152429238D01*
X37681578Y-152429238D02*
X37567292Y-152372095D01*
X38195863Y-151857809D02*
X38995863Y-151857809D01*
X38995863Y-151857809D02*
X38481577Y-153057809D01*
X39453006Y-152600667D02*
X40367292Y-152600667D01*
X39910149Y-153057809D02*
X39910149Y-152143524D01*
X42253006Y-152429238D02*
X41853006Y-152429238D01*
X41853006Y-153057809D02*
X41853006Y-151857809D01*
X41853006Y-151857809D02*
X42424434Y-151857809D01*
X42881577Y-153057809D02*
X42881577Y-152257809D01*
X42881577Y-151857809D02*
X42824434Y-151914952D01*
X42824434Y-151914952D02*
X42881577Y-151972095D01*
X42881577Y-151972095D02*
X42938720Y-151914952D01*
X42938720Y-151914952D02*
X42881577Y-151857809D01*
X42881577Y-151857809D02*
X42881577Y-151972095D01*
X43910149Y-153000667D02*
X43795863Y-153057809D01*
X43795863Y-153057809D02*
X43567292Y-153057809D01*
X43567292Y-153057809D02*
X43453006Y-153000667D01*
X43453006Y-153000667D02*
X43395863Y-152886381D01*
X43395863Y-152886381D02*
X43395863Y-152429238D01*
X43395863Y-152429238D02*
X43453006Y-152314952D01*
X43453006Y-152314952D02*
X43567292Y-152257809D01*
X43567292Y-152257809D02*
X43795863Y-152257809D01*
X43795863Y-152257809D02*
X43910149Y-152314952D01*
X43910149Y-152314952D02*
X43967292Y-152429238D01*
X43967292Y-152429238D02*
X43967292Y-152543524D01*
X43967292Y-152543524D02*
X43395863Y-152657809D01*
X44481577Y-153057809D02*
X44481577Y-152257809D01*
X44481577Y-152486381D02*
X44538720Y-152372095D01*
X44538720Y-152372095D02*
X44595863Y-152314952D01*
X44595863Y-152314952D02*
X44710148Y-152257809D01*
X44710148Y-152257809D02*
X44824434Y-152257809D01*
X45395862Y-153057809D02*
X45281577Y-153000667D01*
X45281577Y-153000667D02*
X45224434Y-152943524D01*
X45224434Y-152943524D02*
X45167291Y-152829238D01*
X45167291Y-152829238D02*
X45167291Y-152486381D01*
X45167291Y-152486381D02*
X45224434Y-152372095D01*
X45224434Y-152372095D02*
X45281577Y-152314952D01*
X45281577Y-152314952D02*
X45395862Y-152257809D01*
X45395862Y-152257809D02*
X45567291Y-152257809D01*
X45567291Y-152257809D02*
X45681577Y-152314952D01*
X45681577Y-152314952D02*
X45738720Y-152372095D01*
X45738720Y-152372095D02*
X45795862Y-152486381D01*
X45795862Y-152486381D02*
X45795862Y-152829238D01*
X45795862Y-152829238D02*
X45738720Y-152943524D01*
X45738720Y-152943524D02*
X45681577Y-153000667D01*
X45681577Y-153000667D02*
X45567291Y-153057809D01*
X45567291Y-153057809D02*
X45395862Y-153057809D01*
X47224434Y-153057809D02*
X47224434Y-151857809D01*
X47224434Y-152429238D02*
X47910148Y-152429238D01*
X47910148Y-153057809D02*
X47910148Y-151857809D01*
X48938720Y-153000667D02*
X48824434Y-153057809D01*
X48824434Y-153057809D02*
X48595863Y-153057809D01*
X48595863Y-153057809D02*
X48481577Y-153000667D01*
X48481577Y-153000667D02*
X48424434Y-152886381D01*
X48424434Y-152886381D02*
X48424434Y-152429238D01*
X48424434Y-152429238D02*
X48481577Y-152314952D01*
X48481577Y-152314952D02*
X48595863Y-152257809D01*
X48595863Y-152257809D02*
X48824434Y-152257809D01*
X48824434Y-152257809D02*
X48938720Y-152314952D01*
X48938720Y-152314952D02*
X48995863Y-152429238D01*
X48995863Y-152429238D02*
X48995863Y-152543524D01*
X48995863Y-152543524D02*
X48424434Y-152657809D01*
X50024434Y-153057809D02*
X50024434Y-152429238D01*
X50024434Y-152429238D02*
X49967291Y-152314952D01*
X49967291Y-152314952D02*
X49853005Y-152257809D01*
X49853005Y-152257809D02*
X49624434Y-152257809D01*
X49624434Y-152257809D02*
X49510148Y-152314952D01*
X50024434Y-153000667D02*
X49910148Y-153057809D01*
X49910148Y-153057809D02*
X49624434Y-153057809D01*
X49624434Y-153057809D02*
X49510148Y-153000667D01*
X49510148Y-153000667D02*
X49453005Y-152886381D01*
X49453005Y-152886381D02*
X49453005Y-152772095D01*
X49453005Y-152772095D02*
X49510148Y-152657809D01*
X49510148Y-152657809D02*
X49624434Y-152600667D01*
X49624434Y-152600667D02*
X49910148Y-152600667D01*
X49910148Y-152600667D02*
X50024434Y-152543524D01*
X51110148Y-153057809D02*
X51110148Y-151857809D01*
X51110148Y-153000667D02*
X50995862Y-153057809D01*
X50995862Y-153057809D02*
X50767290Y-153057809D01*
X50767290Y-153057809D02*
X50653005Y-153000667D01*
X50653005Y-153000667D02*
X50595862Y-152943524D01*
X50595862Y-152943524D02*
X50538719Y-152829238D01*
X50538719Y-152829238D02*
X50538719Y-152486381D01*
X50538719Y-152486381D02*
X50595862Y-152372095D01*
X50595862Y-152372095D02*
X50653005Y-152314952D01*
X50653005Y-152314952D02*
X50767290Y-152257809D01*
X50767290Y-152257809D02*
X50995862Y-152257809D01*
X50995862Y-152257809D02*
X51110148Y-152314952D01*
X51853004Y-153057809D02*
X51738719Y-153000667D01*
X51738719Y-153000667D02*
X51681576Y-152886381D01*
X51681576Y-152886381D02*
X51681576Y-151857809D01*
X52310147Y-153057809D02*
X52310147Y-152257809D01*
X52310147Y-151857809D02*
X52253004Y-151914952D01*
X52253004Y-151914952D02*
X52310147Y-151972095D01*
X52310147Y-151972095D02*
X52367290Y-151914952D01*
X52367290Y-151914952D02*
X52310147Y-151857809D01*
X52310147Y-151857809D02*
X52310147Y-151972095D01*
X53395862Y-152257809D02*
X53395862Y-153229238D01*
X53395862Y-153229238D02*
X53338719Y-153343524D01*
X53338719Y-153343524D02*
X53281576Y-153400667D01*
X53281576Y-153400667D02*
X53167290Y-153457809D01*
X53167290Y-153457809D02*
X52995862Y-153457809D01*
X52995862Y-153457809D02*
X52881576Y-153400667D01*
X53395862Y-153000667D02*
X53281576Y-153057809D01*
X53281576Y-153057809D02*
X53053004Y-153057809D01*
X53053004Y-153057809D02*
X52938719Y-153000667D01*
X52938719Y-153000667D02*
X52881576Y-152943524D01*
X52881576Y-152943524D02*
X52824433Y-152829238D01*
X52824433Y-152829238D02*
X52824433Y-152486381D01*
X52824433Y-152486381D02*
X52881576Y-152372095D01*
X52881576Y-152372095D02*
X52938719Y-152314952D01*
X52938719Y-152314952D02*
X53053004Y-152257809D01*
X53053004Y-152257809D02*
X53281576Y-152257809D01*
X53281576Y-152257809D02*
X53395862Y-152314952D01*
X53967290Y-153057809D02*
X53967290Y-151857809D01*
X54481576Y-153057809D02*
X54481576Y-152429238D01*
X54481576Y-152429238D02*
X54424433Y-152314952D01*
X54424433Y-152314952D02*
X54310147Y-152257809D01*
X54310147Y-152257809D02*
X54138718Y-152257809D01*
X54138718Y-152257809D02*
X54024433Y-152314952D01*
X54024433Y-152314952D02*
X53967290Y-152372095D01*
X54881575Y-152257809D02*
X55338718Y-152257809D01*
X55053004Y-151857809D02*
X55053004Y-152886381D01*
X55053004Y-152886381D02*
X55110147Y-153000667D01*
X55110147Y-153000667D02*
X55224432Y-153057809D01*
X55224432Y-153057809D02*
X55338718Y-153057809D01*
X57338718Y-152943524D02*
X57281575Y-153000667D01*
X57281575Y-153000667D02*
X57110147Y-153057809D01*
X57110147Y-153057809D02*
X56995861Y-153057809D01*
X56995861Y-153057809D02*
X56824432Y-153000667D01*
X56824432Y-153000667D02*
X56710147Y-152886381D01*
X56710147Y-152886381D02*
X56653004Y-152772095D01*
X56653004Y-152772095D02*
X56595861Y-152543524D01*
X56595861Y-152543524D02*
X56595861Y-152372095D01*
X56595861Y-152372095D02*
X56653004Y-152143524D01*
X56653004Y-152143524D02*
X56710147Y-152029238D01*
X56710147Y-152029238D02*
X56824432Y-151914952D01*
X56824432Y-151914952D02*
X56995861Y-151857809D01*
X56995861Y-151857809D02*
X57110147Y-151857809D01*
X57110147Y-151857809D02*
X57281575Y-151914952D01*
X57281575Y-151914952D02*
X57338718Y-151972095D01*
X58024432Y-153057809D02*
X57910147Y-153000667D01*
X57910147Y-153000667D02*
X57853004Y-152943524D01*
X57853004Y-152943524D02*
X57795861Y-152829238D01*
X57795861Y-152829238D02*
X57795861Y-152486381D01*
X57795861Y-152486381D02*
X57853004Y-152372095D01*
X57853004Y-152372095D02*
X57910147Y-152314952D01*
X57910147Y-152314952D02*
X58024432Y-152257809D01*
X58024432Y-152257809D02*
X58195861Y-152257809D01*
X58195861Y-152257809D02*
X58310147Y-152314952D01*
X58310147Y-152314952D02*
X58367290Y-152372095D01*
X58367290Y-152372095D02*
X58424432Y-152486381D01*
X58424432Y-152486381D02*
X58424432Y-152829238D01*
X58424432Y-152829238D02*
X58367290Y-152943524D01*
X58367290Y-152943524D02*
X58310147Y-153000667D01*
X58310147Y-153000667D02*
X58195861Y-153057809D01*
X58195861Y-153057809D02*
X58024432Y-153057809D01*
X58938718Y-152257809D02*
X58938718Y-153057809D01*
X58938718Y-152372095D02*
X58995861Y-152314952D01*
X58995861Y-152314952D02*
X59110146Y-152257809D01*
X59110146Y-152257809D02*
X59281575Y-152257809D01*
X59281575Y-152257809D02*
X59395861Y-152314952D01*
X59395861Y-152314952D02*
X59453004Y-152429238D01*
X59453004Y-152429238D02*
X59453004Y-153057809D01*
X59853003Y-152257809D02*
X60310146Y-152257809D01*
X60024432Y-151857809D02*
X60024432Y-152886381D01*
X60024432Y-152886381D02*
X60081575Y-153000667D01*
X60081575Y-153000667D02*
X60195860Y-153057809D01*
X60195860Y-153057809D02*
X60310146Y-153057809D01*
X60710146Y-153057809D02*
X60710146Y-152257809D01*
X60710146Y-152486381D02*
X60767289Y-152372095D01*
X60767289Y-152372095D02*
X60824432Y-152314952D01*
X60824432Y-152314952D02*
X60938717Y-152257809D01*
X60938717Y-152257809D02*
X61053003Y-152257809D01*
X61624431Y-153057809D02*
X61510146Y-153000667D01*
X61510146Y-153000667D02*
X61453003Y-152943524D01*
X61453003Y-152943524D02*
X61395860Y-152829238D01*
X61395860Y-152829238D02*
X61395860Y-152486381D01*
X61395860Y-152486381D02*
X61453003Y-152372095D01*
X61453003Y-152372095D02*
X61510146Y-152314952D01*
X61510146Y-152314952D02*
X61624431Y-152257809D01*
X61624431Y-152257809D02*
X61795860Y-152257809D01*
X61795860Y-152257809D02*
X61910146Y-152314952D01*
X61910146Y-152314952D02*
X61967289Y-152372095D01*
X61967289Y-152372095D02*
X62024431Y-152486381D01*
X62024431Y-152486381D02*
X62024431Y-152829238D01*
X62024431Y-152829238D02*
X61967289Y-152943524D01*
X61967289Y-152943524D02*
X61910146Y-153000667D01*
X61910146Y-153000667D02*
X61795860Y-153057809D01*
X61795860Y-153057809D02*
X61624431Y-153057809D01*
X62710145Y-153057809D02*
X62595860Y-153000667D01*
X62595860Y-153000667D02*
X62538717Y-152886381D01*
X62538717Y-152886381D02*
X62538717Y-151857809D01*
X63338716Y-153057809D02*
X63224431Y-153000667D01*
X63224431Y-153000667D02*
X63167288Y-152886381D01*
X63167288Y-152886381D02*
X63167288Y-151857809D01*
X64253002Y-153000667D02*
X64138716Y-153057809D01*
X64138716Y-153057809D02*
X63910145Y-153057809D01*
X63910145Y-153057809D02*
X63795859Y-153000667D01*
X63795859Y-153000667D02*
X63738716Y-152886381D01*
X63738716Y-152886381D02*
X63738716Y-152429238D01*
X63738716Y-152429238D02*
X63795859Y-152314952D01*
X63795859Y-152314952D02*
X63910145Y-152257809D01*
X63910145Y-152257809D02*
X64138716Y-152257809D01*
X64138716Y-152257809D02*
X64253002Y-152314952D01*
X64253002Y-152314952D02*
X64310145Y-152429238D01*
X64310145Y-152429238D02*
X64310145Y-152543524D01*
X64310145Y-152543524D02*
X63738716Y-152657809D01*
X64824430Y-153057809D02*
X64824430Y-152257809D01*
X64824430Y-152486381D02*
X64881573Y-152372095D01*
X64881573Y-152372095D02*
X64938716Y-152314952D01*
X64938716Y-152314952D02*
X65053001Y-152257809D01*
X65053001Y-152257809D02*
X65167287Y-152257809D01*
X36995863Y-153789742D02*
X37395863Y-154989742D01*
X37395863Y-154989742D02*
X37795863Y-153789742D01*
X38138720Y-153904028D02*
X38195863Y-153846885D01*
X38195863Y-153846885D02*
X38310149Y-153789742D01*
X38310149Y-153789742D02*
X38595863Y-153789742D01*
X38595863Y-153789742D02*
X38710149Y-153846885D01*
X38710149Y-153846885D02*
X38767291Y-153904028D01*
X38767291Y-153904028D02*
X38824434Y-154018314D01*
X38824434Y-154018314D02*
X38824434Y-154132600D01*
X38824434Y-154132600D02*
X38767291Y-154304028D01*
X38767291Y-154304028D02*
X38081577Y-154989742D01*
X38081577Y-154989742D02*
X38824434Y-154989742D01*
X39338720Y-154875457D02*
X39395863Y-154932600D01*
X39395863Y-154932600D02*
X39338720Y-154989742D01*
X39338720Y-154989742D02*
X39281577Y-154932600D01*
X39281577Y-154932600D02*
X39338720Y-154875457D01*
X39338720Y-154875457D02*
X39338720Y-154989742D01*
X40538720Y-154989742D02*
X39853006Y-154989742D01*
X40195863Y-154989742D02*
X40195863Y-153789742D01*
X40195863Y-153789742D02*
X40081577Y-153961171D01*
X40081577Y-153961171D02*
X39967292Y-154075457D01*
X39967292Y-154075457D02*
X39853006Y-154132600D01*
X42653006Y-154989742D02*
X42253006Y-154418314D01*
X41967292Y-154989742D02*
X41967292Y-153789742D01*
X41967292Y-153789742D02*
X42424435Y-153789742D01*
X42424435Y-153789742D02*
X42538720Y-153846885D01*
X42538720Y-153846885D02*
X42595863Y-153904028D01*
X42595863Y-153904028D02*
X42653006Y-154018314D01*
X42653006Y-154018314D02*
X42653006Y-154189742D01*
X42653006Y-154189742D02*
X42595863Y-154304028D01*
X42595863Y-154304028D02*
X42538720Y-154361171D01*
X42538720Y-154361171D02*
X42424435Y-154418314D01*
X42424435Y-154418314D02*
X41967292Y-154418314D01*
X43053006Y-154189742D02*
X43338720Y-154989742D01*
X43624435Y-154189742D02*
X43338720Y-154989742D01*
X43338720Y-154989742D02*
X43224435Y-155275457D01*
X43224435Y-155275457D02*
X43167292Y-155332600D01*
X43167292Y-155332600D02*
X43053006Y-155389742D01*
X44595864Y-154989742D02*
X44595864Y-154361171D01*
X44595864Y-154361171D02*
X44538721Y-154246885D01*
X44538721Y-154246885D02*
X44424435Y-154189742D01*
X44424435Y-154189742D02*
X44195864Y-154189742D01*
X44195864Y-154189742D02*
X44081578Y-154246885D01*
X44595864Y-154932600D02*
X44481578Y-154989742D01*
X44481578Y-154989742D02*
X44195864Y-154989742D01*
X44195864Y-154989742D02*
X44081578Y-154932600D01*
X44081578Y-154932600D02*
X44024435Y-154818314D01*
X44024435Y-154818314D02*
X44024435Y-154704028D01*
X44024435Y-154704028D02*
X44081578Y-154589742D01*
X44081578Y-154589742D02*
X44195864Y-154532600D01*
X44195864Y-154532600D02*
X44481578Y-154532600D01*
X44481578Y-154532600D02*
X44595864Y-154475457D01*
X45167292Y-154189742D02*
X45167292Y-154989742D01*
X45167292Y-154304028D02*
X45224435Y-154246885D01*
X45224435Y-154246885D02*
X45338720Y-154189742D01*
X45338720Y-154189742D02*
X45510149Y-154189742D01*
X45510149Y-154189742D02*
X45624435Y-154246885D01*
X45624435Y-154246885D02*
X45681578Y-154361171D01*
X45681578Y-154361171D02*
X45681578Y-154989742D01*
X47567292Y-154361171D02*
X47738720Y-154418314D01*
X47738720Y-154418314D02*
X47795863Y-154475457D01*
X47795863Y-154475457D02*
X47853006Y-154589742D01*
X47853006Y-154589742D02*
X47853006Y-154761171D01*
X47853006Y-154761171D02*
X47795863Y-154875457D01*
X47795863Y-154875457D02*
X47738720Y-154932600D01*
X47738720Y-154932600D02*
X47624435Y-154989742D01*
X47624435Y-154989742D02*
X47167292Y-154989742D01*
X47167292Y-154989742D02*
X47167292Y-153789742D01*
X47167292Y-153789742D02*
X47567292Y-153789742D01*
X47567292Y-153789742D02*
X47681578Y-153846885D01*
X47681578Y-153846885D02*
X47738720Y-153904028D01*
X47738720Y-153904028D02*
X47795863Y-154018314D01*
X47795863Y-154018314D02*
X47795863Y-154132600D01*
X47795863Y-154132600D02*
X47738720Y-154246885D01*
X47738720Y-154246885D02*
X47681578Y-154304028D01*
X47681578Y-154304028D02*
X47567292Y-154361171D01*
X47567292Y-154361171D02*
X47167292Y-154361171D01*
X48538720Y-154989742D02*
X48424435Y-154932600D01*
X48424435Y-154932600D02*
X48367292Y-154818314D01*
X48367292Y-154818314D02*
X48367292Y-153789742D01*
X49510149Y-154989742D02*
X49510149Y-154361171D01*
X49510149Y-154361171D02*
X49453006Y-154246885D01*
X49453006Y-154246885D02*
X49338720Y-154189742D01*
X49338720Y-154189742D02*
X49110149Y-154189742D01*
X49110149Y-154189742D02*
X48995863Y-154246885D01*
X49510149Y-154932600D02*
X49395863Y-154989742D01*
X49395863Y-154989742D02*
X49110149Y-154989742D01*
X49110149Y-154989742D02*
X48995863Y-154932600D01*
X48995863Y-154932600D02*
X48938720Y-154818314D01*
X48938720Y-154818314D02*
X48938720Y-154704028D01*
X48938720Y-154704028D02*
X48995863Y-154589742D01*
X48995863Y-154589742D02*
X49110149Y-154532600D01*
X49110149Y-154532600D02*
X49395863Y-154532600D01*
X49395863Y-154532600D02*
X49510149Y-154475457D01*
X50081577Y-154189742D02*
X50081577Y-154989742D01*
X50081577Y-154304028D02*
X50138720Y-154246885D01*
X50138720Y-154246885D02*
X50253005Y-154189742D01*
X50253005Y-154189742D02*
X50424434Y-154189742D01*
X50424434Y-154189742D02*
X50538720Y-154246885D01*
X50538720Y-154246885D02*
X50595863Y-154361171D01*
X50595863Y-154361171D02*
X50595863Y-154989742D01*
X51681577Y-154932600D02*
X51567291Y-154989742D01*
X51567291Y-154989742D02*
X51338719Y-154989742D01*
X51338719Y-154989742D02*
X51224434Y-154932600D01*
X51224434Y-154932600D02*
X51167291Y-154875457D01*
X51167291Y-154875457D02*
X51110148Y-154761171D01*
X51110148Y-154761171D02*
X51110148Y-154418314D01*
X51110148Y-154418314D02*
X51167291Y-154304028D01*
X51167291Y-154304028D02*
X51224434Y-154246885D01*
X51224434Y-154246885D02*
X51338719Y-154189742D01*
X51338719Y-154189742D02*
X51567291Y-154189742D01*
X51567291Y-154189742D02*
X51681577Y-154246885D01*
X52195862Y-154989742D02*
X52195862Y-153789742D01*
X52710148Y-154989742D02*
X52710148Y-154361171D01*
X52710148Y-154361171D02*
X52653005Y-154246885D01*
X52653005Y-154246885D02*
X52538719Y-154189742D01*
X52538719Y-154189742D02*
X52367290Y-154189742D01*
X52367290Y-154189742D02*
X52253005Y-154246885D01*
X52253005Y-154246885D02*
X52195862Y-154304028D01*
X53795862Y-154989742D02*
X53795862Y-154361171D01*
X53795862Y-154361171D02*
X53738719Y-154246885D01*
X53738719Y-154246885D02*
X53624433Y-154189742D01*
X53624433Y-154189742D02*
X53395862Y-154189742D01*
X53395862Y-154189742D02*
X53281576Y-154246885D01*
X53795862Y-154932600D02*
X53681576Y-154989742D01*
X53681576Y-154989742D02*
X53395862Y-154989742D01*
X53395862Y-154989742D02*
X53281576Y-154932600D01*
X53281576Y-154932600D02*
X53224433Y-154818314D01*
X53224433Y-154818314D02*
X53224433Y-154704028D01*
X53224433Y-154704028D02*
X53281576Y-154589742D01*
X53281576Y-154589742D02*
X53395862Y-154532600D01*
X53395862Y-154532600D02*
X53681576Y-154532600D01*
X53681576Y-154532600D02*
X53795862Y-154475457D01*
X54367290Y-154989742D02*
X54367290Y-154189742D01*
X54367290Y-154418314D02*
X54424433Y-154304028D01*
X54424433Y-154304028D02*
X54481576Y-154246885D01*
X54481576Y-154246885D02*
X54595861Y-154189742D01*
X54595861Y-154189742D02*
X54710147Y-154189742D01*
X55624433Y-154989742D02*
X55624433Y-153789742D01*
X55624433Y-154932600D02*
X55510147Y-154989742D01*
X55510147Y-154989742D02*
X55281575Y-154989742D01*
X55281575Y-154989742D02*
X55167290Y-154932600D01*
X55167290Y-154932600D02*
X55110147Y-154875457D01*
X55110147Y-154875457D02*
X55053004Y-154761171D01*
X55053004Y-154761171D02*
X55053004Y-154418314D01*
X55053004Y-154418314D02*
X55110147Y-154304028D01*
X55110147Y-154304028D02*
X55167290Y-154246885D01*
X55167290Y-154246885D02*
X55281575Y-154189742D01*
X55281575Y-154189742D02*
X55510147Y-154189742D01*
X55510147Y-154189742D02*
X55624433Y-154246885D01*
X57624433Y-154189742D02*
X57624433Y-154989742D01*
X57338718Y-153732600D02*
X57053004Y-154589742D01*
X57053004Y-154589742D02*
X57795861Y-154589742D01*
X58253004Y-154875457D02*
X58310147Y-154932600D01*
X58310147Y-154932600D02*
X58253004Y-154989742D01*
X58253004Y-154989742D02*
X58195861Y-154932600D01*
X58195861Y-154932600D02*
X58253004Y-154875457D01*
X58253004Y-154875457D02*
X58253004Y-154989742D01*
X58767290Y-153904028D02*
X58824433Y-153846885D01*
X58824433Y-153846885D02*
X58938719Y-153789742D01*
X58938719Y-153789742D02*
X59224433Y-153789742D01*
X59224433Y-153789742D02*
X59338719Y-153846885D01*
X59338719Y-153846885D02*
X59395861Y-153904028D01*
X59395861Y-153904028D02*
X59453004Y-154018314D01*
X59453004Y-154018314D02*
X59453004Y-154132600D01*
X59453004Y-154132600D02*
X59395861Y-154304028D01*
X59395861Y-154304028D02*
X58710147Y-154989742D01*
X58710147Y-154989742D02*
X59453004Y-154989742D01*
X60195861Y-153789742D02*
X60310147Y-153789742D01*
X60310147Y-153789742D02*
X60424433Y-153846885D01*
X60424433Y-153846885D02*
X60481576Y-153904028D01*
X60481576Y-153904028D02*
X60538718Y-154018314D01*
X60538718Y-154018314D02*
X60595861Y-154246885D01*
X60595861Y-154246885D02*
X60595861Y-154532600D01*
X60595861Y-154532600D02*
X60538718Y-154761171D01*
X60538718Y-154761171D02*
X60481576Y-154875457D01*
X60481576Y-154875457D02*
X60424433Y-154932600D01*
X60424433Y-154932600D02*
X60310147Y-154989742D01*
X60310147Y-154989742D02*
X60195861Y-154989742D01*
X60195861Y-154989742D02*
X60081576Y-154932600D01*
X60081576Y-154932600D02*
X60024433Y-154875457D01*
X60024433Y-154875457D02*
X59967290Y-154761171D01*
X59967290Y-154761171D02*
X59910147Y-154532600D01*
X59910147Y-154532600D02*
X59910147Y-154246885D01*
X59910147Y-154246885D02*
X59967290Y-154018314D01*
X59967290Y-154018314D02*
X60024433Y-153904028D01*
X60024433Y-153904028D02*
X60081576Y-153846885D01*
X60081576Y-153846885D02*
X60195861Y-153789742D01*
X61053004Y-153904028D02*
X61110147Y-153846885D01*
X61110147Y-153846885D02*
X61224433Y-153789742D01*
X61224433Y-153789742D02*
X61510147Y-153789742D01*
X61510147Y-153789742D02*
X61624433Y-153846885D01*
X61624433Y-153846885D02*
X61681575Y-153904028D01*
X61681575Y-153904028D02*
X61738718Y-154018314D01*
X61738718Y-154018314D02*
X61738718Y-154132600D01*
X61738718Y-154132600D02*
X61681575Y-154304028D01*
X61681575Y-154304028D02*
X60995861Y-154989742D01*
X60995861Y-154989742D02*
X61738718Y-154989742D01*
X62767290Y-154189742D02*
X62767290Y-154989742D01*
X62481575Y-153732600D02*
X62195861Y-154589742D01*
X62195861Y-154589742D02*
X62938718Y-154589742D01*
X37395863Y-155721675D02*
X37624435Y-155721675D01*
X37624435Y-155721675D02*
X37738720Y-155778818D01*
X37738720Y-155778818D02*
X37853006Y-155893104D01*
X37853006Y-155893104D02*
X37910149Y-156121675D01*
X37910149Y-156121675D02*
X37910149Y-156521675D01*
X37910149Y-156521675D02*
X37853006Y-156750247D01*
X37853006Y-156750247D02*
X37738720Y-156864533D01*
X37738720Y-156864533D02*
X37624435Y-156921675D01*
X37624435Y-156921675D02*
X37395863Y-156921675D01*
X37395863Y-156921675D02*
X37281578Y-156864533D01*
X37281578Y-156864533D02*
X37167292Y-156750247D01*
X37167292Y-156750247D02*
X37110149Y-156521675D01*
X37110149Y-156521675D02*
X37110149Y-156121675D01*
X37110149Y-156121675D02*
X37167292Y-155893104D01*
X37167292Y-155893104D02*
X37281578Y-155778818D01*
X37281578Y-155778818D02*
X37395863Y-155721675D01*
X38424435Y-156921675D02*
X38424435Y-156121675D01*
X38424435Y-156350247D02*
X38481578Y-156235961D01*
X38481578Y-156235961D02*
X38538721Y-156178818D01*
X38538721Y-156178818D02*
X38653006Y-156121675D01*
X38653006Y-156121675D02*
X38767292Y-156121675D01*
X39167292Y-156921675D02*
X39167292Y-156121675D01*
X39167292Y-155721675D02*
X39110149Y-155778818D01*
X39110149Y-155778818D02*
X39167292Y-155835961D01*
X39167292Y-155835961D02*
X39224435Y-155778818D01*
X39224435Y-155778818D02*
X39167292Y-155721675D01*
X39167292Y-155721675D02*
X39167292Y-155835961D01*
X40253007Y-156121675D02*
X40253007Y-157093104D01*
X40253007Y-157093104D02*
X40195864Y-157207390D01*
X40195864Y-157207390D02*
X40138721Y-157264533D01*
X40138721Y-157264533D02*
X40024435Y-157321675D01*
X40024435Y-157321675D02*
X39853007Y-157321675D01*
X39853007Y-157321675D02*
X39738721Y-157264533D01*
X40253007Y-156864533D02*
X40138721Y-156921675D01*
X40138721Y-156921675D02*
X39910149Y-156921675D01*
X39910149Y-156921675D02*
X39795864Y-156864533D01*
X39795864Y-156864533D02*
X39738721Y-156807390D01*
X39738721Y-156807390D02*
X39681578Y-156693104D01*
X39681578Y-156693104D02*
X39681578Y-156350247D01*
X39681578Y-156350247D02*
X39738721Y-156235961D01*
X39738721Y-156235961D02*
X39795864Y-156178818D01*
X39795864Y-156178818D02*
X39910149Y-156121675D01*
X39910149Y-156121675D02*
X40138721Y-156121675D01*
X40138721Y-156121675D02*
X40253007Y-156178818D01*
X40824435Y-156921675D02*
X40824435Y-156121675D01*
X40824435Y-155721675D02*
X40767292Y-155778818D01*
X40767292Y-155778818D02*
X40824435Y-155835961D01*
X40824435Y-155835961D02*
X40881578Y-155778818D01*
X40881578Y-155778818D02*
X40824435Y-155721675D01*
X40824435Y-155721675D02*
X40824435Y-155835961D01*
X41395864Y-156121675D02*
X41395864Y-156921675D01*
X41395864Y-156235961D02*
X41453007Y-156178818D01*
X41453007Y-156178818D02*
X41567292Y-156121675D01*
X41567292Y-156121675D02*
X41738721Y-156121675D01*
X41738721Y-156121675D02*
X41853007Y-156178818D01*
X41853007Y-156178818D02*
X41910150Y-156293104D01*
X41910150Y-156293104D02*
X41910150Y-156921675D01*
X42995864Y-156921675D02*
X42995864Y-156293104D01*
X42995864Y-156293104D02*
X42938721Y-156178818D01*
X42938721Y-156178818D02*
X42824435Y-156121675D01*
X42824435Y-156121675D02*
X42595864Y-156121675D01*
X42595864Y-156121675D02*
X42481578Y-156178818D01*
X42995864Y-156864533D02*
X42881578Y-156921675D01*
X42881578Y-156921675D02*
X42595864Y-156921675D01*
X42595864Y-156921675D02*
X42481578Y-156864533D01*
X42481578Y-156864533D02*
X42424435Y-156750247D01*
X42424435Y-156750247D02*
X42424435Y-156635961D01*
X42424435Y-156635961D02*
X42481578Y-156521675D01*
X42481578Y-156521675D02*
X42595864Y-156464533D01*
X42595864Y-156464533D02*
X42881578Y-156464533D01*
X42881578Y-156464533D02*
X42995864Y-156407390D01*
X43738720Y-156921675D02*
X43624435Y-156864533D01*
X43624435Y-156864533D02*
X43567292Y-156750247D01*
X43567292Y-156750247D02*
X43567292Y-155721675D01*
X45110149Y-156921675D02*
X45110149Y-155721675D01*
X45110149Y-155721675D02*
X45395863Y-155721675D01*
X45395863Y-155721675D02*
X45567292Y-155778818D01*
X45567292Y-155778818D02*
X45681577Y-155893104D01*
X45681577Y-155893104D02*
X45738720Y-156007390D01*
X45738720Y-156007390D02*
X45795863Y-156235961D01*
X45795863Y-156235961D02*
X45795863Y-156407390D01*
X45795863Y-156407390D02*
X45738720Y-156635961D01*
X45738720Y-156635961D02*
X45681577Y-156750247D01*
X45681577Y-156750247D02*
X45567292Y-156864533D01*
X45567292Y-156864533D02*
X45395863Y-156921675D01*
X45395863Y-156921675D02*
X45110149Y-156921675D01*
X46767292Y-156864533D02*
X46653006Y-156921675D01*
X46653006Y-156921675D02*
X46424435Y-156921675D01*
X46424435Y-156921675D02*
X46310149Y-156864533D01*
X46310149Y-156864533D02*
X46253006Y-156750247D01*
X46253006Y-156750247D02*
X46253006Y-156293104D01*
X46253006Y-156293104D02*
X46310149Y-156178818D01*
X46310149Y-156178818D02*
X46424435Y-156121675D01*
X46424435Y-156121675D02*
X46653006Y-156121675D01*
X46653006Y-156121675D02*
X46767292Y-156178818D01*
X46767292Y-156178818D02*
X46824435Y-156293104D01*
X46824435Y-156293104D02*
X46824435Y-156407390D01*
X46824435Y-156407390D02*
X46253006Y-156521675D01*
X47281577Y-156864533D02*
X47395863Y-156921675D01*
X47395863Y-156921675D02*
X47624434Y-156921675D01*
X47624434Y-156921675D02*
X47738720Y-156864533D01*
X47738720Y-156864533D02*
X47795863Y-156750247D01*
X47795863Y-156750247D02*
X47795863Y-156693104D01*
X47795863Y-156693104D02*
X47738720Y-156578818D01*
X47738720Y-156578818D02*
X47624434Y-156521675D01*
X47624434Y-156521675D02*
X47453006Y-156521675D01*
X47453006Y-156521675D02*
X47338720Y-156464533D01*
X47338720Y-156464533D02*
X47281577Y-156350247D01*
X47281577Y-156350247D02*
X47281577Y-156293104D01*
X47281577Y-156293104D02*
X47338720Y-156178818D01*
X47338720Y-156178818D02*
X47453006Y-156121675D01*
X47453006Y-156121675D02*
X47624434Y-156121675D01*
X47624434Y-156121675D02*
X47738720Y-156178818D01*
X48310149Y-156921675D02*
X48310149Y-156121675D01*
X48310149Y-155721675D02*
X48253006Y-155778818D01*
X48253006Y-155778818D02*
X48310149Y-155835961D01*
X48310149Y-155835961D02*
X48367292Y-155778818D01*
X48367292Y-155778818D02*
X48310149Y-155721675D01*
X48310149Y-155721675D02*
X48310149Y-155835961D01*
X49395864Y-156121675D02*
X49395864Y-157093104D01*
X49395864Y-157093104D02*
X49338721Y-157207390D01*
X49338721Y-157207390D02*
X49281578Y-157264533D01*
X49281578Y-157264533D02*
X49167292Y-157321675D01*
X49167292Y-157321675D02*
X48995864Y-157321675D01*
X48995864Y-157321675D02*
X48881578Y-157264533D01*
X49395864Y-156864533D02*
X49281578Y-156921675D01*
X49281578Y-156921675D02*
X49053006Y-156921675D01*
X49053006Y-156921675D02*
X48938721Y-156864533D01*
X48938721Y-156864533D02*
X48881578Y-156807390D01*
X48881578Y-156807390D02*
X48824435Y-156693104D01*
X48824435Y-156693104D02*
X48824435Y-156350247D01*
X48824435Y-156350247D02*
X48881578Y-156235961D01*
X48881578Y-156235961D02*
X48938721Y-156178818D01*
X48938721Y-156178818D02*
X49053006Y-156121675D01*
X49053006Y-156121675D02*
X49281578Y-156121675D01*
X49281578Y-156121675D02*
X49395864Y-156178818D01*
X49967292Y-156121675D02*
X49967292Y-156921675D01*
X49967292Y-156235961D02*
X50024435Y-156178818D01*
X50024435Y-156178818D02*
X50138720Y-156121675D01*
X50138720Y-156121675D02*
X50310149Y-156121675D01*
X50310149Y-156121675D02*
X50424435Y-156178818D01*
X50424435Y-156178818D02*
X50481578Y-156293104D01*
X50481578Y-156293104D02*
X50481578Y-156921675D01*
X51967292Y-156921675D02*
X51967292Y-155721675D01*
X51967292Y-156178818D02*
X52081578Y-156121675D01*
X52081578Y-156121675D02*
X52310149Y-156121675D01*
X52310149Y-156121675D02*
X52424435Y-156178818D01*
X52424435Y-156178818D02*
X52481578Y-156235961D01*
X52481578Y-156235961D02*
X52538720Y-156350247D01*
X52538720Y-156350247D02*
X52538720Y-156693104D01*
X52538720Y-156693104D02*
X52481578Y-156807390D01*
X52481578Y-156807390D02*
X52424435Y-156864533D01*
X52424435Y-156864533D02*
X52310149Y-156921675D01*
X52310149Y-156921675D02*
X52081578Y-156921675D01*
X52081578Y-156921675D02*
X51967292Y-156864533D01*
X52938720Y-156121675D02*
X53224434Y-156921675D01*
X53510149Y-156121675D02*
X53224434Y-156921675D01*
X53224434Y-156921675D02*
X53110149Y-157207390D01*
X53110149Y-157207390D02*
X53053006Y-157264533D01*
X53053006Y-157264533D02*
X52938720Y-157321675D01*
X54767292Y-155721675D02*
X55053006Y-156921675D01*
X55053006Y-156921675D02*
X55281578Y-156064533D01*
X55281578Y-156064533D02*
X55510149Y-156921675D01*
X55510149Y-156921675D02*
X55795864Y-155721675D01*
X56767293Y-156921675D02*
X56767293Y-156293104D01*
X56767293Y-156293104D02*
X56710150Y-156178818D01*
X56710150Y-156178818D02*
X56595864Y-156121675D01*
X56595864Y-156121675D02*
X56367293Y-156121675D01*
X56367293Y-156121675D02*
X56253007Y-156178818D01*
X56767293Y-156864533D02*
X56653007Y-156921675D01*
X56653007Y-156921675D02*
X56367293Y-156921675D01*
X56367293Y-156921675D02*
X56253007Y-156864533D01*
X56253007Y-156864533D02*
X56195864Y-156750247D01*
X56195864Y-156750247D02*
X56195864Y-156635961D01*
X56195864Y-156635961D02*
X56253007Y-156521675D01*
X56253007Y-156521675D02*
X56367293Y-156464533D01*
X56367293Y-156464533D02*
X56653007Y-156464533D01*
X56653007Y-156464533D02*
X56767293Y-156407390D01*
X57510149Y-156921675D02*
X57395864Y-156864533D01*
X57395864Y-156864533D02*
X57338721Y-156750247D01*
X57338721Y-156750247D02*
X57338721Y-155721675D01*
X57967292Y-156921675D02*
X57967292Y-155721675D01*
X58081578Y-156464533D02*
X58424435Y-156921675D01*
X58424435Y-156121675D02*
X57967292Y-156578818D01*
X59395864Y-156864533D02*
X59281578Y-156921675D01*
X59281578Y-156921675D02*
X59053007Y-156921675D01*
X59053007Y-156921675D02*
X58938721Y-156864533D01*
X58938721Y-156864533D02*
X58881578Y-156750247D01*
X58881578Y-156750247D02*
X58881578Y-156293104D01*
X58881578Y-156293104D02*
X58938721Y-156178818D01*
X58938721Y-156178818D02*
X59053007Y-156121675D01*
X59053007Y-156121675D02*
X59281578Y-156121675D01*
X59281578Y-156121675D02*
X59395864Y-156178818D01*
X59395864Y-156178818D02*
X59453007Y-156293104D01*
X59453007Y-156293104D02*
X59453007Y-156407390D01*
X59453007Y-156407390D02*
X58881578Y-156521675D01*
X59967292Y-156921675D02*
X59967292Y-156121675D01*
X59967292Y-156350247D02*
X60024435Y-156235961D01*
X60024435Y-156235961D02*
X60081578Y-156178818D01*
X60081578Y-156178818D02*
X60195863Y-156121675D01*
X60195863Y-156121675D02*
X60310149Y-156121675D01*
X60538720Y-155721675D02*
X61224435Y-155721675D01*
X60881577Y-156921675D02*
X60881577Y-155721675D01*
X62081578Y-156864533D02*
X61967292Y-156921675D01*
X61967292Y-156921675D02*
X61738721Y-156921675D01*
X61738721Y-156921675D02*
X61624435Y-156864533D01*
X61624435Y-156864533D02*
X61567292Y-156750247D01*
X61567292Y-156750247D02*
X61567292Y-156293104D01*
X61567292Y-156293104D02*
X61624435Y-156178818D01*
X61624435Y-156178818D02*
X61738721Y-156121675D01*
X61738721Y-156121675D02*
X61967292Y-156121675D01*
X61967292Y-156121675D02*
X62081578Y-156178818D01*
X62081578Y-156178818D02*
X62138721Y-156293104D01*
X62138721Y-156293104D02*
X62138721Y-156407390D01*
X62138721Y-156407390D02*
X61567292Y-156521675D01*
X62538720Y-156921675D02*
X63167292Y-156121675D01*
X62538720Y-156121675D02*
X63167292Y-156921675D01*
X64138721Y-156921675D02*
X64138721Y-156293104D01*
X64138721Y-156293104D02*
X64081578Y-156178818D01*
X64081578Y-156178818D02*
X63967292Y-156121675D01*
X63967292Y-156121675D02*
X63738721Y-156121675D01*
X63738721Y-156121675D02*
X63624435Y-156178818D01*
X64138721Y-156864533D02*
X64024435Y-156921675D01*
X64024435Y-156921675D02*
X63738721Y-156921675D01*
X63738721Y-156921675D02*
X63624435Y-156864533D01*
X63624435Y-156864533D02*
X63567292Y-156750247D01*
X63567292Y-156750247D02*
X63567292Y-156635961D01*
X63567292Y-156635961D02*
X63624435Y-156521675D01*
X63624435Y-156521675D02*
X63738721Y-156464533D01*
X63738721Y-156464533D02*
X64024435Y-156464533D01*
X64024435Y-156464533D02*
X64138721Y-156407390D01*
X64710149Y-156121675D02*
X64710149Y-156921675D01*
X64710149Y-156235961D02*
X64767292Y-156178818D01*
X64767292Y-156178818D02*
X64881577Y-156121675D01*
X64881577Y-156121675D02*
X65053006Y-156121675D01*
X65053006Y-156121675D02*
X65167292Y-156178818D01*
X65167292Y-156178818D02*
X65224435Y-156293104D01*
X65224435Y-156293104D02*
X65224435Y-156921675D01*
X133903006Y-99906028D02*
X133188720Y-99906028D01*
X133188720Y-99906028D02*
X133117292Y-100620314D01*
X133117292Y-100620314D02*
X133188720Y-100548885D01*
X133188720Y-100548885D02*
X133331578Y-100477457D01*
X133331578Y-100477457D02*
X133688720Y-100477457D01*
X133688720Y-100477457D02*
X133831578Y-100548885D01*
X133831578Y-100548885D02*
X133903006Y-100620314D01*
X133903006Y-100620314D02*
X133974435Y-100763171D01*
X133974435Y-100763171D02*
X133974435Y-101120314D01*
X133974435Y-101120314D02*
X133903006Y-101263171D01*
X133903006Y-101263171D02*
X133831578Y-101334600D01*
X133831578Y-101334600D02*
X133688720Y-101406028D01*
X133688720Y-101406028D02*
X133331578Y-101406028D01*
X133331578Y-101406028D02*
X133188720Y-101334600D01*
X133188720Y-101334600D02*
X133117292Y-101263171D01*
X134403006Y-99906028D02*
X134903006Y-101406028D01*
X134903006Y-101406028D02*
X135403006Y-99906028D01*
X137903005Y-101406028D02*
X137403005Y-100691742D01*
X137045862Y-101406028D02*
X137045862Y-99906028D01*
X137045862Y-99906028D02*
X137617291Y-99906028D01*
X137617291Y-99906028D02*
X137760148Y-99977457D01*
X137760148Y-99977457D02*
X137831577Y-100048885D01*
X137831577Y-100048885D02*
X137903005Y-100191742D01*
X137903005Y-100191742D02*
X137903005Y-100406028D01*
X137903005Y-100406028D02*
X137831577Y-100548885D01*
X137831577Y-100548885D02*
X137760148Y-100620314D01*
X137760148Y-100620314D02*
X137617291Y-100691742D01*
X137617291Y-100691742D02*
X137045862Y-100691742D01*
X139117291Y-101334600D02*
X138974434Y-101406028D01*
X138974434Y-101406028D02*
X138688720Y-101406028D01*
X138688720Y-101406028D02*
X138545862Y-101334600D01*
X138545862Y-101334600D02*
X138474434Y-101191742D01*
X138474434Y-101191742D02*
X138474434Y-100620314D01*
X138474434Y-100620314D02*
X138545862Y-100477457D01*
X138545862Y-100477457D02*
X138688720Y-100406028D01*
X138688720Y-100406028D02*
X138974434Y-100406028D01*
X138974434Y-100406028D02*
X139117291Y-100477457D01*
X139117291Y-100477457D02*
X139188720Y-100620314D01*
X139188720Y-100620314D02*
X139188720Y-100763171D01*
X139188720Y-100763171D02*
X138474434Y-100906028D01*
X140045862Y-101406028D02*
X139903005Y-101334600D01*
X139903005Y-101334600D02*
X139831576Y-101191742D01*
X139831576Y-101191742D02*
X139831576Y-99906028D01*
X141260148Y-101406028D02*
X141260148Y-100620314D01*
X141260148Y-100620314D02*
X141188719Y-100477457D01*
X141188719Y-100477457D02*
X141045862Y-100406028D01*
X141045862Y-100406028D02*
X140760148Y-100406028D01*
X140760148Y-100406028D02*
X140617290Y-100477457D01*
X141260148Y-101334600D02*
X141117290Y-101406028D01*
X141117290Y-101406028D02*
X140760148Y-101406028D01*
X140760148Y-101406028D02*
X140617290Y-101334600D01*
X140617290Y-101334600D02*
X140545862Y-101191742D01*
X140545862Y-101191742D02*
X140545862Y-101048885D01*
X140545862Y-101048885D02*
X140617290Y-100906028D01*
X140617290Y-100906028D02*
X140760148Y-100834600D01*
X140760148Y-100834600D02*
X141117290Y-100834600D01*
X141117290Y-100834600D02*
X141260148Y-100763171D01*
X141831576Y-100406028D02*
X142188719Y-101406028D01*
X142545862Y-100406028D02*
X142188719Y-101406028D01*
X142188719Y-101406028D02*
X142045862Y-101763171D01*
X142045862Y-101763171D02*
X141974433Y-101834600D01*
X141974433Y-101834600D02*
X141831576Y-101906028D01*
D13*
X184356314Y-145883082D02*
X184427742Y-145954510D01*
X184427742Y-145954510D02*
X184499171Y-146097368D01*
X184499171Y-146097368D02*
X184499171Y-146454510D01*
X184499171Y-146454510D02*
X184427742Y-146597368D01*
X184427742Y-146597368D02*
X184356314Y-146668796D01*
X184356314Y-146668796D02*
X184213457Y-146740225D01*
X184213457Y-146740225D02*
X184070600Y-146740225D01*
X184070600Y-146740225D02*
X183856314Y-146668796D01*
X183856314Y-146668796D02*
X182999171Y-145811653D01*
X182999171Y-145811653D02*
X182999171Y-146740225D01*
X184499171Y-147668796D02*
X184499171Y-147811653D01*
X184499171Y-147811653D02*
X184427742Y-147954510D01*
X184427742Y-147954510D02*
X184356314Y-148025939D01*
X184356314Y-148025939D02*
X184213457Y-148097367D01*
X184213457Y-148097367D02*
X183927742Y-148168796D01*
X183927742Y-148168796D02*
X183570600Y-148168796D01*
X183570600Y-148168796D02*
X183284885Y-148097367D01*
X183284885Y-148097367D02*
X183142028Y-148025939D01*
X183142028Y-148025939D02*
X183070600Y-147954510D01*
X183070600Y-147954510D02*
X182999171Y-147811653D01*
X182999171Y-147811653D02*
X182999171Y-147668796D01*
X182999171Y-147668796D02*
X183070600Y-147525939D01*
X183070600Y-147525939D02*
X183142028Y-147454510D01*
X183142028Y-147454510D02*
X183284885Y-147383081D01*
X183284885Y-147383081D02*
X183570600Y-147311653D01*
X183570600Y-147311653D02*
X183927742Y-147311653D01*
X183927742Y-147311653D02*
X184213457Y-147383081D01*
X184213457Y-147383081D02*
X184356314Y-147454510D01*
X184356314Y-147454510D02*
X184427742Y-147525939D01*
X184427742Y-147525939D02*
X184499171Y-147668796D01*
X184499171Y-149097367D02*
X184499171Y-149240224D01*
X184499171Y-149240224D02*
X184427742Y-149383081D01*
X184427742Y-149383081D02*
X184356314Y-149454510D01*
X184356314Y-149454510D02*
X184213457Y-149525938D01*
X184213457Y-149525938D02*
X183927742Y-149597367D01*
X183927742Y-149597367D02*
X183570600Y-149597367D01*
X183570600Y-149597367D02*
X183284885Y-149525938D01*
X183284885Y-149525938D02*
X183142028Y-149454510D01*
X183142028Y-149454510D02*
X183070600Y-149383081D01*
X183070600Y-149383081D02*
X182999171Y-149240224D01*
X182999171Y-149240224D02*
X182999171Y-149097367D01*
X182999171Y-149097367D02*
X183070600Y-148954510D01*
X183070600Y-148954510D02*
X183142028Y-148883081D01*
X183142028Y-148883081D02*
X183284885Y-148811652D01*
X183284885Y-148811652D02*
X183570600Y-148740224D01*
X183570600Y-148740224D02*
X183927742Y-148740224D01*
X183927742Y-148740224D02*
X184213457Y-148811652D01*
X184213457Y-148811652D02*
X184356314Y-148883081D01*
X184356314Y-148883081D02*
X184427742Y-148954510D01*
X184427742Y-148954510D02*
X184499171Y-149097367D01*
D11*
X61460149Y-116513171D02*
X61388721Y-116584600D01*
X61388721Y-116584600D02*
X61174435Y-116656028D01*
X61174435Y-116656028D02*
X61031578Y-116656028D01*
X61031578Y-116656028D02*
X60817292Y-116584600D01*
X60817292Y-116584600D02*
X60674435Y-116441742D01*
X60674435Y-116441742D02*
X60603006Y-116298885D01*
X60603006Y-116298885D02*
X60531578Y-116013171D01*
X60531578Y-116013171D02*
X60531578Y-115798885D01*
X60531578Y-115798885D02*
X60603006Y-115513171D01*
X60603006Y-115513171D02*
X60674435Y-115370314D01*
X60674435Y-115370314D02*
X60817292Y-115227457D01*
X60817292Y-115227457D02*
X61031578Y-115156028D01*
X61031578Y-115156028D02*
X61174435Y-115156028D01*
X61174435Y-115156028D02*
X61388721Y-115227457D01*
X61388721Y-115227457D02*
X61460149Y-115298885D01*
X62888721Y-116656028D02*
X62031578Y-116656028D01*
X62460149Y-116656028D02*
X62460149Y-115156028D01*
X62460149Y-115156028D02*
X62317292Y-115370314D01*
X62317292Y-115370314D02*
X62174435Y-115513171D01*
X62174435Y-115513171D02*
X62031578Y-115584600D01*
X63531577Y-116084600D02*
X64674435Y-116084600D01*
X65245863Y-115156028D02*
X66174435Y-115156028D01*
X66174435Y-115156028D02*
X65674435Y-115727457D01*
X65674435Y-115727457D02*
X65888720Y-115727457D01*
X65888720Y-115727457D02*
X66031578Y-115798885D01*
X66031578Y-115798885D02*
X66103006Y-115870314D01*
X66103006Y-115870314D02*
X66174435Y-116013171D01*
X66174435Y-116013171D02*
X66174435Y-116370314D01*
X66174435Y-116370314D02*
X66103006Y-116513171D01*
X66103006Y-116513171D02*
X66031578Y-116584600D01*
X66031578Y-116584600D02*
X65888720Y-116656028D01*
X65888720Y-116656028D02*
X65460149Y-116656028D01*
X65460149Y-116656028D02*
X65317292Y-116584600D01*
X65317292Y-116584600D02*
X65245863Y-116513171D01*
X69960148Y-116513171D02*
X69888720Y-116584600D01*
X69888720Y-116584600D02*
X69674434Y-116656028D01*
X69674434Y-116656028D02*
X69531577Y-116656028D01*
X69531577Y-116656028D02*
X69317291Y-116584600D01*
X69317291Y-116584600D02*
X69174434Y-116441742D01*
X69174434Y-116441742D02*
X69103005Y-116298885D01*
X69103005Y-116298885D02*
X69031577Y-116013171D01*
X69031577Y-116013171D02*
X69031577Y-115798885D01*
X69031577Y-115798885D02*
X69103005Y-115513171D01*
X69103005Y-115513171D02*
X69174434Y-115370314D01*
X69174434Y-115370314D02*
X69317291Y-115227457D01*
X69317291Y-115227457D02*
X69531577Y-115156028D01*
X69531577Y-115156028D02*
X69674434Y-115156028D01*
X69674434Y-115156028D02*
X69888720Y-115227457D01*
X69888720Y-115227457D02*
X69960148Y-115298885D01*
X71388720Y-116656028D02*
X70531577Y-116656028D01*
X70960148Y-116656028D02*
X70960148Y-115156028D01*
X70960148Y-115156028D02*
X70817291Y-115370314D01*
X70817291Y-115370314D02*
X70674434Y-115513171D01*
X70674434Y-115513171D02*
X70531577Y-115584600D01*
X72031576Y-116084600D02*
X73174434Y-116084600D01*
X74531577Y-115656028D02*
X74531577Y-116656028D01*
X74174434Y-115084600D02*
X73817291Y-116156028D01*
X73817291Y-116156028D02*
X74745862Y-116156028D01*
D13*
X71840225Y-90300828D02*
X70983082Y-90300828D01*
X71411653Y-90300828D02*
X71411653Y-88800828D01*
X71411653Y-88800828D02*
X71268796Y-89015114D01*
X71268796Y-89015114D02*
X71125939Y-89157971D01*
X71125939Y-89157971D02*
X70983082Y-89229400D01*
X72768796Y-88800828D02*
X72911653Y-88800828D01*
X72911653Y-88800828D02*
X73054510Y-88872257D01*
X73054510Y-88872257D02*
X73125939Y-88943685D01*
X73125939Y-88943685D02*
X73197367Y-89086542D01*
X73197367Y-89086542D02*
X73268796Y-89372257D01*
X73268796Y-89372257D02*
X73268796Y-89729400D01*
X73268796Y-89729400D02*
X73197367Y-90015114D01*
X73197367Y-90015114D02*
X73125939Y-90157971D01*
X73125939Y-90157971D02*
X73054510Y-90229400D01*
X73054510Y-90229400D02*
X72911653Y-90300828D01*
X72911653Y-90300828D02*
X72768796Y-90300828D01*
X72768796Y-90300828D02*
X72625939Y-90229400D01*
X72625939Y-90229400D02*
X72554510Y-90157971D01*
X72554510Y-90157971D02*
X72483081Y-90015114D01*
X72483081Y-90015114D02*
X72411653Y-89729400D01*
X72411653Y-89729400D02*
X72411653Y-89372257D01*
X72411653Y-89372257D02*
X72483081Y-89086542D01*
X72483081Y-89086542D02*
X72554510Y-88943685D01*
X72554510Y-88943685D02*
X72625939Y-88872257D01*
X72625939Y-88872257D02*
X72768796Y-88800828D01*
X73911652Y-90300828D02*
X73911652Y-88800828D01*
X74768795Y-90300828D02*
X74125938Y-89443685D01*
X74768795Y-88800828D02*
X73911652Y-89657971D01*
D11*
X80745863Y-77610809D02*
X80060149Y-77610809D01*
X80403006Y-77610809D02*
X80403006Y-76410809D01*
X80403006Y-76410809D02*
X80288720Y-76582238D01*
X80288720Y-76582238D02*
X80174435Y-76696524D01*
X80174435Y-76696524D02*
X80060149Y-76753667D01*
X81488720Y-76410809D02*
X81603006Y-76410809D01*
X81603006Y-76410809D02*
X81717292Y-76467952D01*
X81717292Y-76467952D02*
X81774435Y-76525095D01*
X81774435Y-76525095D02*
X81831577Y-76639381D01*
X81831577Y-76639381D02*
X81888720Y-76867952D01*
X81888720Y-76867952D02*
X81888720Y-77153667D01*
X81888720Y-77153667D02*
X81831577Y-77382238D01*
X81831577Y-77382238D02*
X81774435Y-77496524D01*
X81774435Y-77496524D02*
X81717292Y-77553667D01*
X81717292Y-77553667D02*
X81603006Y-77610809D01*
X81603006Y-77610809D02*
X81488720Y-77610809D01*
X81488720Y-77610809D02*
X81374435Y-77553667D01*
X81374435Y-77553667D02*
X81317292Y-77496524D01*
X81317292Y-77496524D02*
X81260149Y-77382238D01*
X81260149Y-77382238D02*
X81203006Y-77153667D01*
X81203006Y-77153667D02*
X81203006Y-76867952D01*
X81203006Y-76867952D02*
X81260149Y-76639381D01*
X81260149Y-76639381D02*
X81317292Y-76525095D01*
X81317292Y-76525095D02*
X81374435Y-76467952D01*
X81374435Y-76467952D02*
X81488720Y-76410809D01*
X82917292Y-76810809D02*
X82917292Y-77610809D01*
X82403006Y-76810809D02*
X82403006Y-77439381D01*
X82403006Y-77439381D02*
X82460149Y-77553667D01*
X82460149Y-77553667D02*
X82574434Y-77610809D01*
X82574434Y-77610809D02*
X82745863Y-77610809D01*
X82745863Y-77610809D02*
X82860149Y-77553667D01*
X82860149Y-77553667D02*
X82917292Y-77496524D01*
X83888720Y-76982238D02*
X83488720Y-76982238D01*
X83488720Y-77610809D02*
X83488720Y-76410809D01*
X83488720Y-76410809D02*
X84060148Y-76410809D01*
X80060149Y-78457028D02*
X80117292Y-78399885D01*
X80117292Y-78399885D02*
X80231578Y-78342742D01*
X80231578Y-78342742D02*
X80517292Y-78342742D01*
X80517292Y-78342742D02*
X80631578Y-78399885D01*
X80631578Y-78399885D02*
X80688720Y-78457028D01*
X80688720Y-78457028D02*
X80745863Y-78571314D01*
X80745863Y-78571314D02*
X80745863Y-78685600D01*
X80745863Y-78685600D02*
X80688720Y-78857028D01*
X80688720Y-78857028D02*
X80003006Y-79542742D01*
X80003006Y-79542742D02*
X80745863Y-79542742D01*
X81831577Y-78342742D02*
X81260149Y-78342742D01*
X81260149Y-78342742D02*
X81203006Y-78914171D01*
X81203006Y-78914171D02*
X81260149Y-78857028D01*
X81260149Y-78857028D02*
X81374435Y-78799885D01*
X81374435Y-78799885D02*
X81660149Y-78799885D01*
X81660149Y-78799885D02*
X81774435Y-78857028D01*
X81774435Y-78857028D02*
X81831577Y-78914171D01*
X81831577Y-78914171D02*
X81888720Y-79028457D01*
X81888720Y-79028457D02*
X81888720Y-79314171D01*
X81888720Y-79314171D02*
X81831577Y-79428457D01*
X81831577Y-79428457D02*
X81774435Y-79485600D01*
X81774435Y-79485600D02*
X81660149Y-79542742D01*
X81660149Y-79542742D02*
X81374435Y-79542742D01*
X81374435Y-79542742D02*
X81260149Y-79485600D01*
X81260149Y-79485600D02*
X81203006Y-79428457D01*
X82231577Y-78342742D02*
X82631577Y-79542742D01*
X82631577Y-79542742D02*
X83031577Y-78342742D01*
X133703006Y-128106028D02*
X132988720Y-128106028D01*
X132988720Y-128106028D02*
X132917292Y-128820314D01*
X132917292Y-128820314D02*
X132988720Y-128748885D01*
X132988720Y-128748885D02*
X133131578Y-128677457D01*
X133131578Y-128677457D02*
X133488720Y-128677457D01*
X133488720Y-128677457D02*
X133631578Y-128748885D01*
X133631578Y-128748885D02*
X133703006Y-128820314D01*
X133703006Y-128820314D02*
X133774435Y-128963171D01*
X133774435Y-128963171D02*
X133774435Y-129320314D01*
X133774435Y-129320314D02*
X133703006Y-129463171D01*
X133703006Y-129463171D02*
X133631578Y-129534600D01*
X133631578Y-129534600D02*
X133488720Y-129606028D01*
X133488720Y-129606028D02*
X133131578Y-129606028D01*
X133131578Y-129606028D02*
X132988720Y-129534600D01*
X132988720Y-129534600D02*
X132917292Y-129463171D01*
X134203006Y-128106028D02*
X134703006Y-129606028D01*
X134703006Y-129606028D02*
X135203006Y-128106028D01*
X137703005Y-129606028D02*
X137203005Y-128891742D01*
X136845862Y-129606028D02*
X136845862Y-128106028D01*
X136845862Y-128106028D02*
X137417291Y-128106028D01*
X137417291Y-128106028D02*
X137560148Y-128177457D01*
X137560148Y-128177457D02*
X137631577Y-128248885D01*
X137631577Y-128248885D02*
X137703005Y-128391742D01*
X137703005Y-128391742D02*
X137703005Y-128606028D01*
X137703005Y-128606028D02*
X137631577Y-128748885D01*
X137631577Y-128748885D02*
X137560148Y-128820314D01*
X137560148Y-128820314D02*
X137417291Y-128891742D01*
X137417291Y-128891742D02*
X136845862Y-128891742D01*
X138917291Y-129534600D02*
X138774434Y-129606028D01*
X138774434Y-129606028D02*
X138488720Y-129606028D01*
X138488720Y-129606028D02*
X138345862Y-129534600D01*
X138345862Y-129534600D02*
X138274434Y-129391742D01*
X138274434Y-129391742D02*
X138274434Y-128820314D01*
X138274434Y-128820314D02*
X138345862Y-128677457D01*
X138345862Y-128677457D02*
X138488720Y-128606028D01*
X138488720Y-128606028D02*
X138774434Y-128606028D01*
X138774434Y-128606028D02*
X138917291Y-128677457D01*
X138917291Y-128677457D02*
X138988720Y-128820314D01*
X138988720Y-128820314D02*
X138988720Y-128963171D01*
X138988720Y-128963171D02*
X138274434Y-129106028D01*
X139845862Y-129606028D02*
X139703005Y-129534600D01*
X139703005Y-129534600D02*
X139631576Y-129391742D01*
X139631576Y-129391742D02*
X139631576Y-128106028D01*
X141060148Y-129606028D02*
X141060148Y-128820314D01*
X141060148Y-128820314D02*
X140988719Y-128677457D01*
X140988719Y-128677457D02*
X140845862Y-128606028D01*
X140845862Y-128606028D02*
X140560148Y-128606028D01*
X140560148Y-128606028D02*
X140417290Y-128677457D01*
X141060148Y-129534600D02*
X140917290Y-129606028D01*
X140917290Y-129606028D02*
X140560148Y-129606028D01*
X140560148Y-129606028D02*
X140417290Y-129534600D01*
X140417290Y-129534600D02*
X140345862Y-129391742D01*
X140345862Y-129391742D02*
X140345862Y-129248885D01*
X140345862Y-129248885D02*
X140417290Y-129106028D01*
X140417290Y-129106028D02*
X140560148Y-129034600D01*
X140560148Y-129034600D02*
X140917290Y-129034600D01*
X140917290Y-129034600D02*
X141060148Y-128963171D01*
X141631576Y-128606028D02*
X141988719Y-129606028D01*
X142345862Y-128606028D02*
X141988719Y-129606028D01*
X141988719Y-129606028D02*
X141845862Y-129963171D01*
X141845862Y-129963171D02*
X141774433Y-130034600D01*
X141774433Y-130034600D02*
X141631576Y-130106028D01*
X175314400Y-151155388D02*
X175314400Y-152069674D01*
X174857257Y-151612531D02*
X175771542Y-151612531D01*
X176057257Y-153212530D02*
X176057257Y-152641102D01*
X176057257Y-152641102D02*
X175485828Y-152583959D01*
X175485828Y-152583959D02*
X175542971Y-152641102D01*
X175542971Y-152641102D02*
X175600114Y-152755388D01*
X175600114Y-152755388D02*
X175600114Y-153041102D01*
X175600114Y-153041102D02*
X175542971Y-153155388D01*
X175542971Y-153155388D02*
X175485828Y-153212530D01*
X175485828Y-153212530D02*
X175371542Y-153269673D01*
X175371542Y-153269673D02*
X175085828Y-153269673D01*
X175085828Y-153269673D02*
X174971542Y-153212530D01*
X174971542Y-153212530D02*
X174914400Y-153155388D01*
X174914400Y-153155388D02*
X174857257Y-153041102D01*
X174857257Y-153041102D02*
X174857257Y-152755388D01*
X174857257Y-152755388D02*
X174914400Y-152641102D01*
X174914400Y-152641102D02*
X174971542Y-152583959D01*
X176057257Y-153612530D02*
X174857257Y-154012530D01*
X174857257Y-154012530D02*
X176057257Y-154412530D01*
X139403006Y-153106028D02*
X138688720Y-153106028D01*
X138688720Y-153106028D02*
X138617292Y-153820314D01*
X138617292Y-153820314D02*
X138688720Y-153748885D01*
X138688720Y-153748885D02*
X138831578Y-153677457D01*
X138831578Y-153677457D02*
X139188720Y-153677457D01*
X139188720Y-153677457D02*
X139331578Y-153748885D01*
X139331578Y-153748885D02*
X139403006Y-153820314D01*
X139403006Y-153820314D02*
X139474435Y-153963171D01*
X139474435Y-153963171D02*
X139474435Y-154320314D01*
X139474435Y-154320314D02*
X139403006Y-154463171D01*
X139403006Y-154463171D02*
X139331578Y-154534600D01*
X139331578Y-154534600D02*
X139188720Y-154606028D01*
X139188720Y-154606028D02*
X138831578Y-154606028D01*
X138831578Y-154606028D02*
X138688720Y-154534600D01*
X138688720Y-154534600D02*
X138617292Y-154463171D01*
X139903006Y-153106028D02*
X140403006Y-154606028D01*
X140403006Y-154606028D02*
X140903006Y-153106028D01*
X143403005Y-154606028D02*
X142903005Y-153891742D01*
X142545862Y-154606028D02*
X142545862Y-153106028D01*
X142545862Y-153106028D02*
X143117291Y-153106028D01*
X143117291Y-153106028D02*
X143260148Y-153177457D01*
X143260148Y-153177457D02*
X143331577Y-153248885D01*
X143331577Y-153248885D02*
X143403005Y-153391742D01*
X143403005Y-153391742D02*
X143403005Y-153606028D01*
X143403005Y-153606028D02*
X143331577Y-153748885D01*
X143331577Y-153748885D02*
X143260148Y-153820314D01*
X143260148Y-153820314D02*
X143117291Y-153891742D01*
X143117291Y-153891742D02*
X142545862Y-153891742D01*
X144617291Y-154534600D02*
X144474434Y-154606028D01*
X144474434Y-154606028D02*
X144188720Y-154606028D01*
X144188720Y-154606028D02*
X144045862Y-154534600D01*
X144045862Y-154534600D02*
X143974434Y-154391742D01*
X143974434Y-154391742D02*
X143974434Y-153820314D01*
X143974434Y-153820314D02*
X144045862Y-153677457D01*
X144045862Y-153677457D02*
X144188720Y-153606028D01*
X144188720Y-153606028D02*
X144474434Y-153606028D01*
X144474434Y-153606028D02*
X144617291Y-153677457D01*
X144617291Y-153677457D02*
X144688720Y-153820314D01*
X144688720Y-153820314D02*
X144688720Y-153963171D01*
X144688720Y-153963171D02*
X143974434Y-154106028D01*
X145545862Y-154606028D02*
X145403005Y-154534600D01*
X145403005Y-154534600D02*
X145331576Y-154391742D01*
X145331576Y-154391742D02*
X145331576Y-153106028D01*
X146760148Y-154606028D02*
X146760148Y-153820314D01*
X146760148Y-153820314D02*
X146688719Y-153677457D01*
X146688719Y-153677457D02*
X146545862Y-153606028D01*
X146545862Y-153606028D02*
X146260148Y-153606028D01*
X146260148Y-153606028D02*
X146117290Y-153677457D01*
X146760148Y-154534600D02*
X146617290Y-154606028D01*
X146617290Y-154606028D02*
X146260148Y-154606028D01*
X146260148Y-154606028D02*
X146117290Y-154534600D01*
X146117290Y-154534600D02*
X146045862Y-154391742D01*
X146045862Y-154391742D02*
X146045862Y-154248885D01*
X146045862Y-154248885D02*
X146117290Y-154106028D01*
X146117290Y-154106028D02*
X146260148Y-154034600D01*
X146260148Y-154034600D02*
X146617290Y-154034600D01*
X146617290Y-154034600D02*
X146760148Y-153963171D01*
X147331576Y-153606028D02*
X147688719Y-154606028D01*
X148045862Y-153606028D02*
X147688719Y-154606028D01*
X147688719Y-154606028D02*
X147545862Y-154963171D01*
X147545862Y-154963171D02*
X147474433Y-155034600D01*
X147474433Y-155034600D02*
X147331576Y-155106028D01*
X171306028Y-61359850D02*
X171306028Y-61074136D01*
X171306028Y-61074136D02*
X171377457Y-60931279D01*
X171377457Y-60931279D02*
X171520314Y-60788422D01*
X171520314Y-60788422D02*
X171806028Y-60716993D01*
X171806028Y-60716993D02*
X172306028Y-60716993D01*
X172306028Y-60716993D02*
X172591742Y-60788422D01*
X172591742Y-60788422D02*
X172734600Y-60931279D01*
X172734600Y-60931279D02*
X172806028Y-61074136D01*
X172806028Y-61074136D02*
X172806028Y-61359850D01*
X172806028Y-61359850D02*
X172734600Y-61502708D01*
X172734600Y-61502708D02*
X172591742Y-61645565D01*
X172591742Y-61645565D02*
X172306028Y-61716993D01*
X172306028Y-61716993D02*
X171806028Y-61716993D01*
X171806028Y-61716993D02*
X171520314Y-61645565D01*
X171520314Y-61645565D02*
X171377457Y-61502708D01*
X171377457Y-61502708D02*
X171306028Y-61359850D01*
X171806028Y-59431279D02*
X172806028Y-59431279D01*
X171806028Y-60074136D02*
X172591742Y-60074136D01*
X172591742Y-60074136D02*
X172734600Y-60002707D01*
X172734600Y-60002707D02*
X172806028Y-59859850D01*
X172806028Y-59859850D02*
X172806028Y-59645564D01*
X172806028Y-59645564D02*
X172734600Y-59502707D01*
X172734600Y-59502707D02*
X172663171Y-59431279D01*
X171806028Y-58931278D02*
X171806028Y-58359850D01*
X171306028Y-58716993D02*
X172591742Y-58716993D01*
X172591742Y-58716993D02*
X172734600Y-58645564D01*
X172734600Y-58645564D02*
X172806028Y-58502707D01*
X172806028Y-58502707D02*
X172806028Y-58359850D01*
D13*
X97949171Y-116340225D02*
X97949171Y-115483082D01*
X97949171Y-115911653D02*
X99449171Y-115911653D01*
X99449171Y-115911653D02*
X99234885Y-115768796D01*
X99234885Y-115768796D02*
X99092028Y-115625939D01*
X99092028Y-115625939D02*
X99020600Y-115483082D01*
X97949171Y-116983081D02*
X99449171Y-116983081D01*
X97949171Y-117840224D02*
X98806314Y-117197367D01*
X99449171Y-117840224D02*
X98592028Y-116983081D01*
X72590225Y-85550828D02*
X71733082Y-85550828D01*
X72161653Y-85550828D02*
X72161653Y-84050828D01*
X72161653Y-84050828D02*
X72018796Y-84265114D01*
X72018796Y-84265114D02*
X71875939Y-84407971D01*
X71875939Y-84407971D02*
X71733082Y-84479400D01*
X73233081Y-85550828D02*
X73233081Y-84050828D01*
X74090224Y-85550828D02*
X73447367Y-84693685D01*
X74090224Y-84050828D02*
X73233081Y-84907971D01*
X184456314Y-125283082D02*
X184527742Y-125354510D01*
X184527742Y-125354510D02*
X184599171Y-125497368D01*
X184599171Y-125497368D02*
X184599171Y-125854510D01*
X184599171Y-125854510D02*
X184527742Y-125997368D01*
X184527742Y-125997368D02*
X184456314Y-126068796D01*
X184456314Y-126068796D02*
X184313457Y-126140225D01*
X184313457Y-126140225D02*
X184170600Y-126140225D01*
X184170600Y-126140225D02*
X183956314Y-126068796D01*
X183956314Y-126068796D02*
X183099171Y-125211653D01*
X183099171Y-125211653D02*
X183099171Y-126140225D01*
X184599171Y-127068796D02*
X184599171Y-127211653D01*
X184599171Y-127211653D02*
X184527742Y-127354510D01*
X184527742Y-127354510D02*
X184456314Y-127425939D01*
X184456314Y-127425939D02*
X184313457Y-127497367D01*
X184313457Y-127497367D02*
X184027742Y-127568796D01*
X184027742Y-127568796D02*
X183670600Y-127568796D01*
X183670600Y-127568796D02*
X183384885Y-127497367D01*
X183384885Y-127497367D02*
X183242028Y-127425939D01*
X183242028Y-127425939D02*
X183170600Y-127354510D01*
X183170600Y-127354510D02*
X183099171Y-127211653D01*
X183099171Y-127211653D02*
X183099171Y-127068796D01*
X183099171Y-127068796D02*
X183170600Y-126925939D01*
X183170600Y-126925939D02*
X183242028Y-126854510D01*
X183242028Y-126854510D02*
X183384885Y-126783081D01*
X183384885Y-126783081D02*
X183670600Y-126711653D01*
X183670600Y-126711653D02*
X184027742Y-126711653D01*
X184027742Y-126711653D02*
X184313457Y-126783081D01*
X184313457Y-126783081D02*
X184456314Y-126854510D01*
X184456314Y-126854510D02*
X184527742Y-126925939D01*
X184527742Y-126925939D02*
X184599171Y-127068796D01*
X184599171Y-128497367D02*
X184599171Y-128640224D01*
X184599171Y-128640224D02*
X184527742Y-128783081D01*
X184527742Y-128783081D02*
X184456314Y-128854510D01*
X184456314Y-128854510D02*
X184313457Y-128925938D01*
X184313457Y-128925938D02*
X184027742Y-128997367D01*
X184027742Y-128997367D02*
X183670600Y-128997367D01*
X183670600Y-128997367D02*
X183384885Y-128925938D01*
X183384885Y-128925938D02*
X183242028Y-128854510D01*
X183242028Y-128854510D02*
X183170600Y-128783081D01*
X183170600Y-128783081D02*
X183099171Y-128640224D01*
X183099171Y-128640224D02*
X183099171Y-128497367D01*
X183099171Y-128497367D02*
X183170600Y-128354510D01*
X183170600Y-128354510D02*
X183242028Y-128283081D01*
X183242028Y-128283081D02*
X183384885Y-128211652D01*
X183384885Y-128211652D02*
X183670600Y-128140224D01*
X183670600Y-128140224D02*
X184027742Y-128140224D01*
X184027742Y-128140224D02*
X184313457Y-128211652D01*
X184313457Y-128211652D02*
X184456314Y-128283081D01*
X184456314Y-128283081D02*
X184527742Y-128354510D01*
X184527742Y-128354510D02*
X184599171Y-128497367D01*
X70449171Y-132590225D02*
X70449171Y-131733082D01*
X70449171Y-132161653D02*
X71949171Y-132161653D01*
X71949171Y-132161653D02*
X71734885Y-132018796D01*
X71734885Y-132018796D02*
X71592028Y-131875939D01*
X71592028Y-131875939D02*
X71520600Y-131733082D01*
X71949171Y-133518796D02*
X71949171Y-133661653D01*
X71949171Y-133661653D02*
X71877742Y-133804510D01*
X71877742Y-133804510D02*
X71806314Y-133875939D01*
X71806314Y-133875939D02*
X71663457Y-133947367D01*
X71663457Y-133947367D02*
X71377742Y-134018796D01*
X71377742Y-134018796D02*
X71020600Y-134018796D01*
X71020600Y-134018796D02*
X70734885Y-133947367D01*
X70734885Y-133947367D02*
X70592028Y-133875939D01*
X70592028Y-133875939D02*
X70520600Y-133804510D01*
X70520600Y-133804510D02*
X70449171Y-133661653D01*
X70449171Y-133661653D02*
X70449171Y-133518796D01*
X70449171Y-133518796D02*
X70520600Y-133375939D01*
X70520600Y-133375939D02*
X70592028Y-133304510D01*
X70592028Y-133304510D02*
X70734885Y-133233081D01*
X70734885Y-133233081D02*
X71020600Y-133161653D01*
X71020600Y-133161653D02*
X71377742Y-133161653D01*
X71377742Y-133161653D02*
X71663457Y-133233081D01*
X71663457Y-133233081D02*
X71806314Y-133304510D01*
X71806314Y-133304510D02*
X71877742Y-133375939D01*
X71877742Y-133375939D02*
X71949171Y-133518796D01*
X70449171Y-134661652D02*
X71949171Y-134661652D01*
X70449171Y-135518795D02*
X71306314Y-134875938D01*
X71949171Y-135518795D02*
X71092028Y-134661652D01*
D11*
X61460149Y-108213171D02*
X61388721Y-108284600D01*
X61388721Y-108284600D02*
X61174435Y-108356028D01*
X61174435Y-108356028D02*
X61031578Y-108356028D01*
X61031578Y-108356028D02*
X60817292Y-108284600D01*
X60817292Y-108284600D02*
X60674435Y-108141742D01*
X60674435Y-108141742D02*
X60603006Y-107998885D01*
X60603006Y-107998885D02*
X60531578Y-107713171D01*
X60531578Y-107713171D02*
X60531578Y-107498885D01*
X60531578Y-107498885D02*
X60603006Y-107213171D01*
X60603006Y-107213171D02*
X60674435Y-107070314D01*
X60674435Y-107070314D02*
X60817292Y-106927457D01*
X60817292Y-106927457D02*
X61031578Y-106856028D01*
X61031578Y-106856028D02*
X61174435Y-106856028D01*
X61174435Y-106856028D02*
X61388721Y-106927457D01*
X61388721Y-106927457D02*
X61460149Y-106998885D01*
X62888721Y-108356028D02*
X62031578Y-108356028D01*
X62460149Y-108356028D02*
X62460149Y-106856028D01*
X62460149Y-106856028D02*
X62317292Y-107070314D01*
X62317292Y-107070314D02*
X62174435Y-107213171D01*
X62174435Y-107213171D02*
X62031578Y-107284600D01*
X63531577Y-107784600D02*
X64674435Y-107784600D01*
X66174435Y-108356028D02*
X65317292Y-108356028D01*
X65745863Y-108356028D02*
X65745863Y-106856028D01*
X65745863Y-106856028D02*
X65603006Y-107070314D01*
X65603006Y-107070314D02*
X65460149Y-107213171D01*
X65460149Y-107213171D02*
X65317292Y-107284600D01*
X69960148Y-108213171D02*
X69888720Y-108284600D01*
X69888720Y-108284600D02*
X69674434Y-108356028D01*
X69674434Y-108356028D02*
X69531577Y-108356028D01*
X69531577Y-108356028D02*
X69317291Y-108284600D01*
X69317291Y-108284600D02*
X69174434Y-108141742D01*
X69174434Y-108141742D02*
X69103005Y-107998885D01*
X69103005Y-107998885D02*
X69031577Y-107713171D01*
X69031577Y-107713171D02*
X69031577Y-107498885D01*
X69031577Y-107498885D02*
X69103005Y-107213171D01*
X69103005Y-107213171D02*
X69174434Y-107070314D01*
X69174434Y-107070314D02*
X69317291Y-106927457D01*
X69317291Y-106927457D02*
X69531577Y-106856028D01*
X69531577Y-106856028D02*
X69674434Y-106856028D01*
X69674434Y-106856028D02*
X69888720Y-106927457D01*
X69888720Y-106927457D02*
X69960148Y-106998885D01*
X71388720Y-108356028D02*
X70531577Y-108356028D01*
X70960148Y-108356028D02*
X70960148Y-106856028D01*
X70960148Y-106856028D02*
X70817291Y-107070314D01*
X70817291Y-107070314D02*
X70674434Y-107213171D01*
X70674434Y-107213171D02*
X70531577Y-107284600D01*
X72031576Y-107784600D02*
X73174434Y-107784600D01*
X73817291Y-106998885D02*
X73888719Y-106927457D01*
X73888719Y-106927457D02*
X74031577Y-106856028D01*
X74031577Y-106856028D02*
X74388719Y-106856028D01*
X74388719Y-106856028D02*
X74531577Y-106927457D01*
X74531577Y-106927457D02*
X74603005Y-106998885D01*
X74603005Y-106998885D02*
X74674434Y-107141742D01*
X74674434Y-107141742D02*
X74674434Y-107284600D01*
X74674434Y-107284600D02*
X74603005Y-107498885D01*
X74603005Y-107498885D02*
X73745862Y-108356028D01*
X73745862Y-108356028D02*
X74674434Y-108356028D01*
X174299885Y-61054136D02*
X174242742Y-61168422D01*
X174242742Y-61168422D02*
X174242742Y-61339850D01*
X174242742Y-61339850D02*
X174299885Y-61511279D01*
X174299885Y-61511279D02*
X174414171Y-61625564D01*
X174414171Y-61625564D02*
X174528457Y-61682707D01*
X174528457Y-61682707D02*
X174757028Y-61739850D01*
X174757028Y-61739850D02*
X174928457Y-61739850D01*
X174928457Y-61739850D02*
X175157028Y-61682707D01*
X175157028Y-61682707D02*
X175271314Y-61625564D01*
X175271314Y-61625564D02*
X175385600Y-61511279D01*
X175385600Y-61511279D02*
X175442742Y-61339850D01*
X175442742Y-61339850D02*
X175442742Y-61225564D01*
X175442742Y-61225564D02*
X175385600Y-61054136D01*
X175385600Y-61054136D02*
X175328457Y-60996993D01*
X175328457Y-60996993D02*
X174928457Y-60996993D01*
X174928457Y-60996993D02*
X174928457Y-61225564D01*
X175442742Y-60482707D02*
X174242742Y-60482707D01*
X174242742Y-60482707D02*
X175442742Y-59796993D01*
X175442742Y-59796993D02*
X174242742Y-59796993D01*
X175442742Y-59225564D02*
X174242742Y-59225564D01*
X174242742Y-59225564D02*
X174242742Y-58939850D01*
X174242742Y-58939850D02*
X174299885Y-58768421D01*
X174299885Y-58768421D02*
X174414171Y-58654136D01*
X174414171Y-58654136D02*
X174528457Y-58596993D01*
X174528457Y-58596993D02*
X174757028Y-58539850D01*
X174757028Y-58539850D02*
X174928457Y-58539850D01*
X174928457Y-58539850D02*
X175157028Y-58596993D01*
X175157028Y-58596993D02*
X175271314Y-58654136D01*
X175271314Y-58654136D02*
X175385600Y-58768421D01*
X175385600Y-58768421D02*
X175442742Y-58939850D01*
X175442742Y-58939850D02*
X175442742Y-59225564D01*
X45443971Y-58274435D02*
X45443971Y-57417292D01*
X45443971Y-57845863D02*
X46943971Y-57845863D01*
X46943971Y-57845863D02*
X46729685Y-57703006D01*
X46729685Y-57703006D02*
X46586828Y-57560149D01*
X46586828Y-57560149D02*
X46515400Y-57417292D01*
X46801114Y-58845863D02*
X46872542Y-58917291D01*
X46872542Y-58917291D02*
X46943971Y-59060149D01*
X46943971Y-59060149D02*
X46943971Y-59417291D01*
X46943971Y-59417291D02*
X46872542Y-59560149D01*
X46872542Y-59560149D02*
X46801114Y-59631577D01*
X46801114Y-59631577D02*
X46658257Y-59703006D01*
X46658257Y-59703006D02*
X46515400Y-59703006D01*
X46515400Y-59703006D02*
X46301114Y-59631577D01*
X46301114Y-59631577D02*
X45443971Y-58774434D01*
X45443971Y-58774434D02*
X45443971Y-59703006D01*
X46943971Y-60131577D02*
X45443971Y-60631577D01*
X45443971Y-60631577D02*
X46943971Y-61131577D01*
X45443971Y-63631576D02*
X46158257Y-63131576D01*
X45443971Y-62774433D02*
X46943971Y-62774433D01*
X46943971Y-62774433D02*
X46943971Y-63345862D01*
X46943971Y-63345862D02*
X46872542Y-63488719D01*
X46872542Y-63488719D02*
X46801114Y-63560148D01*
X46801114Y-63560148D02*
X46658257Y-63631576D01*
X46658257Y-63631576D02*
X46443971Y-63631576D01*
X46443971Y-63631576D02*
X46301114Y-63560148D01*
X46301114Y-63560148D02*
X46229685Y-63488719D01*
X46229685Y-63488719D02*
X46158257Y-63345862D01*
X46158257Y-63345862D02*
X46158257Y-62774433D01*
X45515400Y-64845862D02*
X45443971Y-64703005D01*
X45443971Y-64703005D02*
X45443971Y-64417291D01*
X45443971Y-64417291D02*
X45515400Y-64274433D01*
X45515400Y-64274433D02*
X45658257Y-64203005D01*
X45658257Y-64203005D02*
X46229685Y-64203005D01*
X46229685Y-64203005D02*
X46372542Y-64274433D01*
X46372542Y-64274433D02*
X46443971Y-64417291D01*
X46443971Y-64417291D02*
X46443971Y-64703005D01*
X46443971Y-64703005D02*
X46372542Y-64845862D01*
X46372542Y-64845862D02*
X46229685Y-64917291D01*
X46229685Y-64917291D02*
X46086828Y-64917291D01*
X46086828Y-64917291D02*
X45943971Y-64203005D01*
X45443971Y-65774433D02*
X45515400Y-65631576D01*
X45515400Y-65631576D02*
X45658257Y-65560147D01*
X45658257Y-65560147D02*
X46943971Y-65560147D01*
X45443971Y-66988719D02*
X46229685Y-66988719D01*
X46229685Y-66988719D02*
X46372542Y-66917290D01*
X46372542Y-66917290D02*
X46443971Y-66774433D01*
X46443971Y-66774433D02*
X46443971Y-66488719D01*
X46443971Y-66488719D02*
X46372542Y-66345861D01*
X45515400Y-66988719D02*
X45443971Y-66845861D01*
X45443971Y-66845861D02*
X45443971Y-66488719D01*
X45443971Y-66488719D02*
X45515400Y-66345861D01*
X45515400Y-66345861D02*
X45658257Y-66274433D01*
X45658257Y-66274433D02*
X45801114Y-66274433D01*
X45801114Y-66274433D02*
X45943971Y-66345861D01*
X45943971Y-66345861D02*
X46015400Y-66488719D01*
X46015400Y-66488719D02*
X46015400Y-66845861D01*
X46015400Y-66845861D02*
X46086828Y-66988719D01*
X46443971Y-67560147D02*
X45443971Y-67917290D01*
X46443971Y-68274433D02*
X45443971Y-67917290D01*
X45443971Y-67917290D02*
X45086828Y-67774433D01*
X45086828Y-67774433D02*
X45015400Y-67703004D01*
X45015400Y-67703004D02*
X44943971Y-67560147D01*
D13*
X183456314Y-82083082D02*
X183527742Y-82154510D01*
X183527742Y-82154510D02*
X183599171Y-82297368D01*
X183599171Y-82297368D02*
X183599171Y-82654510D01*
X183599171Y-82654510D02*
X183527742Y-82797368D01*
X183527742Y-82797368D02*
X183456314Y-82868796D01*
X183456314Y-82868796D02*
X183313457Y-82940225D01*
X183313457Y-82940225D02*
X183170600Y-82940225D01*
X183170600Y-82940225D02*
X182956314Y-82868796D01*
X182956314Y-82868796D02*
X182099171Y-82011653D01*
X182099171Y-82011653D02*
X182099171Y-82940225D01*
X183599171Y-83868796D02*
X183599171Y-84011653D01*
X183599171Y-84011653D02*
X183527742Y-84154510D01*
X183527742Y-84154510D02*
X183456314Y-84225939D01*
X183456314Y-84225939D02*
X183313457Y-84297367D01*
X183313457Y-84297367D02*
X183027742Y-84368796D01*
X183027742Y-84368796D02*
X182670600Y-84368796D01*
X182670600Y-84368796D02*
X182384885Y-84297367D01*
X182384885Y-84297367D02*
X182242028Y-84225939D01*
X182242028Y-84225939D02*
X182170600Y-84154510D01*
X182170600Y-84154510D02*
X182099171Y-84011653D01*
X182099171Y-84011653D02*
X182099171Y-83868796D01*
X182099171Y-83868796D02*
X182170600Y-83725939D01*
X182170600Y-83725939D02*
X182242028Y-83654510D01*
X182242028Y-83654510D02*
X182384885Y-83583081D01*
X182384885Y-83583081D02*
X182670600Y-83511653D01*
X182670600Y-83511653D02*
X183027742Y-83511653D01*
X183027742Y-83511653D02*
X183313457Y-83583081D01*
X183313457Y-83583081D02*
X183456314Y-83654510D01*
X183456314Y-83654510D02*
X183527742Y-83725939D01*
X183527742Y-83725939D02*
X183599171Y-83868796D01*
X183599171Y-85297367D02*
X183599171Y-85440224D01*
X183599171Y-85440224D02*
X183527742Y-85583081D01*
X183527742Y-85583081D02*
X183456314Y-85654510D01*
X183456314Y-85654510D02*
X183313457Y-85725938D01*
X183313457Y-85725938D02*
X183027742Y-85797367D01*
X183027742Y-85797367D02*
X182670600Y-85797367D01*
X182670600Y-85797367D02*
X182384885Y-85725938D01*
X182384885Y-85725938D02*
X182242028Y-85654510D01*
X182242028Y-85654510D02*
X182170600Y-85583081D01*
X182170600Y-85583081D02*
X182099171Y-85440224D01*
X182099171Y-85440224D02*
X182099171Y-85297367D01*
X182099171Y-85297367D02*
X182170600Y-85154510D01*
X182170600Y-85154510D02*
X182242028Y-85083081D01*
X182242028Y-85083081D02*
X182384885Y-85011652D01*
X182384885Y-85011652D02*
X182670600Y-84940224D01*
X182670600Y-84940224D02*
X183027742Y-84940224D01*
X183027742Y-84940224D02*
X183313457Y-85011652D01*
X183313457Y-85011652D02*
X183456314Y-85083081D01*
X183456314Y-85083081D02*
X183527742Y-85154510D01*
X183527742Y-85154510D02*
X183599171Y-85297367D01*
D11*
X156367542Y-91003006D02*
X156310400Y-90945863D01*
X156310400Y-90945863D02*
X156253257Y-90774435D01*
X156253257Y-90774435D02*
X156253257Y-90660149D01*
X156253257Y-90660149D02*
X156310400Y-90488720D01*
X156310400Y-90488720D02*
X156424685Y-90374435D01*
X156424685Y-90374435D02*
X156538971Y-90317292D01*
X156538971Y-90317292D02*
X156767542Y-90260149D01*
X156767542Y-90260149D02*
X156938971Y-90260149D01*
X156938971Y-90260149D02*
X157167542Y-90317292D01*
X157167542Y-90317292D02*
X157281828Y-90374435D01*
X157281828Y-90374435D02*
X157396114Y-90488720D01*
X157396114Y-90488720D02*
X157453257Y-90660149D01*
X157453257Y-90660149D02*
X157453257Y-90774435D01*
X157453257Y-90774435D02*
X157396114Y-90945863D01*
X157396114Y-90945863D02*
X157338971Y-91003006D01*
X156253257Y-92203006D02*
X156824685Y-91803006D01*
X156253257Y-91517292D02*
X157453257Y-91517292D01*
X157453257Y-91517292D02*
X157453257Y-91974435D01*
X157453257Y-91974435D02*
X157396114Y-92088720D01*
X157396114Y-92088720D02*
X157338971Y-92145863D01*
X157338971Y-92145863D02*
X157224685Y-92203006D01*
X157224685Y-92203006D02*
X157053257Y-92203006D01*
X157053257Y-92203006D02*
X156938971Y-92145863D01*
X156938971Y-92145863D02*
X156881828Y-92088720D01*
X156881828Y-92088720D02*
X156824685Y-91974435D01*
X156824685Y-91974435D02*
X156824685Y-91517292D01*
X156253257Y-93345863D02*
X156253257Y-92660149D01*
X156253257Y-93003006D02*
X157453257Y-93003006D01*
X157453257Y-93003006D02*
X157281828Y-92888720D01*
X157281828Y-92888720D02*
X157167542Y-92774435D01*
X157167542Y-92774435D02*
X157110400Y-92660149D01*
X169500000Y-100244742D02*
X169500000Y-101101885D01*
X169500000Y-101101885D02*
X169442857Y-101273314D01*
X169442857Y-101273314D02*
X169328571Y-101387600D01*
X169328571Y-101387600D02*
X169157143Y-101444742D01*
X169157143Y-101444742D02*
X169042857Y-101444742D01*
X170014286Y-100359028D02*
X170071429Y-100301885D01*
X170071429Y-100301885D02*
X170185715Y-100244742D01*
X170185715Y-100244742D02*
X170471429Y-100244742D01*
X170471429Y-100244742D02*
X170585715Y-100301885D01*
X170585715Y-100301885D02*
X170642857Y-100359028D01*
X170642857Y-100359028D02*
X170700000Y-100473314D01*
X170700000Y-100473314D02*
X170700000Y-100587600D01*
X170700000Y-100587600D02*
X170642857Y-100759028D01*
X170642857Y-100759028D02*
X169957143Y-101444742D01*
X169957143Y-101444742D02*
X170700000Y-101444742D01*
X101453257Y-117403006D02*
X102024685Y-117003006D01*
X101453257Y-116717292D02*
X102653257Y-116717292D01*
X102653257Y-116717292D02*
X102653257Y-117174435D01*
X102653257Y-117174435D02*
X102596114Y-117288720D01*
X102596114Y-117288720D02*
X102538971Y-117345863D01*
X102538971Y-117345863D02*
X102424685Y-117403006D01*
X102424685Y-117403006D02*
X102253257Y-117403006D01*
X102253257Y-117403006D02*
X102138971Y-117345863D01*
X102138971Y-117345863D02*
X102081828Y-117288720D01*
X102081828Y-117288720D02*
X102024685Y-117174435D01*
X102024685Y-117174435D02*
X102024685Y-116717292D01*
X102653257Y-117803006D02*
X102653257Y-118603006D01*
X102653257Y-118603006D02*
X101453257Y-118088720D01*
X189188720Y-90736378D02*
X189188720Y-89236378D01*
X189188720Y-89236378D02*
X189545863Y-89236378D01*
X189545863Y-89236378D02*
X189760149Y-89307807D01*
X189760149Y-89307807D02*
X189903006Y-89450664D01*
X189903006Y-89450664D02*
X189974435Y-89593521D01*
X189974435Y-89593521D02*
X190045863Y-89879235D01*
X190045863Y-89879235D02*
X190045863Y-90093521D01*
X190045863Y-90093521D02*
X189974435Y-90379235D01*
X189974435Y-90379235D02*
X189903006Y-90522092D01*
X189903006Y-90522092D02*
X189760149Y-90664950D01*
X189760149Y-90664950D02*
X189545863Y-90736378D01*
X189545863Y-90736378D02*
X189188720Y-90736378D01*
X191331578Y-89736378D02*
X191331578Y-90736378D01*
X190974435Y-89164950D02*
X190617292Y-90236378D01*
X190617292Y-90236378D02*
X191545863Y-90236378D01*
D14*
G36*
X191612999Y-91259665D02*
G01*
X192221663Y-91259665D01*
X192221663Y-90649810D01*
X192407081Y-90649810D01*
X192407081Y-91259665D01*
X193015348Y-91259665D01*
X193015348Y-91437540D01*
X192407081Y-91437540D01*
X192407081Y-92047395D01*
X192221663Y-92047395D01*
X192221663Y-91437540D01*
X191612999Y-91437540D01*
X191612999Y-91259665D01*
G37*
D11*
X156967542Y-117003006D02*
X156910400Y-116945863D01*
X156910400Y-116945863D02*
X156853257Y-116774435D01*
X156853257Y-116774435D02*
X156853257Y-116660149D01*
X156853257Y-116660149D02*
X156910400Y-116488720D01*
X156910400Y-116488720D02*
X157024685Y-116374435D01*
X157024685Y-116374435D02*
X157138971Y-116317292D01*
X157138971Y-116317292D02*
X157367542Y-116260149D01*
X157367542Y-116260149D02*
X157538971Y-116260149D01*
X157538971Y-116260149D02*
X157767542Y-116317292D01*
X157767542Y-116317292D02*
X157881828Y-116374435D01*
X157881828Y-116374435D02*
X157996114Y-116488720D01*
X157996114Y-116488720D02*
X158053257Y-116660149D01*
X158053257Y-116660149D02*
X158053257Y-116774435D01*
X158053257Y-116774435D02*
X157996114Y-116945863D01*
X157996114Y-116945863D02*
X157938971Y-117003006D01*
X156853257Y-118203006D02*
X157424685Y-117803006D01*
X156853257Y-117517292D02*
X158053257Y-117517292D01*
X158053257Y-117517292D02*
X158053257Y-117974435D01*
X158053257Y-117974435D02*
X157996114Y-118088720D01*
X157996114Y-118088720D02*
X157938971Y-118145863D01*
X157938971Y-118145863D02*
X157824685Y-118203006D01*
X157824685Y-118203006D02*
X157653257Y-118203006D01*
X157653257Y-118203006D02*
X157538971Y-118145863D01*
X157538971Y-118145863D02*
X157481828Y-118088720D01*
X157481828Y-118088720D02*
X157424685Y-117974435D01*
X157424685Y-117974435D02*
X157424685Y-117517292D01*
X158053257Y-118603006D02*
X158053257Y-119345863D01*
X158053257Y-119345863D02*
X157596114Y-118945863D01*
X157596114Y-118945863D02*
X157596114Y-119117292D01*
X157596114Y-119117292D02*
X157538971Y-119231578D01*
X157538971Y-119231578D02*
X157481828Y-119288720D01*
X157481828Y-119288720D02*
X157367542Y-119345863D01*
X157367542Y-119345863D02*
X157081828Y-119345863D01*
X157081828Y-119345863D02*
X156967542Y-119288720D01*
X156967542Y-119288720D02*
X156910400Y-119231578D01*
X156910400Y-119231578D02*
X156853257Y-119117292D01*
X156853257Y-119117292D02*
X156853257Y-118774435D01*
X156853257Y-118774435D02*
X156910400Y-118660149D01*
X156910400Y-118660149D02*
X156967542Y-118603006D01*
X82861028Y-86382707D02*
X82803885Y-86496993D01*
X82803885Y-86496993D02*
X82689600Y-86611279D01*
X82689600Y-86611279D02*
X82518171Y-86782707D01*
X82518171Y-86782707D02*
X82461028Y-86896993D01*
X82461028Y-86896993D02*
X82461028Y-87011279D01*
X82746742Y-86954136D02*
X82689600Y-87068422D01*
X82689600Y-87068422D02*
X82575314Y-87182707D01*
X82575314Y-87182707D02*
X82346742Y-87239850D01*
X82346742Y-87239850D02*
X81946742Y-87239850D01*
X81946742Y-87239850D02*
X81718171Y-87182707D01*
X81718171Y-87182707D02*
X81603885Y-87068422D01*
X81603885Y-87068422D02*
X81546742Y-86954136D01*
X81546742Y-86954136D02*
X81546742Y-86725564D01*
X81546742Y-86725564D02*
X81603885Y-86611279D01*
X81603885Y-86611279D02*
X81718171Y-86496993D01*
X81718171Y-86496993D02*
X81946742Y-86439850D01*
X81946742Y-86439850D02*
X82346742Y-86439850D01*
X82346742Y-86439850D02*
X82575314Y-86496993D01*
X82575314Y-86496993D02*
X82689600Y-86611279D01*
X82689600Y-86611279D02*
X82746742Y-86725564D01*
X82746742Y-86725564D02*
X82746742Y-86954136D01*
X82746742Y-85296993D02*
X82746742Y-85982707D01*
X82746742Y-85639850D02*
X81546742Y-85639850D01*
X81546742Y-85639850D02*
X81718171Y-85754136D01*
X81718171Y-85754136D02*
X81832457Y-85868421D01*
X81832457Y-85868421D02*
X81889600Y-85982707D01*
X150517292Y-61046742D02*
X150517292Y-59846742D01*
X151203006Y-61046742D02*
X150688720Y-60361028D01*
X151203006Y-59846742D02*
X150517292Y-60532457D01*
X151660149Y-59961028D02*
X151717292Y-59903885D01*
X151717292Y-59903885D02*
X151831578Y-59846742D01*
X151831578Y-59846742D02*
X152117292Y-59846742D01*
X152117292Y-59846742D02*
X152231578Y-59903885D01*
X152231578Y-59903885D02*
X152288720Y-59961028D01*
X152288720Y-59961028D02*
X152345863Y-60075314D01*
X152345863Y-60075314D02*
X152345863Y-60189600D01*
X152345863Y-60189600D02*
X152288720Y-60361028D01*
X152288720Y-60361028D02*
X151603006Y-61046742D01*
X151603006Y-61046742D02*
X152345863Y-61046742D01*
X82553257Y-134203006D02*
X83124685Y-133803006D01*
X82553257Y-133517292D02*
X83753257Y-133517292D01*
X83753257Y-133517292D02*
X83753257Y-133974435D01*
X83753257Y-133974435D02*
X83696114Y-134088720D01*
X83696114Y-134088720D02*
X83638971Y-134145863D01*
X83638971Y-134145863D02*
X83524685Y-134203006D01*
X83524685Y-134203006D02*
X83353257Y-134203006D01*
X83353257Y-134203006D02*
X83238971Y-134145863D01*
X83238971Y-134145863D02*
X83181828Y-134088720D01*
X83181828Y-134088720D02*
X83124685Y-133974435D01*
X83124685Y-133974435D02*
X83124685Y-133517292D01*
X83353257Y-135231578D02*
X82553257Y-135231578D01*
X83810400Y-134945863D02*
X82953257Y-134660149D01*
X82953257Y-134660149D02*
X82953257Y-135403006D01*
X98453257Y-88903006D02*
X99024685Y-88503006D01*
X98453257Y-88217292D02*
X99653257Y-88217292D01*
X99653257Y-88217292D02*
X99653257Y-88674435D01*
X99653257Y-88674435D02*
X99596114Y-88788720D01*
X99596114Y-88788720D02*
X99538971Y-88845863D01*
X99538971Y-88845863D02*
X99424685Y-88903006D01*
X99424685Y-88903006D02*
X99253257Y-88903006D01*
X99253257Y-88903006D02*
X99138971Y-88845863D01*
X99138971Y-88845863D02*
X99081828Y-88788720D01*
X99081828Y-88788720D02*
X99024685Y-88674435D01*
X99024685Y-88674435D02*
X99024685Y-88217292D01*
X99653257Y-89988720D02*
X99653257Y-89417292D01*
X99653257Y-89417292D02*
X99081828Y-89360149D01*
X99081828Y-89360149D02*
X99138971Y-89417292D01*
X99138971Y-89417292D02*
X99196114Y-89531578D01*
X99196114Y-89531578D02*
X99196114Y-89817292D01*
X99196114Y-89817292D02*
X99138971Y-89931578D01*
X99138971Y-89931578D02*
X99081828Y-89988720D01*
X99081828Y-89988720D02*
X98967542Y-90045863D01*
X98967542Y-90045863D02*
X98681828Y-90045863D01*
X98681828Y-90045863D02*
X98567542Y-89988720D01*
X98567542Y-89988720D02*
X98510400Y-89931578D01*
X98510400Y-89931578D02*
X98453257Y-89817292D01*
X98453257Y-89817292D02*
X98453257Y-89531578D01*
X98453257Y-89531578D02*
X98510400Y-89417292D01*
X98510400Y-89417292D02*
X98567542Y-89360149D01*
X77217292Y-52502442D02*
X77217292Y-53473871D01*
X77217292Y-53473871D02*
X77274435Y-53588157D01*
X77274435Y-53588157D02*
X77331578Y-53645300D01*
X77331578Y-53645300D02*
X77445863Y-53702442D01*
X77445863Y-53702442D02*
X77674435Y-53702442D01*
X77674435Y-53702442D02*
X77788720Y-53645300D01*
X77788720Y-53645300D02*
X77845863Y-53588157D01*
X77845863Y-53588157D02*
X77903006Y-53473871D01*
X77903006Y-53473871D02*
X77903006Y-52502442D01*
X79103006Y-53702442D02*
X78417292Y-53702442D01*
X78760149Y-53702442D02*
X78760149Y-52502442D01*
X78760149Y-52502442D02*
X78645863Y-52673871D01*
X78645863Y-52673871D02*
X78531578Y-52788157D01*
X78531578Y-52788157D02*
X78417292Y-52845300D01*
D15*
X76443120Y-63139694D02*
X77109786Y-63139694D01*
X77109786Y-63139694D02*
X76681215Y-64139694D01*
X77633596Y-63568265D02*
X77538358Y-63520646D01*
X77538358Y-63520646D02*
X77490739Y-63473027D01*
X77490739Y-63473027D02*
X77443120Y-63377789D01*
X77443120Y-63377789D02*
X77443120Y-63330170D01*
X77443120Y-63330170D02*
X77490739Y-63234932D01*
X77490739Y-63234932D02*
X77538358Y-63187313D01*
X77538358Y-63187313D02*
X77633596Y-63139694D01*
X77633596Y-63139694D02*
X77824072Y-63139694D01*
X77824072Y-63139694D02*
X77919310Y-63187313D01*
X77919310Y-63187313D02*
X77966929Y-63234932D01*
X77966929Y-63234932D02*
X78014548Y-63330170D01*
X78014548Y-63330170D02*
X78014548Y-63377789D01*
X78014548Y-63377789D02*
X77966929Y-63473027D01*
X77966929Y-63473027D02*
X77919310Y-63520646D01*
X77919310Y-63520646D02*
X77824072Y-63568265D01*
X77824072Y-63568265D02*
X77633596Y-63568265D01*
X77633596Y-63568265D02*
X77538358Y-63615884D01*
X77538358Y-63615884D02*
X77490739Y-63663503D01*
X77490739Y-63663503D02*
X77443120Y-63758741D01*
X77443120Y-63758741D02*
X77443120Y-63949217D01*
X77443120Y-63949217D02*
X77490739Y-64044455D01*
X77490739Y-64044455D02*
X77538358Y-64092075D01*
X77538358Y-64092075D02*
X77633596Y-64139694D01*
X77633596Y-64139694D02*
X77824072Y-64139694D01*
X77824072Y-64139694D02*
X77919310Y-64092075D01*
X77919310Y-64092075D02*
X77966929Y-64044455D01*
X77966929Y-64044455D02*
X78014548Y-63949217D01*
X78014548Y-63949217D02*
X78014548Y-63758741D01*
X78014548Y-63758741D02*
X77966929Y-63663503D01*
X77966929Y-63663503D02*
X77919310Y-63615884D01*
X77919310Y-63615884D02*
X77824072Y-63568265D01*
X78633596Y-63139694D02*
X78728834Y-63139694D01*
X78728834Y-63139694D02*
X78824072Y-63187313D01*
X78824072Y-63187313D02*
X78871691Y-63234932D01*
X78871691Y-63234932D02*
X78919310Y-63330170D01*
X78919310Y-63330170D02*
X78966929Y-63520646D01*
X78966929Y-63520646D02*
X78966929Y-63758741D01*
X78966929Y-63758741D02*
X78919310Y-63949217D01*
X78919310Y-63949217D02*
X78871691Y-64044455D01*
X78871691Y-64044455D02*
X78824072Y-64092075D01*
X78824072Y-64092075D02*
X78728834Y-64139694D01*
X78728834Y-64139694D02*
X78633596Y-64139694D01*
X78633596Y-64139694D02*
X78538358Y-64092075D01*
X78538358Y-64092075D02*
X78490739Y-64044455D01*
X78490739Y-64044455D02*
X78443120Y-63949217D01*
X78443120Y-63949217D02*
X78395501Y-63758741D01*
X78395501Y-63758741D02*
X78395501Y-63520646D01*
X78395501Y-63520646D02*
X78443120Y-63330170D01*
X78443120Y-63330170D02*
X78490739Y-63234932D01*
X78490739Y-63234932D02*
X78538358Y-63187313D01*
X78538358Y-63187313D02*
X78633596Y-63139694D01*
X79871691Y-63139694D02*
X79395501Y-63139694D01*
X79395501Y-63139694D02*
X79347882Y-63615884D01*
X79347882Y-63615884D02*
X79395501Y-63568265D01*
X79395501Y-63568265D02*
X79490739Y-63520646D01*
X79490739Y-63520646D02*
X79728834Y-63520646D01*
X79728834Y-63520646D02*
X79824072Y-63568265D01*
X79824072Y-63568265D02*
X79871691Y-63615884D01*
X79871691Y-63615884D02*
X79919310Y-63711122D01*
X79919310Y-63711122D02*
X79919310Y-63949217D01*
X79919310Y-63949217D02*
X79871691Y-64044455D01*
X79871691Y-64044455D02*
X79824072Y-64092075D01*
X79824072Y-64092075D02*
X79728834Y-64139694D01*
X79728834Y-64139694D02*
X79490739Y-64139694D01*
X79490739Y-64139694D02*
X79395501Y-64092075D01*
X79395501Y-64092075D02*
X79347882Y-64044455D01*
D11*
X81160149Y-70037219D02*
X81350625Y-70037219D01*
X81350625Y-70037219D02*
X81445863Y-70084838D01*
X81445863Y-70084838D02*
X81541101Y-70180076D01*
X81541101Y-70180076D02*
X81588720Y-70370552D01*
X81588720Y-70370552D02*
X81588720Y-70703885D01*
X81588720Y-70703885D02*
X81541101Y-70894361D01*
X81541101Y-70894361D02*
X81445863Y-70989600D01*
X81445863Y-70989600D02*
X81350625Y-71037219D01*
X81350625Y-71037219D02*
X81160149Y-71037219D01*
X81160149Y-71037219D02*
X81064911Y-70989600D01*
X81064911Y-70989600D02*
X80969673Y-70894361D01*
X80969673Y-70894361D02*
X80922054Y-70703885D01*
X80922054Y-70703885D02*
X80922054Y-70370552D01*
X80922054Y-70370552D02*
X80969673Y-70180076D01*
X80969673Y-70180076D02*
X81064911Y-70084838D01*
X81064911Y-70084838D02*
X81160149Y-70037219D01*
X82017292Y-70037219D02*
X82017292Y-70846742D01*
X82017292Y-70846742D02*
X82064911Y-70941980D01*
X82064911Y-70941980D02*
X82112530Y-70989600D01*
X82112530Y-70989600D02*
X82207768Y-71037219D01*
X82207768Y-71037219D02*
X82398244Y-71037219D01*
X82398244Y-71037219D02*
X82493482Y-70989600D01*
X82493482Y-70989600D02*
X82541101Y-70941980D01*
X82541101Y-70941980D02*
X82588720Y-70846742D01*
X82588720Y-70846742D02*
X82588720Y-70037219D01*
X82922054Y-70037219D02*
X83493482Y-70037219D01*
X83207768Y-71037219D02*
X83207768Y-70037219D01*
X73669673Y-70637219D02*
X73669673Y-69637219D01*
X74145863Y-70637219D02*
X74145863Y-69637219D01*
X74145863Y-69637219D02*
X74717291Y-70637219D01*
X74717291Y-70637219D02*
X74717291Y-69637219D01*
X76124863Y-54934485D02*
X76010578Y-54877342D01*
X76010578Y-54877342D02*
X75839149Y-54877342D01*
X75839149Y-54877342D02*
X75667720Y-54934485D01*
X75667720Y-54934485D02*
X75553435Y-55048771D01*
X75553435Y-55048771D02*
X75496292Y-55163057D01*
X75496292Y-55163057D02*
X75439149Y-55391628D01*
X75439149Y-55391628D02*
X75439149Y-55563057D01*
X75439149Y-55563057D02*
X75496292Y-55791628D01*
X75496292Y-55791628D02*
X75553435Y-55905914D01*
X75553435Y-55905914D02*
X75667720Y-56020200D01*
X75667720Y-56020200D02*
X75839149Y-56077342D01*
X75839149Y-56077342D02*
X75953435Y-56077342D01*
X75953435Y-56077342D02*
X76124863Y-56020200D01*
X76124863Y-56020200D02*
X76182006Y-55963057D01*
X76182006Y-55963057D02*
X76182006Y-55563057D01*
X76182006Y-55563057D02*
X75953435Y-55563057D01*
X76696292Y-56077342D02*
X76696292Y-54877342D01*
X76696292Y-54877342D02*
X77382006Y-56077342D01*
X77382006Y-56077342D02*
X77382006Y-54877342D01*
X77953435Y-56077342D02*
X77953435Y-54877342D01*
X77953435Y-54877342D02*
X78239149Y-54877342D01*
X78239149Y-54877342D02*
X78410578Y-54934485D01*
X78410578Y-54934485D02*
X78524863Y-55048771D01*
X78524863Y-55048771D02*
X78582006Y-55163057D01*
X78582006Y-55163057D02*
X78639149Y-55391628D01*
X78639149Y-55391628D02*
X78639149Y-55563057D01*
X78639149Y-55563057D02*
X78582006Y-55791628D01*
X78582006Y-55791628D02*
X78524863Y-55905914D01*
X78524863Y-55905914D02*
X78410578Y-56020200D01*
X78410578Y-56020200D02*
X78239149Y-56077342D01*
X78239149Y-56077342D02*
X77953435Y-56077342D01*
X78484838Y-70256617D02*
X78437219Y-70351855D01*
X78437219Y-70351855D02*
X78437219Y-70494712D01*
X78437219Y-70494712D02*
X78484838Y-70637569D01*
X78484838Y-70637569D02*
X78580076Y-70732807D01*
X78580076Y-70732807D02*
X78675314Y-70780426D01*
X78675314Y-70780426D02*
X78865790Y-70828045D01*
X78865790Y-70828045D02*
X79008647Y-70828045D01*
X79008647Y-70828045D02*
X79199123Y-70780426D01*
X79199123Y-70780426D02*
X79294361Y-70732807D01*
X79294361Y-70732807D02*
X79389600Y-70637569D01*
X79389600Y-70637569D02*
X79437219Y-70494712D01*
X79437219Y-70494712D02*
X79437219Y-70399474D01*
X79437219Y-70399474D02*
X79389600Y-70256617D01*
X79389600Y-70256617D02*
X79341980Y-70208998D01*
X79341980Y-70208998D02*
X79008647Y-70208998D01*
X79008647Y-70208998D02*
X79008647Y-70399474D01*
X79437219Y-69780426D02*
X78437219Y-69780426D01*
X78437219Y-69780426D02*
X79437219Y-69208998D01*
X79437219Y-69208998D02*
X78437219Y-69208998D01*
X79437219Y-68732807D02*
X78437219Y-68732807D01*
X78437219Y-68732807D02*
X78437219Y-68494712D01*
X78437219Y-68494712D02*
X78484838Y-68351855D01*
X78484838Y-68351855D02*
X78580076Y-68256617D01*
X78580076Y-68256617D02*
X78675314Y-68208998D01*
X78675314Y-68208998D02*
X78865790Y-68161379D01*
X78865790Y-68161379D02*
X79008647Y-68161379D01*
X79008647Y-68161379D02*
X79199123Y-68208998D01*
X79199123Y-68208998D02*
X79294361Y-68256617D01*
X79294361Y-68256617D02*
X79389600Y-68351855D01*
X79389600Y-68351855D02*
X79437219Y-68494712D01*
X79437219Y-68494712D02*
X79437219Y-68732807D01*
X172417292Y-121146742D02*
X172417292Y-122118171D01*
X172417292Y-122118171D02*
X172474435Y-122232457D01*
X172474435Y-122232457D02*
X172531578Y-122289600D01*
X172531578Y-122289600D02*
X172645863Y-122346742D01*
X172645863Y-122346742D02*
X172874435Y-122346742D01*
X172874435Y-122346742D02*
X172988720Y-122289600D01*
X172988720Y-122289600D02*
X173045863Y-122232457D01*
X173045863Y-122232457D02*
X173103006Y-122118171D01*
X173103006Y-122118171D02*
X173103006Y-121146742D01*
X173560149Y-121146742D02*
X174303006Y-121146742D01*
X174303006Y-121146742D02*
X173903006Y-121603885D01*
X173903006Y-121603885D02*
X174074435Y-121603885D01*
X174074435Y-121603885D02*
X174188721Y-121661028D01*
X174188721Y-121661028D02*
X174245863Y-121718171D01*
X174245863Y-121718171D02*
X174303006Y-121832457D01*
X174303006Y-121832457D02*
X174303006Y-122118171D01*
X174303006Y-122118171D02*
X174245863Y-122232457D01*
X174245863Y-122232457D02*
X174188721Y-122289600D01*
X174188721Y-122289600D02*
X174074435Y-122346742D01*
X174074435Y-122346742D02*
X173731578Y-122346742D01*
X173731578Y-122346742D02*
X173617292Y-122289600D01*
X173617292Y-122289600D02*
X173560149Y-122232457D01*
X170443949Y-130784028D02*
X170501092Y-130726885D01*
X170501092Y-130726885D02*
X170615378Y-130669742D01*
X170615378Y-130669742D02*
X170901092Y-130669742D01*
X170901092Y-130669742D02*
X171015378Y-130726885D01*
X171015378Y-130726885D02*
X171072520Y-130784028D01*
X171072520Y-130784028D02*
X171129663Y-130898314D01*
X171129663Y-130898314D02*
X171129663Y-131012600D01*
X171129663Y-131012600D02*
X171072520Y-131184028D01*
X171072520Y-131184028D02*
X170386806Y-131869742D01*
X170386806Y-131869742D02*
X171129663Y-131869742D01*
X175676263Y-131869742D02*
X174990549Y-131869742D01*
X175333406Y-131869742D02*
X175333406Y-130669742D01*
X175333406Y-130669742D02*
X175219120Y-130841171D01*
X175219120Y-130841171D02*
X175104835Y-130955457D01*
X175104835Y-130955457D02*
X174990549Y-131012600D01*
X73853257Y-134103006D02*
X74424685Y-133703006D01*
X73853257Y-133417292D02*
X75053257Y-133417292D01*
X75053257Y-133417292D02*
X75053257Y-133874435D01*
X75053257Y-133874435D02*
X74996114Y-133988720D01*
X74996114Y-133988720D02*
X74938971Y-134045863D01*
X74938971Y-134045863D02*
X74824685Y-134103006D01*
X74824685Y-134103006D02*
X74653257Y-134103006D01*
X74653257Y-134103006D02*
X74538971Y-134045863D01*
X74538971Y-134045863D02*
X74481828Y-133988720D01*
X74481828Y-133988720D02*
X74424685Y-133874435D01*
X74424685Y-133874435D02*
X74424685Y-133417292D01*
X75053257Y-134503006D02*
X75053257Y-135245863D01*
X75053257Y-135245863D02*
X74596114Y-134845863D01*
X74596114Y-134845863D02*
X74596114Y-135017292D01*
X74596114Y-135017292D02*
X74538971Y-135131578D01*
X74538971Y-135131578D02*
X74481828Y-135188720D01*
X74481828Y-135188720D02*
X74367542Y-135245863D01*
X74367542Y-135245863D02*
X74081828Y-135245863D01*
X74081828Y-135245863D02*
X73967542Y-135188720D01*
X73967542Y-135188720D02*
X73910400Y-135131578D01*
X73910400Y-135131578D02*
X73853257Y-135017292D01*
X73853257Y-135017292D02*
X73853257Y-134674435D01*
X73853257Y-134674435D02*
X73910400Y-134560149D01*
X73910400Y-134560149D02*
X73967542Y-134503006D01*
X186853257Y-126503006D02*
X187424685Y-126103006D01*
X186853257Y-125817292D02*
X188053257Y-125817292D01*
X188053257Y-125817292D02*
X188053257Y-126274435D01*
X188053257Y-126274435D02*
X187996114Y-126388720D01*
X187996114Y-126388720D02*
X187938971Y-126445863D01*
X187938971Y-126445863D02*
X187824685Y-126503006D01*
X187824685Y-126503006D02*
X187653257Y-126503006D01*
X187653257Y-126503006D02*
X187538971Y-126445863D01*
X187538971Y-126445863D02*
X187481828Y-126388720D01*
X187481828Y-126388720D02*
X187424685Y-126274435D01*
X187424685Y-126274435D02*
X187424685Y-125817292D01*
X186853257Y-127645863D02*
X186853257Y-126960149D01*
X186853257Y-127303006D02*
X188053257Y-127303006D01*
X188053257Y-127303006D02*
X187881828Y-127188720D01*
X187881828Y-127188720D02*
X187767542Y-127074435D01*
X187767542Y-127074435D02*
X187710400Y-126960149D01*
X188053257Y-128045863D02*
X188053257Y-128788720D01*
X188053257Y-128788720D02*
X187596114Y-128388720D01*
X187596114Y-128388720D02*
X187596114Y-128560149D01*
X187596114Y-128560149D02*
X187538971Y-128674435D01*
X187538971Y-128674435D02*
X187481828Y-128731577D01*
X187481828Y-128731577D02*
X187367542Y-128788720D01*
X187367542Y-128788720D02*
X187081828Y-128788720D01*
X187081828Y-128788720D02*
X186967542Y-128731577D01*
X186967542Y-128731577D02*
X186910400Y-128674435D01*
X186910400Y-128674435D02*
X186853257Y-128560149D01*
X186853257Y-128560149D02*
X186853257Y-128217292D01*
X186853257Y-128217292D02*
X186910400Y-128103006D01*
X186910400Y-128103006D02*
X186967542Y-128045863D01*
X189188720Y-82461028D02*
X189188720Y-80961028D01*
X189188720Y-80961028D02*
X189545863Y-80961028D01*
X189545863Y-80961028D02*
X189760149Y-81032457D01*
X189760149Y-81032457D02*
X189903006Y-81175314D01*
X189903006Y-81175314D02*
X189974435Y-81318171D01*
X189974435Y-81318171D02*
X190045863Y-81603885D01*
X190045863Y-81603885D02*
X190045863Y-81818171D01*
X190045863Y-81818171D02*
X189974435Y-82103885D01*
X189974435Y-82103885D02*
X189903006Y-82246742D01*
X189903006Y-82246742D02*
X189760149Y-82389600D01*
X189760149Y-82389600D02*
X189545863Y-82461028D01*
X189545863Y-82461028D02*
X189188720Y-82461028D01*
X190545863Y-80961028D02*
X191474435Y-80961028D01*
X191474435Y-80961028D02*
X190974435Y-81532457D01*
X190974435Y-81532457D02*
X191188720Y-81532457D01*
X191188720Y-81532457D02*
X191331578Y-81603885D01*
X191331578Y-81603885D02*
X191403006Y-81675314D01*
X191403006Y-81675314D02*
X191474435Y-81818171D01*
X191474435Y-81818171D02*
X191474435Y-82175314D01*
X191474435Y-82175314D02*
X191403006Y-82318171D01*
X191403006Y-82318171D02*
X191331578Y-82389600D01*
X191331578Y-82389600D02*
X191188720Y-82461028D01*
X191188720Y-82461028D02*
X190760149Y-82461028D01*
X190760149Y-82461028D02*
X190617292Y-82389600D01*
X190617292Y-82389600D02*
X190545863Y-82318171D01*
D14*
G36*
X191612999Y-82759665D02*
G01*
X192221663Y-82759665D01*
X192221663Y-82149810D01*
X192407081Y-82149810D01*
X192407081Y-82759665D01*
X193015348Y-82759665D01*
X193015348Y-82937540D01*
X192407081Y-82937540D01*
X192407081Y-83547395D01*
X192221663Y-83547395D01*
X192221663Y-82937540D01*
X191612999Y-82937540D01*
X191612999Y-82759665D01*
G37*
D11*
X47600000Y-102144742D02*
X47600000Y-103001885D01*
X47600000Y-103001885D02*
X47542857Y-103173314D01*
X47542857Y-103173314D02*
X47428571Y-103287600D01*
X47428571Y-103287600D02*
X47257143Y-103344742D01*
X47257143Y-103344742D02*
X47142857Y-103344742D01*
X48800000Y-103344742D02*
X48114286Y-103344742D01*
X48457143Y-103344742D02*
X48457143Y-102144742D01*
X48457143Y-102144742D02*
X48342857Y-102316171D01*
X48342857Y-102316171D02*
X48228572Y-102430457D01*
X48228572Y-102430457D02*
X48114286Y-102487600D01*
X189188720Y-74185678D02*
X189188720Y-72685678D01*
X189188720Y-72685678D02*
X189545863Y-72685678D01*
X189545863Y-72685678D02*
X189760149Y-72757107D01*
X189760149Y-72757107D02*
X189903006Y-72899964D01*
X189903006Y-72899964D02*
X189974435Y-73042821D01*
X189974435Y-73042821D02*
X190045863Y-73328535D01*
X190045863Y-73328535D02*
X190045863Y-73542821D01*
X190045863Y-73542821D02*
X189974435Y-73828535D01*
X189974435Y-73828535D02*
X189903006Y-73971392D01*
X189903006Y-73971392D02*
X189760149Y-74114250D01*
X189760149Y-74114250D02*
X189545863Y-74185678D01*
X189545863Y-74185678D02*
X189188720Y-74185678D01*
X191474435Y-74185678D02*
X190617292Y-74185678D01*
X191045863Y-74185678D02*
X191045863Y-72685678D01*
X191045863Y-72685678D02*
X190903006Y-72899964D01*
X190903006Y-72899964D02*
X190760149Y-73042821D01*
X190760149Y-73042821D02*
X190617292Y-73114250D01*
D14*
G36*
X191612999Y-75009665D02*
G01*
X192221663Y-75009665D01*
X192221663Y-74399810D01*
X192407081Y-74399810D01*
X192407081Y-75009665D01*
X193015348Y-75009665D01*
X193015348Y-75187540D01*
X192407081Y-75187540D01*
X192407081Y-75797395D01*
X192221663Y-75797395D01*
X192221663Y-75187540D01*
X191612999Y-75187540D01*
X191612999Y-75009665D01*
G37*
D11*
X72703006Y-101146742D02*
X72303006Y-100575314D01*
X72017292Y-101146742D02*
X72017292Y-99946742D01*
X72017292Y-99946742D02*
X72474435Y-99946742D01*
X72474435Y-99946742D02*
X72588720Y-100003885D01*
X72588720Y-100003885D02*
X72645863Y-100061028D01*
X72645863Y-100061028D02*
X72703006Y-100175314D01*
X72703006Y-100175314D02*
X72703006Y-100346742D01*
X72703006Y-100346742D02*
X72645863Y-100461028D01*
X72645863Y-100461028D02*
X72588720Y-100518171D01*
X72588720Y-100518171D02*
X72474435Y-100575314D01*
X72474435Y-100575314D02*
X72017292Y-100575314D01*
X73274435Y-101146742D02*
X73503006Y-101146742D01*
X73503006Y-101146742D02*
X73617292Y-101089600D01*
X73617292Y-101089600D02*
X73674435Y-101032457D01*
X73674435Y-101032457D02*
X73788720Y-100861028D01*
X73788720Y-100861028D02*
X73845863Y-100632457D01*
X73845863Y-100632457D02*
X73845863Y-100175314D01*
X73845863Y-100175314D02*
X73788720Y-100061028D01*
X73788720Y-100061028D02*
X73731578Y-100003885D01*
X73731578Y-100003885D02*
X73617292Y-99946742D01*
X73617292Y-99946742D02*
X73388720Y-99946742D01*
X73388720Y-99946742D02*
X73274435Y-100003885D01*
X73274435Y-100003885D02*
X73217292Y-100061028D01*
X73217292Y-100061028D02*
X73160149Y-100175314D01*
X73160149Y-100175314D02*
X73160149Y-100461028D01*
X73160149Y-100461028D02*
X73217292Y-100575314D01*
X73217292Y-100575314D02*
X73274435Y-100632457D01*
X73274435Y-100632457D02*
X73388720Y-100689600D01*
X73388720Y-100689600D02*
X73617292Y-100689600D01*
X73617292Y-100689600D02*
X73731578Y-100632457D01*
X73731578Y-100632457D02*
X73788720Y-100575314D01*
X73788720Y-100575314D02*
X73845863Y-100461028D01*
X85501885Y-57757142D02*
X85501885Y-57185714D01*
X85844742Y-57871428D02*
X84644742Y-57471428D01*
X84644742Y-57471428D02*
X85844742Y-57071428D01*
X85844742Y-56042857D02*
X85844742Y-56728571D01*
X85844742Y-56385714D02*
X84644742Y-56385714D01*
X84644742Y-56385714D02*
X84816171Y-56500000D01*
X84816171Y-56500000D02*
X84930457Y-56614285D01*
X84930457Y-56614285D02*
X84987600Y-56728571D01*
X125214742Y-63394285D02*
X126186171Y-63394285D01*
X126186171Y-63394285D02*
X126300457Y-63337142D01*
X126300457Y-63337142D02*
X126357600Y-63280000D01*
X126357600Y-63280000D02*
X126414742Y-63165714D01*
X126414742Y-63165714D02*
X126414742Y-62937142D01*
X126414742Y-62937142D02*
X126357600Y-62822857D01*
X126357600Y-62822857D02*
X126300457Y-62765714D01*
X126300457Y-62765714D02*
X126186171Y-62708571D01*
X126186171Y-62708571D02*
X125214742Y-62708571D01*
X126357600Y-62194285D02*
X126414742Y-62022857D01*
X126414742Y-62022857D02*
X126414742Y-61737142D01*
X126414742Y-61737142D02*
X126357600Y-61622857D01*
X126357600Y-61622857D02*
X126300457Y-61565714D01*
X126300457Y-61565714D02*
X126186171Y-61508571D01*
X126186171Y-61508571D02*
X126071885Y-61508571D01*
X126071885Y-61508571D02*
X125957600Y-61565714D01*
X125957600Y-61565714D02*
X125900457Y-61622857D01*
X125900457Y-61622857D02*
X125843314Y-61737142D01*
X125843314Y-61737142D02*
X125786171Y-61965714D01*
X125786171Y-61965714D02*
X125729028Y-62079999D01*
X125729028Y-62079999D02*
X125671885Y-62137142D01*
X125671885Y-62137142D02*
X125557600Y-62194285D01*
X125557600Y-62194285D02*
X125443314Y-62194285D01*
X125443314Y-62194285D02*
X125329028Y-62137142D01*
X125329028Y-62137142D02*
X125271885Y-62079999D01*
X125271885Y-62079999D02*
X125214742Y-61965714D01*
X125214742Y-61965714D02*
X125214742Y-61679999D01*
X125214742Y-61679999D02*
X125271885Y-61508571D01*
X125786171Y-60594285D02*
X125843314Y-60422857D01*
X125843314Y-60422857D02*
X125900457Y-60365714D01*
X125900457Y-60365714D02*
X126014742Y-60308571D01*
X126014742Y-60308571D02*
X126186171Y-60308571D01*
X126186171Y-60308571D02*
X126300457Y-60365714D01*
X126300457Y-60365714D02*
X126357600Y-60422857D01*
X126357600Y-60422857D02*
X126414742Y-60537142D01*
X126414742Y-60537142D02*
X126414742Y-60994285D01*
X126414742Y-60994285D02*
X125214742Y-60994285D01*
X125214742Y-60994285D02*
X125214742Y-60594285D01*
X125214742Y-60594285D02*
X125271885Y-60480000D01*
X125271885Y-60480000D02*
X125329028Y-60422857D01*
X125329028Y-60422857D02*
X125443314Y-60365714D01*
X125443314Y-60365714D02*
X125557600Y-60365714D01*
X125557600Y-60365714D02*
X125671885Y-60422857D01*
X125671885Y-60422857D02*
X125729028Y-60480000D01*
X125729028Y-60480000D02*
X125786171Y-60594285D01*
X125786171Y-60594285D02*
X125786171Y-60994285D01*
X74103006Y-77132457D02*
X74045863Y-77189600D01*
X74045863Y-77189600D02*
X73874435Y-77246742D01*
X73874435Y-77246742D02*
X73760149Y-77246742D01*
X73760149Y-77246742D02*
X73588720Y-77189600D01*
X73588720Y-77189600D02*
X73474435Y-77075314D01*
X73474435Y-77075314D02*
X73417292Y-76961028D01*
X73417292Y-76961028D02*
X73360149Y-76732457D01*
X73360149Y-76732457D02*
X73360149Y-76561028D01*
X73360149Y-76561028D02*
X73417292Y-76332457D01*
X73417292Y-76332457D02*
X73474435Y-76218171D01*
X73474435Y-76218171D02*
X73588720Y-76103885D01*
X73588720Y-76103885D02*
X73760149Y-76046742D01*
X73760149Y-76046742D02*
X73874435Y-76046742D01*
X73874435Y-76046742D02*
X74045863Y-76103885D01*
X74045863Y-76103885D02*
X74103006Y-76161028D01*
X75245863Y-77246742D02*
X74560149Y-77246742D01*
X74903006Y-77246742D02*
X74903006Y-76046742D01*
X74903006Y-76046742D02*
X74788720Y-76218171D01*
X74788720Y-76218171D02*
X74674435Y-76332457D01*
X74674435Y-76332457D02*
X74560149Y-76389600D01*
X102461028Y-95382707D02*
X102403885Y-95496993D01*
X102403885Y-95496993D02*
X102289600Y-95611279D01*
X102289600Y-95611279D02*
X102118171Y-95782707D01*
X102118171Y-95782707D02*
X102061028Y-95896993D01*
X102061028Y-95896993D02*
X102061028Y-96011279D01*
X102346742Y-95954136D02*
X102289600Y-96068422D01*
X102289600Y-96068422D02*
X102175314Y-96182707D01*
X102175314Y-96182707D02*
X101946742Y-96239850D01*
X101946742Y-96239850D02*
X101546742Y-96239850D01*
X101546742Y-96239850D02*
X101318171Y-96182707D01*
X101318171Y-96182707D02*
X101203885Y-96068422D01*
X101203885Y-96068422D02*
X101146742Y-95954136D01*
X101146742Y-95954136D02*
X101146742Y-95725564D01*
X101146742Y-95725564D02*
X101203885Y-95611279D01*
X101203885Y-95611279D02*
X101318171Y-95496993D01*
X101318171Y-95496993D02*
X101546742Y-95439850D01*
X101546742Y-95439850D02*
X101946742Y-95439850D01*
X101946742Y-95439850D02*
X102175314Y-95496993D01*
X102175314Y-95496993D02*
X102289600Y-95611279D01*
X102289600Y-95611279D02*
X102346742Y-95725564D01*
X102346742Y-95725564D02*
X102346742Y-95954136D01*
X101146742Y-95039850D02*
X101146742Y-94296993D01*
X101146742Y-94296993D02*
X101603885Y-94696993D01*
X101603885Y-94696993D02*
X101603885Y-94525564D01*
X101603885Y-94525564D02*
X101661028Y-94411279D01*
X101661028Y-94411279D02*
X101718171Y-94354136D01*
X101718171Y-94354136D02*
X101832457Y-94296993D01*
X101832457Y-94296993D02*
X102118171Y-94296993D01*
X102118171Y-94296993D02*
X102232457Y-94354136D01*
X102232457Y-94354136D02*
X102289600Y-94411279D01*
X102289600Y-94411279D02*
X102346742Y-94525564D01*
X102346742Y-94525564D02*
X102346742Y-94868421D01*
X102346742Y-94868421D02*
X102289600Y-94982707D01*
X102289600Y-94982707D02*
X102232457Y-95039850D01*
X90103006Y-77132457D02*
X90045863Y-77189600D01*
X90045863Y-77189600D02*
X89874435Y-77246742D01*
X89874435Y-77246742D02*
X89760149Y-77246742D01*
X89760149Y-77246742D02*
X89588720Y-77189600D01*
X89588720Y-77189600D02*
X89474435Y-77075314D01*
X89474435Y-77075314D02*
X89417292Y-76961028D01*
X89417292Y-76961028D02*
X89360149Y-76732457D01*
X89360149Y-76732457D02*
X89360149Y-76561028D01*
X89360149Y-76561028D02*
X89417292Y-76332457D01*
X89417292Y-76332457D02*
X89474435Y-76218171D01*
X89474435Y-76218171D02*
X89588720Y-76103885D01*
X89588720Y-76103885D02*
X89760149Y-76046742D01*
X89760149Y-76046742D02*
X89874435Y-76046742D01*
X89874435Y-76046742D02*
X90045863Y-76103885D01*
X90045863Y-76103885D02*
X90103006Y-76161028D01*
X90560149Y-76161028D02*
X90617292Y-76103885D01*
X90617292Y-76103885D02*
X90731578Y-76046742D01*
X90731578Y-76046742D02*
X91017292Y-76046742D01*
X91017292Y-76046742D02*
X91131578Y-76103885D01*
X91131578Y-76103885D02*
X91188720Y-76161028D01*
X91188720Y-76161028D02*
X91245863Y-76275314D01*
X91245863Y-76275314D02*
X91245863Y-76389600D01*
X91245863Y-76389600D02*
X91188720Y-76561028D01*
X91188720Y-76561028D02*
X90503006Y-77246742D01*
X90503006Y-77246742D02*
X91245863Y-77246742D01*
X112561028Y-85916707D02*
X112503885Y-86030993D01*
X112503885Y-86030993D02*
X112389600Y-86145279D01*
X112389600Y-86145279D02*
X112218171Y-86316707D01*
X112218171Y-86316707D02*
X112161028Y-86430993D01*
X112161028Y-86430993D02*
X112161028Y-86545279D01*
X112446742Y-86488136D02*
X112389600Y-86602422D01*
X112389600Y-86602422D02*
X112275314Y-86716707D01*
X112275314Y-86716707D02*
X112046742Y-86773850D01*
X112046742Y-86773850D02*
X111646742Y-86773850D01*
X111646742Y-86773850D02*
X111418171Y-86716707D01*
X111418171Y-86716707D02*
X111303885Y-86602422D01*
X111303885Y-86602422D02*
X111246742Y-86488136D01*
X111246742Y-86488136D02*
X111246742Y-86259564D01*
X111246742Y-86259564D02*
X111303885Y-86145279D01*
X111303885Y-86145279D02*
X111418171Y-86030993D01*
X111418171Y-86030993D02*
X111646742Y-85973850D01*
X111646742Y-85973850D02*
X112046742Y-85973850D01*
X112046742Y-85973850D02*
X112275314Y-86030993D01*
X112275314Y-86030993D02*
X112389600Y-86145279D01*
X112389600Y-86145279D02*
X112446742Y-86259564D01*
X112446742Y-86259564D02*
X112446742Y-86488136D01*
X111646742Y-84945279D02*
X112446742Y-84945279D01*
X111189600Y-85230993D02*
X112046742Y-85516707D01*
X112046742Y-85516707D02*
X112046742Y-84773850D01*
X185253257Y-83503006D02*
X185824685Y-83103006D01*
X185253257Y-82817292D02*
X186453257Y-82817292D01*
X186453257Y-82817292D02*
X186453257Y-83274435D01*
X186453257Y-83274435D02*
X186396114Y-83388720D01*
X186396114Y-83388720D02*
X186338971Y-83445863D01*
X186338971Y-83445863D02*
X186224685Y-83503006D01*
X186224685Y-83503006D02*
X186053257Y-83503006D01*
X186053257Y-83503006D02*
X185938971Y-83445863D01*
X185938971Y-83445863D02*
X185881828Y-83388720D01*
X185881828Y-83388720D02*
X185824685Y-83274435D01*
X185824685Y-83274435D02*
X185824685Y-82817292D01*
X185253257Y-84645863D02*
X185253257Y-83960149D01*
X185253257Y-84303006D02*
X186453257Y-84303006D01*
X186453257Y-84303006D02*
X186281828Y-84188720D01*
X186281828Y-84188720D02*
X186167542Y-84074435D01*
X186167542Y-84074435D02*
X186110400Y-83960149D01*
X185253257Y-85788720D02*
X185253257Y-85103006D01*
X185253257Y-85445863D02*
X186453257Y-85445863D01*
X186453257Y-85445863D02*
X186281828Y-85331577D01*
X186281828Y-85331577D02*
X186167542Y-85217292D01*
X186167542Y-85217292D02*
X186110400Y-85103006D01*
X114553257Y-135503006D02*
X115124685Y-135103006D01*
X114553257Y-134817292D02*
X115753257Y-134817292D01*
X115753257Y-134817292D02*
X115753257Y-135274435D01*
X115753257Y-135274435D02*
X115696114Y-135388720D01*
X115696114Y-135388720D02*
X115638971Y-135445863D01*
X115638971Y-135445863D02*
X115524685Y-135503006D01*
X115524685Y-135503006D02*
X115353257Y-135503006D01*
X115353257Y-135503006D02*
X115238971Y-135445863D01*
X115238971Y-135445863D02*
X115181828Y-135388720D01*
X115181828Y-135388720D02*
X115124685Y-135274435D01*
X115124685Y-135274435D02*
X115124685Y-134817292D01*
X115238971Y-136188720D02*
X115296114Y-136074435D01*
X115296114Y-136074435D02*
X115353257Y-136017292D01*
X115353257Y-136017292D02*
X115467542Y-135960149D01*
X115467542Y-135960149D02*
X115524685Y-135960149D01*
X115524685Y-135960149D02*
X115638971Y-136017292D01*
X115638971Y-136017292D02*
X115696114Y-136074435D01*
X115696114Y-136074435D02*
X115753257Y-136188720D01*
X115753257Y-136188720D02*
X115753257Y-136417292D01*
X115753257Y-136417292D02*
X115696114Y-136531578D01*
X115696114Y-136531578D02*
X115638971Y-136588720D01*
X115638971Y-136588720D02*
X115524685Y-136645863D01*
X115524685Y-136645863D02*
X115467542Y-136645863D01*
X115467542Y-136645863D02*
X115353257Y-136588720D01*
X115353257Y-136588720D02*
X115296114Y-136531578D01*
X115296114Y-136531578D02*
X115238971Y-136417292D01*
X115238971Y-136417292D02*
X115238971Y-136188720D01*
X115238971Y-136188720D02*
X115181828Y-136074435D01*
X115181828Y-136074435D02*
X115124685Y-136017292D01*
X115124685Y-136017292D02*
X115010400Y-135960149D01*
X115010400Y-135960149D02*
X114781828Y-135960149D01*
X114781828Y-135960149D02*
X114667542Y-136017292D01*
X114667542Y-136017292D02*
X114610400Y-136074435D01*
X114610400Y-136074435D02*
X114553257Y-136188720D01*
X114553257Y-136188720D02*
X114553257Y-136417292D01*
X114553257Y-136417292D02*
X114610400Y-136531578D01*
X114610400Y-136531578D02*
X114667542Y-136588720D01*
X114667542Y-136588720D02*
X114781828Y-136645863D01*
X114781828Y-136645863D02*
X115010400Y-136645863D01*
X115010400Y-136645863D02*
X115124685Y-136588720D01*
X115124685Y-136588720D02*
X115181828Y-136531578D01*
X115181828Y-136531578D02*
X115238971Y-136417292D01*
X138405392Y-82346742D02*
X138405392Y-81146742D01*
X139091106Y-82346742D02*
X138576820Y-81661028D01*
X139091106Y-81146742D02*
X138405392Y-81832457D01*
X140233963Y-82346742D02*
X139548249Y-82346742D01*
X139891106Y-82346742D02*
X139891106Y-81146742D01*
X139891106Y-81146742D02*
X139776820Y-81318171D01*
X139776820Y-81318171D02*
X139662535Y-81432457D01*
X139662535Y-81432457D02*
X139548249Y-81489600D01*
X42461028Y-95582707D02*
X42403885Y-95696993D01*
X42403885Y-95696993D02*
X42289600Y-95811279D01*
X42289600Y-95811279D02*
X42118171Y-95982707D01*
X42118171Y-95982707D02*
X42061028Y-96096993D01*
X42061028Y-96096993D02*
X42061028Y-96211279D01*
X42346742Y-96154136D02*
X42289600Y-96268422D01*
X42289600Y-96268422D02*
X42175314Y-96382707D01*
X42175314Y-96382707D02*
X41946742Y-96439850D01*
X41946742Y-96439850D02*
X41546742Y-96439850D01*
X41546742Y-96439850D02*
X41318171Y-96382707D01*
X41318171Y-96382707D02*
X41203885Y-96268422D01*
X41203885Y-96268422D02*
X41146742Y-96154136D01*
X41146742Y-96154136D02*
X41146742Y-95925564D01*
X41146742Y-95925564D02*
X41203885Y-95811279D01*
X41203885Y-95811279D02*
X41318171Y-95696993D01*
X41318171Y-95696993D02*
X41546742Y-95639850D01*
X41546742Y-95639850D02*
X41946742Y-95639850D01*
X41946742Y-95639850D02*
X42175314Y-95696993D01*
X42175314Y-95696993D02*
X42289600Y-95811279D01*
X42289600Y-95811279D02*
X42346742Y-95925564D01*
X42346742Y-95925564D02*
X42346742Y-96154136D01*
X41146742Y-95239850D02*
X41146742Y-94439850D01*
X41146742Y-94439850D02*
X42346742Y-94954136D01*
X138405392Y-110746742D02*
X138405392Y-109546742D01*
X139091106Y-110746742D02*
X138576820Y-110061028D01*
X139091106Y-109546742D02*
X138405392Y-110232457D01*
X139491106Y-109546742D02*
X140233963Y-109546742D01*
X140233963Y-109546742D02*
X139833963Y-110003885D01*
X139833963Y-110003885D02*
X140005392Y-110003885D01*
X140005392Y-110003885D02*
X140119678Y-110061028D01*
X140119678Y-110061028D02*
X140176820Y-110118171D01*
X140176820Y-110118171D02*
X140233963Y-110232457D01*
X140233963Y-110232457D02*
X140233963Y-110518171D01*
X140233963Y-110518171D02*
X140176820Y-110632457D01*
X140176820Y-110632457D02*
X140119678Y-110689600D01*
X140119678Y-110689600D02*
X140005392Y-110746742D01*
X140005392Y-110746742D02*
X139662535Y-110746742D01*
X139662535Y-110746742D02*
X139548249Y-110689600D01*
X139548249Y-110689600D02*
X139491106Y-110632457D01*
X115761028Y-142382707D02*
X115703885Y-142496993D01*
X115703885Y-142496993D02*
X115589600Y-142611279D01*
X115589600Y-142611279D02*
X115418171Y-142782707D01*
X115418171Y-142782707D02*
X115361028Y-142896993D01*
X115361028Y-142896993D02*
X115361028Y-143011279D01*
X115646742Y-142954136D02*
X115589600Y-143068422D01*
X115589600Y-143068422D02*
X115475314Y-143182707D01*
X115475314Y-143182707D02*
X115246742Y-143239850D01*
X115246742Y-143239850D02*
X114846742Y-143239850D01*
X114846742Y-143239850D02*
X114618171Y-143182707D01*
X114618171Y-143182707D02*
X114503885Y-143068422D01*
X114503885Y-143068422D02*
X114446742Y-142954136D01*
X114446742Y-142954136D02*
X114446742Y-142725564D01*
X114446742Y-142725564D02*
X114503885Y-142611279D01*
X114503885Y-142611279D02*
X114618171Y-142496993D01*
X114618171Y-142496993D02*
X114846742Y-142439850D01*
X114846742Y-142439850D02*
X115246742Y-142439850D01*
X115246742Y-142439850D02*
X115475314Y-142496993D01*
X115475314Y-142496993D02*
X115589600Y-142611279D01*
X115589600Y-142611279D02*
X115646742Y-142725564D01*
X115646742Y-142725564D02*
X115646742Y-142954136D01*
X114446742Y-141411279D02*
X114446742Y-141639850D01*
X114446742Y-141639850D02*
X114503885Y-141754136D01*
X114503885Y-141754136D02*
X114561028Y-141811279D01*
X114561028Y-141811279D02*
X114732457Y-141925564D01*
X114732457Y-141925564D02*
X114961028Y-141982707D01*
X114961028Y-141982707D02*
X115418171Y-141982707D01*
X115418171Y-141982707D02*
X115532457Y-141925564D01*
X115532457Y-141925564D02*
X115589600Y-141868421D01*
X115589600Y-141868421D02*
X115646742Y-141754136D01*
X115646742Y-141754136D02*
X115646742Y-141525564D01*
X115646742Y-141525564D02*
X115589600Y-141411279D01*
X115589600Y-141411279D02*
X115532457Y-141354136D01*
X115532457Y-141354136D02*
X115418171Y-141296993D01*
X115418171Y-141296993D02*
X115132457Y-141296993D01*
X115132457Y-141296993D02*
X115018171Y-141354136D01*
X115018171Y-141354136D02*
X114961028Y-141411279D01*
X114961028Y-141411279D02*
X114903885Y-141525564D01*
X114903885Y-141525564D02*
X114903885Y-141754136D01*
X114903885Y-141754136D02*
X114961028Y-141868421D01*
X114961028Y-141868421D02*
X115018171Y-141925564D01*
X115018171Y-141925564D02*
X115132457Y-141982707D01*
X86061028Y-131482707D02*
X86003885Y-131596993D01*
X86003885Y-131596993D02*
X85889600Y-131711279D01*
X85889600Y-131711279D02*
X85718171Y-131882707D01*
X85718171Y-131882707D02*
X85661028Y-131996993D01*
X85661028Y-131996993D02*
X85661028Y-132111279D01*
X85946742Y-132054136D02*
X85889600Y-132168422D01*
X85889600Y-132168422D02*
X85775314Y-132282707D01*
X85775314Y-132282707D02*
X85546742Y-132339850D01*
X85546742Y-132339850D02*
X85146742Y-132339850D01*
X85146742Y-132339850D02*
X84918171Y-132282707D01*
X84918171Y-132282707D02*
X84803885Y-132168422D01*
X84803885Y-132168422D02*
X84746742Y-132054136D01*
X84746742Y-132054136D02*
X84746742Y-131825564D01*
X84746742Y-131825564D02*
X84803885Y-131711279D01*
X84803885Y-131711279D02*
X84918171Y-131596993D01*
X84918171Y-131596993D02*
X85146742Y-131539850D01*
X85146742Y-131539850D02*
X85546742Y-131539850D01*
X85546742Y-131539850D02*
X85775314Y-131596993D01*
X85775314Y-131596993D02*
X85889600Y-131711279D01*
X85889600Y-131711279D02*
X85946742Y-131825564D01*
X85946742Y-131825564D02*
X85946742Y-132054136D01*
X84861028Y-131082707D02*
X84803885Y-131025564D01*
X84803885Y-131025564D02*
X84746742Y-130911279D01*
X84746742Y-130911279D02*
X84746742Y-130625564D01*
X84746742Y-130625564D02*
X84803885Y-130511279D01*
X84803885Y-130511279D02*
X84861028Y-130454136D01*
X84861028Y-130454136D02*
X84975314Y-130396993D01*
X84975314Y-130396993D02*
X85089600Y-130396993D01*
X85089600Y-130396993D02*
X85261028Y-130454136D01*
X85261028Y-130454136D02*
X85946742Y-131139850D01*
X85946742Y-131139850D02*
X85946742Y-130396993D01*
X171917292Y-90746742D02*
X171917292Y-91718171D01*
X171917292Y-91718171D02*
X171974435Y-91832457D01*
X171974435Y-91832457D02*
X172031578Y-91889600D01*
X172031578Y-91889600D02*
X172145863Y-91946742D01*
X172145863Y-91946742D02*
X172374435Y-91946742D01*
X172374435Y-91946742D02*
X172488720Y-91889600D01*
X172488720Y-91889600D02*
X172545863Y-91832457D01*
X172545863Y-91832457D02*
X172603006Y-91718171D01*
X172603006Y-91718171D02*
X172603006Y-90746742D01*
X173117292Y-90861028D02*
X173174435Y-90803885D01*
X173174435Y-90803885D02*
X173288721Y-90746742D01*
X173288721Y-90746742D02*
X173574435Y-90746742D01*
X173574435Y-90746742D02*
X173688721Y-90803885D01*
X173688721Y-90803885D02*
X173745863Y-90861028D01*
X173745863Y-90861028D02*
X173803006Y-90975314D01*
X173803006Y-90975314D02*
X173803006Y-91089600D01*
X173803006Y-91089600D02*
X173745863Y-91261028D01*
X173745863Y-91261028D02*
X173060149Y-91946742D01*
X173060149Y-91946742D02*
X173803006Y-91946742D01*
X174556050Y-82044571D02*
X174498907Y-82101714D01*
X174498907Y-82101714D02*
X174384622Y-82158857D01*
X174384622Y-82158857D02*
X174098907Y-82158857D01*
X174098907Y-82158857D02*
X173984622Y-82101714D01*
X173984622Y-82101714D02*
X173927479Y-82044571D01*
X173927479Y-82044571D02*
X173870336Y-81930285D01*
X173870336Y-81930285D02*
X173870336Y-81816000D01*
X173870336Y-81816000D02*
X173927479Y-81644571D01*
X173927479Y-81644571D02*
X174613193Y-80958857D01*
X174613193Y-80958857D02*
X173870336Y-80958857D01*
X169323736Y-80958857D02*
X170009450Y-80958857D01*
X169666593Y-80958857D02*
X169666593Y-82158857D01*
X169666593Y-82158857D02*
X169780879Y-81987428D01*
X169780879Y-81987428D02*
X169895164Y-81873142D01*
X169895164Y-81873142D02*
X170009450Y-81816000D01*
X108753257Y-82703006D02*
X109324685Y-82303006D01*
X108753257Y-82017292D02*
X109953257Y-82017292D01*
X109953257Y-82017292D02*
X109953257Y-82474435D01*
X109953257Y-82474435D02*
X109896114Y-82588720D01*
X109896114Y-82588720D02*
X109838971Y-82645863D01*
X109838971Y-82645863D02*
X109724685Y-82703006D01*
X109724685Y-82703006D02*
X109553257Y-82703006D01*
X109553257Y-82703006D02*
X109438971Y-82645863D01*
X109438971Y-82645863D02*
X109381828Y-82588720D01*
X109381828Y-82588720D02*
X109324685Y-82474435D01*
X109324685Y-82474435D02*
X109324685Y-82017292D01*
X109953257Y-83731578D02*
X109953257Y-83503006D01*
X109953257Y-83503006D02*
X109896114Y-83388720D01*
X109896114Y-83388720D02*
X109838971Y-83331578D01*
X109838971Y-83331578D02*
X109667542Y-83217292D01*
X109667542Y-83217292D02*
X109438971Y-83160149D01*
X109438971Y-83160149D02*
X108981828Y-83160149D01*
X108981828Y-83160149D02*
X108867542Y-83217292D01*
X108867542Y-83217292D02*
X108810400Y-83274435D01*
X108810400Y-83274435D02*
X108753257Y-83388720D01*
X108753257Y-83388720D02*
X108753257Y-83617292D01*
X108753257Y-83617292D02*
X108810400Y-83731578D01*
X108810400Y-83731578D02*
X108867542Y-83788720D01*
X108867542Y-83788720D02*
X108981828Y-83845863D01*
X108981828Y-83845863D02*
X109267542Y-83845863D01*
X109267542Y-83845863D02*
X109381828Y-83788720D01*
X109381828Y-83788720D02*
X109438971Y-83731578D01*
X109438971Y-83731578D02*
X109496114Y-83617292D01*
X109496114Y-83617292D02*
X109496114Y-83388720D01*
X109496114Y-83388720D02*
X109438971Y-83274435D01*
X109438971Y-83274435D02*
X109381828Y-83217292D01*
X109381828Y-83217292D02*
X109267542Y-83160149D01*
X158567542Y-143903006D02*
X158510400Y-143845863D01*
X158510400Y-143845863D02*
X158453257Y-143674435D01*
X158453257Y-143674435D02*
X158453257Y-143560149D01*
X158453257Y-143560149D02*
X158510400Y-143388720D01*
X158510400Y-143388720D02*
X158624685Y-143274435D01*
X158624685Y-143274435D02*
X158738971Y-143217292D01*
X158738971Y-143217292D02*
X158967542Y-143160149D01*
X158967542Y-143160149D02*
X159138971Y-143160149D01*
X159138971Y-143160149D02*
X159367542Y-143217292D01*
X159367542Y-143217292D02*
X159481828Y-143274435D01*
X159481828Y-143274435D02*
X159596114Y-143388720D01*
X159596114Y-143388720D02*
X159653257Y-143560149D01*
X159653257Y-143560149D02*
X159653257Y-143674435D01*
X159653257Y-143674435D02*
X159596114Y-143845863D01*
X159596114Y-143845863D02*
X159538971Y-143903006D01*
X158453257Y-145103006D02*
X159024685Y-144703006D01*
X158453257Y-144417292D02*
X159653257Y-144417292D01*
X159653257Y-144417292D02*
X159653257Y-144874435D01*
X159653257Y-144874435D02*
X159596114Y-144988720D01*
X159596114Y-144988720D02*
X159538971Y-145045863D01*
X159538971Y-145045863D02*
X159424685Y-145103006D01*
X159424685Y-145103006D02*
X159253257Y-145103006D01*
X159253257Y-145103006D02*
X159138971Y-145045863D01*
X159138971Y-145045863D02*
X159081828Y-144988720D01*
X159081828Y-144988720D02*
X159024685Y-144874435D01*
X159024685Y-144874435D02*
X159024685Y-144417292D01*
X159253257Y-146131578D02*
X158453257Y-146131578D01*
X159710400Y-145845863D02*
X158853257Y-145560149D01*
X158853257Y-145560149D02*
X158853257Y-146303006D01*
X35061028Y-95382707D02*
X35003885Y-95496993D01*
X35003885Y-95496993D02*
X34889600Y-95611279D01*
X34889600Y-95611279D02*
X34718171Y-95782707D01*
X34718171Y-95782707D02*
X34661028Y-95896993D01*
X34661028Y-95896993D02*
X34661028Y-96011279D01*
X34946742Y-95954136D02*
X34889600Y-96068422D01*
X34889600Y-96068422D02*
X34775314Y-96182707D01*
X34775314Y-96182707D02*
X34546742Y-96239850D01*
X34546742Y-96239850D02*
X34146742Y-96239850D01*
X34146742Y-96239850D02*
X33918171Y-96182707D01*
X33918171Y-96182707D02*
X33803885Y-96068422D01*
X33803885Y-96068422D02*
X33746742Y-95954136D01*
X33746742Y-95954136D02*
X33746742Y-95725564D01*
X33746742Y-95725564D02*
X33803885Y-95611279D01*
X33803885Y-95611279D02*
X33918171Y-95496993D01*
X33918171Y-95496993D02*
X34146742Y-95439850D01*
X34146742Y-95439850D02*
X34546742Y-95439850D01*
X34546742Y-95439850D02*
X34775314Y-95496993D01*
X34775314Y-95496993D02*
X34889600Y-95611279D01*
X34889600Y-95611279D02*
X34946742Y-95725564D01*
X34946742Y-95725564D02*
X34946742Y-95954136D01*
X34261028Y-94754136D02*
X34203885Y-94868421D01*
X34203885Y-94868421D02*
X34146742Y-94925564D01*
X34146742Y-94925564D02*
X34032457Y-94982707D01*
X34032457Y-94982707D02*
X33975314Y-94982707D01*
X33975314Y-94982707D02*
X33861028Y-94925564D01*
X33861028Y-94925564D02*
X33803885Y-94868421D01*
X33803885Y-94868421D02*
X33746742Y-94754136D01*
X33746742Y-94754136D02*
X33746742Y-94525564D01*
X33746742Y-94525564D02*
X33803885Y-94411279D01*
X33803885Y-94411279D02*
X33861028Y-94354136D01*
X33861028Y-94354136D02*
X33975314Y-94296993D01*
X33975314Y-94296993D02*
X34032457Y-94296993D01*
X34032457Y-94296993D02*
X34146742Y-94354136D01*
X34146742Y-94354136D02*
X34203885Y-94411279D01*
X34203885Y-94411279D02*
X34261028Y-94525564D01*
X34261028Y-94525564D02*
X34261028Y-94754136D01*
X34261028Y-94754136D02*
X34318171Y-94868421D01*
X34318171Y-94868421D02*
X34375314Y-94925564D01*
X34375314Y-94925564D02*
X34489600Y-94982707D01*
X34489600Y-94982707D02*
X34718171Y-94982707D01*
X34718171Y-94982707D02*
X34832457Y-94925564D01*
X34832457Y-94925564D02*
X34889600Y-94868421D01*
X34889600Y-94868421D02*
X34946742Y-94754136D01*
X34946742Y-94754136D02*
X34946742Y-94525564D01*
X34946742Y-94525564D02*
X34889600Y-94411279D01*
X34889600Y-94411279D02*
X34832457Y-94354136D01*
X34832457Y-94354136D02*
X34718171Y-94296993D01*
X34718171Y-94296993D02*
X34489600Y-94296993D01*
X34489600Y-94296993D02*
X34375314Y-94354136D01*
X34375314Y-94354136D02*
X34318171Y-94411279D01*
X34318171Y-94411279D02*
X34261028Y-94525564D01*
X186953257Y-144403006D02*
X187524685Y-144003006D01*
X186953257Y-143717292D02*
X188153257Y-143717292D01*
X188153257Y-143717292D02*
X188153257Y-144174435D01*
X188153257Y-144174435D02*
X188096114Y-144288720D01*
X188096114Y-144288720D02*
X188038971Y-144345863D01*
X188038971Y-144345863D02*
X187924685Y-144403006D01*
X187924685Y-144403006D02*
X187753257Y-144403006D01*
X187753257Y-144403006D02*
X187638971Y-144345863D01*
X187638971Y-144345863D02*
X187581828Y-144288720D01*
X187581828Y-144288720D02*
X187524685Y-144174435D01*
X187524685Y-144174435D02*
X187524685Y-143717292D01*
X186953257Y-145545863D02*
X186953257Y-144860149D01*
X186953257Y-145203006D02*
X188153257Y-145203006D01*
X188153257Y-145203006D02*
X187981828Y-145088720D01*
X187981828Y-145088720D02*
X187867542Y-144974435D01*
X187867542Y-144974435D02*
X187810400Y-144860149D01*
X187753257Y-146574435D02*
X186953257Y-146574435D01*
X188210400Y-146288720D02*
X187353257Y-146003006D01*
X187353257Y-146003006D02*
X187353257Y-146745863D01*
X64453257Y-64405392D02*
X65653257Y-64405392D01*
X64453257Y-65091106D02*
X65138971Y-64576820D01*
X65653257Y-65091106D02*
X64967542Y-64405392D01*
X65653257Y-66176820D02*
X65653257Y-65605392D01*
X65653257Y-65605392D02*
X65081828Y-65548249D01*
X65081828Y-65548249D02*
X65138971Y-65605392D01*
X65138971Y-65605392D02*
X65196114Y-65719678D01*
X65196114Y-65719678D02*
X65196114Y-66005392D01*
X65196114Y-66005392D02*
X65138971Y-66119678D01*
X65138971Y-66119678D02*
X65081828Y-66176820D01*
X65081828Y-66176820D02*
X64967542Y-66233963D01*
X64967542Y-66233963D02*
X64681828Y-66233963D01*
X64681828Y-66233963D02*
X64567542Y-66176820D01*
X64567542Y-66176820D02*
X64510400Y-66119678D01*
X64510400Y-66119678D02*
X64453257Y-66005392D01*
X64453257Y-66005392D02*
X64453257Y-65719678D01*
X64453257Y-65719678D02*
X64510400Y-65605392D01*
X64510400Y-65605392D02*
X64567542Y-65548249D01*
X72503006Y-93546742D02*
X72103006Y-92975314D01*
X71817292Y-93546742D02*
X71817292Y-92346742D01*
X71817292Y-92346742D02*
X72274435Y-92346742D01*
X72274435Y-92346742D02*
X72388720Y-92403885D01*
X72388720Y-92403885D02*
X72445863Y-92461028D01*
X72445863Y-92461028D02*
X72503006Y-92575314D01*
X72503006Y-92575314D02*
X72503006Y-92746742D01*
X72503006Y-92746742D02*
X72445863Y-92861028D01*
X72445863Y-92861028D02*
X72388720Y-92918171D01*
X72388720Y-92918171D02*
X72274435Y-92975314D01*
X72274435Y-92975314D02*
X71817292Y-92975314D01*
X73645863Y-93546742D02*
X72960149Y-93546742D01*
X73303006Y-93546742D02*
X73303006Y-92346742D01*
X73303006Y-92346742D02*
X73188720Y-92518171D01*
X73188720Y-92518171D02*
X73074435Y-92632457D01*
X73074435Y-92632457D02*
X72960149Y-92689600D01*
X103461028Y-122936707D02*
X103403885Y-123050993D01*
X103403885Y-123050993D02*
X103289600Y-123165279D01*
X103289600Y-123165279D02*
X103118171Y-123336707D01*
X103118171Y-123336707D02*
X103061028Y-123450993D01*
X103061028Y-123450993D02*
X103061028Y-123565279D01*
X103346742Y-123508136D02*
X103289600Y-123622422D01*
X103289600Y-123622422D02*
X103175314Y-123736707D01*
X103175314Y-123736707D02*
X102946742Y-123793850D01*
X102946742Y-123793850D02*
X102546742Y-123793850D01*
X102546742Y-123793850D02*
X102318171Y-123736707D01*
X102318171Y-123736707D02*
X102203885Y-123622422D01*
X102203885Y-123622422D02*
X102146742Y-123508136D01*
X102146742Y-123508136D02*
X102146742Y-123279564D01*
X102146742Y-123279564D02*
X102203885Y-123165279D01*
X102203885Y-123165279D02*
X102318171Y-123050993D01*
X102318171Y-123050993D02*
X102546742Y-122993850D01*
X102546742Y-122993850D02*
X102946742Y-122993850D01*
X102946742Y-122993850D02*
X103175314Y-123050993D01*
X103175314Y-123050993D02*
X103289600Y-123165279D01*
X103289600Y-123165279D02*
X103346742Y-123279564D01*
X103346742Y-123279564D02*
X103346742Y-123508136D01*
X102146742Y-121908136D02*
X102146742Y-122479564D01*
X102146742Y-122479564D02*
X102718171Y-122536707D01*
X102718171Y-122536707D02*
X102661028Y-122479564D01*
X102661028Y-122479564D02*
X102603885Y-122365279D01*
X102603885Y-122365279D02*
X102603885Y-122079564D01*
X102603885Y-122079564D02*
X102661028Y-121965279D01*
X102661028Y-121965279D02*
X102718171Y-121908136D01*
X102718171Y-121908136D02*
X102832457Y-121850993D01*
X102832457Y-121850993D02*
X103118171Y-121850993D01*
X103118171Y-121850993D02*
X103232457Y-121908136D01*
X103232457Y-121908136D02*
X103289600Y-121965279D01*
X103289600Y-121965279D02*
X103346742Y-122079564D01*
X103346742Y-122079564D02*
X103346742Y-122365279D01*
X103346742Y-122365279D02*
X103289600Y-122479564D01*
X103289600Y-122479564D02*
X103232457Y-122536707D01*
X54503006Y-78832457D02*
X54445863Y-78889600D01*
X54445863Y-78889600D02*
X54274435Y-78946742D01*
X54274435Y-78946742D02*
X54160149Y-78946742D01*
X54160149Y-78946742D02*
X53988720Y-78889600D01*
X53988720Y-78889600D02*
X53874435Y-78775314D01*
X53874435Y-78775314D02*
X53817292Y-78661028D01*
X53817292Y-78661028D02*
X53760149Y-78432457D01*
X53760149Y-78432457D02*
X53760149Y-78261028D01*
X53760149Y-78261028D02*
X53817292Y-78032457D01*
X53817292Y-78032457D02*
X53874435Y-77918171D01*
X53874435Y-77918171D02*
X53988720Y-77803885D01*
X53988720Y-77803885D02*
X54160149Y-77746742D01*
X54160149Y-77746742D02*
X54274435Y-77746742D01*
X54274435Y-77746742D02*
X54445863Y-77803885D01*
X54445863Y-77803885D02*
X54503006Y-77861028D01*
X55703006Y-78946742D02*
X55303006Y-78375314D01*
X55017292Y-78946742D02*
X55017292Y-77746742D01*
X55017292Y-77746742D02*
X55474435Y-77746742D01*
X55474435Y-77746742D02*
X55588720Y-77803885D01*
X55588720Y-77803885D02*
X55645863Y-77861028D01*
X55645863Y-77861028D02*
X55703006Y-77975314D01*
X55703006Y-77975314D02*
X55703006Y-78146742D01*
X55703006Y-78146742D02*
X55645863Y-78261028D01*
X55645863Y-78261028D02*
X55588720Y-78318171D01*
X55588720Y-78318171D02*
X55474435Y-78375314D01*
X55474435Y-78375314D02*
X55017292Y-78375314D01*
X56788720Y-77746742D02*
X56217292Y-77746742D01*
X56217292Y-77746742D02*
X56160149Y-78318171D01*
X56160149Y-78318171D02*
X56217292Y-78261028D01*
X56217292Y-78261028D02*
X56331578Y-78203885D01*
X56331578Y-78203885D02*
X56617292Y-78203885D01*
X56617292Y-78203885D02*
X56731578Y-78261028D01*
X56731578Y-78261028D02*
X56788720Y-78318171D01*
X56788720Y-78318171D02*
X56845863Y-78432457D01*
X56845863Y-78432457D02*
X56845863Y-78718171D01*
X56845863Y-78718171D02*
X56788720Y-78832457D01*
X56788720Y-78832457D02*
X56731578Y-78889600D01*
X56731578Y-78889600D02*
X56617292Y-78946742D01*
X56617292Y-78946742D02*
X56331578Y-78946742D01*
X56331578Y-78946742D02*
X56217292Y-78889600D01*
X56217292Y-78889600D02*
X56160149Y-78832457D01*
X72703006Y-81646742D02*
X72303006Y-81075314D01*
X72017292Y-81646742D02*
X72017292Y-80446742D01*
X72017292Y-80446742D02*
X72474435Y-80446742D01*
X72474435Y-80446742D02*
X72588720Y-80503885D01*
X72588720Y-80503885D02*
X72645863Y-80561028D01*
X72645863Y-80561028D02*
X72703006Y-80675314D01*
X72703006Y-80675314D02*
X72703006Y-80846742D01*
X72703006Y-80846742D02*
X72645863Y-80961028D01*
X72645863Y-80961028D02*
X72588720Y-81018171D01*
X72588720Y-81018171D02*
X72474435Y-81075314D01*
X72474435Y-81075314D02*
X72017292Y-81075314D01*
X73160149Y-80561028D02*
X73217292Y-80503885D01*
X73217292Y-80503885D02*
X73331578Y-80446742D01*
X73331578Y-80446742D02*
X73617292Y-80446742D01*
X73617292Y-80446742D02*
X73731578Y-80503885D01*
X73731578Y-80503885D02*
X73788720Y-80561028D01*
X73788720Y-80561028D02*
X73845863Y-80675314D01*
X73845863Y-80675314D02*
X73845863Y-80789600D01*
X73845863Y-80789600D02*
X73788720Y-80961028D01*
X73788720Y-80961028D02*
X73103006Y-81646742D01*
X73103006Y-81646742D02*
X73845863Y-81646742D01*
X143817292Y-135746742D02*
X143817292Y-134546742D01*
X144503006Y-135746742D02*
X143988720Y-135061028D01*
X144503006Y-134546742D02*
X143817292Y-135232457D01*
X145531578Y-134946742D02*
X145531578Y-135746742D01*
X145245863Y-134489600D02*
X144960149Y-135346742D01*
X144960149Y-135346742D02*
X145703006Y-135346742D01*
X185553257Y-64103006D02*
X186124685Y-63703006D01*
X185553257Y-63417292D02*
X186753257Y-63417292D01*
X186753257Y-63417292D02*
X186753257Y-63874435D01*
X186753257Y-63874435D02*
X186696114Y-63988720D01*
X186696114Y-63988720D02*
X186638971Y-64045863D01*
X186638971Y-64045863D02*
X186524685Y-64103006D01*
X186524685Y-64103006D02*
X186353257Y-64103006D01*
X186353257Y-64103006D02*
X186238971Y-64045863D01*
X186238971Y-64045863D02*
X186181828Y-63988720D01*
X186181828Y-63988720D02*
X186124685Y-63874435D01*
X186124685Y-63874435D02*
X186124685Y-63417292D01*
X185553257Y-65245863D02*
X185553257Y-64560149D01*
X185553257Y-64903006D02*
X186753257Y-64903006D01*
X186753257Y-64903006D02*
X186581828Y-64788720D01*
X186581828Y-64788720D02*
X186467542Y-64674435D01*
X186467542Y-64674435D02*
X186410400Y-64560149D01*
X186638971Y-65703006D02*
X186696114Y-65760149D01*
X186696114Y-65760149D02*
X186753257Y-65874435D01*
X186753257Y-65874435D02*
X186753257Y-66160149D01*
X186753257Y-66160149D02*
X186696114Y-66274435D01*
X186696114Y-66274435D02*
X186638971Y-66331577D01*
X186638971Y-66331577D02*
X186524685Y-66388720D01*
X186524685Y-66388720D02*
X186410400Y-66388720D01*
X186410400Y-66388720D02*
X186238971Y-66331577D01*
X186238971Y-66331577D02*
X185553257Y-65645863D01*
X185553257Y-65645863D02*
X185553257Y-66388720D01*
X32553257Y-89903006D02*
X33124685Y-89503006D01*
X32553257Y-89217292D02*
X33753257Y-89217292D01*
X33753257Y-89217292D02*
X33753257Y-89674435D01*
X33753257Y-89674435D02*
X33696114Y-89788720D01*
X33696114Y-89788720D02*
X33638971Y-89845863D01*
X33638971Y-89845863D02*
X33524685Y-89903006D01*
X33524685Y-89903006D02*
X33353257Y-89903006D01*
X33353257Y-89903006D02*
X33238971Y-89845863D01*
X33238971Y-89845863D02*
X33181828Y-89788720D01*
X33181828Y-89788720D02*
X33124685Y-89674435D01*
X33124685Y-89674435D02*
X33124685Y-89217292D01*
X32553257Y-91045863D02*
X32553257Y-90360149D01*
X32553257Y-90703006D02*
X33753257Y-90703006D01*
X33753257Y-90703006D02*
X33581828Y-90588720D01*
X33581828Y-90588720D02*
X33467542Y-90474435D01*
X33467542Y-90474435D02*
X33410400Y-90360149D01*
X33753257Y-91788720D02*
X33753257Y-91903006D01*
X33753257Y-91903006D02*
X33696114Y-92017292D01*
X33696114Y-92017292D02*
X33638971Y-92074435D01*
X33638971Y-92074435D02*
X33524685Y-92131577D01*
X33524685Y-92131577D02*
X33296114Y-92188720D01*
X33296114Y-92188720D02*
X33010400Y-92188720D01*
X33010400Y-92188720D02*
X32781828Y-92131577D01*
X32781828Y-92131577D02*
X32667542Y-92074435D01*
X32667542Y-92074435D02*
X32610400Y-92017292D01*
X32610400Y-92017292D02*
X32553257Y-91903006D01*
X32553257Y-91903006D02*
X32553257Y-91788720D01*
X32553257Y-91788720D02*
X32610400Y-91674435D01*
X32610400Y-91674435D02*
X32667542Y-91617292D01*
X32667542Y-91617292D02*
X32781828Y-91560149D01*
X32781828Y-91560149D02*
X33010400Y-91503006D01*
X33010400Y-91503006D02*
X33296114Y-91503006D01*
X33296114Y-91503006D02*
X33524685Y-91560149D01*
X33524685Y-91560149D02*
X33638971Y-91617292D01*
X33638971Y-91617292D02*
X33696114Y-91674435D01*
X33696114Y-91674435D02*
X33753257Y-91788720D01*
X189188720Y-65910328D02*
X189188720Y-64410328D01*
X189188720Y-64410328D02*
X189545863Y-64410328D01*
X189545863Y-64410328D02*
X189760149Y-64481757D01*
X189760149Y-64481757D02*
X189903006Y-64624614D01*
X189903006Y-64624614D02*
X189974435Y-64767471D01*
X189974435Y-64767471D02*
X190045863Y-65053185D01*
X190045863Y-65053185D02*
X190045863Y-65267471D01*
X190045863Y-65267471D02*
X189974435Y-65553185D01*
X189974435Y-65553185D02*
X189903006Y-65696042D01*
X189903006Y-65696042D02*
X189760149Y-65838900D01*
X189760149Y-65838900D02*
X189545863Y-65910328D01*
X189545863Y-65910328D02*
X189188720Y-65910328D01*
X190617292Y-64553185D02*
X190688720Y-64481757D01*
X190688720Y-64481757D02*
X190831578Y-64410328D01*
X190831578Y-64410328D02*
X191188720Y-64410328D01*
X191188720Y-64410328D02*
X191331578Y-64481757D01*
X191331578Y-64481757D02*
X191403006Y-64553185D01*
X191403006Y-64553185D02*
X191474435Y-64696042D01*
X191474435Y-64696042D02*
X191474435Y-64838900D01*
X191474435Y-64838900D02*
X191403006Y-65053185D01*
X191403006Y-65053185D02*
X190545863Y-65910328D01*
X190545863Y-65910328D02*
X191474435Y-65910328D01*
D14*
G36*
X191612999Y-67009665D02*
G01*
X192221663Y-67009665D01*
X192221663Y-66399810D01*
X192407081Y-66399810D01*
X192407081Y-67009665D01*
X193015348Y-67009665D01*
X193015348Y-67187540D01*
X192407081Y-67187540D01*
X192407081Y-67797395D01*
X192221663Y-67797395D01*
X192221663Y-67187540D01*
X191612999Y-67187540D01*
X191612999Y-67009665D01*
G37*
D11*
X161267542Y-69303006D02*
X161210400Y-69245863D01*
X161210400Y-69245863D02*
X161153257Y-69074435D01*
X161153257Y-69074435D02*
X161153257Y-68960149D01*
X161153257Y-68960149D02*
X161210400Y-68788720D01*
X161210400Y-68788720D02*
X161324685Y-68674435D01*
X161324685Y-68674435D02*
X161438971Y-68617292D01*
X161438971Y-68617292D02*
X161667542Y-68560149D01*
X161667542Y-68560149D02*
X161838971Y-68560149D01*
X161838971Y-68560149D02*
X162067542Y-68617292D01*
X162067542Y-68617292D02*
X162181828Y-68674435D01*
X162181828Y-68674435D02*
X162296114Y-68788720D01*
X162296114Y-68788720D02*
X162353257Y-68960149D01*
X162353257Y-68960149D02*
X162353257Y-69074435D01*
X162353257Y-69074435D02*
X162296114Y-69245863D01*
X162296114Y-69245863D02*
X162238971Y-69303006D01*
X161153257Y-70503006D02*
X161724685Y-70103006D01*
X161153257Y-69817292D02*
X162353257Y-69817292D01*
X162353257Y-69817292D02*
X162353257Y-70274435D01*
X162353257Y-70274435D02*
X162296114Y-70388720D01*
X162296114Y-70388720D02*
X162238971Y-70445863D01*
X162238971Y-70445863D02*
X162124685Y-70503006D01*
X162124685Y-70503006D02*
X161953257Y-70503006D01*
X161953257Y-70503006D02*
X161838971Y-70445863D01*
X161838971Y-70445863D02*
X161781828Y-70388720D01*
X161781828Y-70388720D02*
X161724685Y-70274435D01*
X161724685Y-70274435D02*
X161724685Y-69817292D01*
X162238971Y-70960149D02*
X162296114Y-71017292D01*
X162296114Y-71017292D02*
X162353257Y-71131578D01*
X162353257Y-71131578D02*
X162353257Y-71417292D01*
X162353257Y-71417292D02*
X162296114Y-71531578D01*
X162296114Y-71531578D02*
X162238971Y-71588720D01*
X162238971Y-71588720D02*
X162124685Y-71645863D01*
X162124685Y-71645863D02*
X162010400Y-71645863D01*
X162010400Y-71645863D02*
X161838971Y-71588720D01*
X161838971Y-71588720D02*
X161153257Y-70903006D01*
X161153257Y-70903006D02*
X161153257Y-71645863D01*
D16*
%TO.C,CR1*%
X153130000Y-88025000D02*
X153130000Y-93105000D01*
X153130000Y-93105000D02*
X153130000Y-94375000D01*
X153130000Y-94375000D02*
X154400000Y-94375000D01*
X154400000Y-88025000D02*
X153130000Y-88025000D01*
X154400000Y-88025000D02*
X154400000Y-87390000D01*
X154400000Y-94375000D02*
X154400000Y-95010000D01*
X154400000Y-94375000D02*
X155670000Y-94375000D01*
X155670000Y-88025000D02*
X154400000Y-88025000D01*
X155670000Y-93105000D02*
X153130000Y-93105000D01*
X155670000Y-93105000D02*
X155670000Y-88025000D01*
X155670000Y-94375000D02*
X155670000Y-93105000D01*
D17*
%TO.C,J2*%
X160032501Y-103454010D02*
X160032501Y-104801724D01*
X160032501Y-107506280D02*
X160032501Y-109001724D01*
X160032501Y-111706279D02*
X160032501Y-113053991D01*
X160032501Y-113053991D02*
X179967500Y-113053991D01*
X165467501Y-101676010D02*
X166737501Y-101676010D01*
X166102501Y-103200010D02*
X165467501Y-101676010D01*
X166737501Y-101676010D02*
X166102501Y-103200010D01*
X179967500Y-103454010D02*
X160032501Y-103454010D01*
X179967500Y-113053991D02*
X179967500Y-103454010D01*
D16*
%TO.C,R7*%
X96339400Y-110639600D02*
X100860600Y-110639600D01*
X96339400Y-122120400D02*
X96339400Y-110639600D01*
X100860600Y-110639600D02*
X100860600Y-122120400D01*
X100860600Y-122120400D02*
X96339400Y-122120400D01*
%TO.C,D4*%
X192740000Y-93975100D02*
G75*
G02*
X187660000Y-93975100I-2540000J0D01*
G01*
X187660000Y-93975100D02*
G75*
G02*
X192740000Y-93975100I2540000J0D01*
G01*
%TO.C,CR3*%
X153930000Y-114225000D02*
X153930000Y-119305000D01*
X153930000Y-119305000D02*
X153930000Y-120575000D01*
X153930000Y-120575000D02*
X155200000Y-120575000D01*
X155200000Y-114225000D02*
X153930000Y-114225000D01*
X155200000Y-114225000D02*
X155200000Y-113590000D01*
X155200000Y-120575000D02*
X155200000Y-121210000D01*
X155200000Y-120575000D02*
X156470000Y-120575000D01*
X156470000Y-114225000D02*
X155200000Y-114225000D01*
X156470000Y-119305000D02*
X153930000Y-119305000D01*
X156470000Y-119305000D02*
X156470000Y-114225000D01*
X156470000Y-120575000D02*
X156470000Y-119305000D01*
%TO.C,Q1*%
X86999900Y-82480100D02*
X86999900Y-86439900D01*
X87001100Y-86441200D02*
G75*
G02*
X87001100Y-82478800I-1498400J1981200D01*
G01*
%TO.C,K2*%
X141699800Y-61700000D02*
X160699700Y-61700000D01*
X141699800Y-77700000D02*
X160699700Y-77700000D01*
X141699900Y-61699000D02*
X141699900Y-77701000D01*
X144199300Y-64698700D02*
X144199800Y-67700000D01*
X144199800Y-74700000D02*
X144199800Y-71700000D01*
X146699800Y-69700000D02*
X143199800Y-72200000D01*
X152200300Y-64698700D02*
X152200300Y-67701000D01*
X152200300Y-67701000D02*
X153198500Y-67701000D01*
X152699700Y-64700000D02*
X153199700Y-64700000D01*
X152699700Y-67700000D02*
X152699700Y-75700000D01*
X152699700Y-75700000D02*
X155199700Y-75700000D01*
X152700600Y-63700500D02*
X152700600Y-64698700D01*
X152700600Y-64698700D02*
X152200300Y-64698700D01*
X153199700Y-64700000D02*
X153199700Y-67700000D01*
X153199700Y-67700000D02*
X152699700Y-67700000D01*
X155199700Y-63700000D02*
X152700600Y-63700500D01*
X157199700Y-69700000D02*
X146699800Y-69700000D01*
X160698700Y-61699500D02*
X160698700Y-77701500D01*
%TO.C,R4*%
X77539400Y-127239600D02*
X82060600Y-127239600D01*
X77539400Y-138720400D02*
X77539400Y-127239600D01*
X82060600Y-127239600D02*
X82060600Y-138720400D01*
X82060600Y-138720400D02*
X77539400Y-138720400D01*
%TO.C,R5*%
X93349290Y-82819600D02*
X97870490Y-82819600D01*
X93349290Y-94300400D02*
X93349290Y-82819600D01*
X97870490Y-82819600D02*
X97870490Y-94300400D01*
X97870490Y-94300400D02*
X93349290Y-94300400D01*
D18*
%TO.C,U1*%
X74761500Y-55148100D02*
X75396500Y-54513100D01*
X74761500Y-58704100D02*
X74761500Y-55148100D01*
X74761500Y-58831100D02*
X74761500Y-65181100D01*
X74761500Y-65181100D02*
X81238500Y-65181100D01*
X75396500Y-54513100D02*
X80603500Y-54513100D01*
X75396500Y-59466100D02*
X80730500Y-59466100D01*
X75396500Y-64673100D02*
X75396500Y-59466100D01*
D19*
X75650500Y-71023100D02*
X75650500Y-65435100D01*
X77936500Y-71023100D02*
X77936500Y-65435100D01*
X80222500Y-71023100D02*
X80222500Y-65435100D01*
D18*
X80603500Y-54513100D02*
X81238500Y-55148100D01*
X80730500Y-59466100D02*
X80730500Y-64673100D01*
X80730500Y-64673100D02*
X75396500Y-64673100D01*
X81238500Y-55148100D02*
X81238500Y-58831100D01*
X81238500Y-58831100D02*
X74761500Y-58831100D01*
X81238500Y-65181100D02*
X81238500Y-58831100D01*
X75650500Y-61371100D02*
G75*
G02*
X75650500Y-62641100I-56900J-635000D01*
G01*
X80476500Y-62641100D02*
G75*
G02*
X80476500Y-61371100I56900J635000D01*
G01*
D16*
%TO.C,U3*%
X166908000Y-122749000D02*
X178288000Y-122749000D01*
X166908000Y-150149000D02*
X166908000Y-122749000D01*
X167620000Y-123942800D02*
X167620000Y-123815800D01*
X167620000Y-123942800D02*
X177627600Y-123942800D01*
X167620000Y-128997400D02*
X167620000Y-123942800D01*
X167620000Y-128997400D02*
X177627600Y-128997400D01*
X167620000Y-129734000D02*
X167620000Y-128997400D01*
X177627600Y-123942800D02*
X177627600Y-128997400D01*
X177627600Y-128997400D02*
X177627600Y-129734000D01*
X177627600Y-129734000D02*
X167620000Y-129734000D01*
X178288000Y-122749000D02*
X178288000Y-150149000D01*
X178288000Y-150149000D02*
X166908000Y-150149000D01*
%TO.C,R3*%
X68739400Y-127259600D02*
X73260600Y-127259600D01*
X68739400Y-138740400D02*
X68739400Y-127259600D01*
X73260600Y-127259600D02*
X73260600Y-138740400D01*
X73260600Y-138740400D02*
X68739400Y-138740400D01*
%TO.C,R13*%
X181639400Y-120959600D02*
X186160600Y-120959600D01*
X181639400Y-132440400D02*
X181639400Y-120959600D01*
X186160600Y-120959600D02*
X186160600Y-132440400D01*
X186160600Y-132440400D02*
X181639400Y-132440400D01*
%TO.C,D3*%
X192740000Y-85475100D02*
G75*
G02*
X187660000Y-85475100I-2540000J0D01*
G01*
X187660000Y-85475100D02*
G75*
G02*
X192740000Y-85475100I2540000J0D01*
G01*
D17*
%TO.C,J1*%
X38032500Y-104900015D02*
X38032500Y-118699987D01*
X38032500Y-118699987D02*
X57967499Y-118699987D01*
X51262499Y-120477987D02*
X51897499Y-118953987D01*
X51897499Y-118953987D02*
X52532499Y-120477987D01*
X52532499Y-120477987D02*
X51262499Y-120477987D01*
X57967499Y-104900015D02*
X38032500Y-104900015D01*
X57967499Y-106247724D02*
X57967499Y-104900015D01*
X57967499Y-110447723D02*
X57967499Y-108952279D01*
X57967499Y-114647722D02*
X57967499Y-113152278D01*
X57967499Y-118699987D02*
X57967499Y-117352278D01*
D16*
%TO.C,D1*%
X192740000Y-77675100D02*
G75*
G02*
X187660000Y-77675100I-2540000J0D01*
G01*
X187660000Y-77675100D02*
G75*
G02*
X192740000Y-77675100I2540000J0D01*
G01*
%TO.C,R9*%
X66889600Y-94989400D02*
X78370400Y-94989400D01*
X66889600Y-99510600D02*
X66889600Y-94989400D01*
X78370400Y-94989400D02*
X78370400Y-99510600D01*
X78370400Y-99510600D02*
X66889600Y-99510600D01*
D20*
%TO.C,A1*%
X86370000Y-52860000D02*
X86370000Y-70900000D01*
X86370000Y-70900000D02*
X89040000Y-70900000D01*
X89040000Y-55530000D02*
X89040000Y-52860000D01*
X89040000Y-55530000D02*
X127140000Y-55530000D01*
X89040000Y-68230000D02*
X89040000Y-70900000D01*
X91580000Y-68230000D02*
X89040000Y-68230000D01*
X91580000Y-68230000D02*
X91580000Y-70900000D01*
X91580000Y-68230000D02*
X127140000Y-68230000D01*
X91580000Y-70900000D02*
X129810000Y-70900000D01*
X121930000Y-57940000D02*
X132350000Y-57940000D01*
X121930000Y-65820000D02*
X121930000Y-57940000D01*
X127140000Y-55530000D02*
X127140000Y-52860000D01*
X127140000Y-68230000D02*
X127140000Y-70900000D01*
X129810000Y-52860000D02*
X86370000Y-52860000D01*
X129810000Y-52860000D02*
X129810000Y-57940000D01*
X129810000Y-70900000D02*
X129810000Y-65820000D01*
X132350000Y-57940000D02*
X132350000Y-65820000D01*
X132350000Y-65820000D02*
X121930000Y-65820000D01*
D16*
%TO.C,C1*%
X71499900Y-73983900D02*
X71499900Y-74999900D01*
X72000000Y-74500000D02*
X70984000Y-74500000D01*
D13*
X72500100Y-75500000D02*
G75*
G02*
X67499900Y-75500000I-2500100J0D01*
G01*
X67499900Y-75500000D02*
G75*
G02*
X72500100Y-75500000I2500100J0D01*
G01*
D16*
%TO.C,Q3*%
X106899900Y-94380100D02*
X106899900Y-98339900D01*
X106901100Y-98341200D02*
G75*
G02*
X106901100Y-94378800I-1498400J1981200D01*
G01*
%TO.C,C2*%
X87999900Y-73483900D02*
X87999900Y-74499900D01*
X88500000Y-74000000D02*
X87484000Y-74000000D01*
D13*
X89000100Y-75000000D02*
G75*
G02*
X83999900Y-75000000I-2500100J0D01*
G01*
X83999900Y-75000000D02*
G75*
G02*
X89000100Y-75000000I2500100J0D01*
G01*
D16*
%TO.C,Q4*%
X116999900Y-84900100D02*
X116999900Y-88859900D01*
X117001100Y-88861200D02*
G75*
G02*
X117001100Y-84898800I-1498400J1981200D01*
G01*
%TO.C,R11*%
X180439400Y-77759600D02*
X184960600Y-77759600D01*
X180439400Y-89240400D02*
X180439400Y-77759600D01*
X184960600Y-77759600D02*
X184960600Y-89240400D01*
X184960600Y-89240400D02*
X180439400Y-89240400D01*
%TO.C,R8*%
X109504345Y-128739600D02*
X114025545Y-128739600D01*
X109504345Y-140220400D02*
X109504345Y-128739600D01*
X114025545Y-128739600D02*
X114025545Y-140220400D01*
X114025545Y-140220400D02*
X109504345Y-140220400D01*
%TO.C,K1*%
X128600000Y-83000000D02*
X147599900Y-83000000D01*
X128600000Y-99000000D02*
X147599900Y-99000000D01*
X128600100Y-82999000D02*
X128600100Y-99001000D01*
X131099500Y-85998700D02*
X131100000Y-89000000D01*
X131100000Y-96000000D02*
X131100000Y-93000000D01*
X133600000Y-91000000D02*
X130100000Y-93500000D01*
X139100500Y-85998700D02*
X139100500Y-89001000D01*
X139100500Y-89001000D02*
X140098700Y-89001000D01*
X139599900Y-86000000D02*
X140099900Y-86000000D01*
X139599900Y-89000000D02*
X139599900Y-97000000D01*
X139599900Y-97000000D02*
X142099900Y-97000000D01*
X139600800Y-85000500D02*
X139600800Y-85998700D01*
X139600800Y-85998700D02*
X139100500Y-85998700D01*
X140099900Y-86000000D02*
X140099900Y-89000000D01*
X140099900Y-89000000D02*
X139599900Y-89000000D01*
X142099900Y-85000000D02*
X139600800Y-85000500D01*
X144099900Y-91000000D02*
X133600000Y-91000000D01*
X147598900Y-82999500D02*
X147598900Y-99001500D01*
%TO.C,Q7*%
X46999900Y-93520100D02*
X46999900Y-97479900D01*
X47001100Y-97481200D02*
G75*
G02*
X47001100Y-93518800I-1498400J1981200D01*
G01*
%TO.C,K3*%
X128600000Y-111535000D02*
X147599900Y-111535000D01*
X128600000Y-127535000D02*
X147599900Y-127535000D01*
X128600100Y-111534000D02*
X128600100Y-127536000D01*
X131099500Y-114533700D02*
X131100000Y-117535000D01*
X131100000Y-124535000D02*
X131100000Y-121535000D01*
X133600000Y-119535000D02*
X130100000Y-122035000D01*
X139100500Y-114533700D02*
X139100500Y-117536000D01*
X139100500Y-117536000D02*
X140098700Y-117536000D01*
X139599900Y-114535000D02*
X140099900Y-114535000D01*
X139599900Y-117535000D02*
X139599900Y-125535000D01*
X139599900Y-125535000D02*
X142099900Y-125535000D01*
X139600800Y-113535500D02*
X139600800Y-114533700D01*
X139600800Y-114533700D02*
X139100500Y-114533700D01*
X140099900Y-114535000D02*
X140099900Y-117535000D01*
X140099900Y-117535000D02*
X139599900Y-117535000D01*
X142099900Y-113535000D02*
X139600800Y-113535500D01*
X144099900Y-119535000D02*
X133600000Y-119535000D01*
X147598900Y-111534500D02*
X147598900Y-127536500D01*
%TO.C,Q6*%
X120154955Y-140100100D02*
X120154955Y-144059900D01*
X120156155Y-144061200D02*
G75*
G02*
X120156155Y-140098800I-1498400J1981200D01*
G01*
%TO.C,Q2*%
X90499900Y-131020100D02*
X90499900Y-134979900D01*
X90501100Y-134981200D02*
G75*
G02*
X90501100Y-131018800I-1498400J1981200D01*
G01*
%TO.C,U2*%
X166712000Y-62451000D02*
X178092000Y-62451000D01*
X166712000Y-89851000D02*
X166712000Y-62451000D01*
X167372400Y-82866000D02*
X177380000Y-82866000D01*
X167372400Y-83602600D02*
X167372400Y-82866000D01*
X167372400Y-88657200D02*
X167372400Y-83602600D01*
X177380000Y-82866000D02*
X177380000Y-83602600D01*
X177380000Y-83602600D02*
X167372400Y-83602600D01*
X177380000Y-83602600D02*
X177380000Y-88657200D01*
X177380000Y-88657200D02*
X167372400Y-88657200D01*
X177380000Y-88657200D02*
X177380000Y-88784200D01*
X178092000Y-62451000D02*
X178092000Y-89851000D01*
X178092000Y-89851000D02*
X166712000Y-89851000D01*
%TO.C,R6*%
X103339400Y-76439600D02*
X107860600Y-76439600D01*
X103339400Y-87920400D02*
X103339400Y-76439600D01*
X107860600Y-76439600D02*
X107860600Y-87920400D01*
X107860600Y-87920400D02*
X103339400Y-87920400D01*
%TO.C,CR4*%
X155230000Y-141625000D02*
X155230000Y-146705000D01*
X155230000Y-146705000D02*
X155230000Y-147975000D01*
X155230000Y-147975000D02*
X156500000Y-147975000D01*
X156500000Y-141625000D02*
X155230000Y-141625000D01*
X156500000Y-141625000D02*
X156500000Y-140990000D01*
X156500000Y-147975000D02*
X156500000Y-148610000D01*
X156500000Y-147975000D02*
X157770000Y-147975000D01*
X157770000Y-141625000D02*
X156500000Y-141625000D01*
X157770000Y-146705000D02*
X155230000Y-146705000D01*
X157770000Y-146705000D02*
X157770000Y-141625000D01*
X157770000Y-147975000D02*
X157770000Y-146705000D01*
%TO.C,Q8*%
X39499900Y-93520100D02*
X39499900Y-97479900D01*
X39501100Y-97481200D02*
G75*
G02*
X39501100Y-93518800I-1498400J1981200D01*
G01*
%TO.C,R14*%
X181539400Y-141559600D02*
X186060600Y-141559600D01*
X181539400Y-153040400D02*
X181539400Y-141559600D01*
X186060600Y-141559600D02*
X186060600Y-153040400D01*
X186060600Y-153040400D02*
X181539400Y-153040400D01*
%TO.C,K5*%
X47500000Y-54600000D02*
X47500000Y-73599900D01*
X49500000Y-65599900D02*
X49500000Y-68099900D01*
X50500000Y-57100000D02*
X53500000Y-57100000D01*
X55500000Y-59600000D02*
X53000000Y-56100000D01*
X55500000Y-70099900D02*
X55500000Y-59600000D01*
X57499000Y-65100500D02*
X57499000Y-66098700D01*
X57500000Y-65599900D02*
X49500000Y-65599900D01*
X57500000Y-66099900D02*
X57500000Y-65599900D01*
X60500000Y-65599900D02*
X60500000Y-66099900D01*
X60500000Y-66099900D02*
X57500000Y-66099900D01*
X60501300Y-57099500D02*
X57500000Y-57100000D01*
X60501300Y-65100500D02*
X57499000Y-65100500D01*
X60501300Y-65600800D02*
X60501300Y-65100500D01*
X61499500Y-65600800D02*
X60501300Y-65600800D01*
X61500000Y-68099900D02*
X61499500Y-65600800D01*
X63500000Y-54600000D02*
X63500000Y-73599900D01*
X63500500Y-73598900D02*
X47498500Y-73598900D01*
X63501000Y-54600100D02*
X47499000Y-54600100D01*
%TO.C,R1*%
X66759600Y-87339400D02*
X78240400Y-87339400D01*
X66759600Y-91860600D02*
X66759600Y-87339400D01*
X78240400Y-87339400D02*
X78240400Y-91860600D01*
X78240400Y-91860600D02*
X66759600Y-91860600D01*
%TO.C,Q5*%
X107990010Y-121920100D02*
X107990010Y-125879900D01*
X107991210Y-125881200D02*
G75*
G02*
X107991210Y-121918800I-1498400J1981200D01*
G01*
%TO.C,CR5*%
X51825000Y-79230000D02*
X51825000Y-80500000D01*
X51825000Y-80500000D02*
X51190000Y-80500000D01*
X51825000Y-80500000D02*
X51825000Y-81770000D01*
X51825000Y-81770000D02*
X56905000Y-81770000D01*
X56905000Y-79230000D02*
X51825000Y-79230000D01*
X56905000Y-79230000D02*
X56905000Y-81770000D01*
X56905000Y-81770000D02*
X58175000Y-81770000D01*
X58175000Y-79230000D02*
X56905000Y-79230000D01*
X58175000Y-80500000D02*
X58175000Y-79230000D01*
X58175000Y-80500000D02*
X58810000Y-80500000D01*
X58175000Y-81770000D02*
X58175000Y-80500000D01*
%TO.C,R2*%
X66759600Y-82339400D02*
X78240400Y-82339400D01*
X66759600Y-86860600D02*
X66759600Y-82339400D01*
X78240400Y-82339400D02*
X78240400Y-86860600D01*
X78240400Y-86860600D02*
X66759600Y-86860600D01*
%TO.C,K4*%
X134100000Y-136300001D02*
X153099900Y-136300001D01*
X134100000Y-152300001D02*
X153099900Y-152300001D01*
X134100100Y-136299001D02*
X134100100Y-152301001D01*
X136599500Y-139298701D02*
X136600000Y-142300001D01*
X136600000Y-149300001D02*
X136600000Y-146300001D01*
X139100000Y-144300001D02*
X135600000Y-146800001D01*
X144600500Y-139298701D02*
X144600500Y-142301001D01*
X144600500Y-142301001D02*
X145598700Y-142301001D01*
X145099900Y-139300001D02*
X145599900Y-139300001D01*
X145099900Y-142300001D02*
X145099900Y-150300001D01*
X145099900Y-150300001D02*
X147599900Y-150300001D01*
X145100800Y-138300501D02*
X145100800Y-139298701D01*
X145100800Y-139298701D02*
X144600500Y-139298701D01*
X145599900Y-139300001D02*
X145599900Y-142300001D01*
X145599900Y-142300001D02*
X145099900Y-142300001D01*
X147599900Y-138300001D02*
X145100800Y-138300501D01*
X149599900Y-144300001D02*
X139100000Y-144300001D01*
X153098900Y-136299501D02*
X153098900Y-152301501D01*
%TO.C,R12*%
X180339400Y-58459600D02*
X184860600Y-58459600D01*
X180339400Y-69940400D02*
X180339400Y-58459600D01*
X184860600Y-58459600D02*
X184860600Y-69940400D01*
X184860600Y-69940400D02*
X180339400Y-69940400D01*
%TO.C,R10*%
X27339400Y-84559600D02*
X31860600Y-84559600D01*
X27339400Y-96040400D02*
X27339400Y-84559600D01*
X31860600Y-84559600D02*
X31860600Y-96040400D01*
X31860600Y-96040400D02*
X27339400Y-96040400D01*
%TO.C,D2*%
X192740000Y-69575100D02*
G75*
G02*
X187660000Y-69575100I-2540000J0D01*
G01*
X187660000Y-69575100D02*
G75*
G02*
X192740000Y-69575100I2540000J0D01*
G01*
%TO.C,CR2*%
X162630000Y-67225000D02*
X162630000Y-72305000D01*
X162630000Y-72305000D02*
X162630000Y-73575000D01*
X162630000Y-73575000D02*
X163900000Y-73575000D01*
X163900000Y-67225000D02*
X162630000Y-67225000D01*
X163900000Y-67225000D02*
X163900000Y-66590000D01*
X163900000Y-73575000D02*
X163900000Y-74210000D01*
X163900000Y-73575000D02*
X165170000Y-73575000D01*
X165170000Y-67225000D02*
X163900000Y-67225000D01*
X165170000Y-72305000D02*
X162630000Y-72305000D01*
X165170000Y-72305000D02*
X165170000Y-67225000D01*
X165170000Y-73575000D02*
X165170000Y-72305000D01*
%TD*%
M02*
