%TF.GenerationSoftware,KiCad,Pcbnew,8.0.1*%
%TF.CreationDate,2024-04-11T22:24:39-04:00*%
%TF.ProjectId,Headlight Controller,48656164-6c69-4676-9874-20436f6e7472,2.1*%
%TF.SameCoordinates,Original*%
%TF.FileFunction,Soldermask,Top*%
%TF.FilePolarity,Negative*%
%FSLAX46Y46*%
G04 Gerber Fmt 4.6, Leading zero omitted, Abs format (unit mm)*
G04 Created by KiCad (PCBNEW 8.0.1) date 2024-04-11 22:24:39*
%MOMM*%
%LPD*%
G01*
G04 APERTURE LIST*
G04 Aperture macros list*
%AMRoundRect*
0 Rectangle with rounded corners*
0 $1 Rounding radius*
0 $2 $3 $4 $5 $6 $7 $8 $9 X,Y pos of 4 corners*
0 Add a 4 corners polygon primitive as box body*
4,1,4,$2,$3,$4,$5,$6,$7,$8,$9,$2,$3,0*
0 Add four circle primitives for the rounded corners*
1,1,$1+$1,$2,$3*
1,1,$1+$1,$4,$5*
1,1,$1+$1,$6,$7*
1,1,$1+$1,$8,$9*
0 Add four rect primitives between the rounded corners*
20,1,$1+$1,$2,$3,$4,$5,0*
20,1,$1+$1,$4,$5,$6,$7,0*
20,1,$1+$1,$6,$7,$8,$9,0*
20,1,$1+$1,$8,$9,$2,$3,0*%
G04 Aperture macros list end*
%ADD10O,2.082800X2.082800*%
%ADD11C,2.999999*%
%ADD12R,2.300000X2.300000*%
%ADD13C,2.300000*%
%ADD14O,1.981200X1.981200*%
%ADD15O,2.000000X2.000000*%
%ADD16RoundRect,0.102000X-0.850000X-0.850000X0.850000X-0.850000X0.850000X0.850000X-0.850000X0.850000X0*%
%ADD17O,1.904000X1.904000*%
%ADD18C,1.904000*%
%ADD19C,2.006600*%
%ADD20RoundRect,0.050800X-0.965200X-0.965200X0.965200X-0.965200X0.965200X0.965200X-0.965200X0.965200X0*%
%ADD21O,2.032000X2.032000*%
%ADD22C,2.032000*%
%ADD23RoundRect,0.101600X1.190000X-2.142500X1.190000X2.142500X-1.190000X2.142500X-1.190000X-2.142500X0*%
%ADD24RoundRect,0.101600X0.939800X-0.939800X0.939800X0.939800X-0.939800X0.939800X-0.939800X-0.939800X0*%
%ADD25R,1.600000X1.600000*%
%ADD26O,1.600000X1.600000*%
%ADD27O,1.401600X1.401600*%
%ADD28RoundRect,0.101600X-1.190000X2.142500X-1.190000X-2.142500X1.190000X-2.142500X1.190000X2.142500X0*%
%ADD29RoundRect,0.101600X-0.939800X0.939800X-0.939800X-0.939800X0.939800X-0.939800X0.939800X0.939800X0*%
G04 APERTURE END LIST*
D10*
%TO.C,CR1*%
X154400000Y-86120000D03*
X154400000Y-96280000D03*
%TD*%
D11*
%TO.C,J2*%
X173402502Y-108254002D03*
D12*
X166102501Y-106154002D03*
D13*
X166102501Y-110354001D03*
X160602502Y-106154002D03*
X160602502Y-110354001D03*
%TD*%
D14*
%TO.C,R7*%
X98600000Y-108760000D03*
X98600000Y-124000000D03*
%TD*%
D15*
%TO.C,D4*%
X191445100Y-94000000D03*
X188905100Y-94000000D03*
%TD*%
D10*
%TO.C,CR3*%
X155200000Y-112320000D03*
X155200000Y-122480000D03*
%TD*%
D16*
%TO.C,Q1*%
X85500000Y-87000000D03*
D17*
X85500000Y-84460000D03*
D18*
X85500000Y-81920000D03*
%TD*%
D19*
%TO.C,K2*%
X158199900Y-69700000D03*
X156199900Y-75700000D03*
X144000000Y-75700000D03*
X144000000Y-63700000D03*
X156199900Y-63700000D03*
%TD*%
D14*
%TO.C,R4*%
X79800000Y-140600000D03*
X79800000Y-125360000D03*
%TD*%
%TO.C,R5*%
X95609890Y-80940000D03*
X95609890Y-96180000D03*
%TD*%
D20*
%TO.C,U1*%
X75777500Y-72674100D03*
D21*
X78063500Y-72674100D03*
D22*
X80349500Y-72674100D03*
%TD*%
D23*
%TO.C,U3*%
X175113000Y-126432000D03*
X170134600Y-126432000D03*
D10*
X175113000Y-148657000D03*
X172573000Y-148657000D03*
D24*
X170033000Y-148657000D03*
%TD*%
D14*
%TO.C,R3*%
X71000000Y-125380000D03*
X71000000Y-140620000D03*
%TD*%
%TO.C,R13*%
X183900000Y-134320000D03*
X183900000Y-119080000D03*
%TD*%
D15*
%TO.C,D3*%
X191445100Y-85500000D03*
X188905100Y-85500000D03*
%TD*%
D11*
%TO.C,J1*%
X44597498Y-107600017D03*
X44597498Y-116000000D03*
D12*
X51897499Y-116000000D03*
D13*
X51897499Y-111800001D03*
X51897499Y-107600002D03*
X57397498Y-116000000D03*
X57397498Y-111800001D03*
X57397498Y-107600002D03*
%TD*%
D15*
%TO.C,D1*%
X191445100Y-77700000D03*
X188905100Y-77700000D03*
%TD*%
D14*
%TO.C,R9*%
X65010000Y-97250000D03*
X80250000Y-97250000D03*
%TD*%
D25*
%TO.C,A1*%
X90310000Y-69500000D03*
D26*
X92850000Y-69500000D03*
X95390000Y-69500000D03*
X97930000Y-69500000D03*
X100470000Y-69500000D03*
X103010000Y-69500000D03*
X105550000Y-69500000D03*
X108090000Y-69500000D03*
X110630000Y-69500000D03*
X113170000Y-69500000D03*
X115710000Y-69500000D03*
X118250000Y-69500000D03*
X120790000Y-69500000D03*
X123330000Y-69500000D03*
X125870000Y-69500000D03*
X125870000Y-54260000D03*
X123330000Y-54260000D03*
X120790000Y-54260000D03*
X118250000Y-54260000D03*
X115710000Y-54260000D03*
X113170000Y-54260000D03*
X110630000Y-54260000D03*
X108090000Y-54260000D03*
X105550000Y-54260000D03*
X103010000Y-54260000D03*
X100470000Y-54260000D03*
X97930000Y-54260000D03*
X95390000Y-54260000D03*
X92850000Y-54260000D03*
X90310000Y-54260000D03*
%TD*%
D27*
%TO.C,C1*%
X70000000Y-74500000D03*
X70000000Y-76500000D03*
%TD*%
D16*
%TO.C,Q3*%
X105400000Y-98900000D03*
D17*
X105400000Y-96360000D03*
D18*
X105400000Y-93820000D03*
%TD*%
D27*
%TO.C,C2*%
X86500000Y-74000000D03*
X86500000Y-76000000D03*
%TD*%
D16*
%TO.C,Q4*%
X115500000Y-89420000D03*
D17*
X115500000Y-86880000D03*
D18*
X115500000Y-84340000D03*
%TD*%
D14*
%TO.C,R11*%
X182700000Y-91120000D03*
X182700000Y-75880000D03*
%TD*%
%TO.C,R8*%
X111764945Y-126860000D03*
X111764945Y-142100000D03*
%TD*%
D19*
%TO.C,K1*%
X145100100Y-91000000D03*
X143100100Y-97000000D03*
X130900200Y-97000000D03*
X130900200Y-85000000D03*
X143100100Y-85000000D03*
%TD*%
D16*
%TO.C,Q7*%
X45500000Y-98040000D03*
D17*
X45500000Y-95500000D03*
D18*
X45500000Y-92960000D03*
%TD*%
D19*
%TO.C,K3*%
X145100100Y-119535000D03*
X143100100Y-125535000D03*
X130900200Y-125535000D03*
X130900200Y-113535000D03*
X143100100Y-113535000D03*
%TD*%
D16*
%TO.C,Q6*%
X118655055Y-144620000D03*
D17*
X118655055Y-142080000D03*
D18*
X118655055Y-139540000D03*
%TD*%
D16*
%TO.C,Q2*%
X89000000Y-135540000D03*
D17*
X89000000Y-133000000D03*
D18*
X89000000Y-130460000D03*
%TD*%
D28*
%TO.C,U2*%
X169887000Y-86168000D03*
X174865400Y-86168000D03*
D10*
X169887000Y-63943000D03*
X172427000Y-63943000D03*
D29*
X174967000Y-63943000D03*
%TD*%
D14*
%TO.C,R6*%
X105600000Y-74560000D03*
X105600000Y-89800000D03*
%TD*%
D10*
%TO.C,CR4*%
X156500000Y-139720000D03*
X156500000Y-149880000D03*
%TD*%
D16*
%TO.C,Q8*%
X38000000Y-98040000D03*
D17*
X38000000Y-95500000D03*
D18*
X38000000Y-92960000D03*
%TD*%
D14*
%TO.C,R14*%
X183800000Y-154920000D03*
X183800000Y-139680000D03*
%TD*%
D19*
%TO.C,K5*%
X55500000Y-71100100D03*
X49500000Y-69100100D03*
X49500000Y-56900200D03*
X61500000Y-56900200D03*
X61500000Y-69100100D03*
%TD*%
D14*
%TO.C,R1*%
X64880000Y-89600000D03*
X80120000Y-89600000D03*
%TD*%
D16*
%TO.C,Q5*%
X106490110Y-126440000D03*
D17*
X106490110Y-123900000D03*
D18*
X106490110Y-121360000D03*
%TD*%
D10*
%TO.C,CR5*%
X49920000Y-80500000D03*
X60080000Y-80500000D03*
%TD*%
D14*
%TO.C,R2*%
X80120000Y-84600000D03*
X64880000Y-84600000D03*
%TD*%
D19*
%TO.C,K4*%
X150600100Y-144300001D03*
X148600100Y-150300001D03*
X136400200Y-150300001D03*
X136400200Y-138300001D03*
X148600100Y-138300001D03*
%TD*%
D14*
%TO.C,R12*%
X182600000Y-56580000D03*
X182600000Y-71820000D03*
%TD*%
%TO.C,R10*%
X29600000Y-82680000D03*
X29600000Y-97920000D03*
%TD*%
D15*
%TO.C,D2*%
X191445100Y-69600000D03*
X188905100Y-69600000D03*
%TD*%
D10*
%TO.C,CR2*%
X163900000Y-65320000D03*
X163900000Y-75480000D03*
%TD*%
M02*
