%TF.GenerationSoftware,KiCad,Pcbnew,8.0.1*%
%TF.CreationDate,2024-04-11T22:24:42-04:00*%
%TF.ProjectId,Headlight Controller,48656164-6c69-4676-9874-20436f6e7472,2.1*%
%TF.SameCoordinates,Original*%
%TF.FileFunction,Drillmap*%
%TF.FilePolarity,Positive*%
%FSLAX45Y45*%
G04 Gerber Fmt 4.5, Leading zero omitted, Abs format (unit mm)*
G04 Created by KiCad (PCBNEW 8.0.1) date 2024-04-11 22:24:42*
%MOMM*%
%LPD*%
G01*
G04 APERTURE LIST*
%ADD10C,0.050000*%
%ADD11C,0.200000*%
%ADD12C,0.100000*%
%ADD13C,0.100080*%
%ADD14C,0.101600*%
%ADD15C,0.110240*%
%ADD16C,0.119880*%
%ADD17C,0.120000*%
%ADD18C,0.139700*%
%ADD19C,0.140200*%
%ADD20C,0.180000*%
G04 APERTURE END LIST*
D10*
X19200000Y-15000000D02*
G75*
G02*
X18800000Y-15000000I-200000J0D01*
G01*
X18800000Y-15000000D02*
G75*
G02*
X19200000Y-15000000I200000J0D01*
G01*
X3200000Y-6000000D02*
G75*
G02*
X2800000Y-6000000I-200000J0D01*
G01*
X2800000Y-6000000D02*
G75*
G02*
X3200000Y-6000000I200000J0D01*
G01*
X19200000Y-6000000D02*
G75*
G02*
X18800000Y-6000000I-200000J0D01*
G01*
X18800000Y-6000000D02*
G75*
G02*
X19200000Y-6000000I200000J0D01*
G01*
X3200000Y-15000000D02*
G75*
G02*
X2800000Y-15000000I-200000J0D01*
G01*
X2800000Y-15000000D02*
G75*
G02*
X3200000Y-15000000I200000J0D01*
G01*
X19500000Y-5000000D02*
X19500000Y-16000000D01*
X19500000Y-16000000D02*
X2500000Y-16000000D01*
X2500000Y-16000000D02*
X2500000Y-5000000D01*
X2500000Y-5000000D02*
X19500000Y-5000000D01*
D11*
D12*
X4810000Y-10610000D02*
X4840000Y-10640000D01*
X4840000Y-10610000D02*
X4810000Y-10640000D01*
X5685000Y-9735000D02*
X5715000Y-9765000D01*
X5715000Y-9735000D02*
X5685000Y-9765000D01*
X9455000Y-6615000D02*
X9485000Y-6645000D01*
X9485000Y-6615000D02*
X9455000Y-6645000D01*
X10455000Y-6615000D02*
X10485000Y-6645000D01*
X10485000Y-6615000D02*
X10455000Y-6645000D01*
X11435000Y-9365000D02*
X11465000Y-9395000D01*
X11465000Y-9365000D02*
X11435000Y-9395000D01*
X12745000Y-8025000D02*
X12775000Y-8055000D01*
X12775000Y-8025000D02*
X12745000Y-8055000D01*
X14775000Y-7175000D02*
X14805000Y-7205000D01*
X14805000Y-7175000D02*
X14775000Y-7205000D01*
X16535000Y-13955000D02*
X16565000Y-13985000D01*
X16565000Y-13955000D02*
X16535000Y-13985000D01*
X17445000Y-7855000D02*
X17475000Y-7885000D01*
X17475000Y-7855000D02*
X17445000Y-7885000D01*
X17445000Y-11885000D02*
X17475000Y-11915000D01*
X17475000Y-11885000D02*
X17445000Y-11915000D01*
X17685000Y-13953000D02*
X17715000Y-13983000D01*
X17715000Y-13953000D02*
X17685000Y-13983000D01*
X7040000Y-7450000D02*
G75*
G02*
X6960000Y-7450000I-40000J0D01*
G01*
X6960000Y-7450000D02*
G75*
G02*
X7040000Y-7450000I40000J0D01*
G01*
X7040000Y-7650000D02*
G75*
G02*
X6960000Y-7650000I-40000J0D01*
G01*
X6960000Y-7650000D02*
G75*
G02*
X7040000Y-7650000I40000J0D01*
G01*
X8690000Y-7400000D02*
G75*
G02*
X8610000Y-7400000I-40000J0D01*
G01*
X8610000Y-7400000D02*
G75*
G02*
X8690000Y-7400000I40000J0D01*
G01*
X8690000Y-7600000D02*
G75*
G02*
X8610000Y-7600000I-40000J0D01*
G01*
X8610000Y-7600000D02*
G75*
G02*
X8690000Y-7600000I40000J0D01*
G01*
X18930510Y-6960000D02*
G75*
G02*
X18850510Y-6960000I-40000J0D01*
G01*
X18850510Y-6960000D02*
G75*
G02*
X18930510Y-6960000I40000J0D01*
G01*
X18930510Y-7770000D02*
G75*
G02*
X18850510Y-7770000I-40000J0D01*
G01*
X18850510Y-7770000D02*
G75*
G02*
X18930510Y-7770000I40000J0D01*
G01*
X18930510Y-8550000D02*
G75*
G02*
X18850510Y-8550000I-40000J0D01*
G01*
X18850510Y-8550000D02*
G75*
G02*
X18930510Y-8550000I40000J0D01*
G01*
X18930510Y-9400000D02*
G75*
G02*
X18850510Y-9400000I-40000J0D01*
G01*
X18850510Y-9400000D02*
G75*
G02*
X18930510Y-9400000I40000J0D01*
G01*
X19184510Y-6960000D02*
G75*
G02*
X19104510Y-6960000I-40000J0D01*
G01*
X19104510Y-6960000D02*
G75*
G02*
X19184510Y-6960000I40000J0D01*
G01*
X19184510Y-7770000D02*
G75*
G02*
X19104510Y-7770000I-40000J0D01*
G01*
X19104510Y-7770000D02*
G75*
G02*
X19184510Y-7770000I40000J0D01*
G01*
X19184510Y-8550000D02*
G75*
G02*
X19104510Y-8550000I-40000J0D01*
G01*
X19104510Y-8550000D02*
G75*
G02*
X19184510Y-8550000I40000J0D01*
G01*
X19184510Y-9400000D02*
G75*
G02*
X19104510Y-9400000I-40000J0D01*
G01*
X19104510Y-9400000D02*
G75*
G02*
X19184510Y-9400000I40000J0D01*
G01*
X9031000Y-5376000D02*
X9031000Y-5476000D01*
X8981000Y-5426000D02*
X9081000Y-5426000D01*
X9031000Y-6900000D02*
X9031000Y-7000000D01*
X8981000Y-6950000D02*
X9081000Y-6950000D01*
X9285000Y-5376000D02*
X9285000Y-5476000D01*
X9235000Y-5426000D02*
X9335000Y-5426000D01*
X9285000Y-6900000D02*
X9285000Y-7000000D01*
X9235000Y-6950000D02*
X9335000Y-6950000D01*
X9539000Y-5376000D02*
X9539000Y-5476000D01*
X9489000Y-5426000D02*
X9589000Y-5426000D01*
X9539000Y-6900000D02*
X9539000Y-7000000D01*
X9489000Y-6950000D02*
X9589000Y-6950000D01*
X9793000Y-5376000D02*
X9793000Y-5476000D01*
X9743000Y-5426000D02*
X9843000Y-5426000D01*
X9793000Y-6900000D02*
X9793000Y-7000000D01*
X9743000Y-6950000D02*
X9843000Y-6950000D01*
X10047000Y-5376000D02*
X10047000Y-5476000D01*
X9997000Y-5426000D02*
X10097000Y-5426000D01*
X10047000Y-6900000D02*
X10047000Y-7000000D01*
X9997000Y-6950000D02*
X10097000Y-6950000D01*
X10301000Y-5376000D02*
X10301000Y-5476000D01*
X10251000Y-5426000D02*
X10351000Y-5426000D01*
X10301000Y-6900000D02*
X10301000Y-7000000D01*
X10251000Y-6950000D02*
X10351000Y-6950000D01*
X10555000Y-5376000D02*
X10555000Y-5476000D01*
X10505000Y-5426000D02*
X10605000Y-5426000D01*
X10555000Y-6900000D02*
X10555000Y-7000000D01*
X10505000Y-6950000D02*
X10605000Y-6950000D01*
X10809000Y-5376000D02*
X10809000Y-5476000D01*
X10759000Y-5426000D02*
X10859000Y-5426000D01*
X10809000Y-6900000D02*
X10809000Y-7000000D01*
X10759000Y-6950000D02*
X10859000Y-6950000D01*
X11063000Y-5376000D02*
X11063000Y-5476000D01*
X11013000Y-5426000D02*
X11113000Y-5426000D01*
X11063000Y-6900000D02*
X11063000Y-7000000D01*
X11013000Y-6950000D02*
X11113000Y-6950000D01*
X11317000Y-5376000D02*
X11317000Y-5476000D01*
X11267000Y-5426000D02*
X11367000Y-5426000D01*
X11317000Y-6900000D02*
X11317000Y-7000000D01*
X11267000Y-6950000D02*
X11367000Y-6950000D01*
X11571000Y-5376000D02*
X11571000Y-5476000D01*
X11521000Y-5426000D02*
X11621000Y-5426000D01*
X11571000Y-6900000D02*
X11571000Y-7000000D01*
X11521000Y-6950000D02*
X11621000Y-6950000D01*
X11825000Y-5376000D02*
X11825000Y-5476000D01*
X11775000Y-5426000D02*
X11875000Y-5426000D01*
X11825000Y-6900000D02*
X11825000Y-7000000D01*
X11775000Y-6950000D02*
X11875000Y-6950000D01*
X12079000Y-5376000D02*
X12079000Y-5476000D01*
X12029000Y-5426000D02*
X12129000Y-5426000D01*
X12079000Y-6900000D02*
X12079000Y-7000000D01*
X12029000Y-6950000D02*
X12129000Y-6950000D01*
X12333000Y-5376000D02*
X12333000Y-5476000D01*
X12283000Y-5426000D02*
X12383000Y-5426000D01*
X12333000Y-6900000D02*
X12333000Y-7000000D01*
X12283000Y-6950000D02*
X12383000Y-6950000D01*
X12587000Y-5376000D02*
X12587000Y-5476000D01*
X12537000Y-5426000D02*
X12637000Y-5426000D01*
X12587000Y-6900000D02*
X12587000Y-7000000D01*
X12537000Y-6950000D02*
X12637000Y-6950000D01*
D13*
X5027384Y-8085384D02*
X5027384Y-8014616D01*
X4956616Y-8014616D01*
X4956616Y-8085384D01*
X5027384Y-8085384D01*
X6043384Y-8085384D02*
X6043384Y-8014616D01*
X5972616Y-8014616D01*
X5972616Y-8085384D01*
X6043384Y-8085384D01*
X15475384Y-8647384D02*
X15475384Y-8576616D01*
X15404616Y-8576616D01*
X15404616Y-8647384D01*
X15475384Y-8647384D01*
X15475384Y-9663384D02*
X15475384Y-9592616D01*
X15404616Y-9592616D01*
X15404616Y-9663384D01*
X15475384Y-9663384D01*
X15555384Y-11267384D02*
X15555384Y-11196616D01*
X15484616Y-11196616D01*
X15484616Y-11267384D01*
X15555384Y-11267384D01*
X15555384Y-12283384D02*
X15555384Y-12212616D01*
X15484616Y-12212616D01*
X15484616Y-12283384D01*
X15555384Y-12283384D01*
X15685384Y-14007384D02*
X15685384Y-13936616D01*
X15614616Y-13936616D01*
X15614616Y-14007384D01*
X15685384Y-14007384D01*
X15685384Y-15023384D02*
X15685384Y-14952616D01*
X15614616Y-14952616D01*
X15614616Y-15023384D01*
X15685384Y-15023384D01*
X16425384Y-6567384D02*
X16425384Y-6496616D01*
X16354616Y-6496616D01*
X16354616Y-6567384D01*
X16425384Y-6567384D01*
X16425384Y-7583384D02*
X16425384Y-7512616D01*
X16354616Y-7512616D01*
X16354616Y-7583384D01*
X16425384Y-7583384D01*
D14*
X16988700Y-6445100D02*
X17039500Y-6394300D01*
X16988700Y-6343500D01*
X16937900Y-6394300D01*
X16988700Y-6445100D01*
X17003300Y-14916500D02*
X17054100Y-14865700D01*
X17003300Y-14814900D01*
X16952500Y-14865700D01*
X17003300Y-14916500D01*
X17242700Y-6445100D02*
X17293500Y-6394300D01*
X17242700Y-6343500D01*
X17191900Y-6394300D01*
X17242700Y-6445100D01*
X17257300Y-14916500D02*
X17308100Y-14865700D01*
X17257300Y-14814900D01*
X17206500Y-14865700D01*
X17257300Y-14916500D01*
X17496700Y-6445100D02*
X17547500Y-6394300D01*
X17496700Y-6343500D01*
X17445900Y-6394300D01*
X17496700Y-6445100D01*
X17511300Y-14916500D02*
X17562100Y-14865700D01*
X17511300Y-14814900D01*
X17460500Y-14865700D01*
X17511300Y-14916500D01*
D15*
X7522630Y-7212290D02*
X7632870Y-7322530D01*
X7632870Y-7212290D02*
X7522630Y-7322530D01*
X7632870Y-7267410D02*
G75*
G02*
X7522630Y-7267410I-55120J0D01*
G01*
X7522630Y-7267410D02*
G75*
G02*
X7632870Y-7267410I55120J0D01*
G01*
X7751230Y-7212290D02*
X7861470Y-7322530D01*
X7861470Y-7212290D02*
X7751230Y-7322530D01*
X7861470Y-7267410D02*
G75*
G02*
X7751230Y-7267410I-55120J0D01*
G01*
X7751230Y-7267410D02*
G75*
G02*
X7861470Y-7267410I55120J0D01*
G01*
X7979830Y-7212290D02*
X8090070Y-7322530D01*
X8090070Y-7212290D02*
X7979830Y-7322530D01*
X8090070Y-7267410D02*
G75*
G02*
X7979830Y-7267410I-55120J0D01*
G01*
X7979830Y-7267410D02*
G75*
G02*
X8090070Y-7267410I55120J0D01*
G01*
D16*
X2900060Y-8208060D02*
X3019940Y-8327940D01*
X3019940Y-8208060D02*
X2900060Y-8327940D01*
X2960000Y-8208060D02*
X2960000Y-8327940D01*
X2900060Y-8268000D02*
X3019940Y-8268000D01*
X2900060Y-9732060D02*
X3019940Y-9851940D01*
X3019940Y-9732060D02*
X2900060Y-9851940D01*
X2960000Y-9732060D02*
X2960000Y-9851940D01*
X2900060Y-9792000D02*
X3019940Y-9792000D01*
X6428060Y-8400060D02*
X6547940Y-8519940D01*
X6547940Y-8400060D02*
X6428060Y-8519940D01*
X6488000Y-8400060D02*
X6488000Y-8519940D01*
X6428060Y-8460000D02*
X6547940Y-8460000D01*
X6428060Y-8900060D02*
X6547940Y-9019940D01*
X6547940Y-8900060D02*
X6428060Y-9019940D01*
X6488000Y-8900060D02*
X6488000Y-9019940D01*
X6428060Y-8960000D02*
X6547940Y-8960000D01*
X6441060Y-9665060D02*
X6560940Y-9784940D01*
X6560940Y-9665060D02*
X6441060Y-9784940D01*
X6501000Y-9665060D02*
X6501000Y-9784940D01*
X6441060Y-9725000D02*
X6560940Y-9725000D01*
X7040060Y-12478060D02*
X7159940Y-12597940D01*
X7159940Y-12478060D02*
X7040060Y-12597940D01*
X7100000Y-12478060D02*
X7100000Y-12597940D01*
X7040060Y-12538000D02*
X7159940Y-12538000D01*
X7040060Y-14002060D02*
X7159940Y-14121940D01*
X7159940Y-14002060D02*
X7040060Y-14121940D01*
X7100000Y-14002060D02*
X7100000Y-14121940D01*
X7040060Y-14062000D02*
X7159940Y-14062000D01*
X7920060Y-12476060D02*
X8039940Y-12595940D01*
X8039940Y-12476060D02*
X7920060Y-12595940D01*
X7980000Y-12476060D02*
X7980000Y-12595940D01*
X7920060Y-12536000D02*
X8039940Y-12536000D01*
X7920060Y-14000060D02*
X8039940Y-14119940D01*
X8039940Y-14000060D02*
X7920060Y-14119940D01*
X7980000Y-14000060D02*
X7980000Y-14119940D01*
X7920060Y-14060000D02*
X8039940Y-14060000D01*
X7952060Y-8400060D02*
X8071940Y-8519940D01*
X8071940Y-8400060D02*
X7952060Y-8519940D01*
X8012000Y-8400060D02*
X8012000Y-8519940D01*
X7952060Y-8460000D02*
X8071940Y-8460000D01*
X7952060Y-8900060D02*
X8071940Y-9019940D01*
X8071940Y-8900060D02*
X7952060Y-9019940D01*
X8012000Y-8900060D02*
X8012000Y-9019940D01*
X7952060Y-8960000D02*
X8071940Y-8960000D01*
X7965060Y-9665060D02*
X8084940Y-9784940D01*
X8084940Y-9665060D02*
X7965060Y-9784940D01*
X8025000Y-9665060D02*
X8025000Y-9784940D01*
X7965060Y-9725000D02*
X8084940Y-9725000D01*
X9501049Y-8034060D02*
X9620929Y-8153940D01*
X9620929Y-8034060D02*
X9501049Y-8153940D01*
X9560989Y-8034060D02*
X9560989Y-8153940D01*
X9501049Y-8094000D02*
X9620929Y-8094000D01*
X9501049Y-9558060D02*
X9620929Y-9677940D01*
X9620929Y-9558060D02*
X9501049Y-9677940D01*
X9560989Y-9558060D02*
X9560989Y-9677940D01*
X9501049Y-9618000D02*
X9620929Y-9618000D01*
X9800060Y-10816060D02*
X9919940Y-10935940D01*
X9919940Y-10816060D02*
X9800060Y-10935940D01*
X9860000Y-10816060D02*
X9860000Y-10935940D01*
X9800060Y-10876000D02*
X9919940Y-10876000D01*
X9800060Y-12340060D02*
X9919940Y-12459940D01*
X9919940Y-12340060D02*
X9800060Y-12459940D01*
X9860000Y-12340060D02*
X9860000Y-12459940D01*
X9800060Y-12400000D02*
X9919940Y-12400000D01*
X10500060Y-7396060D02*
X10619940Y-7515940D01*
X10619940Y-7396060D02*
X10500060Y-7515940D01*
X10560000Y-7396060D02*
X10560000Y-7515940D01*
X10500060Y-7456000D02*
X10619940Y-7456000D01*
X10500060Y-8920060D02*
X10619940Y-9039940D01*
X10619940Y-8920060D02*
X10500060Y-9039940D01*
X10560000Y-8920060D02*
X10560000Y-9039940D01*
X10500060Y-8980000D02*
X10619940Y-8980000D01*
X11116555Y-12626060D02*
X11236434Y-12745940D01*
X11236434Y-12626060D02*
X11116555Y-12745940D01*
X11176495Y-12626060D02*
X11176495Y-12745940D01*
X11116555Y-12686000D02*
X11236434Y-12686000D01*
X11116555Y-14150060D02*
X11236434Y-14269940D01*
X11236434Y-14150060D02*
X11116555Y-14269940D01*
X11176495Y-14150060D02*
X11176495Y-14269940D01*
X11116555Y-14210000D02*
X11236434Y-14210000D01*
X18200060Y-5598060D02*
X18319940Y-5717940D01*
X18319940Y-5598060D02*
X18200060Y-5717940D01*
X18260000Y-5598060D02*
X18260000Y-5717940D01*
X18200060Y-5658000D02*
X18319940Y-5658000D01*
X18200060Y-7122060D02*
X18319940Y-7241940D01*
X18319940Y-7122060D02*
X18200060Y-7241940D01*
X18260000Y-7122060D02*
X18260000Y-7241940D01*
X18200060Y-7182000D02*
X18319940Y-7182000D01*
X18210060Y-7528060D02*
X18329940Y-7647940D01*
X18329940Y-7528060D02*
X18210060Y-7647940D01*
X18270000Y-7528060D02*
X18270000Y-7647940D01*
X18210060Y-7588000D02*
X18329940Y-7588000D01*
X18210060Y-9052060D02*
X18329940Y-9171940D01*
X18329940Y-9052060D02*
X18210060Y-9171940D01*
X18270000Y-9052060D02*
X18270000Y-9171940D01*
X18210060Y-9112000D02*
X18329940Y-9112000D01*
X18320060Y-13908060D02*
X18439940Y-14027940D01*
X18439940Y-13908060D02*
X18320060Y-14027940D01*
X18380000Y-13908060D02*
X18380000Y-14027940D01*
X18320060Y-13968000D02*
X18439940Y-13968000D01*
X18320060Y-15432060D02*
X18439940Y-15551940D01*
X18439940Y-15432060D02*
X18320060Y-15551940D01*
X18380000Y-15432060D02*
X18380000Y-15551940D01*
X18320060Y-15492000D02*
X18439940Y-15492000D01*
X18330060Y-11848060D02*
X18449940Y-11967940D01*
X18449940Y-11848060D02*
X18330060Y-11967940D01*
X18390000Y-11848060D02*
X18390000Y-11967940D01*
X18330060Y-11908000D02*
X18449940Y-11908000D01*
X18330060Y-13372060D02*
X18449940Y-13491940D01*
X18449940Y-13372060D02*
X18330060Y-13491940D01*
X18390000Y-13372060D02*
X18390000Y-13491940D01*
X18330060Y-13432000D02*
X18449940Y-13432000D01*
D17*
X3740000Y-9236000D02*
X3860000Y-9356000D01*
X3860000Y-9236000D02*
X3740000Y-9356000D01*
X3842427Y-9338427D02*
X3842427Y-9253573D01*
X3757573Y-9253573D01*
X3757573Y-9338427D01*
X3842427Y-9338427D01*
X3740000Y-9490000D02*
X3860000Y-9610000D01*
X3860000Y-9490000D02*
X3740000Y-9610000D01*
X3842427Y-9592427D02*
X3842427Y-9507573D01*
X3757573Y-9507573D01*
X3757573Y-9592427D01*
X3842427Y-9592427D01*
X3740000Y-9744000D02*
X3860000Y-9864000D01*
X3860000Y-9744000D02*
X3740000Y-9864000D01*
X3842427Y-9846427D02*
X3842427Y-9761573D01*
X3757573Y-9761573D01*
X3757573Y-9846427D01*
X3842427Y-9846427D01*
X4490000Y-9236000D02*
X4610000Y-9356000D01*
X4610000Y-9236000D02*
X4490000Y-9356000D01*
X4592427Y-9338427D02*
X4592427Y-9253573D01*
X4507573Y-9253573D01*
X4507573Y-9338427D01*
X4592427Y-9338427D01*
X4490000Y-9490000D02*
X4610000Y-9610000D01*
X4610000Y-9490000D02*
X4490000Y-9610000D01*
X4592427Y-9592427D02*
X4592427Y-9507573D01*
X4507573Y-9507573D01*
X4507573Y-9592427D01*
X4592427Y-9592427D01*
X4490000Y-9744000D02*
X4610000Y-9864000D01*
X4610000Y-9744000D02*
X4490000Y-9864000D01*
X4592427Y-9846427D02*
X4592427Y-9761573D01*
X4507573Y-9761573D01*
X4507573Y-9846427D01*
X4592427Y-9846427D01*
X8490000Y-8132000D02*
X8610000Y-8252000D01*
X8610000Y-8132000D02*
X8490000Y-8252000D01*
X8592427Y-8234427D02*
X8592427Y-8149573D01*
X8507573Y-8149573D01*
X8507573Y-8234427D01*
X8592427Y-8234427D01*
X8490000Y-8386000D02*
X8610000Y-8506000D01*
X8610000Y-8386000D02*
X8490000Y-8506000D01*
X8592427Y-8488427D02*
X8592427Y-8403573D01*
X8507573Y-8403573D01*
X8507573Y-8488427D01*
X8592427Y-8488427D01*
X8490000Y-8640000D02*
X8610000Y-8760000D01*
X8610000Y-8640000D02*
X8490000Y-8760000D01*
X8592427Y-8742427D02*
X8592427Y-8657573D01*
X8507573Y-8657573D01*
X8507573Y-8742427D01*
X8592427Y-8742427D01*
X8840000Y-12986000D02*
X8960000Y-13106000D01*
X8960000Y-12986000D02*
X8840000Y-13106000D01*
X8942427Y-13088427D02*
X8942427Y-13003573D01*
X8857573Y-13003573D01*
X8857573Y-13088427D01*
X8942427Y-13088427D01*
X8840000Y-13240000D02*
X8960000Y-13360000D01*
X8960000Y-13240000D02*
X8840000Y-13360000D01*
X8942427Y-13342427D02*
X8942427Y-13257573D01*
X8857573Y-13257573D01*
X8857573Y-13342427D01*
X8942427Y-13342427D01*
X8840000Y-13494000D02*
X8960000Y-13614000D01*
X8960000Y-13494000D02*
X8840000Y-13614000D01*
X8942427Y-13596427D02*
X8942427Y-13511573D01*
X8857573Y-13511573D01*
X8857573Y-13596427D01*
X8942427Y-13596427D01*
X10480000Y-9322000D02*
X10600000Y-9442000D01*
X10600000Y-9322000D02*
X10480000Y-9442000D01*
X10582427Y-9424427D02*
X10582427Y-9339573D01*
X10497573Y-9339573D01*
X10497573Y-9424427D01*
X10582427Y-9424427D01*
X10480000Y-9576000D02*
X10600000Y-9696000D01*
X10600000Y-9576000D02*
X10480000Y-9696000D01*
X10582427Y-9678427D02*
X10582427Y-9593573D01*
X10497573Y-9593573D01*
X10497573Y-9678427D01*
X10582427Y-9678427D01*
X10480000Y-9830000D02*
X10600000Y-9950000D01*
X10600000Y-9830000D02*
X10480000Y-9950000D01*
X10582427Y-9932427D02*
X10582427Y-9847573D01*
X10497573Y-9847573D01*
X10497573Y-9932427D01*
X10582427Y-9932427D01*
X10589011Y-12076000D02*
X10709011Y-12196000D01*
X10709011Y-12076000D02*
X10589011Y-12196000D01*
X10691438Y-12178427D02*
X10691438Y-12093573D01*
X10606584Y-12093573D01*
X10606584Y-12178427D01*
X10691438Y-12178427D01*
X10589011Y-12330000D02*
X10709011Y-12450000D01*
X10709011Y-12330000D02*
X10589011Y-12450000D01*
X10691438Y-12432427D02*
X10691438Y-12347573D01*
X10606584Y-12347573D01*
X10606584Y-12432427D01*
X10691438Y-12432427D01*
X10589011Y-12584000D02*
X10709011Y-12704000D01*
X10709011Y-12584000D02*
X10589011Y-12704000D01*
X10691438Y-12686427D02*
X10691438Y-12601573D01*
X10606584Y-12601573D01*
X10606584Y-12686427D01*
X10691438Y-12686427D01*
X11490000Y-8374000D02*
X11610000Y-8494000D01*
X11610000Y-8374000D02*
X11490000Y-8494000D01*
X11592427Y-8476427D02*
X11592427Y-8391573D01*
X11507573Y-8391573D01*
X11507573Y-8476427D01*
X11592427Y-8476427D01*
X11490000Y-8628000D02*
X11610000Y-8748000D01*
X11610000Y-8628000D02*
X11490000Y-8748000D01*
X11592427Y-8730427D02*
X11592427Y-8645573D01*
X11507573Y-8645573D01*
X11507573Y-8730427D01*
X11592427Y-8730427D01*
X11490000Y-8882000D02*
X11610000Y-9002000D01*
X11610000Y-8882000D02*
X11490000Y-9002000D01*
X11592427Y-8984427D02*
X11592427Y-8899573D01*
X11507573Y-8899573D01*
X11507573Y-8984427D01*
X11592427Y-8984427D01*
X11805505Y-13894000D02*
X11925505Y-14014000D01*
X11925505Y-13894000D02*
X11805505Y-14014000D01*
X11907932Y-13996427D02*
X11907932Y-13911573D01*
X11823079Y-13911573D01*
X11823079Y-13996427D01*
X11907932Y-13996427D01*
X11805505Y-14148000D02*
X11925505Y-14268000D01*
X11925505Y-14148000D02*
X11805505Y-14268000D01*
X11907932Y-14250427D02*
X11907932Y-14165573D01*
X11823079Y-14165573D01*
X11823079Y-14250427D01*
X11907932Y-14250427D01*
X11805505Y-14402000D02*
X11925505Y-14522000D01*
X11925505Y-14402000D02*
X11805505Y-14522000D01*
X11907932Y-14504427D02*
X11907932Y-14419573D01*
X11823079Y-14419573D01*
X11823079Y-14504427D01*
X11907932Y-14504427D01*
D18*
X4880150Y-5620170D02*
X5019850Y-5759870D01*
X5019850Y-5620170D02*
X4880150Y-5759870D01*
X4950000Y-5759870D02*
X5019850Y-5690020D01*
X4950000Y-5620170D01*
X4880150Y-5690020D01*
X4950000Y-5759870D01*
X4880150Y-6840160D02*
X5019850Y-6979860D01*
X5019850Y-6840160D02*
X4880150Y-6979860D01*
X4950000Y-6979860D02*
X5019850Y-6910010D01*
X4950000Y-6840160D01*
X4880150Y-6910010D01*
X4950000Y-6979860D01*
X5480150Y-7040160D02*
X5619850Y-7179860D01*
X5619850Y-7040160D02*
X5480150Y-7179860D01*
X5550000Y-7179860D02*
X5619850Y-7110010D01*
X5550000Y-7040160D01*
X5480150Y-7110010D01*
X5550000Y-7179860D01*
X6080150Y-5620170D02*
X6219850Y-5759870D01*
X6219850Y-5620170D02*
X6080150Y-5759870D01*
X6150000Y-5759870D02*
X6219850Y-5690020D01*
X6150000Y-5620170D01*
X6080150Y-5690020D01*
X6150000Y-5759870D01*
X6080150Y-6840160D02*
X6219850Y-6979860D01*
X6219850Y-6840160D02*
X6080150Y-6979860D01*
X6150000Y-6979860D02*
X6219850Y-6910010D01*
X6150000Y-6840160D01*
X6080150Y-6910010D01*
X6150000Y-6979860D01*
X13020170Y-8430150D02*
X13159870Y-8569850D01*
X13159870Y-8430150D02*
X13020170Y-8569850D01*
X13090020Y-8569850D02*
X13159870Y-8500000D01*
X13090020Y-8430150D01*
X13020170Y-8500000D01*
X13090020Y-8569850D01*
X13020170Y-9630150D02*
X13159870Y-9769850D01*
X13159870Y-9630150D02*
X13020170Y-9769850D01*
X13090020Y-9769850D02*
X13159870Y-9700000D01*
X13090020Y-9630150D01*
X13020170Y-9700000D01*
X13090020Y-9769850D01*
X13020170Y-11283650D02*
X13159870Y-11423350D01*
X13159870Y-11283650D02*
X13020170Y-11423350D01*
X13090020Y-11423350D02*
X13159870Y-11353500D01*
X13090020Y-11283650D01*
X13020170Y-11353500D01*
X13090020Y-11423350D01*
X13020170Y-12483650D02*
X13159870Y-12623350D01*
X13159870Y-12483650D02*
X13020170Y-12623350D01*
X13090020Y-12623350D02*
X13159870Y-12553500D01*
X13090020Y-12483650D01*
X13020170Y-12553500D01*
X13090020Y-12623350D01*
X13570170Y-13760150D02*
X13709870Y-13899850D01*
X13709870Y-13760150D02*
X13570170Y-13899850D01*
X13640020Y-13899850D02*
X13709870Y-13830000D01*
X13640020Y-13760150D01*
X13570170Y-13830000D01*
X13640020Y-13899850D01*
X13570170Y-14960150D02*
X13709870Y-15099850D01*
X13709870Y-14960150D02*
X13570170Y-15099850D01*
X13640020Y-15099850D02*
X13709870Y-15030000D01*
X13640020Y-14960150D01*
X13570170Y-15030000D01*
X13640020Y-15099850D01*
X14240160Y-8430150D02*
X14379860Y-8569850D01*
X14379860Y-8430150D02*
X14240160Y-8569850D01*
X14310010Y-8569850D02*
X14379860Y-8500000D01*
X14310010Y-8430150D01*
X14240160Y-8500000D01*
X14310010Y-8569850D01*
X14240160Y-9630150D02*
X14379860Y-9769850D01*
X14379860Y-9630150D02*
X14240160Y-9769850D01*
X14310010Y-9769850D02*
X14379860Y-9700000D01*
X14310010Y-9630150D01*
X14240160Y-9700000D01*
X14310010Y-9769850D01*
X14240160Y-11283650D02*
X14379860Y-11423350D01*
X14379860Y-11283650D02*
X14240160Y-11423350D01*
X14310010Y-11423350D02*
X14379860Y-11353500D01*
X14310010Y-11283650D01*
X14240160Y-11353500D01*
X14310010Y-11423350D01*
X14240160Y-12483650D02*
X14379860Y-12623350D01*
X14379860Y-12483650D02*
X14240160Y-12623350D01*
X14310010Y-12623350D02*
X14379860Y-12553500D01*
X14310010Y-12483650D01*
X14240160Y-12553500D01*
X14310010Y-12623350D01*
X14330150Y-6300150D02*
X14469850Y-6439850D01*
X14469850Y-6300150D02*
X14330150Y-6439850D01*
X14400000Y-6439850D02*
X14469850Y-6370000D01*
X14400000Y-6300150D01*
X14330150Y-6370000D01*
X14400000Y-6439850D01*
X14330150Y-7500150D02*
X14469850Y-7639850D01*
X14469850Y-7500150D02*
X14330150Y-7639850D01*
X14400000Y-7639850D02*
X14469850Y-7570000D01*
X14400000Y-7500150D01*
X14330150Y-7570000D01*
X14400000Y-7639850D01*
X14440160Y-9030150D02*
X14579860Y-9169850D01*
X14579860Y-9030150D02*
X14440160Y-9169850D01*
X14510010Y-9169850D02*
X14579860Y-9100000D01*
X14510010Y-9030150D01*
X14440160Y-9100000D01*
X14510010Y-9169850D01*
X14440160Y-11883650D02*
X14579860Y-12023350D01*
X14579860Y-11883650D02*
X14440160Y-12023350D01*
X14510010Y-12023350D02*
X14579860Y-11953500D01*
X14510010Y-11883650D01*
X14440160Y-11953500D01*
X14510010Y-12023350D01*
X14790160Y-13760150D02*
X14929860Y-13899850D01*
X14929860Y-13760150D02*
X14790160Y-13899850D01*
X14860010Y-13899850D02*
X14929860Y-13830000D01*
X14860010Y-13760150D01*
X14790160Y-13830000D01*
X14860010Y-13899850D01*
X14790160Y-14960150D02*
X14929860Y-15099850D01*
X14929860Y-14960150D02*
X14790160Y-15099850D01*
X14860010Y-15099850D02*
X14929860Y-15030000D01*
X14860010Y-14960150D01*
X14790160Y-15030000D01*
X14860010Y-15099850D01*
X14990160Y-14360150D02*
X15129860Y-14499850D01*
X15129860Y-14360150D02*
X14990160Y-14499850D01*
X15060010Y-14499850D02*
X15129860Y-14430000D01*
X15060010Y-14360150D01*
X14990160Y-14430000D01*
X15060010Y-14499850D01*
X15550140Y-6300150D02*
X15689840Y-6439850D01*
X15689840Y-6300150D02*
X15550140Y-6439850D01*
X15619990Y-6439850D02*
X15689840Y-6370000D01*
X15619990Y-6300150D01*
X15550140Y-6370000D01*
X15619990Y-6439850D01*
X15550140Y-7500150D02*
X15689840Y-7639850D01*
X15689840Y-7500150D02*
X15550140Y-7639850D01*
X15619990Y-7639850D02*
X15689840Y-7570000D01*
X15619990Y-7500150D01*
X15550140Y-7570000D01*
X15619990Y-7639850D01*
X15750140Y-6900150D02*
X15889840Y-7039850D01*
X15889840Y-6900150D02*
X15750140Y-7039850D01*
X15819990Y-7039850D02*
X15889840Y-6970000D01*
X15819990Y-6900150D01*
X15750140Y-6970000D01*
X15819990Y-7039850D01*
D19*
X16988700Y-8546700D02*
X16988700Y-8686900D01*
X16918600Y-8616800D02*
X17058800Y-8616800D01*
X17058800Y-8616800D02*
G75*
G02*
X16918600Y-8616800I-70100J0D01*
G01*
X16918600Y-8616800D02*
G75*
G02*
X17058800Y-8616800I70100J0D01*
G01*
X17013460Y-12573100D02*
X17013460Y-12713300D01*
X16943360Y-12643200D02*
X17083560Y-12643200D01*
X17083560Y-12643200D02*
G75*
G02*
X16943360Y-12643200I-70100J0D01*
G01*
X16943360Y-12643200D02*
G75*
G02*
X17083560Y-12643200I70100J0D01*
G01*
X17486540Y-8546700D02*
X17486540Y-8686900D01*
X17416440Y-8616800D02*
X17556640Y-8616800D01*
X17556640Y-8616800D02*
G75*
G02*
X17416440Y-8616800I-70100J0D01*
G01*
X17416440Y-8616800D02*
G75*
G02*
X17556640Y-8616800I70100J0D01*
G01*
X17511300Y-12573100D02*
X17511300Y-12713300D01*
X17441200Y-12643200D02*
X17581400Y-12643200D01*
X17581400Y-12643200D02*
G75*
G02*
X17441200Y-12643200I-70100J0D01*
G01*
X17441200Y-12643200D02*
G75*
G02*
X17581400Y-12643200I70100J0D01*
G01*
D20*
X5253390Y-10823640D02*
X5253390Y-10696360D01*
X5126110Y-10696360D01*
X5126110Y-10823640D01*
X5253390Y-10823640D01*
X5279750Y-10760000D02*
G75*
G02*
X5099750Y-10760000I-90000J0D01*
G01*
X5099750Y-10760000D02*
G75*
G02*
X5279750Y-10760000I90000J0D01*
G01*
X5253390Y-11243640D02*
X5253390Y-11116360D01*
X5126110Y-11116360D01*
X5126110Y-11243640D01*
X5253390Y-11243640D01*
X5279750Y-11180000D02*
G75*
G02*
X5099750Y-11180000I-90000J0D01*
G01*
X5099750Y-11180000D02*
G75*
G02*
X5279750Y-11180000I90000J0D01*
G01*
X5253390Y-11663640D02*
X5253390Y-11536360D01*
X5126110Y-11536360D01*
X5126110Y-11663640D01*
X5253390Y-11663640D01*
X5279750Y-11600000D02*
G75*
G02*
X5099750Y-11600000I-90000J0D01*
G01*
X5099750Y-11600000D02*
G75*
G02*
X5279750Y-11600000I90000J0D01*
G01*
X5803390Y-10823640D02*
X5803390Y-10696360D01*
X5676110Y-10696360D01*
X5676110Y-10823640D01*
X5803390Y-10823640D01*
X5829750Y-10760000D02*
G75*
G02*
X5649750Y-10760000I-90000J0D01*
G01*
X5649750Y-10760000D02*
G75*
G02*
X5829750Y-10760000I90000J0D01*
G01*
X5803390Y-11243640D02*
X5803390Y-11116360D01*
X5676110Y-11116360D01*
X5676110Y-11243640D01*
X5803390Y-11243640D01*
X5829750Y-11180000D02*
G75*
G02*
X5649750Y-11180000I-90000J0D01*
G01*
X5649750Y-11180000D02*
G75*
G02*
X5829750Y-11180000I90000J0D01*
G01*
X5803390Y-11663640D02*
X5803390Y-11536360D01*
X5676110Y-11536360D01*
X5676110Y-11663640D01*
X5803390Y-11663640D01*
X5829750Y-11600000D02*
G75*
G02*
X5649750Y-11600000I-90000J0D01*
G01*
X5649750Y-11600000D02*
G75*
G02*
X5829750Y-11600000I90000J0D01*
G01*
X16123890Y-10679040D02*
X16123890Y-10551760D01*
X15996610Y-10551760D01*
X15996610Y-10679040D01*
X16123890Y-10679040D01*
X16150250Y-10615400D02*
G75*
G02*
X15970250Y-10615400I-90000J0D01*
G01*
X15970250Y-10615400D02*
G75*
G02*
X16150250Y-10615400I90000J0D01*
G01*
X16123890Y-11099040D02*
X16123890Y-10971760D01*
X15996610Y-10971760D01*
X15996610Y-11099040D01*
X16123890Y-11099040D01*
X16150250Y-11035400D02*
G75*
G02*
X15970250Y-11035400I-90000J0D01*
G01*
X15970250Y-11035400D02*
G75*
G02*
X16150250Y-11035400I90000J0D01*
G01*
X16673890Y-10679040D02*
X16673890Y-10551760D01*
X16546610Y-10551760D01*
X16546610Y-10679040D01*
X16673890Y-10679040D01*
X16700250Y-10615400D02*
G75*
G02*
X16520250Y-10615400I-90000J0D01*
G01*
X16520250Y-10615400D02*
G75*
G02*
X16700250Y-10615400I90000J0D01*
G01*
X16673890Y-11099040D02*
X16673890Y-10971760D01*
X16546610Y-10971760D01*
X16546610Y-11099040D01*
X16673890Y-11099040D01*
X16700250Y-11035400D02*
G75*
G02*
X16520250Y-11035400I-90000J0D01*
G01*
X16520250Y-11035400D02*
G75*
G02*
X16700250Y-11035400I90000J0D01*
G01*
D11*
X2758277Y-16313984D02*
X2758277Y-16113984D01*
X2758277Y-16113984D02*
X2805896Y-16113984D01*
X2805896Y-16113984D02*
X2834467Y-16123508D01*
X2834467Y-16123508D02*
X2853515Y-16142555D01*
X2853515Y-16142555D02*
X2863039Y-16161603D01*
X2863039Y-16161603D02*
X2872562Y-16199698D01*
X2872562Y-16199698D02*
X2872562Y-16228269D01*
X2872562Y-16228269D02*
X2863039Y-16266365D01*
X2863039Y-16266365D02*
X2853515Y-16285412D01*
X2853515Y-16285412D02*
X2834467Y-16304460D01*
X2834467Y-16304460D02*
X2805896Y-16313984D01*
X2805896Y-16313984D02*
X2758277Y-16313984D01*
X2958277Y-16313984D02*
X2958277Y-16180650D01*
X2958277Y-16218746D02*
X2967801Y-16199698D01*
X2967801Y-16199698D02*
X2977324Y-16190174D01*
X2977324Y-16190174D02*
X2996372Y-16180650D01*
X2996372Y-16180650D02*
X3015420Y-16180650D01*
X3082086Y-16313984D02*
X3082086Y-16180650D01*
X3082086Y-16113984D02*
X3072562Y-16123508D01*
X3072562Y-16123508D02*
X3082086Y-16133031D01*
X3082086Y-16133031D02*
X3091610Y-16123508D01*
X3091610Y-16123508D02*
X3082086Y-16113984D01*
X3082086Y-16113984D02*
X3082086Y-16133031D01*
X3205896Y-16313984D02*
X3186848Y-16304460D01*
X3186848Y-16304460D02*
X3177324Y-16285412D01*
X3177324Y-16285412D02*
X3177324Y-16113984D01*
X3310658Y-16313984D02*
X3291610Y-16304460D01*
X3291610Y-16304460D02*
X3282086Y-16285412D01*
X3282086Y-16285412D02*
X3282086Y-16113984D01*
X3539229Y-16313984D02*
X3539229Y-16113984D01*
X3539229Y-16113984D02*
X3605896Y-16256841D01*
X3605896Y-16256841D02*
X3672562Y-16113984D01*
X3672562Y-16113984D02*
X3672562Y-16313984D01*
X3853515Y-16313984D02*
X3853515Y-16209222D01*
X3853515Y-16209222D02*
X3843991Y-16190174D01*
X3843991Y-16190174D02*
X3824943Y-16180650D01*
X3824943Y-16180650D02*
X3786848Y-16180650D01*
X3786848Y-16180650D02*
X3767801Y-16190174D01*
X3853515Y-16304460D02*
X3834467Y-16313984D01*
X3834467Y-16313984D02*
X3786848Y-16313984D01*
X3786848Y-16313984D02*
X3767801Y-16304460D01*
X3767801Y-16304460D02*
X3758277Y-16285412D01*
X3758277Y-16285412D02*
X3758277Y-16266365D01*
X3758277Y-16266365D02*
X3767801Y-16247317D01*
X3767801Y-16247317D02*
X3786848Y-16237793D01*
X3786848Y-16237793D02*
X3834467Y-16237793D01*
X3834467Y-16237793D02*
X3853515Y-16228269D01*
X3948753Y-16180650D02*
X3948753Y-16380650D01*
X3948753Y-16190174D02*
X3967801Y-16180650D01*
X3967801Y-16180650D02*
X4005896Y-16180650D01*
X4005896Y-16180650D02*
X4024943Y-16190174D01*
X4024943Y-16190174D02*
X4034467Y-16199698D01*
X4034467Y-16199698D02*
X4043991Y-16218746D01*
X4043991Y-16218746D02*
X4043991Y-16275888D01*
X4043991Y-16275888D02*
X4034467Y-16294936D01*
X4034467Y-16294936D02*
X4024943Y-16304460D01*
X4024943Y-16304460D02*
X4005896Y-16313984D01*
X4005896Y-16313984D02*
X3967801Y-16313984D01*
X3967801Y-16313984D02*
X3948753Y-16304460D01*
X4129705Y-16294936D02*
X4139229Y-16304460D01*
X4139229Y-16304460D02*
X4129705Y-16313984D01*
X4129705Y-16313984D02*
X4120182Y-16304460D01*
X4120182Y-16304460D02*
X4129705Y-16294936D01*
X4129705Y-16294936D02*
X4129705Y-16313984D01*
X4129705Y-16190174D02*
X4139229Y-16199698D01*
X4139229Y-16199698D02*
X4129705Y-16209222D01*
X4129705Y-16209222D02*
X4120182Y-16199698D01*
X4120182Y-16199698D02*
X4129705Y-16190174D01*
X4129705Y-16190174D02*
X4129705Y-16209222D01*
D12*
X2467500Y-16627500D02*
X2497500Y-16657500D01*
X2497500Y-16627500D02*
X2467500Y-16657500D01*
D11*
X2796372Y-16533984D02*
X2815420Y-16533984D01*
X2815420Y-16533984D02*
X2834467Y-16543508D01*
X2834467Y-16543508D02*
X2843991Y-16553031D01*
X2843991Y-16553031D02*
X2853515Y-16572079D01*
X2853515Y-16572079D02*
X2863039Y-16610174D01*
X2863039Y-16610174D02*
X2863039Y-16657793D01*
X2863039Y-16657793D02*
X2853515Y-16695888D01*
X2853515Y-16695888D02*
X2843991Y-16714936D01*
X2843991Y-16714936D02*
X2834467Y-16724460D01*
X2834467Y-16724460D02*
X2815420Y-16733984D01*
X2815420Y-16733984D02*
X2796372Y-16733984D01*
X2796372Y-16733984D02*
X2777324Y-16724460D01*
X2777324Y-16724460D02*
X2767801Y-16714936D01*
X2767801Y-16714936D02*
X2758277Y-16695888D01*
X2758277Y-16695888D02*
X2748753Y-16657793D01*
X2748753Y-16657793D02*
X2748753Y-16610174D01*
X2748753Y-16610174D02*
X2758277Y-16572079D01*
X2758277Y-16572079D02*
X2767801Y-16553031D01*
X2767801Y-16553031D02*
X2777324Y-16543508D01*
X2777324Y-16543508D02*
X2796372Y-16533984D01*
X2948753Y-16714936D02*
X2958277Y-16724460D01*
X2958277Y-16724460D02*
X2948753Y-16733984D01*
X2948753Y-16733984D02*
X2939229Y-16724460D01*
X2939229Y-16724460D02*
X2948753Y-16714936D01*
X2948753Y-16714936D02*
X2948753Y-16733984D01*
X3024943Y-16533984D02*
X3148753Y-16533984D01*
X3148753Y-16533984D02*
X3082086Y-16610174D01*
X3082086Y-16610174D02*
X3110658Y-16610174D01*
X3110658Y-16610174D02*
X3129705Y-16619698D01*
X3129705Y-16619698D02*
X3139229Y-16629222D01*
X3139229Y-16629222D02*
X3148753Y-16648269D01*
X3148753Y-16648269D02*
X3148753Y-16695888D01*
X3148753Y-16695888D02*
X3139229Y-16714936D01*
X3139229Y-16714936D02*
X3129705Y-16724460D01*
X3129705Y-16724460D02*
X3110658Y-16733984D01*
X3110658Y-16733984D02*
X3053515Y-16733984D01*
X3053515Y-16733984D02*
X3034467Y-16724460D01*
X3034467Y-16724460D02*
X3024943Y-16714936D01*
X3272562Y-16533984D02*
X3291610Y-16533984D01*
X3291610Y-16533984D02*
X3310658Y-16543508D01*
X3310658Y-16543508D02*
X3320182Y-16553031D01*
X3320182Y-16553031D02*
X3329705Y-16572079D01*
X3329705Y-16572079D02*
X3339229Y-16610174D01*
X3339229Y-16610174D02*
X3339229Y-16657793D01*
X3339229Y-16657793D02*
X3329705Y-16695888D01*
X3329705Y-16695888D02*
X3320182Y-16714936D01*
X3320182Y-16714936D02*
X3310658Y-16724460D01*
X3310658Y-16724460D02*
X3291610Y-16733984D01*
X3291610Y-16733984D02*
X3272562Y-16733984D01*
X3272562Y-16733984D02*
X3253515Y-16724460D01*
X3253515Y-16724460D02*
X3243991Y-16714936D01*
X3243991Y-16714936D02*
X3234467Y-16695888D01*
X3234467Y-16695888D02*
X3224943Y-16657793D01*
X3224943Y-16657793D02*
X3224943Y-16610174D01*
X3224943Y-16610174D02*
X3234467Y-16572079D01*
X3234467Y-16572079D02*
X3243991Y-16553031D01*
X3243991Y-16553031D02*
X3253515Y-16543508D01*
X3253515Y-16543508D02*
X3272562Y-16533984D01*
X3463039Y-16533984D02*
X3482086Y-16533984D01*
X3482086Y-16533984D02*
X3501134Y-16543508D01*
X3501134Y-16543508D02*
X3510658Y-16553031D01*
X3510658Y-16553031D02*
X3520182Y-16572079D01*
X3520182Y-16572079D02*
X3529705Y-16610174D01*
X3529705Y-16610174D02*
X3529705Y-16657793D01*
X3529705Y-16657793D02*
X3520182Y-16695888D01*
X3520182Y-16695888D02*
X3510658Y-16714936D01*
X3510658Y-16714936D02*
X3501134Y-16724460D01*
X3501134Y-16724460D02*
X3482086Y-16733984D01*
X3482086Y-16733984D02*
X3463039Y-16733984D01*
X3463039Y-16733984D02*
X3443991Y-16724460D01*
X3443991Y-16724460D02*
X3434467Y-16714936D01*
X3434467Y-16714936D02*
X3424943Y-16695888D01*
X3424943Y-16695888D02*
X3415420Y-16657793D01*
X3415420Y-16657793D02*
X3415420Y-16610174D01*
X3415420Y-16610174D02*
X3424943Y-16572079D01*
X3424943Y-16572079D02*
X3434467Y-16553031D01*
X3434467Y-16553031D02*
X3443991Y-16543508D01*
X3443991Y-16543508D02*
X3463039Y-16533984D01*
X3615420Y-16733984D02*
X3615420Y-16600650D01*
X3615420Y-16619698D02*
X3624943Y-16610174D01*
X3624943Y-16610174D02*
X3643991Y-16600650D01*
X3643991Y-16600650D02*
X3672563Y-16600650D01*
X3672563Y-16600650D02*
X3691610Y-16610174D01*
X3691610Y-16610174D02*
X3701134Y-16629222D01*
X3701134Y-16629222D02*
X3701134Y-16733984D01*
X3701134Y-16629222D02*
X3710658Y-16610174D01*
X3710658Y-16610174D02*
X3729705Y-16600650D01*
X3729705Y-16600650D02*
X3758277Y-16600650D01*
X3758277Y-16600650D02*
X3777324Y-16610174D01*
X3777324Y-16610174D02*
X3786848Y-16629222D01*
X3786848Y-16629222D02*
X3786848Y-16733984D01*
X3882086Y-16733984D02*
X3882086Y-16600650D01*
X3882086Y-16619698D02*
X3891610Y-16610174D01*
X3891610Y-16610174D02*
X3910658Y-16600650D01*
X3910658Y-16600650D02*
X3939229Y-16600650D01*
X3939229Y-16600650D02*
X3958277Y-16610174D01*
X3958277Y-16610174D02*
X3967801Y-16629222D01*
X3967801Y-16629222D02*
X3967801Y-16733984D01*
X3967801Y-16629222D02*
X3977324Y-16610174D01*
X3977324Y-16610174D02*
X3996372Y-16600650D01*
X3996372Y-16600650D02*
X4024943Y-16600650D01*
X4024943Y-16600650D02*
X4043991Y-16610174D01*
X4043991Y-16610174D02*
X4053515Y-16629222D01*
X4053515Y-16629222D02*
X4053515Y-16733984D01*
X4443991Y-16524460D02*
X4272563Y-16781603D01*
X4701134Y-16533984D02*
X4720182Y-16533984D01*
X4720182Y-16533984D02*
X4739229Y-16543508D01*
X4739229Y-16543508D02*
X4748753Y-16553031D01*
X4748753Y-16553031D02*
X4758277Y-16572079D01*
X4758277Y-16572079D02*
X4767801Y-16610174D01*
X4767801Y-16610174D02*
X4767801Y-16657793D01*
X4767801Y-16657793D02*
X4758277Y-16695888D01*
X4758277Y-16695888D02*
X4748753Y-16714936D01*
X4748753Y-16714936D02*
X4739229Y-16724460D01*
X4739229Y-16724460D02*
X4720182Y-16733984D01*
X4720182Y-16733984D02*
X4701134Y-16733984D01*
X4701134Y-16733984D02*
X4682087Y-16724460D01*
X4682087Y-16724460D02*
X4672563Y-16714936D01*
X4672563Y-16714936D02*
X4663039Y-16695888D01*
X4663039Y-16695888D02*
X4653515Y-16657793D01*
X4653515Y-16657793D02*
X4653515Y-16610174D01*
X4653515Y-16610174D02*
X4663039Y-16572079D01*
X4663039Y-16572079D02*
X4672563Y-16553031D01*
X4672563Y-16553031D02*
X4682087Y-16543508D01*
X4682087Y-16543508D02*
X4701134Y-16533984D01*
X4853515Y-16714936D02*
X4863039Y-16724460D01*
X4863039Y-16724460D02*
X4853515Y-16733984D01*
X4853515Y-16733984D02*
X4843991Y-16724460D01*
X4843991Y-16724460D02*
X4853515Y-16714936D01*
X4853515Y-16714936D02*
X4853515Y-16733984D01*
X4986848Y-16533984D02*
X5005896Y-16533984D01*
X5005896Y-16533984D02*
X5024944Y-16543508D01*
X5024944Y-16543508D02*
X5034468Y-16553031D01*
X5034468Y-16553031D02*
X5043991Y-16572079D01*
X5043991Y-16572079D02*
X5053515Y-16610174D01*
X5053515Y-16610174D02*
X5053515Y-16657793D01*
X5053515Y-16657793D02*
X5043991Y-16695888D01*
X5043991Y-16695888D02*
X5034468Y-16714936D01*
X5034468Y-16714936D02*
X5024944Y-16724460D01*
X5024944Y-16724460D02*
X5005896Y-16733984D01*
X5005896Y-16733984D02*
X4986848Y-16733984D01*
X4986848Y-16733984D02*
X4967801Y-16724460D01*
X4967801Y-16724460D02*
X4958277Y-16714936D01*
X4958277Y-16714936D02*
X4948753Y-16695888D01*
X4948753Y-16695888D02*
X4939229Y-16657793D01*
X4939229Y-16657793D02*
X4939229Y-16610174D01*
X4939229Y-16610174D02*
X4948753Y-16572079D01*
X4948753Y-16572079D02*
X4958277Y-16553031D01*
X4958277Y-16553031D02*
X4967801Y-16543508D01*
X4967801Y-16543508D02*
X4986848Y-16533984D01*
X5243991Y-16733984D02*
X5129706Y-16733984D01*
X5186848Y-16733984D02*
X5186848Y-16533984D01*
X5186848Y-16533984D02*
X5167801Y-16562555D01*
X5167801Y-16562555D02*
X5148753Y-16581603D01*
X5148753Y-16581603D02*
X5129706Y-16591127D01*
X5434468Y-16733984D02*
X5320182Y-16733984D01*
X5377325Y-16733984D02*
X5377325Y-16533984D01*
X5377325Y-16533984D02*
X5358277Y-16562555D01*
X5358277Y-16562555D02*
X5339229Y-16581603D01*
X5339229Y-16581603D02*
X5320182Y-16591127D01*
X5548753Y-16619698D02*
X5529706Y-16610174D01*
X5529706Y-16610174D02*
X5520182Y-16600650D01*
X5520182Y-16600650D02*
X5510658Y-16581603D01*
X5510658Y-16581603D02*
X5510658Y-16572079D01*
X5510658Y-16572079D02*
X5520182Y-16553031D01*
X5520182Y-16553031D02*
X5529706Y-16543508D01*
X5529706Y-16543508D02*
X5548753Y-16533984D01*
X5548753Y-16533984D02*
X5586849Y-16533984D01*
X5586849Y-16533984D02*
X5605896Y-16543508D01*
X5605896Y-16543508D02*
X5615420Y-16553031D01*
X5615420Y-16553031D02*
X5624944Y-16572079D01*
X5624944Y-16572079D02*
X5624944Y-16581603D01*
X5624944Y-16581603D02*
X5615420Y-16600650D01*
X5615420Y-16600650D02*
X5605896Y-16610174D01*
X5605896Y-16610174D02*
X5586849Y-16619698D01*
X5586849Y-16619698D02*
X5548753Y-16619698D01*
X5548753Y-16619698D02*
X5529706Y-16629222D01*
X5529706Y-16629222D02*
X5520182Y-16638746D01*
X5520182Y-16638746D02*
X5510658Y-16657793D01*
X5510658Y-16657793D02*
X5510658Y-16695888D01*
X5510658Y-16695888D02*
X5520182Y-16714936D01*
X5520182Y-16714936D02*
X5529706Y-16724460D01*
X5529706Y-16724460D02*
X5548753Y-16733984D01*
X5548753Y-16733984D02*
X5586849Y-16733984D01*
X5586849Y-16733984D02*
X5605896Y-16724460D01*
X5605896Y-16724460D02*
X5615420Y-16714936D01*
X5615420Y-16714936D02*
X5624944Y-16695888D01*
X5624944Y-16695888D02*
X5624944Y-16657793D01*
X5624944Y-16657793D02*
X5615420Y-16638746D01*
X5615420Y-16638746D02*
X5605896Y-16629222D01*
X5605896Y-16629222D02*
X5586849Y-16619698D01*
X5701134Y-16533984D02*
X5701134Y-16572079D01*
X5777325Y-16533984D02*
X5777325Y-16572079D01*
X6072563Y-16810174D02*
X6063039Y-16800650D01*
X6063039Y-16800650D02*
X6043991Y-16772079D01*
X6043991Y-16772079D02*
X6034468Y-16753031D01*
X6034468Y-16753031D02*
X6024944Y-16724460D01*
X6024944Y-16724460D02*
X6015420Y-16676841D01*
X6015420Y-16676841D02*
X6015420Y-16638746D01*
X6015420Y-16638746D02*
X6024944Y-16591127D01*
X6024944Y-16591127D02*
X6034468Y-16562555D01*
X6034468Y-16562555D02*
X6043991Y-16543508D01*
X6043991Y-16543508D02*
X6063039Y-16514936D01*
X6063039Y-16514936D02*
X6072563Y-16505412D01*
X6253515Y-16733984D02*
X6139229Y-16733984D01*
X6196372Y-16733984D02*
X6196372Y-16533984D01*
X6196372Y-16533984D02*
X6177325Y-16562555D01*
X6177325Y-16562555D02*
X6158277Y-16581603D01*
X6158277Y-16581603D02*
X6139229Y-16591127D01*
X6443991Y-16733984D02*
X6329706Y-16733984D01*
X6386848Y-16733984D02*
X6386848Y-16533984D01*
X6386848Y-16533984D02*
X6367801Y-16562555D01*
X6367801Y-16562555D02*
X6348753Y-16581603D01*
X6348753Y-16581603D02*
X6329706Y-16591127D01*
X6682087Y-16733984D02*
X6682087Y-16533984D01*
X6767801Y-16733984D02*
X6767801Y-16629222D01*
X6767801Y-16629222D02*
X6758277Y-16610174D01*
X6758277Y-16610174D02*
X6739230Y-16600650D01*
X6739230Y-16600650D02*
X6710658Y-16600650D01*
X6710658Y-16600650D02*
X6691610Y-16610174D01*
X6691610Y-16610174D02*
X6682087Y-16619698D01*
X6891610Y-16733984D02*
X6872563Y-16724460D01*
X6872563Y-16724460D02*
X6863039Y-16714936D01*
X6863039Y-16714936D02*
X6853515Y-16695888D01*
X6853515Y-16695888D02*
X6853515Y-16638746D01*
X6853515Y-16638746D02*
X6863039Y-16619698D01*
X6863039Y-16619698D02*
X6872563Y-16610174D01*
X6872563Y-16610174D02*
X6891610Y-16600650D01*
X6891610Y-16600650D02*
X6920182Y-16600650D01*
X6920182Y-16600650D02*
X6939230Y-16610174D01*
X6939230Y-16610174D02*
X6948753Y-16619698D01*
X6948753Y-16619698D02*
X6958277Y-16638746D01*
X6958277Y-16638746D02*
X6958277Y-16695888D01*
X6958277Y-16695888D02*
X6948753Y-16714936D01*
X6948753Y-16714936D02*
X6939230Y-16724460D01*
X6939230Y-16724460D02*
X6920182Y-16733984D01*
X6920182Y-16733984D02*
X6891610Y-16733984D01*
X7072563Y-16733984D02*
X7053515Y-16724460D01*
X7053515Y-16724460D02*
X7043991Y-16705412D01*
X7043991Y-16705412D02*
X7043991Y-16533984D01*
X7224944Y-16724460D02*
X7205896Y-16733984D01*
X7205896Y-16733984D02*
X7167801Y-16733984D01*
X7167801Y-16733984D02*
X7148753Y-16724460D01*
X7148753Y-16724460D02*
X7139230Y-16705412D01*
X7139230Y-16705412D02*
X7139230Y-16629222D01*
X7139230Y-16629222D02*
X7148753Y-16610174D01*
X7148753Y-16610174D02*
X7167801Y-16600650D01*
X7167801Y-16600650D02*
X7205896Y-16600650D01*
X7205896Y-16600650D02*
X7224944Y-16610174D01*
X7224944Y-16610174D02*
X7234468Y-16629222D01*
X7234468Y-16629222D02*
X7234468Y-16648269D01*
X7234468Y-16648269D02*
X7139230Y-16667317D01*
X7310658Y-16724460D02*
X7329706Y-16733984D01*
X7329706Y-16733984D02*
X7367801Y-16733984D01*
X7367801Y-16733984D02*
X7386849Y-16724460D01*
X7386849Y-16724460D02*
X7396372Y-16705412D01*
X7396372Y-16705412D02*
X7396372Y-16695888D01*
X7396372Y-16695888D02*
X7386849Y-16676841D01*
X7386849Y-16676841D02*
X7367801Y-16667317D01*
X7367801Y-16667317D02*
X7339230Y-16667317D01*
X7339230Y-16667317D02*
X7320182Y-16657793D01*
X7320182Y-16657793D02*
X7310658Y-16638746D01*
X7310658Y-16638746D02*
X7310658Y-16629222D01*
X7310658Y-16629222D02*
X7320182Y-16610174D01*
X7320182Y-16610174D02*
X7339230Y-16600650D01*
X7339230Y-16600650D02*
X7367801Y-16600650D01*
X7367801Y-16600650D02*
X7386849Y-16610174D01*
X7463039Y-16810174D02*
X7472563Y-16800650D01*
X7472563Y-16800650D02*
X7491611Y-16772079D01*
X7491611Y-16772079D02*
X7501134Y-16753031D01*
X7501134Y-16753031D02*
X7510658Y-16724460D01*
X7510658Y-16724460D02*
X7520182Y-16676841D01*
X7520182Y-16676841D02*
X7520182Y-16638746D01*
X7520182Y-16638746D02*
X7510658Y-16591127D01*
X7510658Y-16591127D02*
X7501134Y-16562555D01*
X7501134Y-16562555D02*
X7491611Y-16543508D01*
X7491611Y-16543508D02*
X7472563Y-16514936D01*
X7472563Y-16514936D02*
X7463039Y-16505412D01*
D12*
X2497500Y-16906500D02*
G75*
G02*
X2417500Y-16906500I-40000J0D01*
G01*
X2417500Y-16906500D02*
G75*
G02*
X2497500Y-16906500I40000J0D01*
G01*
D11*
X2796372Y-16797984D02*
X2815420Y-16797984D01*
X2815420Y-16797984D02*
X2834467Y-16807508D01*
X2834467Y-16807508D02*
X2843991Y-16817031D01*
X2843991Y-16817031D02*
X2853515Y-16836079D01*
X2853515Y-16836079D02*
X2863039Y-16874174D01*
X2863039Y-16874174D02*
X2863039Y-16921793D01*
X2863039Y-16921793D02*
X2853515Y-16959889D01*
X2853515Y-16959889D02*
X2843991Y-16978936D01*
X2843991Y-16978936D02*
X2834467Y-16988460D01*
X2834467Y-16988460D02*
X2815420Y-16997984D01*
X2815420Y-16997984D02*
X2796372Y-16997984D01*
X2796372Y-16997984D02*
X2777324Y-16988460D01*
X2777324Y-16988460D02*
X2767801Y-16978936D01*
X2767801Y-16978936D02*
X2758277Y-16959889D01*
X2758277Y-16959889D02*
X2748753Y-16921793D01*
X2748753Y-16921793D02*
X2748753Y-16874174D01*
X2748753Y-16874174D02*
X2758277Y-16836079D01*
X2758277Y-16836079D02*
X2767801Y-16817031D01*
X2767801Y-16817031D02*
X2777324Y-16807508D01*
X2777324Y-16807508D02*
X2796372Y-16797984D01*
X2948753Y-16978936D02*
X2958277Y-16988460D01*
X2958277Y-16988460D02*
X2948753Y-16997984D01*
X2948753Y-16997984D02*
X2939229Y-16988460D01*
X2939229Y-16988460D02*
X2948753Y-16978936D01*
X2948753Y-16978936D02*
X2948753Y-16997984D01*
X3072562Y-16883698D02*
X3053515Y-16874174D01*
X3053515Y-16874174D02*
X3043991Y-16864650D01*
X3043991Y-16864650D02*
X3034467Y-16845603D01*
X3034467Y-16845603D02*
X3034467Y-16836079D01*
X3034467Y-16836079D02*
X3043991Y-16817031D01*
X3043991Y-16817031D02*
X3053515Y-16807508D01*
X3053515Y-16807508D02*
X3072562Y-16797984D01*
X3072562Y-16797984D02*
X3110658Y-16797984D01*
X3110658Y-16797984D02*
X3129705Y-16807508D01*
X3129705Y-16807508D02*
X3139229Y-16817031D01*
X3139229Y-16817031D02*
X3148753Y-16836079D01*
X3148753Y-16836079D02*
X3148753Y-16845603D01*
X3148753Y-16845603D02*
X3139229Y-16864650D01*
X3139229Y-16864650D02*
X3129705Y-16874174D01*
X3129705Y-16874174D02*
X3110658Y-16883698D01*
X3110658Y-16883698D02*
X3072562Y-16883698D01*
X3072562Y-16883698D02*
X3053515Y-16893222D01*
X3053515Y-16893222D02*
X3043991Y-16902746D01*
X3043991Y-16902746D02*
X3034467Y-16921793D01*
X3034467Y-16921793D02*
X3034467Y-16959889D01*
X3034467Y-16959889D02*
X3043991Y-16978936D01*
X3043991Y-16978936D02*
X3053515Y-16988460D01*
X3053515Y-16988460D02*
X3072562Y-16997984D01*
X3072562Y-16997984D02*
X3110658Y-16997984D01*
X3110658Y-16997984D02*
X3129705Y-16988460D01*
X3129705Y-16988460D02*
X3139229Y-16978936D01*
X3139229Y-16978936D02*
X3148753Y-16959889D01*
X3148753Y-16959889D02*
X3148753Y-16921793D01*
X3148753Y-16921793D02*
X3139229Y-16902746D01*
X3139229Y-16902746D02*
X3129705Y-16893222D01*
X3129705Y-16893222D02*
X3110658Y-16883698D01*
X3272562Y-16797984D02*
X3291610Y-16797984D01*
X3291610Y-16797984D02*
X3310658Y-16807508D01*
X3310658Y-16807508D02*
X3320182Y-16817031D01*
X3320182Y-16817031D02*
X3329705Y-16836079D01*
X3329705Y-16836079D02*
X3339229Y-16874174D01*
X3339229Y-16874174D02*
X3339229Y-16921793D01*
X3339229Y-16921793D02*
X3329705Y-16959889D01*
X3329705Y-16959889D02*
X3320182Y-16978936D01*
X3320182Y-16978936D02*
X3310658Y-16988460D01*
X3310658Y-16988460D02*
X3291610Y-16997984D01*
X3291610Y-16997984D02*
X3272562Y-16997984D01*
X3272562Y-16997984D02*
X3253515Y-16988460D01*
X3253515Y-16988460D02*
X3243991Y-16978936D01*
X3243991Y-16978936D02*
X3234467Y-16959889D01*
X3234467Y-16959889D02*
X3224943Y-16921793D01*
X3224943Y-16921793D02*
X3224943Y-16874174D01*
X3224943Y-16874174D02*
X3234467Y-16836079D01*
X3234467Y-16836079D02*
X3243991Y-16817031D01*
X3243991Y-16817031D02*
X3253515Y-16807508D01*
X3253515Y-16807508D02*
X3272562Y-16797984D01*
X3463039Y-16797984D02*
X3482086Y-16797984D01*
X3482086Y-16797984D02*
X3501134Y-16807508D01*
X3501134Y-16807508D02*
X3510658Y-16817031D01*
X3510658Y-16817031D02*
X3520182Y-16836079D01*
X3520182Y-16836079D02*
X3529705Y-16874174D01*
X3529705Y-16874174D02*
X3529705Y-16921793D01*
X3529705Y-16921793D02*
X3520182Y-16959889D01*
X3520182Y-16959889D02*
X3510658Y-16978936D01*
X3510658Y-16978936D02*
X3501134Y-16988460D01*
X3501134Y-16988460D02*
X3482086Y-16997984D01*
X3482086Y-16997984D02*
X3463039Y-16997984D01*
X3463039Y-16997984D02*
X3443991Y-16988460D01*
X3443991Y-16988460D02*
X3434467Y-16978936D01*
X3434467Y-16978936D02*
X3424943Y-16959889D01*
X3424943Y-16959889D02*
X3415420Y-16921793D01*
X3415420Y-16921793D02*
X3415420Y-16874174D01*
X3415420Y-16874174D02*
X3424943Y-16836079D01*
X3424943Y-16836079D02*
X3434467Y-16817031D01*
X3434467Y-16817031D02*
X3443991Y-16807508D01*
X3443991Y-16807508D02*
X3463039Y-16797984D01*
X3615420Y-16997984D02*
X3615420Y-16864650D01*
X3615420Y-16883698D02*
X3624943Y-16874174D01*
X3624943Y-16874174D02*
X3643991Y-16864650D01*
X3643991Y-16864650D02*
X3672563Y-16864650D01*
X3672563Y-16864650D02*
X3691610Y-16874174D01*
X3691610Y-16874174D02*
X3701134Y-16893222D01*
X3701134Y-16893222D02*
X3701134Y-16997984D01*
X3701134Y-16893222D02*
X3710658Y-16874174D01*
X3710658Y-16874174D02*
X3729705Y-16864650D01*
X3729705Y-16864650D02*
X3758277Y-16864650D01*
X3758277Y-16864650D02*
X3777324Y-16874174D01*
X3777324Y-16874174D02*
X3786848Y-16893222D01*
X3786848Y-16893222D02*
X3786848Y-16997984D01*
X3882086Y-16997984D02*
X3882086Y-16864650D01*
X3882086Y-16883698D02*
X3891610Y-16874174D01*
X3891610Y-16874174D02*
X3910658Y-16864650D01*
X3910658Y-16864650D02*
X3939229Y-16864650D01*
X3939229Y-16864650D02*
X3958277Y-16874174D01*
X3958277Y-16874174D02*
X3967801Y-16893222D01*
X3967801Y-16893222D02*
X3967801Y-16997984D01*
X3967801Y-16893222D02*
X3977324Y-16874174D01*
X3977324Y-16874174D02*
X3996372Y-16864650D01*
X3996372Y-16864650D02*
X4024943Y-16864650D01*
X4024943Y-16864650D02*
X4043991Y-16874174D01*
X4043991Y-16874174D02*
X4053515Y-16893222D01*
X4053515Y-16893222D02*
X4053515Y-16997984D01*
X4443991Y-16788460D02*
X4272563Y-17045603D01*
X4701134Y-16797984D02*
X4720182Y-16797984D01*
X4720182Y-16797984D02*
X4739229Y-16807508D01*
X4739229Y-16807508D02*
X4748753Y-16817031D01*
X4748753Y-16817031D02*
X4758277Y-16836079D01*
X4758277Y-16836079D02*
X4767801Y-16874174D01*
X4767801Y-16874174D02*
X4767801Y-16921793D01*
X4767801Y-16921793D02*
X4758277Y-16959889D01*
X4758277Y-16959889D02*
X4748753Y-16978936D01*
X4748753Y-16978936D02*
X4739229Y-16988460D01*
X4739229Y-16988460D02*
X4720182Y-16997984D01*
X4720182Y-16997984D02*
X4701134Y-16997984D01*
X4701134Y-16997984D02*
X4682087Y-16988460D01*
X4682087Y-16988460D02*
X4672563Y-16978936D01*
X4672563Y-16978936D02*
X4663039Y-16959889D01*
X4663039Y-16959889D02*
X4653515Y-16921793D01*
X4653515Y-16921793D02*
X4653515Y-16874174D01*
X4653515Y-16874174D02*
X4663039Y-16836079D01*
X4663039Y-16836079D02*
X4672563Y-16817031D01*
X4672563Y-16817031D02*
X4682087Y-16807508D01*
X4682087Y-16807508D02*
X4701134Y-16797984D01*
X4853515Y-16978936D02*
X4863039Y-16988460D01*
X4863039Y-16988460D02*
X4853515Y-16997984D01*
X4853515Y-16997984D02*
X4843991Y-16988460D01*
X4843991Y-16988460D02*
X4853515Y-16978936D01*
X4853515Y-16978936D02*
X4853515Y-16997984D01*
X4986848Y-16797984D02*
X5005896Y-16797984D01*
X5005896Y-16797984D02*
X5024944Y-16807508D01*
X5024944Y-16807508D02*
X5034468Y-16817031D01*
X5034468Y-16817031D02*
X5043991Y-16836079D01*
X5043991Y-16836079D02*
X5053515Y-16874174D01*
X5053515Y-16874174D02*
X5053515Y-16921793D01*
X5053515Y-16921793D02*
X5043991Y-16959889D01*
X5043991Y-16959889D02*
X5034468Y-16978936D01*
X5034468Y-16978936D02*
X5024944Y-16988460D01*
X5024944Y-16988460D02*
X5005896Y-16997984D01*
X5005896Y-16997984D02*
X4986848Y-16997984D01*
X4986848Y-16997984D02*
X4967801Y-16988460D01*
X4967801Y-16988460D02*
X4958277Y-16978936D01*
X4958277Y-16978936D02*
X4948753Y-16959889D01*
X4948753Y-16959889D02*
X4939229Y-16921793D01*
X4939229Y-16921793D02*
X4939229Y-16874174D01*
X4939229Y-16874174D02*
X4948753Y-16836079D01*
X4948753Y-16836079D02*
X4958277Y-16817031D01*
X4958277Y-16817031D02*
X4967801Y-16807508D01*
X4967801Y-16807508D02*
X4986848Y-16797984D01*
X5120182Y-16797984D02*
X5243991Y-16797984D01*
X5243991Y-16797984D02*
X5177325Y-16874174D01*
X5177325Y-16874174D02*
X5205896Y-16874174D01*
X5205896Y-16874174D02*
X5224944Y-16883698D01*
X5224944Y-16883698D02*
X5234468Y-16893222D01*
X5234468Y-16893222D02*
X5243991Y-16912270D01*
X5243991Y-16912270D02*
X5243991Y-16959889D01*
X5243991Y-16959889D02*
X5234468Y-16978936D01*
X5234468Y-16978936D02*
X5224944Y-16988460D01*
X5224944Y-16988460D02*
X5205896Y-16997984D01*
X5205896Y-16997984D02*
X5148753Y-16997984D01*
X5148753Y-16997984D02*
X5129706Y-16988460D01*
X5129706Y-16988460D02*
X5120182Y-16978936D01*
X5434468Y-16997984D02*
X5320182Y-16997984D01*
X5377325Y-16997984D02*
X5377325Y-16797984D01*
X5377325Y-16797984D02*
X5358277Y-16826555D01*
X5358277Y-16826555D02*
X5339229Y-16845603D01*
X5339229Y-16845603D02*
X5320182Y-16855127D01*
X5615420Y-16797984D02*
X5520182Y-16797984D01*
X5520182Y-16797984D02*
X5510658Y-16893222D01*
X5510658Y-16893222D02*
X5520182Y-16883698D01*
X5520182Y-16883698D02*
X5539229Y-16874174D01*
X5539229Y-16874174D02*
X5586849Y-16874174D01*
X5586849Y-16874174D02*
X5605896Y-16883698D01*
X5605896Y-16883698D02*
X5615420Y-16893222D01*
X5615420Y-16893222D02*
X5624944Y-16912270D01*
X5624944Y-16912270D02*
X5624944Y-16959889D01*
X5624944Y-16959889D02*
X5615420Y-16978936D01*
X5615420Y-16978936D02*
X5605896Y-16988460D01*
X5605896Y-16988460D02*
X5586849Y-16997984D01*
X5586849Y-16997984D02*
X5539229Y-16997984D01*
X5539229Y-16997984D02*
X5520182Y-16988460D01*
X5520182Y-16988460D02*
X5510658Y-16978936D01*
X5701134Y-16797984D02*
X5701134Y-16836079D01*
X5777325Y-16797984D02*
X5777325Y-16836079D01*
X6072563Y-17074174D02*
X6063039Y-17064650D01*
X6063039Y-17064650D02*
X6043991Y-17036079D01*
X6043991Y-17036079D02*
X6034468Y-17017031D01*
X6034468Y-17017031D02*
X6024944Y-16988460D01*
X6024944Y-16988460D02*
X6015420Y-16940841D01*
X6015420Y-16940841D02*
X6015420Y-16902746D01*
X6015420Y-16902746D02*
X6024944Y-16855127D01*
X6024944Y-16855127D02*
X6034468Y-16826555D01*
X6034468Y-16826555D02*
X6043991Y-16807508D01*
X6043991Y-16807508D02*
X6063039Y-16778936D01*
X6063039Y-16778936D02*
X6072563Y-16769412D01*
X6253515Y-16997984D02*
X6139229Y-16997984D01*
X6196372Y-16997984D02*
X6196372Y-16797984D01*
X6196372Y-16797984D02*
X6177325Y-16826555D01*
X6177325Y-16826555D02*
X6158277Y-16845603D01*
X6158277Y-16845603D02*
X6139229Y-16855127D01*
X6329706Y-16817031D02*
X6339229Y-16807508D01*
X6339229Y-16807508D02*
X6358277Y-16797984D01*
X6358277Y-16797984D02*
X6405896Y-16797984D01*
X6405896Y-16797984D02*
X6424944Y-16807508D01*
X6424944Y-16807508D02*
X6434468Y-16817031D01*
X6434468Y-16817031D02*
X6443991Y-16836079D01*
X6443991Y-16836079D02*
X6443991Y-16855127D01*
X6443991Y-16855127D02*
X6434468Y-16883698D01*
X6434468Y-16883698D02*
X6320182Y-16997984D01*
X6320182Y-16997984D02*
X6443991Y-16997984D01*
X6682087Y-16997984D02*
X6682087Y-16797984D01*
X6767801Y-16997984D02*
X6767801Y-16893222D01*
X6767801Y-16893222D02*
X6758277Y-16874174D01*
X6758277Y-16874174D02*
X6739230Y-16864650D01*
X6739230Y-16864650D02*
X6710658Y-16864650D01*
X6710658Y-16864650D02*
X6691610Y-16874174D01*
X6691610Y-16874174D02*
X6682087Y-16883698D01*
X6891610Y-16997984D02*
X6872563Y-16988460D01*
X6872563Y-16988460D02*
X6863039Y-16978936D01*
X6863039Y-16978936D02*
X6853515Y-16959889D01*
X6853515Y-16959889D02*
X6853515Y-16902746D01*
X6853515Y-16902746D02*
X6863039Y-16883698D01*
X6863039Y-16883698D02*
X6872563Y-16874174D01*
X6872563Y-16874174D02*
X6891610Y-16864650D01*
X6891610Y-16864650D02*
X6920182Y-16864650D01*
X6920182Y-16864650D02*
X6939230Y-16874174D01*
X6939230Y-16874174D02*
X6948753Y-16883698D01*
X6948753Y-16883698D02*
X6958277Y-16902746D01*
X6958277Y-16902746D02*
X6958277Y-16959889D01*
X6958277Y-16959889D02*
X6948753Y-16978936D01*
X6948753Y-16978936D02*
X6939230Y-16988460D01*
X6939230Y-16988460D02*
X6920182Y-16997984D01*
X6920182Y-16997984D02*
X6891610Y-16997984D01*
X7072563Y-16997984D02*
X7053515Y-16988460D01*
X7053515Y-16988460D02*
X7043991Y-16969412D01*
X7043991Y-16969412D02*
X7043991Y-16797984D01*
X7224944Y-16988460D02*
X7205896Y-16997984D01*
X7205896Y-16997984D02*
X7167801Y-16997984D01*
X7167801Y-16997984D02*
X7148753Y-16988460D01*
X7148753Y-16988460D02*
X7139230Y-16969412D01*
X7139230Y-16969412D02*
X7139230Y-16893222D01*
X7139230Y-16893222D02*
X7148753Y-16874174D01*
X7148753Y-16874174D02*
X7167801Y-16864650D01*
X7167801Y-16864650D02*
X7205896Y-16864650D01*
X7205896Y-16864650D02*
X7224944Y-16874174D01*
X7224944Y-16874174D02*
X7234468Y-16893222D01*
X7234468Y-16893222D02*
X7234468Y-16912270D01*
X7234468Y-16912270D02*
X7139230Y-16931317D01*
X7310658Y-16988460D02*
X7329706Y-16997984D01*
X7329706Y-16997984D02*
X7367801Y-16997984D01*
X7367801Y-16997984D02*
X7386849Y-16988460D01*
X7386849Y-16988460D02*
X7396372Y-16969412D01*
X7396372Y-16969412D02*
X7396372Y-16959889D01*
X7396372Y-16959889D02*
X7386849Y-16940841D01*
X7386849Y-16940841D02*
X7367801Y-16931317D01*
X7367801Y-16931317D02*
X7339230Y-16931317D01*
X7339230Y-16931317D02*
X7320182Y-16921793D01*
X7320182Y-16921793D02*
X7310658Y-16902746D01*
X7310658Y-16902746D02*
X7310658Y-16893222D01*
X7310658Y-16893222D02*
X7320182Y-16874174D01*
X7320182Y-16874174D02*
X7339230Y-16864650D01*
X7339230Y-16864650D02*
X7367801Y-16864650D01*
X7367801Y-16864650D02*
X7386849Y-16874174D01*
X7463039Y-17074174D02*
X7472563Y-17064650D01*
X7472563Y-17064650D02*
X7491611Y-17036079D01*
X7491611Y-17036079D02*
X7501134Y-17017031D01*
X7501134Y-17017031D02*
X7510658Y-16988460D01*
X7510658Y-16988460D02*
X7520182Y-16940841D01*
X7520182Y-16940841D02*
X7520182Y-16902746D01*
X7520182Y-16902746D02*
X7510658Y-16855127D01*
X7510658Y-16855127D02*
X7501134Y-16826555D01*
X7501134Y-16826555D02*
X7491611Y-16807508D01*
X7491611Y-16807508D02*
X7472563Y-16778936D01*
X7472563Y-16778936D02*
X7463039Y-16769412D01*
D12*
X2447500Y-17120500D02*
X2447500Y-17220500D01*
X2397500Y-17170500D02*
X2497500Y-17170500D01*
D11*
X2863039Y-17261984D02*
X2748753Y-17261984D01*
X2805896Y-17261984D02*
X2805896Y-17061984D01*
X2805896Y-17061984D02*
X2786848Y-17090555D01*
X2786848Y-17090555D02*
X2767801Y-17109603D01*
X2767801Y-17109603D02*
X2748753Y-17119127D01*
X2948753Y-17242936D02*
X2958277Y-17252460D01*
X2958277Y-17252460D02*
X2948753Y-17261984D01*
X2948753Y-17261984D02*
X2939229Y-17252460D01*
X2939229Y-17252460D02*
X2948753Y-17242936D01*
X2948753Y-17242936D02*
X2948753Y-17261984D01*
X3082086Y-17061984D02*
X3101134Y-17061984D01*
X3101134Y-17061984D02*
X3120182Y-17071508D01*
X3120182Y-17071508D02*
X3129705Y-17081031D01*
X3129705Y-17081031D02*
X3139229Y-17100079D01*
X3139229Y-17100079D02*
X3148753Y-17138174D01*
X3148753Y-17138174D02*
X3148753Y-17185793D01*
X3148753Y-17185793D02*
X3139229Y-17223889D01*
X3139229Y-17223889D02*
X3129705Y-17242936D01*
X3129705Y-17242936D02*
X3120182Y-17252460D01*
X3120182Y-17252460D02*
X3101134Y-17261984D01*
X3101134Y-17261984D02*
X3082086Y-17261984D01*
X3082086Y-17261984D02*
X3063039Y-17252460D01*
X3063039Y-17252460D02*
X3053515Y-17242936D01*
X3053515Y-17242936D02*
X3043991Y-17223889D01*
X3043991Y-17223889D02*
X3034467Y-17185793D01*
X3034467Y-17185793D02*
X3034467Y-17138174D01*
X3034467Y-17138174D02*
X3043991Y-17100079D01*
X3043991Y-17100079D02*
X3053515Y-17081031D01*
X3053515Y-17081031D02*
X3063039Y-17071508D01*
X3063039Y-17071508D02*
X3082086Y-17061984D01*
X3272562Y-17061984D02*
X3291610Y-17061984D01*
X3291610Y-17061984D02*
X3310658Y-17071508D01*
X3310658Y-17071508D02*
X3320182Y-17081031D01*
X3320182Y-17081031D02*
X3329705Y-17100079D01*
X3329705Y-17100079D02*
X3339229Y-17138174D01*
X3339229Y-17138174D02*
X3339229Y-17185793D01*
X3339229Y-17185793D02*
X3329705Y-17223889D01*
X3329705Y-17223889D02*
X3320182Y-17242936D01*
X3320182Y-17242936D02*
X3310658Y-17252460D01*
X3310658Y-17252460D02*
X3291610Y-17261984D01*
X3291610Y-17261984D02*
X3272562Y-17261984D01*
X3272562Y-17261984D02*
X3253515Y-17252460D01*
X3253515Y-17252460D02*
X3243991Y-17242936D01*
X3243991Y-17242936D02*
X3234467Y-17223889D01*
X3234467Y-17223889D02*
X3224943Y-17185793D01*
X3224943Y-17185793D02*
X3224943Y-17138174D01*
X3224943Y-17138174D02*
X3234467Y-17100079D01*
X3234467Y-17100079D02*
X3243991Y-17081031D01*
X3243991Y-17081031D02*
X3253515Y-17071508D01*
X3253515Y-17071508D02*
X3272562Y-17061984D01*
X3463039Y-17061984D02*
X3482086Y-17061984D01*
X3482086Y-17061984D02*
X3501134Y-17071508D01*
X3501134Y-17071508D02*
X3510658Y-17081031D01*
X3510658Y-17081031D02*
X3520182Y-17100079D01*
X3520182Y-17100079D02*
X3529705Y-17138174D01*
X3529705Y-17138174D02*
X3529705Y-17185793D01*
X3529705Y-17185793D02*
X3520182Y-17223889D01*
X3520182Y-17223889D02*
X3510658Y-17242936D01*
X3510658Y-17242936D02*
X3501134Y-17252460D01*
X3501134Y-17252460D02*
X3482086Y-17261984D01*
X3482086Y-17261984D02*
X3463039Y-17261984D01*
X3463039Y-17261984D02*
X3443991Y-17252460D01*
X3443991Y-17252460D02*
X3434467Y-17242936D01*
X3434467Y-17242936D02*
X3424943Y-17223889D01*
X3424943Y-17223889D02*
X3415420Y-17185793D01*
X3415420Y-17185793D02*
X3415420Y-17138174D01*
X3415420Y-17138174D02*
X3424943Y-17100079D01*
X3424943Y-17100079D02*
X3434467Y-17081031D01*
X3434467Y-17081031D02*
X3443991Y-17071508D01*
X3443991Y-17071508D02*
X3463039Y-17061984D01*
X3615420Y-17261984D02*
X3615420Y-17128650D01*
X3615420Y-17147698D02*
X3624943Y-17138174D01*
X3624943Y-17138174D02*
X3643991Y-17128650D01*
X3643991Y-17128650D02*
X3672563Y-17128650D01*
X3672563Y-17128650D02*
X3691610Y-17138174D01*
X3691610Y-17138174D02*
X3701134Y-17157222D01*
X3701134Y-17157222D02*
X3701134Y-17261984D01*
X3701134Y-17157222D02*
X3710658Y-17138174D01*
X3710658Y-17138174D02*
X3729705Y-17128650D01*
X3729705Y-17128650D02*
X3758277Y-17128650D01*
X3758277Y-17128650D02*
X3777324Y-17138174D01*
X3777324Y-17138174D02*
X3786848Y-17157222D01*
X3786848Y-17157222D02*
X3786848Y-17261984D01*
X3882086Y-17261984D02*
X3882086Y-17128650D01*
X3882086Y-17147698D02*
X3891610Y-17138174D01*
X3891610Y-17138174D02*
X3910658Y-17128650D01*
X3910658Y-17128650D02*
X3939229Y-17128650D01*
X3939229Y-17128650D02*
X3958277Y-17138174D01*
X3958277Y-17138174D02*
X3967801Y-17157222D01*
X3967801Y-17157222D02*
X3967801Y-17261984D01*
X3967801Y-17157222D02*
X3977324Y-17138174D01*
X3977324Y-17138174D02*
X3996372Y-17128650D01*
X3996372Y-17128650D02*
X4024943Y-17128650D01*
X4024943Y-17128650D02*
X4043991Y-17138174D01*
X4043991Y-17138174D02*
X4053515Y-17157222D01*
X4053515Y-17157222D02*
X4053515Y-17261984D01*
X4443991Y-17052460D02*
X4272563Y-17309603D01*
X4701134Y-17061984D02*
X4720182Y-17061984D01*
X4720182Y-17061984D02*
X4739229Y-17071508D01*
X4739229Y-17071508D02*
X4748753Y-17081031D01*
X4748753Y-17081031D02*
X4758277Y-17100079D01*
X4758277Y-17100079D02*
X4767801Y-17138174D01*
X4767801Y-17138174D02*
X4767801Y-17185793D01*
X4767801Y-17185793D02*
X4758277Y-17223889D01*
X4758277Y-17223889D02*
X4748753Y-17242936D01*
X4748753Y-17242936D02*
X4739229Y-17252460D01*
X4739229Y-17252460D02*
X4720182Y-17261984D01*
X4720182Y-17261984D02*
X4701134Y-17261984D01*
X4701134Y-17261984D02*
X4682087Y-17252460D01*
X4682087Y-17252460D02*
X4672563Y-17242936D01*
X4672563Y-17242936D02*
X4663039Y-17223889D01*
X4663039Y-17223889D02*
X4653515Y-17185793D01*
X4653515Y-17185793D02*
X4653515Y-17138174D01*
X4653515Y-17138174D02*
X4663039Y-17100079D01*
X4663039Y-17100079D02*
X4672563Y-17081031D01*
X4672563Y-17081031D02*
X4682087Y-17071508D01*
X4682087Y-17071508D02*
X4701134Y-17061984D01*
X4853515Y-17242936D02*
X4863039Y-17252460D01*
X4863039Y-17252460D02*
X4853515Y-17261984D01*
X4853515Y-17261984D02*
X4843991Y-17252460D01*
X4843991Y-17252460D02*
X4853515Y-17242936D01*
X4853515Y-17242936D02*
X4853515Y-17261984D01*
X4986848Y-17061984D02*
X5005896Y-17061984D01*
X5005896Y-17061984D02*
X5024944Y-17071508D01*
X5024944Y-17071508D02*
X5034468Y-17081031D01*
X5034468Y-17081031D02*
X5043991Y-17100079D01*
X5043991Y-17100079D02*
X5053515Y-17138174D01*
X5053515Y-17138174D02*
X5053515Y-17185793D01*
X5053515Y-17185793D02*
X5043991Y-17223889D01*
X5043991Y-17223889D02*
X5034468Y-17242936D01*
X5034468Y-17242936D02*
X5024944Y-17252460D01*
X5024944Y-17252460D02*
X5005896Y-17261984D01*
X5005896Y-17261984D02*
X4986848Y-17261984D01*
X4986848Y-17261984D02*
X4967801Y-17252460D01*
X4967801Y-17252460D02*
X4958277Y-17242936D01*
X4958277Y-17242936D02*
X4948753Y-17223889D01*
X4948753Y-17223889D02*
X4939229Y-17185793D01*
X4939229Y-17185793D02*
X4939229Y-17138174D01*
X4939229Y-17138174D02*
X4948753Y-17100079D01*
X4948753Y-17100079D02*
X4958277Y-17081031D01*
X4958277Y-17081031D02*
X4967801Y-17071508D01*
X4967801Y-17071508D02*
X4986848Y-17061984D01*
X5120182Y-17061984D02*
X5243991Y-17061984D01*
X5243991Y-17061984D02*
X5177325Y-17138174D01*
X5177325Y-17138174D02*
X5205896Y-17138174D01*
X5205896Y-17138174D02*
X5224944Y-17147698D01*
X5224944Y-17147698D02*
X5234468Y-17157222D01*
X5234468Y-17157222D02*
X5243991Y-17176270D01*
X5243991Y-17176270D02*
X5243991Y-17223889D01*
X5243991Y-17223889D02*
X5234468Y-17242936D01*
X5234468Y-17242936D02*
X5224944Y-17252460D01*
X5224944Y-17252460D02*
X5205896Y-17261984D01*
X5205896Y-17261984D02*
X5148753Y-17261984D01*
X5148753Y-17261984D02*
X5129706Y-17252460D01*
X5129706Y-17252460D02*
X5120182Y-17242936D01*
X5339229Y-17261984D02*
X5377325Y-17261984D01*
X5377325Y-17261984D02*
X5396372Y-17252460D01*
X5396372Y-17252460D02*
X5405896Y-17242936D01*
X5405896Y-17242936D02*
X5424944Y-17214365D01*
X5424944Y-17214365D02*
X5434468Y-17176270D01*
X5434468Y-17176270D02*
X5434468Y-17100079D01*
X5434468Y-17100079D02*
X5424944Y-17081031D01*
X5424944Y-17081031D02*
X5415420Y-17071508D01*
X5415420Y-17071508D02*
X5396372Y-17061984D01*
X5396372Y-17061984D02*
X5358277Y-17061984D01*
X5358277Y-17061984D02*
X5339229Y-17071508D01*
X5339229Y-17071508D02*
X5329706Y-17081031D01*
X5329706Y-17081031D02*
X5320182Y-17100079D01*
X5320182Y-17100079D02*
X5320182Y-17147698D01*
X5320182Y-17147698D02*
X5329706Y-17166746D01*
X5329706Y-17166746D02*
X5339229Y-17176270D01*
X5339229Y-17176270D02*
X5358277Y-17185793D01*
X5358277Y-17185793D02*
X5396372Y-17185793D01*
X5396372Y-17185793D02*
X5415420Y-17176270D01*
X5415420Y-17176270D02*
X5424944Y-17166746D01*
X5424944Y-17166746D02*
X5434468Y-17147698D01*
X5605896Y-17128650D02*
X5605896Y-17261984D01*
X5558277Y-17052460D02*
X5510658Y-17195317D01*
X5510658Y-17195317D02*
X5634467Y-17195317D01*
X5701134Y-17061984D02*
X5701134Y-17100079D01*
X5777325Y-17061984D02*
X5777325Y-17100079D01*
X6072563Y-17338174D02*
X6063039Y-17328650D01*
X6063039Y-17328650D02*
X6043991Y-17300079D01*
X6043991Y-17300079D02*
X6034468Y-17281031D01*
X6034468Y-17281031D02*
X6024944Y-17252460D01*
X6024944Y-17252460D02*
X6015420Y-17204841D01*
X6015420Y-17204841D02*
X6015420Y-17166746D01*
X6015420Y-17166746D02*
X6024944Y-17119127D01*
X6024944Y-17119127D02*
X6034468Y-17090555D01*
X6034468Y-17090555D02*
X6043991Y-17071508D01*
X6043991Y-17071508D02*
X6063039Y-17042936D01*
X6063039Y-17042936D02*
X6072563Y-17033412D01*
X6129706Y-17061984D02*
X6253515Y-17061984D01*
X6253515Y-17061984D02*
X6186848Y-17138174D01*
X6186848Y-17138174D02*
X6215420Y-17138174D01*
X6215420Y-17138174D02*
X6234468Y-17147698D01*
X6234468Y-17147698D02*
X6243991Y-17157222D01*
X6243991Y-17157222D02*
X6253515Y-17176270D01*
X6253515Y-17176270D02*
X6253515Y-17223889D01*
X6253515Y-17223889D02*
X6243991Y-17242936D01*
X6243991Y-17242936D02*
X6234468Y-17252460D01*
X6234468Y-17252460D02*
X6215420Y-17261984D01*
X6215420Y-17261984D02*
X6158277Y-17261984D01*
X6158277Y-17261984D02*
X6139229Y-17252460D01*
X6139229Y-17252460D02*
X6129706Y-17242936D01*
X6377325Y-17061984D02*
X6396372Y-17061984D01*
X6396372Y-17061984D02*
X6415420Y-17071508D01*
X6415420Y-17071508D02*
X6424944Y-17081031D01*
X6424944Y-17081031D02*
X6434468Y-17100079D01*
X6434468Y-17100079D02*
X6443991Y-17138174D01*
X6443991Y-17138174D02*
X6443991Y-17185793D01*
X6443991Y-17185793D02*
X6434468Y-17223889D01*
X6434468Y-17223889D02*
X6424944Y-17242936D01*
X6424944Y-17242936D02*
X6415420Y-17252460D01*
X6415420Y-17252460D02*
X6396372Y-17261984D01*
X6396372Y-17261984D02*
X6377325Y-17261984D01*
X6377325Y-17261984D02*
X6358277Y-17252460D01*
X6358277Y-17252460D02*
X6348753Y-17242936D01*
X6348753Y-17242936D02*
X6339229Y-17223889D01*
X6339229Y-17223889D02*
X6329706Y-17185793D01*
X6329706Y-17185793D02*
X6329706Y-17138174D01*
X6329706Y-17138174D02*
X6339229Y-17100079D01*
X6339229Y-17100079D02*
X6348753Y-17081031D01*
X6348753Y-17081031D02*
X6358277Y-17071508D01*
X6358277Y-17071508D02*
X6377325Y-17061984D01*
X6682087Y-17261984D02*
X6682087Y-17061984D01*
X6767801Y-17261984D02*
X6767801Y-17157222D01*
X6767801Y-17157222D02*
X6758277Y-17138174D01*
X6758277Y-17138174D02*
X6739230Y-17128650D01*
X6739230Y-17128650D02*
X6710658Y-17128650D01*
X6710658Y-17128650D02*
X6691610Y-17138174D01*
X6691610Y-17138174D02*
X6682087Y-17147698D01*
X6891610Y-17261984D02*
X6872563Y-17252460D01*
X6872563Y-17252460D02*
X6863039Y-17242936D01*
X6863039Y-17242936D02*
X6853515Y-17223889D01*
X6853515Y-17223889D02*
X6853515Y-17166746D01*
X6853515Y-17166746D02*
X6863039Y-17147698D01*
X6863039Y-17147698D02*
X6872563Y-17138174D01*
X6872563Y-17138174D02*
X6891610Y-17128650D01*
X6891610Y-17128650D02*
X6920182Y-17128650D01*
X6920182Y-17128650D02*
X6939230Y-17138174D01*
X6939230Y-17138174D02*
X6948753Y-17147698D01*
X6948753Y-17147698D02*
X6958277Y-17166746D01*
X6958277Y-17166746D02*
X6958277Y-17223889D01*
X6958277Y-17223889D02*
X6948753Y-17242936D01*
X6948753Y-17242936D02*
X6939230Y-17252460D01*
X6939230Y-17252460D02*
X6920182Y-17261984D01*
X6920182Y-17261984D02*
X6891610Y-17261984D01*
X7072563Y-17261984D02*
X7053515Y-17252460D01*
X7053515Y-17252460D02*
X7043991Y-17233412D01*
X7043991Y-17233412D02*
X7043991Y-17061984D01*
X7224944Y-17252460D02*
X7205896Y-17261984D01*
X7205896Y-17261984D02*
X7167801Y-17261984D01*
X7167801Y-17261984D02*
X7148753Y-17252460D01*
X7148753Y-17252460D02*
X7139230Y-17233412D01*
X7139230Y-17233412D02*
X7139230Y-17157222D01*
X7139230Y-17157222D02*
X7148753Y-17138174D01*
X7148753Y-17138174D02*
X7167801Y-17128650D01*
X7167801Y-17128650D02*
X7205896Y-17128650D01*
X7205896Y-17128650D02*
X7224944Y-17138174D01*
X7224944Y-17138174D02*
X7234468Y-17157222D01*
X7234468Y-17157222D02*
X7234468Y-17176270D01*
X7234468Y-17176270D02*
X7139230Y-17195317D01*
X7310658Y-17252460D02*
X7329706Y-17261984D01*
X7329706Y-17261984D02*
X7367801Y-17261984D01*
X7367801Y-17261984D02*
X7386849Y-17252460D01*
X7386849Y-17252460D02*
X7396372Y-17233412D01*
X7396372Y-17233412D02*
X7396372Y-17223889D01*
X7396372Y-17223889D02*
X7386849Y-17204841D01*
X7386849Y-17204841D02*
X7367801Y-17195317D01*
X7367801Y-17195317D02*
X7339230Y-17195317D01*
X7339230Y-17195317D02*
X7320182Y-17185793D01*
X7320182Y-17185793D02*
X7310658Y-17166746D01*
X7310658Y-17166746D02*
X7310658Y-17157222D01*
X7310658Y-17157222D02*
X7320182Y-17138174D01*
X7320182Y-17138174D02*
X7339230Y-17128650D01*
X7339230Y-17128650D02*
X7367801Y-17128650D01*
X7367801Y-17128650D02*
X7386849Y-17138174D01*
X7463039Y-17338174D02*
X7472563Y-17328650D01*
X7472563Y-17328650D02*
X7491611Y-17300079D01*
X7491611Y-17300079D02*
X7501134Y-17281031D01*
X7501134Y-17281031D02*
X7510658Y-17252460D01*
X7510658Y-17252460D02*
X7520182Y-17204841D01*
X7520182Y-17204841D02*
X7520182Y-17166746D01*
X7520182Y-17166746D02*
X7510658Y-17119127D01*
X7510658Y-17119127D02*
X7501134Y-17090555D01*
X7501134Y-17090555D02*
X7491611Y-17071508D01*
X7491611Y-17071508D02*
X7472563Y-17042936D01*
X7472563Y-17042936D02*
X7463039Y-17033412D01*
D13*
X2482844Y-17469884D02*
X2482844Y-17399116D01*
X2412076Y-17399116D01*
X2412076Y-17469884D01*
X2482844Y-17469884D01*
D11*
X2863039Y-17525984D02*
X2748753Y-17525984D01*
X2805896Y-17525984D02*
X2805896Y-17325984D01*
X2805896Y-17325984D02*
X2786848Y-17354555D01*
X2786848Y-17354555D02*
X2767801Y-17373603D01*
X2767801Y-17373603D02*
X2748753Y-17383127D01*
X2948753Y-17506936D02*
X2958277Y-17516460D01*
X2958277Y-17516460D02*
X2948753Y-17525984D01*
X2948753Y-17525984D02*
X2939229Y-17516460D01*
X2939229Y-17516460D02*
X2948753Y-17506936D01*
X2948753Y-17506936D02*
X2948753Y-17525984D01*
X3082086Y-17325984D02*
X3101134Y-17325984D01*
X3101134Y-17325984D02*
X3120182Y-17335508D01*
X3120182Y-17335508D02*
X3129705Y-17345031D01*
X3129705Y-17345031D02*
X3139229Y-17364079D01*
X3139229Y-17364079D02*
X3148753Y-17402174D01*
X3148753Y-17402174D02*
X3148753Y-17449793D01*
X3148753Y-17449793D02*
X3139229Y-17487889D01*
X3139229Y-17487889D02*
X3129705Y-17506936D01*
X3129705Y-17506936D02*
X3120182Y-17516460D01*
X3120182Y-17516460D02*
X3101134Y-17525984D01*
X3101134Y-17525984D02*
X3082086Y-17525984D01*
X3082086Y-17525984D02*
X3063039Y-17516460D01*
X3063039Y-17516460D02*
X3053515Y-17506936D01*
X3053515Y-17506936D02*
X3043991Y-17487889D01*
X3043991Y-17487889D02*
X3034467Y-17449793D01*
X3034467Y-17449793D02*
X3034467Y-17402174D01*
X3034467Y-17402174D02*
X3043991Y-17364079D01*
X3043991Y-17364079D02*
X3053515Y-17345031D01*
X3053515Y-17345031D02*
X3063039Y-17335508D01*
X3063039Y-17335508D02*
X3082086Y-17325984D01*
X3272562Y-17325984D02*
X3291610Y-17325984D01*
X3291610Y-17325984D02*
X3310658Y-17335508D01*
X3310658Y-17335508D02*
X3320182Y-17345031D01*
X3320182Y-17345031D02*
X3329705Y-17364079D01*
X3329705Y-17364079D02*
X3339229Y-17402174D01*
X3339229Y-17402174D02*
X3339229Y-17449793D01*
X3339229Y-17449793D02*
X3329705Y-17487889D01*
X3329705Y-17487889D02*
X3320182Y-17506936D01*
X3320182Y-17506936D02*
X3310658Y-17516460D01*
X3310658Y-17516460D02*
X3291610Y-17525984D01*
X3291610Y-17525984D02*
X3272562Y-17525984D01*
X3272562Y-17525984D02*
X3253515Y-17516460D01*
X3253515Y-17516460D02*
X3243991Y-17506936D01*
X3243991Y-17506936D02*
X3234467Y-17487889D01*
X3234467Y-17487889D02*
X3224943Y-17449793D01*
X3224943Y-17449793D02*
X3224943Y-17402174D01*
X3224943Y-17402174D02*
X3234467Y-17364079D01*
X3234467Y-17364079D02*
X3243991Y-17345031D01*
X3243991Y-17345031D02*
X3253515Y-17335508D01*
X3253515Y-17335508D02*
X3272562Y-17325984D01*
X3529705Y-17525984D02*
X3415420Y-17525984D01*
X3472562Y-17525984D02*
X3472562Y-17325984D01*
X3472562Y-17325984D02*
X3453515Y-17354555D01*
X3453515Y-17354555D02*
X3434467Y-17373603D01*
X3434467Y-17373603D02*
X3415420Y-17383127D01*
X3615420Y-17525984D02*
X3615420Y-17392650D01*
X3615420Y-17411698D02*
X3624943Y-17402174D01*
X3624943Y-17402174D02*
X3643991Y-17392650D01*
X3643991Y-17392650D02*
X3672563Y-17392650D01*
X3672563Y-17392650D02*
X3691610Y-17402174D01*
X3691610Y-17402174D02*
X3701134Y-17421222D01*
X3701134Y-17421222D02*
X3701134Y-17525984D01*
X3701134Y-17421222D02*
X3710658Y-17402174D01*
X3710658Y-17402174D02*
X3729705Y-17392650D01*
X3729705Y-17392650D02*
X3758277Y-17392650D01*
X3758277Y-17392650D02*
X3777324Y-17402174D01*
X3777324Y-17402174D02*
X3786848Y-17421222D01*
X3786848Y-17421222D02*
X3786848Y-17525984D01*
X3882086Y-17525984D02*
X3882086Y-17392650D01*
X3882086Y-17411698D02*
X3891610Y-17402174D01*
X3891610Y-17402174D02*
X3910658Y-17392650D01*
X3910658Y-17392650D02*
X3939229Y-17392650D01*
X3939229Y-17392650D02*
X3958277Y-17402174D01*
X3958277Y-17402174D02*
X3967801Y-17421222D01*
X3967801Y-17421222D02*
X3967801Y-17525984D01*
X3967801Y-17421222D02*
X3977324Y-17402174D01*
X3977324Y-17402174D02*
X3996372Y-17392650D01*
X3996372Y-17392650D02*
X4024943Y-17392650D01*
X4024943Y-17392650D02*
X4043991Y-17402174D01*
X4043991Y-17402174D02*
X4053515Y-17421222D01*
X4053515Y-17421222D02*
X4053515Y-17525984D01*
X4443991Y-17316460D02*
X4272563Y-17573603D01*
X4701134Y-17325984D02*
X4720182Y-17325984D01*
X4720182Y-17325984D02*
X4739229Y-17335508D01*
X4739229Y-17335508D02*
X4748753Y-17345031D01*
X4748753Y-17345031D02*
X4758277Y-17364079D01*
X4758277Y-17364079D02*
X4767801Y-17402174D01*
X4767801Y-17402174D02*
X4767801Y-17449793D01*
X4767801Y-17449793D02*
X4758277Y-17487889D01*
X4758277Y-17487889D02*
X4748753Y-17506936D01*
X4748753Y-17506936D02*
X4739229Y-17516460D01*
X4739229Y-17516460D02*
X4720182Y-17525984D01*
X4720182Y-17525984D02*
X4701134Y-17525984D01*
X4701134Y-17525984D02*
X4682087Y-17516460D01*
X4682087Y-17516460D02*
X4672563Y-17506936D01*
X4672563Y-17506936D02*
X4663039Y-17487889D01*
X4663039Y-17487889D02*
X4653515Y-17449793D01*
X4653515Y-17449793D02*
X4653515Y-17402174D01*
X4653515Y-17402174D02*
X4663039Y-17364079D01*
X4663039Y-17364079D02*
X4672563Y-17345031D01*
X4672563Y-17345031D02*
X4682087Y-17335508D01*
X4682087Y-17335508D02*
X4701134Y-17325984D01*
X4853515Y-17506936D02*
X4863039Y-17516460D01*
X4863039Y-17516460D02*
X4853515Y-17525984D01*
X4853515Y-17525984D02*
X4843991Y-17516460D01*
X4843991Y-17516460D02*
X4853515Y-17506936D01*
X4853515Y-17506936D02*
X4853515Y-17525984D01*
X4986848Y-17325984D02*
X5005896Y-17325984D01*
X5005896Y-17325984D02*
X5024944Y-17335508D01*
X5024944Y-17335508D02*
X5034468Y-17345031D01*
X5034468Y-17345031D02*
X5043991Y-17364079D01*
X5043991Y-17364079D02*
X5053515Y-17402174D01*
X5053515Y-17402174D02*
X5053515Y-17449793D01*
X5053515Y-17449793D02*
X5043991Y-17487889D01*
X5043991Y-17487889D02*
X5034468Y-17506936D01*
X5034468Y-17506936D02*
X5024944Y-17516460D01*
X5024944Y-17516460D02*
X5005896Y-17525984D01*
X5005896Y-17525984D02*
X4986848Y-17525984D01*
X4986848Y-17525984D02*
X4967801Y-17516460D01*
X4967801Y-17516460D02*
X4958277Y-17506936D01*
X4958277Y-17506936D02*
X4948753Y-17487889D01*
X4948753Y-17487889D02*
X4939229Y-17449793D01*
X4939229Y-17449793D02*
X4939229Y-17402174D01*
X4939229Y-17402174D02*
X4948753Y-17364079D01*
X4948753Y-17364079D02*
X4958277Y-17345031D01*
X4958277Y-17345031D02*
X4967801Y-17335508D01*
X4967801Y-17335508D02*
X4986848Y-17325984D01*
X5120182Y-17325984D02*
X5243991Y-17325984D01*
X5243991Y-17325984D02*
X5177325Y-17402174D01*
X5177325Y-17402174D02*
X5205896Y-17402174D01*
X5205896Y-17402174D02*
X5224944Y-17411698D01*
X5224944Y-17411698D02*
X5234468Y-17421222D01*
X5234468Y-17421222D02*
X5243991Y-17440270D01*
X5243991Y-17440270D02*
X5243991Y-17487889D01*
X5243991Y-17487889D02*
X5234468Y-17506936D01*
X5234468Y-17506936D02*
X5224944Y-17516460D01*
X5224944Y-17516460D02*
X5205896Y-17525984D01*
X5205896Y-17525984D02*
X5148753Y-17525984D01*
X5148753Y-17525984D02*
X5129706Y-17516460D01*
X5129706Y-17516460D02*
X5120182Y-17506936D01*
X5339229Y-17525984D02*
X5377325Y-17525984D01*
X5377325Y-17525984D02*
X5396372Y-17516460D01*
X5396372Y-17516460D02*
X5405896Y-17506936D01*
X5405896Y-17506936D02*
X5424944Y-17478365D01*
X5424944Y-17478365D02*
X5434468Y-17440270D01*
X5434468Y-17440270D02*
X5434468Y-17364079D01*
X5434468Y-17364079D02*
X5424944Y-17345031D01*
X5424944Y-17345031D02*
X5415420Y-17335508D01*
X5415420Y-17335508D02*
X5396372Y-17325984D01*
X5396372Y-17325984D02*
X5358277Y-17325984D01*
X5358277Y-17325984D02*
X5339229Y-17335508D01*
X5339229Y-17335508D02*
X5329706Y-17345031D01*
X5329706Y-17345031D02*
X5320182Y-17364079D01*
X5320182Y-17364079D02*
X5320182Y-17411698D01*
X5320182Y-17411698D02*
X5329706Y-17430746D01*
X5329706Y-17430746D02*
X5339229Y-17440270D01*
X5339229Y-17440270D02*
X5358277Y-17449793D01*
X5358277Y-17449793D02*
X5396372Y-17449793D01*
X5396372Y-17449793D02*
X5415420Y-17440270D01*
X5415420Y-17440270D02*
X5424944Y-17430746D01*
X5424944Y-17430746D02*
X5434468Y-17411698D01*
X5605896Y-17392650D02*
X5605896Y-17525984D01*
X5558277Y-17316460D02*
X5510658Y-17459317D01*
X5510658Y-17459317D02*
X5634467Y-17459317D01*
X5701134Y-17325984D02*
X5701134Y-17364079D01*
X5777325Y-17325984D02*
X5777325Y-17364079D01*
X6072563Y-17602174D02*
X6063039Y-17592650D01*
X6063039Y-17592650D02*
X6043991Y-17564079D01*
X6043991Y-17564079D02*
X6034468Y-17545031D01*
X6034468Y-17545031D02*
X6024944Y-17516460D01*
X6024944Y-17516460D02*
X6015420Y-17468841D01*
X6015420Y-17468841D02*
X6015420Y-17430746D01*
X6015420Y-17430746D02*
X6024944Y-17383127D01*
X6024944Y-17383127D02*
X6034468Y-17354555D01*
X6034468Y-17354555D02*
X6043991Y-17335508D01*
X6043991Y-17335508D02*
X6063039Y-17306936D01*
X6063039Y-17306936D02*
X6072563Y-17297412D01*
X6253515Y-17525984D02*
X6139229Y-17525984D01*
X6196372Y-17525984D02*
X6196372Y-17325984D01*
X6196372Y-17325984D02*
X6177325Y-17354555D01*
X6177325Y-17354555D02*
X6158277Y-17373603D01*
X6158277Y-17373603D02*
X6139229Y-17383127D01*
X6377325Y-17325984D02*
X6396372Y-17325984D01*
X6396372Y-17325984D02*
X6415420Y-17335508D01*
X6415420Y-17335508D02*
X6424944Y-17345031D01*
X6424944Y-17345031D02*
X6434468Y-17364079D01*
X6434468Y-17364079D02*
X6443991Y-17402174D01*
X6443991Y-17402174D02*
X6443991Y-17449793D01*
X6443991Y-17449793D02*
X6434468Y-17487889D01*
X6434468Y-17487889D02*
X6424944Y-17506936D01*
X6424944Y-17506936D02*
X6415420Y-17516460D01*
X6415420Y-17516460D02*
X6396372Y-17525984D01*
X6396372Y-17525984D02*
X6377325Y-17525984D01*
X6377325Y-17525984D02*
X6358277Y-17516460D01*
X6358277Y-17516460D02*
X6348753Y-17506936D01*
X6348753Y-17506936D02*
X6339229Y-17487889D01*
X6339229Y-17487889D02*
X6329706Y-17449793D01*
X6329706Y-17449793D02*
X6329706Y-17402174D01*
X6329706Y-17402174D02*
X6339229Y-17364079D01*
X6339229Y-17364079D02*
X6348753Y-17345031D01*
X6348753Y-17345031D02*
X6358277Y-17335508D01*
X6358277Y-17335508D02*
X6377325Y-17325984D01*
X6682087Y-17525984D02*
X6682087Y-17325984D01*
X6767801Y-17525984D02*
X6767801Y-17421222D01*
X6767801Y-17421222D02*
X6758277Y-17402174D01*
X6758277Y-17402174D02*
X6739230Y-17392650D01*
X6739230Y-17392650D02*
X6710658Y-17392650D01*
X6710658Y-17392650D02*
X6691610Y-17402174D01*
X6691610Y-17402174D02*
X6682087Y-17411698D01*
X6891610Y-17525984D02*
X6872563Y-17516460D01*
X6872563Y-17516460D02*
X6863039Y-17506936D01*
X6863039Y-17506936D02*
X6853515Y-17487889D01*
X6853515Y-17487889D02*
X6853515Y-17430746D01*
X6853515Y-17430746D02*
X6863039Y-17411698D01*
X6863039Y-17411698D02*
X6872563Y-17402174D01*
X6872563Y-17402174D02*
X6891610Y-17392650D01*
X6891610Y-17392650D02*
X6920182Y-17392650D01*
X6920182Y-17392650D02*
X6939230Y-17402174D01*
X6939230Y-17402174D02*
X6948753Y-17411698D01*
X6948753Y-17411698D02*
X6958277Y-17430746D01*
X6958277Y-17430746D02*
X6958277Y-17487889D01*
X6958277Y-17487889D02*
X6948753Y-17506936D01*
X6948753Y-17506936D02*
X6939230Y-17516460D01*
X6939230Y-17516460D02*
X6920182Y-17525984D01*
X6920182Y-17525984D02*
X6891610Y-17525984D01*
X7072563Y-17525984D02*
X7053515Y-17516460D01*
X7053515Y-17516460D02*
X7043991Y-17497412D01*
X7043991Y-17497412D02*
X7043991Y-17325984D01*
X7224944Y-17516460D02*
X7205896Y-17525984D01*
X7205896Y-17525984D02*
X7167801Y-17525984D01*
X7167801Y-17525984D02*
X7148753Y-17516460D01*
X7148753Y-17516460D02*
X7139230Y-17497412D01*
X7139230Y-17497412D02*
X7139230Y-17421222D01*
X7139230Y-17421222D02*
X7148753Y-17402174D01*
X7148753Y-17402174D02*
X7167801Y-17392650D01*
X7167801Y-17392650D02*
X7205896Y-17392650D01*
X7205896Y-17392650D02*
X7224944Y-17402174D01*
X7224944Y-17402174D02*
X7234468Y-17421222D01*
X7234468Y-17421222D02*
X7234468Y-17440270D01*
X7234468Y-17440270D02*
X7139230Y-17459317D01*
X7310658Y-17516460D02*
X7329706Y-17525984D01*
X7329706Y-17525984D02*
X7367801Y-17525984D01*
X7367801Y-17525984D02*
X7386849Y-17516460D01*
X7386849Y-17516460D02*
X7396372Y-17497412D01*
X7396372Y-17497412D02*
X7396372Y-17487889D01*
X7396372Y-17487889D02*
X7386849Y-17468841D01*
X7386849Y-17468841D02*
X7367801Y-17459317D01*
X7367801Y-17459317D02*
X7339230Y-17459317D01*
X7339230Y-17459317D02*
X7320182Y-17449793D01*
X7320182Y-17449793D02*
X7310658Y-17430746D01*
X7310658Y-17430746D02*
X7310658Y-17421222D01*
X7310658Y-17421222D02*
X7320182Y-17402174D01*
X7320182Y-17402174D02*
X7339230Y-17392650D01*
X7339230Y-17392650D02*
X7367801Y-17392650D01*
X7367801Y-17392650D02*
X7386849Y-17402174D01*
X7463039Y-17602174D02*
X7472563Y-17592650D01*
X7472563Y-17592650D02*
X7491611Y-17564079D01*
X7491611Y-17564079D02*
X7501134Y-17545031D01*
X7501134Y-17545031D02*
X7510658Y-17516460D01*
X7510658Y-17516460D02*
X7520182Y-17468841D01*
X7520182Y-17468841D02*
X7520182Y-17430746D01*
X7520182Y-17430746D02*
X7510658Y-17383127D01*
X7510658Y-17383127D02*
X7501134Y-17354555D01*
X7501134Y-17354555D02*
X7491611Y-17335508D01*
X7491611Y-17335508D02*
X7472563Y-17306936D01*
X7472563Y-17306936D02*
X7463039Y-17297412D01*
D14*
X2446700Y-17749300D02*
X2497500Y-17698500D01*
X2446700Y-17647700D01*
X2395900Y-17698500D01*
X2446700Y-17749300D01*
D11*
X2863039Y-17789984D02*
X2748753Y-17789984D01*
X2805896Y-17789984D02*
X2805896Y-17589984D01*
X2805896Y-17589984D02*
X2786848Y-17618555D01*
X2786848Y-17618555D02*
X2767801Y-17637603D01*
X2767801Y-17637603D02*
X2748753Y-17647127D01*
X2948753Y-17770936D02*
X2958277Y-17780460D01*
X2958277Y-17780460D02*
X2948753Y-17789984D01*
X2948753Y-17789984D02*
X2939229Y-17780460D01*
X2939229Y-17780460D02*
X2948753Y-17770936D01*
X2948753Y-17770936D02*
X2948753Y-17789984D01*
X3082086Y-17589984D02*
X3101134Y-17589984D01*
X3101134Y-17589984D02*
X3120182Y-17599508D01*
X3120182Y-17599508D02*
X3129705Y-17609031D01*
X3129705Y-17609031D02*
X3139229Y-17628079D01*
X3139229Y-17628079D02*
X3148753Y-17666174D01*
X3148753Y-17666174D02*
X3148753Y-17713793D01*
X3148753Y-17713793D02*
X3139229Y-17751889D01*
X3139229Y-17751889D02*
X3129705Y-17770936D01*
X3129705Y-17770936D02*
X3120182Y-17780460D01*
X3120182Y-17780460D02*
X3101134Y-17789984D01*
X3101134Y-17789984D02*
X3082086Y-17789984D01*
X3082086Y-17789984D02*
X3063039Y-17780460D01*
X3063039Y-17780460D02*
X3053515Y-17770936D01*
X3053515Y-17770936D02*
X3043991Y-17751889D01*
X3043991Y-17751889D02*
X3034467Y-17713793D01*
X3034467Y-17713793D02*
X3034467Y-17666174D01*
X3034467Y-17666174D02*
X3043991Y-17628079D01*
X3043991Y-17628079D02*
X3053515Y-17609031D01*
X3053515Y-17609031D02*
X3063039Y-17599508D01*
X3063039Y-17599508D02*
X3082086Y-17589984D01*
X3339229Y-17789984D02*
X3224943Y-17789984D01*
X3282086Y-17789984D02*
X3282086Y-17589984D01*
X3282086Y-17589984D02*
X3263039Y-17618555D01*
X3263039Y-17618555D02*
X3243991Y-17637603D01*
X3243991Y-17637603D02*
X3224943Y-17647127D01*
X3510658Y-17589984D02*
X3472562Y-17589984D01*
X3472562Y-17589984D02*
X3453515Y-17599508D01*
X3453515Y-17599508D02*
X3443991Y-17609031D01*
X3443991Y-17609031D02*
X3424943Y-17637603D01*
X3424943Y-17637603D02*
X3415420Y-17675698D01*
X3415420Y-17675698D02*
X3415420Y-17751889D01*
X3415420Y-17751889D02*
X3424943Y-17770936D01*
X3424943Y-17770936D02*
X3434467Y-17780460D01*
X3434467Y-17780460D02*
X3453515Y-17789984D01*
X3453515Y-17789984D02*
X3491610Y-17789984D01*
X3491610Y-17789984D02*
X3510658Y-17780460D01*
X3510658Y-17780460D02*
X3520182Y-17770936D01*
X3520182Y-17770936D02*
X3529705Y-17751889D01*
X3529705Y-17751889D02*
X3529705Y-17704270D01*
X3529705Y-17704270D02*
X3520182Y-17685222D01*
X3520182Y-17685222D02*
X3510658Y-17675698D01*
X3510658Y-17675698D02*
X3491610Y-17666174D01*
X3491610Y-17666174D02*
X3453515Y-17666174D01*
X3453515Y-17666174D02*
X3434467Y-17675698D01*
X3434467Y-17675698D02*
X3424943Y-17685222D01*
X3424943Y-17685222D02*
X3415420Y-17704270D01*
X3615420Y-17789984D02*
X3615420Y-17656650D01*
X3615420Y-17675698D02*
X3624943Y-17666174D01*
X3624943Y-17666174D02*
X3643991Y-17656650D01*
X3643991Y-17656650D02*
X3672563Y-17656650D01*
X3672563Y-17656650D02*
X3691610Y-17666174D01*
X3691610Y-17666174D02*
X3701134Y-17685222D01*
X3701134Y-17685222D02*
X3701134Y-17789984D01*
X3701134Y-17685222D02*
X3710658Y-17666174D01*
X3710658Y-17666174D02*
X3729705Y-17656650D01*
X3729705Y-17656650D02*
X3758277Y-17656650D01*
X3758277Y-17656650D02*
X3777324Y-17666174D01*
X3777324Y-17666174D02*
X3786848Y-17685222D01*
X3786848Y-17685222D02*
X3786848Y-17789984D01*
X3882086Y-17789984D02*
X3882086Y-17656650D01*
X3882086Y-17675698D02*
X3891610Y-17666174D01*
X3891610Y-17666174D02*
X3910658Y-17656650D01*
X3910658Y-17656650D02*
X3939229Y-17656650D01*
X3939229Y-17656650D02*
X3958277Y-17666174D01*
X3958277Y-17666174D02*
X3967801Y-17685222D01*
X3967801Y-17685222D02*
X3967801Y-17789984D01*
X3967801Y-17685222D02*
X3977324Y-17666174D01*
X3977324Y-17666174D02*
X3996372Y-17656650D01*
X3996372Y-17656650D02*
X4024943Y-17656650D01*
X4024943Y-17656650D02*
X4043991Y-17666174D01*
X4043991Y-17666174D02*
X4053515Y-17685222D01*
X4053515Y-17685222D02*
X4053515Y-17789984D01*
X4443991Y-17580460D02*
X4272563Y-17837603D01*
X4701134Y-17589984D02*
X4720182Y-17589984D01*
X4720182Y-17589984D02*
X4739229Y-17599508D01*
X4739229Y-17599508D02*
X4748753Y-17609031D01*
X4748753Y-17609031D02*
X4758277Y-17628079D01*
X4758277Y-17628079D02*
X4767801Y-17666174D01*
X4767801Y-17666174D02*
X4767801Y-17713793D01*
X4767801Y-17713793D02*
X4758277Y-17751889D01*
X4758277Y-17751889D02*
X4748753Y-17770936D01*
X4748753Y-17770936D02*
X4739229Y-17780460D01*
X4739229Y-17780460D02*
X4720182Y-17789984D01*
X4720182Y-17789984D02*
X4701134Y-17789984D01*
X4701134Y-17789984D02*
X4682087Y-17780460D01*
X4682087Y-17780460D02*
X4672563Y-17770936D01*
X4672563Y-17770936D02*
X4663039Y-17751889D01*
X4663039Y-17751889D02*
X4653515Y-17713793D01*
X4653515Y-17713793D02*
X4653515Y-17666174D01*
X4653515Y-17666174D02*
X4663039Y-17628079D01*
X4663039Y-17628079D02*
X4672563Y-17609031D01*
X4672563Y-17609031D02*
X4682087Y-17599508D01*
X4682087Y-17599508D02*
X4701134Y-17589984D01*
X4853515Y-17770936D02*
X4863039Y-17780460D01*
X4863039Y-17780460D02*
X4853515Y-17789984D01*
X4853515Y-17789984D02*
X4843991Y-17780460D01*
X4843991Y-17780460D02*
X4853515Y-17770936D01*
X4853515Y-17770936D02*
X4853515Y-17789984D01*
X4986848Y-17589984D02*
X5005896Y-17589984D01*
X5005896Y-17589984D02*
X5024944Y-17599508D01*
X5024944Y-17599508D02*
X5034468Y-17609031D01*
X5034468Y-17609031D02*
X5043991Y-17628079D01*
X5043991Y-17628079D02*
X5053515Y-17666174D01*
X5053515Y-17666174D02*
X5053515Y-17713793D01*
X5053515Y-17713793D02*
X5043991Y-17751889D01*
X5043991Y-17751889D02*
X5034468Y-17770936D01*
X5034468Y-17770936D02*
X5024944Y-17780460D01*
X5024944Y-17780460D02*
X5005896Y-17789984D01*
X5005896Y-17789984D02*
X4986848Y-17789984D01*
X4986848Y-17789984D02*
X4967801Y-17780460D01*
X4967801Y-17780460D02*
X4958277Y-17770936D01*
X4958277Y-17770936D02*
X4948753Y-17751889D01*
X4948753Y-17751889D02*
X4939229Y-17713793D01*
X4939229Y-17713793D02*
X4939229Y-17666174D01*
X4939229Y-17666174D02*
X4948753Y-17628079D01*
X4948753Y-17628079D02*
X4958277Y-17609031D01*
X4958277Y-17609031D02*
X4967801Y-17599508D01*
X4967801Y-17599508D02*
X4986848Y-17589984D01*
X5224944Y-17656650D02*
X5224944Y-17789984D01*
X5177325Y-17580460D02*
X5129706Y-17723317D01*
X5129706Y-17723317D02*
X5253515Y-17723317D01*
X5367801Y-17589984D02*
X5386849Y-17589984D01*
X5386849Y-17589984D02*
X5405896Y-17599508D01*
X5405896Y-17599508D02*
X5415420Y-17609031D01*
X5415420Y-17609031D02*
X5424944Y-17628079D01*
X5424944Y-17628079D02*
X5434468Y-17666174D01*
X5434468Y-17666174D02*
X5434468Y-17713793D01*
X5434468Y-17713793D02*
X5424944Y-17751889D01*
X5424944Y-17751889D02*
X5415420Y-17770936D01*
X5415420Y-17770936D02*
X5405896Y-17780460D01*
X5405896Y-17780460D02*
X5386849Y-17789984D01*
X5386849Y-17789984D02*
X5367801Y-17789984D01*
X5367801Y-17789984D02*
X5348753Y-17780460D01*
X5348753Y-17780460D02*
X5339229Y-17770936D01*
X5339229Y-17770936D02*
X5329706Y-17751889D01*
X5329706Y-17751889D02*
X5320182Y-17713793D01*
X5320182Y-17713793D02*
X5320182Y-17666174D01*
X5320182Y-17666174D02*
X5329706Y-17628079D01*
X5329706Y-17628079D02*
X5339229Y-17609031D01*
X5339229Y-17609031D02*
X5348753Y-17599508D01*
X5348753Y-17599508D02*
X5367801Y-17589984D01*
X5558277Y-17589984D02*
X5577325Y-17589984D01*
X5577325Y-17589984D02*
X5596372Y-17599508D01*
X5596372Y-17599508D02*
X5605896Y-17609031D01*
X5605896Y-17609031D02*
X5615420Y-17628079D01*
X5615420Y-17628079D02*
X5624944Y-17666174D01*
X5624944Y-17666174D02*
X5624944Y-17713793D01*
X5624944Y-17713793D02*
X5615420Y-17751889D01*
X5615420Y-17751889D02*
X5605896Y-17770936D01*
X5605896Y-17770936D02*
X5596372Y-17780460D01*
X5596372Y-17780460D02*
X5577325Y-17789984D01*
X5577325Y-17789984D02*
X5558277Y-17789984D01*
X5558277Y-17789984D02*
X5539229Y-17780460D01*
X5539229Y-17780460D02*
X5529706Y-17770936D01*
X5529706Y-17770936D02*
X5520182Y-17751889D01*
X5520182Y-17751889D02*
X5510658Y-17713793D01*
X5510658Y-17713793D02*
X5510658Y-17666174D01*
X5510658Y-17666174D02*
X5520182Y-17628079D01*
X5520182Y-17628079D02*
X5529706Y-17609031D01*
X5529706Y-17609031D02*
X5539229Y-17599508D01*
X5539229Y-17599508D02*
X5558277Y-17589984D01*
X5701134Y-17589984D02*
X5701134Y-17628079D01*
X5777325Y-17589984D02*
X5777325Y-17628079D01*
X6072563Y-17866174D02*
X6063039Y-17856650D01*
X6063039Y-17856650D02*
X6043991Y-17828079D01*
X6043991Y-17828079D02*
X6034468Y-17809031D01*
X6034468Y-17809031D02*
X6024944Y-17780460D01*
X6024944Y-17780460D02*
X6015420Y-17732841D01*
X6015420Y-17732841D02*
X6015420Y-17694746D01*
X6015420Y-17694746D02*
X6024944Y-17647127D01*
X6024944Y-17647127D02*
X6034468Y-17618555D01*
X6034468Y-17618555D02*
X6043991Y-17599508D01*
X6043991Y-17599508D02*
X6063039Y-17570936D01*
X6063039Y-17570936D02*
X6072563Y-17561412D01*
X6234468Y-17589984D02*
X6196372Y-17589984D01*
X6196372Y-17589984D02*
X6177325Y-17599508D01*
X6177325Y-17599508D02*
X6167801Y-17609031D01*
X6167801Y-17609031D02*
X6148753Y-17637603D01*
X6148753Y-17637603D02*
X6139229Y-17675698D01*
X6139229Y-17675698D02*
X6139229Y-17751889D01*
X6139229Y-17751889D02*
X6148753Y-17770936D01*
X6148753Y-17770936D02*
X6158277Y-17780460D01*
X6158277Y-17780460D02*
X6177325Y-17789984D01*
X6177325Y-17789984D02*
X6215420Y-17789984D01*
X6215420Y-17789984D02*
X6234468Y-17780460D01*
X6234468Y-17780460D02*
X6243991Y-17770936D01*
X6243991Y-17770936D02*
X6253515Y-17751889D01*
X6253515Y-17751889D02*
X6253515Y-17704270D01*
X6253515Y-17704270D02*
X6243991Y-17685222D01*
X6243991Y-17685222D02*
X6234468Y-17675698D01*
X6234468Y-17675698D02*
X6215420Y-17666174D01*
X6215420Y-17666174D02*
X6177325Y-17666174D01*
X6177325Y-17666174D02*
X6158277Y-17675698D01*
X6158277Y-17675698D02*
X6148753Y-17685222D01*
X6148753Y-17685222D02*
X6139229Y-17704270D01*
X6491610Y-17789984D02*
X6491610Y-17589984D01*
X6577325Y-17789984D02*
X6577325Y-17685222D01*
X6577325Y-17685222D02*
X6567801Y-17666174D01*
X6567801Y-17666174D02*
X6548753Y-17656650D01*
X6548753Y-17656650D02*
X6520182Y-17656650D01*
X6520182Y-17656650D02*
X6501134Y-17666174D01*
X6501134Y-17666174D02*
X6491610Y-17675698D01*
X6701134Y-17789984D02*
X6682087Y-17780460D01*
X6682087Y-17780460D02*
X6672563Y-17770936D01*
X6672563Y-17770936D02*
X6663039Y-17751889D01*
X6663039Y-17751889D02*
X6663039Y-17694746D01*
X6663039Y-17694746D02*
X6672563Y-17675698D01*
X6672563Y-17675698D02*
X6682087Y-17666174D01*
X6682087Y-17666174D02*
X6701134Y-17656650D01*
X6701134Y-17656650D02*
X6729706Y-17656650D01*
X6729706Y-17656650D02*
X6748753Y-17666174D01*
X6748753Y-17666174D02*
X6758277Y-17675698D01*
X6758277Y-17675698D02*
X6767801Y-17694746D01*
X6767801Y-17694746D02*
X6767801Y-17751889D01*
X6767801Y-17751889D02*
X6758277Y-17770936D01*
X6758277Y-17770936D02*
X6748753Y-17780460D01*
X6748753Y-17780460D02*
X6729706Y-17789984D01*
X6729706Y-17789984D02*
X6701134Y-17789984D01*
X6882087Y-17789984D02*
X6863039Y-17780460D01*
X6863039Y-17780460D02*
X6853515Y-17761412D01*
X6853515Y-17761412D02*
X6853515Y-17589984D01*
X7034468Y-17780460D02*
X7015420Y-17789984D01*
X7015420Y-17789984D02*
X6977325Y-17789984D01*
X6977325Y-17789984D02*
X6958277Y-17780460D01*
X6958277Y-17780460D02*
X6948753Y-17761412D01*
X6948753Y-17761412D02*
X6948753Y-17685222D01*
X6948753Y-17685222D02*
X6958277Y-17666174D01*
X6958277Y-17666174D02*
X6977325Y-17656650D01*
X6977325Y-17656650D02*
X7015420Y-17656650D01*
X7015420Y-17656650D02*
X7034468Y-17666174D01*
X7034468Y-17666174D02*
X7043991Y-17685222D01*
X7043991Y-17685222D02*
X7043991Y-17704270D01*
X7043991Y-17704270D02*
X6948753Y-17723317D01*
X7120182Y-17780460D02*
X7139230Y-17789984D01*
X7139230Y-17789984D02*
X7177325Y-17789984D01*
X7177325Y-17789984D02*
X7196372Y-17780460D01*
X7196372Y-17780460D02*
X7205896Y-17761412D01*
X7205896Y-17761412D02*
X7205896Y-17751889D01*
X7205896Y-17751889D02*
X7196372Y-17732841D01*
X7196372Y-17732841D02*
X7177325Y-17723317D01*
X7177325Y-17723317D02*
X7148753Y-17723317D01*
X7148753Y-17723317D02*
X7129706Y-17713793D01*
X7129706Y-17713793D02*
X7120182Y-17694746D01*
X7120182Y-17694746D02*
X7120182Y-17685222D01*
X7120182Y-17685222D02*
X7129706Y-17666174D01*
X7129706Y-17666174D02*
X7148753Y-17656650D01*
X7148753Y-17656650D02*
X7177325Y-17656650D01*
X7177325Y-17656650D02*
X7196372Y-17666174D01*
X7272563Y-17866174D02*
X7282087Y-17856650D01*
X7282087Y-17856650D02*
X7301134Y-17828079D01*
X7301134Y-17828079D02*
X7310658Y-17809031D01*
X7310658Y-17809031D02*
X7320182Y-17780460D01*
X7320182Y-17780460D02*
X7329706Y-17732841D01*
X7329706Y-17732841D02*
X7329706Y-17694746D01*
X7329706Y-17694746D02*
X7320182Y-17647127D01*
X7320182Y-17647127D02*
X7310658Y-17618555D01*
X7310658Y-17618555D02*
X7301134Y-17599508D01*
X7301134Y-17599508D02*
X7282087Y-17570936D01*
X7282087Y-17570936D02*
X7272563Y-17561412D01*
D15*
X2387260Y-17907380D02*
X2497500Y-18017620D01*
X2497500Y-17907380D02*
X2387260Y-18017620D01*
X2497500Y-17962500D02*
G75*
G02*
X2387260Y-17962500I-55120J0D01*
G01*
X2387260Y-17962500D02*
G75*
G02*
X2497500Y-17962500I55120J0D01*
G01*
D11*
X2863039Y-18053984D02*
X2748753Y-18053984D01*
X2805896Y-18053984D02*
X2805896Y-17853984D01*
X2805896Y-17853984D02*
X2786848Y-17882555D01*
X2786848Y-17882555D02*
X2767801Y-17901603D01*
X2767801Y-17901603D02*
X2748753Y-17911127D01*
X2948753Y-18034936D02*
X2958277Y-18044460D01*
X2958277Y-18044460D02*
X2948753Y-18053984D01*
X2948753Y-18053984D02*
X2939229Y-18044460D01*
X2939229Y-18044460D02*
X2948753Y-18034936D01*
X2948753Y-18034936D02*
X2948753Y-18053984D01*
X3148753Y-18053984D02*
X3034467Y-18053984D01*
X3091610Y-18053984D02*
X3091610Y-17853984D01*
X3091610Y-17853984D02*
X3072562Y-17882555D01*
X3072562Y-17882555D02*
X3053515Y-17901603D01*
X3053515Y-17901603D02*
X3034467Y-17911127D01*
X3272562Y-17853984D02*
X3291610Y-17853984D01*
X3291610Y-17853984D02*
X3310658Y-17863508D01*
X3310658Y-17863508D02*
X3320182Y-17873031D01*
X3320182Y-17873031D02*
X3329705Y-17892079D01*
X3329705Y-17892079D02*
X3339229Y-17930174D01*
X3339229Y-17930174D02*
X3339229Y-17977793D01*
X3339229Y-17977793D02*
X3329705Y-18015889D01*
X3329705Y-18015889D02*
X3320182Y-18034936D01*
X3320182Y-18034936D02*
X3310658Y-18044460D01*
X3310658Y-18044460D02*
X3291610Y-18053984D01*
X3291610Y-18053984D02*
X3272562Y-18053984D01*
X3272562Y-18053984D02*
X3253515Y-18044460D01*
X3253515Y-18044460D02*
X3243991Y-18034936D01*
X3243991Y-18034936D02*
X3234467Y-18015889D01*
X3234467Y-18015889D02*
X3224943Y-17977793D01*
X3224943Y-17977793D02*
X3224943Y-17930174D01*
X3224943Y-17930174D02*
X3234467Y-17892079D01*
X3234467Y-17892079D02*
X3243991Y-17873031D01*
X3243991Y-17873031D02*
X3253515Y-17863508D01*
X3253515Y-17863508D02*
X3272562Y-17853984D01*
X3415420Y-17873031D02*
X3424943Y-17863508D01*
X3424943Y-17863508D02*
X3443991Y-17853984D01*
X3443991Y-17853984D02*
X3491610Y-17853984D01*
X3491610Y-17853984D02*
X3510658Y-17863508D01*
X3510658Y-17863508D02*
X3520182Y-17873031D01*
X3520182Y-17873031D02*
X3529705Y-17892079D01*
X3529705Y-17892079D02*
X3529705Y-17911127D01*
X3529705Y-17911127D02*
X3520182Y-17939698D01*
X3520182Y-17939698D02*
X3405896Y-18053984D01*
X3405896Y-18053984D02*
X3529705Y-18053984D01*
X3615420Y-18053984D02*
X3615420Y-17920650D01*
X3615420Y-17939698D02*
X3624943Y-17930174D01*
X3624943Y-17930174D02*
X3643991Y-17920650D01*
X3643991Y-17920650D02*
X3672563Y-17920650D01*
X3672563Y-17920650D02*
X3691610Y-17930174D01*
X3691610Y-17930174D02*
X3701134Y-17949222D01*
X3701134Y-17949222D02*
X3701134Y-18053984D01*
X3701134Y-17949222D02*
X3710658Y-17930174D01*
X3710658Y-17930174D02*
X3729705Y-17920650D01*
X3729705Y-17920650D02*
X3758277Y-17920650D01*
X3758277Y-17920650D02*
X3777324Y-17930174D01*
X3777324Y-17930174D02*
X3786848Y-17949222D01*
X3786848Y-17949222D02*
X3786848Y-18053984D01*
X3882086Y-18053984D02*
X3882086Y-17920650D01*
X3882086Y-17939698D02*
X3891610Y-17930174D01*
X3891610Y-17930174D02*
X3910658Y-17920650D01*
X3910658Y-17920650D02*
X3939229Y-17920650D01*
X3939229Y-17920650D02*
X3958277Y-17930174D01*
X3958277Y-17930174D02*
X3967801Y-17949222D01*
X3967801Y-17949222D02*
X3967801Y-18053984D01*
X3967801Y-17949222D02*
X3977324Y-17930174D01*
X3977324Y-17930174D02*
X3996372Y-17920650D01*
X3996372Y-17920650D02*
X4024943Y-17920650D01*
X4024943Y-17920650D02*
X4043991Y-17930174D01*
X4043991Y-17930174D02*
X4053515Y-17949222D01*
X4053515Y-17949222D02*
X4053515Y-18053984D01*
X4443991Y-17844460D02*
X4272563Y-18101603D01*
X4701134Y-17853984D02*
X4720182Y-17853984D01*
X4720182Y-17853984D02*
X4739229Y-17863508D01*
X4739229Y-17863508D02*
X4748753Y-17873031D01*
X4748753Y-17873031D02*
X4758277Y-17892079D01*
X4758277Y-17892079D02*
X4767801Y-17930174D01*
X4767801Y-17930174D02*
X4767801Y-17977793D01*
X4767801Y-17977793D02*
X4758277Y-18015889D01*
X4758277Y-18015889D02*
X4748753Y-18034936D01*
X4748753Y-18034936D02*
X4739229Y-18044460D01*
X4739229Y-18044460D02*
X4720182Y-18053984D01*
X4720182Y-18053984D02*
X4701134Y-18053984D01*
X4701134Y-18053984D02*
X4682087Y-18044460D01*
X4682087Y-18044460D02*
X4672563Y-18034936D01*
X4672563Y-18034936D02*
X4663039Y-18015889D01*
X4663039Y-18015889D02*
X4653515Y-17977793D01*
X4653515Y-17977793D02*
X4653515Y-17930174D01*
X4653515Y-17930174D02*
X4663039Y-17892079D01*
X4663039Y-17892079D02*
X4672563Y-17873031D01*
X4672563Y-17873031D02*
X4682087Y-17863508D01*
X4682087Y-17863508D02*
X4701134Y-17853984D01*
X4853515Y-18034936D02*
X4863039Y-18044460D01*
X4863039Y-18044460D02*
X4853515Y-18053984D01*
X4853515Y-18053984D02*
X4843991Y-18044460D01*
X4843991Y-18044460D02*
X4853515Y-18034936D01*
X4853515Y-18034936D02*
X4853515Y-18053984D01*
X4986848Y-17853984D02*
X5005896Y-17853984D01*
X5005896Y-17853984D02*
X5024944Y-17863508D01*
X5024944Y-17863508D02*
X5034468Y-17873031D01*
X5034468Y-17873031D02*
X5043991Y-17892079D01*
X5043991Y-17892079D02*
X5053515Y-17930174D01*
X5053515Y-17930174D02*
X5053515Y-17977793D01*
X5053515Y-17977793D02*
X5043991Y-18015889D01*
X5043991Y-18015889D02*
X5034468Y-18034936D01*
X5034468Y-18034936D02*
X5024944Y-18044460D01*
X5024944Y-18044460D02*
X5005896Y-18053984D01*
X5005896Y-18053984D02*
X4986848Y-18053984D01*
X4986848Y-18053984D02*
X4967801Y-18044460D01*
X4967801Y-18044460D02*
X4958277Y-18034936D01*
X4958277Y-18034936D02*
X4948753Y-18015889D01*
X4948753Y-18015889D02*
X4939229Y-17977793D01*
X4939229Y-17977793D02*
X4939229Y-17930174D01*
X4939229Y-17930174D02*
X4948753Y-17892079D01*
X4948753Y-17892079D02*
X4958277Y-17873031D01*
X4958277Y-17873031D02*
X4967801Y-17863508D01*
X4967801Y-17863508D02*
X4986848Y-17853984D01*
X5224944Y-17920650D02*
X5224944Y-18053984D01*
X5177325Y-17844460D02*
X5129706Y-17987317D01*
X5129706Y-17987317D02*
X5253515Y-17987317D01*
X5310658Y-17853984D02*
X5434468Y-17853984D01*
X5434468Y-17853984D02*
X5367801Y-17930174D01*
X5367801Y-17930174D02*
X5396372Y-17930174D01*
X5396372Y-17930174D02*
X5415420Y-17939698D01*
X5415420Y-17939698D02*
X5424944Y-17949222D01*
X5424944Y-17949222D02*
X5434468Y-17968270D01*
X5434468Y-17968270D02*
X5434468Y-18015889D01*
X5434468Y-18015889D02*
X5424944Y-18034936D01*
X5424944Y-18034936D02*
X5415420Y-18044460D01*
X5415420Y-18044460D02*
X5396372Y-18053984D01*
X5396372Y-18053984D02*
X5339229Y-18053984D01*
X5339229Y-18053984D02*
X5320182Y-18044460D01*
X5320182Y-18044460D02*
X5310658Y-18034936D01*
X5605896Y-17920650D02*
X5605896Y-18053984D01*
X5558277Y-17844460D02*
X5510658Y-17987317D01*
X5510658Y-17987317D02*
X5634467Y-17987317D01*
X5701134Y-17853984D02*
X5701134Y-17892079D01*
X5777325Y-17853984D02*
X5777325Y-17892079D01*
X6072563Y-18130174D02*
X6063039Y-18120650D01*
X6063039Y-18120650D02*
X6043991Y-18092079D01*
X6043991Y-18092079D02*
X6034468Y-18073031D01*
X6034468Y-18073031D02*
X6024944Y-18044460D01*
X6024944Y-18044460D02*
X6015420Y-17996841D01*
X6015420Y-17996841D02*
X6015420Y-17958746D01*
X6015420Y-17958746D02*
X6024944Y-17911127D01*
X6024944Y-17911127D02*
X6034468Y-17882555D01*
X6034468Y-17882555D02*
X6043991Y-17863508D01*
X6043991Y-17863508D02*
X6063039Y-17834936D01*
X6063039Y-17834936D02*
X6072563Y-17825412D01*
X6129706Y-17853984D02*
X6253515Y-17853984D01*
X6253515Y-17853984D02*
X6186848Y-17930174D01*
X6186848Y-17930174D02*
X6215420Y-17930174D01*
X6215420Y-17930174D02*
X6234468Y-17939698D01*
X6234468Y-17939698D02*
X6243991Y-17949222D01*
X6243991Y-17949222D02*
X6253515Y-17968270D01*
X6253515Y-17968270D02*
X6253515Y-18015889D01*
X6253515Y-18015889D02*
X6243991Y-18034936D01*
X6243991Y-18034936D02*
X6234468Y-18044460D01*
X6234468Y-18044460D02*
X6215420Y-18053984D01*
X6215420Y-18053984D02*
X6158277Y-18053984D01*
X6158277Y-18053984D02*
X6139229Y-18044460D01*
X6139229Y-18044460D02*
X6129706Y-18034936D01*
X6491610Y-18053984D02*
X6491610Y-17853984D01*
X6577325Y-18053984D02*
X6577325Y-17949222D01*
X6577325Y-17949222D02*
X6567801Y-17930174D01*
X6567801Y-17930174D02*
X6548753Y-17920650D01*
X6548753Y-17920650D02*
X6520182Y-17920650D01*
X6520182Y-17920650D02*
X6501134Y-17930174D01*
X6501134Y-17930174D02*
X6491610Y-17939698D01*
X6701134Y-18053984D02*
X6682087Y-18044460D01*
X6682087Y-18044460D02*
X6672563Y-18034936D01*
X6672563Y-18034936D02*
X6663039Y-18015889D01*
X6663039Y-18015889D02*
X6663039Y-17958746D01*
X6663039Y-17958746D02*
X6672563Y-17939698D01*
X6672563Y-17939698D02*
X6682087Y-17930174D01*
X6682087Y-17930174D02*
X6701134Y-17920650D01*
X6701134Y-17920650D02*
X6729706Y-17920650D01*
X6729706Y-17920650D02*
X6748753Y-17930174D01*
X6748753Y-17930174D02*
X6758277Y-17939698D01*
X6758277Y-17939698D02*
X6767801Y-17958746D01*
X6767801Y-17958746D02*
X6767801Y-18015889D01*
X6767801Y-18015889D02*
X6758277Y-18034936D01*
X6758277Y-18034936D02*
X6748753Y-18044460D01*
X6748753Y-18044460D02*
X6729706Y-18053984D01*
X6729706Y-18053984D02*
X6701134Y-18053984D01*
X6882087Y-18053984D02*
X6863039Y-18044460D01*
X6863039Y-18044460D02*
X6853515Y-18025412D01*
X6853515Y-18025412D02*
X6853515Y-17853984D01*
X7034468Y-18044460D02*
X7015420Y-18053984D01*
X7015420Y-18053984D02*
X6977325Y-18053984D01*
X6977325Y-18053984D02*
X6958277Y-18044460D01*
X6958277Y-18044460D02*
X6948753Y-18025412D01*
X6948753Y-18025412D02*
X6948753Y-17949222D01*
X6948753Y-17949222D02*
X6958277Y-17930174D01*
X6958277Y-17930174D02*
X6977325Y-17920650D01*
X6977325Y-17920650D02*
X7015420Y-17920650D01*
X7015420Y-17920650D02*
X7034468Y-17930174D01*
X7034468Y-17930174D02*
X7043991Y-17949222D01*
X7043991Y-17949222D02*
X7043991Y-17968270D01*
X7043991Y-17968270D02*
X6948753Y-17987317D01*
X7120182Y-18044460D02*
X7139230Y-18053984D01*
X7139230Y-18053984D02*
X7177325Y-18053984D01*
X7177325Y-18053984D02*
X7196372Y-18044460D01*
X7196372Y-18044460D02*
X7205896Y-18025412D01*
X7205896Y-18025412D02*
X7205896Y-18015889D01*
X7205896Y-18015889D02*
X7196372Y-17996841D01*
X7196372Y-17996841D02*
X7177325Y-17987317D01*
X7177325Y-17987317D02*
X7148753Y-17987317D01*
X7148753Y-17987317D02*
X7129706Y-17977793D01*
X7129706Y-17977793D02*
X7120182Y-17958746D01*
X7120182Y-17958746D02*
X7120182Y-17949222D01*
X7120182Y-17949222D02*
X7129706Y-17930174D01*
X7129706Y-17930174D02*
X7148753Y-17920650D01*
X7148753Y-17920650D02*
X7177325Y-17920650D01*
X7177325Y-17920650D02*
X7196372Y-17930174D01*
X7272563Y-18130174D02*
X7282087Y-18120650D01*
X7282087Y-18120650D02*
X7301134Y-18092079D01*
X7301134Y-18092079D02*
X7310658Y-18073031D01*
X7310658Y-18073031D02*
X7320182Y-18044460D01*
X7320182Y-18044460D02*
X7329706Y-17996841D01*
X7329706Y-17996841D02*
X7329706Y-17958746D01*
X7329706Y-17958746D02*
X7320182Y-17911127D01*
X7320182Y-17911127D02*
X7310658Y-17882555D01*
X7310658Y-17882555D02*
X7301134Y-17863508D01*
X7301134Y-17863508D02*
X7282087Y-17834936D01*
X7282087Y-17834936D02*
X7272563Y-17825412D01*
D16*
X2377620Y-18166560D02*
X2497500Y-18286440D01*
X2497500Y-18166560D02*
X2377620Y-18286440D01*
X2437560Y-18166560D02*
X2437560Y-18286440D01*
X2377620Y-18226500D02*
X2497500Y-18226500D01*
D11*
X2863039Y-18317984D02*
X2748753Y-18317984D01*
X2805896Y-18317984D02*
X2805896Y-18117984D01*
X2805896Y-18117984D02*
X2786848Y-18146555D01*
X2786848Y-18146555D02*
X2767801Y-18165603D01*
X2767801Y-18165603D02*
X2748753Y-18175127D01*
X2948753Y-18298936D02*
X2958277Y-18308460D01*
X2958277Y-18308460D02*
X2948753Y-18317984D01*
X2948753Y-18317984D02*
X2939229Y-18308460D01*
X2939229Y-18308460D02*
X2948753Y-18298936D01*
X2948753Y-18298936D02*
X2948753Y-18317984D01*
X3148753Y-18317984D02*
X3034467Y-18317984D01*
X3091610Y-18317984D02*
X3091610Y-18117984D01*
X3091610Y-18117984D02*
X3072562Y-18146555D01*
X3072562Y-18146555D02*
X3053515Y-18165603D01*
X3053515Y-18165603D02*
X3034467Y-18175127D01*
X3243991Y-18317984D02*
X3282086Y-18317984D01*
X3282086Y-18317984D02*
X3301134Y-18308460D01*
X3301134Y-18308460D02*
X3310658Y-18298936D01*
X3310658Y-18298936D02*
X3329705Y-18270365D01*
X3329705Y-18270365D02*
X3339229Y-18232270D01*
X3339229Y-18232270D02*
X3339229Y-18156079D01*
X3339229Y-18156079D02*
X3329705Y-18137031D01*
X3329705Y-18137031D02*
X3320182Y-18127508D01*
X3320182Y-18127508D02*
X3301134Y-18117984D01*
X3301134Y-18117984D02*
X3263039Y-18117984D01*
X3263039Y-18117984D02*
X3243991Y-18127508D01*
X3243991Y-18127508D02*
X3234467Y-18137031D01*
X3234467Y-18137031D02*
X3224943Y-18156079D01*
X3224943Y-18156079D02*
X3224943Y-18203698D01*
X3224943Y-18203698D02*
X3234467Y-18222746D01*
X3234467Y-18222746D02*
X3243991Y-18232270D01*
X3243991Y-18232270D02*
X3263039Y-18241793D01*
X3263039Y-18241793D02*
X3301134Y-18241793D01*
X3301134Y-18241793D02*
X3320182Y-18232270D01*
X3320182Y-18232270D02*
X3329705Y-18222746D01*
X3329705Y-18222746D02*
X3339229Y-18203698D01*
X3434467Y-18317984D02*
X3472562Y-18317984D01*
X3472562Y-18317984D02*
X3491610Y-18308460D01*
X3491610Y-18308460D02*
X3501134Y-18298936D01*
X3501134Y-18298936D02*
X3520182Y-18270365D01*
X3520182Y-18270365D02*
X3529705Y-18232270D01*
X3529705Y-18232270D02*
X3529705Y-18156079D01*
X3529705Y-18156079D02*
X3520182Y-18137031D01*
X3520182Y-18137031D02*
X3510658Y-18127508D01*
X3510658Y-18127508D02*
X3491610Y-18117984D01*
X3491610Y-18117984D02*
X3453515Y-18117984D01*
X3453515Y-18117984D02*
X3434467Y-18127508D01*
X3434467Y-18127508D02*
X3424943Y-18137031D01*
X3424943Y-18137031D02*
X3415420Y-18156079D01*
X3415420Y-18156079D02*
X3415420Y-18203698D01*
X3415420Y-18203698D02*
X3424943Y-18222746D01*
X3424943Y-18222746D02*
X3434467Y-18232270D01*
X3434467Y-18232270D02*
X3453515Y-18241793D01*
X3453515Y-18241793D02*
X3491610Y-18241793D01*
X3491610Y-18241793D02*
X3510658Y-18232270D01*
X3510658Y-18232270D02*
X3520182Y-18222746D01*
X3520182Y-18222746D02*
X3529705Y-18203698D01*
X3615420Y-18317984D02*
X3615420Y-18184650D01*
X3615420Y-18203698D02*
X3624943Y-18194174D01*
X3624943Y-18194174D02*
X3643991Y-18184650D01*
X3643991Y-18184650D02*
X3672563Y-18184650D01*
X3672563Y-18184650D02*
X3691610Y-18194174D01*
X3691610Y-18194174D02*
X3701134Y-18213222D01*
X3701134Y-18213222D02*
X3701134Y-18317984D01*
X3701134Y-18213222D02*
X3710658Y-18194174D01*
X3710658Y-18194174D02*
X3729705Y-18184650D01*
X3729705Y-18184650D02*
X3758277Y-18184650D01*
X3758277Y-18184650D02*
X3777324Y-18194174D01*
X3777324Y-18194174D02*
X3786848Y-18213222D01*
X3786848Y-18213222D02*
X3786848Y-18317984D01*
X3882086Y-18317984D02*
X3882086Y-18184650D01*
X3882086Y-18203698D02*
X3891610Y-18194174D01*
X3891610Y-18194174D02*
X3910658Y-18184650D01*
X3910658Y-18184650D02*
X3939229Y-18184650D01*
X3939229Y-18184650D02*
X3958277Y-18194174D01*
X3958277Y-18194174D02*
X3967801Y-18213222D01*
X3967801Y-18213222D02*
X3967801Y-18317984D01*
X3967801Y-18213222D02*
X3977324Y-18194174D01*
X3977324Y-18194174D02*
X3996372Y-18184650D01*
X3996372Y-18184650D02*
X4024943Y-18184650D01*
X4024943Y-18184650D02*
X4043991Y-18194174D01*
X4043991Y-18194174D02*
X4053515Y-18213222D01*
X4053515Y-18213222D02*
X4053515Y-18317984D01*
X4443991Y-18108460D02*
X4272563Y-18365603D01*
X4701134Y-18117984D02*
X4720182Y-18117984D01*
X4720182Y-18117984D02*
X4739229Y-18127508D01*
X4739229Y-18127508D02*
X4748753Y-18137031D01*
X4748753Y-18137031D02*
X4758277Y-18156079D01*
X4758277Y-18156079D02*
X4767801Y-18194174D01*
X4767801Y-18194174D02*
X4767801Y-18241793D01*
X4767801Y-18241793D02*
X4758277Y-18279889D01*
X4758277Y-18279889D02*
X4748753Y-18298936D01*
X4748753Y-18298936D02*
X4739229Y-18308460D01*
X4739229Y-18308460D02*
X4720182Y-18317984D01*
X4720182Y-18317984D02*
X4701134Y-18317984D01*
X4701134Y-18317984D02*
X4682087Y-18308460D01*
X4682087Y-18308460D02*
X4672563Y-18298936D01*
X4672563Y-18298936D02*
X4663039Y-18279889D01*
X4663039Y-18279889D02*
X4653515Y-18241793D01*
X4653515Y-18241793D02*
X4653515Y-18194174D01*
X4653515Y-18194174D02*
X4663039Y-18156079D01*
X4663039Y-18156079D02*
X4672563Y-18137031D01*
X4672563Y-18137031D02*
X4682087Y-18127508D01*
X4682087Y-18127508D02*
X4701134Y-18117984D01*
X4853515Y-18298936D02*
X4863039Y-18308460D01*
X4863039Y-18308460D02*
X4853515Y-18317984D01*
X4853515Y-18317984D02*
X4843991Y-18308460D01*
X4843991Y-18308460D02*
X4853515Y-18298936D01*
X4853515Y-18298936D02*
X4853515Y-18317984D01*
X4986848Y-18117984D02*
X5005896Y-18117984D01*
X5005896Y-18117984D02*
X5024944Y-18127508D01*
X5024944Y-18127508D02*
X5034468Y-18137031D01*
X5034468Y-18137031D02*
X5043991Y-18156079D01*
X5043991Y-18156079D02*
X5053515Y-18194174D01*
X5053515Y-18194174D02*
X5053515Y-18241793D01*
X5053515Y-18241793D02*
X5043991Y-18279889D01*
X5043991Y-18279889D02*
X5034468Y-18298936D01*
X5034468Y-18298936D02*
X5024944Y-18308460D01*
X5024944Y-18308460D02*
X5005896Y-18317984D01*
X5005896Y-18317984D02*
X4986848Y-18317984D01*
X4986848Y-18317984D02*
X4967801Y-18308460D01*
X4967801Y-18308460D02*
X4958277Y-18298936D01*
X4958277Y-18298936D02*
X4948753Y-18279889D01*
X4948753Y-18279889D02*
X4939229Y-18241793D01*
X4939229Y-18241793D02*
X4939229Y-18194174D01*
X4939229Y-18194174D02*
X4948753Y-18156079D01*
X4948753Y-18156079D02*
X4958277Y-18137031D01*
X4958277Y-18137031D02*
X4967801Y-18127508D01*
X4967801Y-18127508D02*
X4986848Y-18117984D01*
X5224944Y-18184650D02*
X5224944Y-18317984D01*
X5177325Y-18108460D02*
X5129706Y-18251317D01*
X5129706Y-18251317D02*
X5253515Y-18251317D01*
X5310658Y-18117984D02*
X5443991Y-18117984D01*
X5443991Y-18117984D02*
X5358277Y-18317984D01*
X5510658Y-18137031D02*
X5520182Y-18127508D01*
X5520182Y-18127508D02*
X5539229Y-18117984D01*
X5539229Y-18117984D02*
X5586849Y-18117984D01*
X5586849Y-18117984D02*
X5605896Y-18127508D01*
X5605896Y-18127508D02*
X5615420Y-18137031D01*
X5615420Y-18137031D02*
X5624944Y-18156079D01*
X5624944Y-18156079D02*
X5624944Y-18175127D01*
X5624944Y-18175127D02*
X5615420Y-18203698D01*
X5615420Y-18203698D02*
X5501134Y-18317984D01*
X5501134Y-18317984D02*
X5624944Y-18317984D01*
X5701134Y-18117984D02*
X5701134Y-18156079D01*
X5777325Y-18117984D02*
X5777325Y-18156079D01*
X6072563Y-18394174D02*
X6063039Y-18384650D01*
X6063039Y-18384650D02*
X6043991Y-18356079D01*
X6043991Y-18356079D02*
X6034468Y-18337031D01*
X6034468Y-18337031D02*
X6024944Y-18308460D01*
X6024944Y-18308460D02*
X6015420Y-18260841D01*
X6015420Y-18260841D02*
X6015420Y-18222746D01*
X6015420Y-18222746D02*
X6024944Y-18175127D01*
X6024944Y-18175127D02*
X6034468Y-18146555D01*
X6034468Y-18146555D02*
X6043991Y-18127508D01*
X6043991Y-18127508D02*
X6063039Y-18098936D01*
X6063039Y-18098936D02*
X6072563Y-18089412D01*
X6139229Y-18137031D02*
X6148753Y-18127508D01*
X6148753Y-18127508D02*
X6167801Y-18117984D01*
X6167801Y-18117984D02*
X6215420Y-18117984D01*
X6215420Y-18117984D02*
X6234468Y-18127508D01*
X6234468Y-18127508D02*
X6243991Y-18137031D01*
X6243991Y-18137031D02*
X6253515Y-18156079D01*
X6253515Y-18156079D02*
X6253515Y-18175127D01*
X6253515Y-18175127D02*
X6243991Y-18203698D01*
X6243991Y-18203698D02*
X6129706Y-18317984D01*
X6129706Y-18317984D02*
X6253515Y-18317984D01*
X6367801Y-18203698D02*
X6348753Y-18194174D01*
X6348753Y-18194174D02*
X6339229Y-18184650D01*
X6339229Y-18184650D02*
X6329706Y-18165603D01*
X6329706Y-18165603D02*
X6329706Y-18156079D01*
X6329706Y-18156079D02*
X6339229Y-18137031D01*
X6339229Y-18137031D02*
X6348753Y-18127508D01*
X6348753Y-18127508D02*
X6367801Y-18117984D01*
X6367801Y-18117984D02*
X6405896Y-18117984D01*
X6405896Y-18117984D02*
X6424944Y-18127508D01*
X6424944Y-18127508D02*
X6434468Y-18137031D01*
X6434468Y-18137031D02*
X6443991Y-18156079D01*
X6443991Y-18156079D02*
X6443991Y-18165603D01*
X6443991Y-18165603D02*
X6434468Y-18184650D01*
X6434468Y-18184650D02*
X6424944Y-18194174D01*
X6424944Y-18194174D02*
X6405896Y-18203698D01*
X6405896Y-18203698D02*
X6367801Y-18203698D01*
X6367801Y-18203698D02*
X6348753Y-18213222D01*
X6348753Y-18213222D02*
X6339229Y-18222746D01*
X6339229Y-18222746D02*
X6329706Y-18241793D01*
X6329706Y-18241793D02*
X6329706Y-18279889D01*
X6329706Y-18279889D02*
X6339229Y-18298936D01*
X6339229Y-18298936D02*
X6348753Y-18308460D01*
X6348753Y-18308460D02*
X6367801Y-18317984D01*
X6367801Y-18317984D02*
X6405896Y-18317984D01*
X6405896Y-18317984D02*
X6424944Y-18308460D01*
X6424944Y-18308460D02*
X6434468Y-18298936D01*
X6434468Y-18298936D02*
X6443991Y-18279889D01*
X6443991Y-18279889D02*
X6443991Y-18241793D01*
X6443991Y-18241793D02*
X6434468Y-18222746D01*
X6434468Y-18222746D02*
X6424944Y-18213222D01*
X6424944Y-18213222D02*
X6405896Y-18203698D01*
X6682087Y-18317984D02*
X6682087Y-18117984D01*
X6767801Y-18317984D02*
X6767801Y-18213222D01*
X6767801Y-18213222D02*
X6758277Y-18194174D01*
X6758277Y-18194174D02*
X6739230Y-18184650D01*
X6739230Y-18184650D02*
X6710658Y-18184650D01*
X6710658Y-18184650D02*
X6691610Y-18194174D01*
X6691610Y-18194174D02*
X6682087Y-18203698D01*
X6891610Y-18317984D02*
X6872563Y-18308460D01*
X6872563Y-18308460D02*
X6863039Y-18298936D01*
X6863039Y-18298936D02*
X6853515Y-18279889D01*
X6853515Y-18279889D02*
X6853515Y-18222746D01*
X6853515Y-18222746D02*
X6863039Y-18203698D01*
X6863039Y-18203698D02*
X6872563Y-18194174D01*
X6872563Y-18194174D02*
X6891610Y-18184650D01*
X6891610Y-18184650D02*
X6920182Y-18184650D01*
X6920182Y-18184650D02*
X6939230Y-18194174D01*
X6939230Y-18194174D02*
X6948753Y-18203698D01*
X6948753Y-18203698D02*
X6958277Y-18222746D01*
X6958277Y-18222746D02*
X6958277Y-18279889D01*
X6958277Y-18279889D02*
X6948753Y-18298936D01*
X6948753Y-18298936D02*
X6939230Y-18308460D01*
X6939230Y-18308460D02*
X6920182Y-18317984D01*
X6920182Y-18317984D02*
X6891610Y-18317984D01*
X7072563Y-18317984D02*
X7053515Y-18308460D01*
X7053515Y-18308460D02*
X7043991Y-18289412D01*
X7043991Y-18289412D02*
X7043991Y-18117984D01*
X7224944Y-18308460D02*
X7205896Y-18317984D01*
X7205896Y-18317984D02*
X7167801Y-18317984D01*
X7167801Y-18317984D02*
X7148753Y-18308460D01*
X7148753Y-18308460D02*
X7139230Y-18289412D01*
X7139230Y-18289412D02*
X7139230Y-18213222D01*
X7139230Y-18213222D02*
X7148753Y-18194174D01*
X7148753Y-18194174D02*
X7167801Y-18184650D01*
X7167801Y-18184650D02*
X7205896Y-18184650D01*
X7205896Y-18184650D02*
X7224944Y-18194174D01*
X7224944Y-18194174D02*
X7234468Y-18213222D01*
X7234468Y-18213222D02*
X7234468Y-18232270D01*
X7234468Y-18232270D02*
X7139230Y-18251317D01*
X7310658Y-18308460D02*
X7329706Y-18317984D01*
X7329706Y-18317984D02*
X7367801Y-18317984D01*
X7367801Y-18317984D02*
X7386849Y-18308460D01*
X7386849Y-18308460D02*
X7396372Y-18289412D01*
X7396372Y-18289412D02*
X7396372Y-18279889D01*
X7396372Y-18279889D02*
X7386849Y-18260841D01*
X7386849Y-18260841D02*
X7367801Y-18251317D01*
X7367801Y-18251317D02*
X7339230Y-18251317D01*
X7339230Y-18251317D02*
X7320182Y-18241793D01*
X7320182Y-18241793D02*
X7310658Y-18222746D01*
X7310658Y-18222746D02*
X7310658Y-18213222D01*
X7310658Y-18213222D02*
X7320182Y-18194174D01*
X7320182Y-18194174D02*
X7339230Y-18184650D01*
X7339230Y-18184650D02*
X7367801Y-18184650D01*
X7367801Y-18184650D02*
X7386849Y-18194174D01*
X7463039Y-18394174D02*
X7472563Y-18384650D01*
X7472563Y-18384650D02*
X7491611Y-18356079D01*
X7491611Y-18356079D02*
X7501134Y-18337031D01*
X7501134Y-18337031D02*
X7510658Y-18308460D01*
X7510658Y-18308460D02*
X7520182Y-18260841D01*
X7520182Y-18260841D02*
X7520182Y-18222746D01*
X7520182Y-18222746D02*
X7510658Y-18175127D01*
X7510658Y-18175127D02*
X7501134Y-18146555D01*
X7501134Y-18146555D02*
X7491611Y-18127508D01*
X7491611Y-18127508D02*
X7472563Y-18098936D01*
X7472563Y-18098936D02*
X7463039Y-18089412D01*
D17*
X2377500Y-18430500D02*
X2497500Y-18550500D01*
X2497500Y-18430500D02*
X2377500Y-18550500D01*
X2479927Y-18532927D02*
X2479927Y-18448073D01*
X2395073Y-18448073D01*
X2395073Y-18532927D01*
X2479927Y-18532927D01*
D11*
X2863039Y-18581984D02*
X2748753Y-18581984D01*
X2805896Y-18581984D02*
X2805896Y-18381984D01*
X2805896Y-18381984D02*
X2786848Y-18410555D01*
X2786848Y-18410555D02*
X2767801Y-18429603D01*
X2767801Y-18429603D02*
X2748753Y-18439127D01*
X2948753Y-18562936D02*
X2958277Y-18572460D01*
X2958277Y-18572460D02*
X2948753Y-18581984D01*
X2948753Y-18581984D02*
X2939229Y-18572460D01*
X2939229Y-18572460D02*
X2948753Y-18562936D01*
X2948753Y-18562936D02*
X2948753Y-18581984D01*
X3034467Y-18401031D02*
X3043991Y-18391508D01*
X3043991Y-18391508D02*
X3063039Y-18381984D01*
X3063039Y-18381984D02*
X3110658Y-18381984D01*
X3110658Y-18381984D02*
X3129705Y-18391508D01*
X3129705Y-18391508D02*
X3139229Y-18401031D01*
X3139229Y-18401031D02*
X3148753Y-18420079D01*
X3148753Y-18420079D02*
X3148753Y-18439127D01*
X3148753Y-18439127D02*
X3139229Y-18467698D01*
X3139229Y-18467698D02*
X3024943Y-18581984D01*
X3024943Y-18581984D02*
X3148753Y-18581984D01*
X3272562Y-18381984D02*
X3291610Y-18381984D01*
X3291610Y-18381984D02*
X3310658Y-18391508D01*
X3310658Y-18391508D02*
X3320182Y-18401031D01*
X3320182Y-18401031D02*
X3329705Y-18420079D01*
X3329705Y-18420079D02*
X3339229Y-18458174D01*
X3339229Y-18458174D02*
X3339229Y-18505793D01*
X3339229Y-18505793D02*
X3329705Y-18543889D01*
X3329705Y-18543889D02*
X3320182Y-18562936D01*
X3320182Y-18562936D02*
X3310658Y-18572460D01*
X3310658Y-18572460D02*
X3291610Y-18581984D01*
X3291610Y-18581984D02*
X3272562Y-18581984D01*
X3272562Y-18581984D02*
X3253515Y-18572460D01*
X3253515Y-18572460D02*
X3243991Y-18562936D01*
X3243991Y-18562936D02*
X3234467Y-18543889D01*
X3234467Y-18543889D02*
X3224943Y-18505793D01*
X3224943Y-18505793D02*
X3224943Y-18458174D01*
X3224943Y-18458174D02*
X3234467Y-18420079D01*
X3234467Y-18420079D02*
X3243991Y-18401031D01*
X3243991Y-18401031D02*
X3253515Y-18391508D01*
X3253515Y-18391508D02*
X3272562Y-18381984D01*
X3463039Y-18381984D02*
X3482086Y-18381984D01*
X3482086Y-18381984D02*
X3501134Y-18391508D01*
X3501134Y-18391508D02*
X3510658Y-18401031D01*
X3510658Y-18401031D02*
X3520182Y-18420079D01*
X3520182Y-18420079D02*
X3529705Y-18458174D01*
X3529705Y-18458174D02*
X3529705Y-18505793D01*
X3529705Y-18505793D02*
X3520182Y-18543889D01*
X3520182Y-18543889D02*
X3510658Y-18562936D01*
X3510658Y-18562936D02*
X3501134Y-18572460D01*
X3501134Y-18572460D02*
X3482086Y-18581984D01*
X3482086Y-18581984D02*
X3463039Y-18581984D01*
X3463039Y-18581984D02*
X3443991Y-18572460D01*
X3443991Y-18572460D02*
X3434467Y-18562936D01*
X3434467Y-18562936D02*
X3424943Y-18543889D01*
X3424943Y-18543889D02*
X3415420Y-18505793D01*
X3415420Y-18505793D02*
X3415420Y-18458174D01*
X3415420Y-18458174D02*
X3424943Y-18420079D01*
X3424943Y-18420079D02*
X3434467Y-18401031D01*
X3434467Y-18401031D02*
X3443991Y-18391508D01*
X3443991Y-18391508D02*
X3463039Y-18381984D01*
X3615420Y-18581984D02*
X3615420Y-18448650D01*
X3615420Y-18467698D02*
X3624943Y-18458174D01*
X3624943Y-18458174D02*
X3643991Y-18448650D01*
X3643991Y-18448650D02*
X3672563Y-18448650D01*
X3672563Y-18448650D02*
X3691610Y-18458174D01*
X3691610Y-18458174D02*
X3701134Y-18477222D01*
X3701134Y-18477222D02*
X3701134Y-18581984D01*
X3701134Y-18477222D02*
X3710658Y-18458174D01*
X3710658Y-18458174D02*
X3729705Y-18448650D01*
X3729705Y-18448650D02*
X3758277Y-18448650D01*
X3758277Y-18448650D02*
X3777324Y-18458174D01*
X3777324Y-18458174D02*
X3786848Y-18477222D01*
X3786848Y-18477222D02*
X3786848Y-18581984D01*
X3882086Y-18581984D02*
X3882086Y-18448650D01*
X3882086Y-18467698D02*
X3891610Y-18458174D01*
X3891610Y-18458174D02*
X3910658Y-18448650D01*
X3910658Y-18448650D02*
X3939229Y-18448650D01*
X3939229Y-18448650D02*
X3958277Y-18458174D01*
X3958277Y-18458174D02*
X3967801Y-18477222D01*
X3967801Y-18477222D02*
X3967801Y-18581984D01*
X3967801Y-18477222D02*
X3977324Y-18458174D01*
X3977324Y-18458174D02*
X3996372Y-18448650D01*
X3996372Y-18448650D02*
X4024943Y-18448650D01*
X4024943Y-18448650D02*
X4043991Y-18458174D01*
X4043991Y-18458174D02*
X4053515Y-18477222D01*
X4053515Y-18477222D02*
X4053515Y-18581984D01*
X4443991Y-18372460D02*
X4272563Y-18629603D01*
X4701134Y-18381984D02*
X4720182Y-18381984D01*
X4720182Y-18381984D02*
X4739229Y-18391508D01*
X4739229Y-18391508D02*
X4748753Y-18401031D01*
X4748753Y-18401031D02*
X4758277Y-18420079D01*
X4758277Y-18420079D02*
X4767801Y-18458174D01*
X4767801Y-18458174D02*
X4767801Y-18505793D01*
X4767801Y-18505793D02*
X4758277Y-18543889D01*
X4758277Y-18543889D02*
X4748753Y-18562936D01*
X4748753Y-18562936D02*
X4739229Y-18572460D01*
X4739229Y-18572460D02*
X4720182Y-18581984D01*
X4720182Y-18581984D02*
X4701134Y-18581984D01*
X4701134Y-18581984D02*
X4682087Y-18572460D01*
X4682087Y-18572460D02*
X4672563Y-18562936D01*
X4672563Y-18562936D02*
X4663039Y-18543889D01*
X4663039Y-18543889D02*
X4653515Y-18505793D01*
X4653515Y-18505793D02*
X4653515Y-18458174D01*
X4653515Y-18458174D02*
X4663039Y-18420079D01*
X4663039Y-18420079D02*
X4672563Y-18401031D01*
X4672563Y-18401031D02*
X4682087Y-18391508D01*
X4682087Y-18391508D02*
X4701134Y-18381984D01*
X4853515Y-18562936D02*
X4863039Y-18572460D01*
X4863039Y-18572460D02*
X4853515Y-18581984D01*
X4853515Y-18581984D02*
X4843991Y-18572460D01*
X4843991Y-18572460D02*
X4853515Y-18562936D01*
X4853515Y-18562936D02*
X4853515Y-18581984D01*
X4986848Y-18381984D02*
X5005896Y-18381984D01*
X5005896Y-18381984D02*
X5024944Y-18391508D01*
X5024944Y-18391508D02*
X5034468Y-18401031D01*
X5034468Y-18401031D02*
X5043991Y-18420079D01*
X5043991Y-18420079D02*
X5053515Y-18458174D01*
X5053515Y-18458174D02*
X5053515Y-18505793D01*
X5053515Y-18505793D02*
X5043991Y-18543889D01*
X5043991Y-18543889D02*
X5034468Y-18562936D01*
X5034468Y-18562936D02*
X5024944Y-18572460D01*
X5024944Y-18572460D02*
X5005896Y-18581984D01*
X5005896Y-18581984D02*
X4986848Y-18581984D01*
X4986848Y-18581984D02*
X4967801Y-18572460D01*
X4967801Y-18572460D02*
X4958277Y-18562936D01*
X4958277Y-18562936D02*
X4948753Y-18543889D01*
X4948753Y-18543889D02*
X4939229Y-18505793D01*
X4939229Y-18505793D02*
X4939229Y-18458174D01*
X4939229Y-18458174D02*
X4948753Y-18420079D01*
X4948753Y-18420079D02*
X4958277Y-18401031D01*
X4958277Y-18401031D02*
X4967801Y-18391508D01*
X4967801Y-18391508D02*
X4986848Y-18381984D01*
X5224944Y-18448650D02*
X5224944Y-18581984D01*
X5177325Y-18372460D02*
X5129706Y-18515317D01*
X5129706Y-18515317D02*
X5253515Y-18515317D01*
X5310658Y-18381984D02*
X5443991Y-18381984D01*
X5443991Y-18381984D02*
X5358277Y-18581984D01*
X5510658Y-18401031D02*
X5520182Y-18391508D01*
X5520182Y-18391508D02*
X5539229Y-18381984D01*
X5539229Y-18381984D02*
X5586849Y-18381984D01*
X5586849Y-18381984D02*
X5605896Y-18391508D01*
X5605896Y-18391508D02*
X5615420Y-18401031D01*
X5615420Y-18401031D02*
X5624944Y-18420079D01*
X5624944Y-18420079D02*
X5624944Y-18439127D01*
X5624944Y-18439127D02*
X5615420Y-18467698D01*
X5615420Y-18467698D02*
X5501134Y-18581984D01*
X5501134Y-18581984D02*
X5624944Y-18581984D01*
X5701134Y-18381984D02*
X5701134Y-18420079D01*
X5777325Y-18381984D02*
X5777325Y-18420079D01*
X6072563Y-18658174D02*
X6063039Y-18648650D01*
X6063039Y-18648650D02*
X6043991Y-18620079D01*
X6043991Y-18620079D02*
X6034468Y-18601031D01*
X6034468Y-18601031D02*
X6024944Y-18572460D01*
X6024944Y-18572460D02*
X6015420Y-18524841D01*
X6015420Y-18524841D02*
X6015420Y-18486746D01*
X6015420Y-18486746D02*
X6024944Y-18439127D01*
X6024944Y-18439127D02*
X6034468Y-18410555D01*
X6034468Y-18410555D02*
X6043991Y-18391508D01*
X6043991Y-18391508D02*
X6063039Y-18362936D01*
X6063039Y-18362936D02*
X6072563Y-18353412D01*
X6139229Y-18401031D02*
X6148753Y-18391508D01*
X6148753Y-18391508D02*
X6167801Y-18381984D01*
X6167801Y-18381984D02*
X6215420Y-18381984D01*
X6215420Y-18381984D02*
X6234468Y-18391508D01*
X6234468Y-18391508D02*
X6243991Y-18401031D01*
X6243991Y-18401031D02*
X6253515Y-18420079D01*
X6253515Y-18420079D02*
X6253515Y-18439127D01*
X6253515Y-18439127D02*
X6243991Y-18467698D01*
X6243991Y-18467698D02*
X6129706Y-18581984D01*
X6129706Y-18581984D02*
X6253515Y-18581984D01*
X6424944Y-18448650D02*
X6424944Y-18581984D01*
X6377325Y-18372460D02*
X6329706Y-18515317D01*
X6329706Y-18515317D02*
X6453515Y-18515317D01*
X6682087Y-18581984D02*
X6682087Y-18381984D01*
X6767801Y-18581984D02*
X6767801Y-18477222D01*
X6767801Y-18477222D02*
X6758277Y-18458174D01*
X6758277Y-18458174D02*
X6739230Y-18448650D01*
X6739230Y-18448650D02*
X6710658Y-18448650D01*
X6710658Y-18448650D02*
X6691610Y-18458174D01*
X6691610Y-18458174D02*
X6682087Y-18467698D01*
X6891610Y-18581984D02*
X6872563Y-18572460D01*
X6872563Y-18572460D02*
X6863039Y-18562936D01*
X6863039Y-18562936D02*
X6853515Y-18543889D01*
X6853515Y-18543889D02*
X6853515Y-18486746D01*
X6853515Y-18486746D02*
X6863039Y-18467698D01*
X6863039Y-18467698D02*
X6872563Y-18458174D01*
X6872563Y-18458174D02*
X6891610Y-18448650D01*
X6891610Y-18448650D02*
X6920182Y-18448650D01*
X6920182Y-18448650D02*
X6939230Y-18458174D01*
X6939230Y-18458174D02*
X6948753Y-18467698D01*
X6948753Y-18467698D02*
X6958277Y-18486746D01*
X6958277Y-18486746D02*
X6958277Y-18543889D01*
X6958277Y-18543889D02*
X6948753Y-18562936D01*
X6948753Y-18562936D02*
X6939230Y-18572460D01*
X6939230Y-18572460D02*
X6920182Y-18581984D01*
X6920182Y-18581984D02*
X6891610Y-18581984D01*
X7072563Y-18581984D02*
X7053515Y-18572460D01*
X7053515Y-18572460D02*
X7043991Y-18553412D01*
X7043991Y-18553412D02*
X7043991Y-18381984D01*
X7224944Y-18572460D02*
X7205896Y-18581984D01*
X7205896Y-18581984D02*
X7167801Y-18581984D01*
X7167801Y-18581984D02*
X7148753Y-18572460D01*
X7148753Y-18572460D02*
X7139230Y-18553412D01*
X7139230Y-18553412D02*
X7139230Y-18477222D01*
X7139230Y-18477222D02*
X7148753Y-18458174D01*
X7148753Y-18458174D02*
X7167801Y-18448650D01*
X7167801Y-18448650D02*
X7205896Y-18448650D01*
X7205896Y-18448650D02*
X7224944Y-18458174D01*
X7224944Y-18458174D02*
X7234468Y-18477222D01*
X7234468Y-18477222D02*
X7234468Y-18496270D01*
X7234468Y-18496270D02*
X7139230Y-18515317D01*
X7310658Y-18572460D02*
X7329706Y-18581984D01*
X7329706Y-18581984D02*
X7367801Y-18581984D01*
X7367801Y-18581984D02*
X7386849Y-18572460D01*
X7386849Y-18572460D02*
X7396372Y-18553412D01*
X7396372Y-18553412D02*
X7396372Y-18543889D01*
X7396372Y-18543889D02*
X7386849Y-18524841D01*
X7386849Y-18524841D02*
X7367801Y-18515317D01*
X7367801Y-18515317D02*
X7339230Y-18515317D01*
X7339230Y-18515317D02*
X7320182Y-18505793D01*
X7320182Y-18505793D02*
X7310658Y-18486746D01*
X7310658Y-18486746D02*
X7310658Y-18477222D01*
X7310658Y-18477222D02*
X7320182Y-18458174D01*
X7320182Y-18458174D02*
X7339230Y-18448650D01*
X7339230Y-18448650D02*
X7367801Y-18448650D01*
X7367801Y-18448650D02*
X7386849Y-18458174D01*
X7463039Y-18658174D02*
X7472563Y-18648650D01*
X7472563Y-18648650D02*
X7491611Y-18620079D01*
X7491611Y-18620079D02*
X7501134Y-18601031D01*
X7501134Y-18601031D02*
X7510658Y-18572460D01*
X7510658Y-18572460D02*
X7520182Y-18524841D01*
X7520182Y-18524841D02*
X7520182Y-18486746D01*
X7520182Y-18486746D02*
X7510658Y-18439127D01*
X7510658Y-18439127D02*
X7501134Y-18410555D01*
X7501134Y-18410555D02*
X7491611Y-18391508D01*
X7491611Y-18391508D02*
X7472563Y-18362936D01*
X7472563Y-18362936D02*
X7463039Y-18353412D01*
D18*
X2357800Y-18684650D02*
X2497500Y-18824350D01*
X2497500Y-18684650D02*
X2357800Y-18824350D01*
X2427650Y-18824350D02*
X2497500Y-18754500D01*
X2427650Y-18684650D01*
X2357800Y-18754500D01*
X2427650Y-18824350D01*
D11*
X2863039Y-18845984D02*
X2748753Y-18845984D01*
X2805896Y-18845984D02*
X2805896Y-18645984D01*
X2805896Y-18645984D02*
X2786848Y-18674555D01*
X2786848Y-18674555D02*
X2767801Y-18693603D01*
X2767801Y-18693603D02*
X2748753Y-18703127D01*
X2948753Y-18826936D02*
X2958277Y-18836460D01*
X2958277Y-18836460D02*
X2948753Y-18845984D01*
X2948753Y-18845984D02*
X2939229Y-18836460D01*
X2939229Y-18836460D02*
X2948753Y-18826936D01*
X2948753Y-18826936D02*
X2948753Y-18845984D01*
X3024943Y-18645984D02*
X3148753Y-18645984D01*
X3148753Y-18645984D02*
X3082086Y-18722174D01*
X3082086Y-18722174D02*
X3110658Y-18722174D01*
X3110658Y-18722174D02*
X3129705Y-18731698D01*
X3129705Y-18731698D02*
X3139229Y-18741222D01*
X3139229Y-18741222D02*
X3148753Y-18760270D01*
X3148753Y-18760270D02*
X3148753Y-18807889D01*
X3148753Y-18807889D02*
X3139229Y-18826936D01*
X3139229Y-18826936D02*
X3129705Y-18836460D01*
X3129705Y-18836460D02*
X3110658Y-18845984D01*
X3110658Y-18845984D02*
X3053515Y-18845984D01*
X3053515Y-18845984D02*
X3034467Y-18836460D01*
X3034467Y-18836460D02*
X3024943Y-18826936D01*
X3243991Y-18845984D02*
X3282086Y-18845984D01*
X3282086Y-18845984D02*
X3301134Y-18836460D01*
X3301134Y-18836460D02*
X3310658Y-18826936D01*
X3310658Y-18826936D02*
X3329705Y-18798365D01*
X3329705Y-18798365D02*
X3339229Y-18760270D01*
X3339229Y-18760270D02*
X3339229Y-18684079D01*
X3339229Y-18684079D02*
X3329705Y-18665031D01*
X3329705Y-18665031D02*
X3320182Y-18655508D01*
X3320182Y-18655508D02*
X3301134Y-18645984D01*
X3301134Y-18645984D02*
X3263039Y-18645984D01*
X3263039Y-18645984D02*
X3243991Y-18655508D01*
X3243991Y-18655508D02*
X3234467Y-18665031D01*
X3234467Y-18665031D02*
X3224943Y-18684079D01*
X3224943Y-18684079D02*
X3224943Y-18731698D01*
X3224943Y-18731698D02*
X3234467Y-18750746D01*
X3234467Y-18750746D02*
X3243991Y-18760270D01*
X3243991Y-18760270D02*
X3263039Y-18769793D01*
X3263039Y-18769793D02*
X3301134Y-18769793D01*
X3301134Y-18769793D02*
X3320182Y-18760270D01*
X3320182Y-18760270D02*
X3329705Y-18750746D01*
X3329705Y-18750746D02*
X3339229Y-18731698D01*
X3405896Y-18645984D02*
X3539229Y-18645984D01*
X3539229Y-18645984D02*
X3453515Y-18845984D01*
X3615420Y-18845984D02*
X3615420Y-18712650D01*
X3615420Y-18731698D02*
X3624943Y-18722174D01*
X3624943Y-18722174D02*
X3643991Y-18712650D01*
X3643991Y-18712650D02*
X3672563Y-18712650D01*
X3672563Y-18712650D02*
X3691610Y-18722174D01*
X3691610Y-18722174D02*
X3701134Y-18741222D01*
X3701134Y-18741222D02*
X3701134Y-18845984D01*
X3701134Y-18741222D02*
X3710658Y-18722174D01*
X3710658Y-18722174D02*
X3729705Y-18712650D01*
X3729705Y-18712650D02*
X3758277Y-18712650D01*
X3758277Y-18712650D02*
X3777324Y-18722174D01*
X3777324Y-18722174D02*
X3786848Y-18741222D01*
X3786848Y-18741222D02*
X3786848Y-18845984D01*
X3882086Y-18845984D02*
X3882086Y-18712650D01*
X3882086Y-18731698D02*
X3891610Y-18722174D01*
X3891610Y-18722174D02*
X3910658Y-18712650D01*
X3910658Y-18712650D02*
X3939229Y-18712650D01*
X3939229Y-18712650D02*
X3958277Y-18722174D01*
X3958277Y-18722174D02*
X3967801Y-18741222D01*
X3967801Y-18741222D02*
X3967801Y-18845984D01*
X3967801Y-18741222D02*
X3977324Y-18722174D01*
X3977324Y-18722174D02*
X3996372Y-18712650D01*
X3996372Y-18712650D02*
X4024943Y-18712650D01*
X4024943Y-18712650D02*
X4043991Y-18722174D01*
X4043991Y-18722174D02*
X4053515Y-18741222D01*
X4053515Y-18741222D02*
X4053515Y-18845984D01*
X4443991Y-18636460D02*
X4272563Y-18893603D01*
X4701134Y-18645984D02*
X4720182Y-18645984D01*
X4720182Y-18645984D02*
X4739229Y-18655508D01*
X4739229Y-18655508D02*
X4748753Y-18665031D01*
X4748753Y-18665031D02*
X4758277Y-18684079D01*
X4758277Y-18684079D02*
X4767801Y-18722174D01*
X4767801Y-18722174D02*
X4767801Y-18769793D01*
X4767801Y-18769793D02*
X4758277Y-18807889D01*
X4758277Y-18807889D02*
X4748753Y-18826936D01*
X4748753Y-18826936D02*
X4739229Y-18836460D01*
X4739229Y-18836460D02*
X4720182Y-18845984D01*
X4720182Y-18845984D02*
X4701134Y-18845984D01*
X4701134Y-18845984D02*
X4682087Y-18836460D01*
X4682087Y-18836460D02*
X4672563Y-18826936D01*
X4672563Y-18826936D02*
X4663039Y-18807889D01*
X4663039Y-18807889D02*
X4653515Y-18769793D01*
X4653515Y-18769793D02*
X4653515Y-18722174D01*
X4653515Y-18722174D02*
X4663039Y-18684079D01*
X4663039Y-18684079D02*
X4672563Y-18665031D01*
X4672563Y-18665031D02*
X4682087Y-18655508D01*
X4682087Y-18655508D02*
X4701134Y-18645984D01*
X4853515Y-18826936D02*
X4863039Y-18836460D01*
X4863039Y-18836460D02*
X4853515Y-18845984D01*
X4853515Y-18845984D02*
X4843991Y-18836460D01*
X4843991Y-18836460D02*
X4853515Y-18826936D01*
X4853515Y-18826936D02*
X4853515Y-18845984D01*
X4986848Y-18645984D02*
X5005896Y-18645984D01*
X5005896Y-18645984D02*
X5024944Y-18655508D01*
X5024944Y-18655508D02*
X5034468Y-18665031D01*
X5034468Y-18665031D02*
X5043991Y-18684079D01*
X5043991Y-18684079D02*
X5053515Y-18722174D01*
X5053515Y-18722174D02*
X5053515Y-18769793D01*
X5053515Y-18769793D02*
X5043991Y-18807889D01*
X5043991Y-18807889D02*
X5034468Y-18826936D01*
X5034468Y-18826936D02*
X5024944Y-18836460D01*
X5024944Y-18836460D02*
X5005896Y-18845984D01*
X5005896Y-18845984D02*
X4986848Y-18845984D01*
X4986848Y-18845984D02*
X4967801Y-18836460D01*
X4967801Y-18836460D02*
X4958277Y-18826936D01*
X4958277Y-18826936D02*
X4948753Y-18807889D01*
X4948753Y-18807889D02*
X4939229Y-18769793D01*
X4939229Y-18769793D02*
X4939229Y-18722174D01*
X4939229Y-18722174D02*
X4948753Y-18684079D01*
X4948753Y-18684079D02*
X4958277Y-18665031D01*
X4958277Y-18665031D02*
X4967801Y-18655508D01*
X4967801Y-18655508D02*
X4986848Y-18645984D01*
X5234468Y-18645984D02*
X5139229Y-18645984D01*
X5139229Y-18645984D02*
X5129706Y-18741222D01*
X5129706Y-18741222D02*
X5139229Y-18731698D01*
X5139229Y-18731698D02*
X5158277Y-18722174D01*
X5158277Y-18722174D02*
X5205896Y-18722174D01*
X5205896Y-18722174D02*
X5224944Y-18731698D01*
X5224944Y-18731698D02*
X5234468Y-18741222D01*
X5234468Y-18741222D02*
X5243991Y-18760270D01*
X5243991Y-18760270D02*
X5243991Y-18807889D01*
X5243991Y-18807889D02*
X5234468Y-18826936D01*
X5234468Y-18826936D02*
X5224944Y-18836460D01*
X5224944Y-18836460D02*
X5205896Y-18845984D01*
X5205896Y-18845984D02*
X5158277Y-18845984D01*
X5158277Y-18845984D02*
X5139229Y-18836460D01*
X5139229Y-18836460D02*
X5129706Y-18826936D01*
X5424944Y-18645984D02*
X5329706Y-18645984D01*
X5329706Y-18645984D02*
X5320182Y-18741222D01*
X5320182Y-18741222D02*
X5329706Y-18731698D01*
X5329706Y-18731698D02*
X5348753Y-18722174D01*
X5348753Y-18722174D02*
X5396372Y-18722174D01*
X5396372Y-18722174D02*
X5415420Y-18731698D01*
X5415420Y-18731698D02*
X5424944Y-18741222D01*
X5424944Y-18741222D02*
X5434468Y-18760270D01*
X5434468Y-18760270D02*
X5434468Y-18807889D01*
X5434468Y-18807889D02*
X5424944Y-18826936D01*
X5424944Y-18826936D02*
X5415420Y-18836460D01*
X5415420Y-18836460D02*
X5396372Y-18845984D01*
X5396372Y-18845984D02*
X5348753Y-18845984D01*
X5348753Y-18845984D02*
X5329706Y-18836460D01*
X5329706Y-18836460D02*
X5320182Y-18826936D01*
X5558277Y-18645984D02*
X5577325Y-18645984D01*
X5577325Y-18645984D02*
X5596372Y-18655508D01*
X5596372Y-18655508D02*
X5605896Y-18665031D01*
X5605896Y-18665031D02*
X5615420Y-18684079D01*
X5615420Y-18684079D02*
X5624944Y-18722174D01*
X5624944Y-18722174D02*
X5624944Y-18769793D01*
X5624944Y-18769793D02*
X5615420Y-18807889D01*
X5615420Y-18807889D02*
X5605896Y-18826936D01*
X5605896Y-18826936D02*
X5596372Y-18836460D01*
X5596372Y-18836460D02*
X5577325Y-18845984D01*
X5577325Y-18845984D02*
X5558277Y-18845984D01*
X5558277Y-18845984D02*
X5539229Y-18836460D01*
X5539229Y-18836460D02*
X5529706Y-18826936D01*
X5529706Y-18826936D02*
X5520182Y-18807889D01*
X5520182Y-18807889D02*
X5510658Y-18769793D01*
X5510658Y-18769793D02*
X5510658Y-18722174D01*
X5510658Y-18722174D02*
X5520182Y-18684079D01*
X5520182Y-18684079D02*
X5529706Y-18665031D01*
X5529706Y-18665031D02*
X5539229Y-18655508D01*
X5539229Y-18655508D02*
X5558277Y-18645984D01*
X5701134Y-18645984D02*
X5701134Y-18684079D01*
X5777325Y-18645984D02*
X5777325Y-18684079D01*
X6072563Y-18922174D02*
X6063039Y-18912650D01*
X6063039Y-18912650D02*
X6043991Y-18884079D01*
X6043991Y-18884079D02*
X6034468Y-18865031D01*
X6034468Y-18865031D02*
X6024944Y-18836460D01*
X6024944Y-18836460D02*
X6015420Y-18788841D01*
X6015420Y-18788841D02*
X6015420Y-18750746D01*
X6015420Y-18750746D02*
X6024944Y-18703127D01*
X6024944Y-18703127D02*
X6034468Y-18674555D01*
X6034468Y-18674555D02*
X6043991Y-18655508D01*
X6043991Y-18655508D02*
X6063039Y-18626936D01*
X6063039Y-18626936D02*
X6072563Y-18617412D01*
X6139229Y-18665031D02*
X6148753Y-18655508D01*
X6148753Y-18655508D02*
X6167801Y-18645984D01*
X6167801Y-18645984D02*
X6215420Y-18645984D01*
X6215420Y-18645984D02*
X6234468Y-18655508D01*
X6234468Y-18655508D02*
X6243991Y-18665031D01*
X6243991Y-18665031D02*
X6253515Y-18684079D01*
X6253515Y-18684079D02*
X6253515Y-18703127D01*
X6253515Y-18703127D02*
X6243991Y-18731698D01*
X6243991Y-18731698D02*
X6129706Y-18845984D01*
X6129706Y-18845984D02*
X6253515Y-18845984D01*
X6434468Y-18645984D02*
X6339229Y-18645984D01*
X6339229Y-18645984D02*
X6329706Y-18741222D01*
X6329706Y-18741222D02*
X6339229Y-18731698D01*
X6339229Y-18731698D02*
X6358277Y-18722174D01*
X6358277Y-18722174D02*
X6405896Y-18722174D01*
X6405896Y-18722174D02*
X6424944Y-18731698D01*
X6424944Y-18731698D02*
X6434468Y-18741222D01*
X6434468Y-18741222D02*
X6443991Y-18760270D01*
X6443991Y-18760270D02*
X6443991Y-18807889D01*
X6443991Y-18807889D02*
X6434468Y-18826936D01*
X6434468Y-18826936D02*
X6424944Y-18836460D01*
X6424944Y-18836460D02*
X6405896Y-18845984D01*
X6405896Y-18845984D02*
X6358277Y-18845984D01*
X6358277Y-18845984D02*
X6339229Y-18836460D01*
X6339229Y-18836460D02*
X6329706Y-18826936D01*
X6682087Y-18845984D02*
X6682087Y-18645984D01*
X6767801Y-18845984D02*
X6767801Y-18741222D01*
X6767801Y-18741222D02*
X6758277Y-18722174D01*
X6758277Y-18722174D02*
X6739230Y-18712650D01*
X6739230Y-18712650D02*
X6710658Y-18712650D01*
X6710658Y-18712650D02*
X6691610Y-18722174D01*
X6691610Y-18722174D02*
X6682087Y-18731698D01*
X6891610Y-18845984D02*
X6872563Y-18836460D01*
X6872563Y-18836460D02*
X6863039Y-18826936D01*
X6863039Y-18826936D02*
X6853515Y-18807889D01*
X6853515Y-18807889D02*
X6853515Y-18750746D01*
X6853515Y-18750746D02*
X6863039Y-18731698D01*
X6863039Y-18731698D02*
X6872563Y-18722174D01*
X6872563Y-18722174D02*
X6891610Y-18712650D01*
X6891610Y-18712650D02*
X6920182Y-18712650D01*
X6920182Y-18712650D02*
X6939230Y-18722174D01*
X6939230Y-18722174D02*
X6948753Y-18731698D01*
X6948753Y-18731698D02*
X6958277Y-18750746D01*
X6958277Y-18750746D02*
X6958277Y-18807889D01*
X6958277Y-18807889D02*
X6948753Y-18826936D01*
X6948753Y-18826936D02*
X6939230Y-18836460D01*
X6939230Y-18836460D02*
X6920182Y-18845984D01*
X6920182Y-18845984D02*
X6891610Y-18845984D01*
X7072563Y-18845984D02*
X7053515Y-18836460D01*
X7053515Y-18836460D02*
X7043991Y-18817412D01*
X7043991Y-18817412D02*
X7043991Y-18645984D01*
X7224944Y-18836460D02*
X7205896Y-18845984D01*
X7205896Y-18845984D02*
X7167801Y-18845984D01*
X7167801Y-18845984D02*
X7148753Y-18836460D01*
X7148753Y-18836460D02*
X7139230Y-18817412D01*
X7139230Y-18817412D02*
X7139230Y-18741222D01*
X7139230Y-18741222D02*
X7148753Y-18722174D01*
X7148753Y-18722174D02*
X7167801Y-18712650D01*
X7167801Y-18712650D02*
X7205896Y-18712650D01*
X7205896Y-18712650D02*
X7224944Y-18722174D01*
X7224944Y-18722174D02*
X7234468Y-18741222D01*
X7234468Y-18741222D02*
X7234468Y-18760270D01*
X7234468Y-18760270D02*
X7139230Y-18779317D01*
X7310658Y-18836460D02*
X7329706Y-18845984D01*
X7329706Y-18845984D02*
X7367801Y-18845984D01*
X7367801Y-18845984D02*
X7386849Y-18836460D01*
X7386849Y-18836460D02*
X7396372Y-18817412D01*
X7396372Y-18817412D02*
X7396372Y-18807889D01*
X7396372Y-18807889D02*
X7386849Y-18788841D01*
X7386849Y-18788841D02*
X7367801Y-18779317D01*
X7367801Y-18779317D02*
X7339230Y-18779317D01*
X7339230Y-18779317D02*
X7320182Y-18769793D01*
X7320182Y-18769793D02*
X7310658Y-18750746D01*
X7310658Y-18750746D02*
X7310658Y-18741222D01*
X7310658Y-18741222D02*
X7320182Y-18722174D01*
X7320182Y-18722174D02*
X7339230Y-18712650D01*
X7339230Y-18712650D02*
X7367801Y-18712650D01*
X7367801Y-18712650D02*
X7386849Y-18722174D01*
X7463039Y-18922174D02*
X7472563Y-18912650D01*
X7472563Y-18912650D02*
X7491611Y-18884079D01*
X7491611Y-18884079D02*
X7501134Y-18865031D01*
X7501134Y-18865031D02*
X7510658Y-18836460D01*
X7510658Y-18836460D02*
X7520182Y-18788841D01*
X7520182Y-18788841D02*
X7520182Y-18750746D01*
X7520182Y-18750746D02*
X7510658Y-18703127D01*
X7510658Y-18703127D02*
X7501134Y-18674555D01*
X7501134Y-18674555D02*
X7491611Y-18655508D01*
X7491611Y-18655508D02*
X7472563Y-18626936D01*
X7472563Y-18626936D02*
X7463039Y-18617412D01*
D19*
X2427400Y-18948400D02*
X2427400Y-19088600D01*
X2357300Y-19018500D02*
X2497500Y-19018500D01*
X2497500Y-19018500D02*
G75*
G02*
X2357300Y-19018500I-70100J0D01*
G01*
X2357300Y-19018500D02*
G75*
G02*
X2497500Y-19018500I70100J0D01*
G01*
D11*
X2863039Y-19109984D02*
X2748753Y-19109984D01*
X2805896Y-19109984D02*
X2805896Y-18909984D01*
X2805896Y-18909984D02*
X2786848Y-18938555D01*
X2786848Y-18938555D02*
X2767801Y-18957603D01*
X2767801Y-18957603D02*
X2748753Y-18967127D01*
X2948753Y-19090936D02*
X2958277Y-19100460D01*
X2958277Y-19100460D02*
X2948753Y-19109984D01*
X2948753Y-19109984D02*
X2939229Y-19100460D01*
X2939229Y-19100460D02*
X2948753Y-19090936D01*
X2948753Y-19090936D02*
X2948753Y-19109984D01*
X3129705Y-18976650D02*
X3129705Y-19109984D01*
X3082086Y-18900460D02*
X3034467Y-19043317D01*
X3034467Y-19043317D02*
X3158277Y-19043317D01*
X3272562Y-18909984D02*
X3291610Y-18909984D01*
X3291610Y-18909984D02*
X3310658Y-18919508D01*
X3310658Y-18919508D02*
X3320182Y-18929031D01*
X3320182Y-18929031D02*
X3329705Y-18948079D01*
X3329705Y-18948079D02*
X3339229Y-18986174D01*
X3339229Y-18986174D02*
X3339229Y-19033793D01*
X3339229Y-19033793D02*
X3329705Y-19071889D01*
X3329705Y-19071889D02*
X3320182Y-19090936D01*
X3320182Y-19090936D02*
X3310658Y-19100460D01*
X3310658Y-19100460D02*
X3291610Y-19109984D01*
X3291610Y-19109984D02*
X3272562Y-19109984D01*
X3272562Y-19109984D02*
X3253515Y-19100460D01*
X3253515Y-19100460D02*
X3243991Y-19090936D01*
X3243991Y-19090936D02*
X3234467Y-19071889D01*
X3234467Y-19071889D02*
X3224943Y-19033793D01*
X3224943Y-19033793D02*
X3224943Y-18986174D01*
X3224943Y-18986174D02*
X3234467Y-18948079D01*
X3234467Y-18948079D02*
X3243991Y-18929031D01*
X3243991Y-18929031D02*
X3253515Y-18919508D01*
X3253515Y-18919508D02*
X3272562Y-18909984D01*
X3415420Y-18929031D02*
X3424943Y-18919508D01*
X3424943Y-18919508D02*
X3443991Y-18909984D01*
X3443991Y-18909984D02*
X3491610Y-18909984D01*
X3491610Y-18909984D02*
X3510658Y-18919508D01*
X3510658Y-18919508D02*
X3520182Y-18929031D01*
X3520182Y-18929031D02*
X3529705Y-18948079D01*
X3529705Y-18948079D02*
X3529705Y-18967127D01*
X3529705Y-18967127D02*
X3520182Y-18995698D01*
X3520182Y-18995698D02*
X3405896Y-19109984D01*
X3405896Y-19109984D02*
X3529705Y-19109984D01*
X3615420Y-19109984D02*
X3615420Y-18976650D01*
X3615420Y-18995698D02*
X3624943Y-18986174D01*
X3624943Y-18986174D02*
X3643991Y-18976650D01*
X3643991Y-18976650D02*
X3672563Y-18976650D01*
X3672563Y-18976650D02*
X3691610Y-18986174D01*
X3691610Y-18986174D02*
X3701134Y-19005222D01*
X3701134Y-19005222D02*
X3701134Y-19109984D01*
X3701134Y-19005222D02*
X3710658Y-18986174D01*
X3710658Y-18986174D02*
X3729705Y-18976650D01*
X3729705Y-18976650D02*
X3758277Y-18976650D01*
X3758277Y-18976650D02*
X3777324Y-18986174D01*
X3777324Y-18986174D02*
X3786848Y-19005222D01*
X3786848Y-19005222D02*
X3786848Y-19109984D01*
X3882086Y-19109984D02*
X3882086Y-18976650D01*
X3882086Y-18995698D02*
X3891610Y-18986174D01*
X3891610Y-18986174D02*
X3910658Y-18976650D01*
X3910658Y-18976650D02*
X3939229Y-18976650D01*
X3939229Y-18976650D02*
X3958277Y-18986174D01*
X3958277Y-18986174D02*
X3967801Y-19005222D01*
X3967801Y-19005222D02*
X3967801Y-19109984D01*
X3967801Y-19005222D02*
X3977324Y-18986174D01*
X3977324Y-18986174D02*
X3996372Y-18976650D01*
X3996372Y-18976650D02*
X4024943Y-18976650D01*
X4024943Y-18976650D02*
X4043991Y-18986174D01*
X4043991Y-18986174D02*
X4053515Y-19005222D01*
X4053515Y-19005222D02*
X4053515Y-19109984D01*
X4443991Y-18900460D02*
X4272563Y-19157603D01*
X4701134Y-18909984D02*
X4720182Y-18909984D01*
X4720182Y-18909984D02*
X4739229Y-18919508D01*
X4739229Y-18919508D02*
X4748753Y-18929031D01*
X4748753Y-18929031D02*
X4758277Y-18948079D01*
X4758277Y-18948079D02*
X4767801Y-18986174D01*
X4767801Y-18986174D02*
X4767801Y-19033793D01*
X4767801Y-19033793D02*
X4758277Y-19071889D01*
X4758277Y-19071889D02*
X4748753Y-19090936D01*
X4748753Y-19090936D02*
X4739229Y-19100460D01*
X4739229Y-19100460D02*
X4720182Y-19109984D01*
X4720182Y-19109984D02*
X4701134Y-19109984D01*
X4701134Y-19109984D02*
X4682087Y-19100460D01*
X4682087Y-19100460D02*
X4672563Y-19090936D01*
X4672563Y-19090936D02*
X4663039Y-19071889D01*
X4663039Y-19071889D02*
X4653515Y-19033793D01*
X4653515Y-19033793D02*
X4653515Y-18986174D01*
X4653515Y-18986174D02*
X4663039Y-18948079D01*
X4663039Y-18948079D02*
X4672563Y-18929031D01*
X4672563Y-18929031D02*
X4682087Y-18919508D01*
X4682087Y-18919508D02*
X4701134Y-18909984D01*
X4853515Y-19090936D02*
X4863039Y-19100460D01*
X4863039Y-19100460D02*
X4853515Y-19109984D01*
X4853515Y-19109984D02*
X4843991Y-19100460D01*
X4843991Y-19100460D02*
X4853515Y-19090936D01*
X4853515Y-19090936D02*
X4853515Y-19109984D01*
X4986848Y-18909984D02*
X5005896Y-18909984D01*
X5005896Y-18909984D02*
X5024944Y-18919508D01*
X5024944Y-18919508D02*
X5034468Y-18929031D01*
X5034468Y-18929031D02*
X5043991Y-18948079D01*
X5043991Y-18948079D02*
X5053515Y-18986174D01*
X5053515Y-18986174D02*
X5053515Y-19033793D01*
X5053515Y-19033793D02*
X5043991Y-19071889D01*
X5043991Y-19071889D02*
X5034468Y-19090936D01*
X5034468Y-19090936D02*
X5024944Y-19100460D01*
X5024944Y-19100460D02*
X5005896Y-19109984D01*
X5005896Y-19109984D02*
X4986848Y-19109984D01*
X4986848Y-19109984D02*
X4967801Y-19100460D01*
X4967801Y-19100460D02*
X4958277Y-19090936D01*
X4958277Y-19090936D02*
X4948753Y-19071889D01*
X4948753Y-19071889D02*
X4939229Y-19033793D01*
X4939229Y-19033793D02*
X4939229Y-18986174D01*
X4939229Y-18986174D02*
X4948753Y-18948079D01*
X4948753Y-18948079D02*
X4958277Y-18929031D01*
X4958277Y-18929031D02*
X4967801Y-18919508D01*
X4967801Y-18919508D02*
X4986848Y-18909984D01*
X5234468Y-18909984D02*
X5139229Y-18909984D01*
X5139229Y-18909984D02*
X5129706Y-19005222D01*
X5129706Y-19005222D02*
X5139229Y-18995698D01*
X5139229Y-18995698D02*
X5158277Y-18986174D01*
X5158277Y-18986174D02*
X5205896Y-18986174D01*
X5205896Y-18986174D02*
X5224944Y-18995698D01*
X5224944Y-18995698D02*
X5234468Y-19005222D01*
X5234468Y-19005222D02*
X5243991Y-19024270D01*
X5243991Y-19024270D02*
X5243991Y-19071889D01*
X5243991Y-19071889D02*
X5234468Y-19090936D01*
X5234468Y-19090936D02*
X5224944Y-19100460D01*
X5224944Y-19100460D02*
X5205896Y-19109984D01*
X5205896Y-19109984D02*
X5158277Y-19109984D01*
X5158277Y-19109984D02*
X5139229Y-19100460D01*
X5139229Y-19100460D02*
X5129706Y-19090936D01*
X5424944Y-18909984D02*
X5329706Y-18909984D01*
X5329706Y-18909984D02*
X5320182Y-19005222D01*
X5320182Y-19005222D02*
X5329706Y-18995698D01*
X5329706Y-18995698D02*
X5348753Y-18986174D01*
X5348753Y-18986174D02*
X5396372Y-18986174D01*
X5396372Y-18986174D02*
X5415420Y-18995698D01*
X5415420Y-18995698D02*
X5424944Y-19005222D01*
X5424944Y-19005222D02*
X5434468Y-19024270D01*
X5434468Y-19024270D02*
X5434468Y-19071889D01*
X5434468Y-19071889D02*
X5424944Y-19090936D01*
X5424944Y-19090936D02*
X5415420Y-19100460D01*
X5415420Y-19100460D02*
X5396372Y-19109984D01*
X5396372Y-19109984D02*
X5348753Y-19109984D01*
X5348753Y-19109984D02*
X5329706Y-19100460D01*
X5329706Y-19100460D02*
X5320182Y-19090936D01*
X5510658Y-18929031D02*
X5520182Y-18919508D01*
X5520182Y-18919508D02*
X5539229Y-18909984D01*
X5539229Y-18909984D02*
X5586849Y-18909984D01*
X5586849Y-18909984D02*
X5605896Y-18919508D01*
X5605896Y-18919508D02*
X5615420Y-18929031D01*
X5615420Y-18929031D02*
X5624944Y-18948079D01*
X5624944Y-18948079D02*
X5624944Y-18967127D01*
X5624944Y-18967127D02*
X5615420Y-18995698D01*
X5615420Y-18995698D02*
X5501134Y-19109984D01*
X5501134Y-19109984D02*
X5624944Y-19109984D01*
X5701134Y-18909984D02*
X5701134Y-18948079D01*
X5777325Y-18909984D02*
X5777325Y-18948079D01*
X6072563Y-19186174D02*
X6063039Y-19176650D01*
X6063039Y-19176650D02*
X6043991Y-19148079D01*
X6043991Y-19148079D02*
X6034468Y-19129031D01*
X6034468Y-19129031D02*
X6024944Y-19100460D01*
X6024944Y-19100460D02*
X6015420Y-19052841D01*
X6015420Y-19052841D02*
X6015420Y-19014746D01*
X6015420Y-19014746D02*
X6024944Y-18967127D01*
X6024944Y-18967127D02*
X6034468Y-18938555D01*
X6034468Y-18938555D02*
X6043991Y-18919508D01*
X6043991Y-18919508D02*
X6063039Y-18890936D01*
X6063039Y-18890936D02*
X6072563Y-18881412D01*
X6234468Y-18976650D02*
X6234468Y-19109984D01*
X6186848Y-18900460D02*
X6139229Y-19043317D01*
X6139229Y-19043317D02*
X6263039Y-19043317D01*
X6491610Y-19109984D02*
X6491610Y-18909984D01*
X6577325Y-19109984D02*
X6577325Y-19005222D01*
X6577325Y-19005222D02*
X6567801Y-18986174D01*
X6567801Y-18986174D02*
X6548753Y-18976650D01*
X6548753Y-18976650D02*
X6520182Y-18976650D01*
X6520182Y-18976650D02*
X6501134Y-18986174D01*
X6501134Y-18986174D02*
X6491610Y-18995698D01*
X6701134Y-19109984D02*
X6682087Y-19100460D01*
X6682087Y-19100460D02*
X6672563Y-19090936D01*
X6672563Y-19090936D02*
X6663039Y-19071889D01*
X6663039Y-19071889D02*
X6663039Y-19014746D01*
X6663039Y-19014746D02*
X6672563Y-18995698D01*
X6672563Y-18995698D02*
X6682087Y-18986174D01*
X6682087Y-18986174D02*
X6701134Y-18976650D01*
X6701134Y-18976650D02*
X6729706Y-18976650D01*
X6729706Y-18976650D02*
X6748753Y-18986174D01*
X6748753Y-18986174D02*
X6758277Y-18995698D01*
X6758277Y-18995698D02*
X6767801Y-19014746D01*
X6767801Y-19014746D02*
X6767801Y-19071889D01*
X6767801Y-19071889D02*
X6758277Y-19090936D01*
X6758277Y-19090936D02*
X6748753Y-19100460D01*
X6748753Y-19100460D02*
X6729706Y-19109984D01*
X6729706Y-19109984D02*
X6701134Y-19109984D01*
X6882087Y-19109984D02*
X6863039Y-19100460D01*
X6863039Y-19100460D02*
X6853515Y-19081412D01*
X6853515Y-19081412D02*
X6853515Y-18909984D01*
X7034468Y-19100460D02*
X7015420Y-19109984D01*
X7015420Y-19109984D02*
X6977325Y-19109984D01*
X6977325Y-19109984D02*
X6958277Y-19100460D01*
X6958277Y-19100460D02*
X6948753Y-19081412D01*
X6948753Y-19081412D02*
X6948753Y-19005222D01*
X6948753Y-19005222D02*
X6958277Y-18986174D01*
X6958277Y-18986174D02*
X6977325Y-18976650D01*
X6977325Y-18976650D02*
X7015420Y-18976650D01*
X7015420Y-18976650D02*
X7034468Y-18986174D01*
X7034468Y-18986174D02*
X7043991Y-19005222D01*
X7043991Y-19005222D02*
X7043991Y-19024270D01*
X7043991Y-19024270D02*
X6948753Y-19043317D01*
X7120182Y-19100460D02*
X7139230Y-19109984D01*
X7139230Y-19109984D02*
X7177325Y-19109984D01*
X7177325Y-19109984D02*
X7196372Y-19100460D01*
X7196372Y-19100460D02*
X7205896Y-19081412D01*
X7205896Y-19081412D02*
X7205896Y-19071889D01*
X7205896Y-19071889D02*
X7196372Y-19052841D01*
X7196372Y-19052841D02*
X7177325Y-19043317D01*
X7177325Y-19043317D02*
X7148753Y-19043317D01*
X7148753Y-19043317D02*
X7129706Y-19033793D01*
X7129706Y-19033793D02*
X7120182Y-19014746D01*
X7120182Y-19014746D02*
X7120182Y-19005222D01*
X7120182Y-19005222D02*
X7129706Y-18986174D01*
X7129706Y-18986174D02*
X7148753Y-18976650D01*
X7148753Y-18976650D02*
X7177325Y-18976650D01*
X7177325Y-18976650D02*
X7196372Y-18986174D01*
X7272563Y-19186174D02*
X7282087Y-19176650D01*
X7282087Y-19176650D02*
X7301134Y-19148079D01*
X7301134Y-19148079D02*
X7310658Y-19129031D01*
X7310658Y-19129031D02*
X7320182Y-19100460D01*
X7320182Y-19100460D02*
X7329706Y-19052841D01*
X7329706Y-19052841D02*
X7329706Y-19014746D01*
X7329706Y-19014746D02*
X7320182Y-18967127D01*
X7320182Y-18967127D02*
X7310658Y-18938555D01*
X7310658Y-18938555D02*
X7301134Y-18919508D01*
X7301134Y-18919508D02*
X7282087Y-18890936D01*
X7282087Y-18890936D02*
X7272563Y-18881412D01*
D20*
X2471140Y-19346140D02*
X2471140Y-19218860D01*
X2343860Y-19218860D01*
X2343860Y-19346140D01*
X2471140Y-19346140D01*
X2497500Y-19282500D02*
G75*
G02*
X2317500Y-19282500I-90000J0D01*
G01*
X2317500Y-19282500D02*
G75*
G02*
X2497500Y-19282500I90000J0D01*
G01*
D11*
X2863039Y-19373984D02*
X2748753Y-19373984D01*
X2805896Y-19373984D02*
X2805896Y-19173984D01*
X2805896Y-19173984D02*
X2786848Y-19202555D01*
X2786848Y-19202555D02*
X2767801Y-19221603D01*
X2767801Y-19221603D02*
X2748753Y-19231127D01*
X2948753Y-19354936D02*
X2958277Y-19364460D01*
X2958277Y-19364460D02*
X2948753Y-19373984D01*
X2948753Y-19373984D02*
X2939229Y-19364460D01*
X2939229Y-19364460D02*
X2948753Y-19354936D01*
X2948753Y-19354936D02*
X2948753Y-19373984D01*
X3072562Y-19259698D02*
X3053515Y-19250174D01*
X3053515Y-19250174D02*
X3043991Y-19240650D01*
X3043991Y-19240650D02*
X3034467Y-19221603D01*
X3034467Y-19221603D02*
X3034467Y-19212079D01*
X3034467Y-19212079D02*
X3043991Y-19193031D01*
X3043991Y-19193031D02*
X3053515Y-19183508D01*
X3053515Y-19183508D02*
X3072562Y-19173984D01*
X3072562Y-19173984D02*
X3110658Y-19173984D01*
X3110658Y-19173984D02*
X3129705Y-19183508D01*
X3129705Y-19183508D02*
X3139229Y-19193031D01*
X3139229Y-19193031D02*
X3148753Y-19212079D01*
X3148753Y-19212079D02*
X3148753Y-19221603D01*
X3148753Y-19221603D02*
X3139229Y-19240650D01*
X3139229Y-19240650D02*
X3129705Y-19250174D01*
X3129705Y-19250174D02*
X3110658Y-19259698D01*
X3110658Y-19259698D02*
X3072562Y-19259698D01*
X3072562Y-19259698D02*
X3053515Y-19269222D01*
X3053515Y-19269222D02*
X3043991Y-19278746D01*
X3043991Y-19278746D02*
X3034467Y-19297793D01*
X3034467Y-19297793D02*
X3034467Y-19335889D01*
X3034467Y-19335889D02*
X3043991Y-19354936D01*
X3043991Y-19354936D02*
X3053515Y-19364460D01*
X3053515Y-19364460D02*
X3072562Y-19373984D01*
X3072562Y-19373984D02*
X3110658Y-19373984D01*
X3110658Y-19373984D02*
X3129705Y-19364460D01*
X3129705Y-19364460D02*
X3139229Y-19354936D01*
X3139229Y-19354936D02*
X3148753Y-19335889D01*
X3148753Y-19335889D02*
X3148753Y-19297793D01*
X3148753Y-19297793D02*
X3139229Y-19278746D01*
X3139229Y-19278746D02*
X3129705Y-19269222D01*
X3129705Y-19269222D02*
X3110658Y-19259698D01*
X3272562Y-19173984D02*
X3291610Y-19173984D01*
X3291610Y-19173984D02*
X3310658Y-19183508D01*
X3310658Y-19183508D02*
X3320182Y-19193031D01*
X3320182Y-19193031D02*
X3329705Y-19212079D01*
X3329705Y-19212079D02*
X3339229Y-19250174D01*
X3339229Y-19250174D02*
X3339229Y-19297793D01*
X3339229Y-19297793D02*
X3329705Y-19335889D01*
X3329705Y-19335889D02*
X3320182Y-19354936D01*
X3320182Y-19354936D02*
X3310658Y-19364460D01*
X3310658Y-19364460D02*
X3291610Y-19373984D01*
X3291610Y-19373984D02*
X3272562Y-19373984D01*
X3272562Y-19373984D02*
X3253515Y-19364460D01*
X3253515Y-19364460D02*
X3243991Y-19354936D01*
X3243991Y-19354936D02*
X3234467Y-19335889D01*
X3234467Y-19335889D02*
X3224943Y-19297793D01*
X3224943Y-19297793D02*
X3224943Y-19250174D01*
X3224943Y-19250174D02*
X3234467Y-19212079D01*
X3234467Y-19212079D02*
X3243991Y-19193031D01*
X3243991Y-19193031D02*
X3253515Y-19183508D01*
X3253515Y-19183508D02*
X3272562Y-19173984D01*
X3463039Y-19173984D02*
X3482086Y-19173984D01*
X3482086Y-19173984D02*
X3501134Y-19183508D01*
X3501134Y-19183508D02*
X3510658Y-19193031D01*
X3510658Y-19193031D02*
X3520182Y-19212079D01*
X3520182Y-19212079D02*
X3529705Y-19250174D01*
X3529705Y-19250174D02*
X3529705Y-19297793D01*
X3529705Y-19297793D02*
X3520182Y-19335889D01*
X3520182Y-19335889D02*
X3510658Y-19354936D01*
X3510658Y-19354936D02*
X3501134Y-19364460D01*
X3501134Y-19364460D02*
X3482086Y-19373984D01*
X3482086Y-19373984D02*
X3463039Y-19373984D01*
X3463039Y-19373984D02*
X3443991Y-19364460D01*
X3443991Y-19364460D02*
X3434467Y-19354936D01*
X3434467Y-19354936D02*
X3424943Y-19335889D01*
X3424943Y-19335889D02*
X3415420Y-19297793D01*
X3415420Y-19297793D02*
X3415420Y-19250174D01*
X3415420Y-19250174D02*
X3424943Y-19212079D01*
X3424943Y-19212079D02*
X3434467Y-19193031D01*
X3434467Y-19193031D02*
X3443991Y-19183508D01*
X3443991Y-19183508D02*
X3463039Y-19173984D01*
X3615420Y-19373984D02*
X3615420Y-19240650D01*
X3615420Y-19259698D02*
X3624943Y-19250174D01*
X3624943Y-19250174D02*
X3643991Y-19240650D01*
X3643991Y-19240650D02*
X3672563Y-19240650D01*
X3672563Y-19240650D02*
X3691610Y-19250174D01*
X3691610Y-19250174D02*
X3701134Y-19269222D01*
X3701134Y-19269222D02*
X3701134Y-19373984D01*
X3701134Y-19269222D02*
X3710658Y-19250174D01*
X3710658Y-19250174D02*
X3729705Y-19240650D01*
X3729705Y-19240650D02*
X3758277Y-19240650D01*
X3758277Y-19240650D02*
X3777324Y-19250174D01*
X3777324Y-19250174D02*
X3786848Y-19269222D01*
X3786848Y-19269222D02*
X3786848Y-19373984D01*
X3882086Y-19373984D02*
X3882086Y-19240650D01*
X3882086Y-19259698D02*
X3891610Y-19250174D01*
X3891610Y-19250174D02*
X3910658Y-19240650D01*
X3910658Y-19240650D02*
X3939229Y-19240650D01*
X3939229Y-19240650D02*
X3958277Y-19250174D01*
X3958277Y-19250174D02*
X3967801Y-19269222D01*
X3967801Y-19269222D02*
X3967801Y-19373984D01*
X3967801Y-19269222D02*
X3977324Y-19250174D01*
X3977324Y-19250174D02*
X3996372Y-19240650D01*
X3996372Y-19240650D02*
X4024943Y-19240650D01*
X4024943Y-19240650D02*
X4043991Y-19250174D01*
X4043991Y-19250174D02*
X4053515Y-19269222D01*
X4053515Y-19269222D02*
X4053515Y-19373984D01*
X4443991Y-19164460D02*
X4272563Y-19421603D01*
X4701134Y-19173984D02*
X4720182Y-19173984D01*
X4720182Y-19173984D02*
X4739229Y-19183508D01*
X4739229Y-19183508D02*
X4748753Y-19193031D01*
X4748753Y-19193031D02*
X4758277Y-19212079D01*
X4758277Y-19212079D02*
X4767801Y-19250174D01*
X4767801Y-19250174D02*
X4767801Y-19297793D01*
X4767801Y-19297793D02*
X4758277Y-19335889D01*
X4758277Y-19335889D02*
X4748753Y-19354936D01*
X4748753Y-19354936D02*
X4739229Y-19364460D01*
X4739229Y-19364460D02*
X4720182Y-19373984D01*
X4720182Y-19373984D02*
X4701134Y-19373984D01*
X4701134Y-19373984D02*
X4682087Y-19364460D01*
X4682087Y-19364460D02*
X4672563Y-19354936D01*
X4672563Y-19354936D02*
X4663039Y-19335889D01*
X4663039Y-19335889D02*
X4653515Y-19297793D01*
X4653515Y-19297793D02*
X4653515Y-19250174D01*
X4653515Y-19250174D02*
X4663039Y-19212079D01*
X4663039Y-19212079D02*
X4672563Y-19193031D01*
X4672563Y-19193031D02*
X4682087Y-19183508D01*
X4682087Y-19183508D02*
X4701134Y-19173984D01*
X4853515Y-19354936D02*
X4863039Y-19364460D01*
X4863039Y-19364460D02*
X4853515Y-19373984D01*
X4853515Y-19373984D02*
X4843991Y-19364460D01*
X4843991Y-19364460D02*
X4853515Y-19354936D01*
X4853515Y-19354936D02*
X4853515Y-19373984D01*
X4986848Y-19173984D02*
X5005896Y-19173984D01*
X5005896Y-19173984D02*
X5024944Y-19183508D01*
X5024944Y-19183508D02*
X5034468Y-19193031D01*
X5034468Y-19193031D02*
X5043991Y-19212079D01*
X5043991Y-19212079D02*
X5053515Y-19250174D01*
X5053515Y-19250174D02*
X5053515Y-19297793D01*
X5053515Y-19297793D02*
X5043991Y-19335889D01*
X5043991Y-19335889D02*
X5034468Y-19354936D01*
X5034468Y-19354936D02*
X5024944Y-19364460D01*
X5024944Y-19364460D02*
X5005896Y-19373984D01*
X5005896Y-19373984D02*
X4986848Y-19373984D01*
X4986848Y-19373984D02*
X4967801Y-19364460D01*
X4967801Y-19364460D02*
X4958277Y-19354936D01*
X4958277Y-19354936D02*
X4948753Y-19335889D01*
X4948753Y-19335889D02*
X4939229Y-19297793D01*
X4939229Y-19297793D02*
X4939229Y-19250174D01*
X4939229Y-19250174D02*
X4948753Y-19212079D01*
X4948753Y-19212079D02*
X4958277Y-19193031D01*
X4958277Y-19193031D02*
X4967801Y-19183508D01*
X4967801Y-19183508D02*
X4986848Y-19173984D01*
X5120182Y-19173984D02*
X5253515Y-19173984D01*
X5253515Y-19173984D02*
X5167801Y-19373984D01*
X5367801Y-19173984D02*
X5386849Y-19173984D01*
X5386849Y-19173984D02*
X5405896Y-19183508D01*
X5405896Y-19183508D02*
X5415420Y-19193031D01*
X5415420Y-19193031D02*
X5424944Y-19212079D01*
X5424944Y-19212079D02*
X5434468Y-19250174D01*
X5434468Y-19250174D02*
X5434468Y-19297793D01*
X5434468Y-19297793D02*
X5424944Y-19335889D01*
X5424944Y-19335889D02*
X5415420Y-19354936D01*
X5415420Y-19354936D02*
X5405896Y-19364460D01*
X5405896Y-19364460D02*
X5386849Y-19373984D01*
X5386849Y-19373984D02*
X5367801Y-19373984D01*
X5367801Y-19373984D02*
X5348753Y-19364460D01*
X5348753Y-19364460D02*
X5339229Y-19354936D01*
X5339229Y-19354936D02*
X5329706Y-19335889D01*
X5329706Y-19335889D02*
X5320182Y-19297793D01*
X5320182Y-19297793D02*
X5320182Y-19250174D01*
X5320182Y-19250174D02*
X5329706Y-19212079D01*
X5329706Y-19212079D02*
X5339229Y-19193031D01*
X5339229Y-19193031D02*
X5348753Y-19183508D01*
X5348753Y-19183508D02*
X5367801Y-19173984D01*
X5529706Y-19373984D02*
X5567801Y-19373984D01*
X5567801Y-19373984D02*
X5586849Y-19364460D01*
X5586849Y-19364460D02*
X5596372Y-19354936D01*
X5596372Y-19354936D02*
X5615420Y-19326365D01*
X5615420Y-19326365D02*
X5624944Y-19288270D01*
X5624944Y-19288270D02*
X5624944Y-19212079D01*
X5624944Y-19212079D02*
X5615420Y-19193031D01*
X5615420Y-19193031D02*
X5605896Y-19183508D01*
X5605896Y-19183508D02*
X5586849Y-19173984D01*
X5586849Y-19173984D02*
X5548753Y-19173984D01*
X5548753Y-19173984D02*
X5529706Y-19183508D01*
X5529706Y-19183508D02*
X5520182Y-19193031D01*
X5520182Y-19193031D02*
X5510658Y-19212079D01*
X5510658Y-19212079D02*
X5510658Y-19259698D01*
X5510658Y-19259698D02*
X5520182Y-19278746D01*
X5520182Y-19278746D02*
X5529706Y-19288270D01*
X5529706Y-19288270D02*
X5548753Y-19297793D01*
X5548753Y-19297793D02*
X5586849Y-19297793D01*
X5586849Y-19297793D02*
X5605896Y-19288270D01*
X5605896Y-19288270D02*
X5615420Y-19278746D01*
X5615420Y-19278746D02*
X5624944Y-19259698D01*
X5701134Y-19173984D02*
X5701134Y-19212079D01*
X5777325Y-19173984D02*
X5777325Y-19212079D01*
X6072563Y-19450174D02*
X6063039Y-19440650D01*
X6063039Y-19440650D02*
X6043991Y-19412079D01*
X6043991Y-19412079D02*
X6034468Y-19393031D01*
X6034468Y-19393031D02*
X6024944Y-19364460D01*
X6024944Y-19364460D02*
X6015420Y-19316841D01*
X6015420Y-19316841D02*
X6015420Y-19278746D01*
X6015420Y-19278746D02*
X6024944Y-19231127D01*
X6024944Y-19231127D02*
X6034468Y-19202555D01*
X6034468Y-19202555D02*
X6043991Y-19183508D01*
X6043991Y-19183508D02*
X6063039Y-19154936D01*
X6063039Y-19154936D02*
X6072563Y-19145412D01*
X6253515Y-19373984D02*
X6139229Y-19373984D01*
X6196372Y-19373984D02*
X6196372Y-19173984D01*
X6196372Y-19173984D02*
X6177325Y-19202555D01*
X6177325Y-19202555D02*
X6158277Y-19221603D01*
X6158277Y-19221603D02*
X6139229Y-19231127D01*
X6377325Y-19173984D02*
X6396372Y-19173984D01*
X6396372Y-19173984D02*
X6415420Y-19183508D01*
X6415420Y-19183508D02*
X6424944Y-19193031D01*
X6424944Y-19193031D02*
X6434468Y-19212079D01*
X6434468Y-19212079D02*
X6443991Y-19250174D01*
X6443991Y-19250174D02*
X6443991Y-19297793D01*
X6443991Y-19297793D02*
X6434468Y-19335889D01*
X6434468Y-19335889D02*
X6424944Y-19354936D01*
X6424944Y-19354936D02*
X6415420Y-19364460D01*
X6415420Y-19364460D02*
X6396372Y-19373984D01*
X6396372Y-19373984D02*
X6377325Y-19373984D01*
X6377325Y-19373984D02*
X6358277Y-19364460D01*
X6358277Y-19364460D02*
X6348753Y-19354936D01*
X6348753Y-19354936D02*
X6339229Y-19335889D01*
X6339229Y-19335889D02*
X6329706Y-19297793D01*
X6329706Y-19297793D02*
X6329706Y-19250174D01*
X6329706Y-19250174D02*
X6339229Y-19212079D01*
X6339229Y-19212079D02*
X6348753Y-19193031D01*
X6348753Y-19193031D02*
X6358277Y-19183508D01*
X6358277Y-19183508D02*
X6377325Y-19173984D01*
X6682087Y-19373984D02*
X6682087Y-19173984D01*
X6767801Y-19373984D02*
X6767801Y-19269222D01*
X6767801Y-19269222D02*
X6758277Y-19250174D01*
X6758277Y-19250174D02*
X6739230Y-19240650D01*
X6739230Y-19240650D02*
X6710658Y-19240650D01*
X6710658Y-19240650D02*
X6691610Y-19250174D01*
X6691610Y-19250174D02*
X6682087Y-19259698D01*
X6891610Y-19373984D02*
X6872563Y-19364460D01*
X6872563Y-19364460D02*
X6863039Y-19354936D01*
X6863039Y-19354936D02*
X6853515Y-19335889D01*
X6853515Y-19335889D02*
X6853515Y-19278746D01*
X6853515Y-19278746D02*
X6863039Y-19259698D01*
X6863039Y-19259698D02*
X6872563Y-19250174D01*
X6872563Y-19250174D02*
X6891610Y-19240650D01*
X6891610Y-19240650D02*
X6920182Y-19240650D01*
X6920182Y-19240650D02*
X6939230Y-19250174D01*
X6939230Y-19250174D02*
X6948753Y-19259698D01*
X6948753Y-19259698D02*
X6958277Y-19278746D01*
X6958277Y-19278746D02*
X6958277Y-19335889D01*
X6958277Y-19335889D02*
X6948753Y-19354936D01*
X6948753Y-19354936D02*
X6939230Y-19364460D01*
X6939230Y-19364460D02*
X6920182Y-19373984D01*
X6920182Y-19373984D02*
X6891610Y-19373984D01*
X7072563Y-19373984D02*
X7053515Y-19364460D01*
X7053515Y-19364460D02*
X7043991Y-19345412D01*
X7043991Y-19345412D02*
X7043991Y-19173984D01*
X7224944Y-19364460D02*
X7205896Y-19373984D01*
X7205896Y-19373984D02*
X7167801Y-19373984D01*
X7167801Y-19373984D02*
X7148753Y-19364460D01*
X7148753Y-19364460D02*
X7139230Y-19345412D01*
X7139230Y-19345412D02*
X7139230Y-19269222D01*
X7139230Y-19269222D02*
X7148753Y-19250174D01*
X7148753Y-19250174D02*
X7167801Y-19240650D01*
X7167801Y-19240650D02*
X7205896Y-19240650D01*
X7205896Y-19240650D02*
X7224944Y-19250174D01*
X7224944Y-19250174D02*
X7234468Y-19269222D01*
X7234468Y-19269222D02*
X7234468Y-19288270D01*
X7234468Y-19288270D02*
X7139230Y-19307317D01*
X7310658Y-19364460D02*
X7329706Y-19373984D01*
X7329706Y-19373984D02*
X7367801Y-19373984D01*
X7367801Y-19373984D02*
X7386849Y-19364460D01*
X7386849Y-19364460D02*
X7396372Y-19345412D01*
X7396372Y-19345412D02*
X7396372Y-19335889D01*
X7396372Y-19335889D02*
X7386849Y-19316841D01*
X7386849Y-19316841D02*
X7367801Y-19307317D01*
X7367801Y-19307317D02*
X7339230Y-19307317D01*
X7339230Y-19307317D02*
X7320182Y-19297793D01*
X7320182Y-19297793D02*
X7310658Y-19278746D01*
X7310658Y-19278746D02*
X7310658Y-19269222D01*
X7310658Y-19269222D02*
X7320182Y-19250174D01*
X7320182Y-19250174D02*
X7339230Y-19240650D01*
X7339230Y-19240650D02*
X7367801Y-19240650D01*
X7367801Y-19240650D02*
X7386849Y-19250174D01*
X7463039Y-19450174D02*
X7472563Y-19440650D01*
X7472563Y-19440650D02*
X7491611Y-19412079D01*
X7491611Y-19412079D02*
X7501134Y-19393031D01*
X7501134Y-19393031D02*
X7510658Y-19364460D01*
X7510658Y-19364460D02*
X7520182Y-19316841D01*
X7520182Y-19316841D02*
X7520182Y-19278746D01*
X7520182Y-19278746D02*
X7510658Y-19231127D01*
X7510658Y-19231127D02*
X7501134Y-19202555D01*
X7501134Y-19202555D02*
X7491611Y-19183508D01*
X7491611Y-19183508D02*
X7472563Y-19154936D01*
X7472563Y-19154936D02*
X7463039Y-19145412D01*
M02*
